<svg id="Layer_1" enable-background="new 0 0 256 256" height="512" viewBox="0 0 256 256" width="512" xmlns="http://www.w3.org/2000/svg"><path d="m233.295 40.2-5.639-2.513c-3.787-1.688-5.489-6.126-3.801-9.913l.474-1.064c1.688-3.787 6.126-5.489 9.913-3.801l5.639 2.513c3.787 1.688 5.489 6.126 3.801 9.913l-.474 1.064c-1.688 3.786-6.126 5.488-9.913 3.801z" fill="#e0ebfc"/><circle cx="126.882" cy="107.158" fill="#6bdddd" r="82.218"/><path d="m127.749 162.275c-13.783 0-24.997-9.619-24.997-21.443 0-1.657 1.343-3 3-3s3 1.343 3 3c0 8.515 8.522 15.443 18.997 15.443s18.997-6.928 18.997-15.443c0-1.657 1.343-3 3-3s3 1.343 3 3c0 11.824-11.214 21.443-24.997 21.443z" fill="#3762cc"/><circle cx="126.882" cy="87.944" fill="#e0ebfc" r="43.552"/><circle cx="126.882" cy="87.944" fill="#a4c9ff" r="29.78"/><circle cx="126.882" cy="87.882" fill="#4671c6" r="15.538"/><circle cx="135.292" cy="76.461" fill="#e0ebfc" r="7.769"/><path d="m126.882 133.496c-25.117 0-45.552-20.435-45.552-45.552s20.435-45.552 45.552-45.552c25.118 0 45.552 20.435 45.552 45.552 0 25.118-20.434 45.552-45.552 45.552zm0-87.104c-22.912 0-41.552 18.64-41.552 41.552s18.64 41.552 41.552 41.552 41.552-18.64 41.552-41.552-18.64-41.552-41.552-41.552z" fill="#3762cc"/><path d="m126.882 191.376c-46.438 0-84.217-37.78-84.217-84.218s37.78-84.217 84.217-84.217c46.438 0 84.218 37.78 84.218 84.217 0 46.438-37.78 84.218-84.218 84.218zm0-164.435c-44.232 0-80.217 35.985-80.217 80.217s35.985 80.218 80.217 80.218 80.218-35.985 80.218-80.218c0-44.232-35.986-80.217-80.218-80.217z" fill="#3762cc"/><path d="m57.678 151.523c-.01-.008-.018-.017-.028-.025l-23.542-19.106c-1.317-1.069-1.09-3.141.427-3.9l11.614-5.807c-.962-5.03-1.484-10.216-1.484-15.526 0-.565.031-1.123.043-1.686l-28.949 16.676c-5.495 3.166-5.445 11.113.09 14.209l33.344 18.65v7.586c0 2.686 2.177 4.863 4.863 4.863h1.459c2.095 0 3.793-1.698 3.793-3.793v-8.687c0-.437-.07-.864-.192-1.274-.494-.718-.968-1.448-1.438-2.18z" fill="#e0ebfc"/><path d="m233.295 40.2-5.639-2.513c-.67-.298-1.27-.686-1.802-1.138l-22.738 39.816c3.216 7.953 5.223 16.519 5.795 25.48l25.831-61.168c-.489-.108-.973-.266-1.447-.477z" fill="#e0ebfc"/><g fill="#3762cc"><path d="m236.336 42.85c-1.291 0-2.602-.265-3.855-.823l-5.639-2.513c-4.788-2.134-6.948-7.766-4.814-12.554l.474-1.064c1.033-2.319 2.909-4.098 5.28-5.007 2.372-.91 4.955-.841 7.274.193l5.639 2.513c4.788 2.133 6.948 7.765 4.814 12.553l-.474 1.064c-1.576 3.535-5.058 5.638-8.699 5.638zm-2.228-4.477c2.772 1.235 6.036-.016 7.272-2.789l.474-1.063c.599-1.344.638-2.84.111-4.213s-1.557-2.459-2.9-3.059l-5.639-2.513c-1.344-.599-2.841-.638-4.213-.111-1.374.527-2.459 1.557-3.059 2.9l-.474 1.064c-1.236 2.773.015 6.036 2.789 7.272z"/><path d="m55.514 169.456h-1.459c-3.784 0-6.863-3.079-6.863-6.863v-6.413l-32.32-18.077c-3.236-1.81-5.182-5.104-5.206-8.812-.023-3.707 1.881-7.025 5.094-8.875l28.948-16.676c.625-.36 1.396-.355 2.017.011.621.367.996 1.041.981 1.762l-.02.685c-.011.319-.022.639-.022.96 0 5.025.487 10.123 1.448 15.15.168.879-.269 1.764-1.07 2.165l-11.614 5.807c-.108.054-.169.142-.183.262s.028.219.122.295l23.542 19.107c.028.022.062.052.092.079.138.122.259.263.358.418.458.715.92 1.427 1.401 2.125.119.173.21.364.27.565.182.614.274 1.234.274 1.843v8.688c.003 3.195-2.596 5.794-5.79 5.794zm-12.83-60.51-25.927 14.935c-1.949 1.123-3.104 3.136-3.09 5.385s1.195 4.248 3.158 5.346l33.343 18.65c.632.354 1.024 1.021 1.024 1.746v7.586c0 1.579 1.284 2.863 2.863 2.863h1.459c.989 0 1.793-.804 1.793-1.793v-8.688c0-.142-.015-.289-.044-.439-.374-.55-.737-1.108-1.097-1.668l-23.318-18.924c-1.148-.932-1.738-2.366-1.578-3.837.161-1.471 1.047-2.743 2.371-3.405l10.271-5.136c-.725-4.193-1.137-8.425-1.228-12.621z"/><path d="m208.911 103.844c-.111 0-.223-.009-.335-.028-.915-.155-1.603-.918-1.662-1.844-.547-8.571-2.449-16.935-5.653-24.857-.23-.568-.187-1.21.117-1.742l22.738-39.816c.295-.517.805-.875 1.39-.978.587-.105 1.187.061 1.641.445.406.344.851.625 1.322.836l5.638 2.513c.344.153.702.271 1.063.351.58.127 1.074.506 1.347 1.034s.297 1.149.066 1.697l-25.831 61.168c-.316.749-1.048 1.221-1.841 1.221zm-3.581-27.323c2.206 5.642 3.787 11.491 4.726 17.471l22.021-52.146-5.234-2.333c-.101-.044-.2-.091-.298-.139z"/></g><path d="m91.252 181.275 2.328 38.135c.033.542-.307 1.037-.824 1.2l-13.409 4.238c-1.894.598-3.181 2.355-3.181 4.341 0 2.514 2.038 4.553 4.553 4.553h19.148c3.349 0 6.099-2.646 6.229-5.993l1.568-40.656c-5.725-1.37-11.224-3.319-16.412-5.818z" fill="#6bdddd"/><path d="m174.418 224.849-13.409-4.238c-.518-.164-.858-.659-.825-1.2l2.328-38.135c-5.188 2.499-10.687 4.448-16.411 5.819l1.568 40.656c.129 3.346 2.88 5.993 6.228 5.993h19.148c2.514 0 4.553-2.038 4.553-4.553.001-1.987-1.286-3.744-3.18-4.342z" fill="#6bdddd"/><path d="m99.866 235.743h-19.148c-3.613 0-6.553-2.94-6.553-6.553 0-2.872 1.84-5.383 4.578-6.248l12.801-4.046-2.289-37.499c-.043-.708.292-1.387.881-1.782s1.343-.45 1.983-.142c5.047 2.43 10.434 4.34 16.009 5.676.928.222 1.569 1.069 1.533 2.022l-1.569 40.656c-.17 4.439-3.784 7.916-8.226 7.916zm-6.415-51.267 2.125 34.813c.09 1.46-.822 2.789-2.218 3.23l-13.409 4.238c-1.066.337-1.783 1.315-1.783 2.434 0 1.408 1.145 2.553 2.553 2.553h19.147c2.284 0 4.142-1.788 4.23-4.07l1.506-39.033c-4.178-1.087-8.248-2.482-12.151-4.165zm-1.868 35.056h.01z" fill="#3762cc"/><path d="m173.046 235.743h-19.148c-4.442 0-8.055-3.477-8.227-7.916l-1.568-40.656c-.037-.953.605-1.8 1.533-2.022 5.576-1.336 10.962-3.246 16.009-5.676.64-.308 1.393-.255 1.983.142.589.396.924 1.074.881 1.782l-2.289 37.499 12.801 4.046c2.738.865 4.578 3.376 4.578 6.248 0 3.613-2.94 6.553-6.553 6.553zm-24.884-47.103 1.506 39.033c.088 2.282 1.946 4.07 4.23 4.07h19.148c1.408 0 2.553-1.146 2.553-2.553 0-1.119-.717-2.097-1.783-2.434l-13.409-4.238c-1.396-.441-2.308-1.77-2.218-3.23l2.125-34.813c-3.904 1.684-7.974 3.079-12.152 4.165z" fill="#3762cc"/><ellipse cx="186.539" cy="120.232" fill="#f9a7a7" rx="13.643" ry="8.19"/><ellipse cx="67.039" cy="120.232" fill="#f9a7a7" rx="13.643" ry="8.19"/></svg>