<?xml version="1.0" standalone="no"?>
<!DOCTYPE svg PUBLIC "-//W3C//DTD SVG 1.1//EN" "http://www.w3.org/Graphics/SVG/1.1/DTD/svg11.dtd" >
<svg xmlns="http://www.w3.org/2000/svg" xmlns:xlink="http://www.w3.org/1999/xlink" version="1.1">
<metadata>
Created by FontForge 20201107 at Fri May 12 16:46:13 2017
 By Jimmy Wärting
Copyright (c) 2014 Indian Type Foundry (info@indiantypefoundry.com)
</metadata>
<defs>
<font id="SVN-RajdhaniSemiBold" horiz-adv-x="235" >
  <font-face 
    font-family="SVN-Rajdhani SemiBold"
    font-weight="600"
    font-stretch="normal"
    units-per-em="1000"
    panose-1="2 0 0 0 0 0 0 0 0 0"
    ascent="800"
    descent="-200"
    x-height="510"
    cap-height="643"
    bbox="-448 -334 2024 972"
    underline-thickness="50"
    underline-position="-100"
    unicode-range="U+000D-F6C3"
  />
<missing-glyph horiz-adv-x="600" 
d="M430 536h-260v-490h260v490zM480 0h-360v582h360v-582z" />
    <glyph glyph-name=".notdef" horiz-adv-x="600" 
d="M430 536h-260v-490h260v490zM480 0h-360v582h360v-582z" />
    <glyph glyph-name="_1" horiz-adv-x="0" 
 />
    <glyph glyph-name="CR.001" horiz-adv-x="333" 
 />
    <glyph glyph-name="NULL" horiz-adv-x="0" 
 />
    <glyph glyph-name="NULL" horiz-adv-x="0" 
 />
    <glyph glyph-name="CR" unicode="&#xd;" horiz-adv-x="0" 
 />
    <glyph glyph-name="space" unicode=" " horiz-adv-x="238" 
 />
    <glyph glyph-name="exclam" unicode="!" horiz-adv-x="238" 
d="M65 492v134c0 11 6 17 17 17h73c11 0 17 -6 17 -17v-134c0 -79 -5 -163 -15 -253c-2 -12 -8 -18 -18 -18h-41c-10 0 -16 6 -18 18c-10 90 -15 174 -15 253zM169 139v-122c0 -11 -5 -17 -16 -17h-67c-11 0 -16 6 -16 18v121c0 11 5 16 16 16h67c11 0 16 -5 16 -16z" />
    <glyph glyph-name="quotedbl" unicode="&#x22;" horiz-adv-x="344" 
d="M97 422h-12c-10 0 -16 6 -17 19l-21 186c-1 11 4 16 15 16h59c11 0 16 -5 15 -16l-20 -187c-3 -12 -10 -18 -19 -18zM258 422h-11c-11 0 -17 6 -17 19l-21 186c-2 11 3 16 15 16h59c11 0 16 -5 14 -16l-20 -187c-2 -12 -8 -18 -19 -18z" />
    <glyph glyph-name="numbersign" unicode="#" horiz-adv-x="672" 
d="M534 493h79c11 0 17 -6 17 -17v-45c0 -12 -6 -18 -17 -18h-99l-47 -183h90c11 0 17 -6 17 -18v-45c0 -11 -6 -17 -17 -17h-111l-34 -132c-3 -12 -9 -18 -19 -18h-47c-12 0 -17 7 -14 20l34 130h-142l-34 -132c-4 -12 -11 -18 -22 -18h-45c-13 0 -17 7 -13 20l34 130h-84
c-11 0 -17 6 -17 17v45c0 12 6 18 17 18h104l47 183h-95c-12 0 -18 6 -18 18v45c0 11 6 17 18 17h116l34 132c2 12 8 18 19 18h46c13 0 18 -7 14 -20l-33 -130h142l34 132c3 12 10 18 22 18h43c13 0 18 -7 15 -20zM244 230h142l47 183h-142z" />
    <glyph glyph-name="dollar" unicode="$" horiz-adv-x="518" 
d="M288 -98h-46c-11 0 -17 6 -17 17v81h-17c-95 0 -153 59 -153 156v23c0 12 6 18 18 18h63c11 0 17 -6 17 -18v-15c0 -56 24 -79 81 -79h52c56 0 80 24 80 83v32c0 56 -35 72 -104 76c-49 2 -84 6 -103 11s-37 14 -53 25c-34 23 -51 66 -51 129v47c0 97 57 156 153 156h17
v82c0 11 6 17 17 17h46c11 0 17 -6 17 -17v-82h5c91 0 147 -60 147 -156v-22c0 -12 -6 -18 -17 -18h-63c-12 0 -18 6 -18 18v13c0 56 -23 79 -80 79h-46c-59 0 -80 -23 -80 -86v-34c0 -51 33 -67 104 -71l51 -2c93 -5 156 -46 156 -161v-48c0 -97 -59 -156 -154 -156h-5v-81
c0 -11 -6 -17 -17 -17z" />
    <glyph glyph-name="percent" unicode="%" horiz-adv-x="732" 
d="M560 244h-20c-41 0 -53 -14 -53 -55v-75c0 -41 12 -56 53 -56h20c40 0 53 15 53 56v75c0 41 -13 55 -53 55zM526 302h46c73 0 109 -37 109 -110v-82c0 -73 -36 -110 -109 -110h-46c-73 0 -109 37 -109 110v82c0 73 36 110 109 110zM193 587h-21c-40 0 -53 -14 -53 -55
v-76c0 -41 13 -55 53 -55h21c40 0 52 15 52 55v76c0 40 -12 55 -52 55zM159 645h46c73 0 109 -37 109 -110v-82c0 -73 -36 -110 -109 -110h-46c-73 0 -109 37 -109 110v82c0 73 36 110 109 110zM255 0h-39c-12 0 -16 6 -12 18c15 40 57 142 125 306s109 264 124 301
c5 12 13 18 22 18h40c13 0 17 -6 12 -19l-249 -606c-4 -12 -12 -18 -23 -18z" />
    <glyph glyph-name="ampersand" unicode="&#x26;" horiz-adv-x="610" 
d="M220 86h55c37 0 58 17 63 51l-135 157c-39 -2 -58 -28 -58 -78v-57c0 -49 25 -73 75 -73zM275 0h-69c-97 0 -155 56 -155 153v69c0 67 35 125 102 130c-27 35 -41 74 -41 117v21c0 96 62 153 161 153h30c97 0 155 -56 155 -153v-39c0 -12 -6 -18 -17 -18h-63
c-11 0 -17 6 -17 18v37c0 48 -22 72 -67 72h-12c-47 0 -70 -24 -70 -72v-21c0 -30 15 -61 44 -94l53 -61h229c11 0 17 -6 17 -18v-51c0 -11 -6 -17 -17 -17h-157l179 -212c5 -5 3 -14 -5 -14h-80c-13 0 -23 4 -29 12l-49 58c-15 -47 -56 -70 -122 -70z" />
    <glyph glyph-name="quotesingle" unicode="'" horiz-adv-x="187" 
d="M100 447h-13c-11 0 -17 5 -18 16l-19 142c-2 9 3 14 15 14h57c12 0 16 -5 15 -14l-19 -143c-2 -10 -8 -15 -18 -15z" />
    <glyph glyph-name="parenleft" unicode="(" horiz-adv-x="297" 
d="M223 572h-4c-60 0 -90 -38 -90 -114v-375c0 -76 31 -114 92 -114h2c11 0 16 -5 16 -15v-43c0 -11 -3 -13 -16 -13h-4c-107 0 -171 64 -171 196v354c0 131 65 195 172 195h3c13 0 16 -2 16 -13v-43c0 -10 -5 -15 -16 -15z" />
    <glyph glyph-name="parenright" unicode=")" horiz-adv-x="297" 
d="M48 -89v43c0 10 5 15 16 15h2c59 0 92 38 92 114v375c0 76 -33 114 -92 114h-2c-11 0 -16 5 -16 15v43c0 9 5 13 16 13h2c107 0 173 -64 173 -195v-354c0 -132 -66 -196 -173 -196h-2c-11 0 -16 4 -16 13z" />
    <glyph glyph-name="asterisk" unicode="*" horiz-adv-x="401" 
d="M163 616v11c0 11 6 16 17 16h39c11 0 16 -5 16 -16v-11c0 -37 -11 -79 -34 -124c1 0 21 23 43 41c19 15 40 26 63 33l12 4c10 3 17 -1 20 -11l12 -37c3 -11 0 -18 -11 -21c-38 -14 -84 -17 -139 -9c2 0 12 -5 29 -14c37 -22 64 -47 81 -74c7 -9 6 -16 -3 -22l-32 -23
c-10 -5 -18 -4 -23 4c-25 29 -43 72 -52 129c-7 -53 -21 -94 -42 -123l-7 -10c-6 -8 -14 -9 -23 -2l-31 23c-11 6 -12 14 -4 23c23 35 59 64 107 89c-56 -10 -99 -10 -129 1l-12 4c-10 4 -13 11 -9 21l12 38c3 11 10 14 21 9c38 -9 77 -33 117 -73c-25 51 -38 92 -38 124z
" />
    <glyph glyph-name="plus" unicode="+" horiz-adv-x="549" 
d="M317 506v-144h143c13 0 19 -7 19 -20v-42c0 -13 -6 -19 -19 -19h-143v-145c0 -13 -7 -20 -20 -20h-45c-13 0 -19 7 -19 20v145h-144c-13 0 -19 6 -19 19v42c0 13 6 20 19 20h144v144c0 13 6 20 19 20h45c13 0 20 -7 20 -20z" />
    <glyph glyph-name="comma" unicode="," horiz-adv-x="199" 
d="M150 139v-78c0 -16 -6 -36 -19 -60l-53 -97c-3 -6 -8 -9 -15 -9c-9 0 -14 5 -14 16v228c0 11 6 16 17 16h68c11 0 16 -5 16 -16z" />
    <glyph glyph-name="hyphen" unicode="-" horiz-adv-x="312" 
d="M255 279h-198c-11 0 -17 6 -17 18v44c0 12 6 18 17 18h198c11 0 17 -6 17 -18v-44c0 -12 -6 -18 -17 -18z" />
    <glyph glyph-name="period" unicode="." horiz-adv-x="199" 
d="M150 139v-122c0 -11 -5 -17 -16 -17h-68c-11 0 -17 6 -17 17v122c0 11 6 16 17 16h68c11 0 16 -5 16 -16z" />
    <glyph glyph-name="slash" unicode="/" horiz-adv-x="404" 
d="M114 0h-57c-14 0 -19 6 -14 18c15 37 52 138 112 302s98 266 113 305c5 12 13 18 23 18h58c13 0 17 -6 13 -19l-225 -606c-4 -12 -12 -18 -23 -18z" />
    <glyph glyph-name="zero" unicode="0" horiz-adv-x="528" 
d="M229 85h71c48 0 72 25 72 74v325c0 49 -24 74 -72 74h-71c-48 0 -72 -25 -72 -74v-325c0 -49 24 -74 72 -74zM314 0h-100c-99 0 -156 58 -156 155v333c0 99 57 155 156 155h100c97 0 155 -56 155 -155v-333c0 -97 -58 -155 -155 -155z" />
    <glyph glyph-name="one" unicode="1" horiz-adv-x="327" 
d="M28 486v59c0 11 5 19 14 24l104 63c13 7 23 11 32 11h60c11 0 17 -6 17 -17v-609c0 -11 -5 -17 -16 -17h-65c-11 0 -17 6 -17 17v522l-109 -63c-13 -6 -20 -3 -20 10z" />
    <glyph glyph-name="two" unicode="2" horiz-adv-x="487" 
d="M52 17v92c0 41 18 76 53 104l189 154c32 25 48 55 48 88v33c0 48 -25 72 -75 72h-49c-51 0 -72 -21 -72 -72v-37c0 -12 -6 -18 -17 -18h-64c-11 0 -17 6 -17 18v39c0 97 57 153 156 153h78c97 0 155 -56 155 -153v-41c0 -52 -20 -95 -61 -128l-192 -157
c-15 -13 -23 -28 -23 -45v-32h260c12 0 18 -6 18 -17v-53c0 -11 -6 -17 -18 -17h-351c-12 0 -18 6 -18 17z" />
    <glyph glyph-name="three" unicode="3" horiz-adv-x="504" 
d="M221 363h55c49 0 74 24 74 73v52c0 48 -25 72 -74 72h-59c-49 0 -72 -21 -72 -72v-29c0 -11 -6 -17 -17 -17h-64c-11 0 -17 6 -17 17v31c0 97 57 153 156 153h87c99 0 156 -56 156 -153v-55c0 -59 -27 -96 -80 -112c53 -13 80 -50 80 -112v-58c0 -97 -57 -153 -156 -153
h-87c-99 0 -156 56 -156 153v35c0 12 6 18 17 18h64c11 0 17 -6 17 -18v-33c0 -49 23 -72 72 -72h59c49 0 74 24 74 72v55c0 49 -25 73 -74 73h-55c-11 0 -17 6 -17 17v45c0 12 6 18 17 18z" />
    <glyph glyph-name="four" unicode="4" horiz-adv-x="533" 
d="M134 208h197v354zM407 0h-59c-11 0 -17 6 -17 17v105h-264c-19 0 -29 10 -29 29v31c0 15 3 28 9 39l223 397c11 20 17 25 36 25h88c19 0 29 -10 29 -29v-406h73c11 0 17 -6 17 -17v-50c0 -13 -6 -19 -17 -19h-73v-105c0 -11 -5 -17 -16 -17z" />
    <glyph glyph-name="five" unicode="5" horiz-adv-x="497" 
d="M276 340h-62c-25 0 -43 -11 -48 -22c-7 -15 -16 -23 -27 -23h-63c-11 0 -17 6 -17 17v314c0 11 6 17 17 17h339c12 0 18 -6 18 -17v-57c0 -11 -6 -17 -18 -17h-258v-182c11 33 39 49 84 49h59c96 0 148 -51 148 -148v-116c0 -97 -58 -155 -155 -155h-85
c-99 0 -155 58 -155 155v26c0 12 6 18 17 18h63c11 0 17 -6 17 -18v-25c0 -49 24 -73 72 -73h57c49 0 74 24 74 73v101c0 60 -21 83 -77 83z" />
    <glyph glyph-name="six" unicode="6" horiz-adv-x="515" 
d="M224 85h68c48 0 72 25 72 74v80c0 49 -24 74 -72 74h-140v-154c0 -49 24 -74 72 -74zM306 0h-96c-99 0 -156 58 -156 155v333c0 99 57 155 156 155h199c11 0 17 -6 17 -17v-52c0 -11 -6 -16 -17 -16h-185c-48 0 -72 -25 -72 -74v-86h154c99 0 156 -56 156 -155v-88
c0 -97 -57 -155 -156 -155z" />
    <glyph glyph-name="seven" unicode="7" horiz-adv-x="412" 
d="M151 0h-69c-13 0 -16 6 -9 19l214 534h-252c-11 0 -17 6 -17 18v55c0 11 6 17 17 17h339c12 0 18 -6 18 -17v-62c0 -11 -4 -25 -11 -42l-202 -506c-4 -11 -13 -16 -28 -16z" />
    <glyph glyph-name="eight" unicode="8" horiz-adv-x="533" 
d="M227 85h79c49 0 72 22 72 71v54c0 50 -24 75 -72 75h-79c-48 0 -72 -25 -72 -75v-54c0 -49 23 -71 72 -71zM227 363h79c48 0 72 25 72 75v49c0 49 -23 71 -72 71h-79c-49 0 -72 -22 -72 -71v-49c0 -50 24 -75 72 -75zM320 0h-106c-99 0 -156 52 -156 149v54
c0 61 23 101 69 120c-46 19 -69 59 -69 121v51c0 96 57 148 156 148h106c99 0 155 -52 155 -148v-51c0 -61 -27 -106 -68 -121c45 -18 68 -58 68 -121v-53c0 -97 -56 -149 -155 -149z" />
    <glyph glyph-name="nine" unicode="9" horiz-adv-x="515" 
d="M219 326h140v158c0 49 -24 74 -73 74h-67c-48 0 -72 -25 -72 -74v-85c0 -49 24 -73 72 -73zM300 0h-203c-13 0 -19 6 -19 17v52c0 11 6 16 19 16h189c48 0 72 25 72 74v81h-154c-99 0 -156 57 -156 154v94c0 99 57 155 156 155h96c99 0 156 -56 156 -155v-333
c0 -97 -57 -155 -156 -155z" />
    <glyph glyph-name="colon" unicode=":" horiz-adv-x="199" 
d="M150 494v-122c0 -11 -5 -17 -16 -17h-68c-11 0 -17 6 -17 19v119c0 11 6 17 17 17h68c11 0 16 -5 16 -16zM150 139v-122c0 -11 -5 -17 -16 -17h-68c-11 0 -17 6 -17 18v121c0 11 6 16 17 16h68c11 0 16 -5 16 -16z" />
    <glyph glyph-name="semicolon" unicode=";" horiz-adv-x="199" 
d="M150 139v-78c0 -16 -6 -36 -19 -60l-53 -97c-3 -6 -8 -9 -15 -9c-9 0 -14 5 -14 16v228c0 11 6 16 17 16h68c11 0 16 -5 16 -16zM150 494v-122c0 -11 -5 -17 -16 -17h-68c-11 0 -17 6 -17 19v119c0 11 6 17 17 17h68c11 0 16 -5 16 -16z" />
    <glyph glyph-name="less" unicode="&#x3c;" horiz-adv-x="544" 
d="M477 493v-50c0 -13 -5 -20 -16 -23l-312 -95l312 -94c11 -3 16 -10 16 -23v-50c0 -13 -7 -17 -20 -12l-368 126c-14 5 -21 15 -21 31v44c0 16 7 26 21 31l368 127c13 5 20 1 20 -12z" />
    <glyph glyph-name="equal" unicode="=" horiz-adv-x="554" 
d="M91 456h372c12 0 18 -6 18 -19v-41c0 -13 -6 -19 -18 -19h-372c-15 0 -19 4 -19 19v41c0 15 4 19 19 19zM91 266h372c12 0 18 -6 18 -19v-41c0 -13 -6 -20 -18 -20h-372c-13 0 -19 7 -19 20v41c0 13 6 19 19 19z" />
    <glyph glyph-name="greater" unicode="&#x3e;" horiz-adv-x="554" 
d="M72 443v50c0 13 7 17 20 12l368 -127c14 -5 21 -15 21 -31v-44c0 -16 -7 -26 -21 -31l-368 -126c-13 -5 -20 -1 -20 12v50c0 13 5 20 16 23l311 94l-311 95c-11 3 -16 10 -16 23z" />
    <glyph glyph-name="question" unicode="?" horiz-adv-x="469" 
d="M282 139v-122c0 -11 -5 -17 -16 -17h-68c-11 0 -17 6 -17 18v121c0 11 6 16 17 16h68c11 0 16 -5 16 -16zM281 268v-30c0 -11 -6 -17 -18 -17h-59c-11 0 -17 6 -17 17v29c0 49 12 71 51 103l49 41c23 19 35 39 35 62v14c0 48 -25 72 -75 72h-27c-49 0 -71 -23 -71 -72
v-29c0 -12 -6 -18 -18 -18h-63c-11 0 -17 6 -17 18v31c0 97 58 153 155 153h56c97 0 155 -56 155 -153v-21c0 -33 -15 -63 -45 -90l-60 -48c-27 -23 -31 -35 -31 -62z" />
    <glyph glyph-name="at" unicode="@" horiz-adv-x="749" 
d="M500 -58h-180c-71 0 -131 22 -180 66s-73 103 -73 176v173c0 71 23 130 69 176c47 47 104 70 172 70h201c53 0 96 -16 129 -47s50 -72 50 -121v-219c0 -79 -55 -133 -134 -133h-47c-31 0 -55 16 -55 44v11h-4c-16 -36 -50 -54 -102 -54c-81 0 -136 54 -136 149v72
c0 97 56 155 143 155h162c11 0 17 -6 17 -17v-289c0 -7 6 -11 17 -11h1c52 0 78 27 78 80v207c0 72 -52 114 -125 114h-190c-112 0 -187 -73 -187 -192v-159c0 -59 18 -106 54 -141c36 -34 82 -51 139 -51h181c11 0 17 -6 17 -17v-25c0 -11 -6 -17 -17 -17zM452 242v132
c0 7 -4 11 -11 11h-73c-48 0 -72 -25 -72 -74v-80c0 -49 24 -73 72 -73h2c55 0 82 28 82 84z" />
    <glyph glyph-name="A" unicode="A" horiz-adv-x="548" 
d="M108 0h-72c-9 0 -13 6 -10 17l174 609c3 11 11 17 24 17h100c13 0 21 -6 24 -17l174 -609c3 -11 -1 -17 -11 -17h-71c-12 0 -15 4 -18 17l-38 130h-220l-38 -130c-3 -11 -9 -17 -18 -17zM276 547h-4l-88 -320h181z" />
    <glyph glyph-name="B" unicode="B" horiz-adv-x="552" 
d="M181 83h140c50 0 75 24 75 72v62c0 48 -26 72 -79 72h-136c-7 0 -11 -3 -11 -10v-186c0 -7 4 -10 11 -10zM181 369h130c51 0 76 24 76 73v46c0 48 -25 72 -74 72h-132c-7 0 -11 -3 -11 -10v-171c0 -7 4 -10 11 -10zM73 17v609c0 11 6 17 17 17h237c99 0 156 -56 156 -153
v-49c0 -58 -27 -95 -82 -112c52 -7 90 -47 90 -112v-64c0 -97 -58 -153 -155 -153h-246c-11 0 -17 6 -17 17z" />
    <glyph glyph-name="C" unicode="C" horiz-adv-x="540" 
d="M334 0h-116c-99 0 -155 58 -155 155v333c0 99 56 155 155 155h116c97 0 155 -56 155 -155v-48c0 -12 -6 -18 -18 -18h-63c-11 0 -17 6 -17 18v44c0 49 -24 74 -72 74h-87c-48 0 -72 -25 -72 -74v-325c0 -49 24 -74 72 -74h87c48 0 72 25 72 74v44c0 12 6 18 17 18h63
c12 0 18 -6 18 -18v-48c0 -97 -58 -155 -155 -155z" />
    <glyph glyph-name="D" unicode="D" horiz-adv-x="555" 
d="M181 85h141c48 0 72 25 72 74v325c0 49 -24 74 -72 74h-141c-7 0 -11 -3 -11 -10v-452c0 -7 4 -11 11 -11zM73 17v609c0 11 6 17 17 17h246c97 0 156 -56 156 -155v-333c0 -97 -59 -155 -156 -155h-246c-11 0 -17 6 -17 17z" />
    <glyph glyph-name="E" unicode="E" horiz-adv-x="480" 
d="M410 0h-320c-11 0 -17 6 -17 17v609c0 11 6 17 17 17h320c11 0 16 -6 16 -17v-51c0 -11 -5 -17 -16 -17h-228c-8 0 -12 -3 -12 -10v-169c0 -7 4 -10 12 -10h193c12 0 18 -6 18 -17v-51c0 -11 -6 -17 -18 -17h-193c-8 0 -12 -3 -12 -10v-178c0 -7 4 -11 12 -11h228
c11 0 16 -6 16 -17v-51c0 -11 -5 -17 -16 -17z" />
    <glyph glyph-name="F" unicode="F" horiz-adv-x="454" 
d="M153 0h-63c-11 0 -17 6 -17 17v609c0 11 6 17 17 17h314c11 0 17 -6 17 -17v-51c0 -11 -6 -17 -17 -17h-222c-8 0 -12 -3 -12 -10v-189c0 -7 4 -11 12 -11h193c12 0 18 -6 18 -17v-50c0 -12 -6 -18 -18 -18h-193c-8 0 -12 -3 -12 -10v-236c0 -11 -6 -17 -17 -17z" />
    <glyph glyph-name="G" unicode="G" horiz-adv-x="543" 
d="M325 0h-107c-99 0 -155 58 -155 155v333c0 99 56 155 155 155h107c99 0 155 -56 155 -155v-36c0 -12 -6 -18 -17 -18h-63c-11 0 -17 6 -17 18v32c0 49 -24 74 -72 74h-79c-48 0 -72 -25 -72 -74v-325c0 -49 24 -74 72 -74h79c48 0 72 25 72 74v90c0 7 -4 10 -11 10h-81
c-11 0 -17 6 -17 17v51c0 11 6 17 17 17h168c14 0 21 -7 21 -21v-168c0 -97 -58 -155 -155 -155z" />
    <glyph glyph-name="H" unicode="H" horiz-adv-x="574" 
d="M153 0h-63c-11 0 -17 6 -17 17v609c0 11 6 17 17 17h63c11 0 17 -6 17 -17v-250c0 -7 4 -10 12 -10h211c7 0 10 3 10 10v250c0 11 6 17 17 17h64c11 0 17 -6 17 -17v-609c0 -11 -6 -17 -17 -17h-64c-11 0 -17 6 -17 17v253c0 7 -3 10 -10 10h-211c-8 0 -12 -3 -12 -10
v-253c0 -11 -6 -17 -17 -17z" />
    <glyph glyph-name="I" unicode="I" horiz-adv-x="253" 
d="M175 626v-609c0 -11 -6 -17 -17 -17h-63c-11 0 -17 6 -17 17v609c0 11 6 17 17 17h63c11 0 17 -6 17 -17z" />
    <glyph glyph-name="J" unicode="J" horiz-adv-x="513" 
d="M365 643h63c11 0 17 -5 17 -16v-472c0 -97 -58 -155 -155 -155h-100c-99 0 -156 58 -156 155v90c0 11 6 17 18 17h63c11 0 17 -6 17 -17v-86c0 -49 24 -74 72 -74h71c48 0 72 25 72 74v467c0 11 6 17 18 17z" />
    <glyph glyph-name="K" unicode="K" horiz-adv-x="548" 
d="M153 0h-63c-11 0 -17 6 -17 17v609c0 11 6 17 17 17h63c11 0 17 -6 17 -17v-317h3c7 18 15 35 26 50l191 267c7 11 18 17 32 17h74c14 0 16 -6 7 -19l-195 -265l220 -339c8 -13 4 -20 -12 -20h-56c-18 0 -31 6 -38 17l-173 271l-79 -93v-178c0 -11 -6 -17 -17 -17z" />
    <glyph glyph-name="L" unicode="L" horiz-adv-x="450" 
d="M414 0h-324c-11 0 -17 6 -17 17v609c0 11 6 17 17 17h63c11 0 17 -6 17 -17v-529c0 -7 4 -10 12 -10h232c11 0 17 -6 17 -18v-52c0 -11 -6 -17 -17 -17z" />
    <glyph glyph-name="M" unicode="M" horiz-adv-x="715" 
d="M513 643h112c11 0 17 -6 17 -17v-609c0 -11 -6 -17 -17 -17h-62c-11 0 -17 6 -17 17v505h-4l-130 -366c-4 -11 -11 -16 -22 -16h-64c-10 0 -17 5 -21 16l-133 367h-4v-506c0 -13 -4 -17 -17 -17h-61c-11 0 -17 6 -17 17v609c0 11 6 17 17 17h112c7 0 13 -4 16 -11
l137 -386h5l138 386c1 7 6 11 15 11z" />
    <glyph glyph-name="N" unicode="N" horiz-adv-x="583" 
d="M152 0h-62c-11 0 -17 6 -17 17v609c0 11 6 17 17 17h56c11 0 18 -4 22 -11l242 -435h4v429c0 11 6 17 17 17h62c11 0 17 -6 17 -17v-609c0 -11 -6 -17 -17 -17h-54c-11 0 -19 5 -26 16l-240 430h-4v-429c0 -11 -6 -17 -17 -17z" />
    <glyph glyph-name="O" unicode="O" horiz-adv-x="552" 
d="M232 85h87c49 0 73 25 73 74v325c0 49 -24 74 -73 74h-87c-48 0 -72 -25 -72 -74v-325c0 -49 24 -74 72 -74zM334 0h-116c-99 0 -155 58 -155 155v333c0 99 56 155 155 155h116c99 0 156 -56 156 -155v-333c0 -97 -57 -155 -156 -155z" />
    <glyph glyph-name="P" unicode="P" horiz-adv-x="528" 
d="M153 0h-63c-11 0 -17 6 -17 17v609c0 11 6 17 17 17h238c97 0 155 -56 155 -155v-104c0 -97 -58 -155 -155 -155h-146c-8 0 -12 -3 -12 -10v-202c0 -11 -6 -17 -17 -17zM181 315h133c47 0 71 25 71 74v95c0 49 -24 74 -71 74h-133c-7 0 -11 -3 -11 -10v-223
c0 -7 4 -10 11 -10z" />
    <glyph glyph-name="Q" unicode="Q" horiz-adv-x="564" 
d="M239 85h87c48 0 72 25 72 74v325c0 49 -24 74 -72 74h-87c-48 0 -72 -25 -72 -74v-325c0 -49 24 -74 72 -74zM426 -133h-56c-15 0 -25 6 -32 17l-68 116h-46c-99 0 -156 58 -156 155v333c0 99 57 155 156 155h116c99 0 155 -56 155 -155v-333c0 -87 -45 -141 -124 -152
l67 -115c7 -13 0 -21 -12 -21z" />
    <glyph glyph-name="R" unicode="R" horiz-adv-x="542" 
d="M153 0h-63c-11 0 -17 6 -17 17v609c0 11 6 17 17 17h234c97 0 156 -59 156 -156v-84c0 -77 -32 -125 -95 -145v-4l111 -234c7 -13 3 -20 -13 -20h-62c-16 0 -26 6 -31 17l-107 230h-101c-8 0 -12 -3 -12 -10v-220c0 -11 -6 -17 -17 -17zM181 327h127c49 0 74 24 74 73v84
c0 49 -25 74 -74 74h-127c-7 0 -11 -3 -11 -10v-211c0 -7 4 -10 11 -10z" />
    <glyph glyph-name="S" unicode="S" horiz-adv-x="548" 
d="M61 156v26c0 11 6 17 17 17h64c11 0 17 -6 17 -17v-18c0 -56 23 -79 80 -79h69c57 0 81 24 81 83v23c-1 70 -82 73 -164 90c-29 7 -55 14 -79 23c-48 17 -85 66 -85 141v42c0 97 59 156 156 156h106c99 0 157 -59 157 -156v-22c0 -11 -6 -17 -17 -17h-64
c-11 0 -17 6 -17 17v13c0 57 -23 80 -80 80h-63c-57 0 -80 -23 -80 -86v-31c0 -30 22 -50 65 -61c95 -23 262 -17 262 -185v-39c0 -97 -59 -156 -156 -156h-112c-97 0 -157 59 -157 156z" />
    <glyph glyph-name="T" unicode="T" horiz-adv-x="434" 
d="M249 0h-63c-12 0 -18 6 -18 17v531c0 7 -3 10 -10 10h-126c-12 0 -18 6 -18 17v51c0 11 6 17 18 17h371c12 0 18 -6 18 -17v-51c0 -11 -6 -17 -18 -17h-126c-7 0 -11 -3 -11 -10v-531c0 -11 -6 -17 -17 -17z" />
    <glyph glyph-name="U" unicode="U" horiz-adv-x="557" 
d="M409 643h63c12 0 18 -5 18 -16v-472c0 -97 -59 -155 -156 -155h-111c-97 0 -155 58 -155 155v471c0 11 6 17 17 17h63c11 0 17 -6 17 -17v-467c0 -49 24 -74 72 -74h82c49 0 73 25 73 74v467c0 11 6 17 17 17z" />
    <glyph glyph-name="V" unicode="V" horiz-adv-x="513" 
d="M307 0h-99c-11 0 -18 6 -21 17l-166 607c-4 13 1 19 15 19h71c11 0 17 -6 19 -17l129 -522h4l128 522c3 11 9 17 20 17h70c14 0 19 -6 16 -19l-167 -607c-3 -11 -9 -17 -19 -17z" />
    <glyph glyph-name="W" unicode="W" horiz-adv-x="802" 
d="M267 0h-106c-12 0 -19 6 -21 17l-119 609c-1 11 4 17 17 17h77c13 0 19 -6 20 -17l81 -524h6l118 526c1 10 7 15 18 15h84c11 0 17 -5 19 -15l119 -526h6l81 523c1 12 7 18 20 18h77c13 0 19 -6 17 -18l-119 -608c-2 -11 -9 -17 -20 -17h-106c-11 0 -18 6 -20 17
l-113 506h-4l-113 -506c-2 -11 -8 -17 -19 -17z" />
    <glyph glyph-name="X" unicode="X" horiz-adv-x="526" 
d="M114 0h-74c-11 0 -16 7 -11 18l165 315l-158 292c-5 9 0 18 11 18h71c13 0 23 -6 28 -17l115 -232h4l115 232c6 11 15 17 26 17h74c11 0 16 -10 12 -19l-160 -291l165 -314c5 -11 1 -19 -11 -19h-75c-11 0 -18 5 -23 16l-123 244h-4l-123 -244c-5 -11 -13 -16 -24 -16z
" />
    <glyph glyph-name="Y" unicode="Y" horiz-adv-x="508" 
d="M286 0h-64c-11 0 -17 6 -17 17v221l-187 387c-5 11 2 18 11 18h80c9 0 15 -6 20 -17l123 -275h6l121 275c4 11 11 17 20 17h80c11 0 16 -7 11 -18l-187 -387v-221c0 -11 -6 -17 -17 -17z" />
    <glyph glyph-name="Z" unicode="Z" horiz-adv-x="506" 
d="M46 17v47c0 17 3 30 9 37l289 447v4h-265c-12 0 -18 6 -18 17v57c0 11 6 17 18 17h354c11 0 17 -6 17 -17v-66c0 -15 -4 -28 -11 -39l-278 -426v-4h282c11 0 17 -5 17 -16v-56c0 -13 -6 -19 -17 -19h-380c-11 0 -17 6 -17 17z" />
    <glyph glyph-name="bracketleft" unicode="[" horiz-adv-x="309" 
d="M228 -99h-140c-11 0 -16 6 -16 18v707c0 11 5 17 16 17h140c11 0 17 -6 17 -17v-34c0 -11 -6 -17 -17 -17h-65c-7 0 -11 -4 -11 -11v-585c0 -7 4 -10 11 -10h65c11 0 17 -6 17 -17v-34c0 -11 -6 -17 -17 -17z" />
    <glyph glyph-name="backslash" unicode="\" horiz-adv-x="404" 
d="M55 643h59c11 0 18 -6 23 -18c15 -39 53 -141 113 -305s97 -265 112 -302c5 -12 0 -18 -14 -18h-57c-11 0 -19 6 -23 18l-225 606c-5 13 -1 19 12 19z" />
    <glyph glyph-name="bracketright" unicode="]" horiz-adv-x="309" 
d="M60 -82v34c0 11 6 17 17 17h65c7 0 11 3 11 10v585c0 7 -4 11 -11 11h-65c-11 0 -17 6 -17 17v34c0 11 6 17 17 17h140c11 0 16 -6 16 -17v-707c0 -12 -5 -18 -16 -18h-140c-11 0 -17 6 -17 17z" />
    <glyph glyph-name="asciicircum" unicode="^" horiz-adv-x="494" 
d="M120 363h-57c-15 0 -19 6 -12 18l124 237c11 20 17 25 37 25h69c20 0 26 -5 37 -25l124 -237c7 -12 3 -18 -12 -18h-57c-10 0 -18 6 -23 17l-104 201l-103 -201c-6 -11 -14 -17 -23 -17z" />
    <glyph glyph-name="underscore" unicode="_" horiz-adv-x="372" 
d="M355 -107h-338c-11 0 -17 6 -17 18v21c0 11 6 17 17 17h338c11 0 17 -6 17 -17v-21c0 -12 -6 -18 -17 -18z" />
    <glyph glyph-name="grave" unicode="`" horiz-adv-x="287" 
d="M218 574h-48c-9 0 -17 4 -23 12l-85 100c-7 11 -3 17 8 17h79c11 0 20 -5 25 -16l51 -96c7 -11 4 -17 -7 -17z" />
    <glyph glyph-name="a" unicode="a" horiz-adv-x="512" 
d="M247 0h-39c-99 0 -155 58 -155 155v200c0 99 56 155 155 155h224c12 0 18 -6 18 -17v-476c0 -11 -6 -17 -18 -17h-63c-11 0 -17 6 -17 17v36h-4c-16 -35 -50 -53 -101 -53zM352 170v245c0 7 -4 10 -11 10h-119c-48 0 -72 -25 -72 -74v-192c0 -49 24 -74 72 -74h48
c55 0 82 28 82 85z" />
    <glyph glyph-name="b" unicode="b" horiz-adv-x="518" 
d="M171 85h124c48 0 72 25 72 74v196c0 49 -24 74 -72 74h-53c-55 0 -82 -28 -82 -84v-249c0 -7 4 -11 11 -11zM63 17v669c0 11 6 17 17 17h63c11 0 17 -6 17 -17v-226h4c17 36 50 54 101 54h44c99 0 156 -57 156 -154v-205c0 -97 -57 -155 -156 -155h-229
c-11 0 -17 6 -17 17z" />
    <glyph glyph-name="c" unicode="c" horiz-adv-x="405" 
d="M373 68v-52c0 -11 -6 -16 -18 -16h-147c-99 0 -155 58 -155 155v200c0 99 56 155 155 155h147c12 0 18 -6 18 -17v-52c0 -11 -6 -16 -18 -16h-133c-48 0 -72 -25 -72 -74v-192c0 -49 24 -74 72 -74h133c12 0 18 -6 18 -17z" />
    <glyph glyph-name="d" unicode="d" horiz-adv-x="518" 
d="M253 0h-51c-96 0 -149 56 -149 155v200c0 100 53 155 149 155h51c51 0 85 -18 100 -53h4v229c0 11 6 17 17 17h64c11 0 17 -6 17 -17v-669c0 -11 -6 -17 -17 -17h-64c-11 0 -17 6 -17 17v36h-4c-15 -35 -49 -53 -100 -53zM357 170v170c0 57 -27 85 -82 85h-53
c-48 0 -72 -25 -72 -74v-192c0 -49 24 -74 72 -74h53c55 0 82 28 82 85z" />
    <glyph glyph-name="e" unicode="e" horiz-adv-x="493" 
d="M424 0h-216c-99 0 -155 58 -155 155v200c0 99 56 155 155 155h82c99 0 156 -56 156 -155v-127c0 -12 -6 -18 -18 -18h-268c-7 0 -11 -3 -11 -10v-43c0 -49 24 -73 73 -73h202c12 0 18 -6 18 -18v-50c0 -11 -6 -16 -18 -16zM160 278h179c7 0 10 3 10 10v64
c0 51 -21 73 -72 73h-55c-51 0 -72 -22 -72 -73v-64c0 -7 3 -10 10 -10z" />
    <glyph glyph-name="f" unicode="f" horiz-adv-x="335" 
d="M217 510h84c12 0 18 -5 18 -16v-52c0 -11 -6 -17 -18 -17h-84c-7 0 -10 -3 -10 -10v-398c0 -11 -6 -17 -18 -17h-63c-11 0 -17 6 -17 17v398c0 7 -4 10 -11 10h-53c-11 0 -17 6 -17 17v52c0 12 4 16 17 16h53c7 0 11 3 11 10v29c0 99 52 154 149 154h44
c11 0 17 -5 17 -16v-52c0 -11 -6 -17 -17 -17h-30c-48 0 -65 -22 -65 -74v-24c0 -7 3 -10 10 -10z" />
    <glyph glyph-name="g" unicode="g" horiz-adv-x="514" 
d="M249 25h-45c-96 0 -149 56 -149 155v175c0 99 58 155 155 155h224c12 0 18 -6 18 -17v-495c0 -97 -59 -154 -156 -154h-188c-11 0 -17 5 -17 16v52c0 11 6 17 17 17h173c49 0 73 25 73 74v76h-4c-17 -36 -50 -54 -101 -54zM354 195v220c0 7 -4 10 -11 10h-119
c-47 0 -71 -25 -71 -74v-166c0 -49 24 -74 71 -74h48c55 0 82 28 82 84z" />
    <glyph glyph-name="h" unicode="h" horiz-adv-x="517" 
d="M143 0h-63c-11 0 -17 6 -17 17v669c0 11 6 17 17 17h63c11 0 17 -6 17 -17v-229h4c16 35 50 53 101 53h44c97 0 151 -55 151 -155v-338c0 -11 -6 -17 -18 -17h-63c-11 0 -17 6 -17 17v334c0 49 -24 74 -73 74h-47c-55 0 -82 -28 -82 -85v-323c0 -11 -6 -17 -17 -17z" />
    <glyph glyph-name="i" unicode="i" horiz-adv-x="233" 
d="M68 599v52c0 11 5 16 16 16h65c11 0 16 -5 16 -16v-52c0 -11 -5 -17 -16 -17h-65c-11 0 -16 6 -16 17zM68 17v476c0 11 5 17 16 17h64c11 0 17 -6 17 -17v-476c0 -13 -4 -17 -16 -17h-64c-11 0 -17 6 -17 17z" />
    <glyph glyph-name="j" unicode="j" horiz-adv-x="233" 
d="M9 -156h-53c-11 0 -17 6 -17 17v51c0 11 6 17 17 17h26c63 0 86 24 86 87v477c0 11 6 17 17 17h63c11 0 17 -6 17 -17v-494c0 -97 -59 -155 -156 -155zM68 599v52c0 11 5 16 16 16h65c11 0 16 -5 16 -16v-52c0 -11 -5 -17 -16 -17h-65c-11 0 -16 6 -16 17z" />
    <glyph glyph-name="k" unicode="k" horiz-adv-x="456" 
d="M353 510h72c12 0 18 -8 10 -20l-141 -224v-4l152 -242c7 -11 2 -20 -13 -20h-65c-15 0 -27 6 -34 17l-141 231c-5 9 -5 18 0 27l131 219c6 11 16 16 29 16zM143 0h-63c-11 0 -17 6 -17 17v669c0 11 6 17 17 17h63c11 0 17 -6 17 -17v-669c0 -11 -6 -17 -17 -17z" />
    <glyph glyph-name="l" unicode="l" horiz-adv-x="233" 
d="M148 0h-63c-11 0 -17 6 -17 17v669c0 11 6 17 17 17h63c11 0 17 -6 17 -17v-669c0 -11 -6 -17 -17 -17z" />
    <glyph glyph-name="m" unicode="m" horiz-adv-x="787" 
d="M143 0h-63c-11 0 -17 6 -17 17v476c0 11 6 17 17 17h63c11 0 17 -6 17 -17v-36h4c19 35 55 53 106 53h33c58 0 99 -22 124 -66c21 43 69 66 120 66h32c97 0 150 -56 150 -155v-338c0 -11 -6 -17 -17 -17h-64c-11 0 -17 6 -17 17v334c0 49 -24 74 -72 74h-29
c-55 0 -83 -29 -83 -87v-321c0 -11 -6 -17 -18 -17h-63c-11 0 -17 6 -17 17v334c0 49 -24 74 -72 74h-35c-55 0 -82 -28 -82 -85v-323c0 -11 -6 -17 -17 -17z" />
    <glyph glyph-name="n" unicode="n" horiz-adv-x="517" 
d="M143 0h-63c-11 0 -17 6 -17 17v476c0 11 6 17 17 17h63c11 0 17 -6 17 -17v-36h4c16 35 50 53 101 53h44c97 0 151 -55 151 -155v-338c0 -11 -6 -17 -18 -17h-63c-11 0 -17 6 -17 17v334c0 49 -24 74 -73 74h-47c-55 0 -82 -28 -82 -85v-323c0 -11 -6 -17 -17 -17z" />
    <glyph glyph-name="o" unicode="o" horiz-adv-x="504" 
d="M296 0h-88c-99 0 -155 58 -155 155v200c0 99 56 155 155 155h88c97 0 156 -56 156 -155v-200c0 -97 -59 -155 -156 -155zM222 85h61c48 0 72 24 72 73v194c0 49 -24 73 -72 73h-61c-51 0 -72 -22 -72 -73v-194c0 -51 21 -73 72 -73z" />
    <glyph glyph-name="p" unicode="p" horiz-adv-x="518" 
d="M143 -141h-63c-11 0 -17 6 -17 17v617c0 11 6 17 17 17h63c11 0 17 -6 17 -17v-36h4c16 35 50 53 101 53h51c96 0 149 -55 149 -155v-200c0 -99 -53 -155 -149 -155h-51c-51 0 -85 18 -101 53h-4v-177c0 -11 -6 -17 -17 -17zM242 85h53c48 0 72 25 72 74v192
c0 49 -24 74 -72 74h-53c-55 0 -82 -28 -82 -85v-170c0 -57 27 -85 82 -85z" />
    <glyph glyph-name="q" unicode="q" horiz-adv-x="512" 
d="M352 172v243c0 7 -4 10 -11 10h-119c-48 0 -72 -25 -72 -74v-192c0 -49 24 -74 72 -74h46c56 0 84 29 84 87zM245 0h-37c-99 0 -155 58 -155 155v200c0 99 56 155 155 155h224c12 0 18 -6 18 -17v-617c0 -11 -6 -17 -18 -17h-63c-11 0 -17 6 -17 17v179h-4
c-18 -37 -52 -55 -103 -55z" />
    <glyph glyph-name="r" unicode="r" horiz-adv-x="335" 
d="M143 0h-63c-11 0 -17 6 -17 17v476c0 11 6 17 17 17h63c11 0 17 -6 17 -17v-38h4c13 33 55 55 102 55h37c11 0 17 -6 17 -17v-52c0 -13 -6 -18 -17 -16h-60c-55 0 -83 -30 -83 -91v-317c0 -11 -6 -17 -17 -17z" />
    <glyph glyph-name="s" unicode="s" horiz-adv-x="435" 
d="M245 0h-184c-11 0 -17 6 -17 17v49c0 11 6 16 17 16h168c43 0 65 15 65 45v12c0 27 -16 47 -47 61l-109 52c-68 32 -97 66 -97 129c0 86 48 129 143 129h166c11 0 16 -6 16 -17v-49c0 -11 -5 -17 -16 -17h-146c-40 0 -62 -15 -62 -38v-11c0 -21 17 -40 51 -56l110 -56
c69 -31 91 -69 91 -136c0 -87 -50 -130 -149 -130z" />
    <glyph glyph-name="t" unicode="t" horiz-adv-x="351" 
d="M78 425h-48c-13 0 -17 4 -17 16v52c0 11 6 17 17 17h48c7 0 10 3 10 10v90c0 11 6 17 18 17h63c11 0 17 -6 17 -17v-90c0 -7 4 -10 11 -10h93c12 0 18 -6 18 -17v-52c0 -11 -6 -16 -18 -16h-93c-7 0 -11 -3 -11 -10v-257c0 -49 25 -73 75 -73h39c12 0 18 -6 18 -17v-52
c0 -11 -6 -16 -18 -16h-54c-99 0 -158 56 -158 153v262c0 7 -3 10 -10 10z" />
    <glyph glyph-name="u" unicode="u" horiz-adv-x="517" 
d="M252 0h-45c-96 0 -149 56 -149 155v338c0 11 6 17 17 17h63c11 0 17 -6 17 -17v-334c0 -49 24 -74 72 -74h48c55 0 82 28 82 85v323c0 11 6 17 17 17h63c12 0 18 -6 18 -17v-476c0 -11 -6 -17 -18 -17h-63c-11 0 -17 6 -17 17v36h-4c-16 -35 -50 -53 -101 -53z" />
    <glyph glyph-name="v" unicode="v" horiz-adv-x="448" 
d="M31 510h67c11 0 17 -6 19 -17l104 -402h7l102 402c3 11 10 17 21 17h66c12 0 16 -6 12 -17l-135 -475c-3 -12 -10 -18 -22 -18h-96c-12 0 -19 6 -22 18l-135 475c-3 11 1 17 12 17z" />
    <glyph glyph-name="w" unicode="w" horiz-adv-x="691" 
d="M242 0h-86c-10 0 -17 6 -20 17l-115 476c-3 11 1 17 12 17h72c12 0 19 -6 20 -17l73 -378h7l88 378c2 11 8 17 19 17h66c11 0 18 -6 21 -17l86 -378h7l73 378c2 11 9 17 20 17h72c11 0 15 -6 12 -17l-115 -476c-2 -11 -9 -17 -20 -17h-86c-11 0 -17 6 -20 17l-80 371h-7
l-79 -371c-2 -11 -9 -17 -20 -17z" />
    <glyph glyph-name="x" unicode="x" horiz-adv-x="443" 
d="M111 0h-76c-15 0 -18 6 -11 17l133 243l-130 233c-7 11 -4 17 9 17h77c13 0 21 -6 26 -17l81 -172h4l76 172c5 11 13 17 25 17h76c14 0 17 -6 10 -17l-126 -232l136 -244c7 -11 4 -17 -9 -17h-79c-11 0 -19 6 -24 17l-85 177h-4l-84 -177c-5 -11 -13 -17 -25 -17z" />
    <glyph glyph-name="y" unicode="y" horiz-adv-x="467" 
d="M123 -162h-53c-11 0 -17 6 -17 17v51c0 12 6 18 17 18h23c41 0 69 8 84 24c16 16 29 42 40 79h-40c-10 0 -17 6 -21 17l-133 449c-3 11 2 17 13 17h67c11 0 17 -6 20 -17l109 -392h4l109 392c2 11 9 17 20 17h64c13 0 18 -6 16 -18l-137 -481
c-31 -112 -81 -173 -185 -173z" />
    <glyph glyph-name="z" unicode="z" horiz-adv-x="432" 
d="M32 17v26c0 17 5 31 14 43l231 335v4h-219c-12 0 -18 6 -18 18v50c0 11 6 17 18 17h316c11 0 17 -6 17 -17v-46c0 -16 -4 -29 -12 -38l-219 -320v-4h223c12 0 18 -6 18 -18v-50c0 -11 -6 -17 -18 -17h-333c-12 0 -18 6 -18 17z" />
    <glyph glyph-name="braceleft" unicode="{" horiz-adv-x="308" 
d="M231 643h6c11 0 17 -6 17 -17v-37c0 -11 -6 -17 -17 -17h-3c-44 0 -60 -22 -60 -74v-130c0 -53 -20 -85 -59 -98c39 -11 59 -44 59 -97v-130c0 -52 16 -74 60 -74h3c11 0 17 -6 17 -17v-37c0 -11 -6 -17 -17 -17h-6c-91 0 -136 52 -136 155v113c0 41 -16 61 -49 61
c-12 0 -18 6 -18 18v51c0 11 6 17 18 17c33 0 49 21 49 62v113c0 103 45 155 136 155z" />
    <glyph glyph-name="bar" unicode="|" horiz-adv-x="222" 
d="M146 626v-609c0 -11 -6 -17 -18 -17h-34c-11 0 -17 6 -17 17v609c0 11 6 17 17 17h34c12 0 18 -6 18 -17z" />
    <glyph glyph-name="braceright" unicode="}" horiz-adv-x="308" 
d="M188 488v-113c0 -41 16 -62 49 -62c11 0 17 -6 17 -17v-51c0 -12 -7 -18 -21 -18c-30 0 -45 -20 -45 -61v-113c0 -103 -45 -155 -136 -155h-6c-12 0 -18 6 -18 17v37c0 11 6 17 18 17h3c44 0 59 22 59 74v130c0 53 20 86 59 97c-39 13 -59 46 -59 98v130
c0 52 -15 74 -59 74h-3c-12 0 -18 6 -18 17v37c0 11 6 17 18 17h6c91 0 136 -52 136 -155z" />
    <glyph glyph-name="asciitilde" unicode="~" horiz-adv-x="549" 
d="M82 273c-8 0 -12 4 -12 13v43c0 13 8 24 24 31c26 10 51 15 76 15s60 -5 103 -16c44 -10 76 -15 97 -15s42 4 63 13s32 14 34 14c8 0 12 -4 12 -12v-44c0 -13 -8 -24 -24 -31c-47 -20 -93 -20 -184 0c-45 11 -77 16 -96 16s-38 -5 -59 -14c-20 -9 -31 -13 -34 -13z" />
    <glyph glyph-name="uni00A0" unicode="&#xa0;" horiz-adv-x="238" 
 />
    <glyph glyph-name="exclamdown" unicode="&#xa1;" horiz-adv-x="238" 
d="M153 488h-67c-11 0 -16 6 -16 17v120c0 12 5 18 16 18h67c11 0 16 -6 16 -17v-122c0 -11 -5 -16 -16 -16zM98 423h41c10 0 16 -6 18 -18c10 -100 15 -185 15 -254v-134c0 -11 -6 -17 -17 -17h-73c-11 0 -17 6 -17 17v134c0 69 5 154 15 254c2 12 8 18 18 18z" />
    <glyph glyph-name="cent" unicode="&#xa2;" horiz-adv-x="424" 
d="M281 -93h-48c-11 0 -17 6 -17 17v76h-17c-92 0 -146 59 -146 155v200c0 96 54 155 146 155h17v82c0 11 6 17 17 17h48c11 0 16 -5 16 -16v-83h60c13 0 29 -6 29 -17v-52c0 -11 -6 -16 -18 -16h-146c-48 0 -72 -25 -72 -74v-192c0 -49 24 -74 72 -74h146
c12 0 18 -5 18 -16v-52c0 -11 -6 -17 -18 -17h-71v-77c0 -11 -5 -16 -16 -16z" />
    <glyph glyph-name="sterling" unicode="&#xa3;" horiz-adv-x="546" 
d="M154 85v-4h310c11 0 17 -6 17 -18v-46c0 -11 -6 -17 -17 -17h-418c-12 0 -18 6 -18 17v46c0 12 6 18 18 18h8c25 0 44 26 44 66v111h-52c-12 0 -18 6 -18 18v46c0 11 6 17 18 17h52v151c0 97 59 153 156 153h65c97 0 155 -56 155 -153v-26c0 -12 -6 -18 -17 -18h-63
c-12 0 -18 6 -18 18v24c0 51 -21 72 -72 72h-36c-49 0 -74 -24 -74 -72v-149h130c11 0 17 -6 17 -17v-46c0 -12 -6 -18 -17 -18h-130v-99c0 -44 -20 -74 -40 -74z" />
    <glyph glyph-name="yen" unicode="&#xa5;" horiz-adv-x="526" 
d="M295 0h-64c-11 0 -17 6 -17 17v143h-153c-13 0 -19 6 -19 18v30c0 13 6 20 19 20h150v17l-30 62h-120c-13 0 -19 6 -19 18v30c0 13 6 20 19 20h88l-123 251c-5 11 -1 17 11 17h81c5 0 9 -1 11 -3c1 -2 45 -102 132 -299h4l125 285c5 13 8 17 19 17h80c12 0 16 -6 11 -17
l-122 -251h86c13 0 19 -7 19 -20v-30c0 -13 -4 -18 -19 -18h-119l-30 -62v-17h149c13 0 19 -7 19 -20v-30c0 -13 -4 -18 -19 -18h-152v-143c0 -11 -6 -17 -17 -17z" />
    <glyph glyph-name="brokenbar" unicode="&#xa6;" horiz-adv-x="219" 
d="M145 626v-236c0 -11 -6 -17 -18 -17h-35c-12 0 -18 6 -18 17v236c0 11 6 17 18 17h35c12 0 18 -6 18 -17zM145 253v-236c0 -11 -6 -17 -18 -17h-35c-12 0 -18 6 -18 17v236c0 12 6 18 18 18h35c12 0 18 -6 18 -18z" />
    <glyph glyph-name="section" unicode="&#xa7;" horiz-adv-x="476" 
d="M325 250v52c0 30 -18 49 -55 58l-63 14c-23 6 -42 13 -56 21v-50c0 -33 19 -54 56 -62l61 -13c21 -4 40 -11 57 -20zM261 0h-170c-12 0 -18 6 -18 17v52c0 11 6 16 18 16h163c49 0 64 20 64 52c0 33 -18 45 -67 56l-94 19c-65 15 -97 57 -97 127v173c0 81 49 131 150 131
h164c11 0 16 -6 16 -17v-52c0 -11 -5 -16 -16 -16h-161c-37 0 -55 -17 -55 -51c0 -29 15 -45 67 -56l93 -19c65 -15 98 -56 98 -124v-172c0 -85 -50 -136 -155 -136z" />
    <glyph glyph-name="dieresis" unicode="&#xa8;" horiz-adv-x="389" 
d="M58 591v95c0 11 6 17 17 17h59c11 0 16 -5 16 -16v-96c0 -11 -5 -17 -16 -17h-59c-11 0 -17 6 -17 17zM238 591v95c0 11 5 17 16 17h60c11 0 16 -5 16 -16v-96c0 -11 -5 -17 -16 -17h-60c-11 0 -16 6 -16 17z" />
    <glyph glyph-name="copyright" unicode="&#xa9;" horiz-adv-x="711" 
d="M492 403v-25c0 -8 -4 -12 -12 -12h-41c-8 0 -12 4 -12 12v15c0 51 -13 61 -66 61h-10c-53 0 -64 -10 -64 -61v-143c0 -53 11 -63 64 -63h10c55 0 66 10 66 63v16c0 9 4 13 12 13h41c8 0 12 -4 12 -13v-27c0 -73 -38 -109 -114 -109h-43c-73 0 -114 37 -114 109v164
c0 73 38 109 114 109h43c76 0 114 -36 114 -109zM213 60h285c54 0 81 26 81 79v365c0 53 -27 79 -81 79h-285c-54 0 -81 -26 -81 -79v-365c0 -53 27 -79 81 -79zM195 643h321c80 0 129 -48 129 -128v-387c0 -80 -49 -128 -129 -128h-321c-79 0 -128 48 -128 128v387
c0 80 49 128 128 128z" />
    <glyph glyph-name="guillemotleft" unicode="&#xab;" horiz-adv-x="445" 
d="M393 139v-44c0 -12 -9 -17 -18 -8l-144 122c-11 9 -17 19 -17 31v33c0 13 6 23 17 30l144 122c9 9 18 4 18 -8v-43c0 -9 -5 -18 -16 -25l-109 -93l109 -92c11 -8 16 -16 16 -25zM231 139v-44c0 -12 -7 -16 -18 -8l-144 122c-11 8 -16 18 -16 31v33c0 12 5 22 16 30
l144 122c11 8 18 4 18 -8v-43c0 -10 -5 -18 -15 -25l-109 -93l109 -92c10 -8 15 -16 15 -25z" />
    <glyph glyph-name="registered" unicode="&#xae;" horiz-adv-x="462" 
d="M244 610h-35v-55h35c9 0 14 5 14 14v28c0 9 -5 13 -14 13zM171 470v159c0 12 3 16 16 16h60c33 0 50 -15 50 -46v-33c0 -21 -7 -35 -22 -41l23 -50c7 -13 3 -20 -10 -20h-10c-7 0 -13 4 -16 11l-26 57h-27v-53c0 -12 -3 -15 -15 -15h-7c-13 0 -16 3 -16 15zM173 421h115
c44 0 66 22 66 66v125c0 44 -22 66 -66 66h-115c-43 0 -65 -22 -65 -66v-125c0 -44 22 -66 65 -66zM297 380h-132c-61 0 -101 38 -101 98v143c0 60 38 97 101 97h132c61 0 100 -37 100 -97v-143c0 -60 -39 -98 -100 -98z" />
    <glyph glyph-name="overscore" unicode="&#xaf;" horiz-adv-x="350" 
d="M275 605h-199c-12 0 -18 6 -18 17v34c0 11 6 17 18 17h199c11 0 17 -6 17 -17v-34c0 -11 -6 -17 -17 -17z" />
    <glyph glyph-name="degree" unicode="&#xb0;" horiz-adv-x="348" 
d="M201 510h-55c-33 0 -49 16 -49 49v97c0 31 16 47 49 47h55c31 0 50 -18 50 -47v-97c0 -31 -19 -49 -50 -49zM167 551h13c21 0 26 5 26 25v61c0 21 -5 26 -26 26h-13c-21 0 -26 -5 -26 -26v-61c0 -20 5 -25 26 -25z" />
    <glyph glyph-name="plusminus" unicode="&#xb1;" horiz-adv-x="549" 
d="M317 506v-83h143c13 0 19 -6 19 -19v-41c0 -13 -6 -19 -19 -19h-143v-85c0 -13 -7 -19 -20 -19h-45c-13 0 -19 6 -19 19v85h-144c-13 0 -19 6 -19 19v41c0 13 6 19 19 19h144v83c0 13 6 20 19 20h45c13 0 20 -7 20 -20zM89 195h371c13 0 19 -6 19 -18v-42
c0 -13 -6 -19 -19 -19h-371c-13 0 -19 6 -19 19v42c0 12 6 18 19 18z" />
    <glyph glyph-name="acute" unicode="&#xb4;" horiz-adv-x="287" 
d="M139 703h78c12 0 16 -6 8 -17l-85 -100c-6 -8 -14 -12 -23 -12h-47c-11 0 -13 6 -8 17l51 96c5 11 14 16 26 16z" />
    <glyph glyph-name="paragraph" unicode="&#xb6;" horiz-adv-x="533" 
d="M238 0h-47c-11 0 -17 6 -17 17v303c-72 0 -124 41 -124 122v78c0 85 58 123 139 123h248c12 0 18 -5 18 -16v-610c0 -11 -6 -17 -17 -17h-47c-11 0 -17 6 -17 17v541c0 7 -4 10 -11 10h-97c-7 0 -11 -3 -11 -10v-541c0 -11 -6 -17 -17 -17z" />
    <glyph glyph-name="middot" unicode="&#xb7;" horiz-adv-x="207" 
d="M154 379v-121c0 -12 -5 -18 -16 -18h-69c-11 0 -16 6 -16 18v121c0 11 5 16 16 16h69c11 0 16 -5 16 -16z" />
    <glyph glyph-name="cedilla" unicode="&#xb8;" horiz-adv-x="262" 
d="M128 -38v-4c51 0 76 -23 76 -70v-15c0 -44 -30 -66 -90 -66h-37c-13 0 -15 3 -15 15v17c0 12 2 15 15 15h28c37 0 48 7 48 27v2c0 21 -11 27 -48 27h-20c-24 0 -35 30 -18 49l53 61h65z" />
    <glyph glyph-name="guillemotright" unicode="&#xbb;" horiz-adv-x="445" 
d="M214 374v43c0 12 8 16 17 8l145 -122c11 -8 17 -18 17 -30v-33c0 -12 -6 -22 -17 -31l-145 -122c-9 -8 -17 -4 -17 8v44c0 9 5 17 15 25l109 92l-109 93c-10 7 -15 15 -15 25zM53 374v43c0 12 6 16 17 8l145 -122c11 -8 16 -18 16 -30v-33c0 -13 -5 -23 -16 -31
l-145 -122c-11 -8 -17 -4 -17 8v44c0 9 5 17 14 25l110 92l-110 93c-9 7 -14 15 -14 25z" />
    <glyph glyph-name="questiondown" unicode="&#xbf;" horiz-adv-x="469" 
d="M187 503v122c0 11 5 17 16 17h69c10 0 15 -6 15 -18v-120c0 -11 -5 -17 -15 -17h-69c-11 0 -16 5 -16 16zM188 374v30c0 12 6 18 17 18h59c11 0 17 -6 17 -18v-29c0 -48 -12 -71 -51 -103l-49 -41c-23 -19 -35 -39 -35 -62v-14c0 -48 25 -72 74 -72h27c49 0 73 24 73 72
v29c0 12 6 18 17 18h63c11 0 17 -6 17 -18v-31c0 -97 -58 -153 -155 -153h-56c-97 0 -155 56 -155 153v21c0 33 15 63 46 90l59 48c27 24 32 37 32 62z" />
    <glyph glyph-name="Agrave" unicode="&#xc0;" horiz-adv-x="547" 
d="M108 0h-72c-9 0 -13 6 -10 17l174 609c3 11 11 17 24 17h100c13 0 21 -6 24 -17l174 -609c3 -11 -1 -17 -11 -17h-71c-12 0 -15 4 -18 17l-38 130h-220l-38 -130c-3 -11 -9 -17 -18 -17zM276 547h-4l-88 -320h181zM313 692h-42c-9 0 -17 4 -22 11l-78 96c-8 9 -4 16 7 16
h70c11 0 20 -5 25 -15l48 -92c5 -11 3 -16 -8 -16z" />
    <glyph glyph-name="Aacute" unicode="&#xc1;" horiz-adv-x="547" 
d="M108 0h-72c-9 0 -13 6 -10 17l174 609c3 11 11 17 24 17h100c13 0 21 -6 24 -17l174 -609c3 -11 -1 -17 -11 -17h-71c-12 0 -15 4 -18 17l-38 130h-220l-38 -130c-3 -11 -9 -17 -18 -17zM276 547h-4l-88 -320h181zM288 692h-42c-11 0 -13 5 -8 16l48 92c5 10 14 15 25 15
h70c11 0 15 -7 7 -16l-78 -96c-5 -7 -13 -11 -22 -11z" />
    <glyph glyph-name="Acircumflex" unicode="&#xc2;" horiz-adv-x="547" 
d="M108 0h-72c-9 0 -13 6 -10 17l174 609c3 11 11 17 24 17h100c13 0 21 -6 24 -17l174 -609c3 -11 -1 -17 -11 -17h-71c-12 0 -15 4 -18 17l-38 130h-220l-38 -130c-3 -11 -9 -17 -18 -17zM276 547h-4l-88 -320h181zM396 692h-73c-7 0 -12 2 -13 6l-36 48l-36 -48
c-1 -4 -6 -6 -13 -6h-74c-8 0 -9 3 -4 10l84 104c4 6 11 9 21 9h44c9 0 16 -3 20 -9l85 -104c5 -7 4 -10 -5 -10z" />
    <glyph glyph-name="Atilde" unicode="&#xc3;" horiz-adv-x="547" 
d="M108 0c9 0 15 6 18 17l38 130h220l38 -130c3 -13 6 -17 18 -17h71c10 0 14 6 11 17l-174 609c-3 11 -11 17 -24 17h-100c-13 0 -21 -6 -24 -17l-174 -609c-3 -11 1 -17 10 -17h72zM272 547h4l89 -320h-181zM403 750c0 -41 -22 -58 -67 -58c-59 0 -71 5 -87 27
c-23 34 -25 33 -25 9v-26c0 -9 -3 -9 -13 -9h-47c-9 0 -13 0 -13 9v29c0 42 21 59 67 59c43 0 68 -11 85 -38c20 -32 25 -27 25 2v24c0 7 3 9 13 9h49c10 0 13 -2 13 -9v-28z" />
    <glyph glyph-name="Adieresis" unicode="&#xc4;" horiz-adv-x="547" 
d="M138 724v95c0 11 5 17 16 17h60c10 0 15 -5 15 -16v-96c0 -11 -5 -17 -15 -17h-60c-11 0 -16 6 -16 17zM318 724v95c0 11 5 17 15 17h61c10 0 15 -5 15 -16v-96c0 -11 -5 -17 -15 -17h-61c-10 0 -15 6 -15 17zM108 0h-72c-9 0 -13 6 -10 17l174 609c3 11 11 17 24 17h100
c13 0 21 -6 24 -17l174 -609c3 -11 -1 -17 -11 -17h-71c-12 0 -15 4 -18 17l-38 130h-220l-38 -130c-3 -11 -9 -17 -18 -17zM276 547h-4l-88 -320h181z" />
    <glyph glyph-name="Aring" unicode="&#xc5;" horiz-adv-x="547" 
d="M294 700h-43c-40 0 -60 21 -60 62v51c0 40 20 60 60 60h43c39 0 62 -23 62 -60v-51c0 -40 -23 -62 -62 -62zM265 740h14c24 0 32 10 32 34v24c0 25 -8 35 -31 35h-14c-22 0 -33 -12 -33 -35v-24c0 -23 11 -34 32 -34zM108 0h-72c-9 0 -13 6 -10 17l174 609
c3 11 11 17 24 17h100c13 0 21 -6 24 -17l174 -609c3 -11 -1 -17 -11 -17h-71c-12 0 -15 4 -18 17l-38 130h-220l-38 -130c-3 -11 -9 -17 -18 -17zM276 547h-4l-88 -320h181z" />
    <glyph glyph-name="AE" unicode="&#xc6;" horiz-adv-x="778" 
d="M86 0h-70c-13 0 -16 6 -11 18l301 608c5 11 14 17 27 17h376c11 0 17 -6 17 -17v-51c0 -11 -6 -17 -17 -17h-228c-7 0 -11 -3 -11 -10v-169c0 -7 4 -10 11 -10h193c12 0 18 -6 18 -17v-51c0 -11 -6 -17 -18 -17h-193c-7 0 -11 -3 -11 -10v-178c0 -7 4 -11 11 -11h228
c11 0 17 -6 17 -17v-51c0 -11 -6 -17 -17 -17h-320c-11 0 -17 6 -17 17v130h-198l-66 -130c-5 -11 -12 -17 -22 -17zM212 234h160v314h-4z" />
    <glyph glyph-name="Ccedilla" unicode="&#xc7;" horiz-adv-x="540" 
d="M471 422h-63c-11 0 -17 6 -17 18v44c0 49 -24 74 -72 74h-87c-48 0 -72 -25 -72 -74v-325c0 -49 24 -74 72 -74h87c48 0 72 25 72 74v44c0 12 6 18 17 18h63c12 0 18 -6 18 -18v-48c0 -97 -58 -155 -155 -155h-9l-42 -44v-4c51 0 76 -23 76 -69v-16
c0 -45 -30 -67 -90 -67h-38c-10 0 -15 5 -15 16v16c0 13 3 17 15 17h29c37 0 48 6 48 25v3c0 21 -11 28 -48 28h-21c-24 0 -34 29 -17 49l40 46h-44c-99 0 -155 58 -155 155v333c0 99 56 155 155 155h116c97 0 155 -56 155 -155v-48c0 -12 -6 -18 -18 -18z" />
    <glyph glyph-name="Egrave" unicode="&#xc8;" horiz-adv-x="480" 
d="M410 0h-320c-11 0 -17 6 -17 17v609c0 11 6 17 17 17h320c11 0 16 -6 16 -17v-51c0 -11 -5 -17 -16 -17h-228c-8 0 -12 -3 -12 -10v-169c0 -7 4 -10 12 -10h193c12 0 18 -6 18 -17v-51c0 -11 -6 -17 -18 -17h-193c-8 0 -12 -3 -12 -10v-178c0 -7 4 -11 12 -11h228
c11 0 16 -6 16 -17v-51c0 -11 -5 -17 -16 -17zM297 692h-42c-9 0 -17 4 -22 11l-78 96c-8 9 -4 16 7 16h70c11 0 20 -5 25 -15l48 -92c5 -11 3 -16 -8 -16z" />
    <glyph glyph-name="Eacute" unicode="&#xc9;" horiz-adv-x="480" 
d="M410 0h-320c-11 0 -17 6 -17 17v609c0 11 6 17 17 17h320c11 0 16 -6 16 -17v-51c0 -11 -5 -17 -16 -17h-228c-8 0 -12 -3 -12 -10v-169c0 -7 4 -10 12 -10h193c12 0 18 -6 18 -17v-51c0 -11 -6 -17 -18 -17h-193c-8 0 -12 -3 -12 -10v-178c0 -7 4 -11 12 -11h228
c11 0 16 -6 16 -17v-51c0 -11 -5 -17 -16 -17zM265 692h-42c-11 0 -13 5 -8 16l48 92c5 10 14 15 25 15h70c11 0 15 -7 7 -16l-78 -96c-5 -7 -13 -11 -22 -11z" />
    <glyph glyph-name="Ecircumflex" unicode="&#xca;" horiz-adv-x="480" 
d="M410 0h-320c-11 0 -17 6 -17 17v609c0 11 6 17 17 17h320c11 0 16 -6 16 -17v-51c0 -11 -5 -17 -16 -17h-228c-8 0 -12 -3 -12 -10v-169c0 -7 4 -10 12 -10h193c12 0 18 -6 18 -17v-51c0 -11 -6 -17 -18 -17h-193c-8 0 -12 -3 -12 -10v-178c0 -7 4 -11 12 -11h228
c11 0 16 -6 16 -17v-51c0 -11 -5 -17 -16 -17zM369 692h-73c-7 0 -12 2 -13 6l-36 48l-36 -48c-1 -4 -6 -6 -13 -6h-74c-8 0 -9 3 -4 10l84 104c4 6 11 9 21 9h44c9 0 16 -3 20 -9l85 -104c5 -7 4 -10 -5 -10z" />
    <glyph glyph-name="Edieresis" unicode="&#xcb;" horiz-adv-x="480" 
d="M114 724v95c0 11 5 17 15 17h61c11 0 16 -5 16 -16v-96c0 -11 -5 -17 -16 -17h-61c-10 0 -15 6 -15 17zM293 724v95c0 11 5 17 16 17h60c11 0 17 -5 17 -16v-96c0 -11 -6 -17 -17 -17h-60c-11 0 -16 6 -16 17zM410 0h-320c-11 0 -17 6 -17 17v609c0 11 6 17 17 17h320
c11 0 16 -6 16 -17v-51c0 -11 -5 -17 -16 -17h-228c-8 0 -12 -3 -12 -10v-169c0 -7 4 -10 12 -10h193c12 0 18 -6 18 -17v-51c0 -11 -6 -17 -18 -17h-193c-8 0 -12 -3 -12 -10v-178c0 -7 4 -11 12 -11h228c11 0 16 -6 16 -17v-51c0 -11 -5 -17 -16 -17z" />
    <glyph glyph-name="Igrave" unicode="&#xcc;" horiz-adv-x="253" 
d="M176 626v-609c0 -11 -6 -17 -17 -17h-63c-11 0 -17 6 -17 17v609c0 11 6 17 17 17h63c11 0 17 -6 17 -17zM172 692h-42c-9 0 -17 4 -22 11l-78 96c-8 9 -4 16 7 16h70c11 0 20 -5 25 -15l48 -92c5 -11 3 -16 -8 -16z" />
    <glyph glyph-name="Iacute" unicode="&#xcd;" horiz-adv-x="253" 
d="M175 626v-609c0 -11 -6 -17 -17 -17h-63c-11 0 -17 6 -17 17v609c0 11 6 17 17 17h63c11 0 17 -6 17 -17zM127 692h-42c-11 0 -13 5 -8 16l48 92c5 10 14 15 25 15h70c11 0 15 -7 7 -16l-78 -96c-5 -7 -13 -11 -22 -11z" />
    <glyph glyph-name="Icircumflex" unicode="&#xce;" horiz-adv-x="252" 
d="M228 707h-47c-7 0 -12 3 -15 10l-41 78l-40 -78c-3 -7 -8 -10 -16 -10h-44c-10 0 -13 4 -8 12l63 107c5 7 12 10 22 10h48c9 0 16 -3 21 -10l63 -107c5 -8 3 -12 -6 -12zM175 626v-609c0 -11 -6 -17 -17 -17h-63c-11 0 -17 6 -17 17v609c0 11 6 17 17 17h63
c11 0 17 -6 17 -17z" />
    <glyph glyph-name="Idieresis" unicode="&#xcf;" horiz-adv-x="252" 
d="M-10 724v95c0 11 5 17 16 17h60c11 0 17 -5 17 -16v-96c0 -11 -6 -17 -17 -17h-60c-11 0 -16 6 -16 17zM170 724v95c0 11 5 17 16 17h60c11 0 17 -5 17 -16v-96c0 -11 -6 -17 -17 -17h-60c-11 0 -16 6 -16 17zM175 626v-609c0 -11 -6 -17 -17 -17h-63c-11 0 -17 6 -17 17
v609c0 11 6 17 17 17h63c11 0 17 -6 17 -17z" />
    <glyph glyph-name="Eth" unicode="&#xd0;" horiz-adv-x="546" 
d="M191 85h140c49 0 73 25 73 74v325c0 49 -24 74 -73 74h-140c-7 0 -11 -3 -11 -10v-178c0 -7 4 -10 11 -10h103c11 0 17 -6 17 -17v-40c0 -11 -6 -17 -17 -17h-103c-7 0 -11 -3 -11 -10v-180c0 -7 4 -11 11 -11zM346 0h-247c-11 0 -17 6 -17 17v259c0 7 -3 10 -10 10h-32
c-11 0 -17 6 -17 17v40c0 11 6 17 17 17h32c7 0 10 3 10 10v256c0 11 6 17 17 17h247c99 0 156 -56 156 -155v-333c0 -97 -57 -155 -156 -155z" />
    <glyph glyph-name="Ntilde" unicode="&#xd1;" horiz-adv-x="583" 
d="M244 702c-44 0 -66 26 -66 77v39c0 7 3 10 9 10h29c7 0 11 -3 11 -10v-20c-4 -51 20 -47 34 -36c4 5 10 15 19 30c19 32 33 40 60 40c45 0 67 -26 67 -77v-38c0 -8 -3 -12 -10 -12h-29c-7 0 -10 4 -10 12v19c4 52 -22 46 -34 38c-11 -14 -19 -30 -18 -28
c-17 -35 -34 -44 -62 -44zM152 0h-62c-11 0 -17 6 -17 17v609c0 11 6 17 17 17h56c11 0 18 -4 22 -11l242 -435h4v429c0 11 6 17 17 17h62c11 0 17 -6 17 -17v-609c0 -11 -6 -17 -17 -17h-54c-11 0 -19 5 -26 16l-240 430h-4v-429c0 -11 -6 -17 -17 -17z" />
    <glyph glyph-name="Ograve" unicode="&#xd2;" horiz-adv-x="552" 
d="M232 85h87c49 0 73 25 73 74v325c0 49 -24 74 -73 74h-87c-48 0 -72 -25 -72 -74v-325c0 -49 24 -74 72 -74zM334 0h-116c-99 0 -155 58 -155 155v333c0 99 56 155 155 155h116c99 0 156 -56 156 -155v-333c0 -97 -57 -155 -156 -155zM320 692h-42c-9 0 -17 4 -22 11
l-78 96c-8 9 -4 16 7 16h70c11 0 20 -5 25 -15l48 -92c5 -11 3 -16 -8 -16z" />
    <glyph glyph-name="Oacute" unicode="&#xd3;" horiz-adv-x="552" 
d="M232 85h87c49 0 73 25 73 74v325c0 49 -24 74 -73 74h-87c-48 0 -72 -25 -72 -74v-325c0 -49 24 -74 72 -74zM334 0h-116c-99 0 -155 58 -155 155v333c0 99 56 155 155 155h116c99 0 156 -56 156 -155v-333c0 -97 -57 -155 -156 -155zM291 692h-42c-11 0 -13 5 -8 16
l48 92c5 10 14 15 25 15h70c11 0 15 -7 7 -16l-78 -96c-5 -7 -13 -11 -22 -11z" />
    <glyph glyph-name="Ocircumflex" unicode="&#xd4;" horiz-adv-x="552" 
d="M232 85h87c49 0 73 25 73 74v325c0 49 -24 74 -73 74h-87c-48 0 -72 -25 -72 -74v-325c0 -49 24 -74 72 -74zM334 0h-116c-99 0 -155 58 -155 155v333c0 99 56 155 155 155h116c99 0 156 -56 156 -155v-333c0 -97 -57 -155 -156 -155zM402 692h-73c-7 0 -12 2 -13 6
l-36 48l-36 -48c-1 -4 -6 -6 -13 -6h-74c-8 0 -9 3 -4 10l84 104c4 6 11 9 21 9h44c9 0 16 -3 20 -9l85 -104c5 -7 4 -10 -5 -10z" />
    <glyph glyph-name="Otilde" unicode="&#xd5;" horiz-adv-x="552" 
d="M232 85c-48 0 -72 25 -72 74v325c0 49 24 74 72 74h87c49 0 73 -25 73 -74v-325c0 -49 -24 -74 -73 -74h-87zM334 0c99 0 156 58 156 155v333c0 99 -57 155 -156 155h-116c-99 0 -155 -56 -155 -155v-333c0 -97 56 -155 155 -155h116zM405 750c0 -41 -22 -58 -67 -58
c-59 0 -71 5 -87 27c-23 34 -25 33 -25 9v-26c0 -9 -3 -9 -13 -9h-47c-9 0 -13 0 -13 9v29c0 42 21 59 67 59c43 0 68 -11 85 -38c20 -32 25 -27 25 2v24c0 7 3 9 13 9h49c10 0 13 -2 13 -9v-28z" />
    <glyph glyph-name="Odieresis" unicode="&#xd6;" horiz-adv-x="552" 
d="M140 724v95c0 11 5 17 16 17h60c11 0 16 -5 16 -16v-96c0 -11 -5 -17 -16 -17h-60c-11 0 -16 6 -16 17zM320 724v95c0 11 5 17 16 17h60c11 0 16 -5 16 -16v-96c0 -11 -5 -17 -16 -17h-60c-11 0 -16 6 -16 17zM232 85h87c49 0 73 25 73 74v325c0 49 -24 74 -73 74h-87
c-48 0 -72 -25 -72 -74v-325c0 -49 24 -74 72 -74zM334 0h-116c-99 0 -155 58 -155 155v333c0 99 56 155 155 155h116c99 0 156 -56 156 -155v-333c0 -97 -57 -155 -156 -155z" />
    <glyph glyph-name="multiply" unicode="&#xd7;" horiz-adv-x="510" 
d="M419 426l-104 -104l105 -106c9 -9 9 -18 0 -27l-34 -32c-8 -10 -17 -10 -26 -1l-105 106l-106 -106c-9 -9 -18 -9 -26 1l-33 32c-9 9 -10 18 -1 27l106 106l-105 104c-9 9 -9 18 0 27l33 33c9 10 18 10 27 0l105 -104l104 104c9 9 18 9 27 0l33 -33c9 -9 9 -18 0 -27z
" />
    <glyph glyph-name="Oslash" unicode="&#xd8;" horiz-adv-x="572" 
d="M502 488v-333c0 -97 -58 -155 -155 -155h-122c-45 0 -81 12 -108 35l-20 -28c-7 -9 -16 -11 -26 -5l-17 13c-9 7 -11 16 -4 26l32 45c-8 20 -12 43 -12 69v333c0 99 56 155 155 155h122c45 0 82 -12 109 -35l19 27c7 10 16 12 26 5l17 -12c9 -7 11 -15 5 -25l-33 -46
c8 -20 12 -43 12 -69zM167 484v-279l230 321c-10 21 -31 32 -64 32h-94c-48 0 -72 -25 -72 -74zM405 159v279l-230 -321c11 -21 33 -32 64 -32h94c48 0 72 25 72 74z" />
    <glyph glyph-name="Ugrave" unicode="&#xd9;" horiz-adv-x="557" 
d="M409 643h63c12 0 18 -5 18 -16v-472c0 -97 -59 -155 -156 -155h-111c-97 0 -155 58 -155 155v471c0 11 6 17 17 17h63c11 0 17 -6 17 -17v-467c0 -49 24 -74 72 -74h82c49 0 73 25 73 74v467c0 11 6 17 17 17zM325 692h-42c-9 0 -17 4 -22 11l-78 96c-8 9 -4 16 7 16h70
c11 0 20 -5 25 -15l48 -92c5 -11 3 -16 -8 -16z" />
    <glyph glyph-name="Uacute" unicode="&#xda;" horiz-adv-x="557" 
d="M409 643h63c12 0 18 -5 18 -16v-472c0 -97 -59 -155 -156 -155h-111c-97 0 -155 58 -155 155v471c0 11 6 17 17 17h63c11 0 17 -6 17 -17v-467c0 -49 24 -74 72 -74h82c49 0 73 25 73 74v467c0 11 6 17 17 17zM298 692h-42c-11 0 -13 5 -8 16l48 92c5 10 14 15 25 15h70
c11 0 15 -7 7 -16l-78 -96c-5 -7 -13 -11 -22 -11z" />
    <glyph glyph-name="Ucircumflex" unicode="&#xdb;" horiz-adv-x="557" 
d="M382 707h-45c-8 0 -13 3 -16 10l-41 78l-40 -78c-3 -7 -9 -10 -16 -10h-45c-10 0 -12 4 -7 12l63 107c5 7 12 10 21 10h49c9 0 16 -3 21 -10l63 -107c5 -8 3 -12 -7 -12zM409 643h63c12 0 18 -5 18 -16v-472c0 -97 -59 -155 -156 -155h-111c-97 0 -155 58 -155 155v471
c0 11 6 17 17 17h63c11 0 17 -6 17 -17v-467c0 -49 24 -74 72 -74h82c49 0 73 25 73 74v467c0 11 6 17 17 17z" />
    <glyph glyph-name="Udieresis" unicode="&#xdc;" horiz-adv-x="557" 
d="M143 724v95c0 11 5 17 16 17h60c10 0 15 -5 15 -16v-96c0 -11 -5 -17 -15 -17h-60c-11 0 -16 6 -16 17zM323 724v95c0 11 5 17 15 17h61c10 0 15 -5 15 -16v-96c0 -11 -5 -17 -15 -17h-61c-10 0 -15 6 -15 17zM409 643h63c12 0 18 -5 18 -16v-472
c0 -97 -59 -155 -156 -155h-111c-97 0 -155 58 -155 155v471c0 11 6 17 17 17h63c11 0 17 -6 17 -17v-467c0 -49 24 -74 72 -74h82c49 0 73 25 73 74v467c0 11 6 17 17 17z" />
    <glyph glyph-name="Yacute" unicode="&#xdd;" horiz-adv-x="508" 
d="M286 0h-64c-11 0 -17 6 -17 17v221l-187 387c-5 11 2 18 11 18h80c9 0 15 -6 20 -17l123 -275h6l121 275c4 11 11 17 20 17h80c11 0 16 -7 11 -18l-187 -387v-221c0 -11 -6 -17 -17 -17zM273 692h-42c-11 0 -13 5 -8 16l48 92c5 10 14 15 25 15h70c11 0 15 -7 7 -16
l-78 -96c-5 -7 -13 -11 -22 -11z" />
    <glyph glyph-name="Thorn" unicode="&#xde;" horiz-adv-x="503" 
d="M201 218h81c51 0 72 22 72 73v60c0 49 -24 74 -72 74h-81c-7 0 -10 -3 -10 -10v-187c0 -7 3 -10 10 -10zM174 0h-64c-11 0 -17 6 -17 17v609c0 11 6 17 17 17h64c11 0 17 -6 17 -17v-106c0 -7 4 -10 11 -10h95c97 0 156 -56 156 -155v-68c0 -99 -59 -155 -156 -155h-95
c-7 0 -11 -3 -11 -10v-105c0 -11 -6 -17 -17 -17z" />
    <glyph glyph-name="germandbls" unicode="&#xdf;" horiz-adv-x="542" 
d="M271 362h30c52 0 78 25 78 74v51c0 49 -25 73 -74 73h-71c-47 0 -71 -24 -71 -73v-470c0 -11 -6 -17 -17 -17h-64c-11 0 -17 6 -17 17v471c0 99 58 155 155 155h99c97 0 155 -59 155 -156v-55c0 -55 -24 -92 -72 -110c52 -11 82 -59 82 -119v-54
c0 -97 -56 -149 -155 -149h-73c-12 0 -18 5 -18 16v50c0 11 6 17 18 17h59c49 0 74 24 74 73v49c0 49 -27 74 -82 74h-36c-11 0 -17 5 -17 16v50c0 11 6 17 17 17z" />
    <glyph glyph-name="agrave" unicode="&#xe0;" horiz-adv-x="512" 
d="M247 0h-39c-99 0 -155 58 -155 155v200c0 99 56 155 155 155h224c12 0 18 -6 18 -17v-476c0 -11 -6 -17 -18 -17h-63c-11 0 -17 6 -17 17v36h-4c-16 -35 -50 -53 -101 -53zM352 170v245c0 7 -4 10 -11 10h-119c-48 0 -72 -25 -72 -74v-192c0 -49 24 -74 72 -74h48
c55 0 82 28 82 85zM324 574h-42c-9 0 -17 4 -22 11l-78 96c-8 9 -4 16 7 16h70c11 0 20 -5 25 -15l48 -92c5 -11 3 -16 -8 -16z" />
    <glyph glyph-name="aacute" unicode="&#xe1;" horiz-adv-x="512" 
d="M247 0h-39c-99 0 -155 58 -155 155v200c0 99 56 155 155 155h224c12 0 18 -6 18 -17v-476c0 -11 -6 -17 -18 -17h-63c-11 0 -17 6 -17 17v36h-4c-16 -35 -50 -53 -101 -53zM352 170v245c0 7 -4 10 -11 10h-119c-48 0 -72 -25 -72 -74v-192c0 -49 24 -74 72 -74h48
c55 0 82 28 82 85zM295 574h-42c-11 0 -13 5 -8 16l48 92c5 10 14 15 25 15h70c11 0 15 -7 7 -16l-78 -96c-5 -7 -13 -11 -22 -11z" />
    <glyph glyph-name="acircumflex" unicode="&#xe2;" horiz-adv-x="512" 
d="M247 0h-39c-99 0 -155 58 -155 155v200c0 99 56 155 155 155h224c12 0 18 -6 18 -17v-476c0 -11 -6 -17 -18 -17h-63c-11 0 -17 6 -17 17v36h-4c-16 -35 -50 -53 -101 -53zM352 170v245c0 7 -4 10 -11 10h-119c-48 0 -72 -25 -72 -74v-192c0 -49 24 -74 72 -74h48
c55 0 82 28 82 85zM401 574h-73c-7 0 -12 2 -13 6l-36 48l-36 -48c-1 -4 -6 -6 -13 -6h-74c-8 0 -9 3 -4 10l84 104c4 6 11 9 21 9h44c9 0 16 -3 20 -9l85 -104c5 -7 4 -10 -5 -10z" />
    <glyph glyph-name="atilde" unicode="&#xe3;" horiz-adv-x="513" 
d="M247 0c51 0 85 18 101 53h4v-36c0 -11 6 -17 17 -17h63c12 0 18 6 18 17v476c0 11 -6 17 -18 17h-224c-99 0 -155 -56 -155 -155v-200c0 -97 56 -155 155 -155h39zM352 170c0 -57 -27 -85 -82 -85h-48c-48 0 -72 25 -72 74v192c0 49 24 74 72 74h119c7 0 11 -3 11 -10
v-245zM402 632c0 -41 -22 -58 -67 -58c-59 0 -71 5 -87 27c-23 34 -25 33 -25 9v-26c0 -9 -3 -9 -13 -9h-47c-9 0 -13 0 -13 9v29c0 42 21 59 67 59c43 0 68 -11 85 -38c20 -32 25 -27 25 2v24c0 7 3 9 13 9h49c10 0 13 -2 13 -9v-28z" />
    <glyph glyph-name="adieresis" unicode="&#xe4;" horiz-adv-x="512" 
d="M136 591v95c0 11 5 17 16 17h60c11 0 16 -5 16 -16v-96c0 -11 -5 -17 -16 -17h-60c-11 0 -16 6 -16 17zM316 591v95c0 11 5 17 16 17h60c11 0 16 -5 16 -16v-96c0 -11 -5 -17 -16 -17h-60c-11 0 -16 6 -16 17zM247 0h-39c-99 0 -155 58 -155 155v200c0 99 56 155 155 155
h224c12 0 18 -6 18 -17v-476c0 -11 -6 -17 -18 -17h-63c-11 0 -17 6 -17 17v36h-4c-16 -35 -50 -53 -101 -53zM352 170v245c0 7 -4 10 -11 10h-119c-48 0 -72 -25 -72 -74v-192c0 -49 24 -74 72 -74h48c55 0 82 28 82 85z" />
    <glyph glyph-name="aring" unicode="&#xe5;" horiz-adv-x="512" 
d="M352 170v245c0 7 -4 10 -11 10h-119c-48 0 -72 -25 -72 -74v-192c0 -49 24 -74 72 -74h48c55 0 82 28 82 85zM247 0h-39c-99 0 -155 58 -155 155v200c0 99 56 155 155 155h224c12 0 18 -6 18 -17v-476c0 -11 -6 -17 -18 -17h-63c-11 0 -17 6 -17 17v36h-4
c-16 -35 -50 -53 -101 -53zM222 657v-33c0 -25 9 -33 34 -33h15c25 0 34 8 34 33v33c0 27 -8 33 -33 33h-16c-25 0 -34 -6 -34 -33zM184 612v60c0 35 19 52 57 52h45c39 0 58 -17 58 -52v-60c0 -37 -19 -55 -58 -55h-45c-38 0 -57 18 -57 55z" />
    <glyph glyph-name="ae" unicode="&#xe6;" horiz-adv-x="770" 
d="M440 189v-30c0 -49 24 -74 73 -74h190c12 0 18 -6 18 -17v-52c0 -11 -6 -16 -18 -16h-205c-57 0 -98 20 -123 61c-22 -41 -67 -61 -136 -61h-34c-96 0 -155 55 -155 150v16c0 97 56 149 155 149h130c5 0 8 3 8 8v29c0 49 -24 73 -72 73h-160c-11 0 -17 6 -17 17v51
c0 11 6 17 17 17h157c62 0 103 -20 124 -59c21 39 61 59 121 59h53c97 0 155 -56 155 -155v-138c0 -12 -6 -18 -18 -18h-251c-8 0 -12 -3 -12 -10zM635 278v73c0 49 -24 74 -73 74h-46c-51 0 -76 -24 -76 -72v-75c0 -7 4 -11 11 -11h173c7 0 11 4 11 11zM343 164v70
c0 7 -4 10 -11 10h-112c-55 0 -78 -23 -78 -74v-14c0 -52 23 -76 78 -76h41c55 0 82 28 82 84z" />
    <glyph glyph-name="ccedilla" unicode="&#xe7;" horiz-adv-x="405" 
d="M355 425h-133c-48 0 -72 -25 -72 -74v-192c0 -49 24 -74 72 -74h133c12 0 18 -6 18 -17v-52c0 -11 -6 -16 -18 -16h-63l-37 -38v-4c51 0 76 -23 76 -70v-15c0 -44 -30 -66 -90 -66h-37c-13 0 -16 3 -16 15v17c0 10 5 15 16 15h28c37 0 48 7 48 27v2c0 21 -9 27 -48 27
h-21c-24 0 -34 30 -17 49l35 41h-21c-99 0 -155 58 -155 155v200c0 99 56 155 155 155h147c12 0 18 -6 18 -17v-52c0 -11 -6 -16 -18 -16z" />
    <glyph glyph-name="egrave" unicode="&#xe8;" horiz-adv-x="493" 
d="M424 0h-216c-99 0 -155 58 -155 155v200c0 99 56 155 155 155h82c99 0 156 -56 156 -155v-127c0 -12 -6 -18 -18 -18h-268c-7 0 -11 -3 -11 -10v-43c0 -49 24 -73 73 -73h202c12 0 18 -6 18 -18v-50c0 -11 -6 -16 -18 -16zM160 278h179c7 0 10 3 10 10v64
c0 51 -21 73 -72 73h-55c-51 0 -72 -22 -72 -73v-64c0 -7 3 -10 10 -10zM301 574h-42c-9 0 -17 4 -22 11l-78 96c-8 9 -4 16 7 16h70c11 0 20 -5 25 -15l48 -92c5 -11 3 -16 -8 -16z" />
    <glyph glyph-name="eacute" unicode="&#xe9;" horiz-adv-x="493" 
d="M424 0h-216c-99 0 -155 58 -155 155v200c0 99 56 155 155 155h82c99 0 156 -56 156 -155v-127c0 -12 -6 -18 -18 -18h-268c-7 0 -11 -3 -11 -10v-43c0 -49 24 -73 73 -73h202c12 0 18 -6 18 -18v-50c0 -11 -6 -16 -18 -16zM160 278h179c7 0 10 3 10 10v64
c0 51 -21 73 -72 73h-55c-51 0 -72 -22 -72 -73v-64c0 -7 3 -10 10 -10zM273 574h-42c-11 0 -13 5 -8 16l48 92c5 10 14 15 25 15h70c11 0 15 -7 7 -16l-78 -96c-5 -7 -13 -11 -22 -11z" />
    <glyph glyph-name="ecircumflex" unicode="&#xea;" horiz-adv-x="493" 
d="M424 0h-216c-99 0 -155 58 -155 155v200c0 99 56 155 155 155h82c99 0 156 -56 156 -155v-127c0 -12 -6 -18 -18 -18h-268c-7 0 -11 -3 -11 -10v-43c0 -49 24 -73 73 -73h202c12 0 18 -6 18 -18v-50c0 -11 -6 -16 -18 -16zM160 278h179c7 0 10 3 10 10v64
c0 51 -21 73 -72 73h-55c-51 0 -72 -22 -72 -73v-64c0 -7 3 -10 10 -10zM382 574h-73c-7 0 -12 2 -13 6l-36 48l-36 -48c-1 -4 -6 -6 -13 -6h-74c-8 0 -9 3 -4 10l84 104c4 6 11 9 21 9h44c9 0 16 -3 20 -9l85 -104c5 -7 4 -10 -5 -10z" />
    <glyph glyph-name="edieresis" unicode="&#xeb;" horiz-adv-x="493" 
d="M117 591v95c0 11 5 17 16 17h59c11 0 17 -5 17 -16v-96c0 -11 -6 -17 -17 -17h-59c-11 0 -16 6 -16 17zM296 591v95c0 11 6 17 17 17h59c11 0 17 -5 17 -16v-96c0 -11 -6 -17 -17 -17h-59c-11 0 -17 6 -17 17zM424 0h-216c-99 0 -155 58 -155 155v200
c0 99 56 155 155 155h82c99 0 156 -56 156 -155v-127c0 -12 -6 -18 -18 -18h-268c-7 0 -11 -3 -11 -10v-43c0 -49 24 -73 73 -73h202c12 0 18 -6 18 -18v-50c0 -11 -6 -16 -18 -16zM160 278h179c7 0 10 3 10 10v64c0 51 -21 73 -72 73h-55c-51 0 -72 -22 -72 -73v-64
c0 -7 3 -10 10 -10z" />
    <glyph glyph-name="igrave" unicode="&#xec;" horiz-adv-x="233" 
d="M69 17v476c0 11 5 17 16 17h64c11 0 17 -6 17 -17v-476c0 -13 -4 -17 -16 -17h-64c-11 0 -17 6 -17 17zM164 574h-42c-9 0 -17 4 -22 11l-78 96c-8 9 -4 16 7 16h70c11 0 20 -5 25 -15l48 -92c5 -11 3 -16 -8 -16z" />
    <glyph glyph-name="iacute" unicode="&#xed;" horiz-adv-x="232" 
d="M68 17v476c0 11 5 17 16 17h64c11 0 17 -6 17 -17v-476c0 -13 -4 -17 -16 -17h-64c-11 0 -17 6 -17 17zM118 574h-42c-11 0 -13 5 -8 16l48 92c5 10 14 15 25 15h70c11 0 15 -7 7 -16l-78 -96c-5 -7 -13 -11 -22 -11z" />
    <glyph glyph-name="icircumflex" unicode="&#xee;" horiz-adv-x="232" 
d="M218 574h-46c-7 0 -12 3 -15 10l-41 78l-40 -78c-3 -7 -8 -10 -16 -10h-45c-10 0 -12 4 -7 12l63 107c5 7 12 10 21 10h49c9 0 16 -3 21 -10l62 -107c5 -8 3 -12 -6 -12zM68 17v476c0 11 5 17 16 17h64c11 0 17 -6 17 -17v-476c0 -13 -4 -17 -16 -17h-64
c-11 0 -17 6 -17 17z" />
    <glyph glyph-name="idieresis" unicode="&#xef;" horiz-adv-x="232" 
d="M-20 591v95c0 11 5 17 16 17h60c11 0 17 -5 17 -16v-96c0 -11 -6 -17 -17 -17h-60c-11 0 -16 6 -16 17zM160 591v95c0 11 5 17 16 17h60c11 0 17 -5 17 -16v-96c0 -11 -6 -17 -17 -17h-60c-11 0 -16 6 -16 17zM68 17v476c0 11 5 17 16 17h64c11 0 17 -6 17 -17v-476
c0 -13 -4 -17 -16 -17h-64c-11 0 -17 6 -17 17z" />
    <glyph glyph-name="eth" unicode="&#xf0;" horiz-adv-x="500" 
d="M443 323v-168c0 -97 -58 -155 -155 -155h-80c-99 0 -155 58 -155 155v100c0 99 56 155 155 155h39c48 0 92 -20 107 -53h4c-4 23 -14 44 -31 65l-93 104l-87 -73c-9 -7 -17 -5 -24 4l-23 27c-5 7 -4 15 3 22l85 72l-66 73c-10 11 -9 21 3 31l31 23c11 7 21 6 30 -4
l64 -71l90 76c9 7 17 7 23 0l23 -29c8 -11 8 -19 -1 -25l-88 -74l101 -111c30 -35 45 -83 45 -144zM345 159v81c0 57 -25 85 -75 85h-41c-53 0 -79 -25 -79 -74v-92c0 -49 24 -74 72 -74h52c47 0 71 25 71 74z" />
    <glyph glyph-name="ntilde" unicode="&#xf1;" horiz-adv-x="517" 
d="M139 652v38c0 7 3 11 10 11h30c7 0 10 -4 10 -11v-19c-4 -51 20 -47 34 -36c4 5 10 15 19 30c19 32 33 40 60 40c45 0 67 -26 67 -77v-38c0 -8 -3 -12 -9 -12h-30c-7 0 -10 4 -10 12v18c0 35 -4 43 -19 43c-13 0 -16 -4 -33 -33c-17 -35 -34 -43 -62 -43
c-45 0 -67 26 -67 77zM143 0h-63c-11 0 -17 6 -17 17v476c0 11 6 17 17 17h63c11 0 17 -6 17 -17v-36h4c16 35 50 53 101 53h44c97 0 151 -55 151 -155v-338c0 -11 -6 -17 -18 -17h-63c-11 0 -17 6 -17 17v334c0 49 -24 74 -73 74h-47c-55 0 -82 -28 -82 -85v-323
c0 -11 -6 -17 -17 -17z" />
    <glyph glyph-name="ograve" unicode="&#xf2;" horiz-adv-x="504" 
d="M296 0h-88c-99 0 -155 58 -155 155v200c0 99 56 155 155 155h88c97 0 156 -56 156 -155v-200c0 -97 -59 -155 -156 -155zM222 85h61c48 0 72 24 72 73v194c0 49 -24 73 -72 73h-61c-51 0 -72 -22 -72 -73v-194c0 -51 21 -73 72 -73zM300 574h-42c-9 0 -17 4 -22 11
l-78 96c-8 9 -4 16 7 16h70c11 0 20 -5 25 -15l48 -92c5 -11 3 -16 -8 -16z" />
    <glyph glyph-name="oacute" unicode="&#xf3;" horiz-adv-x="504" 
d="M296 0h-88c-99 0 -155 58 -155 155v200c0 99 56 155 155 155h88c97 0 156 -56 156 -155v-200c0 -97 -59 -155 -156 -155zM222 85h61c48 0 72 24 72 73v194c0 49 -24 73 -72 73h-61c-51 0 -72 -22 -72 -73v-194c0 -51 21 -73 72 -73zM278 574h-42c-11 0 -13 5 -8 16l48 92
c5 10 14 15 25 15h70c11 0 15 -7 7 -16l-78 -96c-5 -7 -13 -11 -22 -11z" />
    <glyph glyph-name="ocircumflex" unicode="&#xf4;" horiz-adv-x="504" 
d="M296 0h-88c-99 0 -155 58 -155 155v200c0 99 56 155 155 155h88c97 0 156 -56 156 -155v-200c0 -97 -59 -155 -156 -155zM222 85h61c48 0 72 24 72 73v194c0 49 -24 73 -72 73h-61c-51 0 -72 -22 -72 -73v-194c0 -51 21 -73 72 -73zM377 574h-73c-7 0 -12 2 -13 6l-36 48
l-36 -48c-1 -4 -6 -6 -13 -6h-74c-8 0 -9 3 -4 10l84 104c4 6 11 9 21 9h44c9 0 16 -3 20 -9l85 -104c5 -7 4 -10 -5 -10z" />
    <glyph glyph-name="otilde" unicode="&#xf5;" horiz-adv-x="504" 
d="M296 0c97 0 156 58 156 155v200c0 99 -59 155 -156 155h-88c-99 0 -155 -56 -155 -155v-200c0 -97 56 -155 155 -155h88zM222 85c-51 0 -72 22 -72 73v194c0 51 21 73 72 73h61c48 0 72 -24 72 -73v-194c0 -49 -24 -73 -72 -73h-61zM385 632c0 -41 -22 -58 -67 -58
c-59 0 -71 5 -87 27c-23 34 -25 33 -25 9v-26c0 -9 -3 -9 -13 -9h-47c-9 0 -13 0 -13 9v29c0 42 21 59 67 59c43 0 68 -11 85 -38c20 -32 25 -27 25 2v24c0 7 3 9 13 9h49c10 0 13 -2 13 -9v-28z" />
    <glyph glyph-name="odieresis" unicode="&#xf6;" horiz-adv-x="504" 
d="M116 591v95c0 11 5 17 16 17h60c11 0 16 -5 16 -16v-96c0 -11 -5 -17 -16 -17h-60c-11 0 -16 6 -16 17zM296 591v95c0 11 5 17 16 17h60c11 0 16 -5 16 -16v-96c0 -11 -5 -17 -16 -17h-60c-11 0 -16 6 -16 17zM296 0h-88c-99 0 -155 58 -155 155v200c0 99 56 155 155 155
h88c97 0 156 -56 156 -155v-200c0 -97 -59 -155 -156 -155zM222 85h61c48 0 72 24 72 73v194c0 49 -24 73 -72 73h-61c-51 0 -72 -22 -72 -73v-194c0 -51 21 -73 72 -73z" />
    <glyph glyph-name="divide" unicode="&#xf7;" horiz-adv-x="481" 
d="M207 155v54c0 11 6 16 17 16h34c12 0 18 -5 18 -16v-54c0 -11 -6 -17 -18 -17h-34c-11 0 -17 6 -17 17zM393 287h-303c-12 0 -18 6 -18 17v34c0 11 6 17 18 17h303c11 0 16 -6 16 -17v-34c0 -11 -5 -17 -16 -17zM207 433v53c0 12 6 18 17 18h34c12 0 18 -6 18 -18v-53
c0 -11 -6 -17 -18 -17h-34c-11 0 -17 6 -17 17z" />
    <glyph glyph-name="oslash" unicode="&#xf8;" horiz-adv-x="520" 
d="M460 355v-200c0 -97 -57 -155 -156 -155h-87c-54 0 -95 17 -123 50l-31 -31c-9 -9 -17 -9 -24 0l-14 13c-9 8 -9 16 0 25l43 43c-5 16 -7 34 -7 55v200c0 99 57 155 156 155h87c55 0 96 -17 124 -50l30 30c7 9 15 10 24 1l14 -13c9 -8 9 -16 0 -25l-43 -43
c5 -16 7 -34 7 -55zM159 351v-160l197 197c-9 25 -31 37 -66 37h-59c-48 0 -72 -25 -72 -74zM362 159v160l-197 -198c9 -24 31 -36 66 -36h59c48 0 72 25 72 74z" />
    <glyph glyph-name="ugrave" unicode="&#xf9;" horiz-adv-x="517" 
d="M252 0h-45c-96 0 -149 56 -149 155v338c0 11 6 17 17 17h63c11 0 17 -6 17 -17v-334c0 -49 24 -74 72 -74h48c55 0 82 28 82 85v323c0 11 6 17 17 17h63c12 0 18 -6 18 -17v-476c0 -11 -6 -17 -18 -17h-63c-11 0 -17 6 -17 17v36h-4c-16 -35 -50 -53 -101 -53zM305 574
h-42c-9 0 -17 4 -22 11l-78 96c-8 9 -4 16 7 16h70c11 0 20 -5 25 -15l48 -92c5 -11 3 -16 -8 -16z" />
    <glyph glyph-name="uacute" unicode="&#xfa;" horiz-adv-x="517" 
d="M252 0h-45c-96 0 -149 56 -149 155v338c0 11 6 17 17 17h63c11 0 17 -6 17 -17v-334c0 -49 24 -74 72 -74h48c55 0 82 28 82 85v323c0 11 6 17 17 17h63c12 0 18 -6 18 -17v-476c0 -11 -6 -17 -18 -17h-63c-11 0 -17 6 -17 17v36h-4c-16 -35 -50 -53 -101 -53zM277 574
h-42c-11 0 -13 5 -8 16l48 92c5 10 14 15 25 15h70c11 0 15 -7 7 -16l-78 -96c-5 -7 -13 -11 -22 -11z" />
    <glyph glyph-name="ucircumflex" unicode="&#xfb;" horiz-adv-x="517" 
d="M358 574h-46c-7 0 -13 3 -16 10l-40 78l-40 -78c-3 -7 -8 -10 -16 -10h-45c-10 0 -12 4 -7 12l62 107c5 7 12 10 22 10h48c10 0 17 -3 22 -10l62 -107c5 -8 3 -12 -6 -12zM252 0h-45c-96 0 -149 56 -149 155v338c0 11 6 17 17 17h63c11 0 17 -6 17 -17v-334
c0 -49 24 -74 72 -74h48c55 0 82 28 82 85v323c0 11 6 17 17 17h63c12 0 18 -6 18 -17v-476c0 -11 -6 -17 -18 -17h-63c-11 0 -17 6 -17 17v36h-4c-16 -35 -50 -53 -101 -53z" />
    <glyph glyph-name="udieresis" unicode="&#xfc;" horiz-adv-x="517" 
d="M120 591v95c0 11 5 17 16 17h60c11 0 16 -5 16 -16v-96c0 -11 -5 -17 -16 -17h-60c-11 0 -16 6 -16 17zM300 591v95c0 11 5 17 16 17h60c11 0 16 -5 16 -16v-96c0 -11 -5 -17 -16 -17h-60c-11 0 -16 6 -16 17zM252 0h-45c-96 0 -149 56 -149 155v338c0 11 6 17 17 17h63
c11 0 17 -6 17 -17v-334c0 -49 24 -74 72 -74h48c55 0 82 28 82 85v323c0 11 6 17 17 17h63c12 0 18 -6 18 -17v-476c0 -11 -6 -17 -18 -17h-63c-11 0 -17 6 -17 17v36h-4c-16 -35 -50 -53 -101 -53z" />
    <glyph glyph-name="yacute" unicode="&#xfd;" horiz-adv-x="467" 
d="M123 -162h-53c-11 0 -17 6 -17 17v51c0 12 6 18 17 18h23c41 0 69 8 84 24c16 16 29 42 40 79h-40c-10 0 -17 6 -21 17l-133 449c-3 11 2 17 13 17h67c11 0 17 -6 20 -17l109 -392h4l109 392c2 11 9 17 20 17h64c13 0 18 -6 16 -18l-137 -481
c-31 -112 -81 -173 -185 -173zM253 574h-42c-11 0 -13 5 -8 16l48 92c5 10 14 15 25 15h70c11 0 15 -7 7 -16l-78 -96c-5 -7 -13 -11 -22 -11z" />
    <glyph glyph-name="thorn" unicode="&#xfe;" horiz-adv-x="520" 
d="M245 85h52c48 0 72 25 72 74v192c0 49 -24 74 -72 74h-52c-55 0 -82 -28 -82 -85v-170c0 -57 27 -85 82 -85zM167 53h-4v-169c0 -11 -6 -17 -17 -17h-64c-11 0 -17 6 -17 17v802c0 11 6 17 17 17h64c11 0 17 -6 17 -17v-229h4c15 35 49 53 100 53h45
c97 0 155 -56 155 -155v-200c0 -97 -58 -155 -155 -155h-45c-51 0 -85 18 -100 53z" />
    <glyph glyph-name="ydieresis" unicode="&#xff;" horiz-adv-x="467" 
d="M99 591v95c0 11 5 17 15 17h61c11 0 16 -5 16 -16v-96c0 -11 -5 -17 -16 -17h-61c-10 0 -15 6 -15 17zM278 591v95c0 11 5 17 16 17h60c11 0 17 -5 17 -16v-96c0 -11 -6 -17 -17 -17h-60c-11 0 -16 6 -16 17zM123 -162h-53c-11 0 -17 6 -17 17v51c0 12 6 18 17 18h23
c41 0 69 8 84 24c16 16 29 42 40 79h-40c-10 0 -17 6 -21 17l-133 449c-3 11 2 17 13 17h67c11 0 17 -6 20 -17l109 -392h4l109 392c2 11 9 17 20 17h64c13 0 18 -6 16 -18l-137 -481c-31 -112 -81 -173 -185 -173z" />
    <glyph glyph-name="Amacron" unicode="&#x100;" horiz-adv-x="547" 
d="M373 740h-199c-11 0 -17 6 -17 17v35c0 11 6 17 17 17h199c11 0 17 -6 17 -17v-35c0 -11 -6 -17 -17 -17zM108 0h-72c-9 0 -13 6 -10 17l174 609c3 11 11 17 24 17h100c13 0 21 -6 24 -17l174 -609c3 -11 -1 -17 -11 -17h-71c-12 0 -15 4 -18 17l-38 130h-220l-38 -130
c-3 -11 -9 -17 -18 -17zM276 547h-4l-88 -320h181z" />
    <glyph glyph-name="amacron" unicode="&#x101;" horiz-adv-x="512" 
d="M380 605h-200c-11 0 -17 6 -17 17v34c0 11 6 17 17 17h200c11 0 17 -6 17 -17v-34c0 -11 -6 -17 -17 -17zM247 0h-39c-99 0 -155 58 -155 155v200c0 99 56 155 155 155h224c12 0 18 -6 18 -17v-476c0 -11 -6 -17 -18 -17h-63c-11 0 -17 6 -17 17v36h-4
c-16 -35 -50 -53 -101 -53zM352 170v245c0 7 -4 10 -11 10h-119c-48 0 -72 -25 -72 -74v-192c0 -49 24 -74 72 -74h48c55 0 82 28 82 85z" />
    <glyph glyph-name="Abreve" unicode="&#x102;" horiz-adv-x="547" 
d="M108 0h-72c-9 0 -13 6 -10 17l174 609c3 11 11 17 24 17h100c13 0 21 -6 24 -17l174 -609c3 -11 -1 -17 -11 -17h-71c-12 0 -15 4 -18 17l-38 130h-220l-38 -130c-3 -11 -9 -17 -18 -17zM276 547h-4l-88 -320h181zM154 783v12c0 7 3 10 9 10h61c7 0 10 -3 10 -10v-11
c0 -31 13 -40 40 -40c28 0 42 11 42 40v10c0 7 3 10 9 10h60c6 0 9 -3 9 -10v-11c0 -61 -38 -91 -114 -91h-13c-75 0 -113 30 -113 91z" />
    <glyph glyph-name="abreve" unicode="&#x103;" horiz-adv-x="512" 
d="M352 170v245c0 7 -4 10 -11 10h-119c-48 0 -72 -25 -72 -74v-192c0 -49 24 -74 72 -74h48c55 0 82 28 82 85zM247 0h-39c-99 0 -155 58 -155 155v200c0 99 56 155 155 155h224c12 0 18 -6 18 -17v-476c0 -11 -6 -17 -18 -17h-63c-11 0 -17 6 -17 17v36h-4
c-16 -35 -50 -53 -101 -53zM161 665v12c0 7 3 10 9 10h61c7 0 10 -3 10 -10v-11c0 -31 13 -40 40 -40c28 0 42 11 42 40v10c0 7 3 10 9 10h60c6 0 9 -3 9 -10v-11c0 -61 -38 -91 -114 -91h-13c-75 0 -113 30 -113 91z" />
    <glyph glyph-name="Aogonek" unicode="&#x104;" horiz-adv-x="547" 
d="M511 0h-52l-42 -62h40c19 0 24 -4 24 -17c0 -11 -10 -20 -29 -27s-38 -10 -57 -10c-37 0 -48 25 -31 49l57 86l-37 128h-220l-38 -130c-3 -11 -9 -17 -18 -17h-72c-9 0 -13 6 -10 17l174 609c3 11 11 17 24 17h100c13 0 21 -6 24 -17l174 -609c3 -11 -1 -17 -11 -17z
M272 547l-88 -320h181l-89 320h-4z" />
    <glyph glyph-name="aogonek" unicode="&#x105;" horiz-adv-x="512" 
d="M208 510h224c12 0 18 -6 18 -17v-476c0 -11 -6 -17 -18 -17h-46c-9 -11 -18 -25 -27 -41c-9 -17 -13 -25 -12 -25c20 0 34 1 42 3c15 1 22 -4 19 -15c-1 -11 -10 -20 -29 -27s-36 -11 -53 -11c-33 0 -37 36 -20 59l46 75v35h-4c-16 -35 -50 -53 -101 -53h-39
c-99 0 -155 58 -155 155v200c0 99 56 155 155 155zM222 85h48c55 0 82 28 82 85v245c0 7 -4 10 -11 10h-119c-48 0 -72 -25 -72 -74v-192c0 -49 24 -74 72 -74z" />
    <glyph glyph-name="Cacute" unicode="&#x106;" horiz-adv-x="540" 
d="M334 0h-116c-99 0 -155 58 -155 155v333c0 99 56 155 155 155h116c97 0 155 -56 155 -155v-48c0 -12 -6 -18 -18 -18h-63c-11 0 -17 6 -17 18v44c0 49 -24 74 -72 74h-87c-48 0 -72 -25 -72 -74v-325c0 -49 24 -74 72 -74h87c48 0 72 25 72 74v44c0 12 6 18 17 18h63
c12 0 18 -6 18 -18v-48c0 -97 -58 -155 -155 -155zM308 836h78c12 0 16 -8 8 -17l-84 -100c-6 -8 -14 -12 -23 -12h-48c-11 0 -14 6 -9 17l52 96c5 11 14 16 26 16z" />
    <glyph glyph-name="cacute" unicode="&#x107;" horiz-adv-x="405" 
d="M267 703h79c11 0 15 -6 8 -17l-84 -100c-7 -8 -15 -12 -24 -12h-47c-12 0 -15 6 -8 17l51 96c5 11 14 16 25 16zM373 68v-52c0 -11 -6 -16 -18 -16h-147c-99 0 -155 58 -155 155v200c0 99 56 155 155 155h147c12 0 18 -6 18 -17v-52c0 -11 -6 -16 -18 -16h-133
c-48 0 -72 -25 -72 -74v-192c0 -49 24 -74 72 -74h133c12 0 18 -6 18 -17z" />
    <glyph glyph-name="Cdotaccent" unicode="&#x10a;" horiz-adv-x="540" 
d="M334 0h-116c-99 0 -155 58 -155 155v333c0 99 56 155 155 155h116c97 0 155 -56 155 -155v-48c0 -12 -6 -18 -18 -18h-63c-11 0 -17 6 -17 18v44c0 49 -24 74 -72 74h-87c-48 0 -72 -25 -72 -74v-325c0 -49 24 -74 72 -74h87c48 0 72 25 72 74v44c0 12 6 18 17 18h63
c12 0 18 -6 18 -18v-48c0 -97 -58 -155 -155 -155zM227 727v95c0 11 5 17 16 17h65c11 0 17 -5 17 -16v-96c0 -11 -6 -17 -17 -17h-65c-11 0 -16 6 -16 17z" />
    <glyph glyph-name="cdotaccent" unicode="&#x10b;" horiz-adv-x="405" 
d="M188 590v97c0 11 5 16 16 16h66c10 0 15 -5 15 -16v-97c0 -11 -5 -16 -15 -16h-66c-11 0 -16 5 -16 16zM373 68v-52c0 -11 -6 -16 -18 -16h-147c-99 0 -155 58 -155 155v200c0 99 56 155 155 155h147c12 0 18 -6 18 -17v-52c0 -11 -6 -16 -18 -16h-133
c-48 0 -72 -25 -72 -74v-192c0 -49 24 -74 72 -74h133c12 0 18 -6 18 -17z" />
    <glyph glyph-name="Ccaron" unicode="&#x10c;" horiz-adv-x="540" 
d="M334 0h-116c-99 0 -155 58 -155 155v333c0 99 56 155 155 155h116c97 0 155 -56 155 -155v-48c0 -12 -6 -18 -18 -18h-63c-11 0 -17 6 -17 18v44c0 49 -24 74 -72 74h-87c-48 0 -72 -25 -72 -74v-325c0 -49 24 -74 72 -74h87c48 0 72 25 72 74v44c0 12 6 18 17 18h63
c12 0 18 -6 18 -18v-48c0 -97 -58 -155 -155 -155zM302 707h-48c-9 0 -16 3 -21 10l-63 107c-5 8 -3 12 7 12h45c8 0 13 -3 16 -10l40 -78l40 78c3 7 9 10 16 10h47c8 0 10 -7 6 -12l-63 -107c-5 -7 -12 -10 -22 -10z" />
    <glyph glyph-name="ccaron" unicode="&#x10d;" horiz-adv-x="405" 
d="M263 574h-49c-9 0 -16 3 -21 10l-62 107c-5 8 -3 12 6 12h46c7 0 12 -3 15 -10l41 -78l40 78c3 7 8 10 16 10h45c10 0 12 -4 7 -12l-63 -107c-5 -7 -12 -10 -21 -10zM373 68v-52c0 -11 -6 -16 -18 -16h-147c-99 0 -155 58 -155 155v200c0 99 56 155 155 155h147
c12 0 18 -6 18 -17v-52c0 -11 -6 -16 -18 -16h-133c-48 0 -72 -25 -72 -74v-192c0 -49 24 -74 72 -74h133c12 0 18 -6 18 -17z" />
    <glyph glyph-name="Dcaron" unicode="&#x10e;" horiz-adv-x="555" 
d="M299 707h-48c-9 0 -16 3 -21 10l-64 107c-4 5 -1 12 8 12h45c7 0 13 -3 16 -10l40 -78l41 78c3 7 8 10 15 10h46c9 0 11 -4 6 -12l-63 -107c-5 -7 -12 -10 -21 -10zM181 85h141c48 0 72 25 72 74v325c0 49 -24 74 -72 74h-141c-7 0 -11 -3 -11 -10v-452
c0 -7 4 -11 11 -11zM73 17v609c0 11 6 17 17 17h246c97 0 156 -56 156 -155v-333c0 -97 -59 -155 -156 -155h-246c-11 0 -17 6 -17 17z" />
    <glyph glyph-name="dcaron" unicode="&#x10f;" horiz-adv-x="596" 
d="M599 687v-45c0 -19 -6 -42 -18 -71l-42 -98c-5 -6 -10 -9 -15 -9c-9 0 -14 5 -14 16v206c0 11 5 17 16 17h57c11 0 16 -5 16 -16zM253 0h-51c-96 0 -149 56 -149 155v200c0 100 53 155 149 155h51c51 0 85 -18 100 -53h4v229c0 11 6 17 17 17h64c11 0 17 -6 17 -17v-669
c0 -11 -6 -17 -17 -17h-64c-11 0 -17 6 -17 17v36h-4c-15 -35 -49 -53 -100 -53zM357 170v170c0 57 -27 85 -82 85h-53c-48 0 -72 -25 -72 -74v-192c0 -49 24 -74 72 -74h53c55 0 82 28 82 85z" />
    <glyph glyph-name="Dcroat" unicode="&#x110;" horiz-adv-x="556" 
d="M182 85h140c49 0 73 25 73 74v325c0 49 -24 74 -73 74h-140c-7 0 -11 -3 -11 -10v-139c0 -7 4 -11 11 -11h103c11 0 17 -6 17 -17v-40c0 -11 -6 -16 -17 -16h-103c-7 0 -11 -3 -11 -10v-219c0 -7 4 -11 11 -11zM337 0h-247c-11 0 -17 6 -17 17v298c0 7 -3 10 -10 10h-32
c-13 0 -17 4 -17 16v40c0 11 6 17 17 17h32c7 0 10 4 10 11v217c0 11 6 17 17 17h247c99 0 156 -56 156 -155v-333c0 -97 -57 -155 -156 -155z" />
    <glyph glyph-name="dslash" unicode="&#x111;" horiz-adv-x="518" 
d="M253 0h-45c-99 0 -155 58 -155 155v142c0 97 56 155 155 155h45c47 0 85 -19 100 -54h4v134c0 7 -4 10 -11 10h-95c-11 0 -16 6 -16 17v40c0 11 5 17 16 17h95c7 0 11 4 11 11v59c0 11 6 17 17 17h64c11 0 17 -6 17 -17v-59c0 -7 4 -11 11 -11h41c11 0 17 -6 17 -17v-40
c0 -11 -6 -17 -17 -17h-41c-7 0 -11 -3 -11 -10v-515c0 -11 -6 -17 -17 -17h-64c-11 0 -17 6 -17 17v36h-4c-15 -35 -49 -53 -100 -53zM357 170v112c0 56 -27 84 -82 84h-53c-48 0 -72 -24 -72 -73v-134c0 -49 24 -74 72 -74h53c55 0 82 28 82 85z" />
    <glyph glyph-name="Emacron" unicode="&#x112;" horiz-adv-x="480" 
d="M349 740h-200c-11 0 -16 6 -16 17v35c0 11 5 17 16 17h200c11 0 17 -6 17 -17v-35c0 -11 -6 -17 -17 -17zM410 0h-320c-11 0 -17 6 -17 17v609c0 11 6 17 17 17h320c11 0 16 -6 16 -17v-51c0 -11 -5 -17 -16 -17h-228c-8 0 -12 -3 -12 -10v-169c0 -7 4 -10 12 -10h193
c12 0 18 -6 18 -17v-51c0 -11 -6 -17 -18 -17h-193c-8 0 -12 -3 -12 -10v-178c0 -7 4 -11 12 -11h228c11 0 16 -6 16 -17v-51c0 -11 -5 -17 -16 -17z" />
    <glyph glyph-name="emacron" unicode="&#x113;" horiz-adv-x="493" 
d="M352 605h-199c-11 0 -17 6 -17 17v34c0 11 6 17 17 17h199c12 0 18 -6 18 -17v-34c0 -11 -6 -17 -18 -17zM424 0h-216c-99 0 -155 58 -155 155v200c0 99 56 155 155 155h82c99 0 156 -56 156 -155v-127c0 -12 -6 -18 -18 -18h-268c-7 0 -11 -3 -11 -10v-43
c0 -49 24 -73 73 -73h202c12 0 18 -6 18 -18v-50c0 -11 -6 -16 -18 -16zM160 278h179c7 0 10 3 10 10v64c0 51 -21 73 -72 73h-55c-51 0 -72 -22 -72 -73v-64c0 -7 3 -10 10 -10z" />
    <glyph glyph-name="Ebreve" unicode="&#x114;" horiz-adv-x="480" 
d="M138 813v11c0 8 4 12 12 12h38c8 0 12 -4 12 -12v-10c0 -41 12 -56 44 -56h6c32 0 45 16 45 56v10c0 8 4 12 13 12h36c9 0 13 -4 13 -12v-11c0 -71 -32 -106 -97 -106h-26c-64 0 -96 35 -96 106zM410 0h-320c-11 0 -17 6 -17 17v609c0 11 6 17 17 17h320
c11 0 16 -6 16 -17v-51c0 -11 -5 -17 -16 -17h-228c-8 0 -12 -3 -12 -10v-169c0 -7 4 -10 12 -10h193c12 0 18 -6 18 -17v-51c0 -11 -6 -17 -18 -17h-193c-8 0 -12 -3 -12 -10v-178c0 -7 4 -11 12 -11h228c11 0 16 -6 16 -17v-51c0 -11 -5 -17 -16 -17z" />
    <glyph glyph-name="ebreve" unicode="&#x115;" horiz-adv-x="493" 
d="M160 278h179c7 0 10 3 10 10v64c0 51 -21 73 -72 73h-55c-51 0 -72 -22 -72 -73v-64c0 -7 3 -10 10 -10zM424 0h-216c-99 0 -155 58 -155 155v200c0 99 56 155 155 155h82c99 0 156 -56 156 -155v-127c0 -12 -6 -18 -18 -18h-268c-7 0 -11 -3 -11 -10v-43
c0 -49 24 -73 73 -73h202c12 0 18 -6 18 -18v-50c0 -11 -6 -16 -18 -16zM142 680v11c0 8 4 12 12 12h38c7 0 11 -4 11 -12v-10c0 -40 13 -56 45 -56h6c33 0 46 16 46 56v10c0 8 4 12 11 12h38c8 0 12 -4 12 -12v-11c0 -69 -36 -106 -97 -106h-26c-64 0 -96 35 -96 106z" />
    <glyph glyph-name="Edotaccent" unicode="&#x116;" horiz-adv-x="487" 
d="M201 727v95c0 11 5 17 16 17h66c11 0 16 -5 16 -16v-96c0 -11 -5 -17 -16 -17h-66c-11 0 -16 6 -16 17zM410 0h-320c-11 0 -17 6 -17 17v609c0 11 6 17 17 17h320c11 0 16 -6 16 -17v-51c0 -11 -5 -17 -16 -17h-228c-8 0 -12 -3 -12 -10v-169c0 -7 4 -10 12 -10h193
c12 0 18 -6 18 -17v-51c0 -11 -6 -17 -18 -17h-193c-8 0 -12 -3 -12 -10v-178c0 -7 4 -11 12 -11h228c11 0 16 -6 16 -17v-51c0 -11 -5 -17 -16 -17z" />
    <glyph glyph-name="edotaccent" unicode="&#x117;" horiz-adv-x="493" 
d="M204 590v97c0 11 5 16 16 16h66c11 0 16 -5 16 -16v-97c0 -11 -5 -16 -16 -16h-66c-11 0 -16 5 -16 16zM424 0h-216c-99 0 -155 58 -155 155v200c0 99 56 155 155 155h82c99 0 156 -56 156 -155v-127c0 -12 -6 -18 -18 -18h-268c-7 0 -11 -3 -11 -10v-43
c0 -49 24 -73 73 -73h202c12 0 18 -6 18 -18v-50c0 -11 -6 -16 -18 -16zM160 278h179c7 0 10 3 10 10v64c0 51 -21 73 -72 73h-55c-51 0 -72 -22 -72 -73v-64c0 -7 3 -10 10 -10z" />
    <glyph glyph-name="Eogonek" unicode="&#x118;" horiz-adv-x="480" 
d="M410 558h-228c-8 0 -12 -3 -12 -10v-169c0 -7 4 -10 12 -10h193c12 0 18 -6 18 -17v-51c0 -11 -6 -17 -18 -17h-193c-8 0 -12 -3 -12 -10v-178c0 -7 4 -11 12 -11h228c11 0 16 -6 16 -17v-51c0 -11 -5 -17 -16 -17h-45l-43 -62h41c19 0 23 -4 23 -17
c0 -11 -10 -20 -29 -27s-38 -10 -57 -10c-37 0 -49 25 -30 49l45 67h-225c-11 0 -17 6 -17 17v609c0 11 6 17 17 17h320c11 0 16 -6 16 -17v-51c0 -11 -5 -17 -16 -17z" />
    <glyph glyph-name="eogonek" unicode="&#x119;" horiz-adv-x="493" 
d="M428 210h-268c-7 0 -11 -3 -11 -10v-43c0 -49 24 -73 73 -73h202c12 0 18 -6 18 -18v-50c0 -11 -6 -16 -18 -16h-53c-9 -11 -18 -25 -27 -41c-9 -17 -13 -25 -12 -25c20 0 34 1 42 3c15 1 21 -4 18 -15c-1 -11 -10 -20 -29 -27s-36 -11 -53 -11c-32 0 -36 36 -19 59
l34 57h-117c-99 0 -155 58 -155 155v200c0 99 56 155 155 155h82c99 0 156 -56 156 -155v-127c0 -12 -6 -18 -18 -18zM150 352v-64c0 -7 3 -10 10 -10h179c7 0 10 3 10 10v64c0 51 -21 73 -72 73h-55c-51 0 -72 -22 -72 -73z" />
    <glyph glyph-name="Ecaron" unicode="&#x11a;" horiz-adv-x="480" 
d="M278 707h-48c-9 0 -16 3 -21 10l-63 107c-5 8 -3 12 7 12h45c7 0 12 -3 15 -10l41 -78l40 78c3 7 9 10 16 10h46c10 0 12 -4 7 -12l-64 -107c-5 -7 -12 -10 -21 -10zM410 0h-320c-11 0 -17 6 -17 17v609c0 11 6 17 17 17h320c11 0 16 -6 16 -17v-51c0 -11 -5 -17 -16 -17
h-228c-8 0 -12 -3 -12 -10v-169c0 -7 4 -10 12 -10h193c12 0 18 -6 18 -17v-51c0 -11 -6 -17 -18 -17h-193c-8 0 -12 -3 -12 -10v-178c0 -7 4 -11 12 -11h228c11 0 16 -6 16 -17v-51c0 -11 -5 -17 -16 -17z" />
    <glyph glyph-name="ecaron" unicode="&#x11b;" horiz-adv-x="493" 
d="M277 574h-49c-9 0 -16 3 -21 10l-62 107c-5 8 -3 12 6 12h46c7 0 12 -3 15 -10l41 -78l40 78c3 7 8 10 16 10h45c10 0 12 -4 7 -12l-63 -107c-5 -7 -12 -10 -21 -10zM424 0h-216c-99 0 -155 58 -155 155v200c0 99 56 155 155 155h82c99 0 156 -56 156 -155v-127
c0 -12 -6 -18 -18 -18h-268c-7 0 -11 -3 -11 -10v-43c0 -49 24 -73 73 -73h202c12 0 18 -6 18 -18v-50c0 -11 -6 -16 -18 -16zM160 278h179c7 0 10 3 10 10v64c0 51 -21 73 -72 73h-55c-51 0 -72 -22 -72 -73v-64c0 -7 3 -10 10 -10z" />
    <glyph glyph-name="Gcircumflex" unicode="&#x11c;" horiz-adv-x="543" 
d="M375 707h-46c-7 0 -13 3 -16 10l-40 78l-41 -78c-1 -7 -6 -10 -15 -10h-45c-10 0 -12 4 -7 12l63 107c5 7 12 10 21 10h48c10 0 17 -3 22 -10l63 -107c5 -8 3 -12 -7 -12zM325 0h-107c-99 0 -155 58 -155 155v333c0 99 56 155 155 155h107c99 0 155 -56 155 -155v-36
c0 -12 -6 -18 -17 -18h-63c-11 0 -17 6 -17 18v32c0 49 -24 74 -72 74h-79c-48 0 -72 -25 -72 -74v-325c0 -49 24 -74 72 -74h79c48 0 72 25 72 74v90c0 7 -4 10 -11 10h-81c-11 0 -17 6 -17 17v51c0 11 6 17 17 17h168c14 0 21 -7 21 -21v-168c0 -97 -58 -155 -155 -155z
" />
    <glyph glyph-name="gcircumflex" unicode="&#x11d;" horiz-adv-x="514" 
d="M373 574h-45c-8 0 -13 3 -16 10l-40 78l-41 -78c-3 -7 -8 -10 -15 -10h-46c-9 0 -11 4 -6 12l62 107c5 7 12 10 21 10h49c9 0 16 -3 21 -10l63 -107c5 -8 3 -12 -7 -12zM249 25h-45c-96 0 -149 56 -149 155v175c0 99 58 155 155 155h224c12 0 18 -6 18 -17v-495
c0 -97 -59 -154 -156 -154h-188c-11 0 -17 5 -17 16v52c0 11 6 17 17 17h173c49 0 73 25 73 74v76h-4c-17 -36 -50 -54 -101 -54zM354 195v220c0 7 -4 10 -11 10h-119c-47 0 -71 -25 -71 -74v-166c0 -49 24 -74 71 -74h48c55 0 82 28 82 84z" />
    <glyph glyph-name="Gbreve" unicode="&#x11e;" horiz-adv-x="543" 
d="M162 813v11c0 8 4 12 12 12h38c9 0 13 -4 13 -12v-10c0 -41 12 -56 43 -56h7c33 0 45 16 45 56v10c0 8 4 12 12 12h37c8 0 12 -4 12 -12v-11c0 -71 -32 -106 -97 -106h-25c-65 0 -97 35 -97 106zM325 0h-107c-99 0 -155 58 -155 155v333c0 99 56 155 155 155h107
c99 0 155 -56 155 -155v-36c0 -12 -6 -18 -17 -18h-63c-11 0 -17 6 -17 18v32c0 49 -24 74 -72 74h-79c-48 0 -72 -25 -72 -74v-325c0 -49 24 -74 72 -74h79c48 0 72 25 72 74v90c0 7 -4 10 -11 10h-81c-11 0 -17 6 -17 17v51c0 11 6 17 17 17h168c14 0 21 -7 21 -21v-168
c0 -97 -58 -155 -155 -155z" />
    <glyph glyph-name="gbreve" unicode="&#x11f;" horiz-adv-x="514" 
d="M354 195v220c0 7 -4 10 -11 10h-119c-47 0 -71 -25 -71 -74v-166c0 -49 24 -74 71 -74h48c55 0 82 28 82 84zM249 25h-45c-96 0 -149 56 -149 155v175c0 99 58 155 155 155h224c12 0 18 -6 18 -17v-495c0 -97 -59 -154 -156 -154h-188c-11 0 -17 5 -17 16v52
c0 11 6 17 17 17h173c49 0 73 25 73 74v76h-4c-17 -36 -50 -54 -101 -54zM169 680v11c0 8 4 12 13 12h37c8 0 12 -4 12 -12v-10c0 -41 13 -56 45 -56h6c32 0 45 16 45 56v10c0 8 4 12 12 12h37c8 0 12 -4 12 -12v-11c0 -71 -32 -106 -97 -106h-25c-65 0 -97 35 -97 106z" />
    <glyph glyph-name="Gdotaccent" unicode="&#x120;" horiz-adv-x="543" 
d="M222 727v95c0 11 6 17 17 17h65c11 0 16 -5 16 -16v-96c0 -11 -5 -17 -16 -17h-65c-11 0 -17 6 -17 17zM325 0h-107c-99 0 -155 58 -155 155v333c0 99 56 155 155 155h107c99 0 155 -56 155 -155v-36c0 -12 -6 -18 -17 -18h-63c-11 0 -17 6 -17 18v32c0 49 -24 74 -72 74
h-79c-48 0 -72 -25 -72 -74v-325c0 -49 24 -74 72 -74h79c48 0 72 25 72 74v90c0 7 -4 10 -11 10h-81c-11 0 -17 6 -17 17v51c0 11 6 17 17 17h168c14 0 21 -7 21 -21v-168c0 -97 -58 -155 -155 -155z" />
    <glyph glyph-name="gdotaccent" unicode="&#x121;" horiz-adv-x="514" 
d="M225 590v97c0 11 5 16 16 16h66c11 0 16 -5 16 -16v-97c0 -11 -5 -16 -16 -16h-66c-11 0 -16 5 -16 16zM249 25h-45c-96 0 -149 56 -149 155v175c0 99 58 155 155 155h224c12 0 18 -6 18 -17v-495c0 -97 -59 -154 -156 -154h-188c-11 0 -17 5 -17 16v52c0 11 6 17 17 17
h173c49 0 73 25 73 74v76h-4c-17 -36 -50 -54 -101 -54zM354 195v220c0 7 -4 10 -11 10h-119c-47 0 -71 -25 -71 -74v-166c0 -49 24 -74 71 -74h48c55 0 82 28 82 84z" />
    <glyph glyph-name="uni0122" unicode="&#x122;" horiz-adv-x="543" 
d="M330 -48v-47c0 -21 -6 -41 -19 -60l-42 -74c-4 -6 -9 -9 -15 -9c-9 0 -14 5 -14 16v173c0 11 6 17 17 17h56c11 0 17 -5 17 -16zM325 0h-107c-99 0 -155 58 -155 155v333c0 99 56 155 155 155h107c99 0 155 -56 155 -155v-36c0 -12 -6 -18 -17 -18h-63
c-11 0 -17 6 -17 18v32c0 49 -24 74 -72 74h-79c-48 0 -72 -25 -72 -74v-325c0 -49 24 -74 72 -74h79c48 0 72 25 72 74v90c0 7 -4 10 -11 10h-81c-11 0 -17 6 -17 17v51c0 11 6 17 17 17h168c14 0 21 -7 21 -21v-168c0 -97 -58 -155 -155 -155z" />
    <glyph glyph-name="uni0123" unicode="&#x123;" horiz-adv-x="514" 
d="M249 25h-45c-96 0 -149 56 -149 155v175c0 99 58 155 155 155h224c12 0 18 -6 18 -17v-495c0 -97 -59 -154 -156 -154h-188c-11 0 -17 5 -17 16v52c0 11 6 17 17 17h173c49 0 73 25 73 74v76h-4c-17 -36 -50 -54 -101 -54zM354 195v220c0 7 -4 10 -11 10h-119
c-47 0 -71 -25 -71 -74v-166c0 -49 24 -74 71 -74h48c55 0 82 28 82 84zM230 589v47c0 21 6 41 18 61l43 74c3 5 8 8 14 8c9 0 14 -5 14 -15v-174c0 -11 -5 -17 -16 -17h-57c-11 0 -16 5 -16 16z" />
    <glyph glyph-name="hcircumflex" unicode="&#x125;" horiz-adv-x="517" 
d="M405 643h-45c-8 0 -13 3 -16 10l-40 77l-41 -77c-3 -7 -8 -10 -15 -10h-46c-9 0 -12 4 -7 12l63 106c5 7 12 11 21 11h49c9 0 16 -4 21 -11l63 -106c5 -8 2 -12 -7 -12zM143 0h-63c-11 0 -17 6 -17 17v669c0 11 6 17 17 17h63c11 0 17 -6 17 -17v-229h4
c16 35 50 53 101 53h44c97 0 151 -55 151 -155v-338c0 -11 -6 -17 -18 -17h-63c-11 0 -17 6 -17 17v334c0 49 -24 74 -73 74h-47c-55 0 -82 -28 -82 -85v-323c0 -11 -6 -17 -17 -17z" />
    <glyph glyph-name="Hbar" unicode="&#x126;" horiz-adv-x="577" 
d="M169 0h-63c-12 0 -18 6 -18 17v421c0 7 -3 11 -10 11h-38c-13 0 -17 4 -17 16v40c0 11 6 17 17 17h38c7 0 10 4 10 11v93c0 11 6 17 18 17h63c12 0 18 -6 18 -17v-93c0 -7 3 -11 10 -11h212c7 0 10 3 10 9v95c0 11 6 17 17 17h63c12 0 18 -6 18 -17v-93
c0 -7 4 -11 11 -11h38c11 0 17 -6 17 -17v-40c0 -11 -6 -16 -17 -16h-38c-7 0 -11 -4 -11 -11v-421c0 -11 -6 -17 -18 -17h-63c-11 0 -17 6 -17 17v241c0 7 -4 11 -11 11h-211c-7 0 -10 -4 -10 -11v-241c0 -11 -6 -17 -18 -17zM197 354h211c7 0 11 4 11 11v73
c0 7 -4 11 -11 11h-211c-7 0 -10 -4 -10 -11v-73c0 -7 3 -11 10 -11z" />
    <glyph glyph-name="hbar" unicode="&#x127;" horiz-adv-x="562" 
d="M179 0h-63c-12 0 -18 6 -18 17v515c0 7 -3 10 -10 10h-58c-11 0 -17 6 -17 17v40c0 11 6 17 17 17h58c7 0 10 4 10 11v59c0 11 6 17 18 17h63c12 0 18 -6 18 -17v-59c0 -7 3 -11 10 -11h142c11 0 17 -6 17 -17v-40c0 -11 -6 -17 -17 -17h-142c-7 0 -10 -3 -10 -10v-129h4
c13 35 52 55 99 55h46c97 0 155 -58 155 -155v-286c0 -11 -6 -17 -18 -17h-63c-11 0 -17 6 -17 17v281c0 49 -24 74 -72 74h-53c-54 0 -81 -28 -81 -84v-271c0 -11 -6 -17 -18 -17z" />
    <glyph glyph-name="Itilde" unicode="&#x128;" horiz-adv-x="252" 
d="M175 626c0 11 -6 17 -17 17h-63c-11 0 -17 -6 -17 -17v-609c0 -11 6 -17 17 -17h63c11 0 17 6 17 17v609zM254 750c0 -41 -22 -58 -67 -58c-59 0 -71 5 -87 27c-23 34 -25 33 -25 9v-26c0 -9 -3 -9 -13 -9h-47c-9 0 -13 0 -13 9v29c0 42 21 59 67 59c43 0 68 -11 85 -38
c20 -32 25 -27 25 2v24c0 7 3 9 13 9h49c10 0 13 -2 13 -9v-28z" />
    <glyph glyph-name="itilde" unicode="&#x129;" horiz-adv-x="233" 
d="M68 17c0 -11 6 -17 17 -17h64c12 0 16 4 16 17v476c0 11 -6 17 -17 17h-64c-11 0 -16 -6 -16 -17v-476zM246 632c0 -41 -22 -58 -67 -58c-59 0 -71 5 -87 27c-23 34 -25 33 -25 9v-26c0 -9 -3 -9 -13 -9h-47c-9 0 -13 0 -13 9v29c0 42 21 59 67 59c43 0 68 -11 85 -38
c20 -32 25 -27 25 2v24c0 7 3 9 13 9h49c10 0 13 -2 13 -9v-28z" />
    <glyph glyph-name="Imacron" unicode="&#x12a;" horiz-adv-x="252" 
d="M226 740h-199c-11 0 -17 6 -17 17v35c0 11 6 17 17 17h199c11 0 17 -6 17 -17v-35c0 -11 -6 -17 -17 -17zM175 626v-609c0 -11 -6 -17 -17 -17h-63c-11 0 -17 6 -17 17v609c0 11 6 17 17 17h63c11 0 17 -6 17 -17z" />
    <glyph glyph-name="imacron" unicode="&#x12b;" horiz-adv-x="232" 
d="M216 605h-200c-11 0 -17 6 -17 17v34c0 11 6 17 17 17h200c11 0 16 -6 16 -17v-34c0 -11 -5 -17 -16 -17zM68 17v476c0 11 5 17 16 17h64c11 0 17 -6 17 -17v-476c0 -13 -4 -17 -16 -17h-64c-11 0 -17 6 -17 17z" />
    <glyph glyph-name="Ibreve" unicode="&#x12c;" horiz-adv-x="253" 
d="M17 813v11c0 8 4 12 12 12h38c9 0 13 -4 13 -12v-10c0 -41 12 -56 43 -56h7c33 0 45 16 45 56v10c0 8 4 12 12 12h37c8 0 12 -4 12 -12v-11c0 -71 -32 -106 -97 -106h-25c-65 0 -97 35 -97 106zM175 626v-609c0 -11 -6 -17 -17 -17h-63c-11 0 -17 6 -17 17v609
c0 11 6 17 17 17h63c11 0 17 -6 17 -17z" />
    <glyph glyph-name="ibreve" unicode="&#x12d;" horiz-adv-x="233" 
d="M68 17v476c0 11 5 17 16 17h64c11 0 17 -6 17 -17v-476c0 -13 -4 -17 -16 -17h-64c-11 0 -17 6 -17 17zM7 680v11c0 8 4 12 12 12h38c9 0 13 -4 13 -12v-10c0 -41 12 -56 43 -56h7c33 0 45 16 45 56v10c0 8 4 12 12 12h37c8 0 12 -4 12 -12v-11c0 -71 -32 -106 -97 -106
h-25c-65 0 -97 35 -97 106z" />
    <glyph glyph-name="Iogonek" unicode="&#x12e;" horiz-adv-x="253" 
d="M158 0h-6l-44 -62h41c19 0 24 -4 24 -17c0 -11 -10 -20 -29 -27s-39 -10 -58 -10c-37 0 -47 25 -30 49l45 67h-6c-11 0 -17 6 -17 17v609c0 11 6 17 17 17h63c11 0 17 -6 17 -17v-609c0 -11 -6 -17 -17 -17z" />
    <glyph glyph-name="iogonek" unicode="&#x12f;" horiz-adv-x="233" 
d="M84 702h65c11 0 16 -5 16 -16v-91c0 -11 -5 -17 -16 -17h-65c-11 0 -16 6 -16 17v91c0 11 5 16 16 16zM84 510h64c11 0 17 -6 17 -17v-476c0 -13 -4 -17 -16 -17h-12c-9 -11 -18 -25 -27 -41c-9 -17 -13 -25 -12 -25c20 0 34 1 42 3c15 1 21 -4 18 -15
c-1 -11 -10 -20 -29 -27s-36 -11 -53 -11c-32 0 -36 36 -19 59l34 57h-6c-11 0 -17 6 -17 17v476c0 11 5 17 16 17z" />
    <glyph glyph-name="Idot" unicode="&#x130;" horiz-adv-x="253" 
d="M175 626v-609c0 -11 -6 -17 -17 -17h-63c-11 0 -17 6 -17 17v609c0 11 6 17 17 17h63c11 0 17 -6 17 -17zM78 714v90c0 11 5 17 16 17h65c11 0 16 -5 16 -16v-91c0 -11 -5 -17 -16 -17h-65c-11 0 -16 6 -16 17z" />
    <glyph glyph-name="dotlessi" unicode="&#x131;" horiz-adv-x="239" 
d="M70 17v476c0 11 6 17 17 17h64c11 0 17 -6 17 -17v-476c0 -13 -4 -17 -16 -17h-65c-11 0 -17 6 -17 17z" />
    <glyph glyph-name="IJ" unicode="&#x132;" horiz-adv-x="741" 
d="M593 643h63c11 0 17 -5 17 -16v-472c0 -97 -58 -155 -155 -155h-100c-99 0 -156 58 -156 155v90c0 11 6 17 17 17h64c11 0 17 -6 17 -17v-86c0 -49 24 -74 72 -74h71c48 0 72 25 72 74v467c0 11 6 17 18 17zM178 626v-609c0 -11 -6 -17 -17 -17h-64c-11 0 -17 6 -17 17
v609c0 11 6 17 17 17h64c11 0 17 -6 17 -17z" />
    <glyph glyph-name="ij" unicode="&#x133;" horiz-adv-x="463" 
d="M68 17v476c0 11 5 17 16 17h64c11 0 17 -6 17 -17v-476c0 -13 -4 -17 -16 -17h-64c-11 0 -17 6 -17 17zM68 595v91c0 11 5 16 16 16h65c11 0 16 -5 16 -16v-91c0 -11 -5 -17 -16 -17h-65c-11 0 -16 6 -16 17zM297 595v91c0 11 5 16 16 16h65c11 0 17 -5 17 -16v-91
c0 -11 -6 -17 -17 -17h-65c-11 0 -16 6 -16 17zM238 -156h-52c-11 0 -17 6 -17 17v51c0 11 6 17 17 17h25c63 0 86 24 86 87v477c0 11 6 17 18 17h63c11 0 17 -6 17 -17v-494c0 -97 -58 -155 -157 -155z" />
    <glyph glyph-name="Jcircumflex" unicode="&#x134;" horiz-adv-x="497" 
d="M365 643h63c11 0 17 -5 17 -16v-472c0 -97 -58 -155 -155 -155h-100c-99 0 -156 58 -156 155v90c0 11 6 17 18 17h63c11 0 17 -6 17 -17v-86c0 -49 24 -74 72 -74h71c48 0 72 25 72 74v467c0 11 6 17 18 17zM497 707h-46c-8 0 -13 3 -16 10l-40 78l-40 -78
c-3 -7 -9 -10 -16 -10h-46c-8 0 -11 5 -7 12l64 107c5 7 12 10 21 10h48c9 0 16 -3 21 -10l63 -107c5 -8 3 -12 -6 -12z" />
    <glyph glyph-name="jcircumflex" unicode="&#x135;" horiz-adv-x="230" 
d="M216 574h-46c-7 0 -13 3 -16 10l-40 78l-41 -78c-2 -7 -7 -10 -15 -10h-45c-10 0 -12 4 -7 12l62 107c5 7 12 10 22 10h48c10 0 17 -3 22 -10l62 -107c5 -8 3 -12 -6 -12zM9 -156h-53c-11 0 -17 6 -17 17v51c0 11 6 17 17 17h26c63 0 86 24 86 87v477c0 11 6 17 17 17h63
c11 0 17 -6 17 -17v-494c0 -97 -59 -155 -156 -155z" />
    <glyph glyph-name="uni0136" unicode="&#x136;" horiz-adv-x="548" 
d="M342 -48v-47c0 -21 -6 -41 -18 -60l-42 -74c-4 -6 -9 -9 -15 -9c-9 0 -14 5 -14 16v173c0 11 5 17 16 17h58c10 0 15 -5 15 -16zM153 0h-63c-11 0 -17 6 -17 17v609c0 11 6 17 17 17h63c11 0 17 -6 17 -17v-317h3c7 18 15 35 26 50l191 267c7 11 18 17 32 17h74
c14 0 16 -6 7 -19l-195 -265l220 -339c8 -13 4 -20 -12 -20h-56c-18 0 -31 6 -38 17l-173 271l-79 -93v-178c0 -11 -6 -17 -17 -17z" />
    <glyph glyph-name="uni0137" unicode="&#x137;" horiz-adv-x="456" 
d="M353 510h72c12 0 18 -8 10 -20l-141 -224v-4l152 -242c7 -11 2 -20 -13 -20h-65c-15 0 -27 6 -34 17l-141 231c-5 9 -5 18 0 27l131 219c6 11 16 16 29 16zM143 0h-63c-11 0 -17 6 -17 17v669c0 11 6 17 17 17h63c11 0 17 -6 17 -17v-669c0 -11 -6 -17 -17 -17zM292 -48
v-47c0 -21 -6 -41 -18 -60l-42 -74c-5 -6 -10 -9 -15 -9c-9 0 -14 5 -14 16v173c0 11 5 17 16 17h58c10 0 15 -5 15 -16z" />
    <glyph glyph-name="Lacute" unicode="&#x139;" horiz-adv-x="450" 
d="M167 836h78c12 0 16 -8 8 -17l-85 -100c-5 -8 -13 -12 -22 -12h-48c-11 0 -14 6 -9 17l52 96c5 11 14 16 26 16zM414 0h-324c-11 0 -17 6 -17 17v609c0 11 6 17 17 17h63c11 0 17 -6 17 -17v-529c0 -7 4 -10 12 -10h232c11 0 17 -6 17 -18v-52c0 -11 -6 -17 -17 -17z" />
    <glyph glyph-name="lacute" unicode="&#x13a;" horiz-adv-x="229" 
d="M159 881h78c11 0 16 -8 9 -17l-85 -101c-7 -7 -15 -11 -24 -11h-47c-11 0 -13 6 -8 17l52 96c5 11 13 16 25 16zM148 0h-63c-11 0 -17 6 -17 17v669c0 11 6 17 17 17h63c11 0 17 -6 17 -17v-669c0 -11 -6 -17 -17 -17z" />
    <glyph glyph-name="uni013B" unicode="&#x13b;" horiz-adv-x="450" 
d="M294 -48v-47c0 -19 -6 -39 -19 -60l-42 -74c-4 -6 -9 -9 -15 -9c-9 0 -14 5 -14 16v173c0 11 5 17 16 17h58c11 0 16 -5 16 -16zM414 0h-324c-11 0 -17 6 -17 17v609c0 11 6 17 17 17h63c11 0 17 -6 17 -17v-529c0 -7 4 -10 12 -10h232c11 0 17 -6 17 -18v-52
c0 -11 -6 -17 -17 -17z" />
    <glyph glyph-name="uni013C" unicode="&#x13c;" horiz-adv-x="233" 
d="M162 -48v-47c0 -21 -6 -41 -19 -60l-42 -74c-4 -6 -9 -9 -15 -9c-9 0 -13 5 -13 16v173c0 11 5 17 16 17h57c11 0 16 -5 16 -16zM148 0h-63c-11 0 -17 6 -17 17v669c0 11 6 17 17 17h63c11 0 17 -6 17 -17v-669c0 -11 -6 -17 -17 -17z" />
    <glyph glyph-name="Lcaron" unicode="&#x13d;" horiz-adv-x="450" 
d="M382 627v-45c0 -19 -6 -42 -18 -71l-43 -98c-3 -6 -8 -9 -15 -9c-9 0 -13 5 -13 16v206c0 11 5 17 16 17h57c11 0 16 -5 16 -16zM414 0h-324c-11 0 -17 6 -17 17v609c0 11 6 17 17 17h63c11 0 17 -6 17 -17v-529c0 -7 4 -10 12 -10h232c11 0 17 -6 17 -18v-52
c0 -11 -6 -17 -17 -17z" />
    <glyph glyph-name="lcaron" unicode="&#x13e;" horiz-adv-x="326" 
d="M317 687v-45c0 -21 -6 -45 -18 -71l-43 -98c-3 -6 -8 -9 -14 -9c-9 0 -14 5 -14 16v206c0 11 5 17 16 17h57c11 0 16 -5 16 -16zM148 0h-63c-11 0 -17 6 -17 17v669c0 11 6 17 17 17h63c11 0 17 -6 17 -17v-669c0 -11 -6 -17 -17 -17z" />
    <glyph glyph-name="Ldot" unicode="&#x13f;" horiz-adv-x="499" 
d="M420 0h-325c-11 0 -17 6 -17 17v609c0 11 6 17 17 17h64c11 0 17 -6 17 -17v-529c0 -7 4 -10 11 -10h233c11 0 17 -6 17 -18v-52c0 -11 -6 -17 -17 -17zM384 371v-104c0 -11 -5 -17 -16 -17h-68c-11 0 -17 6 -17 18v102c0 11 6 17 17 17h68c11 0 16 -5 16 -16z" />
    <glyph glyph-name="ldot" unicode="&#x140;" horiz-adv-x="367" 
d="M154 0h-64c-11 0 -17 6 -17 17v669c0 11 6 17 17 17h64c11 0 17 -6 17 -17v-669c0 -11 -6 -17 -17 -17zM340 371v-104c0 -11 -5 -17 -15 -17h-69c-11 0 -16 6 -16 18v102c0 11 5 17 16 17h69c10 0 15 -5 15 -16z" />
    <glyph glyph-name="Lslash" unicode="&#x141;" horiz-adv-x="512" 
d="M440 0h-325c-11 0 -17 6 -17 17v302l-67 -38c-9 -5 -17 -1 -17 10v51c0 10 6 18 17 25l67 37v222c0 11 6 17 17 17h64c11 0 17 -6 17 -17v-165l89 50c11 5 17 1 17 -10v-52c0 -10 -6 -19 -17 -26l-89 -50v-276c0 -7 4 -10 11 -10h233c11 0 16 -6 16 -18v-52
c0 -11 -5 -17 -16 -17z" />
    <glyph glyph-name="lslash" unicode="&#x142;" horiz-adv-x="312" 
d="M187 0h-63c-11 0 -17 6 -17 17v309l-72 -41c-11 -5 -17 -1 -17 11v53c0 10 6 18 17 24l72 40v273c0 11 6 17 17 17h63c12 0 18 -6 18 -17v-217l72 41c11 5 16 2 16 -10v-52c0 -11 -5 -20 -16 -25l-72 -41v-365c0 -11 -6 -17 -18 -17z" />
    <glyph glyph-name="Nacute" unicode="&#x143;" horiz-adv-x="583" 
d="M336 836h77c12 0 16 -8 9 -17l-85 -100c-5 -8 -12 -12 -22 -12h-49c-10 0 -13 6 -8 17l52 96c5 11 14 16 26 16zM152 0h-62c-11 0 -17 6 -17 17v609c0 11 6 17 17 17h56c11 0 18 -4 22 -11l242 -435h4v429c0 11 6 17 17 17h62c11 0 17 -6 17 -17v-609
c0 -11 -6 -17 -17 -17h-54c-11 0 -19 5 -26 16l-240 430h-4v-429c0 -11 -6 -17 -17 -17z" />
    <glyph glyph-name="nacute" unicode="&#x144;" horiz-adv-x="517" 
d="M309 703h79c11 0 15 -6 8 -17l-85 -100c-6 -8 -14 -12 -24 -12h-47c-11 0 -13 6 -8 17l52 96c5 11 14 16 25 16zM143 0h-63c-11 0 -17 6 -17 17v476c0 11 6 17 17 17h63c11 0 17 -6 17 -17v-36h4c16 35 50 53 101 53h44c97 0 151 -55 151 -155v-338c0 -11 -6 -17 -18 -17
h-63c-11 0 -17 6 -17 17v334c0 49 -24 74 -73 74h-47c-55 0 -82 -28 -82 -85v-323c0 -11 -6 -17 -17 -17z" />
    <glyph glyph-name="uni0145" unicode="&#x145;" horiz-adv-x="583" 
d="M342 -48v-47c0 -21 -6 -41 -18 -60l-43 -74c-3 -6 -8 -9 -14 -9c-9 0 -14 5 -14 16v173c0 11 5 17 16 17h57c11 0 16 -5 16 -16zM152 0h-62c-11 0 -17 6 -17 17v609c0 11 6 17 17 17h56c11 0 18 -4 22 -11l242 -435h4v429c0 11 6 17 17 17h62c11 0 17 -6 17 -17v-609
c0 -11 -6 -17 -17 -17h-54c-11 0 -19 5 -26 16l-240 430h-4v-429c0 -11 -6 -17 -17 -17z" />
    <glyph glyph-name="uni0146" unicode="&#x146;" horiz-adv-x="515" 
d="M306 -48v-47c0 -21 -6 -41 -19 -60l-41 -74c-5 -6 -10 -9 -15 -9c-9 0 -14 5 -14 16v173c0 11 5 17 16 17h57c11 0 16 -5 16 -16zM143 0h-63c-11 0 -17 6 -17 17v476c0 11 6 17 17 17h63c11 0 17 -6 17 -17v-36h4c16 35 50 53 101 53h44c97 0 151 -55 151 -155v-338
c0 -11 -6 -17 -18 -17h-63c-11 0 -17 6 -17 17v334c0 49 -24 74 -73 74h-47c-55 0 -82 -28 -82 -85v-323c0 -11 -6 -17 -17 -17z" />
    <glyph glyph-name="Ncaron" unicode="&#x147;" horiz-adv-x="583" 
d="M152 0h-62c-11 0 -17 6 -17 17v609c0 11 6 17 17 17h56c11 0 18 -4 22 -11l242 -435h4v429c0 11 6 17 17 17h62c11 0 17 -6 17 -17v-609c0 -11 -6 -17 -17 -17h-54c-11 0 -19 5 -26 16l-240 430h-4v-429c0 -11 -6 -17 -17 -17zM322 707h-48c-10 0 -17 3 -22 10l-63 107
c-4 5 -1 12 7 12h45c8 0 13 -3 16 -10l40 -78l41 78c3 7 8 10 15 10h47c8 0 10 -7 6 -12l-63 -107c-5 -7 -12 -10 -21 -10z" />
    <glyph glyph-name="ncaron" unicode="&#x148;" horiz-adv-x="517" 
d="M285 574h-48c-10 0 -17 3 -22 10l-62 107c-5 8 -3 12 7 12h45c8 0 13 -3 16 -10l40 -78l40 78c3 7 9 10 16 10h46c9 0 11 -4 6 -12l-62 -107c-5 -7 -12 -10 -22 -10zM143 0h-63c-11 0 -17 6 -17 17v476c0 11 6 17 17 17h63c11 0 17 -6 17 -17v-36h4c16 35 50 53 101 53
h44c97 0 151 -55 151 -155v-338c0 -11 -6 -17 -18 -17h-63c-11 0 -17 6 -17 17v334c0 49 -24 74 -73 74h-47c-55 0 -82 -28 -82 -85v-323c0 -11 -6 -17 -17 -17z" />
    <glyph glyph-name="Eng" unicode="&#x14a;" horiz-adv-x="562" 
d="M360 -160h-53c-11 0 -17 6 -17 17v51c0 11 6 17 17 17h25c61 0 85 24 85 87v4c-13 23 -52 94 -116 211c-64 118 -104 191 -121 219h-4v-429c0 -11 -6 -17 -17 -17h-64c-11 0 -17 6 -17 17v609c0 11 6 17 17 17h58c10 0 17 -4 21 -11l240 -435h4v429c0 11 6 17 17 17h64
c11 0 17 -6 17 -17v-631c0 -97 -59 -155 -156 -155z" />
    <glyph glyph-name="eng" unicode="&#x14b;" horiz-adv-x="517" 
d="M303 -160h-52c-11 0 -17 6 -17 17v51c0 11 6 17 17 17h25c63 0 86 24 86 87v339c0 49 -24 74 -73 74h-47c-55 0 -82 -28 -82 -85v-323c0 -11 -6 -17 -17 -17h-63c-11 0 -17 6 -17 17v476c0 11 6 17 17 17h63c11 0 17 -6 17 -17v-36h4c16 35 50 53 101 53h39
c97 0 156 -56 156 -155v-360c0 -97 -60 -155 -157 -155z" />
    <glyph glyph-name="Omacron" unicode="&#x14c;" horiz-adv-x="552" 
d="M376 740h-200c-11 0 -17 6 -17 17v35c0 11 6 17 17 17h200c11 0 17 -6 17 -17v-35c0 -11 -6 -17 -17 -17zM232 85h87c49 0 73 25 73 74v325c0 49 -24 74 -73 74h-87c-48 0 -72 -25 -72 -74v-325c0 -49 24 -74 72 -74zM334 0h-116c-99 0 -155 58 -155 155v333
c0 99 56 155 155 155h116c99 0 156 -56 156 -155v-333c0 -97 -57 -155 -156 -155z" />
    <glyph glyph-name="omacron" unicode="&#x14d;" horiz-adv-x="504" 
d="M352 605h-200c-11 0 -17 6 -17 17v34c0 11 6 17 17 17h200c11 0 17 -6 17 -17v-34c0 -11 -6 -17 -17 -17zM296 0h-88c-99 0 -155 58 -155 155v200c0 99 56 155 155 155h88c97 0 156 -56 156 -155v-200c0 -97 -59 -155 -156 -155zM222 85h61c48 0 72 24 72 73v194
c0 49 -24 73 -72 73h-61c-51 0 -72 -22 -72 -73v-194c0 -51 21 -73 72 -73z" />
    <glyph glyph-name="Obreve" unicode="&#x14e;" horiz-adv-x="552" 
d="M167 813v11c0 8 4 12 12 12h38c8 0 12 -4 12 -12v-10c0 -40 13 -56 44 -56h6c33 0 46 16 46 56v10c0 8 4 12 12 12h37c8 0 12 -4 12 -12v-11c0 -71 -32 -106 -97 -106h-25c-65 0 -97 35 -97 106zM232 85h87c49 0 73 25 73 74v325c0 49 -24 74 -73 74h-87
c-48 0 -72 -25 -72 -74v-325c0 -49 24 -74 72 -74zM334 0h-116c-99 0 -155 58 -155 155v333c0 99 56 155 155 155h116c99 0 156 -56 156 -155v-333c0 -97 -57 -155 -156 -155z" />
    <glyph glyph-name="obreve" unicode="&#x14f;" horiz-adv-x="504" 
d="M222 85h61c48 0 72 24 72 73v194c0 49 -24 73 -72 73h-61c-51 0 -72 -22 -72 -73v-194c0 -51 21 -73 72 -73zM296 0h-88c-99 0 -155 58 -155 155v200c0 99 56 155 155 155h88c97 0 156 -56 156 -155v-200c0 -97 -59 -155 -156 -155zM143 680v11c0 8 4 12 12 12h38
c8 0 12 -4 12 -12v-10c0 -41 12 -56 44 -56h7c32 0 45 16 45 56v10c0 8 4 12 12 12h36c9 0 13 -4 13 -12v-11c0 -71 -32 -106 -97 -106h-26c-61 0 -96 37 -96 106z" />
    <glyph glyph-name="Ohungarumlaut" unicode="&#x150;" horiz-adv-x="552" 
d="M251 836h52c13 0 16 -6 9 -17l-75 -100c-6 -8 -13 -12 -22 -12h-32c-11 0 -14 6 -8 17l51 96c6 11 14 16 25 16zM393 836h52c13 0 15 -6 8 -17l-74 -100c-7 -8 -15 -12 -23 -12h-31c-11 0 -14 6 -8 17l51 96c5 11 13 16 25 16zM232 85h87c49 0 73 25 73 74v325
c0 49 -24 74 -73 74h-87c-48 0 -72 -25 -72 -74v-325c0 -49 24 -74 72 -74zM334 0h-116c-99 0 -155 58 -155 155v333c0 99 56 155 155 155h116c99 0 156 -56 156 -155v-333c0 -97 -57 -155 -156 -155z" />
    <glyph glyph-name="ohungarumlaut" unicode="&#x151;" horiz-adv-x="504" 
d="M230 703h52c13 0 15 -6 8 -17l-75 -100c-5 -8 -12 -12 -21 -12h-32c-11 0 -13 6 -8 17l51 96c5 11 13 16 25 16zM372 703h51c13 0 16 -6 9 -17l-75 -100c-6 -8 -13 -12 -22 -12h-31c-12 0 -15 6 -8 17l51 96c5 11 13 16 25 16zM296 0h-88c-99 0 -155 58 -155 155v200
c0 99 56 155 155 155h88c97 0 156 -56 156 -155v-200c0 -97 -59 -155 -156 -155zM222 85h61c48 0 72 24 72 73v194c0 49 -24 73 -72 73h-61c-51 0 -72 -22 -72 -73v-194c0 -51 21 -73 72 -73z" />
    <glyph glyph-name="OE" unicode="&#x152;" horiz-adv-x="779" 
d="M68 155v333c0 99 57 155 156 155h475c11 0 17 -6 17 -17v-51c0 -11 -6 -17 -17 -17h-223c-7 0 -10 -3 -10 -10v-169c0 -7 3 -10 10 -10h189c11 0 17 -6 17 -17v-51c0 -11 -6 -17 -17 -17h-189c-7 0 -10 -3 -10 -10v-178c0 -7 3 -11 10 -11h223c11 0 17 -6 17 -17v-51
c0 -11 -6 -17 -17 -17h-475c-99 0 -156 58 -156 155zM239 85h118c8 0 12 4 12 11v452c0 7 -4 10 -12 10h-118c-48 0 -72 -25 -72 -74v-325c0 -49 24 -74 72 -74z" />
    <glyph glyph-name="oe" unicode="&#x153;" horiz-adv-x="797" 
d="M284 0h-76c-99 0 -155 58 -155 155v200c0 99 56 155 155 155h71c59 0 103 -21 130 -62c21 41 62 62 123 62h59c97 0 156 -56 156 -155v-127c0 -12 -6 -18 -18 -18h-267c-7 0 -10 -3 -10 -10v-41c0 -49 24 -74 72 -74h202c11 0 16 -6 16 -17v-52c0 -12 -3 -16 -16 -16
h-200c-67 0 -103 21 -130 66c-16 -44 -53 -66 -112 -66zM462 278h176c7 0 11 3 11 10v63c0 49 -24 74 -72 74h-53c-48 0 -72 -25 -72 -74v-63c0 -7 3 -10 10 -10zM222 85h59c48 0 72 25 72 74v192c0 49 -24 74 -72 74h-59c-48 0 -72 -25 -72 -74v-192c0 -49 24 -74 72 -74z
" />
    <glyph glyph-name="Racute" unicode="&#x154;" horiz-adv-x="542" 
d="M295 836h78c12 0 16 -8 8 -17l-85 -100c-5 -8 -13 -12 -22 -12h-48c-11 0 -14 6 -9 17l52 96c5 11 14 16 26 16zM153 0h-63c-11 0 -17 6 -17 17v609c0 11 6 17 17 17h234c97 0 156 -59 156 -156v-84c0 -77 -32 -125 -95 -145v-4l111 -234c7 -13 3 -20 -13 -20h-62
c-16 0 -26 6 -31 17l-107 230h-101c-8 0 -12 -3 -12 -10v-220c0 -11 -6 -17 -17 -17zM181 327h127c49 0 74 24 74 73v84c0 49 -25 74 -74 74h-127c-7 0 -11 -3 -11 -10v-211c0 -7 4 -10 11 -10z" />
    <glyph glyph-name="racute" unicode="&#x155;" horiz-adv-x="335" 
d="M210 703h78c13 0 16 -6 9 -17l-85 -100c-6 -8 -14 -12 -23 -12h-48c-10 0 -13 6 -8 17l52 96c5 11 14 16 25 16zM143 0h-63c-11 0 -17 6 -17 17v476c0 11 6 17 17 17h63c11 0 17 -6 17 -17v-38h4c13 33 55 55 102 55h37c11 0 17 -6 17 -17v-52c0 -13 -6 -18 -17 -16h-60
c-55 0 -83 -30 -83 -91v-317c0 -11 -6 -17 -17 -17z" />
    <glyph glyph-name="uni0156" unicode="&#x156;" horiz-adv-x="542" 
d="M325 -48v-47c0 -21 -6 -41 -19 -60l-42 -74c-4 -6 -9 -9 -15 -9c-9 0 -14 5 -14 16v173c0 11 6 17 17 17h56c11 0 17 -5 17 -16zM153 0h-63c-11 0 -17 6 -17 17v609c0 11 6 17 17 17h234c97 0 156 -59 156 -156v-84c0 -77 -32 -125 -95 -145v-4l111 -234
c7 -13 3 -20 -13 -20h-62c-16 0 -26 6 -31 17l-107 230h-101c-8 0 -12 -3 -12 -10v-220c0 -11 -6 -17 -17 -17zM181 327h127c49 0 74 24 74 73v84c0 49 -25 74 -74 74h-127c-7 0 -11 -3 -11 -10v-211c0 -7 4 -10 11 -10z" />
    <glyph glyph-name="uni0157" unicode="&#x157;" horiz-adv-x="335" 
d="M157 -48v-47c0 -21 -6 -41 -19 -60l-42 -74c-4 -6 -9 -9 -15 -9c-9 0 -13 5 -13 16v173c0 11 5 17 16 17h57c11 0 16 -5 16 -16zM143 0h-63c-11 0 -17 6 -17 17v476c0 11 6 17 17 17h63c11 0 17 -6 17 -17v-38h4c13 33 55 55 102 55h37c11 0 17 -6 17 -17v-52
c0 -13 -6 -18 -17 -16h-60c-55 0 -83 -30 -83 -91v-317c0 -11 -6 -17 -17 -17z" />
    <glyph glyph-name="Rcaron" unicode="&#x158;" horiz-adv-x="542" 
d="M284 707h-49c-9 0 -16 3 -21 10l-62 107c-5 8 -3 12 6 12h46c7 0 12 -3 15 -10l41 -78l40 78c3 7 8 10 16 10h46c8 0 10 -7 6 -12l-62 -107c-5 -7 -12 -10 -22 -10zM153 0h-63c-11 0 -17 6 -17 17v609c0 11 6 17 17 17h234c97 0 156 -59 156 -156v-84
c0 -77 -32 -125 -95 -145v-4l111 -234c7 -13 3 -20 -13 -20h-62c-16 0 -26 6 -31 17l-107 230h-101c-8 0 -12 -3 -12 -10v-220c0 -11 -6 -17 -17 -17zM181 327h127c49 0 74 24 74 73v84c0 49 -25 74 -74 74h-127c-7 0 -11 -3 -11 -10v-211c0 -7 4 -10 11 -10z" />
    <glyph glyph-name="rcaron" unicode="&#x159;" horiz-adv-x="335" 
d="M209 574h-49c-9 0 -16 3 -21 10l-63 107c-5 8 -3 12 7 12h46c7 0 12 -3 15 -10l41 -78l40 78c3 7 8 10 16 10h45c10 0 12 -4 7 -12l-63 -107c-5 -7 -12 -10 -21 -10zM143 0h-63c-11 0 -17 6 -17 17v476c0 11 6 17 17 17h63c11 0 17 -6 17 -17v-38h4c13 33 55 55 102 55
h37c11 0 17 -6 17 -17v-52c0 -13 -6 -18 -17 -16h-60c-55 0 -83 -30 -83 -91v-317c0 -11 -6 -17 -17 -17z" />
    <glyph glyph-name="Sacute" unicode="&#x15a;" horiz-adv-x="548" 
d="M61 156v26c0 11 6 17 17 17h64c11 0 17 -6 17 -17v-18c0 -56 23 -79 80 -79h69c57 0 81 24 81 83v23c-1 70 -82 73 -164 90c-29 7 -55 14 -79 23c-48 17 -85 66 -85 141v42c0 97 59 156 156 156h106c99 0 157 -59 157 -156v-22c0 -11 -6 -17 -17 -17h-64
c-11 0 -17 6 -17 17v13c0 57 -23 80 -80 80h-63c-57 0 -80 -23 -80 -86v-31c0 -30 22 -50 65 -61c95 -23 262 -17 262 -185v-39c0 -97 -59 -156 -156 -156h-112c-97 0 -157 59 -157 156zM303 836h78c12 0 16 -8 8 -17l-84 -100c-6 -8 -14 -12 -23 -12h-48c-11 0 -14 6 -9 17
l52 96c5 11 14 16 26 16z" />
    <glyph glyph-name="sacute" unicode="&#x15b;" horiz-adv-x="435" 
d="M239 703h78c11 0 15 -6 8 -17l-84 -100c-6 -8 -14 -12 -24 -12h-47c-11 0 -13 6 -8 17l52 96c5 11 13 16 25 16zM245 0h-184c-11 0 -17 6 -17 17v49c0 11 6 16 17 16h168c43 0 65 15 65 45v12c0 27 -16 47 -47 61l-109 52c-68 32 -97 66 -97 129c0 86 48 129 143 129h166
c11 0 16 -6 16 -17v-49c0 -11 -5 -17 -16 -17h-146c-40 0 -62 -15 -62 -38v-11c0 -21 17 -40 51 -56l110 -56c69 -31 91 -69 91 -136c0 -87 -50 -130 -149 -130z" />
    <glyph glyph-name="Scircumflex" unicode="&#x15c;" horiz-adv-x="548" 
d="M61 156v26c0 11 6 17 17 17h64c11 0 17 -6 17 -17v-18c0 -56 23 -79 80 -79h69c57 0 81 24 81 83v23c-1 70 -82 73 -164 90c-29 7 -55 14 -79 23c-48 17 -85 66 -85 141v42c0 97 59 156 156 156h106c99 0 157 -59 157 -156v-22c0 -11 -6 -17 -17 -17h-64
c-11 0 -17 6 -17 17v13c0 57 -23 80 -80 80h-63c-57 0 -80 -23 -80 -86v-31c0 -30 22 -50 65 -61c95 -23 262 -17 262 -185v-39c0 -97 -59 -156 -156 -156h-112c-97 0 -157 59 -157 156zM376 707h-46c-7 0 -13 3 -16 10l-40 78l-41 -78c-2 -7 -7 -10 -15 -10h-45
c-10 0 -12 4 -7 12l63 107c5 7 12 10 21 10h48c10 0 17 -3 22 -10l63 -107c5 -8 3 -12 -7 -12z" />
    <glyph glyph-name="scircumflex" unicode="&#x15d;" horiz-adv-x="435" 
d="M315 574h-46c-9 0 -14 3 -15 10l-41 78l-40 -78c-3 -7 -9 -10 -16 -10h-46c-8 0 -10 7 -6 12l62 107c5 7 12 10 22 10h48c10 0 17 -3 22 -10l62 -107c4 -5 2 -12 -6 -12zM245 0h-184c-11 0 -17 6 -17 17v49c0 11 6 16 17 16h168c43 0 65 15 65 45v12c0 27 -16 47 -47 61
l-109 52c-68 32 -97 66 -97 129c0 86 48 129 143 129h166c11 0 16 -6 16 -17v-49c0 -11 -5 -17 -16 -17h-146c-40 0 -62 -15 -62 -38v-11c0 -21 17 -40 51 -56l110 -56c69 -31 91 -69 91 -136c0 -87 -50 -130 -149 -130z" />
    <glyph glyph-name="uni015E" unicode="&#x15e;" horiz-adv-x="548" 
d="M159 472v-31c0 -30 22 -50 65 -61c95 -23 262 -17 262 -185v-39c0 -97 -59 -156 -156 -156h-1l-37 -38v-4c51 0 76 -23 76 -70v-15c0 -44 -30 -66 -90 -66h-37c-12 0 -15 3 -15 15v17c0 12 3 15 15 15h28c37 0 48 6 48 27v2c0 21 -9 27 -48 27h-20c-24 0 -35 30 -18 49
l36 41h-49c-97 0 -157 59 -157 156v26c0 11 6 17 17 17h64c11 0 17 -6 17 -17v-18c0 -56 23 -79 80 -79h69c57 0 81 24 81 83v23c-1 70 -82 73 -164 90c-29 7 -55 14 -79 23c-48 17 -85 66 -85 141v42c0 97 59 156 156 156h106c99 0 157 -59 157 -156v-22
c0 -11 -6 -17 -17 -17h-64c-11 0 -17 6 -17 17v13c0 57 -23 80 -80 80h-63c-57 0 -80 -23 -80 -86z" />
    <glyph glyph-name="uni015F" unicode="&#x15f;" horiz-adv-x="435" 
d="M225 -38v-4c50 0 75 -23 75 -70v-15c0 -44 -30 -66 -89 -66h-38c-13 0 -15 3 -15 15v17c0 12 3 15 15 15h28c37 0 48 7 48 27v2c0 21 -9 27 -48 27h-20c-24 0 -35 30 -18 49l36 41h-138c-11 0 -17 6 -17 17v49c0 11 6 16 17 16h168c43 0 65 15 65 45v12
c0 27 -16 47 -47 61l-109 52c-68 32 -97 66 -97 129c0 86 48 129 143 129h166c11 0 16 -6 16 -17v-49c0 -11 -5 -17 -16 -17h-146c-40 0 -62 -15 -62 -38v-11c0 -21 17 -40 51 -56l110 -56c69 -31 91 -69 91 -136c0 -82 -44 -125 -132 -130z" />
    <glyph glyph-name="Scaron" unicode="&#x160;" horiz-adv-x="548" 
d="M61 156v26c0 11 6 17 17 17h64c11 0 17 -6 17 -17v-18c0 -56 23 -79 80 -79h69c57 0 81 24 81 83v23c-1 70 -82 73 -164 90c-29 7 -55 14 -79 23c-48 17 -85 66 -85 141v42c0 97 59 156 156 156h106c99 0 157 -59 157 -156v-22c0 -11 -6 -17 -17 -17h-64
c-11 0 -17 6 -17 17v13c0 57 -23 80 -80 80h-63c-57 0 -80 -23 -80 -86v-31c0 -30 22 -50 65 -61c95 -23 262 -17 262 -185v-39c0 -97 -59 -156 -156 -156h-112c-97 0 -157 59 -157 156zM293 707h-48c-10 0 -17 3 -22 10l-63 107c-4 5 -1 12 7 12h46c7 0 13 -3 16 -10
l40 -78l40 78c3 7 8 10 16 10h46c8 0 10 -7 6 -12l-63 -107c-5 -7 -12 -10 -21 -10z" />
    <glyph glyph-name="scaron" unicode="&#x161;" horiz-adv-x="435" 
d="M237 574h-48c-10 0 -17 3 -22 10l-62 107c-5 8 -3 12 6 12h46c7 0 13 -3 16 -10l40 -78l41 78c1 7 6 10 15 10h46c9 0 11 -4 6 -12l-62 -107c-5 -7 -12 -10 -22 -10zM245 0h-184c-11 0 -17 6 -17 17v49c0 11 6 16 17 16h168c43 0 65 15 65 45v12c0 27 -16 47 -47 61
l-109 52c-68 32 -97 66 -97 129c0 86 48 129 143 129h166c11 0 16 -6 16 -17v-49c0 -11 -5 -17 -16 -17h-146c-40 0 -62 -15 -62 -38v-11c0 -21 17 -40 51 -56l110 -56c69 -31 91 -69 91 -136c0 -87 -50 -130 -149 -130z" />
    <glyph glyph-name="uni0162" unicode="&#x162;" horiz-adv-x="434" 
d="M262 -48v-47c0 -21 -6 -41 -18 -60l-43 -74c-3 -6 -8 -9 -15 -9c-9 0 -13 5 -13 16v173c0 11 5 17 16 17h57c11 0 16 -5 16 -16zM249 0h-63c-12 0 -18 6 -18 17v531c0 7 -3 10 -10 10h-126c-12 0 -18 6 -18 17v51c0 11 6 17 18 17h371c12 0 18 -6 18 -17v-51
c0 -11 -6 -17 -18 -17h-126c-7 0 -11 -3 -11 -10v-531c0 -11 -6 -17 -17 -17z" />
    <glyph glyph-name="uni0163" unicode="&#x163;" horiz-adv-x="351" 
d="M250 -48v-47c0 -21 -6 -41 -18 -60l-43 -74c-4 -6 -9 -9 -14 -9c-9 0 -14 5 -14 16v173c0 11 5 17 16 17h57c11 0 16 -5 16 -16zM78 425h-48c-13 0 -17 4 -17 16v52c0 11 6 17 17 17h48c7 0 10 3 10 10v90c0 11 6 17 18 17h63c11 0 17 -6 17 -17v-90c0 -7 4 -10 11 -10
h93c12 0 18 -6 18 -17v-52c0 -11 -6 -16 -18 -16h-93c-7 0 -11 -3 -11 -10v-257c0 -49 25 -73 75 -73h39c12 0 18 -6 18 -17v-52c0 -11 -6 -16 -18 -16h-54c-99 0 -158 56 -158 153v262c0 7 -3 10 -10 10z" />
    <glyph glyph-name="Tcaron" unicode="&#x164;" horiz-adv-x="434" 
d="M243 707h-48c-9 0 -16 3 -21 10l-64 107c-4 5 -1 12 8 12h45c7 0 12 -3 15 -10l41 -78l40 78c3 7 9 10 16 10h46c10 0 12 -4 7 -12l-64 -107c-5 -7 -12 -10 -21 -10zM249 0h-63c-12 0 -18 6 -18 17v531c0 7 -3 10 -10 10h-126c-12 0 -18 6 -18 17v51c0 11 6 17 18 17h371
c12 0 18 -6 18 -17v-51c0 -11 -6 -17 -18 -17h-126c-7 0 -11 -3 -11 -10v-531c0 -11 -6 -17 -17 -17z" />
    <glyph glyph-name="tcaron" unicode="&#x165;" horiz-adv-x="441" 
d="M437 627v-45c0 -15 -6 -39 -18 -71l-43 -98c-5 -6 -10 -9 -15 -9c-9 0 -13 5 -13 16v206c0 11 5 17 16 17h57c11 0 16 -5 16 -16zM78 425h-48c-13 0 -17 4 -17 16v52c0 11 6 17 17 17h48c7 0 10 3 10 10v90c0 11 6 17 18 17h63c11 0 17 -6 17 -17v-90c0 -7 4 -10 11 -10
h93c12 0 18 -6 18 -17v-52c0 -11 -6 -16 -18 -16h-93c-7 0 -11 -3 -11 -10v-257c0 -49 25 -73 75 -73h39c12 0 18 -6 18 -17v-52c0 -11 -6 -16 -18 -16h-54c-99 0 -158 56 -158 153v262c0 7 -3 10 -10 10z" />
    <glyph glyph-name="Tbar" unicode="&#x166;" horiz-adv-x="505" 
d="M266 0h-63c-11 0 -17 6 -17 17v273c0 7 -4 11 -11 11h-74c-11 0 -17 6 -17 17v39c0 12 6 18 17 18h74c7 0 11 3 11 10v163c0 7 -4 10 -11 10h-132c-11 0 -17 6 -17 17v51c0 11 6 17 17 17h383c11 0 17 -6 17 -17v-51c0 -11 -6 -17 -17 -17h-132c-7 0 -10 -3 -10 -10v-163
c0 -7 3 -10 10 -10h78c11 0 17 -6 17 -18v-39c0 -11 -6 -17 -17 -17h-78c-7 0 -10 -4 -10 -11v-273c0 -11 -6 -17 -18 -17z" />
    <glyph glyph-name="tbar" unicode="&#x167;" horiz-adv-x="361" 
d="M310 0h-59c-99 0 -159 56 -159 153v78c0 7 -3 11 -10 11h-52c-11 0 -17 6 -17 17v40c0 11 6 17 17 17h52c7 0 10 3 10 10v89c0 7 -3 10 -10 10h-52c-13 0 -17 4 -17 16v52c0 11 6 17 17 17h52c7 0 10 3 10 10v90c0 11 6 17 17 17h64c11 0 17 -6 17 -17v-90
c0 -7 4 -10 11 -10h99c11 0 17 -6 17 -17v-52c0 -12 -4 -16 -17 -16h-99c-7 0 -11 -3 -11 -10v-89c0 -7 4 -10 11 -10h99c11 0 17 -6 17 -17v-40c0 -11 -6 -17 -17 -17h-99c-7 0 -11 -4 -11 -11v-73c0 -49 25 -73 75 -73h45c11 0 17 -6 17 -17v-52c0 -12 -4 -16 -17 -16z
" />
    <glyph glyph-name="Utilde" unicode="&#x168;" horiz-adv-x="557" 
d="M409 643c-11 0 -17 -6 -17 -17v-467c0 -49 -24 -74 -73 -74h-82c-48 0 -72 25 -72 74v467c0 11 -6 17 -17 17h-63c-11 0 -17 -6 -17 -17v-471c0 -97 58 -155 155 -155h111c97 0 156 58 156 155v472c0 11 -6 16 -18 16h-63zM404 750c0 -41 -22 -58 -67 -58
c-59 0 -71 5 -87 27c-23 34 -25 33 -25 9v-26c0 -9 -3 -9 -13 -9h-47c-9 0 -13 0 -13 9v29c0 42 21 59 67 59c43 0 68 -11 85 -38c20 -32 25 -27 25 2v24c0 7 3 9 13 9h49c10 0 13 -2 13 -9v-28z" />
    <glyph glyph-name="utilde" unicode="&#x169;" horiz-adv-x="517" 
d="M252 0c51 0 85 18 101 53h4v-36c0 -11 6 -17 17 -17h63c12 0 18 6 18 17v476c0 11 -6 17 -18 17h-63c-11 0 -17 -6 -17 -17v-323c0 -57 -27 -85 -82 -85h-48c-48 0 -72 25 -72 74v334c0 11 -6 17 -17 17h-63c-11 0 -17 -6 -17 -17v-338c0 -99 53 -155 149 -155h45z
M386 632c0 -41 -22 -58 -67 -58c-59 0 -71 5 -87 27c-23 34 -25 33 -25 9v-26c0 -9 -3 -9 -13 -9h-47c-9 0 -13 0 -13 9v29c0 42 21 59 67 59c43 0 68 -11 85 -38c20 -32 25 -27 25 2v24c0 7 3 9 13 9h49c10 0 13 -2 13 -9v-28z" />
    <glyph glyph-name="Umacron" unicode="&#x16a;" horiz-adv-x="557" 
d="M378 740h-199c-11 0 -17 6 -17 17v35c0 11 6 17 17 17h199c11 0 17 -6 17 -17v-35c0 -11 -6 -17 -17 -17zM409 643h63c12 0 18 -5 18 -16v-472c0 -97 -59 -155 -156 -155h-111c-97 0 -155 58 -155 155v471c0 11 6 17 17 17h63c11 0 17 -6 17 -17v-467
c0 -49 24 -74 72 -74h82c49 0 73 25 73 74v467c0 11 6 17 17 17z" />
    <glyph glyph-name="umacron" unicode="&#x16b;" horiz-adv-x="517" 
d="M356 605h-200c-11 0 -17 6 -17 17v34c0 11 6 17 17 17h200c11 0 17 -6 17 -17v-34c0 -11 -6 -17 -17 -17zM252 0h-45c-96 0 -149 56 -149 155v338c0 11 6 17 17 17h63c11 0 17 -6 17 -17v-334c0 -49 24 -74 72 -74h48c55 0 82 28 82 85v323c0 11 6 17 17 17h63
c12 0 18 -6 18 -17v-476c0 -11 -6 -17 -18 -17h-63c-11 0 -17 6 -17 17v36h-4c-16 -35 -50 -53 -101 -53z" />
    <glyph glyph-name="Ubreve" unicode="&#x16c;" horiz-adv-x="557" 
d="M170 813v11c0 8 4 12 12 12h38c8 0 12 -4 12 -12v-10c0 -41 12 -56 44 -56h6c32 0 45 16 45 56v10c0 8 4 12 13 12h36c9 0 13 -4 13 -12v-11c0 -71 -32 -106 -97 -106h-26c-64 0 -96 35 -96 106zM409 643h63c12 0 18 -5 18 -16v-472c0 -97 -59 -155 -156 -155h-111
c-97 0 -155 58 -155 155v471c0 11 6 17 17 17h63c11 0 17 -6 17 -17v-467c0 -49 24 -74 72 -74h82c49 0 73 25 73 74v467c0 11 6 17 17 17z" />
    <glyph glyph-name="ubreve" unicode="&#x16d;" horiz-adv-x="517" 
d="M252 0h-45c-96 0 -149 56 -149 155v338c0 11 6 17 17 17h63c11 0 17 -6 17 -17v-334c0 -49 24 -74 72 -74h48c55 0 82 28 82 85v323c0 11 6 17 17 17h63c12 0 18 -6 18 -17v-476c0 -11 -6 -17 -18 -17h-63c-11 0 -17 6 -17 17v36h-4c-16 -35 -50 -53 -101 -53zM147 675
v12c0 8 4 12 12 12h38c8 0 12 -4 12 -12v-10c0 -40 12 -55 44 -55h6c33 0 46 15 46 55v10c0 7 4 11 12 11h37c8 0 12 -4 12 -11v-12c0 -70 -32 -105 -97 -105h-25c-65 0 -97 35 -97 105z" />
    <glyph glyph-name="Uring" unicode="&#x16e;" horiz-adv-x="557" 
d="M299 700h-43c-40 0 -60 21 -60 62v51c0 39 23 60 60 60h43c39 0 62 -23 62 -60v-51c0 -40 -23 -62 -62 -62zM270 740h15c21 0 32 11 32 34v24c0 23 -11 35 -32 35h-14c-21 0 -32 -12 -32 -35v-24c0 -23 10 -34 31 -34zM409 643h63c12 0 18 -5 18 -16v-472
c0 -97 -59 -155 -156 -155h-111c-97 0 -155 58 -155 155v471c0 11 6 17 17 17h63c11 0 17 -6 17 -17v-467c0 -49 24 -74 72 -74h82c49 0 73 25 73 74v467c0 11 6 17 17 17z" />
    <glyph glyph-name="uring" unicode="&#x16f;" horiz-adv-x="517" 
d="M252 0h-45c-96 0 -149 56 -149 155v338c0 11 6 17 17 17h63c11 0 17 -6 17 -17v-334c0 -49 24 -74 72 -74h48c55 0 82 28 82 85v323c0 11 6 17 17 17h63c12 0 18 -6 18 -17v-476c0 -11 -6 -17 -18 -17h-63c-11 0 -17 6 -17 17v36h-4c-16 -35 -50 -53 -101 -53zM204 657
v-33c0 -25 9 -33 34 -33h16c25 0 34 8 34 33v33c0 27 -9 33 -34 33h-16c-25 0 -34 -6 -34 -33zM166 612v60c0 35 19 52 57 52h45c39 0 58 -17 58 -52v-60c0 -37 -19 -55 -58 -55h-45c-38 0 -57 18 -57 55z" />
    <glyph glyph-name="Uhungarumlaut" unicode="&#x170;" horiz-adv-x="557" 
d="M251 836h52c12 0 14 -6 7 -17l-74 -100c-6 -8 -13 -12 -22 -12h-32c-10 0 -13 6 -8 17l51 96c6 11 15 16 26 16zM392 836h52c13 0 15 -6 8 -17l-74 -100c-6 -8 -13 -12 -22 -12h-32c-11 0 -13 6 -8 17l51 96c5 11 13 16 25 16zM409 643h63c12 0 18 -5 18 -16v-472
c0 -97 -59 -155 -156 -155h-111c-97 0 -155 58 -155 155v471c0 11 6 17 17 17h63c11 0 17 -6 17 -17v-467c0 -49 24 -74 72 -74h82c49 0 73 25 73 74v467c0 11 6 17 17 17z" />
    <glyph glyph-name="uhungarumlaut" unicode="&#x171;" horiz-adv-x="517" 
d="M243 703h52c12 0 14 -6 7 -17l-74 -100c-5 -8 -12 -12 -21 -12h-33c-11 0 -13 6 -7 17l50 96c6 11 15 16 26 16zM385 703h51c13 0 15 -6 8 -17l-74 -100c-6 -8 -13 -12 -22 -12h-32c-11 0 -13 6 -8 17l51 96c5 11 13 16 26 16zM252 0h-45c-96 0 -149 56 -149 155v338
c0 11 6 17 17 17h63c11 0 17 -6 17 -17v-334c0 -49 24 -74 72 -74h48c55 0 82 28 82 85v323c0 11 6 17 17 17h63c12 0 18 -6 18 -17v-476c0 -11 -6 -17 -18 -17h-63c-11 0 -17 6 -17 17v36h-4c-16 -35 -50 -53 -101 -53z" />
    <glyph glyph-name="Uogonek" unicode="&#x172;" horiz-adv-x="557" 
d="M409 643h63c12 0 18 -5 18 -16v-472c0 -97 -59 -155 -156 -155h-13l-43 -62h40c19 0 24 -4 24 -17c0 -11 -10 -20 -29 -27s-38 -10 -57 -10c-37 0 -49 25 -30 49l44 67h-47c-97 0 -155 58 -155 155v471c0 11 6 17 17 17h63c11 0 17 -6 17 -17v-467c0 -49 24 -74 72 -74
h82c49 0 73 25 73 74v467c0 11 6 17 17 17z" />
    <glyph glyph-name="uogonek" unicode="&#x173;" horiz-adv-x="502" 
d="M374 510h63c12 0 18 -6 18 -17v-476c0 -11 -6 -17 -18 -17h-44c-8 -12 -17 -26 -27 -42c-9 -16 -14 -24 -13 -24c20 0 34 1 42 3c17 1 22 -4 19 -15c-1 -11 -10 -20 -29 -27s-36 -11 -53 -11s-26 7 -29 21c-2 14 1 27 9 38l45 74v36h-4c-16 -35 -50 -53 -101 -53h-45
c-96 0 -149 56 -149 155v338c0 11 6 17 17 17h63c11 0 17 -6 17 -17v-334c0 -49 24 -74 72 -74h48c55 0 82 28 82 85v323c0 11 6 17 17 17z" />
    <glyph glyph-name="Wcircumflex" unicode="&#x174;" horiz-adv-x="803" 
d="M506 707h-46c-7 0 -12 3 -15 10l-41 78l-40 -78c-3 -7 -8 -10 -16 -10h-45c-10 0 -12 4 -7 12l63 107c5 7 12 10 21 10h49c9 0 16 -3 21 -10l62 -107c5 -8 3 -12 -6 -12zM267 0h-106c-12 0 -19 6 -21 17l-119 609c-1 11 4 17 17 17h77c13 0 19 -6 20 -17l81 -524h6
l118 526c1 10 7 15 18 15h84c11 0 17 -5 19 -15l119 -526h6l81 523c1 12 7 18 20 18h77c13 0 19 -6 17 -18l-119 -608c-2 -11 -9 -17 -20 -17h-106c-11 0 -18 6 -20 17l-113 506h-4l-113 -506c-2 -11 -8 -17 -19 -17z" />
    <glyph glyph-name="wcircumflex" unicode="&#x175;" horiz-adv-x="690" 
d="M447 574h-46c-8 0 -13 3 -16 10l-40 78l-40 -78c-3 -7 -9 -10 -16 -10h-46c-8 0 -11 7 -7 12l64 107c5 7 12 10 21 10h48c9 0 16 -3 21 -10l63 -107c5 -8 3 -12 -6 -12zM242 0h-86c-10 0 -17 6 -20 17l-115 476c-3 11 1 17 12 17h72c12 0 19 -6 20 -17l73 -378h7l88 378
c2 11 8 17 19 17h66c11 0 18 -6 21 -17l86 -378h7l73 378c2 11 9 17 20 17h72c11 0 15 -6 12 -17l-115 -476c-2 -11 -9 -17 -20 -17h-86c-11 0 -17 6 -20 17l-80 371h-7l-79 -371c-2 -11 -9 -17 -20 -17z" />
    <glyph glyph-name="Ycircumflex" unicode="&#x176;" horiz-adv-x="508" 
d="M353 707h-46c-7 0 -12 3 -15 10l-41 78l-40 -78c-3 -7 -8 -10 -16 -10h-45c-10 0 -12 4 -7 12l63 107c5 7 12 10 21 10h48c9 0 16 -3 21 -10l64 -107c5 -8 3 -12 -7 -12zM286 0h-64c-11 0 -17 6 -17 17v221l-187 387c-5 11 2 18 11 18h80c9 0 15 -6 20 -17l123 -275h6
l121 275c4 11 11 17 20 17h80c11 0 16 -7 11 -18l-187 -387v-221c0 -11 -6 -17 -17 -17z" />
    <glyph glyph-name="ycircumflex" unicode="&#x177;" horiz-adv-x="467" 
d="M342 574h-46c-7 0 -13 3 -16 10l-40 78l-41 -78c-2 -7 -7 -10 -15 -10h-45c-10 0 -12 4 -7 12l63 107c5 7 12 10 21 10h48c10 0 17 -3 22 -10l63 -107c5 -8 3 -12 -7 -12zM123 -162h-53c-11 0 -17 6 -17 17v51c0 12 6 18 17 18h23c41 0 69 8 84 24c16 16 29 42 40 79h-40
c-10 0 -17 6 -21 17l-133 449c-3 11 2 17 13 17h67c11 0 17 -6 20 -17l109 -392h4l109 392c2 11 9 17 20 17h64c13 0 18 -6 16 -18l-137 -481c-31 -112 -81 -173 -185 -173z" />
    <glyph glyph-name="Ydieresis" unicode="&#x178;" horiz-adv-x="508" 
d="M118 724v95c0 11 5 17 16 17h60c10 0 15 -5 15 -16v-96c0 -11 -5 -17 -15 -17h-60c-11 0 -16 6 -16 17zM298 724v95c0 11 5 17 15 17h61c10 0 15 -5 15 -16v-96c0 -11 -5 -17 -15 -17h-61c-10 0 -15 6 -15 17zM286 0h-64c-11 0 -17 6 -17 17v221l-187 387
c-5 11 2 18 11 18h80c9 0 15 -6 20 -17l123 -275h6l121 275c4 11 11 17 20 17h80c11 0 16 -7 11 -18l-187 -387v-221c0 -11 -6 -17 -17 -17z" />
    <glyph glyph-name="Zacute" unicode="&#x179;" horiz-adv-x="506" 
d="M311 836h79c11 0 15 -8 8 -17l-85 -100c-6 -8 -14 -12 -23 -12h-48c-11 0 -13 6 -8 17l52 96c5 11 14 16 25 16zM46 17v47c0 17 3 30 9 37l289 447v4h-265c-12 0 -18 6 -18 17v57c0 11 6 17 18 17h354c11 0 17 -6 17 -17v-66c0 -15 -4 -28 -11 -39l-278 -426v-4h282
c11 0 17 -5 17 -16v-56c0 -13 -6 -19 -17 -19h-380c-11 0 -17 6 -17 17z" />
    <glyph glyph-name="zacute" unicode="&#x17a;" horiz-adv-x="432" 
d="M275 703h78c11 0 16 -6 9 -17l-85 -100c-7 -8 -15 -12 -24 -12h-47c-11 0 -13 6 -8 17l52 96c5 11 13 16 25 16zM32 17v26c0 17 5 31 14 43l231 335v4h-219c-12 0 -18 6 -18 18v50c0 11 6 17 18 17h316c11 0 17 -6 17 -17v-46c0 -16 -4 -29 -12 -38l-219 -320v-4h223
c12 0 18 -6 18 -18v-50c0 -11 -6 -17 -18 -17h-333c-12 0 -18 6 -18 17z" />
    <glyph glyph-name="Zdotaccent" unicode="&#x17b;" horiz-adv-x="506" 
d="M227 727v95c0 11 5 17 16 17h65c11 0 17 -5 17 -16v-96c0 -11 -6 -17 -17 -17h-65c-11 0 -16 6 -16 17zM46 17v47c0 17 3 30 9 37l289 447v4h-265c-12 0 -18 6 -18 17v57c0 11 6 17 18 17h354c11 0 17 -6 17 -17v-66c0 -15 -4 -28 -11 -39l-278 -426v-4h282
c11 0 17 -5 17 -16v-56c0 -13 -6 -19 -17 -19h-380c-11 0 -17 6 -17 17z" />
    <glyph glyph-name="zdotaccent" unicode="&#x17c;" horiz-adv-x="432" 
d="M188 590v97c0 11 6 16 17 16h65c11 0 17 -5 17 -16v-97c0 -11 -6 -16 -17 -16h-65c-11 0 -17 5 -17 16zM32 17v26c0 17 5 31 14 43l231 335v4h-219c-12 0 -18 6 -18 18v50c0 11 6 17 18 17h316c11 0 17 -6 17 -17v-46c0 -16 -4 -29 -12 -38l-219 -320v-4h223
c12 0 18 -6 18 -18v-50c0 -11 -6 -17 -18 -17h-333c-12 0 -18 6 -18 17z" />
    <glyph glyph-name="Zcaron" unicode="&#x17d;" horiz-adv-x="506" 
d="M296 707h-49c-9 0 -16 3 -21 10l-62 107c-5 8 -3 12 7 12h45c8 0 13 -3 15 -10l41 -78l40 78c3 7 9 10 16 10h46c9 0 11 -4 6 -12l-63 -107c-5 -7 -12 -10 -21 -10zM46 17v47c0 17 3 30 9 37l289 447v4h-265c-12 0 -18 6 -18 17v57c0 11 6 17 18 17h354
c11 0 17 -6 17 -17v-66c0 -15 -4 -28 -11 -39l-278 -426v-4h282c11 0 17 -5 17 -16v-56c0 -13 -6 -19 -17 -19h-380c-11 0 -17 6 -17 17z" />
    <glyph glyph-name="zcaron" unicode="&#x17e;" horiz-adv-x="432" 
d="M260 574h-48c-9 0 -16 3 -21 10l-63 107c-5 8 -3 12 7 12h45c8 0 13 -3 15 -10l41 -78l40 78c3 7 9 10 16 10h46c10 0 12 -4 7 -12l-64 -107c-5 -7 -12 -10 -21 -10zM32 17v26c0 17 5 31 14 43l231 335v4h-219c-12 0 -18 6 -18 18v50c0 11 6 17 18 17h316
c11 0 17 -6 17 -17v-46c0 -16 -4 -29 -12 -38l-219 -320v-4h223c12 0 18 -6 18 -18v-50c0 -11 -6 -17 -18 -17h-333c-12 0 -18 6 -18 17z" />
    <glyph glyph-name="florin" unicode="&#x192;" horiz-adv-x="514" 
d="M84 -133h-50c-13 0 -20 5 -20 16v52c0 11 6 17 19 17h43c47 0 68 23 80 74l60 282c2 8 -1 12 -9 12h-65c-13 0 -20 6 -20 17v50c0 11 6 17 19 17h85c7 0 11 4 13 11l28 134c24 108 77 154 176 154h37c13 0 20 -5 20 -16v-52c0 -11 -6 -17 -18 -17h-37
c-48 0 -69 -23 -80 -74l-28 -129c-2 -7 1 -11 8 -11h82c13 0 20 -6 20 -17v-50c0 -11 -5 -17 -15 -17h-105c-7 0 -11 -4 -13 -11l-64 -300c-20 -95 -70 -142 -166 -142z" />
    <glyph glyph-name="AEacute" unicode="&#x1fc;" horiz-adv-x="778" 
d="M486 836h79c11 0 15 -8 8 -17l-84 -100c-6 -8 -14 -12 -23 -12h-48c-11 0 -13 6 -8 17l52 96c5 11 13 16 24 16zM86 0h-70c-13 0 -16 6 -11 18l301 608c5 11 14 17 27 17h376c11 0 17 -6 17 -17v-51c0 -11 -6 -17 -17 -17h-228c-7 0 -11 -3 -11 -10v-169
c0 -7 4 -10 11 -10h193c12 0 18 -6 18 -17v-51c0 -11 -6 -17 -18 -17h-193c-7 0 -11 -3 -11 -10v-178c0 -7 4 -11 11 -11h228c11 0 17 -6 17 -17v-51c0 -11 -6 -17 -17 -17h-320c-11 0 -17 6 -17 17v130h-198l-66 -130c-5 -11 -12 -17 -22 -17zM212 234h160v314h-4z" />
    <glyph glyph-name="aeacute" unicode="&#x1fd;" horiz-adv-x="770" 
d="M435 703h79c11 0 15 -6 8 -17l-84 -100c-7 -8 -15 -12 -24 -12h-47c-11 0 -14 6 -8 17l52 96c5 11 13 16 24 16zM440 189v-30c0 -49 24 -74 73 -74h190c12 0 18 -6 18 -17v-52c0 -11 -6 -16 -18 -16h-205c-57 0 -98 20 -123 61c-22 -41 -67 -61 -136 -61h-34
c-96 0 -155 55 -155 150v16c0 97 56 149 155 149h130c5 0 8 3 8 8v29c0 49 -24 73 -72 73h-160c-11 0 -17 6 -17 17v51c0 11 6 17 17 17h157c62 0 103 -20 124 -59c21 39 61 59 121 59h53c97 0 155 -56 155 -155v-138c0 -12 -6 -18 -18 -18h-251c-8 0 -12 -3 -12 -10z
M635 278v73c0 49 -24 74 -73 74h-46c-51 0 -76 -24 -76 -72v-75c0 -7 4 -11 11 -11h173c7 0 11 4 11 11zM343 164v70c0 7 -4 10 -11 10h-112c-55 0 -78 -23 -78 -74v-14c0 -52 23 -76 78 -76h41c55 0 82 28 82 84z" />
    <glyph glyph-name="Oslashacute" unicode="&#x1fe;" horiz-adv-x="572" 
d="M502 488v-333c0 -97 -58 -155 -155 -155h-122c-45 0 -81 12 -108 35l-20 -28c-7 -9 -16 -11 -26 -5l-17 13c-9 7 -11 16 -4 26l32 45c-8 20 -12 43 -12 69v333c0 99 56 155 155 155h122c45 0 82 -12 109 -35l19 27c7 10 16 12 26 5l17 -12c9 -7 11 -15 5 -25l-33 -46
c8 -20 12 -43 12 -69zM167 484v-279l230 321c-10 21 -31 32 -64 32h-94c-48 0 -72 -25 -72 -74zM405 159v279l-230 -321c11 -21 33 -32 64 -32h94c48 0 72 25 72 74zM300 707h-47c-12 0 -15 6 -8 17l51 96c5 11 14 16 25 16h79c11 0 15 -8 8 -17l-84 -100
c-7 -8 -15 -12 -24 -12z" />
    <glyph glyph-name="oslashacute" unicode="&#x1ff;" horiz-adv-x="520" 
d="M460 355v-200c0 -97 -57 -155 -156 -155h-87c-54 0 -95 17 -123 50l-31 -31c-9 -9 -17 -9 -24 0l-14 13c-9 8 -9 16 0 25l43 43c-5 16 -7 34 -7 55v200c0 99 57 155 156 155h87c55 0 96 -17 124 -50l30 30c7 9 15 10 24 1l14 -13c9 -8 9 -16 0 -25l-43 -43
c5 -16 7 -34 7 -55zM159 351v-160l197 197c-9 25 -31 37 -66 37h-59c-48 0 -72 -25 -72 -74zM362 159v160l-197 -198c9 -24 31 -36 66 -36h59c48 0 72 25 72 74zM283 574h-47c-11 0 -13 6 -8 17l52 96c5 11 14 16 25 16h78c12 0 16 -6 8 -17l-84 -100c-6 -8 -14 -12 -24 -12
z" />
    <glyph glyph-name="uni0218" unicode="&#x218;" horiz-adv-x="548" 
d="M61 156v26c0 11 6 17 17 17h64c11 0 17 -6 17 -17v-18c0 -56 23 -79 80 -79h69c57 0 81 24 81 83v23c-1 70 -82 73 -164 90c-29 7 -55 14 -79 23c-48 17 -85 66 -85 141v42c0 97 59 156 156 156h106c99 0 157 -59 157 -156v-22c0 -11 -6 -17 -17 -17h-64
c-11 0 -17 6 -17 17v13c0 57 -23 80 -80 80h-63c-57 0 -80 -23 -80 -86v-31c0 -30 22 -50 65 -61c95 -23 262 -17 262 -185v-39c0 -97 -59 -156 -156 -156h-112c-97 0 -157 59 -157 156zM323 -48v-47c0 -20 -6 -40 -17 -60l-43 -74c-4 -6 -9 -9 -15 -9c-9 0 -13 5 -13 16
v173c0 11 5 17 15 17h58c10 0 15 -5 15 -16z" />
    <glyph glyph-name="uni0219" unicode="&#x219;" horiz-adv-x="435" 
d="M268 -48v-47c0 -21 -6 -41 -18 -60l-43 -74c-4 -6 -9 -9 -14 -9c-9 0 -14 5 -14 16v173c0 11 5 17 16 17h57c11 0 16 -5 16 -16zM245 0h-184c-11 0 -17 6 -17 17v49c0 11 6 16 17 16h168c43 0 65 15 65 45v12c0 27 -16 47 -47 61l-109 52c-68 32 -97 66 -97 129
c0 86 48 129 143 129h166c11 0 16 -6 16 -17v-49c0 -11 -5 -17 -16 -17h-146c-40 0 -62 -15 -62 -38v-11c0 -21 17 -40 51 -56l110 -56c69 -31 91 -69 91 -136c0 -87 -50 -130 -149 -130z" />
    <glyph glyph-name="circumflex" unicode="&#x2c6;" horiz-adv-x="338" 
d="M271 574h-47c-7 0 -12 3 -15 10l-41 78l-40 -78c-3 -7 -8 -10 -16 -10h-45c-8 0 -11 7 -7 12l63 107c5 7 12 10 22 10h47c10 0 17 -3 22 -10l63 -107c4 -5 2 -12 -6 -12z" />
    <glyph glyph-name="caron" unicode="&#x2c7;" horiz-adv-x="338" 
d="M192 574h-47c-10 0 -17 3 -22 10l-63 107c-4 7 -1 12 7 12h45c8 0 13 -3 16 -10l40 -78l41 78c3 7 8 10 15 10h47c9 0 11 -4 6 -12l-63 -107c-5 -7 -12 -10 -22 -10z" />
    <glyph glyph-name="uni02C9" unicode="&#x2c9;" horiz-adv-x="350" 
d="M275 605h-199c-12 0 -18 6 -18 17v34c0 11 6 17 18 17h199c11 0 17 -6 17 -17v-34c0 -11 -6 -17 -17 -17z" />
    <glyph glyph-name="breve" unicode="&#x2d8;" horiz-adv-x="336" 
d="M58 680v11c0 8 4 12 12 12h38c8 0 12 -4 12 -12v-10c0 -40 13 -56 44 -56h7c32 0 45 16 45 56v10c0 8 4 12 12 12h37c8 0 12 -4 12 -12v-11c0 -71 -32 -106 -97 -106h-25c-65 0 -97 35 -97 106z" />
    <glyph glyph-name="dotaccent" unicode="&#x2d9;" horiz-adv-x="215" 
d="M58 590v97c0 11 6 16 17 16h65c11 0 16 -5 16 -16v-97c0 -11 -5 -16 -16 -16h-65c-11 0 -17 5 -17 16z" />
    <glyph glyph-name="ring" unicode="&#x2da;" horiz-adv-x="282" 
d="M90 657v-33c0 -25 10 -33 35 -33h15c25 0 34 8 34 33v33c0 27 -9 33 -34 33h-15c-25 0 -35 -8 -35 -33zM53 612v60c0 35 19 52 57 52h44c39 0 58 -17 58 -52v-60c0 -37 -19 -55 -58 -55h-44c-38 0 -57 18 -57 55z" />
    <glyph glyph-name="ogonek" unicode="&#x2db;" horiz-adv-x="243" 
d="M118 -66c20 0 34 1 42 3c15 1 22 -4 19 -15c-1 -11 -11 -20 -30 -27s-36 -11 -53 -11c-32 0 -36 36 -19 59l47 77l40 -10c-3 -4 -12 -19 -25 -39c-17 -25 -24 -37 -21 -37z" />
    <glyph glyph-name="tilde" unicode="&#x2dc;" horiz-adv-x="359" 
d="M58 652v38c0 7 3 11 10 11h30c6 0 9 -4 9 -11v-19c0 -46 20 -52 34 -36c4 5 11 15 20 30c19 32 33 40 60 40c45 0 67 -26 67 -77v-38c0 -8 -3 -12 -9 -12h-31c-6 0 -9 4 -9 12v18c3 48 -20 56 -42 26c-1 -2 -6 -9 -13 -22c-13 -25 -33 -37 -59 -37c-45 0 -67 26 -67 77z
" />
    <glyph glyph-name="hungarumlaut" unicode="&#x2dd;" horiz-adv-x="401" 
d="M138 703h52c12 0 15 -6 8 -17l-75 -100c-5 -8 -12 -12 -21 -12h-32c-11 0 -13 6 -8 17l51 96c5 11 13 16 25 16zM280 703h51c13 0 15 -6 8 -17l-75 -100c-5 -8 -12 -12 -21 -12h-32c-11 0 -14 6 -8 17l51 96c5 11 13 16 26 16z" />
    <glyph glyph-name="Mu" unicode="&#x39c;" horiz-adv-x="550" 
d="M271 0h-34c-32 0 -53 6 -62 18v-134c0 -11 -6 -17 -18 -17h-63c-11 0 -17 6 -17 17v609c0 11 6 17 17 17h63c12 0 18 -6 18 -17v-334c0 -49 24 -74 71 -74h48c55 0 82 28 82 85v323c0 11 6 17 17 17h63c12 0 18 -6 18 -17v-476c0 -11 -6 -17 -18 -17h-63
c-11 0 -17 6 -17 17v36h-4c-16 -35 -50 -53 -101 -53z" />
    <glyph glyph-name="Pi" unicode="&#x3a0;" horiz-adv-x="641" 
d="M220 0h-64c-11 0 -17 6 -17 17v531c0 5 -4 8 -11 8h-76c-12 0 -18 6 -18 18v52c0 11 6 17 18 17h538c11 0 17 -6 17 -17v-52c0 -12 -6 -18 -17 -18h-77c-7 0 -11 -3 -11 -10v-529c0 -11 -6 -17 -17 -17h-63c-12 0 -18 6 -18 17v529c0 7 -3 10 -10 10h-146
c-7 0 -11 -3 -11 -10v-529c0 -11 -6 -17 -17 -17z" />
    <glyph glyph-name="Sigma" unicode="&#x3a3;" horiz-adv-x="489" 
d="M63 575v51c0 11 6 17 17 17h337c11 0 17 -6 17 -17v-57c0 -12 -6 -18 -17 -18h-240v-4l142 -211c9 -13 9 -26 0 -39l-142 -202v-4h240c12 0 18 -6 18 -18v-56c0 -11 -6 -17 -18 -17h-337c-11 0 -16 6 -16 17v50c0 15 4 29 11 41l144 207v4l-145 216c-7 11 -11 25 -11 40z
" />
    <glyph glyph-name="uni0901" unicode="&#x901;" horiz-adv-x="0" 
d="M-53 694h-114c-77 0 -118 45 -118 126v7c0 18 7 27 22 27h39c13 0 20 -8 20 -25v-9c0 -36 14 -51 53 -51h83c37 0 52 15 52 51v9c0 17 7 25 22 25h37c15 0 22 -9 22 -27v-7c0 -84 -39 -126 -118 -126zM-71 896v-43c0 -13 -6 -19 -18 -19h-41c-11 0 -17 6 -17 19v43
c0 12 6 18 17 18h41c12 0 18 -6 18 -18z" />
    <glyph glyph-name="uni0902" unicode="&#x902;" horiz-adv-x="0" 
d="M-72 802v-59c0 -13 -6 -19 -18 -19h-63c-11 0 -17 6 -17 19v59c0 12 6 18 17 18h63c12 0 18 -6 18 -18z" />
    <glyph glyph-name="uni0903" unicode="&#x903;" horiz-adv-x="251" 
d="M175 428v-57c0 -15 -7 -23 -22 -23h-53c-15 0 -22 8 -22 23v57c0 15 7 22 22 22h53c15 0 22 -7 22 -22zM175 144v-56c0 -15 -7 -23 -22 -23h-53c-15 0 -22 8 -22 23v56c0 15 7 23 22 23h53c15 0 22 -8 22 -23z" />
    <glyph glyph-name="uni0905" unicode="&#x905;" horiz-adv-x="605" 
d="M478 623h131c13 0 20 -6 20 -18v-43c0 -13 -7 -19 -20 -19h-65c-7 0 -11 -4 -11 -12v-512c0 -13 -6 -19 -19 -19h-53c-13 0 -19 6 -19 19v186c0 8 -4 12 -11 12h-99v-21c0 -101 -59 -159 -162 -159h-114c-13 0 -20 6 -20 19v43c0 13 7 19 20 19h108c53 0 79 25 79 76v28
c0 51 -24 74 -79 74h-52c-13 0 -19 7 -19 20v42c0 13 6 20 19 20h52c53 0 79 25 79 75v14c0 52 -24 76 -79 76h-77c-13 0 -19 6 -19 19v43c0 12 6 18 19 18h88c105 0 157 -53 157 -159v-16c0 -54 -20 -90 -60 -109v-4c21 -7 36 -20 46 -39h113c7 0 11 4 11 12v277
c0 23 13 38 36 38z" />
    <glyph glyph-name="uni0906" unicode="&#x906;" horiz-adv-x="839" 
d="M477 623h367c13 0 19 -6 19 -18v-43c0 -13 -6 -19 -19 -19h-66c-7 0 -11 -4 -11 -12v-512c0 -13 -6 -19 -19 -19h-53c-13 0 -19 6 -19 19v512c0 8 -4 12 -11 12h-122c-7 0 -11 -4 -11 -12v-512c0 -13 -6 -19 -19 -19h-53c-13 0 -19 6 -19 19v186c0 8 -4 12 -11 12h-99
v-21c0 -101 -59 -159 -162 -159h-114c-13 0 -20 6 -20 19v43c0 13 7 19 20 19h108c53 0 79 25 79 76v28c0 51 -24 74 -79 74h-52c-13 0 -19 7 -19 20v42c0 13 6 20 19 20h52c53 0 79 25 79 75v14c0 52 -24 76 -79 76h-77c-13 0 -19 6 -19 19v43c0 12 6 18 19 18h88
c105 0 157 -53 157 -159v-16c0 -54 -20 -90 -60 -109v-4c21 -7 36 -20 46 -39h113c7 0 11 4 11 12v277c0 23 13 38 36 38z" />
    <glyph glyph-name="uni0907" unicode="&#x907;" horiz-adv-x="471" 
d="M281 212h-92c-87 0 -131 41 -131 122v15c0 77 48 117 131 117h103c7 0 11 4 11 12v53c0 8 -4 12 -11 12h-297c-13 0 -19 6 -19 18v44c0 12 6 18 19 18h481c13 0 19 -6 19 -18v-44c0 -12 -6 -18 -19 -18h-72c-7 0 -11 -4 -11 -12v-102c0 -29 -15 -43 -46 -43h-151
c-36 0 -49 -13 -49 -46v-8c0 -31 14 -42 49 -42h97c81 0 128 -38 128 -114v-47c0 -77 -48 -124 -128 -124h-76c-36 0 -59 10 -70 31h-4v-73c0 -13 -7 -19 -20 -19h-50c-13 0 -19 6 -19 19v188c0 13 6 19 19 19h50c13 0 20 -6 20 -19v-10c0 -37 20 -56 59 -56h79
c36 0 49 13 49 46v39c0 31 -14 42 -49 42z" />
    <glyph glyph-name="uni0908" unicode="&#x908;" horiz-adv-x="471" 
d="M312 712v-46c0 -35 10 -43 50 -43h114c13 0 19 -6 19 -18v-44c0 -12 -6 -18 -19 -18h-72c-7 0 -11 -4 -11 -11v-103c0 -29 -15 -43 -46 -43h-151c-36 0 -49 -13 -49 -46v-8c0 -31 14 -42 49 -42h97c81 0 128 -38 128 -114v-47c0 -77 -48 -124 -128 -124h-76
c-36 0 -59 10 -70 31h-4v-73c0 -13 -7 -19 -20 -19h-50c-13 0 -19 6 -19 19v188c0 13 6 19 19 19h50c13 0 20 -6 20 -19v-10c0 -37 20 -56 59 -56h79c36 0 49 13 49 46v39c0 31 -14 42 -49 42h-92c-87 0 -131 41 -131 122v15c0 77 48 117 131 117h103c7 0 11 4 11 12v54
c0 7 -4 11 -11 11h-297c-13 0 -19 6 -19 18v44c0 12 6 18 19 18h247v4c-14 7 -21 22 -21 46v42c0 97 64 154 157 154h59c13 0 20 -6 20 -19v-43c0 -13 -7 -19 -20 -19h-54c-47 0 -71 -25 -71 -76z" />
    <glyph glyph-name="uni0909" unicode="&#x909;" horiz-adv-x="465" 
d="M411 214v-50c0 -103 -57 -164 -161 -164h-52c-103 0 -164 61 -164 164v39c0 15 7 23 20 23h52c12 0 18 -8 18 -23v-39c0 -55 28 -83 84 -83h33c53 0 80 29 80 88v26c0 59 -23 82 -80 82h-42c-13 0 -20 7 -20 20v42c0 13 6 20 19 20h43c52 0 78 24 78 72v38
c0 49 -26 74 -77 74h-247c-13 0 -19 6 -19 19v43c0 12 6 18 19 18h474c13 0 20 -6 20 -18v-43c0 -13 -7 -19 -20 -19h-98v-4c25 -13 37 -37 37 -74v-42c0 -53 -20 -88 -61 -103v-4c43 -17 64 -51 64 -102z" />
    <glyph glyph-name="uni090A" unicode="&#x90a;" horiz-adv-x="657" 
d="M-5 623h667c13 0 19 -6 19 -18v-43c0 -13 -6 -19 -19 -19h-291v-4c25 -13 37 -37 37 -74v-42c0 -53 -20 -88 -61 -103v-4h155c80 0 132 -46 132 -131v-55c0 -84 -51 -126 -132 -126h-33c-13 0 -20 6 -20 19v43c0 13 7 19 20 19h10c48 0 66 19 66 67v16
c0 47 -18 66 -66 66h-69c1 -4 1 -11 1 -20v-46c0 -104 -57 -168 -161 -168h-52c-103 0 -164 61 -164 164v39c0 15 7 23 20 23h52c12 0 18 -8 18 -23v-39c0 -55 28 -83 84 -83h33c53 0 80 29 80 88v26c0 59 -23 82 -80 82h-42c-13 0 -20 7 -20 20v42c0 13 6 20 19 20h43
c52 0 78 24 78 72v38c0 49 -26 74 -77 74h-247c-13 0 -19 6 -19 19v43c0 12 6 18 19 18z" />
    <glyph glyph-name="uni090B" unicode="&#x90b;" horiz-adv-x="776" 
d="M-5 623h785c13 0 20 -6 20 -18v-43c0 -13 -7 -19 -20 -19h-337c-8 0 -12 -4 -12 -12v-207l118 93c12 9 23 13 34 13h108c13 0 19 -6 19 -19v-188c0 -15 -9 -23 -28 -23h-27c-35 0 -53 -16 -53 -48v-29c0 -31 19 -46 56 -46h43c16 0 24 -7 24 -22v-34
c0 -14 -9 -21 -26 -21h-51c-90 0 -135 38 -135 114v43c0 69 34 105 102 110c7 1 11 5 11 12v89l-195 -152v-197c0 -13 -6 -19 -19 -19h-52c-13 0 -19 6 -19 19v127l-170 -134c-11 -8 -21 -12 -31 -12h-71c-10 0 -15 5 -15 15c0 8 5 15 14 22l184 145l86 62v29
c0 52 -28 78 -84 78h-33c-54 0 -81 -26 -81 -77v-31c0 -13 -6 -19 -19 -19h-51c-13 0 -20 6 -20 19v36c0 99 59 155 160 155h26c48 0 82 -15 101 -44h4v141c0 8 -4 12 -12 12h-334c-13 0 -19 6 -19 19v43c0 12 6 18 19 18z" />
    <glyph glyph-name="uni090C" unicode="&#x90c;" horiz-adv-x="654" 
d="M666 -103l20 -29c8 -11 12 -23 -11 -39c-34 -28 -77 -42 -130 -42c-105 0 -163 50 -163 149c0 81 36 128 109 140v208c0 55 -19 74 -66 74c-45 0 -65 -20 -65 -77v-66c0 -13 -6 -19 -19 -19h-49c-13 0 -19 6 -19 19v72c0 52 -21 73 -65 73c-45 0 -67 -27 -67 -82v-85
c0 -55 27 -82 82 -82h22c13 0 20 -6 20 -18v-44c0 -13 -7 -19 -20 -19h-34c-101 0 -160 56 -160 159v94c0 103 58 160 150 160c59 0 96 -20 112 -61h4c14 40 47 60 98 60c35 0 59 -10 72 -31h4v120c0 7 -3 11 -10 12h-486c-13 0 -19 6 -19 19v43c0 12 6 18 19 18h663
c13 0 20 -6 20 -18v-43c0 -13 -7 -19 -20 -19h-65c-7 0 -11 -4 -11 -12v-509c0 -13 -7 -20 -20 -20h-35c-44 0 -59 -21 -59 -69c0 -24 6 -41 18 -51c12 -11 33 -16 63 -16s59 12 87 35c9 8 22 9 30 -4z" />
    <glyph glyph-name="uni090D" unicode="&#x90d;" horiz-adv-x="519" 
d="M-5 623h532c13 0 19 -6 19 -19v-43c0 -12 -6 -18 -19 -18h-49c-8 0 -12 -4 -12 -12v-109c0 -103 -57 -154 -157 -154h-37c-13 0 -19 6 -19 19v42c0 13 6 19 19 19h25c53 0 80 18 80 74v109c0 8 -4 12 -12 12h-192c-7 0 -11 -4 -11 -12v-321c0 -65 36 -98 108 -98h145
c13 0 19 -6 19 -19v-44c0 -13 -6 -19 -19 -20h-163c-112 0 -180 74 -180 178v324c0 8 -4 12 -12 12h-65c-13 0 -19 6 -19 18v43c0 13 6 19 19 19zM312 708h-93c-77 0 -119 45 -119 126v8c0 17 8 26 23 26h39c13 0 20 -8 20 -24v-9c0 -37 15 -52 52 -52h63c37 0 52 15 52 52
v9c0 16 7 24 21 24h38c15 0 23 -9 23 -26v-8c0 -81 -42 -126 -119 -126z" />
    <glyph glyph-name="uni090E" unicode="&#x90e;" horiz-adv-x="521" 
d="M485 623h42c13 0 19 -6 19 -19v-43c0 -12 -6 -18 -19 -18h-49c-8 0 -12 -4 -12 -12v-109c0 -103 -57 -154 -157 -154h-37c-13 0 -19 6 -19 19v42c0 13 6 19 19 19h25c53 0 80 18 80 74v109c0 8 -4 12 -12 12h-192c-7 0 -11 -4 -11 -12v-321c0 -65 36 -98 108 -98h145
c13 0 19 -6 19 -19v-44c0 -13 -6 -19 -19 -20h-163c-112 0 -180 74 -180 178v324c0 8 -4 12 -12 12h-65c-13 0 -19 6 -19 18v43c0 13 6 19 19 19h377c15 0 15 21 0 32c-4 3 -41 23 -112 59c-59 29 -88 70 -88 125v27c0 13 7 19 20 19h50c13 0 19 -6 19 -19v-20
c0 -37 17 -51 56 -70l57 -28c71 -33 100 -56 100 -113c0 -8 4 -12 11 -12z" />
    <glyph glyph-name="uni090F" unicode="&#x90f;" horiz-adv-x="522" 
d="M-5 623h532c13 0 19 -6 19 -19v-43c0 -12 -6 -18 -19 -18h-49c-8 0 -12 -4 -12 -12v-109c0 -103 -57 -154 -157 -154h-37c-13 0 -19 6 -19 19v42c0 13 6 19 19 19h25c53 0 80 18 80 74v109c0 8 -4 12 -12 12h-192c-7 0 -11 -4 -11 -12v-321c0 -65 36 -98 108 -98h145
c13 0 19 -6 19 -19v-44c0 -13 -6 -19 -19 -20h-163c-112 0 -180 74 -180 178v324c0 8 -4 12 -12 12h-65c-13 0 -19 6 -19 18v43c0 13 6 19 19 19z" />
    <glyph glyph-name="uni0910" unicode="&#x910;" horiz-adv-x="522" 
d="M469 623h58c13 0 19 -6 19 -19v-43c0 -12 -6 -18 -19 -18h-49c-8 0 -12 -4 -12 -12v-109c0 -103 -57 -154 -157 -154h-37c-13 0 -19 6 -19 19v42c0 13 6 19 19 19h25c53 0 80 18 80 74v109c0 8 -4 12 -12 12h-192c-7 0 -11 -4 -11 -12v-321c0 -65 36 -98 108 -98h145
c13 0 19 -6 19 -19v-44c0 -13 -6 -19 -19 -20h-163c-112 0 -180 74 -180 178v324c0 8 -4 12 -12 12h-65c-13 0 -19 6 -19 18v43c0 13 6 19 19 19h382c-41 43 -81 93 -119 149l-56 83c-3 5 -4 10 -4 15c0 10 5 15 15 15h61c12 0 21 -5 26 -15l143 -230c7 -11 16 -17 26 -17z
" />
    <glyph glyph-name="uni0911" unicode="&#x911;" horiz-adv-x="840" 
d="M478 623h366c13 0 20 -6 20 -18v-43c0 -13 -7 -19 -20 -19h-65c-7 0 -11 -4 -11 -12v-512c0 -13 -6 -19 -19 -19h-53c-13 0 -19 6 -19 19v512c0 8 -4 12 -11 12h-122c-7 0 -11 -4 -11 -12v-512c0 -13 -6 -19 -19 -19h-53c-13 0 -19 6 -19 19v186c0 8 -4 12 -11 12h-99
v-21c0 -101 -59 -159 -162 -159h-114c-13 0 -20 6 -20 19v43c0 13 7 19 20 19h108c53 0 79 25 79 76v28c0 51 -24 74 -79 74h-52c-13 0 -19 7 -19 20v42c0 13 6 20 19 20h52c53 0 79 25 79 75v14c0 52 -24 76 -79 76h-77c-13 0 -19 6 -19 19v43c0 12 6 18 19 18h88
c105 0 157 -53 157 -159v-16c0 -54 -20 -90 -60 -109v-4c21 -7 36 -20 46 -39h113c7 0 11 4 11 12v277c0 23 13 38 36 38zM661 694h-94c-77 0 -118 45 -118 126v7c0 18 7 27 22 27h39c14 0 21 -8 21 -25v-9c0 -36 13 -51 52 -51h62c37 0 52 15 52 51v9c0 17 7 25 22 25h37
c15 0 22 -9 22 -27v-4c0 -86 -39 -129 -117 -129z" />
    <glyph glyph-name="uni0912" unicode="&#x912;" horiz-adv-x="834" 
d="M781 623h58c13 0 19 -6 19 -18v-43c0 -13 -6 -19 -19 -19h-66c-7 0 -11 -4 -11 -12v-512c0 -13 -6 -19 -19 -19h-53c-13 0 -19 6 -19 19v512c0 8 -4 12 -11 12h-116c-7 0 -11 -4 -11 -12v-512c0 -13 -6 -19 -19 -19h-53c-13 0 -19 6 -19 19v186c0 8 -4 12 -11 12h-99v-21
c0 -101 -59 -159 -162 -159h-114c-13 0 -20 6 -20 19v43c0 13 7 19 20 19h108c53 0 79 25 79 76v28c0 51 -24 74 -79 74h-52c-13 0 -19 7 -19 20v42c0 13 6 20 19 20h52c53 0 79 25 79 75v14c0 52 -24 76 -79 76h-77c-13 0 -19 6 -19 19v43c0 12 6 18 19 18h88
c105 0 157 -53 157 -159v-16c0 -54 -20 -90 -60 -109v-4c21 -7 36 -20 46 -39h113c7 0 11 4 11 12v277c0 23 13 38 36 38h190c15 0 15 21 0 32c-6 4 -43 24 -112 59c-59 29 -88 70 -88 125v27c0 13 7 19 20 19h50c13 0 19 -6 19 -19v-20c0 -37 17 -51 56 -70l57 -28
c71 -33 100 -56 100 -113c0 -8 4 -12 11 -12z" />
    <glyph glyph-name="uni0913" unicode="&#x913;" horiz-adv-x="840" 
d="M773 623h71c13 0 20 -6 20 -18v-43c0 -13 -7 -19 -20 -19h-65c-7 0 -11 -4 -11 -12v-512c0 -13 -6 -19 -19 -19h-53c-13 0 -19 6 -19 19v512c0 8 -4 12 -11 12h-122c-7 0 -11 -4 -11 -12v-512c0 -13 -6 -19 -19 -19h-53c-13 0 -19 6 -19 19v186c0 8 -4 12 -11 12h-99v-21
c0 -101 -59 -159 -162 -159h-114c-13 0 -20 6 -20 19v43c0 13 7 19 20 19h108c53 0 79 25 79 76v28c0 51 -24 74 -79 74h-52c-13 0 -19 7 -19 20v42c0 13 6 20 19 20h52c53 0 79 25 79 75v14c0 52 -24 76 -79 76h-77c-13 0 -19 6 -19 19v43c0 12 6 18 19 18h88
c105 0 157 -53 157 -159v-16c0 -54 -20 -90 -60 -109v-4c21 -7 36 -20 46 -39h113c7 0 11 4 11 12v277c0 23 13 38 36 38h200v4c-1 1 -17 18 -20 21s-17 18 -21 22c-3 5 -15 20 -22 27c-9 14 -25 34 -39 53c-3 5 -27 40 -71 105c-3 5 -4 10 -4 15c0 10 5 15 15 15h62
c12 0 21 -5 26 -15l143 -230c7 -11 16 -17 26 -17z" />
    <glyph glyph-name="uni0914" unicode="&#x914;" horiz-adv-x="840" 
d="M778 623h66c13 0 20 -6 20 -18v-43c0 -13 -7 -19 -20 -19h-65c-7 0 -11 -4 -11 -12v-512c0 -13 -6 -19 -19 -19h-53c-13 0 -19 6 -19 19v512c0 8 -4 12 -11 12h-122c-7 0 -11 -4 -11 -12v-512c0 -13 -6 -19 -19 -19h-53c-13 0 -19 6 -19 19v186c0 8 -4 12 -11 12h-99v-21
c0 -101 -59 -159 -162 -159h-114c-13 0 -20 6 -20 19v43c0 13 7 19 20 19h108c53 0 79 25 79 76v28c0 51 -24 74 -79 74h-52c-13 0 -19 7 -19 20v42c0 13 6 20 19 20h52c53 0 79 25 79 75v14c0 52 -24 76 -79 76h-77c-13 0 -19 6 -19 19v43c0 12 6 18 19 18h88
c105 0 157 -53 157 -159v-16c0 -54 -20 -90 -60 -109v-4c21 -7 36 -20 46 -39h113c7 0 11 4 11 12v277c0 23 13 38 36 38h193v4c-39 30 -82 78 -128 145l-57 83c-3 5 -5 10 -5 15c0 10 5 15 16 15h50c16 0 27 -5 34 -16l135 -229l4 1c-27 59 -40 124 -40 197v28
c0 13 7 19 20 19h49c13 0 19 -6 19 -19v-231c0 -8 3 -12 10 -12z" />
    <glyph glyph-name="uni0915" unicode="&#x915;" horiz-adv-x="729" 
d="M409 531v-104h4c15 28 45 42 90 42h25c100 0 159 -58 159 -159v-66c-1 -100 -59 -159 -159 -159h-42c-13 0 -20 6 -20 19v44c0 12 7 18 20 18h29c55 0 82 28 82 83v57c0 55 -28 82 -85 82h-27c-51 0 -76 -25 -76 -74v-294c0 -13 -7 -20 -20 -20h-51c-12 0 -18 7 -18 20
v107h-4c-16 -28 -46 -42 -90 -42h-25c-100 0 -160 59 -160 159v66c1 100 59 159 160 159h41c13 0 20 -6 20 -19v-43c0 -13 -7 -19 -20 -19h-29c-55 0 -82 -27 -82 -82v-57c0 -53 30 -83 85 -83h28c49 0 76 27 76 75v290c0 8 -4 12 -11 12h-314c-13 0 -19 6 -19 19v43
c0 12 6 18 19 18h738c13 0 20 -6 20 -18v-43c0 -13 -7 -19 -20 -19h-313c-7 0 -11 -4 -11 -12z" />
    <glyph glyph-name="uni0916" unicode="&#x916;" horiz-adv-x="715" 
d="M553 19v137h-4c-15 -25 -43 -38 -82 -39h-15c-92 0 -139 57 -139 149v45c0 89 53 145 150 145h18c14 0 21 -7 21 -20v-42c0 -12 -7 -18 -21 -18h-10c-51 0 -70 -23 -70 -76v-28c0 -55 21 -77 73 -77h6c49 0 73 27 73 80v256c0 8 -4 12 -11 12h-258c-7 0 -11 -4 -11 -12
v-146c0 -81 -47 -131 -120 -131h-17l144 -222c3 -5 5 -9 5 -14c0 -12 -6 -18 -17 -18h-57c-7 0 -13 4 -20 12l-134 209l-25 33v57c0 15 8 22 23 22h76c35 0 53 19 53 57v141c0 7 -3 11 -10 12h-179c-13 0 -19 6 -19 19v43c0 12 6 18 19 18h724c13 0 20 -6 20 -18v-43
c0 -13 -7 -19 -20 -19h-65c-7 0 -11 -4 -11 -12v-512c0 -13 -7 -19 -20 -19h-51c-13 0 -19 6 -19 19z" />
    <glyph glyph-name="uni0917" unicode="&#x917;" horiz-adv-x="512" 
d="M-5 623h521c13 0 20 -6 20 -18v-43c0 -13 -7 -19 -20 -19h-65c-7 0 -11 -4 -11 -12v-512c0 -13 -6 -19 -19 -19h-53c-13 0 -19 6 -19 19v512c0 7 -3 11 -10 12h-109c-7 0 -11 -4 -11 -12v-174c0 -105 -56 -159 -155 -159h-22c-13 0 -19 6 -19 19v45c0 13 6 19 19 19h8
c52 0 78 26 78 79v171c0 7 -3 11 -10 12h-123c-13 0 -19 6 -19 19v43c0 12 6 18 19 18z" />
    <glyph glyph-name="uni0918" unicode="&#x918;" horiz-adv-x="548" 
d="M52 439v42c0 29 10 48 29 58v4h-86c-13 0 -19 7 -19 20v42c0 12 6 18 19 18h557c13 0 20 -6 20 -18v-43c0 -13 -7 -19 -20 -19h-65c-7 0 -11 -4 -11 -12v-512c0 -13 -6 -19 -19 -19h-53c-13 0 -19 6 -19 19v103h-4c-15 -31 -45 -47 -90 -47h-93c-93 0 -146 52 -146 145
v33c0 49 19 80 58 93v4c-39 14 -58 44 -58 89zM374 543h-184c-32 0 -48 -18 -48 -55v-43c0 -36 18 -54 53 -54h62c13 0 20 -6 20 -19v-43c0 -13 -7 -19 -20 -19h-62c-35 0 -53 -18 -53 -55v-27c0 -52 18 -70 69 -70h74c67 1 100 32 100 95v278c0 8 -4 12 -11 12z" />
    <glyph glyph-name="uni0919" unicode="&#x919;" horiz-adv-x="529" 
d="M507 357v-53c0 -13 -6 -19 -17 -19h-55c-12 0 -18 6 -18 19v53c0 12 6 18 18 18h55c11 0 17 -6 17 -18zM-5 623h539c13 0 19 -6 19 -18v-44c0 -12 -6 -18 -19 -18h-137c-7 0 -11 -4 -11 -12v-105c0 -29 -15 -43 -46 -43h-145c-36 0 -50 -10 -50 -46v-8
c0 -36 14 -46 50 -46h91c81 0 128 -38 128 -114v-47c0 -77 -48 -122 -128 -122h-88c-96 0 -147 36 -147 135v6c0 15 7 23 20 23h48c12 0 18 -8 18 -23v-6c0 -47 17 -56 69 -56h67c35 0 50 14 50 50v30c0 37 -15 50 -50 50h-85c-91 0 -132 33 -132 114v23
c0 77 49 117 132 117h97c7 0 11 4 11 12v56c0 8 -3 12 -10 12h-291c-13 0 -19 6 -19 18v44c0 12 6 18 19 18z" />
    <glyph glyph-name="uni091A" unicode="&#x91a;" horiz-adv-x="581" 
d="M141 361v4h-99c-13 0 -19 6 -19 18v44c0 13 6 19 19 19h279c13 0 19 -6 19 -19v-44c0 -12 -6 -18 -19 -18h-56c-51 0 -76 -27 -76 -82v-33c0 -53 27 -80 82 -80h59c56 0 87 33 87 90v271c0 8 -4 12 -11 12h-411c-13 0 -19 6 -19 19v43c0 12 6 18 19 18h590
c13 0 20 -6 20 -18v-43c0 -13 -7 -19 -20 -19h-65c-7 0 -11 -4 -11 -12v-511c0 -13 -7 -20 -20 -20h-54c-12 0 -18 7 -18 20v117h-4c-17 -32 -49 -48 -98 -48h-58c-100 0 -157 56 -157 156v30c0 43 14 72 41 86z" />
    <glyph glyph-name="uni091B" unicode="&#x91b;" horiz-adv-x="564" 
d="M-5 623h573c13 0 20 -6 20 -18v-42c0 -13 -7 -20 -20 -20h-61c-9 0 -13 -4 -13 -11v-73c0 -27 -9 -48 -28 -64c29 -21 43 -56 43 -106v-101c0 -84 -53 -149 -149 -149h-143c-97 0 -156 50 -156 142v36c0 51 19 84 58 97v4c-39 9 -58 36 -58 80v79c0 31 11 52 32 62v4h-98
c-13 0 -19 7 -19 20v42c0 12 6 18 19 18zM340 418h41c7 0 13 0 16 -1c3 7 4 16 4 27v87c0 7 -4 11 -12 12h-177c-40 0 -60 -21 -60 -64v-68c0 -36 18 -54 54 -54h35c13 0 20 -6 20 -19v-43c0 -11 -7 -17 -20 -17h-28c-41 0 -61 -21 -61 -62v-26c0 -51 21 -68 74 -68h116
c55 0 79 23 79 78v90c0 31 -16 47 -47 47h-34c-13 0 -19 7 -19 20v43c0 12 6 18 19 18z" />
    <glyph glyph-name="uni091C" unicode="&#x91c;" horiz-adv-x="556" 
d="M382 348h-127v-4c24 -11 36 -34 36 -67v-70c0 -96 -51 -152 -139 -152h-106c-13 0 -20 6 -20 19v43c0 13 7 19 20 19h79c57 0 76 25 76 78v57c0 51 -26 77 -77 77h-38c-13 0 -20 6 -20 18v49c0 11 6 17 19 17h297c7 0 11 4 11 12v87c0 7 -3 11 -10 12h-388
c-13 0 -19 6 -19 19v43c0 12 6 18 19 18h565c13 0 20 -6 20 -18v-43c0 -13 -7 -19 -20 -19h-65c-7 0 -11 -4 -11 -12v-512c0 -13 -7 -19 -20 -19h-52c-13 0 -19 6 -19 19v317c0 8 -4 12 -11 12z" />
    <glyph glyph-name="uni091D" unicode="&#x91d;" horiz-adv-x="652" 
d="M479 543h-111c-7 0 -11 -4 -11 -12v-96c0 -29 -15 -43 -46 -43h-115c-36 0 -49 -13 -49 -46v-10c0 -31 14 -42 49 -42h282c7 0 11 4 11 12v225c0 8 -3 12 -10 12zM256 543h-261c-13 0 -19 6 -19 19v43c0 12 6 18 19 18h662c13 0 19 -6 19 -18v-43c0 -13 -6 -19 -19 -19
h-66c-7 0 -11 -4 -11 -12v-512c0 -13 -6 -19 -19 -19h-52c-13 0 -20 6 -20 19v184c0 8 -4 12 -11 12h-103c7 -10 10 -22 10 -35v-42c0 -77 -48 -123 -129 -123h-39c-36 0 -60 10 -71 30h-4v-75c0 -13 -6 -19 -19 -19h-50c-13 0 -20 6 -20 19v192c0 13 7 19 20 19h50
c13 0 19 -6 19 -19v-12c0 -37 20 -56 60 -56h43c36 0 52 14 52 50v24c0 32 -16 48 -49 48h-58c-88 0 -132 40 -132 121v18c0 77 49 117 132 117h65c8 0 12 4 12 12v47c0 8 -4 12 -11 12z" />
    <glyph glyph-name="uni091E" unicode="&#x91e;" horiz-adv-x="569" 
d="M395 227h-90c-7 0 -11 -3 -12 -10s-2 -15 -2 -24c-11 -81 -62 -121 -153 -121h-84c-13 0 -19 7 -19 20v44c0 12 6 18 19 18h79c53 0 80 27 80 80v64c0 54 -26 81 -78 81h-64c-13 0 -20 6 -20 17v45c0 13 7 19 20 19h67c92 0 143 -41 153 -123c0 -9 0 -15 1 -18
c1 -7 5 -10 13 -10h90c7 0 11 4 11 12v210c0 7 -3 11 -9 12h-402c-13 0 -19 6 -19 18v44c0 12 6 18 19 18h579c13 0 19 -6 19 -18v-43c0 -13 -6 -19 -19 -19h-66c-7 0 -11 -4 -11 -12v-512c0 -13 -6 -19 -19 -19h-53c-13 0 -19 6 -19 19v196c0 8 -4 12 -11 12z" />
    <glyph glyph-name="uni091F" unicode="&#x91f;" horiz-adv-x="473" 
d="M209 439h79c7 0 11 4 11 12v80c0 8 -4 12 -11 12h-293c-13 0 -19 6 -19 19v43c0 12 6 18 19 18h482c13 0 20 -6 20 -18v-43c0 -13 -7 -19 -20 -19h-77c-7 0 -11 -4 -11 -12v-129c0 -29 -15 -44 -46 -44h-124c-55 0 -82 -26 -82 -78v-87c0 -52 27 -78 82 -78h53
c55 0 82 21 82 76v18c0 15 6 23 18 23h47c13 0 20 -8 20 -23v-18c0 -103 -58 -157 -159 -157h-71c-103 0 -160 62 -160 161v85c0 99 57 159 160 159z" />
    <glyph glyph-name="uni0920" unicode="&#x920;" horiz-adv-x="504" 
d="M280 358h-62c-53 0 -80 -27 -80 -80v-80c0 -55 28 -83 83 -83h55c55 0 82 28 82 83v80c0 53 -26 80 -78 80zM509 543h-98c-7 0 -11 -4 -11 -12v-54c0 -33 -12 -54 -37 -63v-4c51 -9 84 -51 84 -112v-110c0 -97 -60 -155 -159 -155h-80c-101 0 -159 58 -159 161v86
c0 100 59 159 160 159h42c39 0 58 19 58 56v36c0 7 -3 11 -10 12h-304c-13 0 -19 6 -19 19v42c0 13 6 19 19 19h514c13 0 19 -6 19 -19v-42c0 -13 -6 -19 -19 -19z" />
    <glyph glyph-name="uni0921" unicode="&#x921;" horiz-adv-x="465" 
d="M-5 623h474c13 0 20 -6 20 -18v-44c0 -12 -7 -18 -20 -18h-72c-7 0 -11 -4 -11 -12v-105c0 -29 -15 -43 -46 -43h-145c-36 0 -50 -10 -50 -46v-9c0 -36 14 -47 50 -47h90c81 0 129 -38 129 -113v-46c0 -77 -49 -122 -129 -122h-87c-93 0 -147 38 -147 135v6
c0 15 7 23 20 23h48c12 0 18 -8 18 -23v-6c0 -47 19 -56 70 -56h65c34 0 51 17 51 50v29c0 37 -15 49 -51 49h-84c-91 0 -132 34 -132 114v25c0 77 49 117 132 117h97c7 0 11 4 11 12v56c0 8 -3 12 -10 12h-291c-13 0 -19 6 -19 18v44c0 12 6 18 19 18z" />
    <glyph glyph-name="uni0922" unicode="&#x922;" horiz-adv-x="486" 
d="M302 34h-91c-103 0 -157 59 -157 159v105c0 101 54 157 154 157h101c7 0 10 4 10 12v64c0 8 -3 12 -10 12h-314c-13 0 -19 6 -19 19v43c0 12 6 18 19 18h496c13 0 19 -6 19 -18v-43c0 -13 -6 -19 -19 -19h-71c-7 0 -11 -4 -11 -12v-114c0 -25 -15 -40 -39 -40h-153
c-50 0 -75 -27 -75 -80v-108c0 -53 24 -77 79 -77h80c48 0 66 20 66 65v18c0 28 -7 40 -34 40s-34 -13 -34 -40v-15c0 -13 -6 -20 -19 -20h-30c-20 0 -27 6 -27 22v16c0 71 35 106 106 106c79 0 119 -37 119 -111v-20c0 -93 -49 -139 -146 -139z" />
    <glyph glyph-name="uni0923" unicode="&#x923;" horiz-adv-x="673" 
d="M283 543h-120c-7 0 -11 -4 -11 -12v-224c0 -46 22 -69 66 -69h10c44 0 66 23 66 69v224c0 8 -4 12 -11 12zM499 543h-106c-7 -1 -10 -5 -10 -12v-221c0 -100 -55 -152 -151 -152h-20c-95 0 -150 52 -150 152v221c0 8 -4 12 -11 12h-56c-13 0 -19 6 -19 19v43
c0 12 6 18 19 18h683c13 0 19 -6 19 -18v-43c0 -13 -6 -19 -19 -19h-66c-7 0 -11 -4 -11 -12v-512c0 -13 -6 -19 -19 -19h-53c-13 0 -19 6 -19 19v512c0 8 -4 12 -11 12z" />
    <glyph glyph-name="uni0924" unicode="&#x924;" horiz-adv-x="505" 
d="M143 266v-109c0 -57 22 -78 78 -79h11c13 0 20 -6 20 -19v-40c0 -13 -7 -19 -20 -19h-31c-99 0 -149 53 -149 160v111c0 103 58 158 158 158h121c7 0 11 4 11 12v90c0 7 -3 11 -9 12h-338c-13 0 -19 6 -19 19v43c0 12 6 18 19 18h515c13 0 19 -6 19 -18v-43
c0 -13 -6 -19 -19 -19h-66c-7 0 -11 -4 -11 -12v-512c0 -13 -6 -19 -19 -19h-52c-13 0 -20 6 -20 19v314c0 8 -4 12 -11 12h-109c-53 0 -79 -26 -79 -79z" />
    <glyph glyph-name="uni0925" unicode="&#x925;" horiz-adv-x="603" 
d="M440 19v124h-4c-20 -35 -58 -53 -113 -53h-89c-61 0 -106 18 -137 53s-46 77 -46 126v94c0 13 7 19 20 19h118c51 0 77 22 77 65v55c0 31 -17 47 -51 47s-51 -15 -51 -46v-42c0 -13 -6 -20 -17 -20h-49c-12 0 -18 7 -18 20v51c0 71 53 115 134 115s139 -40 139 -123v-62
c0 -94 -53 -141 -158 -141h-52v-32c0 -67 34 -100 102 -100h79c76 0 116 52 116 115v301c0 23 13 38 36 38h131c13 0 19 -6 19 -18v-43c0 -13 -6 -19 -19 -19h-65c-7 0 -11 -4 -11 -12v-512c0 -13 -6 -19 -19 -19h-53c-13 0 -19 6 -19 19z" />
    <glyph glyph-name="uni0926" unicode="&#x926;" horiz-adv-x="485" 
d="M205 462h111c7 0 10 4 10 12v57c0 8 -3 12 -10 12h-321c-13 0 -19 6 -19 19v43c0 12 6 18 19 18h495c13 0 19 -6 19 -18v-43c0 -13 -6 -19 -19 -19h-63c-7 0 -11 -4 -11 -12v-109c0 -27 -16 -41 -40 -41h-159c-50 0 -75 -27 -75 -80v-73c0 -53 24 -76 79 -76h56
c39 0 59 20 59 60v42c0 13 6 19 19 19h51c13 0 19 -6 19 -19v-235c0 -13 -6 -19 -19 -19h-51c-13 0 -19 6 -19 19v84h-4c-11 -21 -35 -32 -71 -32h-53c-104 0 -157 59 -157 159v75c0 103 53 157 154 157z" />
    <glyph glyph-name="uni0927" unicode="&#x927;" horiz-adv-x="550" 
d="M211 543h-19c-32 0 -48 -18 -48 -55v-40c0 -35 18 -53 53 -53h64c13 0 19 -6 19 -19v-44c0 -12 -6 -18 -19 -18h-64c-35 0 -53 -19 -53 -56v-30c0 -52 20 -71 69 -71h74c67 1 100 32 100 95v279c0 8 -4 12 -11 12h-52c-13 0 -20 6 -20 19v43c0 12 7 18 20 18h231
c13 0 19 -6 19 -18v-43c0 -13 -6 -19 -19 -19h-66c-7 0 -11 -4 -11 -12v-512c0 -13 -6 -19 -19 -19h-53c-13 0 -19 6 -19 19v102h-4c-15 -31 -45 -46 -90 -46h-93c-92 0 -146 52 -146 145v36c0 49 19 81 58 94v4c-39 13 -58 43 -58 88v39c0 29 10 48 29 58v4h-88
c-13 0 -19 7 -19 20v42c0 12 6 18 19 18h216c13 0 19 -6 19 -18v-43c0 -13 -6 -19 -19 -19z" />
    <glyph glyph-name="uni0928" unicode="&#x928;" horiz-adv-x="484" 
d="M115 187h-38c-30 0 -45 32 -45 96c0 65 45 108 114 108h164c7 0 11 4 11 12v128c0 7 -3 11 -9 12h-317c-13 0 -19 6 -19 19v43c0 12 6 18 19 18h494c13 0 19 -6 19 -18v-43c0 -13 -6 -19 -19 -19h-66c-7 0 -11 -4 -11 -12v-512c0 -13 -6 -19 -19 -19h-53
c-13 0 -19 6 -19 19v278c0 9 -4 13 -11 13h-132c-37 0 -56 -15 -56 -45c0 -7 2 -19 5 -34c4 -15 6 -24 6 -26c0 -12 -6 -18 -18 -18z" />
    <glyph glyph-name="uni0928093C" unicode="&#x929;" horiz-adv-x="484" 
d="M208 30v-53c0 -13 -6 -19 -18 -19h-55c-12 0 -18 6 -18 19v53c0 12 6 18 18 18h55c12 0 18 -6 18 -18zM115 187h-38c-30 0 -45 32 -45 96c0 65 45 108 114 108h164c7 0 11 4 11 12v128c0 7 -3 11 -9 12h-317c-13 0 -19 6 -19 19v43c0 12 6 18 19 18h494
c13 0 19 -6 19 -18v-43c0 -13 -6 -19 -19 -19h-66c-7 0 -11 -4 -11 -12v-512c0 -13 -6 -19 -19 -19h-53c-13 0 -19 6 -19 19v278c0 9 -4 13 -11 13h-132c-37 0 -56 -15 -56 -45c0 -7 2 -19 5 -34c4 -15 6 -24 6 -26c0 -12 -6 -18 -18 -18z" />
    <glyph glyph-name="uni092A" unicode="&#x92a;" horiz-adv-x="502" 
d="M229 244h27c56 0 83 31 83 80v207c0 8 -4 12 -11 12h-164c-7 0 -11 -4 -11 -12v-209c0 -52 25 -78 76 -78zM-5 623h512c13 0 19 -6 19 -18v-43c0 -13 -6 -19 -19 -19h-66c-7 0 -11 -4 -11 -12v-512c0 -13 -6 -19 -19 -19h-53c-13 0 -19 6 -19 19v185h-4
c-16 -28 -47 -42 -92 -42h-29c-92 0 -152 58 -152 151v218c0 7 -3 11 -9 12h-58c-13 0 -19 7 -19 20v42c0 12 6 18 19 18z" />
    <glyph glyph-name="uni092B" unicode="&#x92b;" horiz-adv-x="743" 
d="M422 314v-294c0 -13 -6 -20 -19 -20h-52c-13 0 -19 6 -19 19v187h-4c-17 -28 -48 -42 -93 -42h-21c-92 0 -152 59 -152 151v216c0 7 -3 11 -9 12h-58c-13 0 -19 7 -19 20v42c0 12 6 18 19 18h752c13 0 20 -6 20 -18v-43c0 -13 -7 -19 -20 -19h-314c-7 0 -11 -4 -11 -12
v-104h4c16 28 46 42 90 42h25c100 0 160 -59 160 -159v-66c-1 -100 -59 -159 -160 -159h-41c-13 0 -20 6 -20 19v44c0 12 7 18 20 18h29c55 0 82 28 82 83v57c0 55 -28 82 -85 82h-28c-51 0 -76 -25 -76 -74zM229 247h20c56 0 83 30 83 78v206c0 8 -4 12 -11 12h-157
c-7 0 -11 -4 -11 -12v-206c0 -52 25 -78 76 -78z" />
    <glyph glyph-name="uni092C" unicode="&#x92c;" horiz-adv-x="511" 
d="M-5 623h520c13 0 20 -6 20 -18v-43c0 -13 -7 -19 -20 -19h-65c-7 0 -11 -4 -11 -12v-511c0 -13 -6 -20 -19 -20h-54c-12 0 -18 7 -18 20v99h-4c-16 -28 -48 -42 -95 -42h-41c-100 0 -160 59 -160 159v76c1 100 59 159 160 159h62c13 0 19 -6 19 -19v-41
c0 -12 -6 -18 -19 -18h-53c-17 0 -32 -3 -44 -9l173 -164c1 9 2 16 2 20v291c0 8 -4 12 -11 12h-342c-13 0 -19 6 -19 19v43c0 12 6 18 19 18zM216 154h46c24 0 43 6 58 17l-181 172c-3 -9 -4 -20 -4 -33v-73c0 -55 27 -83 81 -83z" />
    <glyph glyph-name="uni092D" unicode="&#x92d;" horiz-adv-x="503" 
d="M329 253h-159c-8 0 -12 -4 -12 -12v-72c0 -13 -6 -19 -19 -19h-52c-13 0 -19 6 -19 19v300c0 49 -20 74 -61 74h-12c-13 0 -19 6 -19 19v42c0 13 6 19 19 19h12c96 0 151 -54 151 -151v-127c0 -8 4 -12 11 -12h160c7 0 11 4 11 12v186c0 8 -4 12 -11 12h-53
c-17 0 -26 6 -26 19v43c0 12 9 18 26 18h231c13 0 20 -6 20 -18v-43c0 -13 -7 -19 -20 -19h-65c-7 0 -11 -4 -11 -12v-512c0 -13 -6 -19 -19 -19h-53c-13 0 -19 6 -19 19v222c0 8 -4 12 -11 12z" />
    <glyph glyph-name="uni092E" unicode="&#x92e;" horiz-adv-x="499" 
d="M336 345v186c0 7 -3 11 -9 12h-161c-7 0 -11 -4 -11 -12v-186c0 -8 4 -12 11 -12h159c7 0 11 4 11 12zM325 253h-159c-7 0 -11 -4 -11 -12v-72c0 -13 -6 -19 -19 -19h-53c-13 0 -19 6 -19 19v362c0 7 -3 11 -10 12h-59c-13 0 -19 6 -19 19v43c0 12 6 18 19 18h509
c13 0 19 -6 19 -18v-43c0 -13 -6 -19 -19 -19h-66c-7 0 -11 -4 -11 -12v-512c0 -13 -6 -19 -19 -19h-52c-13 0 -20 6 -20 19v222c0 8 -4 12 -11 12z" />
    <glyph glyph-name="uni092F" unicode="&#x92f;" horiz-adv-x="575" 
d="M401 543h-147v-5c23 -12 35 -37 35 -74v-21c0 -85 -46 -127 -138 -127h-11v-45c0 -71 37 -106 112 -106h44c77 0 116 38 116 113v253c0 8 -4 12 -11 12zM202 461v14c0 47 -21 68 -69 68h-138c-13 0 -19 6 -19 19v43c0 12 6 18 19 18h585c13 0 19 -6 19 -18v-43
c0 -13 -6 -19 -19 -19h-66c-7 0 -11 -4 -11 -12v-512c0 -13 -6 -19 -19 -19h-53c-13 0 -19 6 -19 19v118h-4c-19 -35 -57 -53 -114 -53h-52c-61 0 -108 18 -141 54c-33 37 -50 81 -50 133v105c0 13 6 19 19 19h63c51 0 69 17 69 66z" />
    <glyph glyph-name="uni0930" unicode="&#x930;" horiz-adv-x="338" 
d="M184 390v141c0 7 -3 11 -10 12h-179c-13 0 -19 6 -19 19v43c0 12 6 18 19 18h348c13 0 19 -6 19 -18v-43c0 -13 -6 -19 -19 -19h-57c-7 0 -11 -4 -11 -12v-146c0 -81 -47 -131 -119 -131h-19l144 -223c3 -5 5 -9 5 -13c0 -12 -6 -18 -17 -18h-59c-8 0 -14 4 -19 12
l-134 209l-25 33v57c0 15 8 22 23 22h76c35 0 53 19 53 57z" />
    <glyph glyph-name="uni0930093C" unicode="&#x931;" horiz-adv-x="370" 
d="M103 33v-53c0 -13 -6 -19 -17 -19h-55c-12 0 -18 6 -18 19v53c0 12 6 18 18 18h55c11 0 17 -6 17 -18zM215 390v141c0 7 -3 11 -9 12h-211c-13 0 -19 6 -19 19v43c0 12 6 18 19 18h379c13 0 20 -6 20 -18v-43c0 -13 -7 -19 -20 -19h-57c-7 0 -11 -4 -11 -12v-146
c0 -81 -46 -131 -119 -131h-19l144 -223c3 -5 5 -9 5 -13c0 -12 -6 -18 -17 -18h-59c-6 0 -12 4 -19 12l-134 209l-25 33v57c0 15 8 22 24 22h76c35 0 52 19 52 57z" />
    <glyph glyph-name="uni0932" unicode="&#x932;" horiz-adv-x="653" 
d="M414 442c37 0 61 -10 72 -31h4v120c0 7 -3 11 -9 12h-486c-13 0 -19 6 -19 19v43c0 12 6 18 19 18h663c13 0 19 -6 19 -18v-43c0 -13 -6 -19 -19 -19h-66c-7 0 -11 -4 -11 -12v-512c0 -13 -6 -19 -19 -19h-53c-13 0 -19 6 -19 19v265c0 55 -20 74 -65 74s-66 -20 -66 -77
v-66c0 -13 -6 -19 -19 -19h-49c-13 0 -19 6 -19 19v72c0 52 -21 73 -65 73c-45 0 -67 -27 -67 -82v-85c0 -55 27 -82 82 -82h22c13 0 20 -6 20 -18v-44c0 -13 -7 -19 -20 -19h-34c-101 0 -159 56 -159 159v94c0 103 57 160 150 160c59 0 96 -20 111 -61h4c14 40 47 60 98 60
z" />
    <glyph glyph-name="uni0933" unicode="&#x933;" horiz-adv-x="668" 
d="M-5 623h678c13 0 19 -6 19 -18v-43c0 -13 -6 -19 -19 -19h-164c-7 0 -11 -4 -11 -12v-82c0 -6 4 -10 11 -13c71 -19 106 -70 106 -155v-80c0 -105 -55 -162 -158 -162h-11c-53 0 -91 15 -115 45c-24 -30 -63 -45 -116 -45h-8c-103 0 -158 57 -158 162v80
c0 105 55 162 158 162h8c53 0 92 -15 117 -46c18 21 43 35 74 42c7 2 10 6 10 12v80c0 8 -4 12 -11 12h-410c-13 0 -19 6 -19 19v43c0 12 6 18 19 18zM288 201v80c0 55 -24 82 -73 82h-6c-48 0 -72 -27 -72 -82v-80c0 -55 24 -82 72 -82h6c49 0 73 27 73 82zM527 201v80
c0 55 -24 82 -72 82h-7c-48 0 -72 -27 -72 -82v-80c0 -55 24 -82 72 -82h7c48 0 72 27 72 82z" />
    <glyph glyph-name="uni0933093C" unicode="&#x934;" horiz-adv-x="668" 
d="M-5 623h678c13 0 19 -6 19 -18v-43c0 -13 -6 -19 -19 -19h-164c-7 0 -11 -4 -11 -12v-82c0 -6 4 -10 11 -13c71 -19 106 -70 106 -155v-80c0 -105 -55 -162 -158 -162h-11c-53 0 -91 15 -115 45c-24 -30 -63 -45 -116 -45h-8c-103 0 -158 57 -158 162v80
c0 105 55 162 158 162h8c53 0 92 -15 117 -46c18 21 43 35 74 42c7 2 10 6 10 12v80c0 8 -4 12 -11 12h-410c-13 0 -19 6 -19 19v43c0 12 6 18 19 18zM288 201v80c0 55 -24 82 -73 82h-6c-48 0 -72 -27 -72 -82v-80c0 -55 24 -82 72 -82h6c49 0 73 27 73 82zM527 201v80
c0 55 -24 82 -72 82h-7c-48 0 -72 -27 -72 -82v-80c0 -55 24 -82 72 -82h7c48 0 72 27 72 82zM178 0h55c11 0 17 -6 17 -18v-53c0 -13 -6 -19 -17 -19h-55c-12 0 -18 6 -18 19v53c0 12 6 18 18 18z" />
    <glyph glyph-name="uni0935" unicode="&#x935;" horiz-adv-x="502" 
d="M430 531v-511c0 -13 -6 -20 -19 -20h-53c-13 0 -19 7 -19 20v101h-4c-15 -28 -47 -42 -94 -42h-33c-100 0 -160 59 -160 159v70c1 100 59 158 160 158h54c13 0 19 -6 19 -19v-43c0 -13 -6 -19 -19 -19h-40c-55 0 -82 -27 -82 -82v-61c0 -55 27 -82 81 -82h33
c57 0 85 35 85 86v285c0 8 -4 12 -11 12h-333c-13 0 -19 6 -19 19v43c0 12 6 18 19 18h511c13 0 20 -6 20 -18v-43c0 -13 -7 -19 -20 -19h-65c-7 0 -11 -4 -11 -12z" />
    <glyph glyph-name="uni0936" unicode="&#x936;" horiz-adv-x="634" 
d="M472 19v566c0 23 13 38 36 38h131c13 0 19 -6 19 -18v-43c0 -13 -6 -19 -19 -19h-65c-8 0 -12 -4 -12 -12v-512c0 -13 -6 -19 -19 -19h-52c-13 0 -19 6 -19 19zM304 0h-62c-7 0 -13 4 -18 12l-143 200l-27 33v57c0 15 8 23 24 23h116c55 0 82 24 82 73v90
c0 41 -15 59 -56 59s-56 -17 -56 -58v-52c0 -13 -6 -19 -19 -19h-51c-13 0 -20 6 -20 19v48c0 93 49 139 146 139c92 0 145 -47 145 -139v-85c0 -100 -56 -155 -165 -155h-41l157 -214c10 -14 3 -31 -12 -31z" />
    <glyph glyph-name="uni0937" unicode="&#x937;" horiz-adv-x="509" 
d="M346 330v201c0 8 -4 12 -11 12h-184zM229 231h34c34 0 58 11 71 34l-181 199v-155c0 -52 25 -78 76 -78zM-5 623h519c13 0 19 -6 19 -18v-43c0 -13 -6 -19 -19 -19h-66c-7 0 -11 -4 -11 -12v-512c0 -13 -6 -19 -19 -19h-53c-13 0 -19 6 -19 19v174h-4
c-15 -29 -46 -43 -92 -43h-36c-92 0 -152 59 -152 152v229c0 7 -3 11 -9 12h-58c-13 0 -19 7 -19 20v42c0 12 6 18 19 18z" />
    <glyph glyph-name="uni0938" unicode="&#x938;" horiz-adv-x="593" 
d="M243 336v-4h176c7 0 11 4 11 12v187c0 8 -4 12 -11 12h-141c-7 0 -11 -4 -11 -12v-120c0 -37 -8 -62 -24 -75zM278 17c0 -11 -6 -17 -18 -17h-59c-8 0 -14 4 -19 12l-121 201l-29 40v57c0 15 8 22 23 22h69c35 0 52 19 52 56v143c0 8 -4 12 -11 12h-170
c-13 0 -19 7 -19 20v42c0 12 6 18 19 18h602c13 0 20 -6 20 -18v-43c0 -13 -7 -19 -20 -19h-65c-7 0 -11 -4 -11 -12v-512c0 -13 -7 -19 -20 -19h-52c-13 0 -19 6 -19 19v220c0 8 -4 12 -11 12h-282l135 -218c4 -8 6 -13 6 -16z" />
    <glyph glyph-name="uni0939" unicode="&#x939;" horiz-adv-x="470" 
d="M302 543h-307c-13 0 -19 6 -19 18v44c0 12 6 18 19 18h479c13 0 20 -6 20 -18v-44c0 -12 -7 -18 -20 -18h-61c-7 0 -11 -4 -11 -12v-99c0 -29 -15 -44 -46 -44h-145c-43 0 -60 -15 -60 -55s17 -56 58 -56h88c77 0 121 -40 121 -109v-33c0 -13 -7 -19 -20 -19h-48
c-13 0 -19 6 -19 19v18c0 37 -14 52 -51 52h-66c-49 0 -68 -28 -69 -81v-15c0 -56 27 -78 100 -78h140c13 0 20 -6 20 -18v-39c0 -13 -7 -19 -20 -19h-149c-121 0 -182 51 -182 153v19c0 58 20 96 60 113v4c-36 15 -54 46 -54 93c0 96 47 129 136 129h104c8 0 12 4 12 12v53
c0 7 -3 11 -10 12z" />
    <glyph glyph-name="uni093C" unicode="&#x93c;" horiz-adv-x="0" 
d="M-190 -32v-53c0 -13 -6 -19 -17 -19h-55c-12 0 -18 6 -18 19v53c0 12 6 18 18 18h55c11 0 17 -6 17 -18z" />
    <glyph glyph-name="uni093D" unicode="&#x93d;" horiz-adv-x="539" 
d="M467 201v-51c0 -93 -55 -150 -150 -150h-76c-67 0 -123 35 -168 104c-5 8 -8 20 8 32l23 18c12 11 23 10 30 1c3 -4 11 -13 22 -26s19 -22 24 -25c19 -14 40 -21 63 -21h59c55 0 74 25 74 76v37c0 21 -9 38 -26 50c-15 9 -35 19 -60 29c-77 32 -127 63 -150 92
c-22 29 -33 68 -33 117c0 97 37 139 149 139h154c13 0 20 -6 20 -18v-43c0 -13 -7 -19 -20 -19h-137c-27 0 -47 -5 -58 -14s-16 -27 -16 -52s10 -45 29 -60c20 -15 56 -34 107 -58c51 -23 86 -45 104 -65c19 -20 28 -51 28 -93z" />
    <glyph glyph-name="uni093E" unicode="&#x93e;" 
d="M144 0h-53c-13 0 -19 6 -19 19v512c0 8 -4 12 -11 12h-65c-13 0 -20 6 -20 19v43c0 12 7 18 20 18h243c13 0 20 -6 20 -18v-43c0 -13 -7 -19 -20 -19h-65c-7 0 -11 -4 -11 -12v-512c0 -13 -6 -19 -19 -19z" />
    <glyph glyph-name="uni093F" unicode="&#x93f;" 
d="M239 887h257c110 0 165 -54 165 -162v-19c0 -13 -6 -20 -19 -20h-54c-11 0 -17 7 -17 20v18c0 59 -22 80 -75 80h-258c-55 0 -75 -21 -75 -80v-89c0 -8 4 -12 11 -12h65c13 0 20 -6 20 -18v-43c0 -13 -7 -19 -20 -19h-65c-7 0 -11 -4 -11 -12v-512c0 -13 -6 -19 -19 -19
h-53c-13 0 -19 6 -19 19v512c0 8 -4 12 -11 12h-65c-13 0 -20 6 -20 19v43c0 12 7 18 20 18h65c7 0 11 4 11 12v107c0 96 62 145 167 145z" />
    <glyph glyph-name="uni0940" unicode="&#x940;" 
d="M174 623h65c13 0 20 -6 20 -18v-43c0 -13 -7 -19 -20 -19h-65c-7 0 -11 -4 -11 -12v-512c0 -13 -6 -19 -19 -19h-53c-13 0 -19 6 -19 19v512c0 8 -4 12 -11 12h-65c-13 0 -20 6 -20 19v43c0 12 7 18 20 18h65c7 0 11 4 11 12v89c0 59 -21 80 -76 80s-75 -20 -75 -80v-18
c0 -13 -6 -20 -18 -20h-53c-13 0 -20 7 -20 20v19c0 104 56 162 164 162s169 -49 169 -145v-107c0 -8 4 -12 11 -12z" />
    <glyph glyph-name="uni0941" unicode="&#x941;" horiz-adv-x="0" 
d="M-163 -37v37c0 13 7 20 20 20h47c93 0 134 -38 134 -131s-42 -142 -141 -142h-40c-49 0 -87 11 -113 33c-27 21 -57 61 -91 120c-12 21 -12 32 1 41l34 19c16 13 34 -1 56 -48c8 -15 14 -25 18 -31c8 -13 24 -35 36 -42c18 -9 38 -14 59 -14h39c48 0 57 21 57 62
s-6 56 -51 56h-45c-13 0 -20 7 -20 20z" />
    <glyph glyph-name="uni0942" unicode="&#x942;" horiz-adv-x="0" 
d="M-273 -112c0 93 46 140 137 140h33c61 0 101 -12 133 -55s44 -70 60 -110c9 -20 13 -31 14 -33s2 -4 3 -7c1 -6 18 -26 -5 -37c-26 -11 -42 -16 -48 -16c-11 0 -21 25 -38 66c-9 20 -15 34 -19 43c-8 16 -25 46 -38 55c-18 11 -39 17 -64 17h-31c-40 0 -53 -20 -53 -63
s9 -58 48 -58h35c14 0 21 -7 21 -20v-34c0 -13 -7 -20 -21 -20h-35c-88 0 -132 44 -132 132z" />
    <glyph glyph-name="uni0943" unicode="&#x943;" horiz-adv-x="0" 
d="M-72 0v-37c0 -13 -7 -20 -20 -20h-41c-45 0 -56 -20 -56 -69s20 -67 65 -67h22c23 0 47 9 72 27c29 21 46 31 52 31s11 -3 14 -10l20 -30c8 -9 12 -18 -11 -35c-47 -41 -96 -61 -145 -61h-29c-97 0 -146 50 -146 149c0 100 49 142 138 142h45c13 0 20 -7 20 -20z" />
    <glyph glyph-name="uni0945" unicode="&#x945;" horiz-adv-x="0" 
d="M-63 694h-93c-77 0 -119 45 -119 126v7c0 18 8 27 23 27h38c14 0 21 -8 21 -25v-9c0 -36 15 -51 52 -51h63c37 0 51 15 51 51v9c0 17 8 25 23 25h36c15 0 23 -9 23 -27v-4c0 -86 -39 -129 -118 -129z" />
    <glyph glyph-name="uni0946" unicode="&#x946;" horiz-adv-x="0" 
d="M-181 623h7c15 0 15 21 0 32c-6 4 -43 24 -112 59c-59 29 -88 70 -88 125v27c0 13 7 19 20 19h50c13 0 19 -6 19 -19v-20c0 -37 17 -51 56 -70l57 -28c71 -33 100 -56 100 -113c0 -8 4 -12 11 -12h6v-50h-126v50z" />
    <glyph glyph-name="uni0947" unicode="&#x947;" horiz-adv-x="0" 
d="M-71 623h5v-38h-58c-57 53 -110 116 -158 187l-56 83c-3 5 -4 10 -4 15c0 10 5 15 15 15h61c12 0 21 -5 26 -15l143 -230c7 -11 16 -17 26 -17z" />
    <glyph glyph-name="uni0948" unicode="&#x948;" horiz-adv-x="0" 
d="M-55 623v-24h-86c-57 50 -108 108 -155 173l-58 83c-3 5 -4 10 -4 15c0 10 5 15 16 15h49c17 0 28 -5 35 -16l134 -229l4 1c-26 58 -39 126 -39 204v21c0 13 6 19 19 19h49c13 0 19 -6 19 -19v-231c0 -8 3 -12 10 -12h7z" />
    <glyph glyph-name="uni0949" unicode="&#x949;" 
d="M144 0h-53c-13 0 -19 6 -19 19v512c0 8 -4 12 -11 12h-65c-13 0 -20 6 -20 19v43c0 12 7 18 20 18h243c13 0 20 -6 20 -18v-43c0 -13 -7 -19 -20 -19h-65c-7 0 -11 -4 -11 -12v-512c0 -13 -6 -19 -19 -19zM165 694h-94c-77 0 -118 45 -118 126v7c0 18 7 27 22 27h39
c14 0 21 -8 21 -25v-9c0 -36 15 -51 52 -51h62c39 0 52 15 52 51v9c0 17 7 25 22 25h37c15 0 23 -9 23 -27v-7c0 -84 -39 -126 -118 -126z" />
    <glyph glyph-name="uni094A" unicode="&#x94a;" 
d="M174 623h65c13 0 20 -6 20 -18v-43c0 -13 -7 -19 -20 -19h-65c-7 0 -11 -4 -11 -12v-512c0 -13 -6 -19 -19 -19h-53c-13 0 -19 6 -19 19v512c0 8 -4 12 -11 12h-65c-13 0 -20 6 -20 19v43c0 12 7 18 20 18h65c15 0 15 21 0 32c-6 4 -43 24 -112 59c-59 29 -88 70 -88 125
v27c0 13 7 19 20 19h50c13 0 19 -6 19 -19v-20c0 -37 17 -51 56 -70l57 -28c71 -33 100 -56 100 -113c0 -8 4 -12 11 -12z" />
    <glyph glyph-name="uni094B" unicode="&#x94b;" 
d="M168 623h71c13 0 20 -6 20 -18v-43c0 -13 -7 -19 -20 -19h-65c-7 0 -11 -4 -11 -12v-512c0 -13 -6 -19 -19 -19h-53c-13 0 -19 6 -19 19v512c0 8 -4 12 -11 12h-65c-13 0 -20 6 -20 19v43c0 12 7 18 20 18h77v4c-48 52 -87 100 -117 145l-55 83c-3 4 -5 9 -5 15
c0 10 5 15 15 15h61c11 0 20 -5 27 -15l143 -230c7 -11 15 -17 26 -17z" />
    <glyph glyph-name="uni094C" unicode="&#x94c;" 
d="M173 623h66c13 0 20 -6 20 -18v-43c0 -13 -7 -19 -20 -19h-65c-7 0 -11 -4 -11 -12v-512c0 -13 -6 -19 -19 -19h-53c-13 0 -19 6 -19 19v512c0 8 -4 12 -11 12h-65c-13 0 -20 6 -20 19v43c0 12 7 18 20 18h70v4c-42 35 -84 84 -127 145l-58 83c-3 5 -4 10 -4 15
c0 10 5 15 16 15h49c17 0 28 -5 35 -16l134 -229l4 1c-26 58 -39 126 -39 204v21c0 13 6 19 19 19h49c13 0 19 -6 19 -19v-231c0 -8 3 -12 10 -12z" />
    <glyph glyph-name="uni094D" unicode="&#x94d;" horiz-adv-x="0" 
d="M-144 -52h49c11 0 20 -6 28 -17l91 -133c3 -5 5 -9 5 -13c0 -12 -6 -18 -17 -18h-58c-8 0 -15 5 -22 14l-88 143c-2 3 -3 6 -3 9c0 10 5 15 15 15z" />
    <glyph glyph-name="uni0950" unicode="&#x950;" horiz-adv-x="860" 
d="M543 459h100c96 0 156 -63 156 -164v-156c0 -80 -48 -127 -128 -127h-31c-80 0 -127 47 -127 127v66c0 8 -4 12 -11 12h-79v-41c0 -103 -57 -164 -161 -164h-39c-103 0 -164 61 -164 164v30c0 15 7 23 20 23h52c12 0 18 -8 18 -23v-30c0 -55 28 -83 84 -83h21
c53 0 80 29 80 88v21c0 60 -23 88 -80 88h-43c-13 0 -19 6 -19 19v42c0 13 6 20 19 20h46c51 0 77 24 77 73v23c0 52 -22 75 -79 75h-81c-13 0 -20 6 -20 19v44c0 12 7 18 20 18h94c103 0 155 -52 155 -155v-31c0 -53 -20 -88 -60 -105v-4c18 -7 32 -18 41 -31h129
c43 0 65 -21 65 -63v-86c0 -35 18 -53 54 -55h8c36 2 54 20 54 55v141c0 60 -34 90 -91 90h-80c-13 0 -19 6 -19 19v43c0 12 6 18 19 18zM646 542h-101c-14 0 -21 6 -21 19v42c0 13 7 20 21 20h90c40 0 70 12 91 36c20 24 34 8 48 -6c19 -17 31 -24 18 -42
c-32 -46 -81 -69 -146 -69zM599 706h-56c-12 0 -18 6 -18 18v54c0 12 6 18 18 18h56c11 0 17 -6 17 -18v-54c0 -12 -6 -18 -17 -18z" />
    <glyph glyph-name="uni0951" unicode="&#x951;" horiz-adv-x="0" 
d="M-163 693v158c0 12 6 18 19 18h53c13 0 19 -6 19 -18v-158c0 -13 -6 -19 -19 -19h-53c-13 0 -19 6 -19 19z" />
    <glyph glyph-name="uni0952" unicode="&#x952;" horiz-adv-x="0" 
d="M-70 -68v-28c0 -12 -6 -18 -17 -18h-340c-11 0 -16 6 -16 18v28c0 11 5 16 16 16h340c11 0 17 -5 17 -16z" />
    <glyph glyph-name="uni0953" unicode="&#x953;" horiz-adv-x="0" 
d="M-258 869h56c12 0 21 -5 26 -15l94 -150c3 -4 5 -9 5 -15c0 -10 -5 -15 -15 -15h-54c-12 0 -21 5 -26 15l-96 151c-3 3 -5 8 -5 14c0 10 5 15 15 15z" />
    <glyph glyph-name="uni0954" unicode="&#x954;" horiz-adv-x="0" 
d="M-37 869h56c10 0 15 -5 15 -15c0 -6 -1 -11 -4 -14l-97 -151c-5 -10 -14 -15 -26 -15h-54c-10 0 -15 5 -15 15c0 6 2 11 5 15l94 150c5 10 14 15 26 15z" />
    <glyph glyph-name="uni0915093C" unicode="&#x958;" horiz-adv-x="729" 
d="M409 531v-104h4c15 28 45 42 90 42h25c100 0 159 -58 159 -159v-66c-1 -100 -59 -159 -159 -159h-42c-13 0 -20 6 -20 19v44c0 12 7 18 20 18h29c55 0 82 28 82 83v57c0 55 -28 82 -85 82h-27c-51 0 -76 -25 -76 -74v-294c0 -13 -7 -20 -20 -20h-51c-12 0 -18 7 -18 20
v107h-4c-16 -28 -46 -42 -90 -42h-25c-100 0 -160 59 -160 159v66c1 100 59 159 160 159h41c13 0 20 -6 20 -19v-43c0 -13 -7 -19 -20 -19h-29c-55 0 -82 -27 -82 -82v-57c0 -53 30 -83 85 -83h28c49 0 76 27 76 75v290c0 8 -4 12 -11 12h-314c-13 0 -19 6 -19 19v43
c0 12 6 18 19 18h738c13 0 20 -6 20 -18v-43c0 -13 -7 -19 -20 -19h-313c-7 0 -11 -4 -11 -12zM218 2v-53c0 -13 -6 -19 -17 -19h-55c-12 0 -18 6 -18 19v53c0 12 6 18 18 18h55c11 0 17 -6 17 -18z" />
    <glyph glyph-name="uni0916093C" unicode="&#x959;" horiz-adv-x="715" 
d="M553 19v137h-4c-15 -25 -43 -38 -82 -39h-15c-92 0 -139 57 -139 149v45c0 89 53 145 150 145h18c14 0 21 -7 21 -20v-42c0 -12 -7 -18 -21 -18h-10c-51 0 -70 -23 -70 -76v-28c0 -55 21 -77 73 -77h6c49 0 73 27 73 80v256c0 8 -4 12 -11 12h-258c-7 0 -11 -4 -11 -12
v-146c0 -81 -47 -131 -120 -131h-17l144 -222c3 -5 5 -9 5 -14c0 -12 -6 -18 -17 -18h-57c-7 0 -13 4 -20 12l-134 209l-25 33v57c0 15 8 22 23 22h76c35 0 53 19 53 57v141c0 7 -3 11 -10 12h-179c-13 0 -19 6 -19 19v43c0 12 6 18 19 18h724c13 0 20 -6 20 -18v-43
c0 -13 -7 -19 -20 -19h-65c-7 0 -11 -4 -11 -12v-512c0 -13 -7 -19 -20 -19h-51c-13 0 -19 6 -19 19zM124 -7v-53c0 -13 -6 -19 -17 -19h-55c-12 0 -18 6 -18 19v53c0 12 6 18 18 18h55c11 0 17 -6 17 -18z" />
    <glyph glyph-name="uni0917093C" unicode="&#x95a;" horiz-adv-x="512" 
d="M-5 623h521c13 0 20 -6 20 -18v-43c0 -13 -7 -19 -20 -19h-65c-7 0 -11 -4 -11 -12v-512c0 -13 -6 -19 -19 -19h-53c-13 0 -19 6 -19 19v512c0 7 -3 11 -10 12h-109c-7 0 -11 -4 -11 -12v-174c0 -105 -56 -159 -155 -159h-22c-13 0 -19 6 -19 19v45c0 13 6 19 19 19h8
c52 0 78 26 78 79v171c0 7 -3 11 -10 12h-123c-13 0 -19 6 -19 19v43c0 12 6 18 19 18zM181 15v-53c0 -13 -6 -19 -17 -19h-55c-12 0 -18 6 -18 19v53c0 12 6 18 18 18h55c11 0 17 -6 17 -18z" />
    <glyph glyph-name="uni091C093C" unicode="&#x95b;" horiz-adv-x="556" 
d="M382 348h-127v-4c24 -11 36 -34 36 -67v-70c0 -96 -51 -152 -139 -152h-106c-13 0 -20 6 -20 19v43c0 13 7 19 20 19h79c57 0 76 25 76 78v57c0 51 -26 77 -77 77h-38c-13 0 -20 6 -20 18v49c0 11 6 17 19 17h297c7 0 11 4 11 12v87c0 7 -3 11 -10 12h-388
c-13 0 -19 6 -19 19v43c0 12 6 18 19 18h565c13 0 20 -6 20 -18v-43c0 -13 -7 -19 -20 -19h-65c-7 0 -11 -4 -11 -12v-512c0 -13 -7 -19 -20 -19h-52c-13 0 -19 6 -19 19v317c0 8 -4 12 -11 12zM138 -17v-53c0 -13 -6 -19 -17 -19h-55c-12 0 -18 6 -18 19v53
c0 12 6 18 18 18h55c11 0 17 -6 17 -18z" />
    <glyph glyph-name="uni0921093C" unicode="&#x95c;" horiz-adv-x="465" 
d="M-5 623h474c13 0 20 -6 20 -18v-44c0 -12 -7 -18 -20 -18h-72c-7 0 -11 -4 -11 -12v-105c0 -29 -15 -43 -46 -43h-145c-36 0 -50 -10 -50 -46v-9c0 -36 14 -47 50 -47h90c81 0 129 -38 129 -113v-46c0 -77 -49 -122 -129 -122h-87c-93 0 -147 38 -147 135v6
c0 15 7 23 20 23h48c12 0 18 -8 18 -23v-6c0 -47 19 -56 70 -56h65c34 0 51 17 51 50v29c0 37 -15 49 -51 49h-84c-91 0 -132 34 -132 114v25c0 77 49 117 132 117h97c7 0 11 4 11 12v56c0 8 -3 12 -10 12h-291c-13 0 -19 6 -19 18v44c0 12 6 18 19 18zM271 -76v-53
c0 -13 -6 -19 -17 -19h-55c-12 0 -18 6 -18 19v53c0 12 6 18 18 18h55c11 0 17 -6 17 -18z" />
    <glyph glyph-name="uni0922093C" unicode="&#x95d;" horiz-adv-x="486" 
d="M302 34h-91c-103 0 -157 59 -157 159v105c0 101 54 157 154 157h101c7 0 10 4 10 12v64c0 8 -3 12 -10 12h-314c-13 0 -19 6 -19 19v43c0 12 6 18 19 18h496c13 0 19 -6 19 -18v-43c0 -13 -6 -19 -19 -19h-71c-7 0 -11 -4 -11 -12v-114c0 -25 -15 -40 -39 -40h-153
c-50 0 -75 -27 -75 -80v-108c0 -53 24 -77 79 -77h80c48 0 66 20 66 65v18c0 28 -7 40 -34 40s-34 -13 -34 -40v-15c0 -13 -6 -20 -19 -20h-30c-20 0 -27 6 -27 22v16c0 71 35 106 106 106c79 0 119 -37 119 -111v-20c0 -93 -49 -139 -146 -139zM296 -46v-53
c0 -13 -6 -19 -17 -19h-55c-12 0 -18 6 -18 19v53c0 12 6 18 18 18h55c11 0 17 -6 17 -18z" />
    <glyph glyph-name="uni092B093C" unicode="&#x95e;" horiz-adv-x="743" 
d="M229 247h20c56 0 83 30 83 78v206c0 8 -4 12 -11 12h-157c-7 0 -11 -4 -11 -12v-206c0 -52 25 -78 76 -78zM422 314v-294c0 -13 -6 -20 -19 -20h-52c-13 0 -19 6 -19 19v187h-4c-17 -28 -48 -42 -93 -42h-21c-92 0 -152 59 -152 151v216c0 7 -3 11 -9 12h-58
c-13 0 -19 7 -19 20v42c0 12 6 18 19 18h752c13 0 20 -6 20 -18v-43c0 -13 -7 -19 -20 -19h-314c-7 0 -11 -4 -11 -12v-104h4c16 28 46 42 90 42h25c100 0 160 -59 160 -159v-66c-1 -100 -59 -159 -160 -159h-41c-13 0 -20 6 -20 19v44c0 12 7 18 20 18h29c55 0 82 28 82 83
v57c0 55 -28 82 -85 82h-28c-51 0 -76 -25 -76 -74zM214 13v-53c0 -13 -6 -19 -17 -19h-55c-12 0 -18 6 -18 19v53c0 12 6 18 18 18h55c11 0 17 -6 17 -18z" />
    <glyph glyph-name="uni092F093C" unicode="&#x95f;" horiz-adv-x="575" 
d="M202 461v14c0 47 -21 68 -69 68h-138c-13 0 -19 6 -19 19v43c0 12 6 18 19 18h585c13 0 19 -6 19 -18v-43c0 -13 -6 -19 -19 -19h-66c-7 0 -11 -4 -11 -12v-512c0 -13 -6 -19 -19 -19h-53c-13 0 -19 6 -19 19v118h-4c-19 -35 -57 -53 -114 -53h-52c-61 0 -108 18 -141 54
c-33 37 -50 81 -50 133v105c0 13 6 19 19 19h63c51 0 69 17 69 66zM401 543h-147v-5c23 -12 35 -37 35 -74v-21c0 -85 -46 -127 -138 -127h-11v-45c0 -71 37 -106 112 -106h44c77 0 116 38 116 113v253c0 8 -4 12 -11 12zM177 -3v-53c0 -13 -6 -19 -17 -19h-55
c-12 0 -18 6 -18 19v53c0 12 6 18 18 18h55c11 0 17 -6 17 -18z" />
    <glyph glyph-name="uni0960" unicode="&#x960;" horiz-adv-x="777" 
d="M-5 623h785c13 0 20 -6 20 -18v-43c0 -13 -7 -19 -20 -19h-337c-8 0 -12 -4 -12 -12v-207l118 93c12 9 23 13 34 13h108c13 0 19 -6 19 -19v-176c0 -15 -9 -23 -28 -23h-27c-35 0 -53 -15 -53 -46v-8c0 -32 17 -44 56 -44h43c16 0 24 -7 24 -22v-34c0 -14 -9 -21 -26 -21
h-47c-35 0 -52 -16 -52 -47v-9c0 -30 18 -45 55 -45h60c17 0 25 -7 25 -22v-33c0 -15 -9 -22 -27 -22h-68c-89 0 -134 38 -134 113v23c0 32 14 56 43 73c-27 15 -41 42 -41 81v21c0 68 34 104 102 109c7 1 11 5 11 12v77l-195 -152v-197c0 -13 -6 -19 -19 -19h-52
c-13 0 -19 6 -19 19v127l-170 -134c-11 -8 -21 -12 -31 -12h-71c-10 0 -15 5 -15 15c0 8 5 15 14 22l184 145l86 62v29c0 52 -28 78 -84 78h-33c-54 0 -81 -26 -81 -77v-31c0 -13 -6 -19 -19 -19h-51c-13 0 -20 6 -20 19v36c0 99 59 155 160 155h26c48 0 82 -15 101 -44h4
v141c0 8 -4 12 -12 12h-334c-13 0 -19 6 -19 19v43c0 12 6 18 19 18z" />
    <glyph glyph-name="uni0961" unicode="&#x961;" horiz-adv-x="653" 
d="M-5 623h663c13 0 19 -6 19 -18v-43c0 -13 -6 -19 -19 -19h-66c-7 0 -11 -4 -11 -12v-380c0 -15 -9 -22 -28 -22h-27c-35 0 -53 -16 -53 -47v-8c0 -29 19 -44 56 -44h43c16 0 24 -7 24 -22v-34c0 -14 -9 -21 -26 -21h-46c-35 0 -53 -15 -53 -46v-10c0 -32 16 -44 55 -44
h60c17 0 25 -7 25 -22v-34c0 -14 -9 -21 -27 -21h-67c-90 0 -135 38 -135 113v22c0 33 15 57 44 73c-27 16 -41 43 -41 82v21c0 66 31 102 94 109c7 1 11 5 11 12v76c0 55 -20 74 -65 74s-66 -20 -66 -77v-66c0 -13 -6 -19 -19 -19h-49c-13 0 -19 6 -19 19v72
c0 52 -21 73 -65 73c-45 0 -67 -27 -67 -82v-85c0 -55 27 -82 82 -82h22c13 0 20 -6 20 -18v-44c0 -13 -7 -19 -20 -19h-34c-101 0 -159 56 -159 159v94c0 103 57 160 150 160c59 0 96 -20 111 -61h4c14 40 47 60 98 60c37 0 61 -10 72 -31h4v120c0 7 -3 11 -9 12h-486
c-13 0 -19 6 -19 19v43c0 12 6 18 19 18z" />
    <glyph glyph-name="uni0964" unicode="&#x964;" horiz-adv-x="300" 
d="M126 19v585c0 13 6 19 19 19h53c13 0 19 -6 19 -19v-585c0 -13 -6 -19 -19 -19h-53c-13 0 -19 6 -19 19z" />
    <glyph glyph-name="uni0965" unicode="&#x965;" horiz-adv-x="535" 
d="M361 19v585c0 13 6 19 19 19h53c13 0 19 -6 19 -19v-585c0 -13 -6 -19 -19 -19h-53c-13 0 -19 6 -19 19zM126 19v585c0 13 6 19 19 19h53c13 0 19 -6 19 -19v-585c0 -13 -6 -19 -19 -19h-53c-13 0 -19 6 -19 19z" />
    <glyph glyph-name="uni0966" unicode="&#x966;" horiz-adv-x="520" 
d="M149 486v-329c0 -51 25 -76 75 -76h72c50 0 75 25 75 76v329c0 51 -25 76 -75 76h-72c-50 0 -75 -25 -75 -76zM464 490v-336c0 -97 -58 -154 -154 -154h-100c-96 0 -154 57 -154 154v336c0 96 58 153 154 153h100c96 0 154 -57 154 -153z" />
    <glyph glyph-name="uni0967" unicode="&#x967;" horiz-adv-x="307" 
d="M17 490v55c0 11 4 19 13 24l107 63c11 7 21 11 30 11h56c12 0 18 -6 18 -17v-609c0 -11 -5 -17 -16 -17h-61c-11 0 -16 6 -16 17v527l-112 -63c-13 -6 -19 -3 -19 9z" />
    <glyph glyph-name="uni0968" unicode="&#x968;" horiz-adv-x="461" 
d="M44 16v92c0 43 18 78 54 105l190 154c31 25 47 54 47 88v34c0 51 -26 76 -77 76h-51c-49 0 -74 -25 -74 -76v-37c0 -11 -6 -17 -17 -17h-59c-11 0 -17 6 -17 17v39c0 96 58 152 154 152h78c96 0 154 -56 154 -152v-41c0 -52 -20 -95 -61 -128l-193 -156
c-17 -13 -26 -29 -26 -48v-35h265c11 0 17 -6 17 -17v-50c0 -11 -6 -16 -17 -16h-350c-11 0 -17 5 -17 16z" />
    <glyph glyph-name="uni0969" unicode="&#x969;" horiz-adv-x="493" 
d="M214 361h55c51 0 77 25 77 75v53c0 51 -26 76 -77 76h-61c-49 0 -74 -25 -74 -76v-28c0 -12 -6 -18 -17 -18h-60c-11 0 -16 6 -16 18v30c0 96 57 152 153 152h88c97 0 155 -56 155 -152v-56c0 -58 -27 -95 -81 -112c54 -13 81 -50 81 -112v-59c0 -96 -58 -152 -155 -152
h-88c-96 0 -153 56 -153 152v36c0 11 5 17 16 17h60c11 0 17 -6 17 -17v-34c0 -51 25 -76 74 -76h61c51 0 77 25 77 76v56c0 50 -26 75 -77 75h-55c-11 0 -17 5 -17 16v44c0 11 6 16 17 16z" />
    <glyph glyph-name="uni096A" unicode="&#x96a;" horiz-adv-x="488" 
d="M110 204h202v362zM384 0h-56c-11 0 -16 6 -16 17v106h-267c-18 0 -27 9 -27 27v30c0 13 3 26 9 37l227 402c8 16 20 24 35 24h84c17 0 26 -9 26 -27v-412h74c11 0 16 -5 16 -15v-48c0 -12 -5 -18 -16 -18h-74v-106c0 -13 -3 -17 -15 -17z" />
    <glyph glyph-name="uni096B" unicode="&#x96b;" horiz-adv-x="489" 
d="M352 155v103c0 61 -23 84 -80 84h-63c-27 0 -45 -11 -50 -23c-7 -15 -15 -23 -26 -23h-60c-11 0 -17 6 -17 17v313c0 11 6 17 17 17h337c11 0 17 -5 17 -16v-54c0 -11 -6 -17 -17 -17h-261v-188c13 33 41 50 85 50h61c96 0 148 -51 148 -147v-117
c0 -97 -58 -154 -155 -154h-84c-96 0 -153 57 -153 154v27c0 11 5 17 16 17h59c12 0 18 -6 18 -17v-26c0 -51 24 -77 73 -77h58c51 0 77 26 77 77z" />
    <glyph glyph-name="uni096C" unicode="&#x96c;" horiz-adv-x="508" 
d="M149 242v-85c0 -51 25 -76 75 -76h69c49 0 74 25 74 76v84c0 51 -25 76 -74 76h-65c-53 0 -79 -25 -79 -75zM460 246v-92c0 -96 -58 -154 -153 -154h-97c-96 0 -154 57 -154 154v336c0 96 58 153 154 153h203c12 0 18 -5 18 -16v-49c0 -11 -6 -16 -18 -16h-189
c-50 0 -75 -25 -75 -76v-145c13 38 44 57 94 57h64c97 0 153 -55 153 -152z" />
    <glyph glyph-name="uni096D" unicode="&#x96d;" horiz-adv-x="412" 
d="M152 0h-69c-13 0 -16 6 -10 19l219 537h-253c-11 0 -17 6 -17 17v54c0 11 6 16 17 16h338c11 0 16 -5 16 -16v-59c0 -9 -3 -23 -10 -40l-204 -513c-4 -10 -13 -15 -27 -15z" />
    <glyph glyph-name="uni096E" unicode="&#x96e;" horiz-adv-x="522" 
d="M466 491v-46c0 -61 -23 -102 -69 -121c46 -21 69 -62 69 -123v-49c0 -96 -57 -152 -153 -152h-103c-96 0 -154 56 -154 152v50c0 61 23 101 68 122c-45 21 -68 61 -68 121v46c0 96 58 152 154 152h103c96 0 153 -56 153 -152zM149 487v-48c0 -51 25 -77 75 -77h75
c49 0 74 26 74 77v48c0 50 -25 75 -74 75h-75c-50 0 -75 -25 -75 -75zM373 156v52c0 52 -25 78 -74 78h-75c-50 0 -75 -26 -75 -78v-52c0 -50 25 -75 75 -75h75c49 0 74 25 74 75z" />
    <glyph glyph-name="uni096F" unicode="&#x96f;" horiz-adv-x="499" 
d="M193 643h96c96 0 154 -57 154 -153v-336c0 -97 -58 -154 -154 -154h-203c-11 0 -17 5 -17 16v50c0 10 6 15 17 15h189c50 0 75 25 75 76v82h-157c-96 0 -154 57 -154 153v98c0 96 58 153 154 153zM207 321h143v165c0 51 -25 76 -75 76h-68c-50 0 -75 -25 -75 -76v-89
c0 -51 25 -76 75 -76z" />
    <glyph glyph-name="uni0970" unicode="&#x970;" horiz-adv-x="424" 
d="M134 330v-28c0 -52 20 -75 73 -75h12c53 0 74 23 74 75v28c0 52 -21 74 -74 74h-12c-53 0 -73 -22 -73 -74zM382 333v-34c0 -93 -55 -147 -148 -147h-42c-93 0 -148 54 -148 147v34c0 93 55 146 148 146h42c93 0 148 -53 148 -146z" />
    <glyph glyph-name="uni0972" unicode="&#x972;" horiz-adv-x="605" 
d="M594 854h36c15 0 23 -9 23 -27v-4c0 -86 -39 -129 -118 -129h-93c-77 0 -119 45 -119 126v7c0 18 8 27 23 27h38c14 0 21 -8 21 -25v-9c0 -36 15 -51 52 -51h63c37 0 51 15 51 51v9c0 17 8 25 23 25zM478 623h131c13 0 20 -6 20 -18v-43c0 -13 -7 -19 -20 -19h-65
c-7 0 -11 -4 -11 -12v-512c0 -13 -6 -19 -19 -19h-53c-13 0 -19 6 -19 19v186c0 8 -4 12 -11 12h-99v-21c0 -101 -59 -159 -162 -159h-114c-13 0 -20 6 -20 19v43c0 13 7 19 20 19h108c53 0 79 25 79 76v28c0 51 -24 74 -79 74h-52c-13 0 -19 7 -19 20v42c0 13 6 20 19 20
h52c53 0 79 25 79 75v14c0 52 -24 76 -79 76h-77c-13 0 -19 6 -19 19v43c0 12 6 18 19 18h88c105 0 157 -53 157 -159v-16c0 -54 -20 -90 -60 -109v-4c21 -7 36 -20 46 -39h113c7 0 11 4 11 12v277c0 23 13 38 36 38z" />
    <glyph glyph-name="Wgrave" unicode="&#x1e80;" horiz-adv-x="803" 
d="M424 707h-48c-9 0 -17 4 -23 12l-85 100c-7 9 -2 17 9 17h78c12 0 20 -5 25 -16l52 -96c5 -11 3 -17 -8 -17zM267 0h-106c-12 0 -19 6 -21 17l-119 609c-1 11 4 17 17 17h77c13 0 19 -6 20 -17l81 -524h6l118 526c1 10 7 15 18 15h84c11 0 17 -5 19 -15l119 -526h6
l81 523c1 12 7 18 20 18h77c13 0 19 -6 17 -18l-119 -608c-2 -11 -9 -17 -20 -17h-106c-11 0 -18 6 -20 17l-113 506h-4l-113 -506c-2 -11 -8 -17 -19 -17z" />
    <glyph glyph-name="wgrave" unicode="&#x1e81;" horiz-adv-x="690" 
d="M367 574h-48c-9 0 -17 4 -23 12l-84 100c-8 11 -4 17 8 17h78c12 0 21 -5 26 -16l51 -96c6 -11 3 -17 -8 -17zM242 0h-86c-10 0 -17 6 -20 17l-115 476c-3 11 1 17 12 17h72c12 0 19 -6 20 -17l73 -378h7l88 378c2 11 8 17 19 17h66c11 0 18 -6 21 -17l86 -378h7l73 378
c2 11 9 17 20 17h72c11 0 15 -6 12 -17l-115 -476c-2 -11 -9 -17 -20 -17h-86c-11 0 -17 6 -20 17l-80 371h-7l-79 -371c-2 -11 -9 -17 -20 -17z" />
    <glyph glyph-name="Wacute" unicode="&#x1e82;" horiz-adv-x="803" 
d="M451 836h78c11 0 15 -8 7 -17l-84 -100c-5 -8 -13 -12 -22 -12h-49c-11 0 -14 6 -8 17l52 96c5 11 14 16 26 16zM267 0h-106c-12 0 -19 6 -21 17l-119 609c-1 11 4 17 17 17h77c13 0 19 -6 20 -17l81 -524h6l118 526c1 10 7 15 18 15h84c11 0 17 -5 19 -15l119 -526h6
l81 523c1 12 7 18 20 18h77c13 0 19 -6 17 -18l-119 -608c-2 -11 -9 -17 -20 -17h-106c-11 0 -18 6 -20 17l-113 506h-4l-113 -506c-2 -11 -8 -17 -19 -17z" />
    <glyph glyph-name="wacute" unicode="&#x1e83;" horiz-adv-x="690" 
d="M391 703h78c11 0 15 -6 8 -17l-84 -100c-6 -8 -14 -12 -24 -12h-47c-11 0 -13 6 -8 17l52 96c5 11 13 16 25 16zM242 0h-86c-10 0 -17 6 -20 17l-115 476c-3 11 1 17 12 17h72c12 0 19 -6 20 -17l73 -378h7l88 378c2 11 8 17 19 17h66c11 0 18 -6 21 -17l86 -378h7
l73 378c2 11 9 17 20 17h72c11 0 15 -6 12 -17l-115 -476c-2 -11 -9 -17 -20 -17h-86c-11 0 -17 6 -20 17l-80 371h-7l-79 -371c-2 -11 -9 -17 -20 -17z" />
    <glyph glyph-name="Wdieresis" unicode="&#x1e84;" horiz-adv-x="803" 
d="M265 724v95c0 11 5 17 16 17h60c11 0 16 -5 16 -16v-96c0 -11 -5 -17 -16 -17h-60c-11 0 -16 6 -16 17zM445 724v95c0 11 5 17 16 17h60c11 0 16 -5 16 -16v-96c0 -11 -5 -17 -16 -17h-60c-11 0 -16 6 -16 17zM267 0h-106c-12 0 -19 6 -21 17l-119 609c-1 11 4 17 17 17
h77c13 0 19 -6 20 -17l81 -524h6l118 526c1 10 7 15 18 15h84c11 0 17 -5 19 -15l119 -526h6l81 523c1 12 7 18 20 18h77c13 0 19 -6 17 -18l-119 -608c-2 -11 -9 -17 -20 -17h-106c-11 0 -18 6 -20 17l-113 506h-4l-113 -506c-2 -11 -8 -17 -19 -17z" />
    <glyph glyph-name="wdieresis" unicode="&#x1e85;" horiz-adv-x="690" 
d="M209 591v95c0 11 5 17 16 17h60c11 0 16 -5 16 -16v-96c0 -11 -5 -17 -16 -17h-60c-11 0 -16 6 -16 17zM389 591v95c0 11 5 17 16 17h60c11 0 16 -5 16 -16v-96c0 -11 -5 -17 -16 -17h-60c-11 0 -16 6 -16 17zM242 0h-86c-10 0 -17 6 -20 17l-115 476c-3 11 1 17 12 17
h72c12 0 19 -6 20 -17l73 -378h7l88 378c2 11 8 17 19 17h66c11 0 18 -6 21 -17l86 -378h7l73 378c2 11 9 17 20 17h72c11 0 15 -6 12 -17l-115 -476c-2 -11 -9 -17 -20 -17h-86c-11 0 -17 6 -20 17l-80 371h-7l-79 -371c-2 -11 -9 -17 -20 -17z" />
    <glyph glyph-name="uni1E9E" unicode="&#x1e9e;" horiz-adv-x="560" 
d="M151 0h-64c-11 0 -17 6 -17 17v471c0 99 57 155 156 155h241c13 0 19 -6 19 -17v-59c0 -9 -2 -17 -6 -25l-89 -167v-4h11c73 -4 110 -45 110 -124v-93c0 -97 -59 -154 -156 -154h-84c-12 0 -18 5 -18 16v50c0 11 6 17 18 17h72c48 0 72 24 72 73v64c0 51 -23 76 -68 76
h-41c-11 0 -17 6 -17 17v42c0 13 2 23 7 30l89 172h-146c-48 0 -72 -24 -72 -73v-467c0 -11 -6 -17 -17 -17z" />
    <glyph glyph-name="Ygrave" unicode="&#x1ef2;" horiz-adv-x="508" 
d="M302 692h-42c-9 0 -17 4 -22 11l-78 96c-8 9 -4 16 7 16h70c11 0 20 -5 25 -15l48 -92c5 -11 3 -16 -8 -16zM286 0h-64c-11 0 -17 6 -17 17v221l-187 387c-5 11 2 18 11 18h80c9 0 15 -6 20 -17l123 -275h6l121 275c4 11 11 17 20 17h80c11 0 16 -7 11 -18l-187 -387
v-221c0 -11 -6 -17 -17 -17z" />
    <glyph glyph-name="ygrave" unicode="&#x1ef3;" horiz-adv-x="467" 
d="M276 574h-42c-9 0 -17 4 -22 11l-78 96c-8 9 -4 16 7 16h70c11 0 20 -5 25 -15l48 -92c5 -11 3 -16 -8 -16zM123 -162h-53c-11 0 -17 6 -17 17v51c0 12 6 18 17 18h23c41 0 69 8 84 24c16 16 29 42 40 79h-40c-10 0 -17 6 -21 17l-133 449c-3 11 2 17 13 17h67
c11 0 17 -6 20 -17l109 -392h4l109 392c2 11 9 17 20 17h64c13 0 18 -6 16 -18l-137 -481c-31 -112 -81 -173 -185 -173z" />
    <glyph glyph-name="uni200B" unicode="&#x200b;" horiz-adv-x="0" 
 />
    <glyph glyph-name="uni200C" unicode="&#x200c;" horiz-adv-x="0" 
d="M24 811v-1041h-47v1041h47z" />
    <glyph glyph-name="uni200D" unicode="&#x200d;" horiz-adv-x="0" 
d="M24 635v-865h-47v865l-69 -73l-33 33l93 93l-95 95l33 33l95 -95l96 95l32 -32l-96 -96l96 -95l-33 -33z" />
    <glyph glyph-name="endash" unicode="&#x2013;" horiz-adv-x="400" 
d="M343 291h-286c-11 0 -17 6 -17 17v33c0 12 6 18 17 18h286c11 0 17 -6 17 -18v-33c0 -11 -6 -17 -17 -17z" />
    <glyph glyph-name="emdash" unicode="&#x2014;" horiz-adv-x="597" 
d="M40 308v33c0 12 6 18 17 18h483c11 0 17 -6 17 -18v-33c0 -11 -6 -17 -17 -17h-483c-11 0 -17 6 -17 17z" />
    <glyph glyph-name="quoteleft" unicode="&#x2018;" horiz-adv-x="183" 
d="M47 420v45c0 18 6 42 18 72l43 97c3 6 7 9 14 9c9 0 14 -5 14 -16v-206c0 -11 -5 -17 -16 -17h-57c-11 0 -16 5 -16 16z" />
    <glyph glyph-name="quoteright" unicode="&#x2019;" horiz-adv-x="183" 
d="M136 627v-45c0 -19 -6 -42 -18 -71l-43 -98c-3 -6 -8 -9 -15 -9c-9 0 -13 5 -13 16v206c0 11 5 17 16 17h57c11 0 16 -5 16 -16z" />
    <glyph glyph-name="quotesinglbase" unicode="&#x201a;" horiz-adv-x="187" 
d="M139 113v-44c0 -17 -6 -41 -19 -72l-42 -98c-3 -5 -8 -8 -15 -8c-9 0 -14 5 -14 15v207c0 11 6 16 17 16h56c11 0 17 -5 17 -16z" />
    <glyph glyph-name="quotedblleft" unicode="&#x201c;" horiz-adv-x="340" 
d="M204 420v45c0 19 6 43 19 72l42 97c4 6 9 9 15 9c9 0 14 -5 14 -16v-206c0 -11 -5 -17 -16 -17h-57c-11 0 -17 5 -17 16zM47 420v45c0 18 6 42 18 72l43 97c3 6 7 9 14 9c9 0 14 -5 14 -16v-206c0 -11 -5 -17 -16 -17h-57c-11 0 -16 5 -16 16z" />
    <glyph glyph-name="quotedblright" unicode="&#x201d;" horiz-adv-x="340" 
d="M136 627v-45c0 -19 -6 -42 -18 -71l-43 -98c-3 -6 -8 -9 -15 -9c-9 0 -13 5 -13 16v206c0 11 5 17 16 17h57c11 0 16 -5 16 -16zM294 627v-45c0 -17 -6 -40 -19 -71l-42 -98c-3 -6 -8 -9 -15 -9c-9 0 -14 5 -14 16v206c0 11 6 17 17 17h57c11 0 16 -5 16 -16z" />
    <glyph glyph-name="quotedblbase" unicode="&#x201e;" horiz-adv-x="345" 
d="M139 113v-45c0 -17 -6 -41 -19 -72l-42 -97c-3 -6 -8 -9 -15 -9c-9 0 -14 5 -14 16v206c0 11 6 17 17 17h56c11 0 17 -5 17 -16zM296 113v-45c0 -18 -6 -42 -18 -72l-43 -97c-3 -6 -8 -9 -15 -9c-9 0 -13 5 -13 16v206c0 11 5 17 16 17h57c11 0 16 -5 16 -16z" />
    <glyph glyph-name="dagger" unicode="&#x2020;" horiz-adv-x="415" 
d="M216 0h-20c-12 0 -18 6 -19 17c-3 23 -8 72 -13 145c-5 74 -7 128 -7 163s4 66 12 91l-119 -13c-12 -1 -17 5 -17 18v53c0 11 6 17 17 16l121 -15l-14 151c-2 11 4 17 17 17h64c11 0 17 -6 17 -17l-15 -151l125 15c12 1 18 -5 18 -16v-53c0 -13 -6 -19 -18 -18l-123 13
c9 -26 13 -56 13 -91s-3 -89 -8 -163c-5 -73 -9 -122 -12 -145c-2 -11 -8 -17 -19 -17z" />
    <glyph glyph-name="daggerdbl" unicode="&#x2021;" horiz-adv-x="415" 
d="M33 421v53c0 11 6 17 17 16l121 -15l-14 151c-2 11 4 17 17 17h64c11 0 17 -6 17 -17l-15 -151l125 15c12 1 18 -5 18 -16v-53c0 -13 -6 -19 -18 -18l-123 13c9 -26 13 -58 13 -96c0 -37 -4 -69 -13 -95l123 13c12 2 18 -4 18 -17v-54c0 -12 -6 -17 -18 -15l-125 14
l15 -149c0 -11 -6 -17 -17 -17h-64c-13 0 -19 6 -17 17l14 148l-121 -13c-11 -2 -17 3 -17 15v54c0 12 5 18 17 17l120 -12c-8 24 -12 55 -12 93c0 39 4 71 12 97l-120 -13c-12 -1 -17 5 -17 18z" />
    <glyph glyph-name="bullet" unicode="&#x2022;" horiz-adv-x="286" 
d="M215 362v-84c0 -35 -18 -52 -53 -52h-39c-35 0 -52 17 -52 52v84c0 35 17 52 52 52h39c33 0 53 -19 53 -52z" />
    <glyph glyph-name="ellipsis" unicode="&#x2026;" horiz-adv-x="601" 
d="M150 139v-122c0 -11 -5 -17 -16 -17h-68c-11 0 -17 6 -17 18v121c0 11 6 16 17 16h68c11 0 16 -5 16 -16zM353 139v-122c0 -11 -5 -17 -15 -17h-69c-11 0 -16 6 -16 18v121c0 11 5 16 16 16h69c10 0 15 -5 15 -16zM552 139v-122c0 -11 -5 -17 -16 -17h-68
c-11 0 -17 6 -17 18v121c0 11 6 16 17 16h68c11 0 16 -5 16 -16z" />
    <glyph glyph-name="perthousand" unicode="&#x2030;" horiz-adv-x="1046" 
d="M159 645h46c73 0 109 -37 109 -110v-82c0 -73 -36 -110 -109 -110h-46c-73 0 -109 37 -109 110v82c0 73 36 110 109 110zM255 0h-39c-12 0 -16 6 -12 18c15 40 57 142 125 306s109 264 124 301c5 12 13 18 23 18h39c14 0 18 -6 12 -19l-249 -606c-4 -12 -12 -18 -23 -18z
M193 587h-21c-40 0 -53 -14 -53 -55v-76c0 -41 13 -55 53 -55h21c40 0 52 15 52 55v76c0 40 -12 55 -52 55zM526 302h46c73 0 109 -37 109 -110v-82c0 -73 -36 -110 -109 -110h-46c-73 0 -109 37 -109 110v82c0 73 36 110 109 110zM560 244h-20c-41 0 -53 -14 -53 -55v-75
c0 -41 12 -56 53 -56h20c40 0 53 15 53 56v75c0 41 -13 55 -53 55zM883 244h-21c-40 0 -53 -14 -53 -55v-75c0 -41 13 -56 53 -56h21c39 0 52 15 52 56v75c0 40 -12 55 -52 55zM849 302h46c73 0 109 -37 109 -110v-82c0 -73 -36 -110 -109 -110h-46c-73 0 -110 37 -110 110
v82c0 73 37 110 110 110z" />
    <glyph glyph-name="guilsinglleft" unicode="&#x2039;" horiz-adv-x="284" 
d="M231 144v-49c0 -12 -7 -16 -18 -8l-144 122c-11 8 -16 18 -16 31v33c0 12 5 22 16 30l144 122c11 8 18 4 18 -8v-49c0 -10 -5 -18 -15 -25l-101 -87l101 -87c10 -7 15 -15 15 -25z" />
    <glyph glyph-name="guilsinglright" unicode="&#x203a;" horiz-adv-x="284" 
d="M53 368v49c0 12 6 16 17 8l145 -122c11 -8 16 -18 16 -30v-33c0 -13 -5 -23 -16 -31l-145 -122c-11 -8 -17 -4 -17 8v49c0 9 5 18 14 25l102 87l-102 87c-9 7 -14 15 -14 25z" />
    <glyph glyph-name="fraction" unicode="&#x2044;" horiz-adv-x="109" 
d="M-164 0h-32c-12 0 -17 7 -9 18c127 173 276 375 447 607c9 12 19 18 29 18h34c12 0 17 -8 9 -19l-447 -606c-9 -12 -19 -18 -31 -18z" />
    <glyph glyph-name="Euro" unicode="&#x20ac;" horiz-adv-x="538" 
d="M318 0h-65c-97 0 -156 56 -156 153v68h-50c-13 0 -19 6 -19 19v31c0 13 6 19 19 19h50v58h-50c-13 0 -19 6 -19 19v30c0 13 6 19 19 19h50v74c0 97 59 153 156 153h65c97 0 156 -56 156 -153v-23c0 -11 -6 -17 -17 -17h-64c-11 0 -17 6 -17 17v21c0 48 -24 72 -73 72h-35
c-50 0 -75 -24 -75 -72v-72h117c13 0 19 -6 19 -19v-30c0 -13 -6 -19 -19 -19h-117v-58h117c13 0 19 -6 19 -19v-31c0 -13 -6 -19 -19 -19h-117v-66c0 -48 25 -72 75 -72h35c49 0 73 24 73 72v21c0 11 6 17 17 17h64c11 0 17 -6 17 -17v-23c0 -97 -59 -153 -156 -153z" />
    <glyph glyph-name="uni20B9" unicode="&#x20b9;" horiz-adv-x="481" 
d="M420 543h-120v-4c18 -9 27 -27 27 -53v-14h93c13 0 20 -6 20 -18v-43c0 -13 -7 -19 -20 -19h-93v-11c0 -96 -62 -153 -158 -153h-20l160 -194c5 -6 7 -11 7 -16c0 -12 -6 -18 -17 -18h-61c-6 0 -12 4 -19 12l-147 187l-29 30v57c0 15 8 22 24 22h89c53 0 79 24 79 72v12
h-172c-13 0 -20 6 -20 19v44c0 11 7 17 20 17h172v17c0 36 -19 54 -58 54h-114c-13 0 -20 6 -20 19v43c0 12 7 18 20 18h357c13 0 20 -6 20 -18v-43c0 -13 -7 -19 -20 -19z" />
    <glyph glyph-name="trademark" unicode="&#x2122;" horiz-adv-x="590" 
d="M478 643h50c6 0 9 -3 9 -9v-226c0 -7 -3 -10 -9 -10h-29c-7 0 -10 3 -10 10v171h-3l-47 -111c-3 -7 -7 -10 -10 -10h-32c-5 0 -9 3 -11 10l-48 111h-3v-171c0 -7 -3 -10 -9 -10h-30c-6 0 -9 3 -9 10v226c0 6 3 9 10 9h50c5 0 8 -2 10 -7l54 -122h3l55 122c1 5 4 7 9 7z
M125 408v192h-63c-6 0 -9 3 -9 10v24c0 6 3 9 9 9h172c7 0 10 -3 10 -9v-24c0 -7 -3 -10 -10 -10h-61v-192c0 -7 -3 -10 -9 -10h-29c-7 0 -10 3 -10 10z" />
    <glyph glyph-name="uni2126" unicode="&#x2126;" horiz-adv-x="649" 
d="M291 69v-52c0 -11 -6 -17 -17 -17h-217c-11 0 -17 6 -17 17v52c0 12 6 18 17 18h79v4c-31 25 -46 62 -46 112v286c0 97 58 154 157 154h155c97 0 156 -57 156 -154v-286c0 -50 -15 -87 -46 -112v-4h79c12 0 18 -6 18 -18v-52c0 -11 -6 -17 -18 -17h-217
c-11 0 -17 6 -17 17v52c0 12 6 18 17 18h15c48 0 72 25 72 74v324c0 47 -25 71 -74 71h-125c-49 0 -74 -24 -74 -71v-324c0 -49 24 -74 71 -74h15c11 0 17 -6 17 -18z" />
    <glyph glyph-name="partialdiff" unicode="&#x2202;" horiz-adv-x="511" 
d="M277 325h-41c-52 0 -78 -25 -78 -74v-92c0 -49 24 -74 72 -74h51c48 0 72 25 72 74v81c0 57 -25 85 -76 85zM145 563c-13 0 -19 6 -19 17v43c0 17 10 25 29 25c101 0 176 -24 224 -72c48 -47 72 -132 72 -253v-168c0 -97 -58 -155 -155 -155h-80c-99 0 -156 58 -156 155
v100c0 99 57 155 156 155h39c48 0 91 -20 106 -53h4c0 78 -17 132 -52 161c-35 30 -91 45 -168 45z" />
    <glyph glyph-name="uni2206" unicode="&#x2206;" horiz-adv-x="642" 
d="M283 643h77c11 0 20 -6 25 -17l225 -608c5 -12 1 -18 -10 -18h-557c-12 0 -16 6 -11 18l225 608c5 11 14 17 26 17zM323 547h-4l-161 -460h326z" />
    <glyph glyph-name="minus" unicode="&#x2212;" horiz-adv-x="549" 
d="M89 362h371c13 0 19 -7 19 -20v-42c0 -13 -6 -19 -19 -19h-371c-13 0 -19 6 -19 19v42c0 13 6 20 19 20z" />
    <glyph glyph-name="approxequal" unicode="&#x2248;" horiz-adv-x="549" 
d="M82 184c-8 0 -12 4 -12 12v44c0 13 8 24 24 31c26 10 51 15 76 15s60 -5 103 -16c44 -11 76 -16 97 -16s42 4 63 13s32 14 34 14c8 0 12 -4 12 -12v-44c0 -13 -8 -23 -24 -30c-26 -10 -52 -15 -78 -15c-25 0 -61 5 -106 15c-45 11 -77 16 -96 16s-38 -5 -59 -14
c-20 -9 -31 -13 -34 -13zM82 361c-8 0 -12 4 -12 12v44c0 13 8 23 24 30c26 10 51 15 76 15s60 -5 103 -16c44 -10 76 -15 97 -15s42 4 63 13s32 14 34 14c8 0 12 -4 12 -12v-44c0 -13 -8 -23 -24 -30c-47 -20 -93 -20 -184 0c-45 11 -77 16 -96 16s-38 -5 -59 -14
c-20 -9 -31 -13 -34 -13z" />
    <glyph glyph-name="notequal" unicode="&#x2260;" horiz-adv-x="549" 
d="M215 90h-34c-13 0 -17 6 -12 18l26 78h-106c-13 0 -19 7 -19 20v41c0 13 6 19 19 19h132l38 111h-170c-15 0 -19 4 -19 19v41c0 15 4 19 19 19h196l26 76c5 12 13 18 24 18h33c14 0 18 -6 13 -18l-25 -76h104c15 0 19 -4 19 -19v-41c0 -15 -4 -19 -19 -19h-130l-38 -111
h168c13 0 19 -6 19 -19v-41c0 -13 -6 -20 -19 -20h-194l-28 -78c-4 -12 -12 -18 -23 -18z" />
    <glyph glyph-name="lessequal" unicode="&#x2264;" horiz-adv-x="549" 
d="M479 294v-44c0 -12 -7 -16 -20 -12l-367 92c-15 4 -22 14 -22 29v42c0 17 7 27 22 30l367 92c13 4 20 0 20 -11v-44c0 -14 -5 -22 -15 -24l-286 -64l286 -63c10 -2 15 -10 15 -23zM89 193h371c13 0 19 -6 19 -19v-39c0 -13 -6 -19 -19 -19h-371c-13 0 -19 6 -19 19v39
c0 13 6 19 19 19z" />
    <glyph glyph-name="greaterequal" unicode="&#x2265;" horiz-adv-x="549" 
d="M89 193h371c13 0 19 -6 19 -19v-39c0 -13 -6 -19 -19 -19h-371c-13 0 -19 6 -19 19v39c0 13 6 19 19 19zM70 250v44c0 13 5 21 15 23l286 63l-286 64c-10 2 -15 10 -15 24v44c0 11 7 15 20 11l368 -92c14 -3 21 -13 21 -30v-42c0 -16 -7 -26 -21 -29l-368 -92
c-13 -4 -20 0 -20 12z" />
    <glyph glyph-name="uni25CC" unicode="&#x25cc;" horiz-adv-x="701" 
d="M297 539c-16 17 -16 47 0 63c17 17 47 17 63 0c17 -16 17 -46 0 -63c-16 -16 -46 -16 -63 0zM455 512c-24 0 -44 20 -44 45s19 44 44 44c58 5 57 -93 0 -89zM518 456c-16 17 -16 47 0 64c17 17 47 17 63 0c17 -16 17 -47 0 -64c-16 -16 -46 -16 -63 0zM568 338
c-16 16 -16 48 0 64s47 16 63 -1c17 -16 17 -46 0 -63c-16 -16 -47 -16 -63 0zM590 192c-24 0 -44 19 -44 44c0 27 20 45 44 45c57 4 57 -94 0 -89zM485 106c-16 17 -16 47 0 63c17 17 47 17 64 0c17 -16 17 -46 0 -63c-17 -16 -47 -16 -64 0zM364 53c-16 17 -16 47 0 63
c16 17 48 17 64 0c17 -16 17 -46 0 -63c-16 -16 -48 -16 -64 0zM270 55c-58 -4 -58 94 0 90c57 4 57 -94 0 -90zM167 132c-56 -6 -56 93 1 88c57 4 58 -92 -1 -88zM84 261c-16 16 -16 46 0 63c17 17 47 17 63 0c17 -16 17 -47 0 -63c-16 -16 -46 -16 -63 0zM98 386
c-17 17 -17 47 0 63c17 17 47 17 64 0c17 -16 17 -46 0 -63c-17 -16 -47 -16 -64 0zM211 483c-57 -5 -57 94 0 89c57 5 57 -94 0 -89z" />
    <glyph glyph-name="commaaccent" unicode="&#xf6c3;" horiz-adv-x="0" 
d="M290 -48v-47c0 -19 -6 -39 -19 -60l-42 -74c-4 -6 -9 -9 -16 -9c-9 0 -13 5 -13 16v173c0 11 5 17 16 17h57c11 0 17 -5 17 -16z" />
    <glyph glyph-name="itfLogo" horiz-adv-x="1734" 
d="M1603 237h-207v196h207v-196zM1603 475h-207v196h207v-196zM1354 0h-208v671h208v-671zM1104 475h-208v196h208v-196zM854 0h-207v671h207v-671zM604 475h-207v196h207v-196zM354 0h-207v671h207v-671z" />
    <glyph glyph-name="uni0915094D" horiz-adv-x="522" 
d="M512 388h-27c-51 0 -76 -25 -76 -74v-294c0 -13 -7 -20 -20 -20h-51c-12 0 -18 7 -18 20v107h-4c-16 -28 -46 -42 -90 -42h-25c-100 0 -160 59 -160 159v66c1 100 59 159 160 159h41c13 0 20 -6 20 -19v-43c0 -13 -7 -19 -20 -19h-29c-55 0 -82 -27 -82 -82v-57
c0 -53 30 -83 85 -83h28c49 0 76 27 76 75v290c0 8 -4 12 -11 12h-314c-13 0 -19 6 -19 19v43c0 12 6 18 19 18h646c13 0 19 -6 19 -18v-43c0 -13 -6 -19 -19 -19h-221c-7 0 -11 -4 -11 -12v-104h4c15 28 45 42 90 42h25c61 0 104 -23 127 -69c4 -12 7 -20 -10 -32l-27 -21
c-12 -9 -20 -11 -32 6c-15 23 -40 35 -74 35z" />
    <glyph glyph-name="uni0916094D" horiz-adv-x="489" 
d="M486 117h-34c-92 0 -139 57 -139 149v45c0 89 53 145 150 145h18c14 0 21 -7 21 -20v-42c0 -12 -7 -18 -21 -18h-10c-51 0 -70 -23 -70 -76v-28c0 -55 21 -77 73 -77h6c26 0 46 6 60 17c4 4 9 9 15 16c13 15 20 13 32 4l17 -14c16 -12 13 -16 8 -32
c-29 -46 -71 -69 -126 -69zM-5 623h585c13 0 20 -6 20 -18v-43c0 -13 -7 -19 -20 -19h-296c-7 0 -11 -4 -11 -12v-146c0 -81 -44 -128 -117 -131h-20l144 -222c3 -5 5 -9 5 -14c0 -12 -6 -18 -17 -18h-57c-7 0 -13 4 -20 12l-134 209l-25 33v57c0 15 8 22 23 22h76
c35 0 53 19 53 57v141c0 7 -3 11 -10 12h-179c-13 0 -19 6 -19 19v43c0 12 6 18 19 18z" />
    <glyph glyph-name="uni0917094D" horiz-adv-x="277" 
d="M281 543h-51c-7 0 -11 -4 -11 -12v-174c0 -105 -56 -159 -155 -159h-22c-13 0 -19 6 -19 19v45c0 13 6 19 19 19h8c52 0 78 26 78 79v171c0 7 -3 11 -10 12h-123c-13 0 -19 6 -19 19v43c0 12 6 18 19 18h286c13 0 20 -6 20 -18v-43c0 -13 -7 -19 -20 -19z" />
    <glyph glyph-name="uni0918094D" horiz-adv-x="307" 
d="M211 158h74c27 0 50 10 69 30c5 4 18 19 25 27c8 9 20 9 31 0l21 -17c16 -12 13 -20 8 -31c-38 -61 -87 -92 -148 -92h-93c-93 0 -146 52 -146 145v33c0 49 19 80 58 93v4c-39 14 -58 44 -58 89v42c0 29 10 48 29 58v4h-86c-13 0 -19 7 -19 20v42c0 12 6 18 19 18h423
c13 0 20 -6 20 -18v-43c0 -13 -7 -19 -20 -19h-228c-32 0 -48 -18 -48 -55v-43c0 -36 18 -54 53 -54h62c13 0 20 -6 20 -19v-43c0 -13 -7 -19 -20 -19h-62c-35 0 -53 -18 -53 -55v-27c0 -52 18 -70 69 -70z" />
    <glyph glyph-name="uni0919094D" horiz-adv-x="529" 
d="M208 -52h49c11 0 20 -6 28 -17l91 -133c3 -5 5 -9 5 -13c0 -12 -6 -18 -17 -18h-58c-8 0 -15 5 -22 14l-88 143c-2 3 -3 6 -3 9c0 10 5 15 15 15zM507 357v-53c0 -13 -6 -19 -17 -19h-55c-12 0 -18 6 -18 19v53c0 12 6 18 18 18h55c11 0 17 -6 17 -18zM-5 623h539
c13 0 19 -6 19 -18v-44c0 -12 -6 -18 -19 -18h-137c-7 0 -11 -4 -11 -12v-105c0 -29 -15 -43 -46 -43h-145c-36 0 -50 -10 -50 -46v-8c0 -36 14 -46 50 -46h91c81 0 128 -38 128 -114v-47c0 -77 -48 -122 -128 -122h-88c-96 0 -147 36 -147 135v6c0 15 7 23 20 23h48
c12 0 18 -8 18 -23v-6c0 -47 17 -56 69 -56h67c35 0 50 14 50 50v30c0 37 -15 50 -50 50h-85c-91 0 -132 33 -132 114v23c0 77 49 117 132 117h97c7 0 11 4 11 12v56c0 8 -3 12 -10 12h-291c-13 0 -19 6 -19 18v44c0 12 6 18 19 18z" />
    <glyph glyph-name="uni091A094D" horiz-adv-x="344" 
d="M319 89h-62c-100 0 -157 56 -157 156v30c0 43 14 72 41 86v4h-99c-13 0 -19 6 -19 18v44c0 13 6 19 19 19h279c13 0 19 -6 19 -19v-44c0 -12 -6 -18 -19 -18h-56c-51 0 -76 -27 -76 -82v-33c0 -53 27 -80 82 -80h46c32 0 61 18 69 26c5 4 12 11 22 22c20 21 27 18 39 9
l20 -16c16 -15 13 -27 8 -32c-37 -60 -89 -90 -156 -90zM459 543h-464c-13 0 -19 6 -19 19v43c0 12 6 18 19 18h464c13 0 20 -6 20 -18v-43c0 -13 -7 -19 -20 -19z" />
    <glyph glyph-name="uni091B094D" horiz-adv-x="564" 
d="M-5 623h573c13 0 20 -6 20 -18v-42c0 -13 -7 -20 -20 -20h-356c-40 0 -60 -21 -60 -64v-68c0 -36 18 -54 54 -54h35c13 0 20 -6 20 -19v-43c0 -11 -7 -17 -20 -17h-28c-41 0 -61 -21 -61 -62v-26c0 -51 21 -68 74 -68h116c55 0 79 23 79 78v133c0 31 -16 47 -47 47h-34
c-13 0 -19 6 -19 19v43c0 12 6 18 19 18h41c85 0 128 -43 128 -129v-143c0 -84 -53 -149 -149 -149h-143c-97 0 -156 50 -156 142v36c0 51 19 84 58 97v4c-39 9 -58 36 -58 80v79c0 31 11 52 32 62v4h-98c-13 0 -19 7 -19 20v42c0 12 6 18 19 18z" />
    </font>
</defs>
</svg>
