<?xml version="1.0" standalone="no"?>
<!DOCTYPE svg PUBLIC "-//W3C//DTD SVG 1.1//EN" "http://www.w3.org/Graphics/SVG/1.1/DTD/svg11.dtd" >
<svg xmlns="http://www.w3.org/2000/svg" xmlns:xlink="http://www.w3.org/1999/xlink" version="1.1">
<metadata>
Created by FontForge 20201107 at Fri May 12 16:46:47 2017
 By Jimmy Wärting
Copyright (c) 2014 Indian Type Foundry (info@indiantypefoundry.com)
</metadata>
<defs>
<font id="SVN-RajdhaniLight" horiz-adv-x="230" >
  <font-face 
    font-family="SVN-Rajdhani Light"
    font-weight="300"
    font-stretch="normal"
    units-per-em="1000"
    panose-1="2 0 0 0 0 0 0 0 0 0"
    ascent="800"
    descent="-200"
    x-height="510"
    cap-height="643"
    bbox="-404 -306 2018 972"
    underline-thickness="50"
    underline-position="-100"
    unicode-range="U+000D-F6C3"
  />
<missing-glyph horiz-adv-x="600" 
d="M430 536h-260v-490h260v490zM480 0h-360v582h360v-582z" />
    <glyph glyph-name=".notdef" horiz-adv-x="600" 
d="M430 536h-260v-490h260v490zM480 0h-360v582h360v-582z" />
    <glyph glyph-name="_1" horiz-adv-x="0" 
 />
    <glyph glyph-name="CR.001" horiz-adv-x="333" 
 />
    <glyph glyph-name="NULL" horiz-adv-x="0" 
 />
    <glyph glyph-name="NULL" horiz-adv-x="0" 
 />
    <glyph glyph-name="CR" unicode="&#xd;" horiz-adv-x="0" 
 />
    <glyph glyph-name="space" unicode=" " horiz-adv-x="280" 
 />
    <glyph glyph-name="exclam" unicode="!" horiz-adv-x="237" 
d="M100 550v84c0 6 3 9 8 9h21c5 0 8 -3 8 -9v-84c0 -59 -1 -127 -4 -203c-2 -76 -4 -119 -6 -129c-1 -10 -4 -15 -7 -15h-4c-3 0 -6 4 -7 11c-6 44 -9 156 -9 336zM135 128v-119c0 -6 -3 -9 -8 -9h-17c-5 0 -8 3 -8 9v119c0 6 3 9 8 9h17c5 0 8 -3 8 -9z" />
    <glyph glyph-name="quotedbl" unicode="&#x22;" horiz-adv-x="324" 
d="M89 441h-3c-6 0 -9 3 -9 10l-7 182c0 7 3 10 9 10h17c6 0 9 -3 9 -10l-7 -182c0 -7 -3 -10 -9 -10zM238 441h-3c-6 0 -9 3 -9 10l-7 182c0 7 3 10 9 10h17c6 0 9 -3 9 -10l-7 -182c0 -7 -3 -10 -9 -10z" />
    <glyph glyph-name="numbersign" unicode="#" horiz-adv-x="679" 
d="M516 470h94c6 0 9 -3 9 -8v-12c0 -5 -3 -8 -9 -8h-102l-69 -241h100c6 0 9 -3 9 -8v-12c0 -5 -3 -8 -9 -8h-108l-47 -162c-2 -7 -6 -11 -12 -11h-11c-6 0 -8 5 -5 15l46 158h-210l-47 -162c-2 -7 -6 -11 -12 -11h-11c-7 0 -8 5 -5 15l46 158h-94c-6 0 -9 3 -9 8v12
c0 5 3 8 9 8h102l69 241h-100c-6 0 -9 3 -9 8v12c0 5 3 8 9 8h108l47 162c2 7 6 11 13 11h8c8 0 10 -5 7 -15l-46 -158h210l47 162c2 7 6 11 13 11h8c7 0 10 -5 7 -15zM200 201h210l69 241h-210z" />
    <glyph glyph-name="dollar" unicode="$" horiz-adv-x="498" 
d="M270 -98h-14c-5 0 -8 3 -8 9v89h-39c-81 0 -134 53 -134 136v34c0 6 3 9 8 9h14c5 0 8 -3 8 -9v-33c0 -68 37 -109 104 -109h80c67 0 104 41 104 109v71c0 76 -34 104 -106 104h-72c-89 0 -140 33 -140 128v69c0 83 53 136 134 136h39v89c0 6 3 9 8 9h14c5 0 8 -3 8 -9
v-89h11c81 0 134 -53 134 -136v-30c0 -6 -3 -9 -8 -9h-14c-5 0 -8 3 -8 9v29c0 68 -37 109 -104 109h-80c-67 0 -104 -41 -104 -109v-68c0 -75 32 -101 104 -101h81c89 0 133 -43 133 -129v-74c0 -83 -53 -136 -134 -136h-11v-89c0 -6 -3 -9 -8 -9z" />
    <glyph glyph-name="percent" unicode="%" horiz-adv-x="711" 
d="M545 265h-16c-65 0 -87 -25 -87 -94v-48c0 -69 22 -95 87 -95h16c65 0 86 26 86 95v48c0 69 -21 94 -86 94zM529 293h16c80 0 116 -37 116 -121v-50c0 -84 -36 -122 -116 -122h-16c-80 0 -117 38 -117 122v50c0 83 36 121 117 121zM183 620h-16c-65 0 -87 -25 -87 -94
v-48c0 -69 22 -95 87 -95h16c65 0 86 26 86 95v48c0 69 -21 94 -86 94zM167 648h16c80 0 116 -37 116 -121v-50c0 -84 -36 -122 -116 -122h-16c-80 0 -117 38 -117 122v50c0 83 36 121 117 121zM219 0h-10c-7 0 -8 4 -5 12l275 620c3 7 8 11 13 11h10c7 0 8 -5 4 -14
l-274 -618c-3 -7 -8 -11 -13 -11z" />
    <glyph glyph-name="ampersand" unicode="&#x26;" horiz-adv-x="592" 
d="M299 0h-85c-81 0 -134 50 -134 133v92c0 67 34 123 107 124c-32 38 -48 77 -48 118v43c0 83 53 133 134 133h22c81 0 134 -50 134 -133v-49c0 -6 -3 -9 -8 -9h-14c-5 0 -8 3 -8 9v48c0 68 -37 106 -104 106h-22c-67 0 -104 -38 -104 -106v-41c0 -44 10 -69 43 -105
l67 -77h244c6 0 9 -3 9 -8v-12c0 -5 -3 -8 -9 -8h-220l218 -252c1 -3 1 -5 -2 -6h-19c-5 0 -9 2 -13 6l-63 72c-17 -49 -64 -78 -125 -78zM214 28h85c58 0 92 26 101 77l-196 225c-61 -4 -94 -42 -94 -106v-90c0 -68 37 -106 104 -106z" />
    <glyph glyph-name="quotesingle" unicode="'" horiz-adv-x="185" 
d="M94 441h-3c-6 0 -9 3 -9 10l-7 182c0 7 3 10 9 10h17c6 0 9 -3 9 -10l-7 -182c-2 -7 -5 -10 -9 -10z" />
    <glyph glyph-name="parenleft" unicode="(" horiz-adv-x="277" 
d="M207 635v-12c0 -5 -3 -8 -9 -8h-4c-67 0 -104 -41 -104 -109v-471c0 -68 37 -109 104 -109h4c6 0 9 -3 9 -8v-12c0 -5 -3 -8 -9 -8h-4c-81 0 -134 53 -134 136v473c0 83 53 136 134 136h4c6 0 9 -3 9 -8z" />
    <glyph glyph-name="parenright" unicode=")" horiz-adv-x="277" 
d="M60 -94v12c0 5 3 8 9 8h4c67 0 104 41 104 109v471c0 68 -37 109 -104 109h-4c-6 0 -9 3 -9 8v12c0 5 3 8 9 8h4c81 0 134 -53 134 -136v-473c0 -83 -53 -136 -134 -136h-4c-6 0 -9 3 -9 8z" />
    <glyph glyph-name="asterisk" unicode="*" horiz-adv-x="408" 
d="M189 617v17c0 6 3 9 8 9h15c5 0 8 -3 8 -9v-17c0 -49 -5 -85 -16 -106c28 21 66 39 114 52c5 2 9 0 10 -5l4 -14c3 -5 1 -9 -6 -11l-17 -5c-49 -15 -84 -21 -105 -17c27 -20 52 -46 74 -77l11 -15c3 -3 3 -7 -2 -11l-12 -8c-5 -3 -9 -3 -12 2c-37 51 -56 88 -59 109
c-12 -33 -32 -70 -61 -109c-3 -4 -6 -5 -11 -2l-12 9c-5 2 -5 6 -1 12c37 52 69 82 85 90c-36 0 -77 8 -122 24c-6 2 -8 5 -6 10l5 14c1 5 5 7 11 5c57 -18 95 -36 112 -53c-10 28 -15 63 -15 106z" />
    <glyph glyph-name="plus" unicode="+" horiz-adv-x="512" 
d="M271 498v-163h162c6 0 9 -3 9 -8v-12c0 -5 -3 -8 -9 -8h-162v-163c0 -6 -3 -9 -8 -9h-14c-5 0 -8 3 -8 9v163h-162c-6 0 -9 3 -9 8v12c0 5 3 8 9 8h162v163c0 6 3 9 8 9h14c5 0 8 -3 8 -9z" />
    <glyph glyph-name="comma" unicode="," horiz-adv-x="187" 
d="M112 128v-79c0 -10 -9 -58 -26 -144c-3 -8 -11 -8 -11 0v223c0 6 3 9 8 9h21c5 0 8 -3 8 -9z" />
    <glyph glyph-name="hyphen" unicode="-" horiz-adv-x="312" 
d="M263 306h-214c-6 0 -9 3 -9 8v12c0 5 3 8 9 8h214c6 0 9 -3 9 -8v-12c0 -5 -3 -8 -9 -8z" />
    <glyph glyph-name="period" unicode="." horiz-adv-x="187" 
d="M112 128v-119c0 -6 -3 -9 -8 -9h-21c-5 0 -8 3 -8 9v119c0 6 3 9 8 9h21c5 0 8 -3 8 -9z" />
    <glyph glyph-name="slash" unicode="/" horiz-adv-x="393" 
d="M92 0h-13c-9 0 -11 4 -8 12l218 620c3 7 7 11 13 11h14c7 0 9 -5 6 -14l-217 -618c-3 -7 -7 -11 -13 -11z" />
    <glyph glyph-name="zero" unicode="0" horiz-adv-x="508" 
d="M204 28h100c67 0 104 41 104 109v369c0 68 -37 109 -104 109h-100c-67 0 -104 -41 -104 -109v-369c0 -68 37 -109 104 -109zM304 0h-100c-81 0 -134 53 -134 136v371c0 83 53 136 134 136h100c81 0 134 -53 134 -136v-371c0 -83 -53 -136 -134 -136z" />
    <glyph glyph-name="one" unicode="1" horiz-adv-x="312" 
d="M40 538v6c0 9 4 15 11 19l135 75c7 3 12 5 16 5h12c5 0 8 -3 8 -9v-625c0 -6 -3 -9 -8 -9h-14c-5 0 -8 3 -8 9v601l-136 -77c-11 -7 -16 -6 -16 5z" />
    <glyph glyph-name="two" unicode="2" horiz-adv-x="474" 
d="M64 8v86c0 50 21 90 63 120l200 149c35 26 53 61 53 105v41c0 68 -37 106 -104 106h-82c-67 0 -104 -38 -104 -106v-48c0 -6 -3 -9 -8 -9h-14c-5 0 -8 3 -8 9v49c0 83 53 133 134 133h82c81 0 134 -50 134 -133v-43c0 -52 -21 -94 -64 -125l-202 -151
c-33 -25 -50 -56 -50 -93v-70h311c6 0 9 -3 9 -8v-12c0 -5 -3 -8 -9 -8h-332c-6 0 -9 3 -9 8z" />
    <glyph glyph-name="three" unicode="3" horiz-adv-x="493" 
d="M227 338h62c67 0 104 38 104 106v65c0 68 -37 106 -104 106h-85c-67 0 -104 -38 -104 -106v-38c0 -6 -3 -9 -8 -9h-14c-5 0 -8 3 -8 9v39c0 83 53 133 134 133h85c81 0 134 -50 134 -133v-67c0 -63 -28 -102 -84 -119c56 -15 84 -54 84 -119v-72
c0 -83 -53 -133 -134 -133h-85c-81 0 -134 50 -134 133v50c0 6 3 9 8 9h14c5 0 8 -3 8 -9v-49c0 -68 37 -106 104 -106h85c67 0 104 38 104 106v70c0 68 -37 106 -104 106h-62c-6 0 -9 3 -9 8v12c0 5 3 8 9 8z" />
    <glyph glyph-name="four" unicode="4" horiz-adv-x="515" 
d="M84 163h276v458zM382 0h-14c-5 0 -8 3 -8 9v126h-301c-6 0 -9 3 -9 8v12c0 5 2 10 6 16l278 461c4 7 10 11 19 11h29c5 0 8 -3 8 -9v-471h76c6 0 9 -3 9 -8v-12c0 -5 -3 -8 -9 -8h-76v-126c0 -6 -3 -9 -8 -9z" />
    <glyph glyph-name="five" unicode="5" horiz-adv-x="476" 
d="M282 371h-96c-78 0 -70 -53 -90 -53h-18c-5 0 -8 3 -8 9v307c0 6 3 9 8 9h319c6 0 9 -3 9 -8v-12c0 -5 -3 -8 -9 -8h-297v-265c13 33 41 49 86 49h96c81 0 134 -50 134 -133v-130c0 -83 -53 -136 -134 -136h-78c-81 0 -134 53 -134 136v40c0 6 3 9 8 9h14c5 0 8 -3 8 -9
v-39c0 -68 37 -109 104 -109h78c67 0 104 41 104 109v128c0 68 -37 106 -104 106z" />
    <glyph glyph-name="six" unicode="6" horiz-adv-x="490" 
d="M194 28h92c67 0 104 41 104 109v103c0 68 -37 109 -104 109h-196v-212c0 -68 37 -109 104 -109zM286 0h-92c-81 0 -134 53 -134 136v371c0 83 53 136 134 136h186c6 0 9 -3 9 -8v-12c0 -5 -3 -8 -9 -8h-186c-67 0 -104 -41 -104 -109v-129h196c81 0 134 -53 134 -136
v-105c0 -83 -53 -136 -134 -136z" />
    <glyph glyph-name="seven" unicode="7" horiz-adv-x="367" 
d="M109 0h-10c-8 0 -10 5 -6 14l221 601h-290c-6 0 -9 3 -9 8v12c0 5 3 8 9 8h314c6 0 9 -3 9 -8v-10c0 -5 -1 -9 -3 -14l-221 -602c-2 -6 -7 -9 -14 -9z" />
    <glyph glyph-name="eight" unicode="8" horiz-adv-x="513" 
d="M204 28h105c67 0 104 38 104 106v70c0 68 -37 106 -104 106h-105c-67 0 -104 -38 -104 -106v-70c0 -68 37 -106 104 -106zM204 338h105c67 0 104 38 104 106v65c0 68 -37 106 -104 106h-105c-67 0 -104 -38 -104 -106v-65c0 -68 37 -106 104 -106zM309 0h-105
c-81 0 -134 50 -134 133v72c0 60 25 100 74 119c-49 19 -74 59 -74 119v67c0 83 53 133 134 133h105c81 0 134 -50 134 -133v-67c0 -60 -25 -100 -74 -119c49 -19 74 -59 74 -119v-72c0 -83 -53 -133 -134 -133z" />
    <glyph glyph-name="nine" unicode="9" horiz-adv-x="490" 
d="M194 294h196v212c0 68 -37 109 -104 109h-92c-67 0 -104 -41 -104 -109v-103c0 -68 37 -109 104 -109zM286 0h-186c-6 0 -9 3 -9 8v12c0 5 3 8 9 8h186c67 0 104 41 104 109v129h-196c-81 0 -134 53 -134 136v105c0 83 53 136 134 136h92c81 0 134 -53 134 -136v-371
c0 -83 -53 -136 -134 -136z" />
    <glyph glyph-name="colon" unicode=":" horiz-adv-x="187" 
d="M112 501v-119c0 -6 -3 -9 -8 -9h-21c-5 0 -8 3 -8 9v119c0 6 3 9 8 9h21c5 0 8 -3 8 -9zM112 128v-119c0 -6 -3 -9 -8 -9h-21c-5 0 -8 3 -8 9v119c0 6 3 9 8 9h21c5 0 8 -3 8 -9z" />
    <glyph glyph-name="semicolon" unicode=";" horiz-adv-x="187" 
d="M112 128v-79c0 -10 -9 -58 -26 -144c-3 -8 -11 -8 -11 0v223c0 6 3 9 8 9h21c5 0 8 -3 8 -9zM112 501v-119c0 -6 -3 -9 -8 -9h-21c-5 0 -8 3 -8 9v119c0 6 3 9 8 9h21c5 0 8 -3 8 -9z" />
    <glyph glyph-name="less" unicode="&#x3c;" horiz-adv-x="500" 
d="M436 475v-14c0 -5 -2 -9 -7 -10l-337 -130l337 -130c5 -1 7 -5 7 -10v-14c0 -7 -4 -9 -11 -6l-352 139c-6 3 -9 6 -9 11v20c0 5 3 8 9 11l352 139c7 3 11 1 11 -6z" />
    <glyph glyph-name="equal" unicode="=" horiz-adv-x="522" 
d="M84 422h354c6 0 9 -3 9 -8v-12c0 -5 -3 -8 -9 -8h-354c-6 0 -9 3 -9 8v12c0 5 3 8 9 8zM84 248h354c6 0 9 -3 9 -8v-12c0 -5 -3 -8 -9 -8h-354c-6 0 -9 3 -9 8v12c0 5 3 8 9 8z" />
    <glyph glyph-name="greater" unicode="&#x3e;" horiz-adv-x="522" 
d="M75 461v14c0 7 4 9 11 6l352 -139c6 -3 9 -6 9 -11v-20c0 -5 -3 -8 -9 -11l-352 -139c-7 -3 -11 -1 -11 6v14c0 5 2 9 7 10l337 130l-337 130c-5 1 -7 5 -7 10z" />
    <glyph glyph-name="question" unicode="?" horiz-adv-x="475" 
d="M266 128v-119c0 -6 -3 -9 -8 -9h-21c-5 0 -8 3 -8 9v119c0 6 3 9 8 9h21c5 0 8 -3 8 -9zM263 251v-39c0 -6 -3 -9 -8 -9h-14c-5 0 -8 3 -8 9v35c0 29 4 51 11 66c8 15 24 34 49 55l31 28c27 23 41 50 41 79v33c0 68 -37 106 -104 106h-47c-67 0 -104 -38 -104 -106v-47
c0 -6 -3 -9 -8 -9h-14c-5 0 -8 3 -8 9v48c0 83 53 133 134 133h47c81 0 134 -50 134 -133v-35c0 -37 -16 -68 -48 -95l-40 -34c-20 -17 -32 -31 -37 -43c-5 -11 -7 -28 -7 -51z" />
    <glyph glyph-name="at" unicode="@" horiz-adv-x="755" 
d="M521 -58h-182c-65 0 -123 23 -174 68c-50 45 -75 108 -75 187v151c0 79 25 142 75 187c51 45 109 68 174 68h192c81 0 134 -53 134 -136v-248c0 -83 -53 -136 -134 -136h-23c-16 0 -28 13 -28 29v25h-4c-19 -35 -55 -52 -108 -52c-81 0 -134 53 -134 136v103
c0 83 53 136 134 136h134c5 0 8 -3 8 -9v-332c0 -5 3 -8 9 -8h12c67 0 104 41 104 109v246c0 68 -37 109 -104 109h-194c-58 0 -109 -21 -152 -63s-65 -96 -65 -163v-153c0 -67 22 -121 65 -163s94 -63 152 -63h184c6 0 9 -3 9 -8v-12c0 -5 -3 -8 -9 -8zM480 217v207
c0 5 -3 8 -9 8h-103c-67 0 -104 -41 -104 -109v-101c0 -68 37 -109 104 -109h1c67 0 111 37 111 104z" />
    <glyph glyph-name="A" unicode="A" horiz-adv-x="526" 
d="M51 0h-14c-6 0 -8 3 -6 9l210 625c2 6 5 9 10 9h24c5 0 8 -3 10 -9l210 -625c2 -6 0 -9 -6 -9h-15c-5 0 -8 3 -10 9l-61 174h-280l-61 -174c-3 -6 -6 -9 -11 -9zM265 605h-4l-127 -392h258z" />
    <glyph glyph-name="B" unicode="B" horiz-adv-x="544" 
d="M129 28h206c67 0 104 38 104 106v71c0 71 -38 106 -114 106h-196c-6 0 -9 -3 -9 -8v-267c0 -5 3 -8 9 -8zM129 339h196c68 0 108 38 108 106v64c0 68 -37 106 -104 106h-200c-6 0 -9 -3 -9 -8v-260c0 -5 3 -8 9 -8zM90 9v625c0 6 3 9 8 9h231c81 0 134 -50 134 -133v-66
c0 -62 -29 -102 -88 -119c48 -3 94 -51 94 -119v-73c0 -83 -53 -133 -134 -133h-237c-5 0 -8 3 -8 9z" />
    <glyph glyph-name="C" unicode="C" horiz-adv-x="543" 
d="M344 0h-130c-81 0 -134 53 -134 136v371c0 83 53 136 134 136h130c81 0 134 -53 134 -136v-50c0 -6 -3 -9 -8 -9h-14c-5 0 -8 3 -8 9v49c0 68 -37 109 -104 109h-130c-67 0 -104 -41 -104 -109v-369c0 -68 37 -109 104 -109h130c67 0 104 41 104 109v49c0 6 3 9 8 9h14
c5 0 8 -3 8 -9v-50c0 -83 -53 -136 -134 -136z" />
    <glyph glyph-name="D" unicode="D" horiz-adv-x="558" 
d="M129 28h215c67 0 104 41 104 109v369c0 68 -37 109 -104 109h-215c-6 0 -9 -3 -9 -8v-571c0 -5 3 -8 9 -8zM90 9v625c0 6 3 9 8 9h246c81 0 134 -53 134 -136v-371c0 -83 -53 -136 -134 -136h-246c-5 0 -8 3 -8 9z" />
    <glyph glyph-name="E" unicode="E" horiz-adv-x="481" 
d="M402 0h-304c-5 0 -8 3 -8 9v625c0 6 3 9 8 9h304c6 0 9 -3 9 -8v-12c0 -5 -3 -8 -9 -8h-273c-6 0 -9 -3 -9 -8v-257c0 -5 3 -8 9 -8h247c6 0 9 -3 9 -8v-12c0 -5 -3 -8 -9 -8h-247c-6 0 -9 -3 -9 -8v-270c0 -5 3 -8 9 -8h273c6 0 9 -3 9 -8v-12c0 -5 -3 -8 -9 -8z" />
    <glyph glyph-name="F" unicode="F" horiz-adv-x="462" 
d="M112 0h-14c-5 0 -8 3 -8 9v625c0 6 3 9 8 9h305c6 0 9 -3 9 -8v-12c0 -5 -3 -8 -9 -8h-274c-6 0 -9 -3 -9 -8v-266c0 -5 3 -8 9 -8h247c6 0 9 -3 9 -8v-12c0 -5 -3 -8 -9 -8h-247c-6 0 -9 -3 -9 -8v-288c0 -6 -3 -9 -8 -9z" />
    <glyph glyph-name="G" unicode="G" horiz-adv-x="538" 
d="M324 0h-110c-81 0 -134 53 -134 136v371c0 83 53 136 134 136h110c81 0 134 -53 134 -136v-50c0 -6 -3 -9 -8 -9h-14c-5 0 -8 3 -8 9v49c0 68 -37 109 -104 109h-110c-67 0 -104 -41 -104 -109v-369c0 -68 37 -109 104 -109h110c67 0 104 41 104 109v151c0 5 -3 8 -9 8
h-129c-6 0 -9 3 -9 8v12c0 5 3 8 9 8h150c12 0 18 -6 18 -19v-169c0 -83 -53 -136 -134 -136z" />
    <glyph glyph-name="H" unicode="H" horiz-adv-x="568" 
d="M112 0h-14c-5 0 -8 3 -8 9v625c0 6 3 9 8 9h14c5 0 8 -3 8 -9v-284c0 -5 3 -8 9 -8h310c6 0 9 3 9 8v284c0 6 3 9 8 9h14c5 0 8 -3 8 -9v-625c0 -6 -3 -9 -8 -9h-14c-5 0 -8 3 -8 9v297c0 5 -3 8 -9 8h-310c-6 0 -9 -3 -9 -8v-297c0 -6 -3 -9 -8 -9z" />
    <glyph glyph-name="I" unicode="I" horiz-adv-x="220" 
d="M125 634v-625c0 -6 -3 -9 -8 -9h-14c-5 0 -8 3 -8 9v625c0 6 3 9 8 9h14c5 0 8 -3 8 -9z" />
    <glyph glyph-name="J" unicode="J" horiz-adv-x="493" 
d="M386 643h14c5 0 8 -3 8 -8v-499c0 -83 -53 -136 -134 -136h-100c-81 0 -134 53 -134 136v80c0 6 3 9 8 9h14c5 0 8 -3 8 -9v-79c0 -68 37 -109 104 -109h100c67 0 104 41 104 109v497c0 6 3 9 8 9z" />
    <glyph glyph-name="K" unicode="K" horiz-adv-x="523" 
d="M112 0h-14c-5 0 -8 3 -8 9v625c0 6 3 9 8 9h14c5 0 8 -3 8 -9v-392h4c4 9 9 17 15 25l281 367c5 6 10 9 16 9h19c7 0 7 -3 2 -9l-204 -271l238 -354c4 -6 3 -9 -4 -9h-16c-6 0 -11 3 -15 9l-222 330l-114 -137v-193c0 -6 -3 -9 -8 -9z" />
    <glyph glyph-name="L" unicode="L" horiz-adv-x="452" 
d="M413 0h-315c-5 0 -8 3 -8 9v625c0 6 3 9 8 9h14c5 0 8 -3 8 -9v-596c0 -5 3 -8 9 -8h284c6 0 9 -3 9 -8v-14c0 -5 -3 -8 -9 -8z" />
    <glyph glyph-name="M" unicode="M" horiz-adv-x="688" 
d="M562 643h28c5 0 8 -3 8 -9v-625c0 -6 -3 -9 -8 -9h-14c-5 0 -8 3 -8 9v576h-4l-198 -437c-3 -5 -7 -8 -12 -8h-19c-5 0 -9 3 -12 8l-199 438h-4v-577c0 -6 -3 -9 -8 -9h-14c-5 0 -8 3 -8 9v625c0 6 3 9 8 9h28c3 0 6 -1 7 -4l209 -462h4l209 462c1 3 4 4 7 4z" />
    <glyph glyph-name="N" unicode="N" horiz-adv-x="578" 
d="M112 0h-14c-5 0 -8 3 -8 9v625c0 6 3 9 8 9h14c3 0 6 -1 7 -4l335 -567h4v562c0 6 3 9 8 9h14c5 0 8 -3 8 -9v-625c0 -6 -3 -9 -8 -9h-10c-5 0 -9 3 -12 8l-334 565h-4v-564c0 -6 -3 -9 -8 -9z" />
    <glyph glyph-name="O" unicode="O" horiz-adv-x="553" 
d="M214 28h125c67 0 104 41 104 109v369c0 68 -37 109 -104 109h-125c-67 0 -104 -41 -104 -109v-369c0 -68 37 -109 104 -109zM339 0h-125c-81 0 -134 53 -134 136v371c0 83 53 136 134 136h125c81 0 134 -53 134 -136v-371c0 -83 -53 -136 -134 -136z" />
    <glyph glyph-name="P" unicode="P" horiz-adv-x="523" 
d="M112 0h-14c-5 0 -8 3 -8 9v625c0 6 3 9 8 9h226c81 0 134 -53 134 -136v-123c0 -83 -53 -136 -134 -136h-195c-6 0 -9 -3 -9 -8v-231c0 -6 -3 -9 -8 -9zM129 276h195c67 0 104 41 104 109v121c0 68 -37 109 -104 109h-195c-6 0 -9 -3 -9 -8v-323c0 -5 3 -8 9 -8z" />
    <glyph glyph-name="Q" unicode="Q" horiz-adv-x="553" 
d="M214 28h125c67 0 104 41 104 109v369c0 68 -37 109 -104 109h-125c-67 0 -104 -41 -104 -109v-369c0 -68 37 -109 104 -109zM412 -133h-16c-6 0 -11 3 -15 9l-77 124h-90c-81 0 -134 53 -134 136v371c0 83 53 136 134 136h125c81 0 134 -53 134 -136v-371
c0 -83 -53 -136 -134 -136l77 -124c4 -6 3 -9 -4 -9z" />
    <glyph glyph-name="R" unicode="R" horiz-adv-x="530" 
d="M112 0h-14c-5 0 -8 3 -8 9v625c0 6 3 9 8 9h225c81 0 134 -53 134 -136v-100c0 -75 -43 -125 -111 -134v-4l123 -260c3 -6 2 -9 -4 -9h-18c-5 0 -10 3 -13 9l-122 262h-183c-6 0 -9 -3 -9 -8v-254c0 -6 -3 -9 -8 -9zM129 299h194c67 0 104 41 104 109v98
c0 68 -37 109 -104 109h-194c-6 0 -9 -3 -9 -8v-300c0 -5 3 -8 9 -8z" />
    <glyph glyph-name="S" unicode="S" horiz-adv-x="568" 
d="M90 136v40c0 6 3 9 8 9h14c5 0 8 -3 8 -9v-39c0 -68 37 -109 104 -109h120c67 0 104 41 104 109v50c0 63 -56 98 -127 114c-101 25 -231 41 -231 146v60c0 83 53 136 134 136h120c81 0 134 -53 134 -136v-30c0 -6 -3 -9 -8 -9h-14c-5 0 -8 3 -8 9v29
c0 68 -37 109 -104 109h-120c-67 0 -104 -41 -104 -109v-58c0 -49 42 -83 126 -102c101 -20 233 -44 232 -157v-53c0 -83 -53 -136 -134 -136h-120c-81 0 -134 53 -134 136z" />
    <glyph glyph-name="T" unicode="T" horiz-adv-x="414" 
d="M214 0h-14c-5 0 -8 3 -8 9v598c0 5 -3 8 -9 8h-154c-6 0 -9 3 -9 8v12c0 5 3 8 9 8h356c6 0 9 -3 9 -8v-12c0 -5 -3 -8 -9 -8h-154c-6 0 -9 -3 -9 -8v-598c0 -6 -3 -9 -8 -9z" />
    <glyph glyph-name="U" unicode="U" horiz-adv-x="550" 
d="M443 643h14c5 0 8 -3 8 -8v-499c0 -83 -53 -136 -134 -136h-112c-81 0 -134 53 -134 136v498c0 6 3 9 8 9h14c5 0 8 -3 8 -9v-497c0 -68 37 -109 104 -109h112c67 0 104 41 104 109v497c0 6 3 9 8 9z" />
    <glyph glyph-name="V" unicode="V" horiz-adv-x="494" 
d="M259 0h-24c-5 0 -8 3 -10 9l-194 625c-2 6 0 9 6 9h15c5 0 8 -3 10 -9l183 -590h4l183 590c2 6 5 9 10 9h15c6 0 8 -3 6 -9l-194 -625c-2 -6 -5 -9 -10 -9z" />
    <glyph glyph-name="W" unicode="W" horiz-adv-x="790" 
d="M219 0h-27c-5 0 -9 3 -11 9l-145 625c-1 6 1 9 8 9h14c5 0 8 -3 10 -9l135 -596h4l167 596c2 6 6 9 11 9h19c5 0 9 -3 11 -9l168 -596h4l135 596c1 6 5 9 11 9h15c6 0 8 -3 6 -9l-145 -625c-1 -6 -5 -9 -10 -9h-27c-5 0 -9 3 -11 9l-164 590h-4l-164 -590
c-2 -6 -5 -9 -10 -9z" />
    <glyph glyph-name="X" unicode="X" horiz-adv-x="494" 
d="M58 0h-16c-6 0 -7 3 -4 9l190 333l-179 292c-3 6 -2 9 5 9h14c6 0 11 -3 14 -9l164 -269h4l163 269c3 6 8 9 13 9h16c6 0 7 -3 4 -9l-178 -291l189 -334c3 -6 2 -9 -4 -9h-16c-5 0 -8 2 -11 7l-177 310h-4l-176 -310c-3 -5 -6 -7 -11 -7z" />
    <glyph glyph-name="Y" unicode="Y" horiz-adv-x="486" 
d="M250 0h-14c-5 0 -8 3 -8 9v236l-197 389c-3 6 -2 9 5 9h18c5 0 8 -3 11 -9l176 -350h4l176 350c3 6 6 9 11 9h18c7 0 8 -3 5 -9l-197 -389v-236c0 -6 -3 -9 -8 -9z" />
    <glyph glyph-name="Z" unicode="Z" horiz-adv-x="471" 
d="M40 8v17c0 4 1 7 2 9l344 577v4h-327c-6 0 -9 3 -9 8v12c0 5 3 8 9 8h353c6 0 9 -3 9 -8v-19c0 -3 -1 -6 -2 -8l-344 -576v-4h347c6 0 9 -3 9 -8v-12c0 -5 -3 -8 -9 -8h-373c-6 0 -9 3 -9 8z" />
    <glyph glyph-name="bracketleft" unicode="[" horiz-adv-x="277" 
d="M198 -102h-130c-5 0 -8 3 -8 9v727c0 6 3 9 8 9h130c6 0 9 -3 9 -8v-12c0 -5 -3 -8 -9 -8h-99c-6 0 -9 -3 -9 -8v-673c0 -5 3 -8 9 -8h99c6 0 9 -3 9 -8v-12c0 -5 -3 -8 -9 -8z" />
    <glyph glyph-name="backslash" unicode="\" horiz-adv-x="393" 
d="M77 643h14c6 0 10 -4 13 -11l218 -620c3 -8 0 -12 -8 -12h-13c-6 0 -10 4 -13 11l-217 618c-3 9 -1 14 6 14z" />
    <glyph glyph-name="bracketright" unicode="]" horiz-adv-x="277" 
d="M60 -94v12c0 5 3 8 9 8h99c6 0 9 3 9 8v673c0 5 -3 8 -9 8h-99c-6 0 -9 3 -9 8v12c0 5 3 8 9 8h130c5 0 8 -3 8 -9v-727c0 -6 -3 -9 -8 -9h-130c-6 0 -9 3 -9 8z" />
    <glyph glyph-name="asciicircum" unicode="^" horiz-adv-x="453" 
d="M79 365h-10c-9 0 -12 4 -7 12l134 255c4 7 10 11 19 11h23c9 0 15 -4 19 -11l134 -255c5 -8 2 -12 -7 -12h-10c-5 0 -10 3 -14 9l-134 252l-133 -252c-4 -6 -9 -9 -14 -9z" />
    <glyph glyph-name="underscore" unicode="_" horiz-adv-x="372" 
d="M363 -96h-354c-6 0 -9 3 -9 8v12c0 5 3 8 9 8h354c6 0 9 -3 9 -8v-12c0 -5 -3 -8 -9 -8z" />
    <glyph glyph-name="grave" unicode="`" horiz-adv-x="261" 
d="M186 574h-8c-5 0 -10 3 -14 8l-92 112c-4 5 -1 9 4 9h30c7 0 12 -3 15 -9l68 -111c3 -6 2 -9 -3 -9z" />
    <glyph glyph-name="a" unicode="a" horiz-adv-x="498" 
d="M278 0h-74c-81 0 -134 53 -134 136v238c0 83 53 136 134 136h206c5 0 8 -3 8 -9v-492c0 -6 -3 -9 -8 -9h-14c-5 0 -8 3 -8 9v43h-4c-19 -35 -54 -52 -106 -52zM388 132v342c0 5 -3 8 -9 8h-175c-67 0 -104 -41 -104 -109v-236c0 -68 37 -109 104 -109h72
c67 0 112 37 112 104z" />
    <glyph glyph-name="b" unicode="b" horiz-adv-x="498" 
d="M119 28h175c67 0 104 41 104 109v246c0 68 -37 109 -104 109h-72c-67 0 -112 -37 -112 -104v-352c0 -5 3 -8 9 -8zM80 9v685c0 6 3 9 8 9h14c5 0 8 -3 8 -9v-226h4c19 35 54 52 106 52h74c81 0 134 -53 134 -136v-248c0 -83 -53 -136 -134 -136h-206c-5 0 -8 3 -8 9z" />
    <glyph glyph-name="c" unicode="c" horiz-adv-x="390" 
d="M355 20v-12c0 -5 -3 -8 -9 -8h-142c-81 0 -134 53 -134 136v238c0 83 53 136 134 136h142c6 0 9 -3 9 -8v-12c0 -5 -3 -8 -9 -8h-142c-67 0 -104 -41 -104 -109v-236c0 -68 37 -109 104 -109h142c6 0 9 -3 9 -8z" />
    <glyph glyph-name="d" unicode="d" horiz-adv-x="498" 
d="M278 0h-74c-81 0 -134 53 -134 136v238c0 83 53 136 134 136h74c52 0 87 -17 106 -52h4v236c0 6 3 9 8 9h14c5 0 8 -3 8 -9v-685c0 -6 -3 -9 -8 -9h-14c-5 0 -8 3 -8 9v43h-4c-19 -35 -54 -52 -106 -52zM388 132v246c0 67 -45 104 -112 104h-72c-67 0 -104 -41 -104 -109
v-236c0 -68 37 -109 104 -109h72c67 0 112 37 112 104z" />
    <glyph glyph-name="e" unicode="e" horiz-adv-x="491" 
d="M409 0h-205c-81 0 -134 53 -134 136v238c0 83 53 136 134 136h88c81 0 134 -53 134 -136v-127c0 -7 -3 -10 -9 -10h-308c-6 0 -9 -3 -9 -8v-92c0 -68 37 -109 104 -109h205c6 0 9 -3 9 -8v-12c0 -5 -3 -8 -9 -8zM109 265h278c6 0 9 3 9 8v100c0 68 -37 109 -104 109h-88
c-67 0 -104 -41 -104 -109v-100c0 -5 3 -8 9 -8z" />
    <glyph glyph-name="f" unicode="f" horiz-adv-x="290" 
d="M164 510h94c6 0 9 -3 9 -8v-12c0 -5 -3 -8 -9 -8h-94c-6 0 -9 -3 -9 -8v-465c0 -6 -3 -9 -8 -9h-14c-5 0 -8 3 -8 9v465c0 5 -3 8 -9 8h-68c-6 0 -9 3 -9 8v12c0 5 3 8 9 8h68c6 0 9 3 9 8v51c0 89 39 134 118 134h15c6 0 9 -3 9 -8v-12c0 -5 -3 -8 -9 -8h-15
c-64 0 -88 -35 -88 -107v-50c0 -5 3 -8 9 -8z" />
    <glyph glyph-name="g" unicode="g" horiz-adv-x="503" 
d="M283 30h-74c-81 0 -134 53 -134 136v208c0 83 53 136 134 136h206c5 0 8 -3 8 -9v-498c0 -83 -53 -136 -134 -136h-179c-6 0 -9 3 -9 8v12c0 5 3 8 9 8h179c67 0 104 41 104 109v78h-4c-19 -35 -54 -52 -106 -52zM393 162v312c0 5 -3 8 -9 8h-175
c-67 0 -104 -41 -104 -109v-206c0 -68 37 -109 104 -109h72c67 0 112 37 112 104z" />
    <glyph glyph-name="h" unicode="h" horiz-adv-x="503" 
d="M102 0h-14c-5 0 -8 3 -8 9v685c0 6 3 9 8 9h14c5 0 8 -3 8 -9v-236h4c19 35 54 52 106 52h74c81 0 134 -53 134 -136v-365c0 -6 -3 -9 -8 -9h-14c-5 0 -8 3 -8 9v364c0 68 -37 109 -104 109h-72c-67 0 -112 -37 -112 -104v-369c0 -6 -3 -9 -8 -9z" />
    <glyph glyph-name="i" unicode="i" horiz-adv-x="200" 
d="M85 593v57c0 6 3 9 8 9h14c5 0 8 -3 8 -9v-57c0 -6 -3 -9 -8 -9h-14c-5 0 -8 3 -8 9zM85 9v492c0 6 3 9 8 9h14c5 0 8 -3 8 -9v-492c0 -6 -3 -9 -8 -9h-14c-5 0 -8 3 -8 9z" />
    <glyph glyph-name="j" unicode="j" horiz-adv-x="200" 
d="M-19 -133h-20c-6 0 -9 3 -9 8v12c0 5 3 8 9 8h20c67 0 104 41 104 109v497c0 6 3 9 8 9h14c5 0 8 -3 8 -9v-498c0 -83 -53 -136 -134 -136zM85 593v57c0 6 3 9 8 9h14c5 0 8 -3 8 -9v-57c0 -6 -3 -9 -8 -9h-14c-5 0 -8 3 -8 9z" />
    <glyph glyph-name="k" unicode="k" horiz-adv-x="420" 
d="M366 510h14c7 0 9 -3 4 -9l-159 -235v-4l180 -253c5 -6 4 -9 -3 -9h-17c-7 0 -13 3 -18 9l-175 249c-3 4 -3 8 0 12l158 233c3 5 9 7 16 7zM102 0h-14c-5 0 -8 3 -8 9v685c0 6 3 9 8 9h14c5 0 8 -3 8 -9v-685c0 -6 -3 -9 -8 -9z" />
    <glyph glyph-name="l" unicode="l" horiz-adv-x="200" 
d="M107 0h-14c-5 0 -8 3 -8 9v685c0 6 3 9 8 9h14c5 0 8 -3 8 -9v-685c0 -6 -3 -9 -8 -9z" />
    <glyph glyph-name="m" unicode="m" horiz-adv-x="761" 
d="M102 0h-14c-5 0 -8 3 -8 9v492c0 6 3 9 8 9h14c5 0 8 -3 8 -9v-43h4c19 35 54 52 106 52h44c59 0 99 -24 121 -71c19 47 76 71 127 71h40c81 0 134 -53 134 -136v-365c0 -6 -3 -9 -8 -9h-14c-5 0 -8 3 -8 9v364c0 68 -37 109 -104 109h-40c-68 0 -114 -42 -114 -109v-364
c0 -6 -3 -9 -8 -9h-14c-5 0 -8 3 -8 9v364c0 68 -37 109 -104 109h-42c-67 0 -112 -37 -112 -104v-369c0 -6 -3 -9 -8 -9z" />
    <glyph glyph-name="n" unicode="n" horiz-adv-x="503" 
d="M102 0h-14c-5 0 -8 3 -8 9v492c0 6 3 9 8 9h14c5 0 8 -3 8 -9v-43h4c19 35 54 52 106 52h74c81 0 134 -53 134 -136v-365c0 -6 -3 -9 -8 -9h-14c-5 0 -8 3 -8 9v364c0 68 -37 109 -104 109h-72c-67 0 -112 -37 -112 -104v-369c0 -6 -3 -9 -8 -9z" />
    <glyph glyph-name="o" unicode="o" horiz-adv-x="493" 
d="M289 0h-85c-81 0 -134 53 -134 136v238c0 83 53 136 134 136h85c81 0 134 -53 134 -136v-238c0 -83 -53 -136 -134 -136zM204 28h85c67 0 104 41 104 109v236c0 68 -37 109 -104 109h-85c-67 0 -104 -41 -104 -109v-236c0 -68 37 -109 104 -109z" />
    <glyph glyph-name="p" unicode="p" horiz-adv-x="498" 
d="M102 -153h-14c-5 0 -8 3 -8 9v645c0 6 3 9 8 9h14c5 0 8 -3 8 -9v-43h4c19 35 54 52 106 52h74c81 0 134 -53 134 -136v-238c0 -83 -53 -136 -134 -136h-74c-52 0 -87 17 -106 52h-4v-196c0 -6 -3 -9 -8 -9zM222 28h72c67 0 104 41 104 109v236c0 68 -37 109 -104 109
h-72c-67 0 -112 -37 -112 -104v-246c0 -67 45 -104 112 -104z" />
    <glyph glyph-name="q" unicode="q" horiz-adv-x="498" 
d="M388 137v337c0 5 -3 8 -9 8h-175c-67 0 -104 -41 -104 -109v-236c0 -68 37 -109 104 -109h70c68 0 114 42 114 109zM274 0h-70c-81 0 -134 53 -134 136v238c0 83 53 136 134 136h206c5 0 8 -3 8 -9v-645c0 -6 -3 -9 -8 -9h-14c-5 0 -8 3 -8 9v198h-4
c-9 -17 -21 -29 -36 -38c-28 -17 -42 -16 -74 -16z" />
    <glyph glyph-name="r" unicode="r" horiz-adv-x="303" 
d="M102 0h-14c-5 0 -8 3 -8 9v492c0 6 3 9 8 9h14c5 0 8 -3 8 -9v-45h4c15 27 51 54 110 54h40c6 0 9 -3 9 -8v-12c0 -5 -3 -8 -9 -8h-41c-68 0 -113 -46 -113 -119v-354c0 -6 -3 -9 -8 -9z" />
    <glyph glyph-name="s" unicode="s" horiz-adv-x="429" 
d="M238 0h-170c-6 0 -9 3 -9 8v12c0 5 3 8 9 8h170c67 0 101 27 101 80v30c0 49 -15 79 -60 95l-132 46c-69 24 -93 55 -93 119c0 75 41 112 122 112h161c6 0 9 -3 9 -8v-12c0 -5 -3 -8 -9 -8h-161c-61 0 -91 -33 -91 -69v-27c0 -43 21 -63 68 -79l131 -47
c71 -20 85 -63 85 -144s-42 -116 -131 -116z" />
    <glyph glyph-name="t" unicode="t" horiz-adv-x="346" 
d="M105 482h-66c-6 0 -9 3 -9 8v12c0 5 3 8 9 8h66c6 0 9 3 9 8v78c0 6 3 9 8 9h14c5 0 8 -3 8 -9v-78c0 -5 3 -8 9 -8h129c6 0 9 -3 9 -8v-12c0 -5 -3 -8 -9 -8h-129c-6 0 -9 -3 -9 -8v-340c0 -67 42 -106 110 -106h38c6 0 9 -3 9 -8v-12c0 -5 -3 -8 -9 -8h-38
c-83 0 -140 52 -140 133v341c0 5 -3 8 -9 8z" />
    <glyph glyph-name="u" unicode="u" horiz-adv-x="503" 
d="M283 0h-74c-81 0 -134 53 -134 136v365c0 6 3 9 8 9h14c5 0 8 -3 8 -9v-364c0 -68 37 -109 104 -109h72c67 0 112 37 112 104v369c0 6 3 9 8 9h14c5 0 8 -3 8 -9v-492c0 -6 -3 -9 -8 -9h-14c-5 0 -8 3 -8 9v43h-4c-19 -35 -54 -52 -106 -52z" />
    <glyph glyph-name="v" unicode="v" horiz-adv-x="402" 
d="M27 510h16c5 0 8 -3 10 -9l146 -460h4l146 460c2 6 5 9 10 9h16c6 0 8 -3 6 -9l-158 -492c-2 -6 -6 -9 -11 -9h-22c-5 0 -9 3 -11 9l-158 492c-2 6 0 9 6 9z" />
    <glyph glyph-name="w" unicode="w" horiz-adv-x="679" 
d="M202 0h-20c-5 0 -9 3 -11 9l-150 492c-2 6 0 9 6 9h15c5 0 8 -3 10 -9l138 -460h4l128 460c1 6 5 9 11 9h14c6 0 10 -3 11 -9l126 -460h4l138 460c2 6 5 9 10 9h16c6 0 8 -3 6 -9l-150 -492c-2 -6 -6 -9 -11 -9h-21c-5 0 -9 3 -11 9l-124 445h-4l-124 -445
c-2 -6 -6 -9 -11 -9z" />
    <glyph glyph-name="x" unicode="x" horiz-adv-x="400" 
d="M51 0h-20c-6 0 -7 3 -3 9l150 251l-141 241c-4 6 -3 9 3 9h19c5 0 9 -3 13 -9l126 -218h4l123 218c4 6 8 9 13 9h19c6 0 7 -3 3 -9l-139 -239l151 -253c4 -6 3 -9 -3 -9h-23c-3 0 -6 3 -10 9l-134 231h-4l-134 -231c-4 -6 -8 -9 -13 -9z" />
    <glyph glyph-name="y" unicode="y" horiz-adv-x="456" 
d="M88 -147h-29c-6 0 -9 3 -9 8v12c0 5 3 8 9 8h29c27 0 45 5 56 15c11 9 20 16 25 21c5 4 11 13 17 26c7 13 11 21 13 25c12 27 20 46 23 59h-10c-5 0 -9 3 -11 9l-170 465c-2 6 0 9 6 9h16c5 0 8 -3 10 -9l163 -445h4l163 445c2 6 5 9 10 9h16c6 0 8 -3 6 -9l-170 -465
c-21 -59 -36 -98 -47 -115c-29 -45 -69 -67 -120 -68z" />
    <glyph glyph-name="z" unicode="z" horiz-adv-x="393" 
d="M35 8v9c0 4 1 7 2 9l275 452v4h-262c-6 0 -9 3 -9 8v12c0 5 3 8 9 8h293c6 0 9 -3 9 -8v-12c0 -3 -1 -6 -2 -8l-274 -450v-4h273c6 0 9 -3 9 -8v-12c0 -5 -3 -8 -9 -8h-305c-6 0 -9 3 -9 8z" />
    <glyph glyph-name="braceleft" unicode="{" horiz-adv-x="293" 
d="M220 643h4c6 0 9 -3 9 -8v-12c0 -5 -3 -8 -9 -8h-4c-55 0 -74 -37 -74 -109v-141c0 -52 -17 -84 -52 -95c35 -11 52 -43 52 -95v-140c0 -72 19 -109 74 -109h4c6 0 9 -3 9 -8v-12c0 -5 -3 -8 -9 -8h-4c-69 0 -104 51 -104 136v140c0 59 -22 82 -67 82c-6 0 -9 3 -9 8v12
c0 5 3 8 9 8c45 0 67 23 67 82v141c0 85 35 136 104 136z" />
    <glyph glyph-name="bar" unicode="|" horiz-adv-x="200" 
d="M115 634v-625c0 -6 -3 -9 -8 -9h-14c-5 0 -8 3 -8 9v625c0 6 3 9 8 9h14c5 0 8 -3 8 -9z" />
    <glyph glyph-name="braceright" unicode="}" horiz-adv-x="293" 
d="M157 507v-141c0 -59 22 -82 67 -82c6 0 9 -3 9 -8v-12c0 -5 -3 -8 -9 -8c-45 0 -67 -23 -67 -82v-140c0 -85 -35 -136 -104 -136h-4c-6 0 -9 3 -9 8v12c0 5 3 8 9 8h4c55 0 74 37 74 109v140c0 52 17 84 52 95c-35 11 -52 43 -52 95v141c0 72 -19 109 -74 109h-4
c-6 0 -9 3 -9 8v12c0 5 3 8 9 8h4c69 0 104 -51 104 -136z" />
    <glyph glyph-name="asciitilde" unicode="~" horiz-adv-x="512" 
d="M78 305c-5 0 -8 3 -8 10v9c0 9 38 29 87 29c25 0 59 -5 102 -15c43 -9 72 -14 89 -14s45 7 86 20c5 0 8 -3 8 -10v-9c0 -9 -38 -29 -86 -29c-24 0 -58 5 -102 14c-43 10 -73 15 -90 15s-45 -7 -86 -20z" />
    <glyph glyph-name="uni00A0" unicode="&#xa0;" horiz-adv-x="280" 
 />
    <glyph glyph-name="exclamdown" unicode="&#xa1;" horiz-adv-x="237" 
d="M127 506h-17c-5 0 -8 3 -8 9v119c0 6 3 9 8 9h17c5 0 8 -3 8 -9v-119c0 -6 -3 -9 -8 -9zM116 440h4c3 0 6 -5 7 -15c2 -10 4 -53 6 -129c3 -76 4 -144 4 -203v-84c0 -6 -3 -9 -8 -9h-21c-5 0 -8 3 -8 9v84c0 180 3 292 9 336c1 7 4 11 7 11z" />
    <glyph glyph-name="cent" unicode="&#xa2;" horiz-adv-x="410" 
d="M267 -89h-14c-5 0 -8 3 -8 9v80h-41c-81 0 -134 53 -134 136v238c0 83 53 136 134 136h41v95c0 6 3 9 8 9h14c5 0 8 -3 8 -9v-95h91c6 0 9 -3 9 -8v-12c0 -5 -3 -8 -9 -8h-162c-67 0 -104 -41 -104 -109v-236c0 -68 37 -109 104 -109h162c6 0 9 -3 9 -8v-12
c0 -5 -3 -8 -9 -8h-91v-80c0 -6 -3 -9 -8 -9z" />
    <glyph glyph-name="sterling" unicode="&#xa3;" horiz-adv-x="520" 
d="M116 32v-4h325c6 0 9 -3 9 -8v-12c0 -5 -3 -8 -9 -8h-392c-6 0 -9 3 -9 8v12c0 5 3 8 9 8h12c27 0 53 33 53 72v180h-65c-6 0 -9 3 -9 8v12c0 5 3 8 9 8h65v202c0 83 53 133 134 133h65c81 0 134 -50 134 -133v-29c0 -6 -3 -9 -8 -9h-14c-5 0 -8 3 -8 9v28
c0 68 -37 106 -104 106h-65c-67 0 -104 -38 -104 -106v-201h176c6 0 9 -3 9 -8v-12c0 -5 -3 -8 -9 -8h-176v-178c0 -17 -2 -32 -6 -43c-7 -18 -14 -27 -22 -27z" />
    <glyph glyph-name="yen" unicode="&#xa5;" horiz-adv-x="487" 
d="M250 0h-14c-5 0 -8 3 -8 9v166h-186c-6 0 -9 3 -9 8v12c0 5 3 8 9 8h186v42l-35 70h-151c-6 0 -9 3 -9 8v12c0 5 3 8 9 8h137l-148 291c-3 6 -1 9 5 9h19c5 0 8 -3 11 -9l175 -350h4l175 350c3 6 6 9 11 9h19c7 0 8 -3 5 -9l-147 -291h136c6 0 9 -3 9 -8v-12
c0 -5 -3 -8 -9 -8h-150l-36 -70v-42h186c6 0 9 -3 9 -8v-12c0 -5 -3 -8 -9 -8h-186v-166c0 -6 -3 -9 -8 -9z" />
    <glyph glyph-name="brokenbar" unicode="&#xa6;" horiz-adv-x="193" 
d="M113 634v-249c0 -6 -3 -9 -8 -9h-17c-5 0 -8 3 -8 9v249c0 6 3 9 8 9h17c5 0 8 -3 8 -9zM113 258v-249c0 -6 -3 -9 -8 -9h-17c-5 0 -8 3 -8 9v249c0 6 3 9 8 9h17c5 0 8 -3 8 -9z" />
    <glyph glyph-name="section" unicode="&#xa7;" horiz-adv-x="444" 
d="M354 209v94c0 52 -27 74 -80 83l-111 19c-32 7 -56 18 -73 35v-92c0 -50 26 -80 78 -89l111 -19c33 -5 58 -16 75 -31zM253 0h-180c-6 0 -9 3 -9 8v12c0 5 3 8 9 8h180c80 0 101 41 101 98s-27 78 -80 87l-111 19c-69 13 -103 52 -103 116v173c0 81 40 122 121 122h161
c6 0 9 -3 9 -8v-12c0 -5 -3 -8 -9 -8h-161c-57 0 -91 -35 -91 -92c0 -56 18 -80 78 -91l111 -19c68 -12 105 -42 105 -110v-170c0 -83 -31 -133 -131 -133z" />
    <glyph glyph-name="dieresis" unicode="&#xa8;" horiz-adv-x="326" 
d="M70 583v111c0 6 3 9 8 9h14c5 0 8 -3 8 -9v-111c0 -6 -3 -9 -8 -9h-14c-5 0 -8 3 -8 9zM226 583v111c0 6 3 9 8 9h14c5 0 8 -3 8 -9v-111c0 -6 -3 -9 -8 -9h-14c-5 0 -8 3 -8 9z" />
    <glyph glyph-name="copyright" unicode="&#xa9;" horiz-adv-x="728" 
d="M495 402v-18c0 -6 -3 -9 -8 -9h-14c-5 0 -8 3 -8 9v17c0 67 -26 89 -94 89h-21c-68 0 -94 -22 -94 -89v-166c0 -67 26 -89 94 -89h21c68 0 94 22 94 89v23c0 6 3 9 8 9h14c5 0 8 -3 8 -9v-24c0 -81 -41 -116 -124 -116h-21c-83 0 -124 35 -124 116v168
c0 81 41 116 124 116h21c83 0 124 -35 124 -116zM209 28h310c67 0 104 41 104 109v369c0 68 -37 109 -104 109h-310c-67 0 -104 -41 -104 -109v-369c0 -68 37 -109 104 -109zM209 643h310c81 0 134 -53 134 -136v-371c0 -83 -53 -136 -134 -136h-310c-81 0 -134 53 -134 136
v371c0 83 53 136 134 136z" />
    <glyph glyph-name="guillemotleft" unicode="&#xab;" horiz-adv-x="425" 
d="M355 112v-16c0 -8 -6 -12 -11 -5l-133 138c-6 7 -9 14 -9 19v14c0 5 3 12 9 19l133 138c5 7 11 3 11 -5v-16c0 -5 -2 -9 -5 -13l-125 -130l125 -130c3 -4 5 -8 5 -13zM223 112v-16c0 -8 -6 -12 -11 -5l-133 138c-6 7 -9 14 -9 19v14c0 5 3 12 9 19l133 138
c5 7 11 3 11 -5v-16c0 -5 -2 -9 -5 -13l-125 -130l125 -130c3 -4 5 -8 5 -13z" />
    <glyph glyph-name="registered" unicode="&#xae;" horiz-adv-x="430" 
d="M233 625h-47v-69h47c13 0 20 7 20 21v28c0 13 -7 20 -20 20zM163 477v160c0 6 3 9 8 9h62c27 0 43 -17 43 -44v-23c0 -22 -9 -36 -26 -42l28 -60c3 -6 2 -9 -3 -9h-10c-5 0 -8 2 -9 6l-28 61h-42v-58c0 -6 -3 -9 -8 -9h-7c-5 0 -8 3 -8 9zM175 431h79c52 0 82 33 82 86
v78c0 53 -30 86 -82 86h-79c-52 0 -82 -33 -82 -86v-78c0 -53 30 -86 82 -86zM254 409h-79c-64 0 -105 42 -105 107v80c0 65 41 107 105 107h79c64 0 106 -42 106 -107v-80c0 -65 -42 -107 -106 -107z" />
    <glyph glyph-name="overscore" unicode="&#xaf;" horiz-adv-x="362" 
d="M283 627h-204c-6 0 -9 3 -9 8v9c0 5 3 8 9 8h204c6 0 9 -3 9 -8v-9c0 -5 -3 -8 -9 -8z" />
    <glyph glyph-name="degree" unicode="&#xb0;" horiz-adv-x="276" 
d="M156 511h-37c-33 0 -49 16 -49 49v97c0 31 16 47 49 47h37c31 0 50 -18 50 -47v-97c0 -31 -19 -49 -50 -49zM132 536h12c28 0 34 7 34 35v72c0 28 -6 35 -34 35h-12c-28 0 -34 -7 -34 -35v-72c0 -28 6 -35 34 -35z" />
    <glyph glyph-name="plusminus" unicode="&#xb1;" horiz-adv-x="512" 
d="M271 498v-120h162c6 0 9 -3 9 -8v-12c0 -5 -3 -8 -9 -8h-162v-120c0 -6 -3 -9 -8 -9h-14c-5 0 -8 3 -8 9v120h-162c-6 0 -9 3 -9 8v12c0 5 3 8 9 8h162v120c0 6 3 9 8 9h14c5 0 8 -3 8 -9zM79 163h354c6 0 9 -3 9 -8v-12c0 -5 -3 -8 -9 -8h-354c-6 0 -9 3 -9 8v12
c0 5 3 8 9 8z" />
    <glyph glyph-name="acute" unicode="&#xb4;" horiz-adv-x="261" 
d="M155 703h30c5 0 8 -4 4 -9l-92 -112c-4 -5 -9 -8 -14 -8h-8c-5 0 -6 3 -3 9l68 111c3 6 8 9 15 9z" />
    <glyph glyph-name="paragraph" unicode="&#xb6;" horiz-adv-x="504" 
d="M192 0h-14c-5 0 -8 3 -8 9v314c-80 1 -120 36 -120 116v88c0 81 41 116 124 116h231c6 0 9 -3 9 -8v-626c0 -6 -3 -9 -8 -9h-14c-5 0 -8 3 -8 9v596c0 5 -3 8 -9 8h-166c-6 0 -9 -3 -9 -8v-596c0 -6 -3 -9 -8 -9z" />
    <glyph glyph-name="middot" unicode="&#xb7;" horiz-adv-x="207" 
d="M122 378v-119c0 -6 -3 -9 -8 -9h-21c-5 0 -8 3 -8 9v119c0 6 3 9 8 9h21c5 0 8 -3 8 -9z" />
    <glyph glyph-name="cedilla" unicode="&#xb8;" horiz-adv-x="254" 
d="M105 -50v-4c53 0 79 -16 79 -57v-10c0 -38 -26 -57 -79 -57h-19c-6 0 -9 3 -9 8v10c0 5 3 8 9 8h16c37 0 55 11 55 34v2c0 27 -14 36 -55 36h-9c-23 0 -31 20 -16 35l58 65h35z" />
    <glyph glyph-name="guillemotright" unicode="&#xbb;" horiz-adv-x="425" 
d="M202 398v16c0 8 4 12 11 5l133 -138c6 -7 9 -14 9 -19v-14c0 -5 -3 -12 -9 -19l-133 -138c-7 -7 -11 -3 -11 5v16c0 5 2 9 5 13l125 130l-125 130c-3 4 -5 8 -5 13zM70 398v16c0 8 4 12 11 5l133 -138c6 -7 9 -14 9 -19v-14c0 -5 -3 -12 -9 -19l-133 -138
c-7 -7 -11 -3 -11 5v16c0 5 2 9 5 13l125 130l-125 130c-3 4 -5 8 -5 13z" />
    <glyph glyph-name="questiondown" unicode="&#xbf;" horiz-adv-x="475" 
d="M209 514v119c0 6 3 9 8 9h21c5 0 8 -3 8 -9v-119c0 -6 -3 -9 -8 -9h-21c-5 0 -8 3 -8 9zM212 391v39c0 6 3 9 8 9h14c5 0 8 -3 8 -9v-35c0 -29 -4 -51 -12 -66c-7 -15 -23 -34 -48 -55l-31 -28c-27 -23 -41 -50 -41 -79v-33c0 -68 37 -106 104 -106h47
c67 0 104 38 104 106v47c0 6 3 9 8 9h14c5 0 8 -3 8 -9v-48c0 -83 -53 -133 -134 -133h-47c-81 0 -134 50 -134 133v35c0 37 16 68 48 95l40 34c20 17 32 31 37 42c5 12 7 29 7 52z" />
    <glyph glyph-name="Agrave" unicode="&#xc0;" horiz-adv-x="526" 
d="M51 0h-14c-6 0 -8 3 -6 9l210 625c2 6 5 9 10 9h24c5 0 8 -3 10 -9l210 -625c2 -6 0 -9 -6 -9h-15c-5 0 -8 3 -10 9l-61 174h-280l-61 -174c-3 -6 -6 -9 -11 -9zM265 605h-4l-127 -392h258zM296 692h-10c-5 0 -10 3 -14 8l-84 106c-4 5 -1 9 3 9h20c7 0 11 -3 14 -9
l74 -105c3 -6 2 -9 -3 -9z" />
    <glyph glyph-name="Aacute" unicode="&#xc1;" horiz-adv-x="526" 
d="M51 0h-14c-6 0 -8 3 -6 9l210 625c2 6 5 9 10 9h24c5 0 8 -3 10 -9l210 -625c2 -6 0 -9 -6 -9h-15c-5 0 -8 3 -10 9l-61 174h-280l-61 -174c-3 -6 -6 -9 -11 -9zM265 605h-4l-127 -392h258zM242 692h-10c-5 0 -6 3 -3 9l74 105c3 6 7 9 14 9h20c4 0 7 -4 3 -9l-84 -106
c-4 -5 -9 -8 -14 -8z" />
    <glyph glyph-name="Acircumflex" unicode="&#xc2;" horiz-adv-x="526" 
d="M51 0h-14c-6 0 -8 3 -6 9l210 625c2 6 5 9 10 9h24c5 0 8 -3 10 -9l210 -625c2 -6 0 -9 -6 -9h-15c-5 0 -8 3 -10 9l-61 174h-280l-61 -174c-3 -6 -6 -9 -11 -9zM265 605h-4l-127 -392h258zM351 692h-11c-7 0 -12 2 -13 6l-64 99l-65 -99c-1 -4 -6 -6 -13 -6h-13
c-8 0 -9 3 -4 10l70 104c4 6 11 9 21 9h8c9 0 16 -3 20 -9l69 -104c5 -7 4 -10 -5 -10z" />
    <glyph glyph-name="Atilde" unicode="&#xc3;" horiz-adv-x="526" 
d="M51 0c5 0 8 3 11 9l61 174h280l61 -174c2 -6 5 -9 10 -9h15c6 0 8 3 6 9l-210 625c-2 6 -5 9 -10 9h-24c-5 0 -8 -3 -10 -9l-210 -625c-2 -6 0 -9 6 -9h14zM261 605h4l127 -392h-258zM359 750c0 -41 -12 -58 -48 -58c-32 0 -39 9 -59 40c-19 45 -55 63 -55 -4v-26
c0 -9 -2 -9 -9 -9h-4c-7 0 -11 0 -11 9v29c0 42 11 59 48 59c27 0 35 -11 48 -38c23 -46 65 -65 65 2v24c0 7 2 9 9 9h5c8 0 11 -2 11 -9v-28z" />
    <glyph glyph-name="Adieresis" unicode="&#xc4;" horiz-adv-x="526" 
d="M170 716v111c0 6 3 9 8 9h14c5 0 8 -3 8 -9v-111c0 -6 -3 -9 -8 -9h-14c-5 0 -8 3 -8 9zM326 716v111c0 6 3 9 8 9h14c5 0 8 -3 8 -9v-111c0 -6 -3 -9 -8 -9h-14c-5 0 -8 3 -8 9zM51 0h-14c-6 0 -8 3 -6 9l210 625c2 6 5 9 10 9h24c5 0 8 -3 10 -9l210 -625
c2 -6 0 -9 -6 -9h-15c-5 0 -8 3 -10 9l-61 174h-280l-61 -174c-3 -6 -6 -9 -11 -9zM265 605h-4l-127 -392h258z" />
    <glyph glyph-name="Aring" unicode="&#xc5;" horiz-adv-x="526" 
d="M266 692h-10c-49 0 -76 28 -76 79v22c0 51 27 78 76 78h10c49 0 78 -29 78 -78v-22c0 -49 -29 -79 -78 -79zM256 715h10c35 0 53 19 53 57v20c0 37 -18 56 -53 56h-10c-35 0 -52 -19 -52 -56v-20c0 -38 17 -57 52 -57zM51 0h-14c-6 0 -8 3 -6 9l210 625c2 6 5 9 10 9h24
c5 0 8 -3 10 -9l210 -625c2 -6 0 -9 -6 -9h-15c-5 0 -8 3 -10 9l-61 174h-280l-61 -174c-3 -6 -6 -9 -11 -9zM265 605h-4l-127 -392h258z" />
    <glyph glyph-name="AE" unicode="&#xc6;" horiz-adv-x="771" 
d="M24 0h-19c-6 0 -7 3 -4 9l355 625c3 6 8 9 14 9h322c6 0 9 -3 9 -8v-12c0 -5 -3 -8 -9 -8h-273c-6 0 -9 -3 -9 -8v-257c0 -5 3 -8 9 -8h247c6 0 9 -3 9 -8v-12c0 -5 -3 -8 -9 -8h-247c-6 0 -9 -3 -9 -8v-270c0 -5 3 -8 9 -8h273c6 0 9 -3 9 -8v-12c0 -5 -3 -8 -9 -8h-304
c-5 0 -8 3 -8 9v174h-245l-99 -174c-3 -6 -7 -9 -12 -9zM152 213h228v394h-4z" />
    <glyph glyph-name="Ccedilla" unicode="&#xc7;" horiz-adv-x="543" 
d="M470 448h-14c-5 0 -8 3 -8 9v49c0 68 -37 109 -104 109h-130c-67 0 -104 -41 -104 -109v-369c0 -68 37 -109 104 -109h130c67 0 104 41 104 109v49c0 6 3 9 8 9h14c5 0 8 -3 8 -9v-50c0 -83 -53 -136 -134 -136h-26l-46 -50v-4c53 0 79 -16 79 -57v-10
c0 -38 -26 -57 -79 -57h-19c-6 0 -9 3 -9 8v10c0 5 3 8 9 8h16c40 0 55 9 55 34v2c0 27 -14 36 -55 36h-9c-24 0 -31 20 -16 35l40 45h-70c-81 0 -134 53 -134 136v371c0 83 53 136 134 136h130c81 0 134 -53 134 -136v-50c0 -6 -3 -9 -8 -9z" />
    <glyph glyph-name="Egrave" unicode="&#xc8;" horiz-adv-x="481" 
d="M402 0h-304c-5 0 -8 3 -8 9v625c0 6 3 9 8 9h304c6 0 9 -3 9 -8v-12c0 -5 -3 -8 -9 -8h-273c-6 0 -9 -3 -9 -8v-257c0 -5 3 -8 9 -8h247c6 0 9 -3 9 -8v-12c0 -5 -3 -8 -9 -8h-247c-6 0 -9 -3 -9 -8v-270c0 -5 3 -8 9 -8h273c6 0 9 -3 9 -8v-12c0 -5 -3 -8 -9 -8z
M292 692h-10c-5 0 -10 3 -14 8l-84 106c-4 5 -1 9 3 9h20c7 0 11 -3 14 -9l74 -105c3 -6 2 -9 -3 -9z" />
    <glyph glyph-name="Eacute" unicode="&#xc9;" horiz-adv-x="481" 
d="M402 0h-304c-5 0 -8 3 -8 9v625c0 6 3 9 8 9h304c6 0 9 -3 9 -8v-12c0 -5 -3 -8 -9 -8h-273c-6 0 -9 -3 -9 -8v-257c0 -5 3 -8 9 -8h247c6 0 9 -3 9 -8v-12c0 -5 -3 -8 -9 -8h-247c-6 0 -9 -3 -9 -8v-270c0 -5 3 -8 9 -8h273c6 0 9 -3 9 -8v-12c0 -5 -3 -8 -9 -8z
M243 692h-10c-5 0 -6 3 -3 9l74 105c3 6 7 9 14 9h20c4 0 7 -4 3 -9l-84 -106c-4 -5 -9 -8 -14 -8z" />
    <glyph glyph-name="Ecircumflex" unicode="&#xca;" horiz-adv-x="481" 
d="M402 0h-304c-5 0 -8 3 -8 9v625c0 6 3 9 8 9h304c6 0 9 -3 9 -8v-12c0 -5 -3 -8 -9 -8h-273c-6 0 -9 -3 -9 -8v-257c0 -5 3 -8 9 -8h247c6 0 9 -3 9 -8v-12c0 -5 -3 -8 -9 -8h-247c-6 0 -9 -3 -9 -8v-270c0 -5 3 -8 9 -8h273c6 0 9 -3 9 -8v-12c0 -5 -3 -8 -9 -8z
M338 692h-11c-7 0 -12 2 -13 6l-64 99l-65 -99c-1 -4 -6 -6 -13 -6h-13c-8 0 -9 3 -4 10l70 104c4 6 11 9 21 9h8c9 0 16 -3 20 -9l69 -104c5 -7 4 -10 -5 -10z" />
    <glyph glyph-name="Edieresis" unicode="&#xcb;" horiz-adv-x="481" 
d="M157 716v111c0 6 3 9 8 9h14c5 0 8 -3 8 -9v-111c0 -6 -3 -9 -8 -9h-14c-5 0 -8 3 -8 9zM313 716v111c0 6 3 9 8 9h14c5 0 8 -3 8 -9v-111c0 -6 -3 -9 -8 -9h-14c-5 0 -8 3 -8 9zM402 0h-304c-5 0 -8 3 -8 9v625c0 6 3 9 8 9h304c6 0 9 -3 9 -8v-12c0 -5 -3 -8 -9 -8
h-273c-6 0 -9 -3 -9 -8v-257c0 -5 3 -8 9 -8h247c6 0 9 -3 9 -8v-12c0 -5 -3 -8 -9 -8h-247c-6 0 -9 -3 -9 -8v-270c0 -5 3 -8 9 -8h273c6 0 9 -3 9 -8v-12c0 -5 -3 -8 -9 -8z" />
    <glyph glyph-name="Igrave" unicode="&#xcc;" horiz-adv-x="220" 
d="M126 634v-625c0 -6 -3 -9 -8 -9h-14c-5 0 -8 3 -8 9v625c0 6 3 9 8 9h14c5 0 8 -3 8 -9zM143 692h-10c-5 0 -10 3 -14 8l-84 106c-4 5 -1 9 3 9h20c7 0 11 -3 14 -9l74 -105c3 -6 2 -9 -3 -9z" />
    <glyph glyph-name="Iacute" unicode="&#xcd;" horiz-adv-x="221" 
d="M125 634v-625c0 -6 -3 -9 -8 -9h-14c-5 0 -8 3 -8 9v625c0 6 3 9 8 9h14c5 0 8 -3 8 -9zM94 692h-10c-5 0 -6 3 -3 9l74 105c3 6 7 9 14 9h20c4 0 7 -4 3 -9l-84 -106c-4 -5 -9 -8 -14 -8z" />
    <glyph glyph-name="Icircumflex" unicode="&#xce;" horiz-adv-x="220" 
d="M194 707h-14c-5 0 -9 2 -11 5l-59 105l-59 -105c-2 -3 -6 -5 -11 -5h-14c-7 0 -9 4 -4 11l64 109c4 6 10 9 19 9h10c9 0 15 -3 19 -9l64 -109c5 -7 3 -11 -4 -11zM125 634v-625c0 -6 -3 -9 -8 -9h-14c-5 0 -8 3 -8 9v625c0 6 3 9 8 9h14c5 0 8 -3 8 -9z" />
    <glyph glyph-name="Idieresis" unicode="&#xcf;" horiz-adv-x="220" 
d="M17 716v111c0 6 3 9 8 9h14c5 0 8 -3 8 -9v-111c0 -6 -3 -9 -8 -9h-14c-5 0 -8 3 -8 9zM173 716v111c0 6 3 9 8 9h14c5 0 8 -3 8 -9v-111c0 -6 -3 -9 -8 -9h-14c-5 0 -8 3 -8 9zM125 634v-625c0 -6 -3 -9 -8 -9h-14c-5 0 -8 3 -8 9v625c0 6 3 9 8 9h14c5 0 8 -3 8 -9z
" />
    <glyph glyph-name="Eth" unicode="&#xd0;" horiz-adv-x="500" 
d="M129 28h215c67 0 104 41 104 109v369c0 68 -37 109 -104 109h-215c-6 0 -9 -3 -9 -8v-259c0 -5 3 -8 9 -8h166c6 0 9 -3 9 -8v-12c0 -5 -3 -8 -9 -8h-166c-6 0 -9 -3 -9 -8v-268c0 -5 3 -8 9 -8zM344 0h-246c-5 0 -8 3 -8 9v295c0 5 -3 8 -9 8h-46c-6 0 -9 3 -9 8v12
c0 5 3 8 9 8h46c6 0 9 3 9 8v286c0 6 3 9 8 9h246c81 0 134 -53 134 -136v-371c0 -83 -53 -136 -134 -136z" />
    <glyph glyph-name="Ntilde" unicode="&#xd1;" horiz-adv-x="578" 
d="M186 780v39c0 6 3 9 8 9h7c5 0 8 -3 8 -9v-38c0 -44 7 -58 30 -58s27 9 40 53c15 45 25 55 62 55s51 -21 51 -78v-42c0 -6 -3 -9 -8 -9h-7c-5 0 -8 3 -8 9v41c0 22 -2 37 -7 45c-8 17 -41 19 -52 -5c-1 -3 -5 -15 -11 -36c-6 -20 -13 -34 -22 -42c-8 -8 -21 -12 -40 -12
c-37 0 -51 21 -51 78zM112 0h-14c-5 0 -8 3 -8 9v625c0 6 3 9 8 9h14c3 0 6 -1 7 -4l335 -567h4v562c0 6 3 9 8 9h14c5 0 8 -3 8 -9v-625c0 -6 -3 -9 -8 -9h-10c-5 0 -9 3 -12 8l-334 565h-4v-564c0 -6 -3 -9 -8 -9z" />
    <glyph glyph-name="Ograve" unicode="&#xd2;" horiz-adv-x="553" 
d="M214 28h125c67 0 104 41 104 109v369c0 68 -37 109 -104 109h-125c-67 0 -104 -41 -104 -109v-369c0 -68 37 -109 104 -109zM339 0h-125c-81 0 -134 53 -134 136v371c0 83 53 136 134 136h125c81 0 134 -53 134 -136v-371c0 -83 -53 -136 -134 -136zM311 692h-10
c-5 0 -10 3 -14 8l-84 106c-4 5 -1 9 3 9h20c7 0 11 -3 14 -9l74 -105c3 -6 2 -9 -3 -9z" />
    <glyph glyph-name="Oacute" unicode="&#xd3;" horiz-adv-x="553" 
d="M214 28h125c67 0 104 41 104 109v369c0 68 -37 109 -104 109h-125c-67 0 -104 -41 -104 -109v-369c0 -68 37 -109 104 -109zM339 0h-125c-81 0 -134 53 -134 136v371c0 83 53 136 134 136h125c81 0 134 -53 134 -136v-371c0 -83 -53 -136 -134 -136zM279 692h-10
c-5 0 -6 3 -3 9l74 105c3 6 7 9 14 9h20c4 0 7 -4 3 -9l-84 -106c-4 -5 -9 -8 -14 -8z" />
    <glyph glyph-name="Ocircumflex" unicode="&#xd4;" horiz-adv-x="553" 
d="M214 28h125c67 0 104 41 104 109v369c0 68 -37 109 -104 109h-125c-67 0 -104 -41 -104 -109v-369c0 -68 37 -109 104 -109zM339 0h-125c-81 0 -134 53 -134 136v371c0 83 53 136 134 136h125c81 0 134 -53 134 -136v-371c0 -83 -53 -136 -134 -136zM371 692h-11
c-7 0 -12 2 -13 6l-64 99l-65 -99c-1 -4 -6 -6 -13 -6h-13c-8 0 -9 3 -4 10l70 104c4 6 11 9 21 9h8c9 0 16 -3 20 -9l69 -104c5 -7 4 -10 -5 -10z" />
    <glyph glyph-name="Otilde" unicode="&#xd5;" horiz-adv-x="553" 
d="M214 28c-67 0 -104 41 -104 109v369c0 68 37 109 104 109h125c67 0 104 -41 104 -109v-369c0 -68 -37 -109 -104 -109h-125zM339 0c81 0 134 53 134 136v371c0 83 -53 136 -134 136h-125c-81 0 -134 -53 -134 -136v-371c0 -83 53 -136 134 -136h125zM371 750
c0 -41 -12 -58 -48 -58c-32 0 -39 9 -59 40c-19 45 -55 63 -55 -4v-26c0 -9 -2 -9 -9 -9h-4c-7 0 -11 0 -11 9v29c0 42 11 59 48 59c27 0 35 -11 48 -38c23 -46 65 -65 65 2v24c0 7 2 9 9 9h5c8 0 11 -2 11 -9v-28z" />
    <glyph glyph-name="Odieresis" unicode="&#xd6;" horiz-adv-x="553" 
d="M183 716v111c0 6 3 9 8 9h14c5 0 8 -3 8 -9v-111c0 -6 -3 -9 -8 -9h-14c-5 0 -8 3 -8 9zM339 716v111c0 6 3 9 8 9h14c5 0 8 -3 8 -9v-111c0 -6 -3 -9 -8 -9h-14c-5 0 -8 3 -8 9zM214 28h125c67 0 104 41 104 109v369c0 68 -37 109 -104 109h-125
c-67 0 -104 -41 -104 -109v-369c0 -68 37 -109 104 -109zM339 0h-125c-81 0 -134 53 -134 136v371c0 83 53 136 134 136h125c81 0 134 -53 134 -136v-371c0 -83 -53 -136 -134 -136z" />
    <glyph glyph-name="multiply" unicode="&#xd7;" horiz-adv-x="485" 
d="M381 438l-117 -117l117 -117c5 -5 5 -9 0 -12l-10 -10c-3 -5 -7 -5 -12 0l-117 117l-117 -117c-5 -5 -9 -5 -12 0l-10 10c-5 3 -5 7 0 12l117 117l-117 117c-5 5 -5 9 0 12l10 10c3 5 7 5 12 0l117 -117l117 117c5 5 9 5 12 0l10 -10c5 -3 5 -7 0 -12z" />
    <glyph glyph-name="Oslash" unicode="&#xd8;" horiz-adv-x="553" 
d="M473 507v-371c0 -83 -53 -136 -134 -136h-125c-52 0 -89 19 -112 56l-31 -43c-4 -5 -8 -6 -13 -3l-9 6c-4 3 -4 8 0 14l39 54c-5 17 -8 35 -8 52v371c0 83 53 136 134 136h125c51 0 88 -18 112 -55l30 41c4 5 8 7 13 4l9 -6c5 -3 5 -8 0 -14l-38 -53c5 -17 8 -35 8 -53z
M110 506v-369c0 -9 0 -16 1 -21l321 446c-15 35 -46 53 -93 53h-125c-67 0 -104 -41 -104 -109zM443 137v369c0 10 0 17 -1 22l-321 -446c15 -36 46 -54 93 -54h125c67 0 104 41 104 109z" />
    <glyph glyph-name="Ugrave" unicode="&#xd9;" horiz-adv-x="550" 
d="M443 643h14c5 0 8 -3 8 -8v-499c0 -83 -53 -136 -134 -136h-112c-81 0 -134 53 -134 136v498c0 6 3 9 8 9h14c5 0 8 -3 8 -9v-497c0 -68 37 -109 104 -109h112c67 0 104 41 104 109v497c0 6 3 9 8 9zM311 692h-10c-5 0 -10 3 -14 8l-84 106c-4 5 -1 9 3 9h20
c7 0 11 -3 14 -9l74 -105c3 -6 2 -9 -3 -9z" />
    <glyph glyph-name="Uacute" unicode="&#xda;" horiz-adv-x="550" 
d="M443 643h14c5 0 8 -3 8 -8v-499c0 -83 -53 -136 -134 -136h-112c-81 0 -134 53 -134 136v498c0 6 3 9 8 9h14c5 0 8 -3 8 -9v-497c0 -68 37 -109 104 -109h112c67 0 104 41 104 109v497c0 6 3 9 8 9zM280 692h-10c-5 0 -6 3 -3 9l74 105c3 6 7 9 14 9h20c4 0 7 -4 3 -9
l-84 -106c-4 -5 -9 -8 -14 -8z" />
    <glyph glyph-name="Ucircumflex" unicode="&#xdb;" horiz-adv-x="550" 
d="M359 707h-14c-6 0 -10 2 -11 5l-59 105l-59 -105c-1 -3 -5 -5 -11 -5h-14c-7 0 -9 4 -4 11l64 109c4 6 10 9 19 9h10c9 0 15 -3 19 -9l64 -109c5 -7 3 -11 -4 -11zM443 643h14c5 0 8 -3 8 -8v-499c0 -83 -53 -136 -134 -136h-112c-81 0 -134 53 -134 136v498c0 6 3 9 8 9
h14c5 0 8 -3 8 -9v-497c0 -68 37 -109 104 -109h112c67 0 104 41 104 109v497c0 6 3 9 8 9z" />
    <glyph glyph-name="Udieresis" unicode="&#xdc;" horiz-adv-x="550" 
d="M182 716v111c0 6 3 9 8 9h14c5 0 8 -3 8 -9v-111c0 -6 -3 -9 -8 -9h-14c-5 0 -8 3 -8 9zM338 716v111c0 6 3 9 8 9h14c5 0 8 -3 8 -9v-111c0 -6 -3 -9 -8 -9h-14c-5 0 -8 3 -8 9zM443 643h14c5 0 8 -3 8 -8v-499c0 -83 -53 -136 -134 -136h-112c-81 0 -134 53 -134 136
v498c0 6 3 9 8 9h14c5 0 8 -3 8 -9v-497c0 -68 37 -109 104 -109h112c67 0 104 41 104 109v497c0 6 3 9 8 9z" />
    <glyph glyph-name="Yacute" unicode="&#xdd;" horiz-adv-x="486" 
d="M250 0h-14c-5 0 -8 3 -8 9v236l-197 389c-3 6 -2 9 5 9h18c5 0 8 -3 11 -9l176 -350h4l176 350c3 6 6 9 11 9h18c7 0 8 -3 5 -9l-197 -389v-236c0 -6 -3 -9 -8 -9zM232 692h-10c-5 0 -6 3 -3 9l74 105c3 6 7 9 14 9h20c4 0 7 -4 3 -9l-84 -106c-4 -5 -9 -8 -14 -8z" />
    <glyph glyph-name="Thorn" unicode="&#xde;" horiz-adv-x="500" 
d="M164 161h124c67 0 104 41 104 109v103c0 68 -37 109 -104 109h-124c-6 0 -9 -3 -9 -8v-305c0 -5 3 -8 9 -8zM147 0h-14c-5 0 -8 3 -8 9v625c0 6 3 9 8 9h14c5 0 8 -3 8 -9v-116c0 -5 3 -8 9 -8h124c81 0 134 -53 134 -136v-105c0 -83 -53 -136 -134 -136h-124
c-6 0 -9 -3 -9 -8v-116c0 -6 -3 -9 -8 -9z" />
    <glyph glyph-name="germandbls" unicode="&#xdf;" horiz-adv-x="539" 
d="M248 340h64c68 0 112 41 112 109v57c0 68 -37 109 -104 109h-101c-67 0 -104 -41 -104 -109v-497c0 -6 -3 -9 -8 -9h-14c-5 0 -8 3 -8 9v498c0 83 53 136 134 136h101c81 0 134 -53 134 -136v-59c0 -56 -32 -99 -77 -122c51 -15 87 -65 87 -122v-68
c0 -83 -53 -136 -134 -136h-103c-6 0 -9 3 -9 8v12c0 5 3 8 9 8h103c67 0 104 41 104 109v66c0 67 -53 109 -122 109h-64c-6 0 -9 2 -9 7v13c0 5 3 8 9 8z" />
    <glyph glyph-name="agrave" unicode="&#xe0;" horiz-adv-x="498" 
d="M278 0h-74c-81 0 -134 53 -134 136v238c0 83 53 136 134 136h206c5 0 8 -3 8 -9v-492c0 -6 -3 -9 -8 -9h-14c-5 0 -8 3 -8 9v43h-4c-19 -35 -54 -52 -106 -52zM388 132v342c0 5 -3 8 -9 8h-175c-67 0 -104 -41 -104 -109v-236c0 -68 37 -109 104 -109h72
c67 0 112 37 112 104zM303 574h-10c-5 0 -10 3 -14 8l-84 106c-4 5 -1 9 3 9h20c7 0 11 -3 14 -9l74 -105c3 -6 2 -9 -3 -9z" />
    <glyph glyph-name="aacute" unicode="&#xe1;" horiz-adv-x="498" 
d="M278 0h-74c-81 0 -134 53 -134 136v238c0 83 53 136 134 136h206c5 0 8 -3 8 -9v-492c0 -6 -3 -9 -8 -9h-14c-5 0 -8 3 -8 9v43h-4c-19 -35 -54 -52 -106 -52zM388 132v342c0 5 -3 8 -9 8h-175c-67 0 -104 -41 -104 -109v-236c0 -68 37 -109 104 -109h72
c67 0 112 37 112 104zM266 574h-10c-5 0 -6 3 -3 9l74 105c3 6 7 9 14 9h20c4 0 7 -4 3 -9l-84 -106c-4 -5 -9 -8 -14 -8z" />
    <glyph glyph-name="acircumflex" unicode="&#xe2;" horiz-adv-x="498" 
d="M278 0h-74c-81 0 -134 53 -134 136v238c0 83 53 136 134 136h206c5 0 8 -3 8 -9v-492c0 -6 -3 -9 -8 -9h-14c-5 0 -8 3 -8 9v43h-4c-19 -35 -54 -52 -106 -52zM388 132v342c0 5 -3 8 -9 8h-175c-67 0 -104 -41 -104 -109v-236c0 -68 37 -109 104 -109h72
c67 0 112 37 112 104zM363 574h-11c-7 0 -12 2 -13 6l-64 99l-65 -99c-1 -4 -6 -6 -13 -6h-13c-8 0 -9 3 -4 10l70 104c4 6 11 9 21 9h8c9 0 16 -3 20 -9l69 -104c5 -7 4 -10 -5 -10z" />
    <glyph glyph-name="atilde" unicode="&#xe3;" horiz-adv-x="500" 
d="M278 0c52 0 87 17 106 52h4v-43c0 -6 3 -9 8 -9h14c5 0 8 3 8 9v492c0 6 -3 9 -8 9h-206c-81 0 -134 -53 -134 -136v-238c0 -83 53 -136 134 -136h74zM388 132c0 -67 -45 -104 -112 -104h-72c-67 0 -104 41 -104 109v236c0 68 37 109 104 109h175c6 0 9 -3 9 -8v-342z
M356 632c0 -41 -12 -58 -48 -58c-32 0 -39 9 -59 40c-19 45 -55 63 -55 -4v-26c0 -9 -2 -9 -9 -9h-4c-7 0 -11 0 -11 9v29c0 42 11 59 48 59c27 0 35 -11 48 -38c23 -46 65 -65 65 2v24c0 7 2 9 9 9h5c8 0 11 -2 11 -9v-28z" />
    <glyph glyph-name="adieresis" unicode="&#xe4;" horiz-adv-x="498" 
d="M172 583v111c0 6 3 9 8 9h14c5 0 8 -3 8 -9v-111c0 -6 -3 -9 -8 -9h-14c-5 0 -8 3 -8 9zM328 583v111c0 6 3 9 8 9h14c5 0 8 -3 8 -9v-111c0 -6 -3 -9 -8 -9h-14c-5 0 -8 3 -8 9zM278 0h-74c-81 0 -134 53 -134 136v238c0 83 53 136 134 136h206c5 0 8 -3 8 -9v-492
c0 -6 -3 -9 -8 -9h-14c-5 0 -8 3 -8 9v43h-4c-19 -35 -54 -52 -106 -52zM388 132v342c0 5 -3 8 -9 8h-175c-67 0 -104 -41 -104 -109v-236c0 -68 37 -109 104 -109h72c67 0 112 37 112 104z" />
    <glyph glyph-name="aring" unicode="&#xe5;" horiz-adv-x="498" 
d="M388 132v342c0 5 -3 8 -9 8h-175c-67 0 -104 -41 -104 -109v-236c0 -68 37 -109 104 -109h72c67 0 112 37 112 104zM278 0h-74c-81 0 -134 53 -134 136v238c0 83 53 136 134 136h206c5 0 8 -3 8 -9v-492c0 -6 -3 -9 -8 -9h-14c-5 0 -8 3 -8 9v43h-4
c-19 -35 -54 -52 -106 -52zM193 663v-40c0 -36 14 -47 50 -47h14c37 0 51 11 51 47v40c0 35 -14 46 -51 46h-14c-36 0 -50 -11 -50 -46zM169 622v42c0 49 23 68 74 68h14c51 0 76 -23 76 -68v-42c0 -46 -25 -69 -76 -69h-14c-51 0 -74 20 -74 69z" />
    <glyph glyph-name="ae" unicode="&#xe6;" horiz-adv-x="806" 
d="M418 202v-65c0 -68 37 -109 104 -109h205c6 0 9 -3 9 -8v-12c0 -5 -3 -8 -9 -8h-205c-61 0 -101 23 -120 69c-21 -46 -62 -69 -124 -69h-74c-81 0 -134 53 -134 136v28c0 83 53 136 134 136h175c6 0 9 3 9 8v65c0 68 -37 109 -104 109h-152c-6 0 -9 3 -9 8v12
c0 5 3 8 9 8h152c60 0 100 -23 120 -69c21 46 63 69 124 69h74c81 0 134 -53 134 -136v-154c0 -7 -3 -10 -9 -10h-300c-6 0 -9 -3 -9 -8zM706 246v127c0 68 -37 109 -104 109h-72c-67 0 -112 -37 -112 -104v-132c0 -5 3 -8 9 -8h270c6 0 9 3 9 8zM388 132v132c0 5 -3 8 -9 8
h-175c-67 0 -104 -41 -104 -109v-26c0 -68 37 -109 104 -109h72c67 0 112 37 112 104z" />
    <glyph glyph-name="ccedilla" unicode="&#xe7;" horiz-adv-x="390" 
d="M346 482h-142c-67 0 -104 -41 -104 -109v-236c0 -68 37 -109 104 -109h142c6 0 9 -3 9 -8v-12c0 -5 -3 -8 -9 -8h-72l-46 -50v-4c53 0 79 -16 79 -57v-10c0 -38 -26 -57 -79 -57h-19c-6 0 -9 3 -9 8v10c0 5 3 8 9 8h16c37 0 55 11 55 34v2c0 27 -14 36 -55 36h-9
c-24 0 -31 20 -16 35l40 45h-36c-81 0 -134 53 -134 136v238c0 83 53 136 134 136h142c6 0 9 -3 9 -8v-12c0 -5 -3 -8 -9 -8z" />
    <glyph glyph-name="egrave" unicode="&#xe8;" horiz-adv-x="491" 
d="M409 0h-205c-81 0 -134 53 -134 136v238c0 83 53 136 134 136h88c81 0 134 -53 134 -136v-127c0 -7 -3 -10 -9 -10h-308c-6 0 -9 -3 -9 -8v-92c0 -68 37 -109 104 -109h205c6 0 9 -3 9 -8v-12c0 -5 -3 -8 -9 -8zM109 265h278c6 0 9 3 9 8v100c0 68 -37 109 -104 109h-88
c-67 0 -104 -41 -104 -109v-100c0 -5 3 -8 9 -8zM289 574h-10c-5 0 -10 3 -14 8l-84 106c-4 5 -1 9 3 9h20c7 0 11 -3 14 -9l74 -105c3 -6 2 -9 -3 -9z" />
    <glyph glyph-name="eacute" unicode="&#xe9;" horiz-adv-x="491" 
d="M409 0h-205c-81 0 -134 53 -134 136v238c0 83 53 136 134 136h88c81 0 134 -53 134 -136v-127c0 -7 -3 -10 -9 -10h-308c-6 0 -9 -3 -9 -8v-92c0 -68 37 -109 104 -109h205c6 0 9 -3 9 -8v-12c0 -5 -3 -8 -9 -8zM109 265h278c6 0 9 3 9 8v100c0 68 -37 109 -104 109h-88
c-67 0 -104 -41 -104 -109v-100c0 -5 3 -8 9 -8zM246 574h-10c-5 0 -6 3 -3 9l74 105c3 6 7 9 14 9h20c4 0 7 -4 3 -9l-84 -106c-4 -5 -9 -8 -14 -8z" />
    <glyph glyph-name="ecircumflex" unicode="&#xea;" horiz-adv-x="491" 
d="M409 0h-205c-81 0 -134 53 -134 136v238c0 83 53 136 134 136h88c81 0 134 -53 134 -136v-127c0 -7 -3 -10 -9 -10h-308c-6 0 -9 -3 -9 -8v-92c0 -68 37 -109 104 -109h205c6 0 9 -3 9 -8v-12c0 -5 -3 -8 -9 -8zM109 265h278c6 0 9 3 9 8v100c0 68 -37 109 -104 109h-88
c-67 0 -104 -41 -104 -109v-100c0 -5 3 -8 9 -8zM342 574h-11c-7 0 -12 2 -13 6l-64 99l-65 -99c-1 -4 -6 -6 -13 -6h-13c-8 0 -9 3 -4 10l70 104c4 6 11 9 21 9h8c9 0 16 -3 20 -9l69 -104c5 -7 4 -10 -5 -10z" />
    <glyph glyph-name="edieresis" unicode="&#xeb;" horiz-adv-x="491" 
d="M155 583v111c0 6 3 9 8 9h14c5 0 8 -3 8 -9v-111c0 -6 -3 -9 -8 -9h-14c-5 0 -8 3 -8 9zM311 583v111c0 6 3 9 8 9h14c5 0 8 -3 8 -9v-111c0 -6 -3 -9 -8 -9h-14c-5 0 -8 3 -8 9zM409 0h-205c-81 0 -134 53 -134 136v238c0 83 53 136 134 136h88c81 0 134 -53 134 -136
v-127c0 -7 -3 -10 -9 -10h-308c-6 0 -9 -3 -9 -8v-92c0 -68 37 -109 104 -109h205c6 0 9 -3 9 -8v-12c0 -5 -3 -8 -9 -8zM109 265h278c6 0 9 3 9 8v100c0 68 -37 109 -104 109h-88c-67 0 -104 -41 -104 -109v-100c0 -5 3 -8 9 -8z" />
    <glyph glyph-name="igrave" unicode="&#xec;" horiz-adv-x="200" 
d="M86 9v492c0 6 3 9 8 9h14c5 0 8 -3 8 -9v-492c0 -6 -3 -9 -8 -9h-14c-5 0 -8 3 -8 9zM131 574h-10c-5 0 -10 3 -14 8l-84 106c-4 5 -1 9 3 9h20c7 0 11 -3 14 -9l74 -105c3 -6 2 -9 -3 -9z" />
    <glyph glyph-name="iacute" unicode="&#xed;" horiz-adv-x="198" 
d="M85 9v492c0 6 3 9 8 9h14c5 0 8 -3 8 -9v-492c0 -6 -3 -9 -8 -9h-14c-5 0 -8 3 -8 9zM78 574h-10c-5 0 -6 3 -3 9l74 105c3 6 7 9 14 9h20c4 0 7 -4 3 -9l-84 -106c-4 -5 -9 -8 -14 -8z" />
    <glyph glyph-name="icircumflex" unicode="&#xee;" horiz-adv-x="200" 
d="M184 574h-14c-5 0 -9 2 -11 5l-59 105l-59 -105c-2 -3 -6 -5 -11 -5h-14c-7 0 -9 4 -4 11l64 109c4 6 10 9 19 9h10c9 0 15 -3 19 -9l64 -109c5 -7 3 -11 -4 -11zM85 9v492c0 6 3 9 8 9h14c5 0 8 -3 8 -9v-492c0 -6 -3 -9 -8 -9h-14c-5 0 -8 3 -8 9z" />
    <glyph glyph-name="idieresis" unicode="&#xef;" horiz-adv-x="200" 
d="M7 583v111c0 6 3 9 8 9h14c5 0 8 -3 8 -9v-111c0 -6 -3 -9 -8 -9h-14c-5 0 -8 3 -8 9zM163 583v111c0 6 3 9 8 9h14c5 0 8 -3 8 -9v-111c0 -6 -3 -9 -8 -9h-14c-5 0 -8 3 -8 9zM85 9v492c0 6 3 9 8 9h14c5 0 8 -3 8 -9v-492c0 -6 -3 -9 -8 -9h-14c-5 0 -8 3 -8 9z" />
    <glyph glyph-name="eth" unicode="&#xf0;" horiz-adv-x="483" 
d="M418 357v-221c0 -83 -53 -136 -134 -136h-80c-81 0 -134 53 -134 136v138c0 83 53 136 134 136h74c52 0 87 -17 106 -52h4c0 29 -8 55 -25 76l-111 125l-104 -88c-5 -3 -9 -2 -12 1l-5 7c-3 4 -3 8 2 13l102 86l-86 97c-5 6 -5 11 0 15l6 5c5 3 9 3 13 -2l88 -97l107 91
c5 3 9 2 12 -1l5 -7c3 -5 3 -9 -1 -12l-106 -90l113 -126c21 -25 32 -56 32 -94zM388 137v141c0 67 -45 104 -112 104h-72c-67 0 -104 -41 -104 -109v-136c0 -68 37 -109 104 -109h80c67 0 104 41 104 109z" />
    <glyph glyph-name="ntilde" unicode="&#xf1;" horiz-adv-x="503" 
d="M151 655v39c0 6 3 9 8 9h7c5 0 8 -3 8 -9v-38c0 -44 7 -58 30 -58s27 9 40 53c15 45 25 55 62 55s51 -21 51 -78v-42c0 -6 -3 -9 -8 -9h-7c-5 0 -8 3 -8 9v41c0 22 -2 37 -7 45c-8 17 -41 19 -52 -5c-1 -3 -5 -15 -11 -36c-6 -20 -13 -34 -22 -42c-8 -8 -21 -12 -40 -12
c-37 0 -51 21 -51 78zM102 0h-14c-5 0 -8 3 -8 9v492c0 6 3 9 8 9h14c5 0 8 -3 8 -9v-43h4c19 35 54 52 106 52h74c81 0 134 -53 134 -136v-365c0 -6 -3 -9 -8 -9h-14c-5 0 -8 3 -8 9v364c0 68 -37 109 -104 109h-72c-67 0 -112 -37 -112 -104v-369c0 -6 -3 -9 -8 -9z" />
    <glyph glyph-name="ograve" unicode="&#xf2;" horiz-adv-x="493" 
d="M289 0h-85c-81 0 -134 53 -134 136v238c0 83 53 136 134 136h85c81 0 134 -53 134 -136v-238c0 -83 -53 -136 -134 -136zM204 28h85c67 0 104 41 104 109v236c0 68 -37 109 -104 109h-85c-67 0 -104 -41 -104 -109v-236c0 -68 37 -109 104 -109zM276 574h-10
c-5 0 -10 3 -14 8l-84 106c-4 5 -1 9 3 9h20c7 0 11 -3 14 -9l74 -105c3 -6 2 -9 -3 -9z" />
    <glyph glyph-name="oacute" unicode="&#xf3;" horiz-adv-x="493" 
d="M289 0h-85c-81 0 -134 53 -134 136v238c0 83 53 136 134 136h85c81 0 134 -53 134 -136v-238c0 -83 -53 -136 -134 -136zM204 28h85c67 0 104 41 104 109v236c0 68 -37 109 -104 109h-85c-67 0 -104 -41 -104 -109v-236c0 -68 37 -109 104 -109zM249 574h-10
c-5 0 -6 3 -3 9l74 105c3 6 7 9 14 9h20c4 0 7 -4 3 -9l-84 -106c-4 -5 -9 -8 -14 -8z" />
    <glyph glyph-name="ocircumflex" unicode="&#xf4;" horiz-adv-x="493" 
d="M289 0h-85c-81 0 -134 53 -134 136v238c0 83 53 136 134 136h85c81 0 134 -53 134 -136v-238c0 -83 -53 -136 -134 -136zM204 28h85c67 0 104 41 104 109v236c0 68 -37 109 -104 109h-85c-67 0 -104 -41 -104 -109v-236c0 -68 37 -109 104 -109zM340 574h-11
c-7 0 -12 2 -13 6l-64 99l-65 -99c-1 -4 -6 -6 -13 -6h-13c-8 0 -9 3 -4 10l70 104c4 6 11 9 21 9h8c9 0 16 -3 20 -9l69 -104c5 -7 4 -10 -5 -10z" />
    <glyph glyph-name="otilde" unicode="&#xf5;" horiz-adv-x="493" 
d="M289 0c81 0 134 53 134 136v238c0 83 -53 136 -134 136h-85c-81 0 -134 -53 -134 -136v-238c0 -83 53 -136 134 -136h85zM204 28c-67 0 -104 41 -104 109v236c0 68 37 109 104 109h85c67 0 104 -41 104 -109v-236c0 -68 -37 -109 -104 -109h-85zM345 632
c0 -41 -12 -58 -48 -58c-32 0 -39 9 -59 40c-19 45 -55 63 -55 -4v-26c0 -9 -2 -9 -9 -9h-4c-7 0 -11 0 -11 9v29c0 42 11 59 48 59c27 0 35 -11 48 -38c23 -46 65 -65 65 2v24c0 7 2 9 9 9h5c8 0 11 -2 11 -9v-28z" />
    <glyph glyph-name="odieresis" unicode="&#xf6;" horiz-adv-x="493" 
d="M153 583v111c0 6 3 9 8 9h14c5 0 8 -3 8 -9v-111c0 -6 -3 -9 -8 -9h-14c-5 0 -8 3 -8 9zM309 583v111c0 6 3 9 8 9h14c5 0 8 -3 8 -9v-111c0 -6 -3 -9 -8 -9h-14c-5 0 -8 3 -8 9zM289 0h-85c-81 0 -134 53 -134 136v238c0 83 53 136 134 136h85c81 0 134 -53 134 -136
v-238c0 -83 -53 -136 -134 -136zM204 28h85c67 0 104 41 104 109v236c0 68 -37 109 -104 109h-85c-67 0 -104 -41 -104 -109v-236c0 -68 37 -109 104 -109z" />
    <glyph glyph-name="divide" unicode="&#xf7;" horiz-adv-x="522" 
d="M246 144v64c0 6 3 9 8 9h14c5 0 8 -3 8 -9v-64c0 -6 -3 -9 -8 -9h-14c-5 0 -8 3 -8 9zM438 307h-354c-6 0 -9 3 -9 8v12c0 5 3 8 9 8h354c6 0 9 -3 9 -8v-12c0 -5 -3 -8 -9 -8zM246 434v64c0 6 3 9 8 9h14c5 0 8 -3 8 -9v-64c0 -6 -3 -9 -8 -9h-14c-5 0 -8 3 -8 9z" />
    <glyph glyph-name="oslash" unicode="&#xf8;" horiz-adv-x="521" 
d="M437 374v-238c0 -83 -53 -136 -134 -136h-85c-59 0 -99 24 -121 71l-42 -43c-5 -5 -9 -5 -12 0l-10 9c-4 4 -4 8 0 12l54 54c-2 10 -3 21 -3 33v238c0 83 53 136 134 136h85c59 0 99 -23 121 -70l42 42c4 4 8 4 12 1l10 -10c4 -3 4 -7 -1 -12l-53 -53c2 -11 3 -22 3 -34z
M114 373v-243l287 287c-14 43 -47 65 -98 65h-85c-67 0 -104 -41 -104 -109zM407 137v244l-287 -288c14 -43 47 -65 98 -65h85c67 0 104 41 104 109z" />
    <glyph glyph-name="ugrave" unicode="&#xf9;" horiz-adv-x="503" 
d="M283 0h-74c-81 0 -134 53 -134 136v365c0 6 3 9 8 9h14c5 0 8 -3 8 -9v-364c0 -68 37 -109 104 -109h72c67 0 112 37 112 104v369c0 6 3 9 8 9h14c5 0 8 -3 8 -9v-492c0 -6 -3 -9 -8 -9h-14c-5 0 -8 3 -8 9v43h-4c-19 -35 -54 -52 -106 -52zM283 574h-10
c-5 0 -10 3 -14 8l-84 106c-4 5 -1 9 3 9h20c7 0 11 -3 14 -9l74 -105c3 -6 2 -9 -3 -9z" />
    <glyph glyph-name="uacute" unicode="&#xfa;" horiz-adv-x="503" 
d="M283 0h-74c-81 0 -134 53 -134 136v365c0 6 3 9 8 9h14c5 0 8 -3 8 -9v-364c0 -68 37 -109 104 -109h72c67 0 112 37 112 104v369c0 6 3 9 8 9h14c5 0 8 -3 8 -9v-492c0 -6 -3 -9 -8 -9h-14c-5 0 -8 3 -8 9v43h-4c-19 -35 -54 -52 -106 -52zM251 574h-10c-5 0 -6 3 -3 9
l74 105c3 6 7 9 14 9h20c4 0 7 -4 3 -9l-84 -106c-4 -5 -9 -8 -14 -8z" />
    <glyph glyph-name="ucircumflex" unicode="&#xfb;" horiz-adv-x="503" 
d="M333 574h-14c-6 0 -10 2 -11 5l-59 105l-59 -105c-1 -3 -5 -5 -11 -5h-14c-7 0 -9 4 -4 11l64 109c4 6 10 9 19 9h10c9 0 15 -3 19 -9l64 -109c5 -7 3 -11 -4 -11zM283 0h-74c-81 0 -134 53 -134 136v365c0 6 3 9 8 9h14c5 0 8 -3 8 -9v-364c0 -68 37 -109 104 -109h72
c67 0 112 37 112 104v369c0 6 3 9 8 9h14c5 0 8 -3 8 -9v-492c0 -6 -3 -9 -8 -9h-14c-5 0 -8 3 -8 9v43h-4c-19 -35 -54 -52 -106 -52z" />
    <glyph glyph-name="udieresis" unicode="&#xfc;" horiz-adv-x="503" 
d="M156 583v111c0 6 3 9 8 9h14c5 0 8 -3 8 -9v-111c0 -6 -3 -9 -8 -9h-14c-5 0 -8 3 -8 9zM312 583v111c0 6 3 9 8 9h14c5 0 8 -3 8 -9v-111c0 -6 -3 -9 -8 -9h-14c-5 0 -8 3 -8 9zM283 0h-74c-81 0 -134 53 -134 136v365c0 6 3 9 8 9h14c5 0 8 -3 8 -9v-364
c0 -68 37 -109 104 -109h72c67 0 112 37 112 104v369c0 6 3 9 8 9h14c5 0 8 -3 8 -9v-492c0 -6 -3 -9 -8 -9h-14c-5 0 -8 3 -8 9v43h-4c-19 -35 -54 -52 -106 -52z" />
    <glyph glyph-name="yacute" unicode="&#xfd;" horiz-adv-x="456" 
d="M305 703h30c5 0 8 -4 4 -9l-92 -112c-4 -5 -9 -8 -14 -8h-8c-5 0 -6 3 -3 9l68 111c3 6 8 9 15 9zM88 -147h-29c-6 0 -9 3 -9 8v12c0 5 3 8 9 8h29c27 0 45 5 56 15c11 9 20 16 25 21c5 4 11 13 17 26c7 13 11 21 13 25c12 27 20 46 23 59h-10c-5 0 -9 3 -11 9l-170 465
c-2 6 0 9 6 9h16c5 0 8 -3 10 -9l163 -445h4l163 445c2 6 5 9 10 9h16c6 0 8 -3 6 -9l-170 -465c-21 -59 -36 -98 -47 -115c-29 -45 -69 -67 -120 -68z" />
    <glyph glyph-name="thorn" unicode="&#xfe;" horiz-adv-x="503" 
d="M227 28h72c67 0 104 41 104 109v236c0 68 -37 109 -104 109h-72c-67 0 -112 -37 -112 -104v-246c0 -67 45 -104 112 -104zM119 52h-4v-176c0 -6 -3 -9 -8 -9h-14c-5 0 -8 3 -8 9v818c0 6 3 9 8 9h14c5 0 8 -3 8 -9v-236h4c19 35 54 52 106 52h74c81 0 134 -53 134 -136
v-238c0 -83 -53 -136 -134 -136h-74c-52 0 -87 17 -106 52z" />
    <glyph glyph-name="ydieresis" unicode="&#xff;" horiz-adv-x="456" 
d="M135 583v111c0 6 3 9 8 9h14c5 0 8 -3 8 -9v-111c0 -6 -3 -9 -8 -9h-14c-5 0 -8 3 -8 9zM291 583v111c0 6 3 9 8 9h14c5 0 8 -3 8 -9v-111c0 -6 -3 -9 -8 -9h-14c-5 0 -8 3 -8 9zM88 -147h-29c-6 0 -9 3 -9 8v12c0 5 3 8 9 8h29c27 0 45 5 56 15c11 9 20 16 25 21
c5 4 11 13 17 26c7 13 11 21 13 25c12 27 20 46 23 59h-10c-5 0 -9 3 -11 9l-170 465c-2 6 0 9 6 9h16c5 0 8 -3 10 -9l163 -445h4l163 445c2 6 5 9 10 9h16c6 0 8 -3 6 -9l-170 -465c-21 -59 -36 -98 -47 -115c-29 -45 -69 -67 -120 -68z" />
    <glyph glyph-name="Amacron" unicode="&#x100;" horiz-adv-x="526" 
d="M365 757h-204c-6 0 -9 3 -9 8v12c0 5 3 8 9 8h204c6 0 9 -3 9 -8v-12c0 -5 -3 -8 -9 -8zM51 0h-14c-6 0 -8 3 -6 9l210 625c2 6 5 9 10 9h24c5 0 8 -3 10 -9l210 -625c2 -6 0 -9 -6 -9h-15c-5 0 -8 3 -10 9l-61 174h-280l-61 -174c-3 -6 -6 -9 -11 -9zM265 605h-4
l-127 -392h258z" />
    <glyph glyph-name="amacron" unicode="&#x101;" horiz-adv-x="498" 
d="M376 627h-204c-6 0 -9 3 -9 8v9c0 5 3 8 9 8h204c6 0 9 -3 9 -8v-9c0 -5 -3 -8 -9 -8zM278 0h-74c-81 0 -134 53 -134 136v238c0 83 53 136 134 136h206c5 0 8 -3 8 -9v-492c0 -6 -3 -9 -8 -9h-14c-5 0 -8 3 -8 9v43h-4c-19 -35 -54 -52 -106 -52zM388 132v342
c0 5 -3 8 -9 8h-175c-67 0 -104 -41 -104 -109v-236c0 -68 37 -109 104 -109h72c67 0 112 37 112 104z" />
    <glyph glyph-name="Abreve" unicode="&#x102;" horiz-adv-x="526" 
d="M51 0h-14c-6 0 -8 3 -6 9l210 625c2 6 5 9 10 9h24c5 0 8 -3 10 -9l210 -625c2 -6 0 -9 -6 -9h-15c-5 0 -8 3 -10 9l-61 174h-280l-61 -174c-3 -6 -6 -9 -11 -9zM265 605h-4l-127 -392h258zM171 783v12c0 7 3 10 9 10h8c7 0 10 -3 10 -10v-11c0 -45 20 -70 65 -70h1
c47 0 67 26 67 70v10c0 7 3 10 9 10h7c6 0 9 -3 9 -10v-11c0 -61 -30 -91 -90 -91h-6c-59 0 -89 30 -89 91z" />
    <glyph glyph-name="abreve" unicode="&#x103;" horiz-adv-x="498" 
d="M278 0h-74c-81 0 -134 53 -134 136v238c0 83 53 136 134 136h206c5 0 8 -3 8 -9v-492c0 -6 -3 -9 -8 -9h-14c-5 0 -8 3 -8 9v43h-4c-19 -35 -54 -52 -106 -52zM388 132v342c0 5 -3 8 -9 8h-175c-67 0 -104 -41 -104 -109v-236c0 -68 37 -109 104 -109h72
c67 0 112 37 112 104zM180 665v12c0 7 3 10 9 10h8c7 0 10 -3 10 -10v-11c0 -45 20 -70 65 -70h1c47 0 67 26 67 70v10c0 7 3 10 9 10h7c6 0 9 -3 9 -10v-11c0 -61 -30 -91 -90 -91h-6c-59 0 -89 30 -89 91z" />
    <glyph glyph-name="Aogonek" unicode="&#x104;" horiz-adv-x="526" 
d="M489 0h-14l-57 -74h38c19 0 29 -3 29 -10c0 -11 -22 -17 -67 -17c-31 0 -40 18 -24 35l67 84l-58 165h-280l-61 -174c-3 -6 -6 -9 -11 -9h-14c-6 0 -8 3 -6 9l210 625c2 6 5 9 10 9h24c5 0 8 -3 10 -9l210 -625c2 -6 0 -9 -6 -9zM261 605l-127 -392h258l-127 392h-4z" />
    <glyph glyph-name="aogonek" unicode="&#x105;" horiz-adv-x="498" 
d="M204 510h206c5 0 8 -3 8 -9v-492c0 -6 -3 -9 -8 -9h-7l-57 -74h38c19 0 29 -3 29 -10c0 -16 -41 -26 -69 -26s-38 27 -22 44l66 83v35h-4c-19 -35 -54 -52 -106 -52h-74c-81 0 -134 53 -134 136v238c0 83 53 136 134 136zM204 28h72c67 0 112 37 112 104v342
c0 5 -3 8 -9 8h-175c-67 0 -104 -41 -104 -109v-236c0 -68 37 -109 104 -109z" />
    <glyph glyph-name="Cacute" unicode="&#x106;" horiz-adv-x="543" 
d="M349 836h30c5 0 8 -4 4 -9l-92 -112c-4 -5 -9 -8 -14 -8h-8c-5 0 -6 3 -3 9l68 111c3 6 8 9 15 9zM344 0h-130c-81 0 -134 53 -134 136v371c0 83 53 136 134 136h130c81 0 134 -53 134 -136v-50c0 -6 -3 -9 -8 -9h-14c-5 0 -8 3 -8 9v49c0 68 -37 109 -104 109h-130
c-67 0 -104 -41 -104 -109v-369c0 -68 37 -109 104 -109h130c67 0 104 41 104 109v49c0 6 3 9 8 9h14c5 0 8 -3 8 -9v-50c0 -83 -53 -136 -134 -136z" />
    <glyph glyph-name="cacute" unicode="&#x107;" horiz-adv-x="390" 
d="M296 703h30c5 0 8 -4 4 -9l-92 -112c-4 -5 -9 -8 -14 -8h-8c-5 0 -6 3 -3 9l68 111c3 6 8 9 15 9zM355 20v-12c0 -5 -3 -8 -9 -8h-142c-81 0 -134 53 -134 136v238c0 83 53 136 134 136h142c6 0 9 -3 9 -8v-12c0 -5 -3 -8 -9 -8h-142c-67 0 -104 -41 -104 -109v-236
c0 -68 37 -109 104 -109h142c6 0 9 -3 9 -8z" />
    <glyph glyph-name="Cdotaccent" unicode="&#x10a;" horiz-adv-x="543" 
d="M264 722v99c0 6 3 9 8 9h14c5 0 8 -3 8 -9v-99c0 -6 -3 -9 -8 -9h-14c-5 0 -8 3 -8 9zM344 0h-130c-81 0 -134 53 -134 136v371c0 83 53 136 134 136h130c81 0 134 -53 134 -136v-50c0 -6 -3 -9 -8 -9h-14c-5 0 -8 3 -8 9v49c0 68 -37 109 -104 109h-130
c-67 0 -104 -41 -104 -109v-369c0 -68 37 -109 104 -109h130c67 0 104 41 104 109v49c0 6 3 9 8 9h14c5 0 8 -3 8 -9v-50c0 -83 -53 -136 -134 -136z" />
    <glyph glyph-name="cdotaccent" unicode="&#x10b;" horiz-adv-x="390" 
d="M212 589v99c0 6 3 9 8 9h14c5 0 8 -3 8 -9v-99c0 -6 -3 -9 -8 -9h-14c-5 0 -8 3 -8 9zM355 20v-12c0 -5 -3 -8 -9 -8h-142c-81 0 -134 53 -134 136v238c0 83 53 136 134 136h142c6 0 9 -3 9 -8v-12c0 -5 -3 -8 -9 -8h-142c-67 0 -104 -41 -104 -109v-236
c0 -68 37 -109 104 -109h142c6 0 9 -3 9 -8z" />
    <glyph glyph-name="Ccaron" unicode="&#x10c;" horiz-adv-x="543" 
d="M284 707h-10c-9 0 -15 3 -19 9l-64 109c-5 7 -3 11 4 11h14c6 0 10 -2 11 -5l59 -105l59 105c1 3 5 5 11 5h14c7 0 9 -4 4 -11l-64 -109c-4 -6 -10 -9 -19 -9zM344 0h-130c-81 0 -134 53 -134 136v371c0 83 53 136 134 136h130c81 0 134 -53 134 -136v-50
c0 -6 -3 -9 -8 -9h-14c-5 0 -8 3 -8 9v49c0 68 -37 109 -104 109h-130c-67 0 -104 -41 -104 -109v-369c0 -68 37 -109 104 -109h130c67 0 104 41 104 109v49c0 6 3 9 8 9h14c5 0 8 -3 8 -9v-50c0 -83 -53 -136 -134 -136z" />
    <glyph glyph-name="ccaron" unicode="&#x10d;" horiz-adv-x="390" 
d="M239 574h-10c-9 0 -15 3 -19 9l-64 109c-5 7 -3 11 4 11h14c5 0 9 -2 11 -5l59 -105l59 105c2 3 6 5 11 5h14c7 0 9 -4 4 -11l-64 -109c-4 -6 -10 -9 -19 -9zM355 20v-12c0 -5 -3 -8 -9 -8h-142c-81 0 -134 53 -134 136v238c0 83 53 136 134 136h142c6 0 9 -3 9 -8v-12
c0 -5 -3 -8 -9 -8h-142c-67 0 -104 -41 -104 -109v-236c0 -68 37 -109 104 -109h142c6 0 9 -3 9 -8z" />
    <glyph glyph-name="Dcaron" unicode="&#x10e;" horiz-adv-x="558" 
d="M279 707h-10c-9 0 -15 3 -19 9l-64 109c-5 7 -3 11 4 11h14c5 0 9 -2 11 -5l59 -105l59 105c2 3 6 5 11 5h14c7 0 9 -4 4 -11l-64 -109c-4 -6 -10 -9 -19 -9zM129 28h215c67 0 104 41 104 109v369c0 68 -37 109 -104 109h-215c-6 0 -9 -3 -9 -8v-571c0 -5 3 -8 9 -8z
M90 9v625c0 6 3 9 8 9h246c81 0 134 -53 134 -136v-371c0 -83 -53 -136 -134 -136h-246c-5 0 -8 3 -8 9z" />
    <glyph glyph-name="dcaron" unicode="&#x10f;" horiz-adv-x="508" 
d="M515 694v-79c0 -10 -9 -58 -26 -144c-1 -8 -11 -8 -11 0v223c0 6 3 9 8 9h21c5 0 8 -3 8 -9zM278 0h-74c-81 0 -134 53 -134 136v238c0 83 53 136 134 136h74c52 0 87 -17 106 -52h4v236c0 6 3 9 8 9h14c5 0 8 -3 8 -9v-685c0 -6 -3 -9 -8 -9h-14c-5 0 -8 3 -8 9v43h-4
c-19 -35 -54 -52 -106 -52zM388 132v246c0 67 -45 104 -112 104h-72c-67 0 -104 -41 -104 -109v-236c0 -68 37 -109 104 -109h72c67 0 112 37 112 104z" />
    <glyph glyph-name="Dcroat" unicode="&#x110;" horiz-adv-x="558" 
d="M129 28h215c67 0 104 41 104 109v369c0 68 -37 109 -104 109h-215c-6 0 -9 -3 -9 -8v-209c0 -5 3 -8 9 -8h166c6 0 9 -3 9 -8v-12c0 -5 -3 -8 -9 -8h-166c-6 0 -9 -3 -9 -8v-318c0 -5 3 -8 9 -8zM344 0h-246c-5 0 -8 3 -8 9v345c0 5 -3 8 -9 8h-46c-6 0 -9 3 -9 8v12
c0 5 3 8 9 8h46c6 0 9 3 9 8v236c0 6 3 9 8 9h246c81 0 134 -53 134 -136v-371c0 -83 -53 -136 -134 -136z" />
    <glyph glyph-name="dslash" unicode="&#x111;" horiz-adv-x="498" 
d="M278 0h-74c-81 0 -134 53 -134 136v168c0 83 53 136 134 136h74c52 0 87 -17 106 -52h4v166c0 5 -3 8 -9 8h-111c-6 0 -9 3 -9 8v12c0 5 3 8 9 8h111c6 0 9 3 9 8v96c0 6 3 9 8 9h14c5 0 8 -3 8 -9v-96c0 -5 3 -8 9 -8h49c6 0 9 -3 9 -8v-12c0 -5 -3 -8 -9 -8h-49
c-6 0 -9 -3 -9 -8v-545c0 -6 -3 -9 -8 -9h-14c-5 0 -8 3 -8 9v43h-4c-19 -35 -54 -52 -106 -52zM388 132v176c0 67 -45 104 -112 104h-72c-67 0 -104 -41 -104 -109v-166c0 -68 37 -109 104 -109h72c67 0 112 37 112 104z" />
    <glyph glyph-name="Emacron" unicode="&#x112;" horiz-adv-x="481" 
d="M352 757h-204c-6 0 -9 3 -9 8v12c0 5 3 8 9 8h204c6 0 9 -3 9 -8v-12c0 -5 -3 -8 -9 -8zM402 0h-304c-5 0 -8 3 -8 9v625c0 6 3 9 8 9h304c6 0 9 -3 9 -8v-12c0 -5 -3 -8 -9 -8h-273c-6 0 -9 -3 -9 -8v-257c0 -5 3 -8 9 -8h247c6 0 9 -3 9 -8v-12c0 -5 -3 -8 -9 -8h-247
c-6 0 -9 -3 -9 -8v-270c0 -5 3 -8 9 -8h273c6 0 9 -3 9 -8v-12c0 -5 -3 -8 -9 -8z" />
    <glyph glyph-name="emacron" unicode="&#x113;" horiz-adv-x="491" 
d="M350 627h-204c-6 0 -9 3 -9 8v9c0 5 3 8 9 8h204c6 0 9 -3 9 -8v-9c0 -5 -3 -8 -9 -8zM409 0h-205c-81 0 -134 53 -134 136v238c0 83 53 136 134 136h88c81 0 134 -53 134 -136v-127c0 -7 -3 -10 -9 -10h-308c-6 0 -9 -3 -9 -8v-92c0 -68 37 -109 104 -109h205
c6 0 9 -3 9 -8v-12c0 -5 -3 -8 -9 -8zM109 265h278c6 0 9 3 9 8v100c0 68 -37 109 -104 109h-88c-67 0 -104 -41 -104 -109v-100c0 -5 3 -8 9 -8z" />
    <glyph glyph-name="Ebreve" unicode="&#x114;" horiz-adv-x="481" 
d="M148 814v13c0 6 3 9 8 9h10c5 0 8 -3 8 -9v-12c0 -63 18 -86 67 -86h4c52 0 70 23 70 86v11c0 6 3 9 8 9h8c5 0 8 -3 8 -9v-12c0 -75 -30 -107 -94 -107h-4c-64 0 -93 32 -93 107zM402 0h-304c-5 0 -8 3 -8 9v625c0 6 3 9 8 9h304c6 0 9 -3 9 -8v-12c0 -5 -3 -8 -9 -8
h-273c-6 0 -9 -3 -9 -8v-257c0 -5 3 -8 9 -8h247c6 0 9 -3 9 -8v-12c0 -5 -3 -8 -9 -8h-247c-6 0 -9 -3 -9 -8v-270c0 -5 3 -8 9 -8h273c6 0 9 -3 9 -8v-12c0 -5 -3 -8 -9 -8z" />
    <glyph glyph-name="ebreve" unicode="&#x115;" horiz-adv-x="491" 
d="M148 681v13c0 6 3 9 8 9h10c5 0 8 -3 8 -9v-12c0 -63 18 -86 67 -86h4c52 0 70 23 70 86v11c0 6 3 9 8 9h8c5 0 8 -3 8 -9v-12c0 -75 -30 -107 -94 -107h-4c-64 0 -93 32 -93 107zM409 0h-205c-81 0 -134 53 -134 136v238c0 83 53 136 134 136h88c81 0 134 -53 134 -136
v-127c0 -7 -3 -10 -9 -10h-308c-6 0 -9 -3 -9 -8v-92c0 -68 37 -109 104 -109h205c6 0 9 -3 9 -8v-12c0 -5 -3 -8 -9 -8zM109 265h278c6 0 9 3 9 8v100c0 68 -37 109 -104 109h-88c-67 0 -104 -41 -104 -109v-100c0 -5 3 -8 9 -8z" />
    <glyph glyph-name="Edotaccent" unicode="&#x116;" horiz-adv-x="500" 
d="M235 722v99c0 6 3 9 8 9h14c5 0 8 -3 8 -9v-99c0 -6 -3 -9 -8 -9h-14c-5 0 -8 3 -8 9zM402 0h-304c-5 0 -8 3 -8 9v625c0 6 3 9 8 9h304c6 0 9 -3 9 -8v-12c0 -5 -3 -8 -9 -8h-273c-6 0 -9 -3 -9 -8v-257c0 -5 3 -8 9 -8h247c6 0 9 -3 9 -8v-12c0 -5 -3 -8 -9 -8h-247
c-6 0 -9 -3 -9 -8v-270c0 -5 3 -8 9 -8h273c6 0 9 -3 9 -8v-12c0 -5 -3 -8 -9 -8z" />
    <glyph glyph-name="edotaccent" unicode="&#x117;" horiz-adv-x="491" 
d="M233 589v99c0 6 3 9 8 9h14c5 0 8 -3 8 -9v-99c0 -6 -3 -9 -8 -9h-14c-5 0 -8 3 -8 9zM409 0h-205c-81 0 -134 53 -134 136v238c0 83 53 136 134 136h88c81 0 134 -53 134 -136v-127c0 -7 -3 -10 -9 -10h-308c-6 0 -9 -3 -9 -8v-92c0 -68 37 -109 104 -109h205
c6 0 9 -3 9 -8v-12c0 -5 -3 -8 -9 -8zM109 265h278c6 0 9 3 9 8v100c0 68 -37 109 -104 109h-88c-67 0 -104 -41 -104 -109v-100c0 -5 3 -8 9 -8z" />
    <glyph glyph-name="Eogonek" unicode="&#x118;" horiz-adv-x="481" 
d="M402 615h-273c-6 0 -9 -3 -9 -8v-257c0 -5 3 -8 9 -8h247c6 0 9 -3 9 -8v-12c0 -5 -3 -8 -9 -8h-247c-6 0 -9 -3 -9 -8v-270c0 -5 3 -8 9 -8h273c6 0 9 -3 9 -8v-12c0 -5 -3 -8 -9 -8h-54l-57 -74h38c19 0 29 -3 29 -10c0 -11 -22 -17 -67 -17c-31 0 -40 18 -24 35l52 66
h-221c-5 0 -8 3 -8 9v625c0 6 3 9 8 9h304c6 0 9 -3 9 -8v-12c0 -5 -3 -8 -9 -8z" />
    <glyph glyph-name="eogonek" unicode="&#x119;" horiz-adv-x="491" 
d="M204 510h88c81 0 134 -53 134 -136v-127c0 -7 -3 -10 -9 -10h-308c-6 0 -9 -3 -9 -8v-92c0 -68 37 -109 104 -109h205c6 0 9 -3 9 -8v-12c0 -5 -3 -8 -9 -8h-61l-57 -74h38c19 0 29 -3 29 -10c0 -16 -41 -26 -69 -26s-38 27 -22 44l52 66h-115c-81 0 -134 53 -134 136
v238c0 83 53 136 134 136zM396 273v100c0 68 -37 109 -104 109h-88c-67 0 -104 -41 -104 -109v-100c0 -5 3 -8 9 -8h278c6 0 9 3 9 8z" />
    <glyph glyph-name="Ecaron" unicode="&#x11a;" horiz-adv-x="481" 
d="M255 707h-10c-9 0 -15 3 -19 9l-64 109c-5 7 -3 11 4 11h14c5 0 9 -2 11 -5l59 -105l59 105c2 3 6 5 11 5h14c7 0 9 -4 4 -11l-64 -109c-4 -6 -10 -9 -19 -9zM402 0h-304c-5 0 -8 3 -8 9v625c0 6 3 9 8 9h304c6 0 9 -3 9 -8v-12c0 -5 -3 -8 -9 -8h-273c-6 0 -9 -3 -9 -8
v-257c0 -5 3 -8 9 -8h247c6 0 9 -3 9 -8v-12c0 -5 -3 -8 -9 -8h-247c-6 0 -9 -3 -9 -8v-270c0 -5 3 -8 9 -8h273c6 0 9 -3 9 -8v-12c0 -5 -3 -8 -9 -8z" />
    <glyph glyph-name="ecaron" unicode="&#x11b;" horiz-adv-x="491" 
d="M253 574h-10c-9 0 -15 3 -19 9l-64 109c-5 7 -3 11 4 11h14c5 0 9 -2 11 -5l59 -105l59 105c2 3 6 5 11 5h14c7 0 9 -4 4 -11l-64 -109c-4 -6 -10 -9 -19 -9zM409 0h-205c-81 0 -134 53 -134 136v238c0 83 53 136 134 136h88c81 0 134 -53 134 -136v-127
c0 -7 -3 -10 -9 -10h-308c-6 0 -9 -3 -9 -8v-92c0 -68 37 -109 104 -109h205c6 0 9 -3 9 -8v-12c0 -5 -3 -8 -9 -8zM109 265h278c6 0 9 3 9 8v100c0 68 -37 109 -104 109h-88c-67 0 -104 -41 -104 -109v-100c0 -5 3 -8 9 -8z" />
    <glyph glyph-name="Gcircumflex" unicode="&#x11c;" horiz-adv-x="538" 
d="M353 707h-14c-6 0 -10 2 -11 5l-59 105l-59 -105c-1 -3 -5 -5 -11 -5h-14c-7 0 -9 4 -4 11l64 109c4 6 10 9 19 9h10c9 0 15 -3 19 -9l64 -109c5 -7 3 -11 -4 -11zM324 0h-110c-81 0 -134 53 -134 136v371c0 83 53 136 134 136h110c81 0 134 -53 134 -136v-50
c0 -6 -3 -9 -8 -9h-14c-5 0 -8 3 -8 9v49c0 68 -37 109 -104 109h-110c-67 0 -104 -41 -104 -109v-369c0 -68 37 -109 104 -109h110c67 0 104 41 104 109v151c0 5 -3 8 -9 8h-129c-6 0 -9 3 -9 8v12c0 5 3 8 9 8h150c12 0 18 -6 18 -19v-169c0 -83 -53 -136 -134 -136z" />
    <glyph glyph-name="gcircumflex" unicode="&#x11d;" horiz-adv-x="503" 
d="M351 574h-14c-6 0 -10 2 -11 5l-59 105l-59 -105c-1 -3 -5 -5 -11 -5h-14c-7 0 -9 4 -4 11l64 109c4 6 10 9 19 9h10c9 0 15 -3 19 -9l64 -109c5 -7 3 -11 -4 -11zM283 30h-74c-81 0 -134 53 -134 136v208c0 83 53 136 134 136h206c5 0 8 -3 8 -9v-498
c0 -83 -53 -136 -134 -136h-179c-6 0 -9 3 -9 8v12c0 5 3 8 9 8h179c67 0 104 41 104 109v78h-4c-19 -35 -54 -52 -106 -52zM393 162v312c0 5 -3 8 -9 8h-175c-67 0 -104 -41 -104 -109v-206c0 -68 37 -109 104 -109h72c67 0 112 37 112 104z" />
    <glyph glyph-name="Gbreve" unicode="&#x11e;" horiz-adv-x="538" 
d="M174 814v13c0 6 3 9 8 9h10c5 0 8 -3 8 -9v-12c0 -63 18 -86 67 -86h4c52 0 70 23 70 86v11c0 6 3 9 8 9h8c5 0 8 -3 8 -9v-12c0 -75 -30 -107 -94 -107h-4c-64 0 -93 32 -93 107zM324 0h-110c-81 0 -134 53 -134 136v371c0 83 53 136 134 136h110c81 0 134 -53 134 -136
v-50c0 -6 -3 -9 -8 -9h-14c-5 0 -8 3 -8 9v49c0 68 -37 109 -104 109h-110c-67 0 -104 -41 -104 -109v-369c0 -68 37 -109 104 -109h110c67 0 104 41 104 109v151c0 5 -3 8 -9 8h-129c-6 0 -9 3 -9 8v12c0 5 3 8 9 8h150c12 0 18 -6 18 -19v-169c0 -83 -53 -136 -134 -136z
" />
    <glyph glyph-name="gbreve" unicode="&#x11f;" horiz-adv-x="503" 
d="M182 681v13c0 6 3 9 8 9h10c5 0 8 -3 8 -9v-12c0 -63 18 -86 67 -86h4c52 0 70 23 70 86v11c0 6 3 9 8 9h8c5 0 8 -3 8 -9v-12c0 -75 -30 -107 -94 -107h-4c-64 0 -93 32 -93 107zM283 30h-74c-81 0 -134 53 -134 136v208c0 83 53 136 134 136h206c5 0 8 -3 8 -9v-498
c0 -83 -53 -136 -134 -136h-179c-6 0 -9 3 -9 8v12c0 5 3 8 9 8h179c67 0 104 41 104 109v78h-4c-19 -35 -54 -52 -106 -52zM393 162v312c0 5 -3 8 -9 8h-175c-67 0 -104 -41 -104 -109v-206c0 -68 37 -109 104 -109h72c67 0 112 37 112 104z" />
    <glyph glyph-name="Gdotaccent" unicode="&#x120;" horiz-adv-x="538" 
d="M253 722v99c0 6 3 9 8 9h14c5 0 8 -3 8 -9v-99c0 -6 -3 -9 -8 -9h-14c-5 0 -8 3 -8 9zM324 0h-110c-81 0 -134 53 -134 136v371c0 83 53 136 134 136h110c81 0 134 -53 134 -136v-50c0 -6 -3 -9 -8 -9h-14c-5 0 -8 3 -8 9v49c0 68 -37 109 -104 109h-110
c-67 0 -104 -41 -104 -109v-369c0 -68 37 -109 104 -109h110c67 0 104 41 104 109v151c0 5 -3 8 -9 8h-129c-6 0 -9 3 -9 8v12c0 5 3 8 9 8h150c12 0 18 -6 18 -19v-169c0 -83 -53 -136 -134 -136z" />
    <glyph glyph-name="gdotaccent" unicode="&#x121;" horiz-adv-x="503" 
d="M260 589v99c0 6 3 9 8 9h14c5 0 8 -3 8 -9v-99c0 -6 -3 -9 -8 -9h-14c-5 0 -8 3 -8 9zM283 30h-74c-81 0 -134 53 -134 136v208c0 83 53 136 134 136h206c5 0 8 -3 8 -9v-498c0 -83 -53 -136 -134 -136h-179c-6 0 -9 3 -9 8v12c0 5 3 8 9 8h179c67 0 104 41 104 109v78
h-4c-19 -35 -54 -52 -106 -52zM393 162v312c0 5 -3 8 -9 8h-175c-67 0 -104 -41 -104 -109v-206c0 -68 37 -109 104 -109h72c67 0 112 37 112 104z" />
    <glyph glyph-name="uni0122" unicode="&#x122;" horiz-adv-x="538" 
d="M306 -41v-47c0 -10 -9 -58 -26 -144c-3 -8 -11 -8 -11 0v191c0 6 3 9 8 9h21c5 0 8 -3 8 -9zM324 0h-110c-81 0 -134 53 -134 136v371c0 83 53 136 134 136h110c81 0 134 -53 134 -136v-50c0 -6 -3 -9 -8 -9h-14c-5 0 -8 3 -8 9v49c0 68 -37 109 -104 109h-110
c-67 0 -104 -41 -104 -109v-369c0 -68 37 -109 104 -109h110c67 0 104 41 104 109v151c0 5 -3 8 -9 8h-129c-6 0 -9 3 -9 8v12c0 5 3 8 9 8h150c12 0 18 -6 18 -19v-169c0 -83 -53 -136 -134 -136z" />
    <glyph glyph-name="uni0123" unicode="&#x123;" horiz-adv-x="503" 
d="M283 30h-74c-81 0 -134 53 -134 136v208c0 83 53 136 134 136h206c5 0 8 -3 8 -9v-498c0 -83 -53 -136 -134 -136h-179c-6 0 -9 3 -9 8v12c0 5 3 8 9 8h179c67 0 104 41 104 109v78h-4c-19 -35 -54 -52 -106 -52zM393 162v312c0 5 -3 8 -9 8h-175
c-67 0 -104 -41 -104 -109v-206c0 -68 37 -109 104 -109h72c67 0 112 37 112 104zM252 583v47c0 10 9 58 26 144c3 8 11 8 11 0v-191c0 -6 -3 -9 -8 -9h-21c-5 0 -8 3 -8 9z" />
    <glyph glyph-name="hcircumflex" unicode="&#x125;" horiz-adv-x="503" 
d="M345 637h-14c-6 0 -10 2 -11 5l-59 105l-59 -105c-1 -3 -5 -5 -11 -5h-14c-7 0 -9 4 -4 11l64 109c4 6 10 9 19 9h10c9 0 15 -3 19 -9l64 -109c5 -7 3 -11 -4 -11zM102 0h-14c-5 0 -8 3 -8 9v685c0 6 3 9 8 9h14c5 0 8 -3 8 -9v-236h4c19 35 54 52 106 52h74
c81 0 134 -53 134 -136v-365c0 -6 -3 -9 -8 -9h-14c-5 0 -8 3 -8 9v364c0 68 -37 109 -104 109h-72c-67 0 -112 -37 -112 -104v-369c0 -6 -3 -9 -8 -9z" />
    <glyph glyph-name="Hbar" unicode="&#x126;" horiz-adv-x="500" 
d="M112 0h-14c-5 0 -8 3 -8 9v455c0 5 -3 8 -9 8h-46c-6 0 -9 3 -9 8v12c0 5 3 8 9 8h46c6 0 9 3 9 8v126c0 6 3 9 8 9h14c5 0 8 -3 8 -9v-126c0 -5 3 -8 9 -8h310c6 0 9 3 9 8v126c0 6 3 9 8 9h14c5 0 8 -3 8 -9v-126c0 -5 3 -8 9 -8h46c6 0 9 -3 9 -8v-12
c0 -5 -3 -8 -9 -8h-46c-6 0 -9 -3 -9 -8v-455c0 -6 -3 -9 -8 -9h-14c-5 0 -8 3 -8 9v297c0 5 -3 8 -9 8h-310c-6 0 -9 -3 -9 -8v-297c0 -6 -3 -9 -8 -9zM129 342h310c6 0 9 3 9 8v114c0 5 -3 8 -9 8h-310c-6 0 -9 -3 -9 -8v-114c0 -5 3 -8 9 -8z" />
    <glyph glyph-name="hbar" unicode="&#x127;" horiz-adv-x="537" 
d="M136 0h-14c-5 0 -8 3 -8 9v545c0 5 -3 8 -9 8h-66c-6 0 -9 3 -9 8v12c0 5 3 8 9 8h66c6 0 9 3 9 8v96c0 6 3 9 8 9h14c5 0 8 -3 8 -9v-96c0 -5 3 -8 9 -8h169c6 0 9 -3 9 -8v-12c0 -5 -3 -8 -9 -8h-169c-6 0 -9 -3 -9 -8v-166h4c19 35 54 52 106 52h74
c81 0 134 -53 134 -136v-295c0 -6 -3 -9 -8 -9h-14c-5 0 -8 3 -8 9v294c0 68 -37 109 -104 109h-72c-67 0 -112 -37 -112 -104v-299c0 -6 -3 -9 -8 -9z" />
    <glyph glyph-name="Itilde" unicode="&#x128;" horiz-adv-x="220" 
d="M125 634c0 6 -3 9 -8 9h-14c-5 0 -8 -3 -8 -9v-625c0 -6 3 -9 8 -9h14c5 0 8 3 8 9v625zM202 750c0 -41 -12 -58 -48 -58c-32 0 -39 9 -59 40c-19 45 -55 63 -55 -4v-26c0 -9 -2 -9 -9 -9h-4c-7 0 -11 0 -11 9v29c0 42 11 59 48 59c27 0 35 -11 48 -38
c23 -46 65 -65 65 2v24c0 7 2 9 9 9h5c8 0 11 -2 11 -9v-28z" />
    <glyph glyph-name="itilde" unicode="&#x129;" horiz-adv-x="200" 
d="M85 9c0 -6 3 -9 8 -9h14c5 0 8 3 8 9v492c0 6 -3 9 -8 9h-14c-5 0 -8 -3 -8 -9v-492zM195 632c0 -41 -12 -58 -48 -58c-32 0 -39 9 -59 40c-19 45 -55 63 -55 -4v-26c0 -9 -2 -9 -9 -9h-4c-7 0 -11 0 -11 9v29c0 42 11 59 48 59c27 0 35 -11 48 -38c23 -46 65 -65 65 2
v24c0 7 2 9 9 9h5c8 0 11 -2 11 -9v-28z" />
    <glyph glyph-name="Imacron" unicode="&#x12a;" horiz-adv-x="220" 
d="M212 757h-204c-6 0 -9 3 -9 8v12c0 5 3 8 9 8h204c6 0 9 -3 9 -8v-12c0 -5 -3 -8 -9 -8zM125 634v-625c0 -6 -3 -9 -8 -9h-14c-5 0 -8 3 -8 9v625c0 6 3 9 8 9h14c5 0 8 -3 8 -9z" />
    <glyph glyph-name="imacron" unicode="&#x12b;" horiz-adv-x="198" 
d="M201 627h-204c-6 0 -9 3 -9 8v9c0 5 3 8 9 8h204c6 0 9 -3 9 -8v-9c0 -5 -3 -8 -9 -8zM85 9v492c0 6 3 9 8 9h14c5 0 8 -3 8 -9v-492c0 -6 -3 -9 -8 -9h-14c-5 0 -8 3 -8 9z" />
    <glyph glyph-name="Ibreve" unicode="&#x12c;" horiz-adv-x="221" 
d="M15 814v13c0 6 3 9 8 9h10c5 0 8 -3 8 -9v-12c0 -63 18 -86 67 -86h4c52 0 70 23 70 86v11c0 6 3 9 8 9h8c5 0 8 -3 8 -9v-12c0 -75 -30 -107 -94 -107h-4c-64 0 -93 32 -93 107zM125 634v-625c0 -6 -3 -9 -8 -9h-14c-5 0 -8 3 -8 9v625c0 6 3 9 8 9h14c5 0 8 -3 8 -9z
" />
    <glyph glyph-name="ibreve" unicode="&#x12d;" horiz-adv-x="201" 
d="M5 681v13c0 6 3 9 8 9h10c5 0 8 -3 8 -9v-12c0 -63 18 -86 67 -86h4c52 0 70 23 70 86v11c0 6 3 9 8 9h8c5 0 8 -3 8 -9v-12c0 -75 -30 -107 -94 -107h-4c-64 0 -93 32 -93 107zM85 9v492c0 6 3 9 8 9h14c5 0 8 -3 8 -9v-492c0 -6 -3 -9 -8 -9h-14c-5 0 -8 3 -8 9z" />
    <glyph glyph-name="Iogonek" unicode="&#x12e;" horiz-adv-x="220" 
d="M103 643h14c5 0 8 -3 8 -9v-625c0 -6 -3 -9 -8 -9h-7l-57 -74h38c19 0 29 -3 29 -10c0 -11 -22 -17 -67 -17c-31 0 -40 18 -24 35l66 83v617c0 6 3 9 8 9z" />
    <glyph glyph-name="iogonek" unicode="&#x12f;" horiz-adv-x="200" 
d="M93 701h14c5 0 8 -3 8 -9v-99c0 -6 -3 -9 -8 -9h-14c-5 0 -8 3 -8 9v99c0 6 3 9 8 9zM93 510h14c5 0 8 -3 8 -9v-492c0 -6 -3 -9 -8 -9h-7l-57 -74h38c19 0 29 -3 29 -10c0 -16 -41 -26 -69 -26s-38 27 -22 44l66 83v484c0 6 3 9 8 9z" />
    <glyph glyph-name="Idot" unicode="&#x130;" horiz-adv-x="220" 
d="M125 634v-625c0 -6 -3 -9 -8 -9h-14c-5 0 -8 3 -8 9v625c0 6 3 9 8 9h14c5 0 8 -3 8 -9zM95 692v99c0 6 3 9 8 9h14c5 0 8 -3 8 -9v-99c0 -6 -3 -9 -8 -9h-14c-5 0 -8 3 -8 9z" />
    <glyph glyph-name="dotlessi" unicode="&#x131;" horiz-adv-x="200" 
d="M85 9v492c0 6 3 9 8 9h14c5 0 8 -3 8 -9v-492c0 -6 -3 -9 -8 -9h-14c-5 0 -8 3 -8 9z" />
    <glyph glyph-name="IJ" unicode="&#x132;" horiz-adv-x="712" 
d="M610 643h14c5 0 8 -3 8 -8v-499c0 -83 -53 -136 -134 -136h-100c-81 0 -134 53 -134 136v80c0 6 3 9 8 9h14c5 0 8 -3 8 -9v-79c0 -68 37 -109 104 -109h100c67 0 104 41 104 109v497c0 6 3 9 8 9zM125 634v-625c0 -6 -3 -9 -8 -9h-14c-5 0 -8 3 -8 9v625c0 6 3 9 8 9h14
c5 0 8 -3 8 -9z" />
    <glyph glyph-name="ij" unicode="&#x133;" horiz-adv-x="400" 
d="M85 9v492c0 6 3 9 8 9h14c5 0 8 -3 8 -9v-492c0 -6 -3 -9 -8 -9h-14c-5 0 -8 3 -8 9zM85 593v99c0 6 3 9 8 9h14c5 0 8 -3 8 -9v-99c0 -6 -3 -9 -8 -9h-14c-5 0 -8 3 -8 9zM285 593v99c0 6 3 9 8 9h14c5 0 8 -3 8 -9v-99c0 -6 -3 -9 -8 -9h-14c-5 0 -8 3 -8 9zM181 -133
h-20c-6 0 -9 3 -9 8v12c0 5 3 8 9 8h20c67 0 104 41 104 109v497c0 6 3 9 8 9h14c5 0 8 -3 8 -9v-498c0 -83 -53 -136 -134 -136z" />
    <glyph glyph-name="Jcircumflex" unicode="&#x134;" horiz-adv-x="493" 
d="M386 643h14c5 0 8 -3 8 -8v-499c0 -83 -53 -136 -134 -136h-100c-81 0 -134 53 -134 136v80c0 6 3 9 8 9h14c5 0 8 -3 8 -9v-79c0 -68 37 -109 104 -109h100c67 0 104 41 104 109v497c0 6 3 9 8 9zM473 707h-14c-6 0 -10 2 -11 5l-59 105l-59 -105c-1 -3 -5 -5 -11 -5
h-14c-7 0 -9 4 -4 11l64 109c4 6 10 9 19 9h10c9 0 15 -3 19 -9l64 -109c5 -7 3 -11 -4 -11z" />
    <glyph glyph-name="jcircumflex" unicode="&#x135;" horiz-adv-x="200" 
d="M184 574h-14c-5 0 -9 2 -11 5l-59 105l-59 -105c-2 -3 -6 -5 -11 -5h-14c-7 0 -9 4 -4 11l64 109c4 6 10 9 19 9h10c9 0 15 -3 19 -9l64 -109c5 -7 3 -11 -4 -11zM-19 -133h-20c-6 0 -9 3 -9 8v12c0 5 3 8 9 8h20c67 0 104 41 104 109v497c0 6 3 9 8 9h14c5 0 8 -3 8 -9
v-498c0 -83 -53 -136 -134 -136z" />
    <glyph glyph-name="uni0136" unicode="&#x136;" horiz-adv-x="523" 
d="M310 -41v-47c0 -10 -9 -58 -26 -144c-3 -8 -11 -8 -11 0v191c0 6 3 9 8 9h21c5 0 8 -3 8 -9zM112 0h-14c-5 0 -8 3 -8 9v625c0 6 3 9 8 9h14c5 0 8 -3 8 -9v-392h4c4 9 9 17 15 25l281 367c5 6 10 9 16 9h19c7 0 7 -3 2 -9l-204 -271l238 -354c4 -6 3 -9 -4 -9h-16
c-6 0 -11 3 -15 9l-222 330l-114 -137v-193c0 -6 -3 -9 -8 -9z" />
    <glyph glyph-name="uni0137" unicode="&#x137;" horiz-adv-x="420" 
d="M366 510h14c7 0 9 -3 4 -9l-159 -235v-4l180 -253c5 -6 4 -9 -3 -9h-17c-7 0 -13 3 -18 9l-175 249c-3 4 -3 8 0 12l158 233c3 5 9 7 16 7zM102 0h-14c-5 0 -8 3 -8 9v685c0 6 3 9 8 9h14c5 0 8 -3 8 -9v-685c0 -6 -3 -9 -8 -9zM253 -41v-47c0 -10 -9 -58 -26 -144
c-1 -8 -11 -8 -11 0v191c0 6 3 9 8 9h21c5 0 8 -3 8 -9z" />
    <glyph glyph-name="Lacute" unicode="&#x139;" horiz-adv-x="452" 
d="M180 836h30c5 0 8 -4 4 -9l-92 -112c-4 -5 -9 -8 -14 -8h-8c-5 0 -6 3 -3 9l68 111c3 6 8 9 15 9zM413 0h-315c-5 0 -8 3 -8 9v625c0 6 3 9 8 9h14c5 0 8 -3 8 -9v-596c0 -5 3 -8 9 -8h284c6 0 9 -3 9 -8v-14c0 -5 -3 -8 -9 -8z" />
    <glyph glyph-name="lacute" unicode="&#x13a;" horiz-adv-x="197" 
d="M173 877h30c5 0 8 -4 4 -9l-92 -112c-4 -5 -9 -8 -14 -8h-8c-5 0 -6 3 -3 9l68 111c3 6 8 9 15 9zM107 0h-14c-5 0 -8 3 -8 9v685c0 6 3 9 8 9h14c5 0 8 -3 8 -9v-685c0 -6 -3 -9 -8 -9z" />
    <glyph glyph-name="uni013B" unicode="&#x13b;" horiz-adv-x="452" 
d="M275 -41v-47c0 -10 -9 -58 -26 -144c-1 -8 -11 -8 -11 0v191c0 6 3 9 8 9h21c5 0 8 -3 8 -9zM413 0h-315c-5 0 -8 3 -8 9v625c0 6 3 9 8 9h14c5 0 8 -3 8 -9v-596c0 -5 3 -8 9 -8h284c6 0 9 -3 9 -8v-14c0 -5 -3 -8 -9 -8z" />
    <glyph glyph-name="uni013C" unicode="&#x13c;" horiz-adv-x="201" 
d="M119 -41v-47c0 -10 -9 -58 -26 -144c-1 -8 -11 -8 -11 0v191c0 6 3 9 8 9h21c5 0 8 -3 8 -9zM107 0h-14c-5 0 -8 3 -8 9v685c0 6 3 9 8 9h14c5 0 8 -3 8 -9v-685c0 -6 -3 -9 -8 -9z" />
    <glyph glyph-name="Lcaron" unicode="&#x13d;" horiz-adv-x="452" 
d="M353 634v-79c0 -10 -9 -58 -26 -144c-1 -8 -11 -8 -11 0v223c0 6 3 9 8 9h21c5 0 8 -3 8 -9zM413 0h-315c-5 0 -8 3 -8 9v625c0 6 3 9 8 9h14c5 0 8 -3 8 -9v-596c0 -5 3 -8 9 -8h284c6 0 9 -3 9 -8v-14c0 -5 -3 -8 -9 -8z" />
    <glyph glyph-name="lcaron" unicode="&#x13e;" horiz-adv-x="252" 
d="M232 694v-79c0 -10 -9 -58 -26 -144c-3 -8 -11 -8 -11 0v223c0 6 3 9 8 9h21c5 0 8 -3 8 -9zM107 0h-14c-5 0 -8 3 -8 9v685c0 6 3 9 8 9h14c5 0 8 -3 8 -9v-685c0 -6 -3 -9 -8 -9z" />
    <glyph glyph-name="Ldot" unicode="&#x13f;" horiz-adv-x="500" 
d="M413 0h-315c-5 0 -8 3 -8 9v625c0 6 3 9 8 9h14c5 0 8 -3 8 -9v-596c0 -5 3 -8 9 -8h284c6 0 9 -3 9 -8v-14c0 -5 -3 -8 -9 -8zM311 378v-119c0 -6 -3 -9 -8 -9h-21c-5 0 -8 3 -8 9v119c0 6 3 9 8 9h21c5 0 8 -3 8 -9z" />
    <glyph glyph-name="ldot" unicode="&#x140;" horiz-adv-x="291" 
d="M107 0h-14c-5 0 -8 3 -8 9v685c0 6 3 9 8 9h14c5 0 8 -3 8 -9v-685c0 -6 -3 -9 -8 -9zM241 378v-119c0 -6 -3 -9 -8 -9h-21c-5 0 -8 3 -8 9v119c0 6 3 9 8 9h21c5 0 8 -3 8 -9z" />
    <glyph glyph-name="Lslash" unicode="&#x141;" horiz-adv-x="500" 
d="M413 0h-315c-5 0 -8 3 -8 9v392l-75 -43c-6 -3 -9 -2 -9 4v16c0 5 3 9 9 12l75 43v201c0 6 3 9 8 9h14c5 0 8 -3 8 -9v-184l106 60c6 3 9 2 9 -5v-15c0 -5 -3 -9 -9 -12l-106 -60v-380c0 -5 3 -8 9 -8h284c6 0 9 -3 9 -8v-14c0 -5 -3 -8 -9 -8z" />
    <glyph glyph-name="lslash" unicode="&#x142;" horiz-adv-x="289" 
d="M151 0h-14c-5 0 -8 3 -8 9v400l-90 -51c-6 -3 -9 -2 -9 4v16c0 5 3 9 9 12l90 51v253c0 6 3 9 8 9h14c5 0 8 -3 8 -9v-236l91 52c6 3 9 2 9 -5v-15c0 -5 -3 -9 -9 -12l-91 -52v-417c0 -6 -3 -9 -8 -9z" />
    <glyph glyph-name="Nacute" unicode="&#x143;" horiz-adv-x="578" 
d="M375 836h30c5 0 8 -4 4 -9l-92 -112c-4 -5 -9 -8 -14 -8h-8c-5 0 -6 3 -3 9l68 111c3 6 8 9 15 9zM112 0h-14c-5 0 -8 3 -8 9v625c0 6 3 9 8 9h14c3 0 6 -1 7 -4l335 -567h4v562c0 6 3 9 8 9h14c5 0 8 -3 8 -9v-625c0 -6 -3 -9 -8 -9h-10c-5 0 -9 3 -12 8l-334 565h-4
v-564c0 -6 -3 -9 -8 -9z" />
    <glyph glyph-name="nacute" unicode="&#x144;" horiz-adv-x="503" 
d="M326 703h30c5 0 8 -4 4 -9l-92 -112c-4 -5 -9 -8 -14 -8h-8c-5 0 -6 3 -3 9l68 111c3 6 8 9 15 9zM102 0h-14c-5 0 -8 3 -8 9v492c0 6 3 9 8 9h14c5 0 8 -3 8 -9v-43h4c19 35 54 52 106 52h74c81 0 134 -53 134 -136v-365c0 -6 -3 -9 -8 -9h-14c-5 0 -8 3 -8 9v364
c0 68 -37 109 -104 109h-72c-67 0 -112 -37 -112 -104v-369c0 -6 -3 -9 -8 -9z" />
    <glyph glyph-name="uni0145" unicode="&#x145;" horiz-adv-x="578" 
d="M308 -41v-47c0 -10 -9 -58 -26 -144c-3 -8 -11 -8 -11 0v191c0 6 3 9 8 9h21c5 0 8 -3 8 -9zM112 0h-14c-5 0 -8 3 -8 9v625c0 6 3 9 8 9h14c3 0 6 -1 7 -4l335 -567h4v562c0 6 3 9 8 9h14c5 0 8 -3 8 -9v-625c0 -6 -3 -9 -8 -9h-10c-5 0 -9 3 -12 8l-334 565h-4v-564
c0 -6 -3 -9 -8 -9z" />
    <glyph glyph-name="uni0146" unicode="&#x146;" horiz-adv-x="500" 
d="M273 -41v-47c0 -10 -9 -58 -26 -144c-1 -8 -11 -8 -11 0v191c0 6 3 9 8 9h21c5 0 8 -3 8 -9zM102 0h-14c-5 0 -8 3 -8 9v492c0 6 3 9 8 9h14c5 0 8 -3 8 -9v-43h4c19 35 54 52 106 52h74c81 0 134 -53 134 -136v-365c0 -6 -3 -9 -8 -9h-14c-5 0 -8 3 -8 9v364
c0 68 -37 109 -104 109h-72c-67 0 -112 -37 -112 -104v-369c0 -6 -3 -9 -8 -9z" />
    <glyph glyph-name="Ncaron" unicode="&#x147;" horiz-adv-x="578" 
d="M112 0h-14c-5 0 -8 3 -8 9v625c0 6 3 9 8 9h14c3 0 6 -1 7 -4l335 -567h4v562c0 6 3 9 8 9h14c5 0 8 -3 8 -9v-625c0 -6 -3 -9 -8 -9h-10c-5 0 -9 3 -12 8l-334 565h-4v-564c0 -6 -3 -9 -8 -9zM294 707h-10c-9 0 -15 3 -19 9l-64 109c-5 7 -3 11 4 11h14c6 0 10 -2 11 -5
l59 -105l59 105c1 3 5 5 11 5h14c7 0 9 -4 4 -11l-64 -109c-4 -6 -10 -9 -19 -9z" />
    <glyph glyph-name="ncaron" unicode="&#x148;" horiz-adv-x="503" 
d="M259 574h-10c-9 0 -15 3 -19 9l-64 109c-5 7 -3 11 4 11h14c5 0 9 -2 11 -5l59 -105l59 105c2 3 6 5 11 5h14c7 0 9 -4 4 -11l-64 -109c-4 -6 -10 -9 -19 -9zM102 0h-14c-5 0 -8 3 -8 9v492c0 6 3 9 8 9h14c5 0 8 -3 8 -9v-43h4c19 35 54 52 106 52h74
c81 0 134 -53 134 -136v-365c0 -6 -3 -9 -8 -9h-14c-5 0 -8 3 -8 9v364c0 68 -37 109 -104 109h-72c-67 0 -112 -37 -112 -104v-369c0 -6 -3 -9 -8 -9z" />
    <glyph glyph-name="Eng" unicode="&#x14a;" horiz-adv-x="500" 
d="M354 -133h-20c-6 0 -9 3 -9 8v12c0 5 3 8 9 8h20c67 0 104 41 104 109v4l-334 565h-4v-564c0 -6 -3 -9 -8 -9h-14c-5 0 -8 3 -8 9v625c0 6 3 9 8 9h14c3 0 6 -1 7 -4l335 -567h4v562c0 6 3 9 8 9h14c5 0 8 -3 8 -9v-631c0 -83 -53 -136 -134 -136z" />
    <glyph glyph-name="eng" unicode="&#x14b;" horiz-adv-x="503" 
d="M294 -133h-20c-6 0 -9 3 -9 8v12c0 5 3 8 9 8h20c67 0 104 41 104 109v369c0 68 -37 109 -104 109h-72c-67 0 -112 -37 -112 -104v-369c0 -6 -3 -9 -8 -9h-14c-5 0 -8 3 -8 9v492c0 6 3 9 8 9h14c5 0 8 -3 8 -9v-43h4c19 35 54 52 106 52h74c81 0 134 -53 134 -136v-371
c0 -83 -53 -136 -134 -136z" />
    <glyph glyph-name="Omacron" unicode="&#x14c;" horiz-adv-x="553" 
d="M378 757h-204c-6 0 -9 3 -9 8v12c0 5 3 8 9 8h204c6 0 9 -3 9 -8v-12c0 -5 -3 -8 -9 -8zM214 28h125c67 0 104 41 104 109v369c0 68 -37 109 -104 109h-125c-67 0 -104 -41 -104 -109v-369c0 -68 37 -109 104 -109zM339 0h-125c-81 0 -134 53 -134 136v371
c0 83 53 136 134 136h125c81 0 134 -53 134 -136v-371c0 -83 -53 -136 -134 -136z" />
    <glyph glyph-name="omacron" unicode="&#x14d;" horiz-adv-x="493" 
d="M348 627h-204c-6 0 -9 3 -9 8v9c0 5 3 8 9 8h204c6 0 9 -3 9 -8v-9c0 -5 -3 -8 -9 -8zM289 0h-85c-81 0 -134 53 -134 136v238c0 83 53 136 134 136h85c81 0 134 -53 134 -136v-238c0 -83 -53 -136 -134 -136zM204 28h85c67 0 104 41 104 109v236c0 68 -37 109 -104 109
h-85c-67 0 -104 -41 -104 -109v-236c0 -68 37 -109 104 -109z" />
    <glyph glyph-name="Obreve" unicode="&#x14e;" horiz-adv-x="553" 
d="M181 814v13c0 6 3 9 8 9h10c5 0 8 -3 8 -9v-12c0 -63 18 -86 67 -86h4c52 0 70 23 70 86v11c0 6 3 9 8 9h8c5 0 8 -3 8 -9v-12c0 -75 -30 -107 -94 -107h-4c-64 0 -93 32 -93 107zM214 28h125c67 0 104 41 104 109v369c0 68 -37 109 -104 109h-125
c-67 0 -104 -41 -104 -109v-369c0 -68 37 -109 104 -109zM339 0h-125c-81 0 -134 53 -134 136v371c0 83 53 136 134 136h125c81 0 134 -53 134 -136v-371c0 -83 -53 -136 -134 -136z" />
    <glyph glyph-name="obreve" unicode="&#x14f;" horiz-adv-x="493" 
d="M151 681v13c0 6 3 9 8 9h10c5 0 8 -3 8 -9v-12c0 -63 18 -86 67 -86h4c52 0 70 23 70 86v11c0 6 3 9 8 9h8c5 0 8 -3 8 -9v-12c0 -75 -30 -107 -94 -107h-4c-64 0 -93 32 -93 107zM289 0h-85c-81 0 -134 53 -134 136v238c0 83 53 136 134 136h85c81 0 134 -53 134 -136
v-238c0 -83 -53 -136 -134 -136zM204 28h85c67 0 104 41 104 109v236c0 68 -37 109 -104 109h-85c-67 0 -104 -41 -104 -109v-236c0 -68 37 -109 104 -109z" />
    <glyph glyph-name="Ohungarumlaut" unicode="&#x150;" horiz-adv-x="553" 
d="M287 836h22c5 0 8 -4 4 -9l-82 -112c-4 -5 -8 -8 -13 -8h-9c-5 0 -6 3 -3 9l66 111c3 6 8 9 15 9zM403 836h22c5 0 8 -4 4 -9l-82 -112c-4 -5 -8 -8 -13 -8h-9c-5 0 -6 3 -3 9l66 111c3 6 8 9 15 9zM214 28h125c67 0 104 41 104 109v369c0 68 -37 109 -104 109h-125
c-67 0 -104 -41 -104 -109v-369c0 -68 37 -109 104 -109zM339 0h-125c-81 0 -134 53 -134 136v371c0 83 53 136 134 136h125c81 0 134 -53 134 -136v-371c0 -83 -53 -136 -134 -136z" />
    <glyph glyph-name="ohungarumlaut" unicode="&#x151;" horiz-adv-x="493" 
d="M263 703h22c5 0 8 -4 4 -9l-82 -112c-4 -5 -8 -8 -13 -8h-9c-5 0 -6 3 -3 9l66 111c3 6 8 9 15 9zM379 703h22c5 0 8 -4 4 -9l-82 -112c-4 -5 -8 -8 -13 -8h-9c-5 0 -6 3 -3 9l66 111c3 6 8 9 15 9zM289 0h-85c-81 0 -134 53 -134 136v238c0 83 53 136 134 136h85
c81 0 134 -53 134 -136v-238c0 -83 -53 -136 -134 -136zM204 28h85c67 0 104 41 104 109v236c0 68 -37 109 -104 109h-85c-67 0 -104 -41 -104 -109v-236c0 -68 37 -109 104 -109z" />
    <glyph glyph-name="OE" unicode="&#x152;" horiz-adv-x="773" 
d="M80 136v371c0 83 53 136 134 136h470c6 0 9 -3 9 -8v-12c0 -5 -3 -8 -9 -8h-273c-6 0 -9 -3 -9 -8v-257c0 -5 3 -8 9 -8h247c6 0 9 -3 9 -8v-12c0 -5 -3 -8 -9 -8h-247c-6 0 -9 -3 -9 -8v-270c0 -5 3 -8 9 -8h273c6 0 9 -3 9 -8v-12c0 -5 -3 -8 -9 -8h-470
c-81 0 -134 53 -134 136zM214 28h149c6 0 9 3 9 8v571c0 5 -3 8 -9 8h-149c-67 0 -104 -41 -104 -109v-369c0 -68 37 -109 104 -109z" />
    <glyph glyph-name="oe" unicode="&#x153;" horiz-adv-x="819" 
d="M289 0h-85c-81 0 -134 53 -134 136v238c0 83 53 136 134 136h85c57 0 96 -22 119 -67c23 45 62 67 119 67h88c81 0 134 -53 134 -136v-127c0 -7 -3 -10 -9 -10h-308c-6 0 -9 -3 -9 -8v-92c0 -68 37 -109 104 -109h205c6 0 9 -3 9 -8v-12c0 -5 -3 -8 -9 -8h-205
c-57 0 -96 22 -119 67c-23 -45 -62 -67 -119 -67zM432 265h278c6 0 9 3 9 8v100c0 68 -37 109 -104 109h-88c-67 0 -104 -41 -104 -109v-100c0 -5 3 -8 9 -8zM204 28h85c67 0 104 41 104 109v236c0 68 -37 109 -104 109h-85c-67 0 -104 -41 -104 -109v-236
c0 -68 37 -109 104 -109z" />
    <glyph glyph-name="Racute" unicode="&#x154;" horiz-adv-x="530" 
d="M315 836h30c5 0 8 -4 4 -9l-92 -112c-4 -5 -9 -8 -14 -8h-8c-5 0 -6 3 -3 9l68 111c3 6 8 9 15 9zM112 0h-14c-5 0 -8 3 -8 9v625c0 6 3 9 8 9h225c81 0 134 -53 134 -136v-100c0 -75 -43 -125 -111 -134v-4l123 -260c3 -6 2 -9 -4 -9h-18c-5 0 -10 3 -13 9l-122 262
h-183c-6 0 -9 -3 -9 -8v-254c0 -6 -3 -9 -8 -9zM129 299h194c67 0 104 41 104 109v98c0 68 -37 109 -104 109h-194c-6 0 -9 -3 -9 -8v-300c0 -5 3 -8 9 -8z" />
    <glyph glyph-name="racute" unicode="&#x155;" horiz-adv-x="303" 
d="M215 703h30c5 0 8 -4 4 -9l-92 -112c-4 -5 -9 -8 -14 -8h-8c-5 0 -6 3 -3 9l68 111c3 6 8 9 15 9zM102 0h-14c-5 0 -8 3 -8 9v492c0 6 3 9 8 9h14c5 0 8 -3 8 -9v-45h4c15 27 51 54 110 54h40c6 0 9 -3 9 -8v-12c0 -5 -3 -8 -9 -8h-41c-68 0 -113 -46 -113 -119v-354
c0 -6 -3 -9 -8 -9z" />
    <glyph glyph-name="uni0156" unicode="&#x156;" horiz-adv-x="530" 
d="M280 -41v-47c0 -10 -9 -58 -26 -144c-3 -8 -11 -8 -11 0v191c0 6 3 9 8 9h21c5 0 8 -3 8 -9zM112 0h-14c-5 0 -8 3 -8 9v625c0 6 3 9 8 9h225c81 0 134 -53 134 -136v-100c0 -75 -43 -125 -111 -134v-4l123 -260c3 -6 2 -9 -4 -9h-18c-5 0 -10 3 -13 9l-122 262h-183
c-6 0 -9 -3 -9 -8v-254c0 -6 -3 -9 -8 -9zM129 299h194c67 0 104 41 104 109v98c0 68 -37 109 -104 109h-194c-6 0 -9 -3 -9 -8v-300c0 -5 3 -8 9 -8z" />
    <glyph glyph-name="uni0157" unicode="&#x157;" horiz-adv-x="303" 
d="M114 -41v-47c0 -10 -9 -58 -26 -144c-3 -8 -11 -8 -11 0v191c0 6 3 9 8 9h21c5 0 8 -3 8 -9zM102 0h-14c-5 0 -8 3 -8 9v492c0 6 3 9 8 9h14c5 0 8 -3 8 -9v-45h4c15 27 51 54 110 54h40c6 0 9 -3 9 -8v-12c0 -5 -3 -8 -9 -8h-41c-68 0 -113 -46 -113 -119v-354
c0 -6 -3 -9 -8 -9z" />
    <glyph glyph-name="Rcaron" unicode="&#x158;" horiz-adv-x="530" 
d="M255 707h-10c-9 0 -15 3 -19 9l-64 109c-5 7 -3 11 4 11h14c5 0 9 -2 11 -5l59 -105l59 105c2 3 6 5 11 5h14c7 0 9 -4 4 -11l-64 -109c-4 -6 -10 -9 -19 -9zM112 0h-14c-5 0 -8 3 -8 9v625c0 6 3 9 8 9h225c81 0 134 -53 134 -136v-100c0 -75 -43 -125 -111 -134v-4
l123 -260c3 -6 2 -9 -4 -9h-18c-5 0 -10 3 -13 9l-122 262h-183c-6 0 -9 -3 -9 -8v-254c0 -6 -3 -9 -8 -9zM129 299h194c67 0 104 41 104 109v98c0 68 -37 109 -104 109h-194c-6 0 -9 -3 -9 -8v-300c0 -5 3 -8 9 -8z" />
    <glyph glyph-name="rcaron" unicode="&#x159;" horiz-adv-x="303" 
d="M175 574h-10c-9 0 -15 3 -19 9l-64 109c-5 7 -3 11 4 11h14c5 0 9 -2 11 -5l59 -105l59 105c2 3 6 5 11 5h14c7 0 9 -4 4 -11l-64 -109c-4 -6 -10 -9 -19 -9zM102 0h-14c-5 0 -8 3 -8 9v492c0 6 3 9 8 9h14c5 0 8 -3 8 -9v-45h4c15 27 51 54 110 54h40c6 0 9 -3 9 -8v-12
c0 -5 -3 -8 -9 -8h-41c-68 0 -113 -46 -113 -119v-354c0 -6 -3 -9 -8 -9z" />
    <glyph glyph-name="Sacute" unicode="&#x15a;" horiz-adv-x="568" 
d="M351 836h30c5 0 8 -4 4 -9l-92 -112c-4 -5 -9 -8 -14 -8h-8c-5 0 -6 3 -3 9l68 111c3 6 8 9 15 9zM90 136v40c0 6 3 9 8 9h14c5 0 8 -3 8 -9v-39c0 -68 37 -109 104 -109h120c67 0 104 41 104 109v50c0 63 -56 98 -127 114c-101 25 -231 41 -231 146v60
c0 83 53 136 134 136h120c81 0 134 -53 134 -136v-30c0 -6 -3 -9 -8 -9h-14c-5 0 -8 3 -8 9v29c0 68 -37 109 -104 109h-120c-67 0 -104 -41 -104 -109v-58c0 -49 42 -83 126 -102c101 -20 233 -44 232 -157v-53c0 -83 -53 -136 -134 -136h-120c-81 0 -134 53 -134 136z" />
    <glyph glyph-name="sacute" unicode="&#x15b;" horiz-adv-x="423" 
d="M265 703h30c5 0 8 -4 4 -9l-92 -112c-4 -5 -9 -8 -14 -8h-8c-5 0 -6 3 -3 9l68 111c3 6 8 9 15 9zM238 0h-170c-6 0 -9 3 -9 8v12c0 5 3 8 9 8h170c67 0 101 27 101 80v30c0 49 -15 79 -60 95l-132 46c-69 24 -93 55 -93 119c0 75 41 112 122 112h161c6 0 9 -3 9 -8v-12
c0 -5 -3 -8 -9 -8h-161c-61 0 -91 -33 -91 -69v-27c0 -43 21 -63 68 -79l131 -47c71 -20 85 -63 85 -144s-42 -116 -131 -116z" />
    <glyph glyph-name="Scircumflex" unicode="&#x15c;" horiz-adv-x="568" 
d="M368 707h-14c-5 0 -9 2 -11 5l-59 105l-59 -105c-2 -3 -6 -5 -11 -5h-14c-7 0 -9 4 -4 11l64 109c4 6 10 9 19 9h10c9 0 15 -3 19 -9l64 -109c5 -7 3 -11 -4 -11zM90 136v40c0 6 3 9 8 9h14c5 0 8 -3 8 -9v-39c0 -68 37 -109 104 -109h120c67 0 104 41 104 109v50
c0 63 -56 98 -127 114c-101 25 -231 41 -231 146v60c0 83 53 136 134 136h120c81 0 134 -53 134 -136v-30c0 -6 -3 -9 -8 -9h-14c-5 0 -8 3 -8 9v29c0 68 -37 109 -104 109h-120c-67 0 -104 -41 -104 -109v-58c0 -49 42 -83 126 -102c101 -20 233 -44 232 -157v-53
c0 -83 -53 -136 -134 -136h-120c-81 0 -134 53 -134 136z" />
    <glyph glyph-name="scircumflex" unicode="&#x15d;" horiz-adv-x="423" 
d="M294 574h-14c-5 0 -9 2 -11 5l-59 105l-59 -105c-2 -3 -6 -5 -11 -5h-14c-7 0 -9 4 -4 11l64 109c4 6 10 9 19 9h10c9 0 15 -3 19 -9l64 -109c5 -7 3 -11 -4 -11zM238 0h-170c-6 0 -9 3 -9 8v12c0 5 3 8 9 8h170c67 0 101 27 101 80v30c0 49 -15 79 -60 95l-132 46
c-69 24 -93 55 -93 119c0 75 41 112 122 112h161c6 0 9 -3 9 -8v-12c0 -5 -3 -8 -9 -8h-161c-61 0 -91 -33 -91 -69v-27c0 -43 21 -63 68 -79l131 -47c71 -20 85 -63 85 -144s-42 -116 -131 -116z" />
    <glyph glyph-name="uni015E" unicode="&#x15e;" horiz-adv-x="568" 
d="M470 468h-14c-5 0 -8 3 -8 9v29c0 68 -37 109 -104 109h-120c-67 0 -104 -41 -104 -109v-58c0 -49 42 -83 126 -102c101 -20 233 -44 232 -157v-53c0 -83 -53 -136 -134 -136h-21l-46 -50v-4c53 0 79 -16 79 -57v-10c0 -38 -26 -57 -79 -57h-19c-6 0 -9 3 -9 8v10
c0 5 3 8 9 8h16c40 0 55 9 55 34v2c0 27 -14 36 -55 36h-9c-23 0 -31 20 -16 35l40 45h-65c-81 0 -134 53 -134 136v40c0 6 3 9 8 9h14c5 0 8 -3 8 -9v-39c0 -68 37 -109 104 -109h120c67 0 104 41 104 109v50c0 63 -56 98 -127 114c-101 25 -231 41 -231 146v60
c0 83 53 136 134 136h120c81 0 134 -53 134 -136v-30c0 -6 -3 -9 -8 -9z" />
    <glyph glyph-name="uni015F" unicode="&#x15f;" horiz-adv-x="423" 
d="M205 -50v-4c53 0 79 -16 79 -57v-10c0 -38 -26 -57 -79 -57h-19c-6 0 -9 3 -9 8v10c0 5 3 8 9 8h16c37 0 55 11 55 34v2c0 27 -14 36 -55 36h-9c-23 0 -31 20 -16 35l40 45h-149c-6 0 -9 3 -9 8v12c0 5 3 8 9 8h170c67 0 101 27 101 80v30c0 49 -15 79 -60 95l-132 46
c-69 24 -93 55 -93 119c0 75 41 112 122 112h161c6 0 9 -3 9 -8v-12c0 -5 -3 -8 -9 -8h-161c-61 0 -91 -33 -91 -69v-27c0 -43 21 -63 68 -79l131 -47c71 -20 85 -63 85 -143c0 -79 -37 -113 -117 -117z" />
    <glyph glyph-name="Scaron" unicode="&#x160;" horiz-adv-x="568" 
d="M289 707h-10c-9 0 -15 3 -19 9l-64 109c-5 7 -3 11 4 11h14c5 0 9 -2 11 -5l59 -105l59 105c2 3 6 5 11 5h14c7 0 9 -4 4 -11l-64 -109c-4 -6 -10 -9 -19 -9zM90 136v40c0 6 3 9 8 9h14c5 0 8 -3 8 -9v-39c0 -68 37 -109 104 -109h120c67 0 104 41 104 109v50
c0 63 -56 98 -127 114c-101 25 -231 41 -231 146v60c0 83 53 136 134 136h120c81 0 134 -53 134 -136v-30c0 -6 -3 -9 -8 -9h-14c-5 0 -8 3 -8 9v29c0 68 -37 109 -104 109h-120c-67 0 -104 -41 -104 -109v-58c0 -49 42 -83 126 -102c101 -20 233 -44 232 -157v-53
c0 -83 -53 -136 -134 -136h-120c-81 0 -134 53 -134 136z" />
    <glyph glyph-name="scaron" unicode="&#x161;" horiz-adv-x="423" 
d="M215 574h-10c-9 0 -15 3 -19 9l-64 109c-5 7 -3 11 4 11h14c5 0 9 -2 11 -5l59 -105l59 105c2 3 6 5 11 5h14c7 0 9 -4 4 -11l-64 -109c-4 -6 -10 -9 -19 -9zM238 0h-170c-6 0 -9 3 -9 8v12c0 5 3 8 9 8h170c67 0 101 27 101 80v30c0 49 -15 79 -60 95l-132 46
c-69 24 -93 55 -93 119c0 75 41 112 122 112h161c6 0 9 -3 9 -8v-12c0 -5 -3 -8 -9 -8h-161c-61 0 -91 -33 -91 -69v-27c0 -43 21 -63 68 -79l131 -47c71 -20 85 -63 85 -144s-42 -116 -131 -116z" />
    <glyph glyph-name="uni0162" unicode="&#x162;" horiz-adv-x="414" 
d="M226 -41v-47c0 -10 -9 -58 -26 -144c-3 -8 -11 -8 -11 0v191c0 6 3 9 8 9h21c5 0 8 -3 8 -9zM214 0h-14c-5 0 -8 3 -8 9v598c0 5 -3 8 -9 8h-154c-6 0 -9 3 -9 8v12c0 5 3 8 9 8h356c6 0 9 -3 9 -8v-12c0 -5 -3 -8 -9 -8h-154c-6 0 -9 -3 -9 -8v-598c0 -6 -3 -9 -8 -9z
" />
    <glyph glyph-name="uni0163" unicode="&#x163;" horiz-adv-x="346" 
d="M227 -41v-47c0 -10 -9 -58 -26 -144c-1 -8 -11 -8 -11 0v191c0 6 3 9 8 9h21c5 0 8 -3 8 -9zM105 482h-66c-6 0 -9 3 -9 8v12c0 5 3 8 9 8h66c6 0 9 3 9 8v78c0 6 3 9 8 9h14c5 0 8 -3 8 -9v-78c0 -5 3 -8 9 -8h129c6 0 9 -3 9 -8v-12c0 -5 -3 -8 -9 -8h-129
c-6 0 -9 -3 -9 -8v-340c0 -67 42 -106 110 -106h38c6 0 9 -3 9 -8v-12c0 -5 -3 -8 -9 -8h-38c-83 0 -140 52 -140 133v341c0 5 -3 8 -9 8z" />
    <glyph glyph-name="Tcaron" unicode="&#x164;" horiz-adv-x="414" 
d="M213 707h-10c-9 0 -15 3 -19 9l-64 109c-5 7 -3 11 4 11h14c5 0 9 -2 11 -5l59 -105l59 105c2 3 6 5 11 5h14c7 0 9 -4 4 -11l-64 -109c-4 -6 -10 -9 -19 -9zM214 0h-14c-5 0 -8 3 -8 9v598c0 5 -3 8 -9 8h-154c-6 0 -9 3 -9 8v12c0 5 3 8 9 8h356c6 0 9 -3 9 -8v-12
c0 -5 -3 -8 -9 -8h-154c-6 0 -9 -3 -9 -8v-598c0 -6 -3 -9 -8 -9z" />
    <glyph glyph-name="tcaron" unicode="&#x165;" horiz-adv-x="377" 
d="M367 634v-79c0 -10 -9 -58 -26 -144c-1 -8 -11 -8 -11 0v223c0 6 3 9 8 9h21c5 0 8 -3 8 -9zM105 482h-66c-6 0 -9 3 -9 8v12c0 5 3 8 9 8h66c6 0 9 3 9 8v78c0 6 3 9 8 9h14c5 0 8 -3 8 -9v-78c0 -5 3 -8 9 -8h129c6 0 9 -3 9 -8v-12c0 -5 -3 -8 -9 -8h-129
c-6 0 -9 -3 -9 -8v-340c0 -67 42 -106 110 -106h38c6 0 9 -3 9 -8v-12c0 -5 -3 -8 -9 -8h-38c-83 0 -140 52 -140 133v341c0 5 -3 8 -9 8z" />
    <glyph glyph-name="Tbar" unicode="&#x166;" horiz-adv-x="500" 
d="M214 0h-14c-5 0 -8 3 -8 9v315c0 5 -3 8 -9 8h-104c-6 0 -9 3 -9 8v12c0 5 3 8 9 8h104c6 0 9 3 9 8v239c0 5 -3 8 -9 8h-154c-6 0 -9 3 -9 8v12c0 5 3 8 9 8h356c6 0 9 -3 9 -8v-12c0 -5 -3 -8 -9 -8h-154c-6 0 -9 -3 -9 -8v-239c0 -5 3 -8 9 -8h114c6 0 9 -3 9 -8v-12
c0 -5 -3 -8 -9 -8h-114c-6 0 -9 -3 -9 -8v-315c0 -6 -3 -9 -8 -9z" />
    <glyph glyph-name="tbar" unicode="&#x167;" horiz-adv-x="346" 
d="M292 0h-38c-83 0 -140 52 -140 133v141c0 5 -3 8 -9 8h-66c-6 0 -9 3 -9 8v12c0 5 3 8 9 8h66c6 0 9 3 9 8v156c0 5 -3 8 -9 8h-66c-6 0 -9 3 -9 8v12c0 5 3 8 9 8h66c6 0 9 3 9 8v78c0 6 3 9 8 9h14c5 0 8 -3 8 -9v-78c0 -5 3 -8 9 -8h129c6 0 9 -3 9 -8v-12
c0 -5 -3 -8 -9 -8h-129c-6 0 -9 -3 -9 -8v-156c0 -5 3 -8 9 -8h129c6 0 9 -3 9 -8v-12c0 -5 -3 -8 -9 -8h-129c-6 0 -9 -3 -9 -8v-140c0 -67 42 -106 110 -106h38c6 0 9 -3 9 -8v-12c0 -5 -3 -8 -9 -8z" />
    <glyph glyph-name="Utilde" unicode="&#x168;" horiz-adv-x="550" 
d="M443 643c-5 0 -8 -3 -8 -9v-497c0 -68 -37 -109 -104 -109h-112c-67 0 -104 41 -104 109v497c0 6 -3 9 -8 9h-14c-5 0 -8 -3 -8 -9v-498c0 -83 53 -136 134 -136h112c81 0 134 53 134 136v499c0 5 -3 8 -8 8h-14zM365 750c0 -41 -12 -58 -48 -58c-32 0 -39 9 -59 40
c-19 45 -55 63 -55 -4v-26c0 -9 -2 -9 -9 -9h-4c-7 0 -11 0 -11 9v29c0 42 11 59 48 59c27 0 35 -11 48 -38c23 -46 65 -65 65 2v24c0 7 2 9 9 9h5c8 0 11 -2 11 -9v-28z" />
    <glyph glyph-name="utilde" unicode="&#x169;" horiz-adv-x="503" 
d="M283 0c52 0 87 17 106 52h4v-43c0 -6 3 -9 8 -9h14c5 0 8 3 8 9v492c0 6 -3 9 -8 9h-14c-5 0 -8 -3 -8 -9v-369c0 -67 -45 -104 -112 -104h-72c-67 0 -104 41 -104 109v364c0 6 -3 9 -8 9h-14c-5 0 -8 -3 -8 -9v-365c0 -83 53 -136 134 -136h74zM339 632
c0 -41 -12 -58 -48 -58c-32 0 -39 9 -59 40c-19 45 -55 63 -55 -4v-26c0 -9 -2 -9 -9 -9h-4c-7 0 -11 0 -11 9v29c0 42 11 59 48 59c27 0 35 -11 48 -38c23 -46 65 -65 65 2v24c0 7 2 9 9 9h5c8 0 11 -2 11 -9v-28z" />
    <glyph glyph-name="Umacron" unicode="&#x16a;" horiz-adv-x="550" 
d="M377 757h-204c-6 0 -9 3 -9 8v12c0 5 3 8 9 8h204c6 0 9 -3 9 -8v-12c0 -5 -3 -8 -9 -8zM443 643h14c5 0 8 -3 8 -8v-499c0 -83 -53 -136 -134 -136h-112c-81 0 -134 53 -134 136v498c0 6 3 9 8 9h14c5 0 8 -3 8 -9v-497c0 -68 37 -109 104 -109h112c67 0 104 41 104 109
v497c0 6 3 9 8 9z" />
    <glyph glyph-name="umacron" unicode="&#x16b;" horiz-adv-x="503" 
d="M351 627h-204c-6 0 -9 3 -9 8v9c0 5 3 8 9 8h204c6 0 9 -3 9 -8v-9c0 -5 -3 -8 -9 -8zM283 0h-74c-81 0 -134 53 -134 136v365c0 6 3 9 8 9h14c5 0 8 -3 8 -9v-364c0 -68 37 -109 104 -109h72c67 0 112 37 112 104v369c0 6 3 9 8 9h14c5 0 8 -3 8 -9v-492
c0 -6 -3 -9 -8 -9h-14c-5 0 -8 3 -8 9v43h-4c-19 -35 -54 -52 -106 -52z" />
    <glyph glyph-name="Ubreve" unicode="&#x16c;" horiz-adv-x="550" 
d="M180 814v13c0 6 3 9 8 9h10c5 0 8 -3 8 -9v-12c0 -63 18 -86 67 -86h4c52 0 70 23 70 86v11c0 6 3 9 8 9h8c5 0 8 -3 8 -9v-12c0 -75 -30 -107 -94 -107h-4c-64 0 -93 32 -93 107zM443 643h14c5 0 8 -3 8 -8v-499c0 -83 -53 -136 -134 -136h-112c-81 0 -134 53 -134 136
v498c0 6 3 9 8 9h14c5 0 8 -3 8 -9v-497c0 -68 37 -109 104 -109h112c67 0 104 41 104 109v497c0 6 3 9 8 9z" />
    <glyph glyph-name="ubreve" unicode="&#x16d;" horiz-adv-x="503" 
d="M154 671v13c0 6 3 9 8 9h10c5 0 8 -3 8 -9v-12c0 -63 18 -86 67 -86h4c52 0 70 23 70 86v11c0 6 3 9 8 9h8c5 0 8 -3 8 -9v-12c0 -75 -30 -107 -94 -107h-4c-64 0 -93 32 -93 107zM283 0h-74c-81 0 -134 53 -134 136v365c0 6 3 9 8 9h14c5 0 8 -3 8 -9v-364
c0 -68 37 -109 104 -109h72c67 0 112 37 112 104v369c0 6 3 9 8 9h14c5 0 8 -3 8 -9v-492c0 -6 -3 -9 -8 -9h-14c-5 0 -8 3 -8 9v43h-4c-19 -35 -54 -52 -106 -52z" />
    <glyph glyph-name="Uring" unicode="&#x16e;" horiz-adv-x="550" 
d="M279 692h-10c-49 0 -76 28 -76 79v22c0 51 27 78 76 78h10c49 0 78 -29 78 -78v-22c0 -49 -29 -79 -78 -79zM269 715h10c35 0 53 19 53 57v20c0 37 -18 56 -53 56h-10c-35 0 -52 -19 -52 -56v-20c0 -38 17 -57 52 -57zM443 643h14c5 0 8 -3 8 -8v-499
c0 -83 -53 -136 -134 -136h-112c-81 0 -134 53 -134 136v498c0 6 3 9 8 9h14c5 0 8 -3 8 -9v-497c0 -68 37 -109 104 -109h112c67 0 104 41 104 109v497c0 6 3 9 8 9z" />
    <glyph glyph-name="uring" unicode="&#x16f;" horiz-adv-x="503" 
d="M283 0h-74c-81 0 -134 53 -134 136v365c0 6 3 9 8 9h14c5 0 8 -3 8 -9v-364c0 -68 37 -109 104 -109h72c67 0 112 37 112 104v369c0 6 3 9 8 9h14c5 0 8 -3 8 -9v-492c0 -6 -3 -9 -8 -9h-14c-5 0 -8 3 -8 9v43h-4c-19 -35 -54 -52 -106 -52zM172 663v-40
c0 -36 14 -47 50 -47h14c37 0 51 11 51 47v40c0 35 -14 46 -51 46h-14c-36 0 -50 -11 -50 -46zM148 622v42c0 49 23 68 74 68h14c51 0 76 -23 76 -68v-42c0 -46 -25 -69 -76 -69h-14c-51 0 -74 20 -74 69z" />
    <glyph glyph-name="Uhungarumlaut" unicode="&#x170;" horiz-adv-x="550" 
d="M282 836h22c5 0 8 -4 4 -9l-82 -112c-4 -5 -8 -8 -13 -8h-9c-5 0 -6 3 -3 9l66 111c3 6 8 9 15 9zM398 836h22c5 0 8 -4 4 -9l-82 -112c-4 -5 -8 -8 -13 -8h-9c-5 0 -6 3 -3 9l66 111c3 6 8 9 15 9zM443 643h14c5 0 8 -3 8 -8v-499c0 -83 -53 -136 -134 -136h-112
c-81 0 -134 53 -134 136v498c0 6 3 9 8 9h14c5 0 8 -3 8 -9v-497c0 -68 37 -109 104 -109h112c67 0 104 41 104 109v497c0 6 3 9 8 9z" />
    <glyph glyph-name="uhungarumlaut" unicode="&#x171;" horiz-adv-x="503" 
d="M258 703h22c5 0 8 -4 4 -9l-82 -112c-4 -5 -8 -8 -13 -8h-9c-5 0 -6 3 -3 9l66 111c3 6 8 9 15 9zM374 703h22c5 0 8 -4 4 -9l-82 -112c-4 -5 -8 -8 -13 -8h-9c-5 0 -6 3 -3 9l66 111c3 6 8 9 15 9zM283 0h-74c-81 0 -134 53 -134 136v365c0 6 3 9 8 9h14c5 0 8 -3 8 -9
v-364c0 -68 37 -109 104 -109h72c67 0 112 37 112 104v369c0 6 3 9 8 9h14c5 0 8 -3 8 -9v-492c0 -6 -3 -9 -8 -9h-14c-5 0 -8 3 -8 9v43h-4c-19 -35 -54 -52 -106 -52z" />
    <glyph glyph-name="Uogonek" unicode="&#x172;" horiz-adv-x="550" 
d="M443 643h14c5 0 8 -3 8 -8v-499c0 -83 -53 -136 -134 -136h-21l-57 -74h38c19 0 29 -3 29 -10c0 -11 -22 -17 -67 -17c-31 0 -40 18 -24 35l52 66h-62c-81 0 -134 53 -134 136v498c0 6 3 9 8 9h14c5 0 8 -3 8 -9v-497c0 -68 37 -109 104 -109h112c67 0 104 41 104 109
v497c0 6 3 9 8 9z" />
    <glyph glyph-name="uogonek" unicode="&#x173;" horiz-adv-x="503" 
d="M401 510h14c5 0 8 -3 8 -9v-492c0 -6 -3 -9 -8 -9h-7l-57 -74h38c19 0 29 -3 29 -10c0 -16 -41 -26 -69 -26s-38 27 -22 44l66 83v35h-4c-19 -35 -54 -52 -106 -52h-74c-81 0 -134 53 -134 136v365c0 6 3 9 8 9h14c5 0 8 -3 8 -9v-364c0 -68 37 -109 104 -109h72
c67 0 112 37 112 104v369c0 6 3 9 8 9z" />
    <glyph glyph-name="Wcircumflex" unicode="&#x174;" horiz-adv-x="791" 
d="M479 707h-14c-6 0 -10 2 -11 5l-59 105l-59 -105c-1 -3 -5 -5 -11 -5h-14c-7 0 -9 4 -4 11l64 109c4 6 10 9 19 9h10c9 0 15 -3 19 -9l64 -109c5 -7 3 -11 -4 -11zM219 0h-27c-5 0 -9 3 -11 9l-145 625c-1 6 1 9 8 9h14c5 0 8 -3 10 -9l135 -596h4l167 596c2 6 6 9 11 9
h19c5 0 9 -3 11 -9l168 -596h4l135 596c1 6 5 9 11 9h15c6 0 8 -3 6 -9l-145 -625c-1 -6 -5 -9 -10 -9h-27c-5 0 -9 3 -11 9l-164 590h-4l-164 -590c-2 -6 -5 -9 -10 -9z" />
    <glyph glyph-name="wcircumflex" unicode="&#x175;" horiz-adv-x="679" 
d="M423 574h-14c-6 0 -10 2 -11 5l-59 105l-59 -105c-1 -3 -5 -5 -11 -5h-14c-7 0 -9 4 -4 11l64 109c4 6 10 9 19 9h10c9 0 15 -3 19 -9l64 -109c5 -7 3 -11 -4 -11zM202 0h-20c-5 0 -9 3 -11 9l-150 492c-2 6 0 9 6 9h15c5 0 8 -3 10 -9l138 -460h4l128 460c1 6 5 9 11 9
h14c6 0 10 -3 11 -9l126 -460h4l138 460c2 6 5 9 10 9h16c6 0 8 -3 6 -9l-150 -492c-2 -6 -6 -9 -11 -9h-21c-5 0 -9 3 -11 9l-124 445h-4l-124 -445c-2 -6 -6 -9 -11 -9z" />
    <glyph glyph-name="Ycircumflex" unicode="&#x176;" horiz-adv-x="486" 
d="M327 707h-14c-6 0 -10 2 -11 5l-59 105l-59 -105c-1 -3 -5 -5 -11 -5h-14c-7 0 -9 4 -4 11l64 109c4 6 10 9 19 9h10c9 0 15 -3 19 -9l64 -109c5 -7 3 -11 -4 -11zM250 0h-14c-5 0 -8 3 -8 9v236l-197 389c-3 6 -2 9 5 9h18c5 0 8 -3 11 -9l176 -350h4l176 350
c3 6 6 9 11 9h18c7 0 8 -3 5 -9l-197 -389v-236c0 -6 -3 -9 -8 -9z" />
    <glyph glyph-name="ycircumflex" unicode="&#x177;" horiz-adv-x="456" 
d="M320 574h-14c-5 0 -9 2 -11 5l-59 105l-59 -105c-2 -3 -6 -5 -11 -5h-14c-7 0 -9 4 -4 11l64 109c4 6 10 9 19 9h10c9 0 15 -3 19 -9l64 -109c5 -7 3 -11 -4 -11zM88 -147h-29c-6 0 -9 3 -9 8v12c0 5 3 8 9 8h29c27 0 45 5 56 15c11 9 20 16 25 21c5 4 11 13 17 26
c7 13 11 21 13 25c12 27 20 46 23 59h-10c-5 0 -9 3 -11 9l-170 465c-2 6 0 9 6 9h16c5 0 8 -3 10 -9l163 -445h4l163 445c2 6 5 9 10 9h16c6 0 8 -3 6 -9l-170 -465c-21 -59 -36 -98 -47 -115c-29 -45 -69 -67 -120 -68z" />
    <glyph glyph-name="Ydieresis" unicode="&#x178;" horiz-adv-x="486" 
d="M150 716v111c0 6 3 9 8 9h14c5 0 8 -3 8 -9v-111c0 -6 -3 -9 -8 -9h-14c-5 0 -8 3 -8 9zM306 716v111c0 6 3 9 8 9h14c5 0 8 -3 8 -9v-111c0 -6 -3 -9 -8 -9h-14c-5 0 -8 3 -8 9zM250 0h-14c-5 0 -8 3 -8 9v236l-197 389c-3 6 -2 9 5 9h18c5 0 8 -3 11 -9l176 -350h4
l176 350c3 6 6 9 11 9h18c7 0 8 -3 5 -9l-197 -389v-236c0 -6 -3 -9 -8 -9z" />
    <glyph glyph-name="Zacute" unicode="&#x179;" horiz-adv-x="471" 
d="M321 836h30c5 0 8 -4 4 -9l-92 -112c-4 -5 -9 -8 -14 -8h-8c-5 0 -6 3 -3 9l68 111c3 6 8 9 15 9zM40 8v17c0 4 1 7 2 9l344 577v4h-327c-6 0 -9 3 -9 8v12c0 5 3 8 9 8h353c6 0 9 -3 9 -8v-19c0 -3 -1 -6 -2 -8l-344 -576v-4h347c6 0 9 -3 9 -8v-12c0 -5 -3 -8 -9 -8
h-373c-6 0 -9 3 -9 8z" />
    <glyph glyph-name="zacute" unicode="&#x17a;" horiz-adv-x="393" 
d="M289 703h30c5 0 8 -4 4 -9l-92 -112c-4 -5 -9 -8 -14 -8h-8c-5 0 -6 3 -3 9l68 111c3 6 8 9 15 9zM35 8v9c0 4 1 7 2 9l275 452v4h-262c-6 0 -9 3 -9 8v12c0 5 3 8 9 8h293c6 0 9 -3 9 -8v-12c0 -3 -1 -6 -2 -8l-274 -450v-4h273c6 0 9 -3 9 -8v-12c0 -5 -3 -8 -9 -8
h-305c-6 0 -9 3 -9 8z" />
    <glyph glyph-name="Zdotaccent" unicode="&#x17b;" horiz-adv-x="471" 
d="M240 722v99c0 6 3 9 8 9h14c5 0 8 -3 8 -9v-99c0 -6 -3 -9 -8 -9h-14c-5 0 -8 3 -8 9zM40 8v17c0 4 1 7 2 9l344 577v4h-327c-6 0 -9 3 -9 8v12c0 5 3 8 9 8h353c6 0 9 -3 9 -8v-19c0 -3 -1 -6 -2 -8l-344 -576v-4h347c6 0 9 -3 9 -8v-12c0 -5 -3 -8 -9 -8h-373
c-6 0 -9 3 -9 8z" />
    <glyph glyph-name="zdotaccent" unicode="&#x17c;" horiz-adv-x="393" 
d="M200 589v99c0 6 3 9 8 9h14c5 0 8 -3 8 -9v-99c0 -6 -3 -9 -8 -9h-14c-5 0 -8 3 -8 9zM35 8v9c0 4 1 7 2 9l275 452v4h-262c-6 0 -9 3 -9 8v12c0 5 3 8 9 8h293c6 0 9 -3 9 -8v-12c0 -3 -1 -6 -2 -8l-274 -450v-4h273c6 0 9 -3 9 -8v-12c0 -5 -3 -8 -9 -8h-305
c-6 0 -9 3 -9 8z" />
    <glyph glyph-name="Zcaron" unicode="&#x17d;" horiz-adv-x="471" 
d="M256 707h-10c-9 0 -15 3 -19 9l-64 109c-5 7 -3 11 4 11h14c6 0 10 -2 11 -5l59 -105l59 105c1 3 5 5 11 5h14c7 0 9 -4 4 -11l-64 -109c-4 -6 -10 -9 -19 -9zM40 8v17c0 4 1 7 2 9l344 577v4h-327c-6 0 -9 3 -9 8v12c0 5 3 8 9 8h353c6 0 9 -3 9 -8v-19
c0 -3 -1 -6 -2 -8l-344 -576v-4h347c6 0 9 -3 9 -8v-12c0 -5 -3 -8 -9 -8h-373c-6 0 -9 3 -9 8z" />
    <glyph glyph-name="zcaron" unicode="&#x17e;" horiz-adv-x="393" 
d="M223 574h-10c-9 0 -15 3 -19 9l-64 109c-5 7 -3 11 4 11h14c5 0 9 -2 11 -5l59 -105l59 105c2 3 6 5 11 5h14c7 0 9 -4 4 -11l-64 -109c-4 -6 -10 -9 -19 -9zM35 8v9c0 4 1 7 2 9l275 452v4h-262c-6 0 -9 3 -9 8v12c0 5 3 8 9 8h293c6 0 9 -3 9 -8v-12c0 -3 -1 -6 -2 -8
l-274 -450v-4h273c6 0 9 -3 9 -8v-12c0 -5 -3 -8 -9 -8h-305c-6 0 -9 3 -9 8z" />
    <glyph glyph-name="florin" unicode="&#x192;" horiz-adv-x="486" 
d="M50 -133h-20c-7 0 -10 3 -10 8v11c0 6 3 9 10 9h26c58 0 95 36 110 107l76 358c1 7 -1 10 -7 10h-82c-7 0 -10 3 -10 8v10c0 5 3 8 9 8h89c6 0 10 3 11 8l35 165c19 89 68 134 146 134h23c7 0 10 -3 10 -8v-12c0 -5 -3 -8 -10 -8h-29c-58 0 -95 -36 -110 -107l-35 -164
c-1 -5 1 -8 7 -8h102c7 0 10 -3 10 -8v-10c0 -5 -3 -8 -8 -8h-110c-5 0 -9 -3 -10 -8l-77 -361c-17 -85 -67 -134 -146 -134z" />
    <glyph glyph-name="AEacute" unicode="&#x1fc;" horiz-adv-x="771" 
d="M485 836h30c5 0 8 -4 4 -9l-92 -112c-4 -5 -9 -8 -14 -8h-8c-5 0 -6 3 -3 9l68 111c3 6 8 9 15 9zM24 0h-19c-6 0 -7 3 -4 9l355 625c3 6 8 9 14 9h322c6 0 9 -3 9 -8v-12c0 -5 -3 -8 -9 -8h-273c-6 0 -9 -3 -9 -8v-257c0 -5 3 -8 9 -8h247c6 0 9 -3 9 -8v-12
c0 -5 -3 -8 -9 -8h-247c-6 0 -9 -3 -9 -8v-270c0 -5 3 -8 9 -8h273c6 0 9 -3 9 -8v-12c0 -5 -3 -8 -9 -8h-304c-5 0 -8 3 -8 9v174h-245l-99 -174c-3 -6 -7 -9 -12 -9zM152 213h228v394h-4z" />
    <glyph glyph-name="aeacute" unicode="&#x1fd;" horiz-adv-x="806" 
d="M485 703h30c5 0 8 -4 4 -9l-92 -112c-4 -5 -9 -8 -14 -8h-8c-5 0 -6 3 -3 9l68 111c3 6 8 9 15 9zM418 202v-65c0 -68 37 -109 104 -109h205c6 0 9 -3 9 -8v-12c0 -5 -3 -8 -9 -8h-205c-61 0 -101 23 -120 69c-21 -46 -62 -69 -124 -69h-74c-81 0 -134 53 -134 136v28
c0 83 53 136 134 136h175c6 0 9 3 9 8v65c0 68 -37 109 -104 109h-152c-6 0 -9 3 -9 8v12c0 5 3 8 9 8h152c60 0 100 -23 120 -69c21 46 63 69 124 69h74c81 0 134 -53 134 -136v-154c0 -7 -3 -10 -9 -10h-300c-6 0 -9 -3 -9 -8zM706 246v127c0 68 -37 109 -104 109h-72
c-67 0 -112 -37 -112 -104v-132c0 -5 3 -8 9 -8h270c6 0 9 3 9 8zM388 132v132c0 5 -3 8 -9 8h-175c-67 0 -104 -41 -104 -109v-26c0 -68 37 -109 104 -109h72c67 0 112 37 112 104z" />
    <glyph glyph-name="Oslashacute" unicode="&#x1fe;" horiz-adv-x="552" 
d="M473 507v-371c0 -83 -53 -136 -134 -136h-125c-52 0 -89 19 -112 56l-31 -43c-4 -5 -8 -6 -13 -3l-9 6c-4 3 -4 8 0 14l39 54c-5 17 -8 35 -8 52v371c0 83 53 136 134 136h125c51 0 88 -18 112 -55l30 41c4 5 8 7 13 4l9 -6c5 -3 5 -8 0 -14l-38 -53c5 -17 8 -35 8 -53z
M110 506v-369c0 -9 0 -16 1 -21l321 446c-15 35 -46 53 -93 53h-125c-67 0 -104 -41 -104 -109zM443 137v369c0 10 0 17 -1 22l-321 -446c15 -36 46 -54 93 -54h125c67 0 104 41 104 109zM271 707h-8c-5 0 -6 3 -3 9l68 111c3 6 8 9 15 9h30c5 0 8 -4 4 -9l-92 -112
c-4 -5 -9 -8 -14 -8z" />
    <glyph glyph-name="oslashacute" unicode="&#x1ff;" horiz-adv-x="521" 
d="M437 374v-238c0 -83 -53 -136 -134 -136h-85c-59 0 -99 24 -121 71l-42 -43c-5 -5 -9 -5 -12 0l-10 9c-4 4 -4 8 0 12l54 54c-2 10 -3 21 -3 33v238c0 83 53 136 134 136h85c59 0 99 -23 121 -70l42 42c4 4 8 4 12 1l10 -10c4 -3 4 -7 -1 -12l-53 -53c2 -11 3 -22 3 -34z
M114 373v-243l287 287c-14 43 -47 65 -98 65h-85c-67 0 -104 -41 -104 -109zM407 137v244l-287 -288c14 -43 47 -65 98 -65h85c67 0 104 41 104 109zM269 574h-8c-5 0 -6 3 -3 9l68 111c3 6 8 9 15 9h30c5 0 8 -4 4 -9l-92 -112c-4 -5 -9 -8 -14 -8z" />
    <glyph glyph-name="uni0218" unicode="&#x218;" horiz-adv-x="568" 
d="M315 -41v-47c0 -10 -9 -58 -26 -144c-1 -8 -11 -8 -11 0v191c0 6 3 9 8 9h21c5 0 8 -3 8 -9zM90 136v40c0 6 3 9 8 9h14c5 0 8 -3 8 -9v-39c0 -68 37 -109 104 -109h120c67 0 104 41 104 109v50c0 63 -56 98 -127 114c-101 25 -231 41 -231 146v60c0 83 53 136 134 136
h120c81 0 134 -53 134 -136v-30c0 -6 -3 -9 -8 -9h-14c-5 0 -8 3 -8 9v29c0 68 -37 109 -104 109h-120c-67 0 -104 -41 -104 -109v-58c0 -49 42 -83 126 -102c101 -20 233 -44 232 -157v-53c0 -83 -53 -136 -134 -136h-120c-81 0 -134 53 -134 136z" />
    <glyph glyph-name="uni0219" unicode="&#x219;" horiz-adv-x="423" 
d="M245 -41v-47c0 -10 -9 -58 -26 -144c-1 -8 -11 -8 -11 0v191c0 6 3 9 8 9h21c5 0 8 -3 8 -9zM238 0h-170c-6 0 -9 3 -9 8v12c0 5 3 8 9 8h170c67 0 101 27 101 80v30c0 49 -15 79 -60 95l-132 46c-69 24 -93 55 -93 119c0 75 41 112 122 112h161c6 0 9 -3 9 -8v-12
c0 -5 -3 -8 -9 -8h-161c-61 0 -91 -33 -91 -69v-27c0 -43 21 -63 68 -79l131 -47c71 -20 85 -63 85 -144s-42 -116 -131 -116z" />
    <glyph glyph-name="circumflex" unicode="&#x2c6;" horiz-adv-x="321" 
d="M244 574h-14c-5 0 -9 2 -11 5l-59 105l-59 -105c-2 -3 -6 -5 -11 -5h-14c-7 0 -9 4 -4 11l64 109c4 6 10 9 19 9h10c9 0 15 -3 19 -9l64 -109c5 -7 3 -11 -4 -11z" />
    <glyph glyph-name="caron" unicode="&#x2c7;" horiz-adv-x="321" 
d="M165 574h-10c-9 0 -15 3 -19 9l-64 109c-5 7 -3 11 4 11h14c5 0 9 -2 11 -5l59 -105l59 105c2 3 6 5 11 5h14c7 0 9 -4 4 -11l-64 -109c-4 -6 -10 -9 -19 -9z" />
    <glyph glyph-name="uni02C9" unicode="&#x2c9;" horiz-adv-x="362" 
d="M283 627h-204c-6 0 -9 3 -9 8v9c0 5 3 8 9 8h204c6 0 9 -3 9 -8v-9c0 -5 -3 -8 -9 -8z" />
    <glyph glyph-name="breve" unicode="&#x2d8;" horiz-adv-x="331" 
d="M70 681v13c0 6 3 9 8 9h10c5 0 8 -3 8 -9v-12c0 -63 18 -86 67 -86h4c52 0 70 23 70 86v11c0 6 3 9 8 9h8c5 0 8 -3 8 -9v-12c0 -75 -30 -107 -94 -107h-4c-64 0 -93 32 -93 107z" />
    <glyph glyph-name="dotaccent" unicode="&#x2d9;" horiz-adv-x="170" 
d="M70 589v99c0 6 3 9 8 9h14c5 0 8 -3 8 -9v-99c0 -6 -3 -9 -8 -9h-14c-5 0 -8 3 -8 9z" />
    <glyph glyph-name="ring" unicode="&#x2da;" horiz-adv-x="304" 
d="M75 663v-40c0 -36 14 -47 50 -47h14c37 0 51 11 51 47v40c0 35 -14 46 -51 46h-14c-36 0 -50 -11 -50 -46zM51 622v42c0 49 23 68 74 68h14c51 0 76 -23 76 -68v-42c0 -46 -25 -69 -76 -69h-14c-51 0 -74 20 -74 69z" />
    <glyph glyph-name="ogonek" unicode="&#x2db;" horiz-adv-x="243" 
d="M101 -74h38c19 0 29 -3 29 -10c0 -16 -41 -26 -69 -26s-38 27 -22 44l68 86h28z" />
    <glyph glyph-name="tilde" unicode="&#x2dc;" horiz-adv-x="374" 
d="M70 655v39c0 6 3 9 8 9h7c5 0 8 -3 8 -9v-38c0 -44 7 -58 30 -58s27 9 40 53c15 45 25 55 62 55s51 -21 51 -78v-42c0 -6 -3 -9 -8 -9h-7c-5 0 -8 3 -8 9v41c0 22 -2 37 -7 45c-8 17 -41 19 -52 -5c-1 -3 -5 -15 -11 -36c-6 -20 -13 -34 -22 -42c-8 -8 -21 -12 -40 -12
c-37 0 -51 21 -51 78z" />
    <glyph glyph-name="hungarumlaut" unicode="&#x2dd;" horiz-adv-x="367" 
d="M153 703h22c5 0 8 -4 4 -9l-82 -112c-4 -5 -8 -8 -13 -8h-9c-5 0 -6 3 -3 9l66 111c3 6 8 9 15 9zM269 703h22c5 0 8 -4 4 -9l-82 -112c-4 -5 -8 -8 -13 -8h-9c-5 0 -6 3 -3 9l66 111c3 6 8 9 15 9z" />
    <glyph glyph-name="Mu" unicode="&#x39c;" horiz-adv-x="518" 
d="M115 44v-168c0 -6 -3 -9 -8 -9h-14c-5 0 -8 3 -8 9v625c0 6 3 9 8 9h14c5 0 8 -3 8 -9v-364c0 -68 37 -109 104 -109h72c67 0 112 37 112 104v369c0 6 3 9 8 9h14c5 0 8 -3 8 -9v-492c0 -6 -3 -9 -8 -9h-14c-5 0 -8 3 -8 9v43h-4c-19 -35 -54 -52 -106 -52h-34
c-17 -1 -29 -1 -35 0c-11 0 -45 2 -60 9c-22 11 -38 22 -49 35z" />
    <glyph glyph-name="Pi" unicode="&#x3a0;" horiz-adv-x="590" 
d="M172 0h-14c-5 0 -8 3 -8 9v596c0 5 -3 8 -9 8h-92c-6 0 -9 3 -9 8v14c0 5 3 8 9 8h492c6 0 9 -3 9 -8v-14c0 -5 -3 -8 -9 -8h-92c-6 0 -9 -3 -9 -8v-596c0 -6 -3 -9 -8 -9h-14c-5 0 -8 3 -8 9v596c0 5 -3 8 -9 8h-212c-6 0 -9 -3 -9 -8v-596c0 -6 -3 -9 -8 -9z" />
    <glyph glyph-name="Sigma" unicode="&#x3a3;" horiz-adv-x="478" 
d="M60 625v10c0 5 3 8 9 8h340c6 0 9 -3 9 -8v-13c0 -5 -3 -8 -9 -8h-312v-4l170 -272c7 -11 7 -21 0 -32l-171 -274v-4h313c6 0 9 -3 9 -10v-12c0 -4 -3 -6 -9 -6h-340c-6 0 -9 3 -9 8v9c0 4 1 7 2 10l179 294v4l-179 290c-1 3 -2 6 -2 10z" />
    <glyph glyph-name="uni0901" unicode="&#x901;" horiz-adv-x="0" 
d="M-96 868v-28c0 -6 -3 -9 -8 -9h-20c-5 0 -8 3 -8 9v28c0 6 3 9 8 9h20c5 0 8 -3 8 -9zM-84 684h-61c-80 0 -120 40 -120 121v6c0 6 3 9 8 9h14c5 0 8 -3 8 -9v-6c0 -68 23 -93 90 -93h61c67 0 90 25 90 93v6c0 6 3 9 8 9h14c5 0 8 -3 8 -9v-6c0 -81 -40 -121 -120 -121z
" />
    <glyph glyph-name="uni0902" unicode="&#x902;" horiz-adv-x="0" 
d="M-100 769v-28c0 -6 -3 -9 -8 -9h-20c-5 0 -8 3 -8 9v28c0 6 3 9 8 9h20c5 0 8 -3 8 -9z" />
    <glyph glyph-name="uni0903" unicode="&#x903;" horiz-adv-x="245" 
d="M141 112v-28c0 -6 -3 -9 -8 -9h-20c-5 0 -8 3 -8 9v28c0 6 3 9 8 9h20c5 0 8 -3 8 -9zM141 419v-28c0 -6 -3 -9 -8 -9h-20c-5 0 -8 3 -8 9v28c0 6 3 9 8 9h20c5 0 8 -3 8 -9z" />
    <glyph glyph-name="uni0905" unicode="&#x905;" horiz-adv-x="595" 
d="M481 623h115c6 0 9 -3 9 -8v-9c0 -5 -3 -8 -9 -8h-92c-6 0 -9 -3 -9 -8v-581c0 -6 -3 -9 -8 -9h-14c-5 0 -8 3 -8 9v244c0 5 -3 8 -9 8h-152c3 -15 5 -28 5 -41v-44c0 -83 -53 -136 -134 -136h-130c-6 0 -9 3 -9 8v12c0 5 3 8 9 8h130c67 0 104 41 104 109v42
c0 68 -37 106 -104 106h-67c-6 0 -9 3 -9 8v12c0 5 3 8 9 8h67c67 0 104 38 104 106v30c0 68 -37 109 -104 109h-94c-6 0 -9 3 -9 8v9c0 5 3 8 9 8h94c81 0 134 -50 134 -133v-32c0 -61 -23 -99 -70 -116v-4c24 -9 42 -26 55 -49h162c6 0 9 3 9 8v308c0 12 5 18 16 18z" />
    <glyph glyph-name="uni0906" unicode="&#x906;" horiz-adv-x="823" 
d="M479 623h345c6 0 9 -3 9 -8v-9c0 -5 -3 -8 -9 -8h-92c-6 0 -9 -3 -9 -8v-581c0 -6 -3 -9 -8 -9h-14c-5 0 -8 3 -8 9v581c0 5 -3 8 -9 8h-182c-6 0 -9 -3 -9 -8v-581c0 -6 -3 -9 -8 -9h-14c-5 0 -8 3 -8 9v244c0 5 -3 8 -9 8h-152c3 -15 5 -28 5 -41v-44
c0 -83 -53 -136 -134 -136h-130c-6 0 -9 3 -9 8v12c0 5 3 8 9 8h130c67 0 104 41 104 109v42c0 68 -37 106 -104 106h-67c-6 0 -9 3 -9 8v12c0 5 3 8 9 8h67c67 0 104 38 104 106v30c0 68 -37 109 -104 109h-94c-6 0 -9 3 -9 8v9c0 5 3 8 9 8h94c81 0 134 -50 134 -133v-32
c0 -61 -23 -99 -70 -116v-4c24 -9 42 -26 55 -49h162c6 0 9 3 9 8v308c0 12 5 18 16 18z" />
    <glyph glyph-name="uni0907" unicode="&#x907;" horiz-adv-x="481" 
d="M289 246h-87c-83 0 -124 35 -124 105v17c0 70 41 105 124 105h142c6 0 9 3 9 8v109c0 5 -3 8 -9 8h-345c-6 0 -9 3 -9 8v9c0 5 3 8 9 8h483c6 0 9 -3 9 -8v-9c0 -5 -3 -8 -9 -8h-90c-6 0 -9 -3 -9 -8v-127c0 -12 -5 -18 -16 -18h-165c-68 0 -94 -21 -94 -78v-15
c0 -57 26 -78 94 -78h87c83 0 124 -35 124 -104v-46c0 -71 -41 -106 -124 -106h-91c-45 0 -75 12 -90 36h-4v-83c0 -6 -3 -9 -8 -9h-12c-5 0 -8 3 -8 9v190c0 6 3 9 8 9h12c5 0 8 -3 8 -9v-26c0 -59 31 -89 94 -89h91c68 0 94 22 94 79v44c0 57 -26 77 -94 77z" />
    <glyph glyph-name="uni0908" unicode="&#x908;" horiz-adv-x="481" 
d="M293 739v-64c0 -43 11 -52 62 -52h127c6 0 9 -3 9 -8v-9c0 -5 -3 -8 -9 -8h-90c-6 0 -9 -3 -9 -8v-127c0 -12 -5 -18 -16 -18h-165c-68 0 -94 -21 -94 -78v-15c0 -57 26 -78 94 -78h87c83 0 124 -35 124 -104v-46c0 -71 -41 -106 -124 -106h-91c-45 0 -75 12 -90 36h-4
v-83c0 -6 -3 -9 -8 -9h-12c-5 0 -8 3 -8 9v190c0 6 3 9 8 9h12c5 0 8 -3 8 -9v-26c0 -59 31 -89 94 -89h91c68 0 94 22 94 79v44c0 57 -26 77 -94 77h-87c-83 0 -124 35 -124 105v17c0 70 41 105 124 105h142c6 0 9 3 9 8v109c0 5 -3 8 -9 8h-345c-6 0 -9 3 -9 8v9
c0 5 3 8 9 8h284v4c-13 8 -20 26 -20 54v58c0 89 48 130 125 130h56c6 0 9 -3 9 -8v-12c0 -5 -3 -8 -9 -8h-57c-63 0 -94 -34 -94 -102z" />
    <glyph glyph-name="uni0909" unicode="&#x909;" horiz-adv-x="474" 
d="M399 206v-70c0 -83 -53 -136 -134 -136h-77c-81 0 -134 53 -134 136v70c0 6 3 9 8 9h14c5 0 8 -3 8 -9v-69c0 -68 37 -109 104 -109h77c67 0 104 41 104 109v68c0 68 -37 106 -104 106h-67c-6 0 -9 3 -9 8v12c0 5 3 8 9 8h62c67 0 104 38 104 106v44
c0 67 -36 109 -99 109h-266c-6 0 -9 3 -9 8v9c0 5 3 8 9 8h476c6 0 9 -3 9 -8v-9c0 -5 -3 -8 -9 -8h-131v-4c33 -17 50 -51 50 -104v-46c0 -58 -21 -96 -62 -115v-4c45 -22 67 -62 67 -119z" />
    <glyph glyph-name="uni090A" unicode="&#x90a;" horiz-adv-x="662" 
d="M-1 623h664c6 0 9 -3 9 -8v-9c0 -5 -3 -8 -9 -8h-319v-4c33 -17 50 -51 50 -104v-46c0 -58 -21 -96 -62 -115v-4l2 -1h158c81 0 134 -50 134 -133v-46c0 -83 -53 -133 -134 -133h-15c-6 0 -9 3 -9 8v12c0 5 3 8 9 8h15c67 0 104 38 104 106v44c0 68 -37 106 -104 106
h-122c19 -23 29 -53 29 -90v-70c0 -83 -53 -136 -134 -136h-77c-81 0 -134 53 -134 136v70c0 6 3 9 8 9h14c5 0 8 -3 8 -9v-69c0 -68 37 -109 104 -109h77c67 0 104 41 104 109v68c0 68 -37 106 -104 106h-67c-6 0 -9 3 -9 8v12c0 5 3 8 9 8h62c67 0 104 38 104 106v44
c0 67 -36 109 -99 109h-266c-6 0 -9 3 -9 8v9c0 5 3 8 9 8z" />
    <glyph glyph-name="uni090B" unicode="&#x90b;" horiz-adv-x="743" 
d="M-1 623h745c6 0 9 -3 9 -8v-9c0 -5 -3 -8 -9 -8h-347c-6 0 -9 -3 -9 -8v-337l210 163c13 9 25 14 35 14h22c5 0 8 -3 8 -9v-194c0 -9 -5 -13 -15 -13h-31c-68 0 -94 -21 -94 -78v-30c0 -57 26 -78 94 -78h50c6 0 9 -3 9 -8v-12c0 -5 -3 -8 -9 -8h-50
c-83 0 -124 35 -124 105v32c0 73 40 105 131 105c6 0 9 3 9 8v157l-245 -189v-209c0 -6 -3 -9 -8 -9h-14c-5 0 -8 3 -8 9v182l-235 -181c-8 -7 -15 -10 -21 -10h-13c-11 0 -14 7 9 26l260 200v83c0 67 -35 93 -104 93h-50c-69 0 -104 -26 -104 -93v-68c0 -6 -3 -9 -8 -9h-14
c-5 0 -8 3 -8 9v69c0 80 50 120 134 120h50c48 0 81 -13 100 -40h4v200c0 5 -3 8 -9 8h-350c-6 0 -9 3 -9 8v9c0 5 3 8 9 8z" />
    <glyph glyph-name="uni090C" unicode="&#x90c;" horiz-adv-x="686" 
d="M-1 623h688c6 0 9 -3 9 -8v-9c0 -5 -3 -8 -9 -8h-92c-6 0 -9 -3 -9 -8v-570c0 -5 -3 -8 -9 -8h-45c-65 0 -86 -26 -86 -93c0 -34 8 -58 25 -72s46 -21 85 -21s76 16 111 47c6 14 38 -13 19 -22c-33 -35 -79 -53 -136 -53c-85 0 -134 32 -134 120c0 87 35 122 116 122h24
v269c0 76 -35 106 -104 106s-104 -28 -104 -105v-96c0 -6 -3 -9 -8 -9h-14c-5 0 -8 3 -8 9v96c0 75 -35 105 -104 105s-104 -30 -104 -106v-134c0 -76 35 -106 104 -106h59c6 0 9 -3 9 -8v-12c0 -5 -3 -8 -9 -8h-59c-84 0 -134 44 -134 133v136c0 89 50 133 134 133
c63 0 102 -23 117 -70h4c15 47 54 70 117 70c50 0 83 -15 100 -46h4v193c0 5 -3 8 -9 8h-548c-6 0 -9 3 -9 8v9c0 5 3 8 9 8z" />
    <glyph glyph-name="uni090D" unicode="&#x90d;" horiz-adv-x="522" 
d="M-1 623h529c6 0 9 -3 9 -8v-9c0 -5 -3 -8 -9 -8h-67c-6 0 -9 -3 -9 -8v-167c0 -89 -48 -130 -125 -130h-45c-6 0 -9 3 -9 8v12c0 5 3 8 9 8h46c63 0 94 34 94 102v167c0 5 -3 8 -9 8h-274c-6 0 -9 -3 -9 -8v-421c0 -68 37 -109 104 -109h184c6 0 9 -3 9 -8v-12
c0 -5 -3 -8 -9 -8h-184c-81 0 -134 53 -134 136v422c0 5 -3 8 -9 8h-92c-6 0 -9 3 -9 8v9c0 5 3 8 9 8zM308 732h-61c-80 0 -120 40 -120 121v6c0 6 3 9 8 9h14c5 0 8 -3 8 -9v-6c0 -68 23 -93 90 -93h61c67 0 90 25 90 93v6c0 6 3 9 8 9h14c5 0 8 -3 8 -9v-6
c0 -81 -40 -121 -120 -121z" />
    <glyph glyph-name="uni090E" unicode="&#x90e;" horiz-adv-x="522" 
d="M461 623h67c6 0 9 -3 9 -8v-9c0 -5 -3 -8 -9 -8h-67c-6 0 -9 -3 -9 -8v-167c0 -89 -48 -130 -125 -130h-45c-6 0 -9 3 -9 8v12c0 5 3 8 9 8h46c63 0 94 34 94 102v167c0 5 -3 8 -9 8h-274c-6 0 -9 -3 -9 -8v-421c0 -68 37 -109 104 -109h184c6 0 9 -3 9 -8v-12
c0 -5 -3 -8 -9 -8h-184c-81 0 -134 53 -134 136v422c0 5 -3 8 -9 8h-92c-6 0 -9 3 -9 8v9c0 5 3 8 9 8h414c6 0 9 3 9 8c0 25 -12 39 -69 70l-69 36c-53 28 -74 57 -74 113v8c0 6 3 9 8 9h14c5 0 8 -3 8 -9v-8c0 -36 17 -61 30 -70c7 -5 42 -25 105 -58
c49 -27 77 -50 77 -91c0 -5 3 -8 9 -8z" />
    <glyph glyph-name="uni090F" unicode="&#x90f;" horiz-adv-x="527" 
d="M-1 623h529c6 0 9 -3 9 -8v-9c0 -5 -3 -8 -9 -8h-67c-6 0 -9 -3 -9 -8v-167c0 -89 -48 -130 -125 -130h-45c-6 0 -9 3 -9 8v12c0 5 3 8 9 8h46c63 0 94 34 94 102v167c0 5 -3 8 -9 8h-274c-6 0 -9 -3 -9 -8v-421c0 -68 37 -109 104 -109h184c6 0 9 -3 9 -8v-12
c0 -5 -3 -8 -9 -8h-184c-81 0 -134 53 -134 136v422c0 5 -3 8 -9 8h-92c-6 0 -9 3 -9 8v9c0 5 3 8 9 8z" />
    <glyph glyph-name="uni0910" unicode="&#x910;" horiz-adv-x="527" 
d="M468 623h60c6 0 9 -3 9 -8v-9c0 -5 -3 -8 -9 -8h-67c-6 0 -9 -3 -9 -8v-167c0 -89 -48 -130 -125 -130h-45c-6 0 -9 3 -9 8v12c0 5 3 8 9 8h46c63 0 94 34 94 102v167c0 5 -3 8 -9 8h-274c-6 0 -9 -3 -9 -8v-421c0 -68 37 -109 104 -109h184c6 0 9 -3 9 -8v-12
c0 -5 -3 -8 -9 -8h-184c-81 0 -134 53 -134 136v422c0 5 -3 8 -9 8h-92c-6 0 -9 3 -9 8v9c0 5 3 8 9 8h429c-31 39 -87 116 -166 231c-1 3 -2 5 -2 6c0 5 3 7 8 7h13c5 0 10 -3 14 -9l150 -222c5 -9 13 -13 23 -13z" />
    <glyph glyph-name="uni0911" unicode="&#x911;" horiz-adv-x="825" 
d="M481 623h345c6 0 9 -3 9 -8v-9c0 -5 -3 -8 -9 -8h-92c-6 0 -9 -3 -9 -8v-581c0 -6 -3 -9 -8 -9h-14c-5 0 -8 3 -8 9v581c0 5 -3 8 -9 8h-182c-6 0 -9 -3 -9 -8v-581c0 -6 -3 -9 -8 -9h-14c-5 0 -8 3 -8 9v244c0 5 -3 8 -9 8h-152c3 -15 5 -28 5 -41v-44
c0 -83 -53 -136 -134 -136h-130c-6 0 -9 3 -9 8v12c0 5 3 8 9 8h130c67 0 104 41 104 109v42c0 68 -37 106 -104 106h-67c-6 0 -9 3 -9 8v12c0 5 3 8 9 8h67c67 0 104 38 104 106v30c0 68 -37 109 -104 109h-94c-6 0 -9 3 -9 8v9c0 5 3 8 9 8h94c81 0 134 -50 134 -133v-32
c0 -61 -23 -99 -70 -116v-4c24 -9 42 -26 55 -49h162c6 0 9 3 9 8v308c0 12 5 18 16 18zM629 684h-61c-80 0 -120 40 -120 121v6c0 6 3 9 8 9h14c5 0 8 -3 8 -9v-6c0 -68 23 -93 90 -93h61c67 0 90 25 90 93v6c0 6 3 9 8 9h14c5 0 8 -3 8 -9v-6c0 -81 -40 -121 -120 -121z
" />
    <glyph glyph-name="uni0912" unicode="&#x912;" horiz-adv-x="825" 
d="M734 623h92c6 0 9 -3 9 -8v-9c0 -5 -3 -8 -9 -8h-92c-6 0 -9 -3 -9 -8v-581c0 -6 -3 -9 -8 -9h-14c-5 0 -8 3 -8 9v581c0 5 -3 8 -9 8h-182c-6 0 -9 -3 -9 -8v-581c0 -6 -3 -9 -8 -9h-14c-5 0 -8 3 -8 9v244c0 5 -3 8 -9 8h-152c3 -15 5 -28 5 -41v-44
c0 -83 -53 -136 -134 -136h-130c-6 0 -9 3 -9 8v12c0 5 3 8 9 8h130c67 0 104 41 104 109v42c0 68 -37 106 -104 106h-67c-6 0 -9 3 -9 8v12c0 5 3 8 9 8h67c67 0 104 38 104 106v30c0 68 -37 109 -104 109h-94c-6 0 -9 3 -9 8v9c0 5 3 8 9 8h94c81 0 134 -50 134 -133v-32
c0 -61 -23 -99 -70 -116v-4c24 -9 42 -26 55 -49h162c6 0 9 3 9 8v308c0 12 5 18 16 18h205c6 0 9 3 9 8c0 25 -12 39 -69 70l-69 36c-53 28 -74 57 -74 113v8c0 6 3 9 8 9h14c5 0 8 -3 8 -9v-8c0 -36 17 -61 29 -70c8 -5 43 -25 106 -58c49 -27 77 -50 77 -91
c0 -5 3 -8 9 -8z" />
    <glyph glyph-name="uni0913" unicode="&#x913;" horiz-adv-x="825" 
d="M741 623h85c6 0 9 -3 9 -8v-9c0 -5 -3 -8 -9 -8h-92c-6 0 -9 -3 -9 -8v-581c0 -6 -3 -9 -8 -9h-14c-5 0 -8 3 -8 9v581c0 5 -3 8 -9 8h-182c-6 0 -9 -3 -9 -8v-581c0 -6 -3 -9 -8 -9h-14c-5 0 -8 3 -8 9v244c0 5 -3 8 -9 8h-152c3 -15 5 -28 5 -41v-44
c0 -83 -53 -136 -134 -136h-130c-6 0 -9 3 -9 8v12c0 5 3 8 9 8h130c67 0 104 41 104 109v42c0 68 -37 106 -104 106h-67c-6 0 -9 3 -9 8v12c0 5 3 8 9 8h67c67 0 104 38 104 106v30c0 68 -37 109 -104 109h-94c-6 0 -9 3 -9 8v9c0 5 3 8 9 8h94c81 0 134 -50 134 -133v-32
c0 -61 -23 -99 -70 -116v-4c24 -9 42 -26 55 -49h162c6 0 9 3 9 8v308c0 12 5 18 16 18h214v4c-25 29 -58 73 -99 134l-64 93c-1 3 -2 5 -2 6c0 5 3 7 8 7h16c5 0 10 -3 14 -9l150 -222c5 -9 13 -13 23 -13z" />
    <glyph glyph-name="uni0914" unicode="&#x914;" horiz-adv-x="825" 
d="M731 623h95c6 0 9 -3 9 -8v-9c0 -5 -3 -8 -9 -8h-92c-6 0 -9 -3 -9 -8v-581c0 -6 -3 -9 -8 -9h-14c-5 0 -8 3 -8 9v581c0 5 -3 8 -9 8h-182c-6 0 -9 -3 -9 -8v-581c0 -6 -3 -9 -8 -9h-14c-5 0 -8 3 -8 9v244c0 5 -3 8 -9 8h-152c3 -15 5 -28 5 -41v-44
c0 -83 -53 -136 -134 -136h-130c-6 0 -9 3 -9 8v12c0 5 3 8 9 8h130c67 0 104 41 104 109v42c0 68 -37 106 -104 106h-67c-6 0 -9 3 -9 8v12c0 5 3 8 9 8h67c67 0 104 38 104 106v30c0 68 -37 109 -104 109h-94c-6 0 -9 3 -9 8v9c0 5 3 8 9 8h94c81 0 134 -50 134 -133v-32
c0 -61 -23 -99 -70 -116v-4c24 -9 42 -26 55 -49h162c6 0 9 3 9 8v308c0 12 5 18 16 18h214v4c-29 31 -63 75 -103 134l-63 93c-1 3 -2 5 -2 6c0 5 3 7 8 7h14c5 0 10 -3 14 -9l139 -208l3 1c-7 41 -10 89 -10 144v63c0 6 3 9 8 9h14c5 0 8 -3 8 -9v-227c0 -5 2 -8 6 -8z
" />
    <glyph glyph-name="uni0915" unicode="&#x915;" horiz-adv-x="724" 
d="M377 590v-153h4c14 33 47 49 100 49h39c81 0 134 -50 134 -133v-123c0 -83 -53 -133 -134 -133h-53c-6 0 -9 3 -9 8v12c0 5 3 8 9 8h53c67 0 104 38 104 106v121c0 68 -37 106 -104 106h-39c-67 0 -104 -36 -104 -101v-348c0 -6 -3 -9 -8 -9h-14c-5 0 -8 3 -8 9v136h-4
c-17 -32 -50 -48 -100 -48h-39c-81 0 -134 50 -134 133v123c0 83 53 133 134 133h53c6 0 9 -3 9 -8v-12c0 -5 -3 -8 -9 -8h-53c-67 0 -104 -38 -104 -106v-121c0 -68 37 -106 104 -106h39c65 0 104 37 104 101v364c0 5 -3 8 -9 8h-339c-6 0 -9 3 -9 8v9c0 5 3 8 9 8h726
c6 0 9 -3 9 -8v-9c0 -5 -3 -8 -9 -8h-339c-6 0 -9 -3 -9 -8z" />
    <glyph glyph-name="uni0916" unicode="&#x916;" horiz-adv-x="688" 
d="M558 9v190h-4c-19 -33 -53 -50 -100 -50h-4c-81 0 -128 50 -128 133v42c0 83 47 133 128 133h18c6 0 9 -3 9 -8v-12c0 -5 -3 -8 -9 -8h-18c-65 0 -98 -35 -98 -106v-40c0 -71 33 -106 98 -106h4c67 0 104 38 104 106v307c0 5 -3 8 -9 8h-292c-6 0 -9 -3 -9 -8v-162
c0 -89 -48 -131 -124 -131h-50l192 -281c3 -4 4 -7 4 -9c0 -5 -3 -7 -8 -7h-13c-5 0 -10 3 -15 10l-182 265l-17 21v21c0 5 3 8 9 8h81c62 0 93 34 93 103v162c0 5 -3 8 -9 8h-210c-6 0 -9 3 -9 8v9c0 5 3 8 9 8h690c6 0 9 -3 9 -8v-9c0 -5 -3 -8 -9 -8h-92
c-6 0 -9 -3 -9 -8v-581c0 -6 -3 -9 -8 -9h-14c-5 0 -8 3 -8 9z" />
    <glyph glyph-name="uni0917" unicode="&#x917;" horiz-adv-x="486" 
d="M-1 623h488c6 0 9 -3 9 -8v-9c0 -5 -3 -8 -9 -8h-92c-6 0 -9 -3 -9 -8v-581c0 -6 -3 -9 -8 -9h-14c-5 0 -8 3 -8 9v581c0 5 -3 8 -9 8h-172c-6 0 -9 -3 -9 -8v-232c0 -89 -48 -130 -125 -130h-15c-6 0 -9 3 -9 8v12c0 5 3 8 9 8h16c63 0 94 34 94 102v232c0 5 -3 8 -9 8
h-128c-6 0 -9 3 -9 8v9c0 5 3 8 9 8z" />
    <glyph glyph-name="uni0918" unicode="&#x918;" horiz-adv-x="564" 
d="M81 471v29c0 48 13 79 39 94v4h-121c-6 0 -9 3 -9 8v9c0 5 3 8 9 8h566c6 0 9 -3 9 -8v-9c0 -5 -3 -8 -9 -8h-92c-6 0 -9 -3 -9 -8v-581c0 -6 -3 -9 -8 -9h-14c-5 0 -8 3 -8 9v124h-4c-16 -33 -49 -50 -100 -50h-117c-83 0 -132 45 -132 126v44c0 57 22 93 65 108v4
c-43 16 -65 51 -65 106zM425 598h-225c-63 0 -89 -31 -89 -99v-27c0 -64 31 -96 94 -96h62c6 0 9 -3 9 -8v-12c0 -5 -3 -8 -9 -8h-62c-63 0 -94 -32 -94 -96v-42c0 -66 34 -99 102 -99h117c67 0 104 41 104 109v370c0 5 -3 8 -9 8z" />
    <glyph glyph-name="uni0919" unicode="&#x919;" horiz-adv-x="495" 
d="M-1 623h497c6 0 9 -3 9 -8v-9c0 -5 -3 -8 -9 -8h-105c-6 0 -9 -3 -9 -8v-137c0 -12 -5 -18 -16 -18h-159c-68 0 -94 -21 -94 -78v-15c0 -57 26 -78 94 -78h81c83 0 124 -35 124 -104v-54c0 -71 -41 -106 -124 -106h-96c-77 0 -114 35 -114 116v10c0 6 3 9 8 9h14
c5 0 8 -3 8 -9v-9c0 -68 21 -89 84 -89h96c68 0 94 22 94 79v52c0 57 -26 77 -94 77h-81c-83 0 -124 35 -124 105v17c0 70 41 105 124 105h137c6 0 9 3 9 8v119c0 5 -3 8 -9 8h-345c-6 0 -9 3 -9 8v9c0 5 3 8 9 8zM457 353v-25c0 -6 -3 -9 -8 -9h-20c-5 0 -8 3 -8 9v25
c0 6 3 9 8 9h20c5 0 8 -3 8 -9z" />
    <glyph glyph-name="uni091A" unicode="&#x91a;" horiz-adv-x="556" 
d="M156 397v4h-125c-6 0 -9 3 -9 8v12c0 5 3 8 9 8h275c6 0 9 -3 9 -8v-12c0 -5 -3 -8 -9 -8h-68c-64 0 -99 -39 -99 -106v-49c0 -68 37 -106 104 -106h79c65 0 104 37 104 101v349c0 5 -3 8 -9 8h-418c-6 0 -9 3 -9 8v9c0 5 3 8 9 8h558c6 0 9 -3 9 -8v-9c0 -5 -3 -8 -9 -8
h-92c-6 0 -9 -3 -9 -8v-581c0 -6 -3 -9 -8 -9h-14c-5 0 -8 3 -8 9v151h-4c-17 -32 -50 -48 -100 -48h-79c-81 0 -134 50 -134 133v51c0 48 16 82 47 101z" />
    <glyph glyph-name="uni091B" unicode="&#x91b;" horiz-adv-x="588" 
d="M-1 623h590c6 0 9 -3 9 -8v-9c0 -5 -3 -8 -9 -8h-104c-6 0 -9 -3 -9 -8v-142c0 -14 -2 -25 -7 -32c26 -20 39 -53 39 -99v-137c0 -83 -53 -136 -134 -136h-167c-83 0 -124 42 -124 126v51c0 57 22 93 65 108v4c-43 16 -65 51 -65 106v61c0 48 13 79 39 94v4h-123
c-6 0 -9 3 -9 8v9c0 5 3 8 9 8zM345 440h39c23 0 42 -3 58 -9c3 5 4 11 4 20v139c0 5 -3 8 -9 8h-235c-63 0 -89 -31 -89 -99v-59c0 -64 31 -96 94 -96h44c6 0 9 -3 9 -8v-12c0 -5 -3 -8 -9 -8h-44c-63 0 -94 -32 -94 -96v-49c0 -68 27 -99 94 -99h167c67 0 104 41 104 109
v135c0 68 -27 99 -94 99h-39c-6 0 -9 3 -9 8v9c0 5 3 8 9 8z" />
    <glyph glyph-name="uni091C" unicode="&#x91c;" horiz-adv-x="543" 
d="M404 387h-174v-4c29 -16 43 -49 43 -98v-79c0 -89 -48 -130 -125 -130h-108c-6 0 -9 3 -9 8v12c0 5 3 8 9 8h109c63 0 94 34 94 102v79c0 68 -31 102 -94 102h-67c-6 0 -9 3 -9 8v12c0 5 3 8 9 8h322c6 0 9 3 9 8v167c0 5 -3 8 -9 8h-405c-6 0 -9 3 -9 8v9c0 5 3 8 9 8
h545c6 0 9 -3 9 -8v-9c0 -5 -3 -8 -9 -8h-92c-6 0 -9 -3 -9 -8v-581c0 -6 -3 -9 -8 -9h-14c-5 0 -8 3 -8 9v370c0 5 -3 8 -9 8z" />
    <glyph glyph-name="uni091D" unicode="&#x91d;" horiz-adv-x="669" 
d="M530 598h-172c-6 0 -9 -3 -9 -8v-107c0 -12 -5 -18 -16 -18h-129c-68 0 -94 -20 -94 -77v-15c0 -57 26 -77 94 -77h326c6 0 9 3 9 8v286c0 5 -3 8 -9 8zM310 598h-311c-6 0 -9 3 -9 8v9c0 5 3 8 9 8h671c6 0 9 -3 9 -8v-9c0 -5 -3 -8 -9 -8h-92c-6 0 -9 -3 -9 -8v-581
c0 -6 -3 -9 -8 -9h-14c-5 0 -8 3 -8 9v251c0 5 -3 8 -9 8h-181c20 -13 30 -39 30 -76v-37c0 -71 -41 -106 -124 -106h-58c-45 0 -75 12 -90 36h-4v-90c0 -6 -3 -9 -8 -9h-12c-5 0 -8 3 -8 9v201c0 6 3 9 8 9h12c5 0 8 -3 8 -9v-30c0 -59 31 -89 94 -89h58c68 0 94 22 94 79
v35c0 55 -24 77 -84 77h-61c-83 0 -124 35 -124 105v15c0 70 41 105 124 105h106c6 0 9 3 9 8v89c0 5 -3 8 -9 8z" />
    <glyph glyph-name="uni091E" unicode="&#x91e;" horiz-adv-x="602" 
d="M463 277h-164c-6 0 -9 -3 -9 -8v-40c0 -89 -48 -130 -125 -130h-108c-6 0 -9 3 -9 8v12c0 5 3 8 9 8h109c63 0 94 34 94 102v114c0 68 -31 102 -94 102h-94c-6 0 -9 3 -9 8v12c0 5 3 8 9 8h93c77 0 125 -41 125 -130v-30c0 -5 3 -8 9 -8h164c6 0 9 3 9 8v277
c0 5 -3 8 -9 8h-464c-6 0 -9 3 -9 8v9c0 5 3 8 9 8h604c6 0 9 -3 9 -8v-9c0 -5 -3 -8 -9 -8h-92c-6 0 -9 -3 -9 -8v-581c0 -6 -3 -9 -8 -9h-14c-5 0 -8 3 -8 9v260c0 5 -3 8 -9 8z" />
    <glyph glyph-name="uni091F" unicode="&#x91f;" horiz-adv-x="490" 
d="M209 440h127c6 0 9 3 9 8v142c0 5 -3 8 -9 8h-337c-6 0 -9 3 -9 8v9c0 5 3 8 9 8h492c6 0 9 -3 9 -8v-9c0 -5 -3 -8 -9 -8h-107c-6 0 -9 -3 -9 -8v-160c0 -12 -5 -18 -16 -18h-150c-67 0 -104 -41 -104 -109v-125c0 -68 37 -109 104 -109h90c67 0 104 41 104 109v49
c0 6 3 9 8 9h14c5 0 8 -3 8 -9v-50c0 -83 -53 -136 -134 -136h-90c-81 0 -134 53 -134 136v127c0 83 53 136 134 136z" />
    <glyph glyph-name="uni0920" unicode="&#x920;" horiz-adv-x="516" 
d="M298 412h-90c-67 0 -104 -41 -104 -109v-125c0 -68 37 -109 104 -109h90c67 0 104 41 104 109v125c0 68 -37 109 -104 109zM517 598h-119c-6 0 -9 -3 -9 -8v-68c0 -51 -12 -74 -41 -91v-4c51 -13 84 -62 84 -123v-127c0 -83 -53 -136 -134 -136h-90
c-81 0 -134 53 -134 136v127c0 83 53 136 134 136h74c52 0 77 18 77 82v68c0 5 -3 8 -9 8h-351c-6 0 -9 3 -9 8v9c0 5 3 8 9 8h518c6 0 9 -3 9 -8v-9c0 -5 -3 -8 -9 -8z" />
    <glyph glyph-name="uni0921" unicode="&#x921;" horiz-adv-x="480" 
d="M-1 623h482c6 0 9 -3 9 -8v-9c0 -5 -3 -8 -9 -8h-90c-6 0 -9 -3 -9 -8v-137c0 -12 -5 -18 -16 -18h-159c-68 0 -94 -21 -94 -78v-20c0 -57 26 -78 94 -78h78c85 0 127 -35 127 -104v-49c0 -71 -49 -106 -126 -106h-92c-77 0 -116 39 -116 116v10c0 6 3 9 8 9h14
c5 0 8 -3 8 -9v-9c0 -65 27 -89 86 -89h92c64 0 96 23 96 79v47c0 57 -29 77 -97 77h-78c-83 0 -124 35 -124 105v22c0 70 41 105 124 105h137c6 0 9 3 9 8v119c0 5 -3 8 -9 8h-345c-6 0 -9 3 -9 8v9c0 5 3 8 9 8z" />
    <glyph glyph-name="uni0922" unicode="&#x922;" horiz-adv-x="485" 
d="M309 41h-100c-81 0 -134 53 -134 136v127c0 83 53 136 134 136h127c6 0 9 3 9 8v142c0 5 -3 8 -9 8h-337c-6 0 -9 3 -9 8v9c0 5 3 8 9 8h487c6 0 9 -3 9 -8v-9c0 -5 -3 -8 -9 -8h-102c-6 0 -9 -3 -9 -8v-160c0 -12 -5 -18 -16 -18h-150c-67 0 -104 -41 -104 -109v-125
c0 -68 37 -109 104 -109h100c67 0 94 31 94 99v14c0 63 -13 85 -64 85s-64 -21 -64 -84v-14c0 -6 -3 -9 -8 -9h-14c-5 0 -8 3 -8 9v14c0 77 26 112 93 112c68 0 95 -34 95 -113v-15c0 -84 -41 -126 -124 -126z" />
    <glyph glyph-name="uni0923" unicode="&#x923;" horiz-adv-x="685" 
d="M326 598h-197c-6 0 -9 -3 -9 -8v-272c0 -68 31 -102 94 -102h27c63 0 94 34 94 102v272c0 5 -3 8 -9 8zM546 598h-175c-4 -1 -6 -3 -6 -8v-272c0 -89 -48 -130 -125 -130h-25c-77 0 -125 41 -125 130v272c0 5 -3 8 -9 8h-82c-6 0 -9 3 -9 8v9c0 5 3 8 9 8h687
c6 0 9 -3 9 -8v-9c0 -5 -3 -8 -9 -8h-92c-6 0 -9 -3 -9 -8v-581c0 -6 -3 -9 -8 -9h-14c-5 0 -8 3 -8 9v581c0 5 -3 8 -9 8z" />
    <glyph glyph-name="uni0924" unicode="&#x924;" horiz-adv-x="492" 
d="M102 279v-149c0 -73 44 -102 104 -102h15c6 0 9 -3 9 -8v-12c0 -5 -3 -8 -9 -8h-14c-79 0 -135 42 -135 130v149c0 89 48 130 125 130h156c6 0 9 3 9 8v173c0 5 -3 8 -9 8h-354c-6 0 -9 3 -9 8v9c0 5 3 8 9 8h494c6 0 9 -3 9 -8v-9c0 -5 -3 -8 -9 -8h-92
c-6 0 -9 -3 -9 -8v-581c0 -6 -3 -9 -8 -9h-14c-5 0 -8 3 -8 9v364c0 5 -3 8 -9 8h-157c-63 0 -94 -34 -94 -102z" />
    <glyph glyph-name="uni0925" unicode="&#x925;" horiz-adv-x="589" 
d="M459 9v157h-4c-17 -36 -54 -54 -110 -54h-136c-87 0 -144 55 -144 143v95c0 5 3 8 9 8h121c63 0 94 34 94 102v50c0 57 -28 85 -84 85s-84 -28 -84 -84v-44c0 -6 -3 -9 -8 -9h-14c-5 0 -8 3 -8 9v44c0 75 42 112 113 112c72 0 115 -38 115 -113v-50
c0 -89 -48 -130 -125 -130h-99v-74c0 -73 42 -116 114 -116h136c71 0 114 42 114 111v354c0 12 5 18 16 18h115c6 0 9 -3 9 -8v-9c0 -5 -3 -8 -9 -8h-92c-6 0 -9 -3 -9 -8v-581c0 -6 -3 -9 -8 -9h-14c-5 0 -8 3 -8 9z" />
    <glyph glyph-name="uni0926" unicode="&#x926;" horiz-adv-x="490" 
d="M209 463h144c6 0 9 3 9 8v119c0 5 -3 8 -9 8h-354c-6 0 -9 3 -9 8v9c0 5 3 8 9 8h492c6 0 9 -3 9 -8v-9c0 -5 -3 -8 -9 -8h-91c-6 0 -9 -3 -9 -8v-137c0 -12 -5 -18 -16 -18h-166c-67 0 -104 -41 -104 -109v-96c0 -68 37 -109 104 -109h78c63 0 94 30 94 89v30
c0 6 3 9 8 9h12c5 0 8 -3 8 -9v-231c0 -6 -3 -9 -8 -9h-12c-5 0 -8 3 -8 9v120h-4c-15 -24 -45 -36 -90 -36h-78c-81 0 -134 53 -134 136v98c0 83 53 136 134 136z" />
    <glyph glyph-name="uni0927" unicode="&#x927;" horiz-adv-x="564" 
d="M224 598h-24c-63 0 -89 -31 -89 -99v-32c0 -64 31 -96 94 -96h62c6 0 9 -3 9 -8v-12c0 -5 -3 -8 -9 -8h-62c-63 0 -94 -32 -94 -96v-48c0 -66 34 -99 102 -99h117c67 0 104 41 104 109v381c0 5 -3 8 -9 8h-91c-6 0 -9 3 -9 8v9c0 5 3 8 9 8h231c6 0 9 -3 9 -8v-9
c0 -5 -3 -8 -9 -8h-92c-6 0 -9 -3 -9 -8v-581c0 -6 -3 -9 -8 -9h-14c-5 0 -8 3 -8 9v113h-4c-16 -33 -49 -50 -100 -50h-117c-83 0 -132 45 -132 126v50c0 57 22 93 65 108v4c-43 16 -65 51 -65 106v34c0 48 13 79 39 94v4h-121c-6 0 -9 3 -9 8v9c0 5 3 8 9 8h225
c6 0 9 -3 9 -8v-9c0 -5 -3 -8 -9 -8z" />
    <glyph glyph-name="uni0928" unicode="&#x928;" horiz-adv-x="468" 
d="M329 598h-330c-6 0 -9 3 -9 8v9c0 5 3 8 9 8h470c6 0 9 -3 9 -8v-9c0 -5 -3 -8 -9 -8h-92c-6 0 -9 -3 -9 -8v-581c0 -6 -3 -9 -8 -9h-14c-5 0 -8 3 -8 9v324c0 5 -3 8 -9 8h-188c-41 0 -61 -27 -61 -60c0 -17 2 -33 7 -49c11 -31 10 -33 1 -33h-13c-5 0 -9 3 -11 9
c-30 80 -15 158 76 160h189c6 0 9 3 9 8v214c0 5 -3 8 -9 8z" />
    <glyph glyph-name="uni0928093C" unicode="&#x929;" horiz-adv-x="468" 
d="M329 598h-330c-6 0 -9 3 -9 8v9c0 5 3 8 9 8h470c6 0 9 -3 9 -8v-9c0 -5 -3 -8 -9 -8h-92c-6 0 -9 -3 -9 -8v-581c0 -6 -3 -9 -8 -9h-14c-5 0 -8 3 -8 9v324c0 5 -3 8 -9 8h-188c-41 0 -61 -27 -61 -60c0 -17 2 -33 7 -49c11 -31 10 -33 1 -33h-13c-5 0 -9 3 -11 9
c-30 80 -15 158 76 160h189c6 0 9 3 9 8v214c0 5 -3 8 -9 8zM197 14v-25c0 -6 -3 -9 -8 -9h-20c-5 0 -8 3 -8 9v25c0 6 3 9 8 9h20c5 0 8 -3 8 -9z" />
    <glyph glyph-name="uni092A" unicode="&#x92a;" horiz-adv-x="504" 
d="M224 212h46c67 0 104 38 104 106v272c0 5 -3 8 -9 8h-236c-6 0 -9 -3 -9 -8v-272c0 -68 37 -106 104 -106zM-1 623h507c6 0 9 -3 9 -8v-9c0 -5 -3 -8 -9 -8h-93c-6 0 -9 -3 -9 -8v-581c0 -6 -3 -9 -8 -9h-14c-5 0 -8 3 -8 9v224h-4c-17 -33 -51 -49 -100 -49h-46
c-81 0 -134 50 -134 133v273c0 5 -2 7 -7 8h-84c-6 0 -9 3 -9 8v9c0 5 3 8 9 8z" />
    <glyph glyph-name="uni092B" unicode="&#x92b;" horiz-adv-x="737" 
d="M390 357v-348c0 -6 -3 -9 -8 -9h-13c-5 0 -8 3 -8 9v231h-4c-17 -32 -50 -48 -100 -48h-33c-81 0 -134 50 -134 133v265c0 5 -2 7 -7 8h-84c-6 0 -9 3 -9 8v9c0 5 3 8 9 8h739c6 0 9 -3 9 -8v-9c0 -5 -3 -8 -9 -8h-339c-6 0 -9 -3 -9 -8v-153h4c14 33 47 49 100 49h39
c81 0 134 -50 134 -133v-123c0 -83 -53 -133 -134 -133h-53c-6 0 -9 3 -9 8v12c0 5 3 8 9 8h53c67 0 104 38 104 106v121c0 68 -37 106 -104 106h-39c-67 0 -104 -36 -104 -101zM224 220h33c65 0 104 37 104 101v269c0 5 -3 8 -9 8h-223c-6 0 -9 -3 -9 -8v-264
c0 -68 37 -106 104 -106z" />
    <glyph glyph-name="uni092C" unicode="&#x92c;" horiz-adv-x="482" 
d="M-1 623h484c6 0 9 -3 9 -8v-9c0 -5 -3 -8 -9 -8h-92c-6 0 -9 -3 -9 -8v-581c0 -6 -3 -9 -8 -9h-14c-5 0 -8 3 -8 9v131h-4c-17 -32 -50 -48 -100 -48h-44c-81 0 -134 50 -134 133v134c0 83 53 133 134 133h58c6 0 9 -3 9 -8v-12c0 -5 -3 -8 -9 -8h-58
c-33 0 -59 -9 -77 -27l224 -236c1 4 1 11 1 20v369c0 5 -3 8 -9 8h-344c-6 0 -9 3 -9 8v9c0 5 3 8 9 8zM204 120h44c46 0 77 17 94 50l-231 243c-7 -16 -11 -34 -11 -55v-132c0 -68 37 -106 104 -106z" />
    <glyph glyph-name="uni092D" unicode="&#x92d;" horiz-adv-x="486" 
d="M347 312h-223c-6 0 -9 -3 -9 -8v-111c0 -6 -3 -9 -8 -9h-14c-5 0 -8 3 -8 9v326c0 53 -26 79 -79 79h-7c-6 0 -9 3 -9 8v9c0 5 3 8 9 8h7c69 0 109 -37 109 -104v-171c0 -6 3 -9 8 -9h224c6 0 9 3 9 8v243c0 5 -3 8 -9 8h-89c-6 0 -9 3 -9 8v9c0 5 3 8 9 8h229
c6 0 9 -3 9 -8v-9c0 -5 -3 -8 -9 -8h-92c-6 0 -9 -3 -9 -8v-581c0 -6 -3 -9 -8 -9h-14c-5 0 -8 3 -8 9v295c0 5 -3 8 -9 8z" />
    <glyph glyph-name="uni092E" unicode="&#x92e;" horiz-adv-x="486" 
d="M356 347v243c0 5 -3 8 -9 8h-223c-6 0 -9 -3 -9 -8v-242c0 -6 3 -9 8 -9h224c6 0 9 3 9 8zM347 312h-223c-6 0 -9 -3 -9 -8v-111c0 -6 -3 -9 -8 -9h-14c-5 0 -8 3 -8 9v397c0 5 -3 8 -9 8h-77c-6 0 -9 3 -9 8v9c0 5 3 8 9 8h488c6 0 9 -3 9 -8v-9c0 -5 -3 -8 -9 -8h-92
c-6 0 -9 -3 -9 -8v-581c0 -6 -3 -9 -8 -9h-14c-5 0 -8 3 -8 9v295c0 5 -3 8 -9 8z" />
    <glyph glyph-name="uni092F" unicode="&#x92f;" horiz-adv-x="559" 
d="M420 598h-202v-4c24 -15 36 -45 36 -90v-12c0 -84 -42 -126 -125 -126h-24v-110c0 -73 42 -116 114 -116h96c71 0 114 42 114 111v339c0 5 -3 8 -9 8zM224 492v11c0 67 -26 95 -94 95h-131c-6 0 -9 3 -9 8v9c0 5 3 8 9 8h561c6 0 9 -3 9 -8v-9c0 -5 -3 -8 -9 -8h-92
c-6 0 -9 -3 -9 -8v-581c0 -6 -3 -9 -8 -9h-14c-5 0 -8 3 -8 9v157h-4c-17 -36 -54 -54 -110 -54h-96c-87 0 -144 55 -144 143v131c0 5 3 8 9 8h46c67 0 94 25 94 98z" />
    <glyph glyph-name="uni0930" unicode="&#x930;" horiz-adv-x="337" 
d="M218 428v162c0 5 -3 8 -9 8h-210c-6 0 -9 3 -9 8v9c0 5 3 8 9 8h339c6 0 9 -3 9 -8v-9c0 -5 -3 -8 -9 -8h-81c-6 0 -9 -3 -9 -8v-162c0 -89 -48 -131 -124 -131h-51l191 -284c1 -3 2 -5 2 -6c0 -5 -3 -7 -8 -7h-12c-5 0 -10 3 -14 9l-180 266l-17 21v21c0 5 3 8 9 8h81
c62 0 93 34 93 103z" />
    <glyph glyph-name="uni0930093C" unicode="&#x931;" horiz-adv-x="337" 
d="M218 428v162c0 5 -3 8 -9 8h-210c-6 0 -9 3 -9 8v9c0 5 3 8 9 8h339c6 0 9 -3 9 -8v-9c0 -5 -3 -8 -9 -8h-81c-6 0 -9 -3 -9 -8v-162c0 -89 -48 -131 -124 -131h-51l191 -284c1 -3 2 -5 2 -6c0 -5 -3 -7 -8 -7h-12c-5 0 -10 3 -14 9l-180 266l-17 21v21c0 5 3 8 9 8h81
c62 0 93 34 93 103zM55 3v-25c0 -6 -3 -9 -8 -9h-20c-5 0 -8 3 -8 9v25c0 6 3 9 8 9h20c5 0 8 -3 8 -9z" />
    <glyph glyph-name="uni0932" unicode="&#x932;" horiz-adv-x="686" 
d="M452 443c50 0 83 -15 100 -46h4v193c0 5 -3 8 -9 8h-548c-6 0 -9 3 -9 8v9c0 5 3 8 9 8h688c6 0 9 -3 9 -8v-9c0 -5 -3 -8 -9 -8h-92c-6 0 -9 -3 -9 -8v-581c0 -6 -3 -9 -8 -9h-14c-5 0 -8 3 -8 9v300c0 76 -35 106 -104 106s-104 -28 -104 -105v-96c0 -6 -3 -9 -8 -9
h-14c-5 0 -8 3 -8 9v96c0 75 -35 105 -104 105s-104 -30 -104 -106v-134c0 -76 35 -106 104 -106h59c6 0 9 -3 9 -8v-12c0 -5 -3 -8 -9 -8h-59c-84 0 -134 44 -134 133v136c0 89 50 133 134 133c63 0 102 -23 117 -70h4c15 47 54 70 117 70z" />
    <glyph glyph-name="uni0933" unicode="&#x933;" horiz-adv-x="674" 
d="M-1 623h676c6 0 9 -3 9 -8v-9c0 -5 -3 -8 -9 -8h-193c-6 0 -9 -3 -9 -8v-140c0 -5 3 -7 8 -8c72 -9 114 -52 114 -128v-145c0 -81 -51 -128 -134 -128h-7c-61 0 -101 23 -119 70c-18 -47 -58 -70 -119 -70h-7c-83 0 -134 47 -134 128v145c0 81 51 129 134 129h7
c61 0 100 -24 119 -71c16 41 49 64 100 70c5 1 8 3 8 8v140c0 5 -3 8 -9 8h-435c-6 0 -9 3 -9 8v9c0 5 3 8 9 8zM320 170v144c0 67 -35 101 -104 101h-7c-69 0 -104 -34 -104 -101v-144c0 -67 35 -101 104 -101h7c69 0 104 34 104 101zM565 170v144c0 67 -35 101 -104 101
h-7c-69 0 -104 -34 -104 -101v-144c0 -67 35 -101 104 -101h7c69 0 104 34 104 101z" />
    <glyph glyph-name="uni0933093C" unicode="&#x934;" horiz-adv-x="674" 
d="M-1 623h676c6 0 9 -3 9 -8v-9c0 -5 -3 -8 -9 -8h-193c-6 0 -9 -3 -9 -8v-140c0 -5 3 -7 8 -8c72 -9 114 -52 114 -128v-145c0 -81 -51 -128 -134 -128h-7c-61 0 -101 23 -119 70c-18 -47 -58 -70 -119 -70h-7c-83 0 -134 47 -134 128v145c0 81 51 129 134 129h7
c61 0 100 -24 119 -71c16 41 49 64 100 70c5 1 8 3 8 8v140c0 5 -3 8 -9 8h-435c-6 0 -9 3 -9 8v9c0 5 3 8 9 8zM320 170v144c0 67 -35 101 -104 101h-7c-69 0 -104 -34 -104 -101v-144c0 -67 35 -101 104 -101h7c69 0 104 34 104 101zM565 170v144c0 67 -35 101 -104 101
h-7c-69 0 -104 -34 -104 -101v-144c0 -67 35 -101 104 -101h7c69 0 104 34 104 101zM197 0h20c5 0 8 -3 8 -9v-25c0 -6 -3 -9 -8 -9h-20c-5 0 -8 3 -8 9v25c0 6 3 9 8 9z" />
    <glyph glyph-name="uni0935" unicode="&#x935;" horiz-adv-x="476" 
d="M376 590v-581c0 -6 -3 -9 -8 -9h-13c-5 0 -8 3 -8 9v136h-4c-17 -32 -50 -48 -100 -48h-39c-81 0 -134 50 -134 133v123c0 83 53 133 134 133h53c6 0 9 -3 9 -8v-12c0 -5 -3 -8 -9 -8h-53c-67 0 -104 -38 -104 -106v-121c0 -68 37 -106 104 -106h39c65 0 104 37 104 101
v364c0 5 -3 8 -9 8h-339c-6 0 -9 3 -9 8v9c0 5 3 8 9 8h478c6 0 9 -3 9 -8v-9c0 -5 -3 -8 -9 -8h-92c-6 0 -9 -3 -9 -8z" />
    <glyph glyph-name="uni0936" unicode="&#x936;" horiz-adv-x="605" 
d="M475 9v596c0 12 5 18 16 18h115c6 0 9 -3 9 -8v-9c0 -5 -3 -8 -9 -8h-92c-6 0 -9 -3 -9 -8v-581c0 -6 -3 -9 -8 -9h-14c-5 0 -8 3 -8 9zM262 6c0 -4 -3 -6 -8 -6h-13c-5 0 -10 3 -14 9l-170 251l-17 21v21c0 5 3 8 9 8h150c62 0 93 34 93 103v89c0 68 -26 93 -94 93
s-94 -25 -94 -93v-51c0 -6 -3 -9 -8 -9h-14c-5 0 -8 3 -8 9v52c0 80 41 120 124 120s124 -40 124 -120v-90c0 -89 -48 -131 -124 -131h-121l182 -269c2 -3 3 -5 3 -7z" />
    <glyph glyph-name="uni0937" unicode="&#x937;" horiz-adv-x="504" 
d="M374 302v288c0 5 -3 8 -9 8h-247zM224 212h46c47 0 78 19 95 56l-245 284v-234c0 -68 37 -106 104 -106zM-1 623h507c6 0 9 -3 9 -8v-9c0 -5 -3 -8 -9 -8h-93c-6 0 -9 -3 -9 -8v-581c0 -6 -3 -9 -8 -9h-14c-5 0 -8 3 -8 9v222h-4c-17 -31 -50 -47 -100 -47h-46
c-81 0 -134 50 -134 133v273c0 5 -2 7 -7 8h-84c-6 0 -9 3 -9 8v9c0 5 3 8 9 8z" />
    <glyph glyph-name="uni0938" unicode="&#x938;" horiz-adv-x="568" 
d="M179 325v-4h250c6 0 9 3 9 8v261c0 5 -3 8 -9 8h-199c-6 0 -9 -3 -9 -8v-166c0 -51 -14 -84 -42 -99zM239 6c0 -4 -3 -6 -8 -6h-14c-5 0 -10 3 -14 9l-139 240l-29 44v20c0 5 3 8 9 8h56c53 0 91 32 91 103v166c0 5 -3 8 -9 8h-183c-6 0 -9 3 -9 8v9c0 5 3 8 9 8h570
c6 0 9 -3 9 -8v-9c0 -5 -3 -8 -9 -8h-92c-6 0 -9 -3 -9 -8v-581c0 -6 -3 -9 -8 -9h-14c-5 0 -8 3 -8 9v276c0 5 -3 8 -9 8h-357l162 -275c3 -7 5 -11 5 -12z" />
    <glyph glyph-name="uni0939" unicode="&#x939;" horiz-adv-x="486" 
d="M349 598h-350c-6 0 -9 3 -9 8v9c0 5 3 8 9 8h488c6 0 9 -3 9 -8v-9c0 -5 -3 -8 -9 -8h-90c-6 0 -9 -3 -9 -8v-127c0 -12 -5 -18 -16 -18h-161c-65 0 -94 -25 -94 -88s27 -88 94 -88h70c83 0 124 -42 124 -126v-26c0 -6 -3 -9 -8 -9h-14c-5 0 -8 3 -8 9v25
c0 68 -27 99 -94 99h-70c-63 0 -99 -41 -99 -109v-35c0 -68 37 -109 104 -109h169c6 0 9 -3 9 -8v-12c0 -5 -3 -8 -9 -8h-169c-81 0 -134 53 -134 136v37c0 59 23 98 68 117v4c-42 15 -63 49 -63 103c0 77 41 116 124 116h138c6 0 9 3 9 8v109c0 5 -3 8 -9 8z" />
    <glyph glyph-name="uni093C" unicode="&#x93c;" horiz-adv-x="0" 
d="M-72 -56v-25c0 -6 -3 -9 -8 -9h-20c-5 0 -8 3 -8 9v25c0 6 3 9 8 9h20c5 0 8 -3 8 -9z" />
    <glyph glyph-name="uni093D" unicode="&#x93d;" horiz-adv-x="524" 
d="M431 202v-72c0 -85 -35 -130 -126 -130h-40c-22 0 -45 6 -68 18c-23 13 -40 24 -51 34c-33 31 -50 50 -50 57c3 8 13 24 26 6c29 -31 54 -54 74 -67c21 -13 44 -20 71 -20h37c76 0 97 35 97 102v72c0 25 -10 47 -29 64s-56 40 -110 69s-89 55 -106 80s-25 56 -25 95
c0 77 21 113 117 113h130c6 0 9 -3 9 -8v-9c0 -5 -3 -8 -9 -8h-129c-38 0 -62 -7 -73 -21c-10 -13 -15 -33 -15 -59c0 -25 2 -44 5 -56c7 -23 35 -61 134 -114c50 -27 84 -50 103 -70c19 -19 28 -45 28 -76z" />
    <glyph glyph-name="uni093E" unicode="&#x93e;" 
d="M122 0h-14c-5 0 -8 3 -8 9v581c0 5 -3 8 -9 8h-91c-6 0 -9 3 -9 8v9c0 5 3 8 9 8h231c6 0 9 -3 9 -8v-9c0 -5 -3 -8 -9 -8h-92c-6 0 -9 -3 -9 -8v-581c0 -6 -3 -9 -8 -9z" />
    <glyph glyph-name="uni093F" unicode="&#x93f;" 
d="M230 872h251c87 0 130 -40 130 -120v-52c0 -6 -3 -9 -8 -9h-14c-5 0 -8 3 -8 9v51c0 67 -32 93 -100 93h-251c-68 0 -100 -26 -100 -93v-120c0 -5 3 -8 9 -8h92c6 0 9 -3 9 -8v-9c0 -5 -3 -8 -9 -8h-92c-6 0 -9 -3 -9 -8v-581c0 -6 -3 -9 -8 -9h-14c-5 0 -8 3 -8 9v581
c0 5 -3 8 -9 8h-91c-6 0 -9 3 -9 8v9c0 5 3 8 9 8h91c6 0 9 3 9 8v121c0 80 43 120 130 120z" />
    <glyph glyph-name="uni0940" unicode="&#x940;" 
d="M139 623h92c6 0 9 -3 9 -8v-9c0 -5 -3 -8 -9 -8h-92c-6 0 -9 -3 -9 -8v-581c0 -6 -3 -9 -8 -9h-14c-5 0 -8 3 -8 9v581c0 5 -3 8 -9 8h-91c-6 0 -9 3 -9 8v9c0 5 3 8 9 8h91c6 0 9 3 9 8v120c0 67 -32 93 -100 93s-100 -26 -100 -93v-51c0 -6 -3 -9 -8 -9h-14
c-5 0 -8 3 -8 9v52c0 80 43 120 130 120s130 -40 130 -120v-121c0 -5 3 -8 9 -8z" />
    <glyph glyph-name="uni0941" unicode="&#x941;" horiz-adv-x="0" 
d="M-130 -10v12c0 5 3 8 9 8h37c88 0 111 -38 111 -122s-37 -126 -111 -126h-72c-43 0 -79 15 -96 32c-19 17 -26 23 -41 48c-8 13 -13 22 -16 28c-3 5 -9 16 -17 32c-23 44 -22 37 -14 46c22 11 17 12 41 -36c8 -17 14 -29 19 -38c9 -17 31 -47 48 -60
c23 -16 50 -24 80 -24h68c38 0 61 11 70 32c7 17 11 36 11 59c0 44 -2 56 -11 75c-9 17 -33 26 -70 26h-37c-6 0 -9 3 -9 8z" />
    <glyph glyph-name="uni0942" unicode="&#x942;" horiz-adv-x="0" 
d="M-142 10h43c68 0 120 -39 157 -117c5 -11 12 -27 20 -47c9 -21 14 -34 17 -39c5 -12 6 -16 -1 -19c-20 -12 -16 -14 -43 49c-9 21 -16 37 -21 47c-9 20 -31 58 -48 71c-25 18 -52 27 -82 27h-42c-63 0 -83 -29 -83 -96c0 -68 13 -96 74 -96h44c6 0 9 -3 9 -8v-12
c0 -5 -3 -8 -9 -8h-44c-80 0 -104 40 -104 123c0 81 30 125 113 125z" />
    <glyph glyph-name="uni0943" unicode="&#x943;" horiz-adv-x="0" 
d="M-100 2v-12c0 -5 -3 -8 -9 -8h-50c-64 0 -81 -26 -81 -91c0 -67 25 -95 80 -95h44c28 -3 75 23 76 30c15 9 34 31 39 31c10 -3 26 -18 11 -26c-42 -42 -84 -63 -125 -63h-45c-73 0 -110 40 -110 121c0 85 31 121 111 121h50c6 0 9 -3 9 -8z" />
    <glyph glyph-name="uni0945" unicode="&#x945;" horiz-adv-x="0" 
d="M-84 684h-61c-80 0 -120 40 -120 121v6c0 6 3 9 8 9h14c5 0 8 -3 8 -9v-6c0 -68 23 -93 90 -93h61c67 0 90 25 90 93v6c0 6 3 9 8 9h14c5 0 8 -3 8 -9v-6c0 -81 -40 -121 -120 -121z" />
    <glyph glyph-name="uni0946" unicode="&#x946;" horiz-adv-x="0" 
d="M-130 631c0 25 -12 39 -69 70l-69 36c-53 28 -74 57 -74 113v8c0 6 3 9 8 9h14c5 0 8 -3 8 -9v-8c0 -36 17 -61 30 -70c7 -5 42 -25 105 -58c49 -27 77 -50 77 -91c0 -5 3 -8 9 -8h8v-8h-65v8h9c6 0 9 3 9 8z" />
    <glyph glyph-name="uni0947" unicode="&#x947;" horiz-adv-x="0" 
d="M-84 623h5v-17h-31c-40 49 -79 100 -116 155l-64 93c-1 3 -2 5 -2 6c0 5 3 7 8 7h13c5 0 10 -3 14 -9l150 -222c5 -9 13 -13 23 -13z" />
    <glyph glyph-name="uni0948" unicode="&#x948;" horiz-adv-x="0" 
d="M-84 623v-15h-32c-2 3 -9 11 -20 26c-31 38 -83 111 -158 220c-1 3 -2 5 -2 6c0 5 3 7 8 7h13c5 0 10 -3 14 -9l138 -208l3 1c-7 41 -10 96 -10 165v42c0 6 3 9 8 9h14c5 0 8 -3 8 -9v-227c0 -5 2 -8 6 -8h10z" />
    <glyph glyph-name="uni0949" unicode="&#x949;" 
d="M122 0h-14c-5 0 -8 3 -8 9v581c0 5 -3 8 -9 8h-91c-6 0 -9 3 -9 8v9c0 5 3 8 9 8h231c6 0 9 -3 9 -8v-9c0 -5 -3 -8 -9 -8h-92c-6 0 -9 -3 -9 -8v-581c0 -6 -3 -9 -8 -9zM145 684h-61c-80 0 -120 40 -120 121v6c0 6 3 9 8 9h14c5 0 8 -3 8 -9v-6c0 -68 23 -93 90 -93h61
c67 0 90 25 90 93v6c0 6 3 9 8 9h14c5 0 8 -3 8 -9v-6c0 -81 -40 -121 -120 -121z" />
    <glyph glyph-name="uni094A" unicode="&#x94a;" 
d="M139 623h92c6 0 9 -3 9 -8v-9c0 -5 -3 -8 -9 -8h-92c-6 0 -9 -3 -9 -8v-581c0 -6 -3 -9 -8 -9h-14c-5 0 -8 3 -8 9v581c0 5 -3 8 -9 8h-91c-6 0 -9 3 -9 8v9c0 5 3 8 9 8h91c6 0 9 3 9 8c0 25 -12 39 -69 70l-69 36c-53 28 -74 57 -74 113v8c0 6 3 9 8 9h14
c5 0 8 -3 8 -9v-8c0 -36 17 -61 30 -70c7 -5 42 -25 105 -58c49 -27 77 -50 77 -91c0 -5 3 -8 9 -8z" />
    <glyph glyph-name="uni094B" unicode="&#x94b;" 
d="M143 623h88c6 0 9 -3 9 -8v-9c0 -5 -3 -8 -9 -8h-92c-6 0 -9 -3 -9 -8v-581c0 -6 -3 -9 -8 -9h-14c-5 0 -8 3 -8 9v581c0 5 -3 8 -9 8h-91c-6 0 -9 3 -9 8v9c0 5 3 8 9 8h100v4c-39 49 -93 125 -163 227c-1 3 -2 5 -2 6c0 5 3 7 8 7h13c5 0 10 -3 14 -9l150 -222
c5 -9 13 -13 23 -13z" />
    <glyph glyph-name="uni094C" unicode="&#x94c;" 
d="M136 623h95c6 0 9 -3 9 -8v-9c0 -5 -3 -8 -9 -8h-92c-6 0 -9 -3 -9 -8v-581c0 -6 -3 -9 -8 -9h-14c-5 0 -8 3 -8 9v581c0 5 -3 8 -9 8h-91c-6 0 -9 3 -9 8v9c0 5 3 8 9 8h100v4c-56 74 -89 119 -100 134l-64 93c-1 3 -2 5 -2 6c0 5 3 7 8 7h13c5 0 10 -3 14 -9l138 -208
l3 1c-7 41 -10 96 -10 165v42c0 6 3 9 8 9h14c5 0 8 -3 8 -9v-227c0 -5 2 -8 6 -8z" />
    <glyph glyph-name="uni094D" unicode="&#x94d;" horiz-adv-x="0" 
d="M-122 -52h10c5 0 10 -3 14 -9l89 -128c1 -3 2 -5 2 -6c0 -5 -3 -7 -8 -7h-13c-5 0 -10 3 -14 9l-86 128c-1 3 -2 5 -2 6c0 5 3 7 8 7z" />
    <glyph glyph-name="uni0950" unicode="&#x950;" horiz-adv-x="842" 
d="M513 450h115c76 0 124 -42 124 -131v-159c0 -80 -41 -120 -124 -120h-15c-83 0 -124 40 -124 120v93c0 5 -3 8 -9 8h-125c3 -10 4 -22 4 -36v-49c0 -83 -53 -136 -134 -136h-36c-81 0 -134 53 -134 136v40c0 6 3 9 8 9h14c5 0 8 -3 8 -9v-39c0 -68 37 -109 104 -109h36
c67 0 104 41 104 109v47c0 68 -37 106 -104 106h-67c-6 0 -9 3 -9 8v12c0 5 3 8 9 8h67c67 0 104 38 104 106v25c0 68 -37 106 -104 106h-94c-6 0 -9 3 -9 8v12c0 5 3 8 9 8h94c81 0 134 -50 134 -133v-27c0 -61 -23 -99 -70 -116v-4c27 -11 46 -29 57 -54h134
c26 0 39 -13 39 -38v-90c0 -68 26 -93 94 -93h15c68 0 94 25 94 93v158c0 69 -31 103 -93 103h-116c-6 0 -9 3 -9 8v12c0 5 3 8 9 8zM628 595h-115c-6 0 -9 3 -9 8v12c0 5 3 8 9 8h115c21 0 38 3 51 10c27 13 50 41 55 41c11 0 19 -14 6 -27c-33 -35 -71 -52 -112 -52z
M532 756h-20c-5 0 -8 3 -8 9v28c0 6 3 9 8 9h20c5 0 8 -3 8 -9v-28c0 -6 -3 -9 -8 -9z" />
    <glyph glyph-name="uni0951" unicode="&#x951;" horiz-adv-x="0" 
d="M-130 683v164c0 6 3 9 8 9h14c5 0 8 -3 8 -9v-164c0 -6 -3 -9 -8 -9h-14c-5 0 -8 3 -8 9z" />
    <glyph glyph-name="uni0952" unicode="&#x952;" horiz-adv-x="0" 
d="M-98 -76v-12c0 -5 -3 -8 -9 -8h-288c-6 0 -9 3 -9 8v12c0 5 3 8 9 8h288c6 0 9 -3 9 -8z" />
    <glyph glyph-name="uni0953" unicode="&#x953;" horiz-adv-x="0" 
d="M-240 856h12c5 0 10 -3 14 -9l108 -160c1 -3 2 -5 2 -6c0 -5 -3 -7 -8 -7h-12c-5 0 -10 3 -14 9l-108 160c-1 3 -2 5 -2 6c0 5 3 7 8 7z" />
    <glyph glyph-name="uni0954" unicode="&#x954;" horiz-adv-x="0" 
d="M-6 856h12c5 0 8 -2 8 -7c0 -1 -1 -3 -2 -6l-108 -160c-4 -6 -9 -9 -14 -9h-12c-5 0 -8 2 -8 7c0 1 1 3 2 6l108 160c4 6 9 9 14 9z" />
    <glyph glyph-name="uni0915093C" unicode="&#x958;" horiz-adv-x="724" 
d="M188 -4v-25c0 -6 -3 -9 -8 -9h-20c-5 0 -8 3 -8 9v25c0 6 3 9 8 9h20c5 0 8 -3 8 -9zM377 590v-153h4c14 33 47 49 100 49h39c81 0 134 -50 134 -133v-123c0 -83 -53 -133 -134 -133h-53c-6 0 -9 3 -9 8v12c0 5 3 8 9 8h53c67 0 104 38 104 106v121
c0 68 -37 106 -104 106h-39c-67 0 -104 -36 -104 -101v-348c0 -6 -3 -9 -8 -9h-14c-5 0 -8 3 -8 9v136h-4c-17 -32 -50 -48 -100 -48h-39c-81 0 -134 50 -134 133v123c0 83 53 133 134 133h53c6 0 9 -3 9 -8v-12c0 -5 -3 -8 -9 -8h-53c-67 0 -104 -38 -104 -106v-121
c0 -68 37 -106 104 -106h39c65 0 104 37 104 101v364c0 5 -3 8 -9 8h-339c-6 0 -9 3 -9 8v9c0 5 3 8 9 8h726c6 0 9 -3 9 -8v-9c0 -5 -3 -8 -9 -8h-339c-6 0 -9 -3 -9 -8z" />
    <glyph glyph-name="uni0916093C" unicode="&#x959;" horiz-adv-x="688" 
d="M88 4v-25c0 -6 -3 -9 -8 -9h-20c-5 0 -8 3 -8 9v25c0 6 3 9 8 9h20c5 0 8 -3 8 -9zM558 9v190h-4c-19 -33 -53 -50 -100 -50h-4c-81 0 -128 50 -128 133v42c0 83 47 133 128 133h18c6 0 9 -3 9 -8v-12c0 -5 -3 -8 -9 -8h-18c-65 0 -98 -35 -98 -106v-40
c0 -71 33 -106 98 -106h4c67 0 104 38 104 106v307c0 5 -3 8 -9 8h-292c-6 0 -9 -3 -9 -8v-162c0 -89 -48 -131 -124 -131h-50l192 -281c3 -4 4 -7 4 -9c0 -5 -3 -7 -8 -7h-13c-5 0 -10 3 -15 10l-182 265l-17 21v21c0 5 3 8 9 8h81c62 0 93 34 93 103v162c0 5 -3 8 -9 8
h-210c-6 0 -9 3 -9 8v9c0 5 3 8 9 8h690c6 0 9 -3 9 -8v-9c0 -5 -3 -8 -9 -8h-92c-6 0 -9 -3 -9 -8v-581c0 -6 -3 -9 -8 -9h-14c-5 0 -8 3 -8 9z" />
    <glyph glyph-name="uni0917093C" unicode="&#x95a;" horiz-adv-x="486" 
d="M138 4v-25c0 -6 -3 -9 -8 -9h-20c-5 0 -8 3 -8 9v25c0 6 3 9 8 9h20c5 0 8 -3 8 -9zM-1 623h488c6 0 9 -3 9 -8v-9c0 -5 -3 -8 -9 -8h-92c-6 0 -9 -3 -9 -8v-581c0 -6 -3 -9 -8 -9h-14c-5 0 -8 3 -8 9v581c0 5 -3 8 -9 8h-172c-6 0 -9 -3 -9 -8v-232
c0 -89 -48 -130 -125 -130h-15c-6 0 -9 3 -9 8v12c0 5 3 8 9 8h16c63 0 94 34 94 102v232c0 5 -3 8 -9 8h-128c-6 0 -9 3 -9 8v9c0 5 3 8 9 8z" />
    <glyph glyph-name="uni091C093C" unicode="&#x95b;" horiz-adv-x="543" 
d="M138 -6v-25c0 -6 -3 -9 -8 -9h-20c-5 0 -8 3 -8 9v25c0 6 3 9 8 9h20c5 0 8 -3 8 -9zM404 387h-174v-4c29 -16 43 -49 43 -98v-79c0 -89 -48 -130 -125 -130h-108c-6 0 -9 3 -9 8v12c0 5 3 8 9 8h109c63 0 94 34 94 102v79c0 68 -31 102 -94 102h-67c-6 0 -9 3 -9 8v12
c0 5 3 8 9 8h322c6 0 9 3 9 8v167c0 5 -3 8 -9 8h-405c-6 0 -9 3 -9 8v9c0 5 3 8 9 8h545c6 0 9 -3 9 -8v-9c0 -5 -3 -8 -9 -8h-92c-6 0 -9 -3 -9 -8v-581c0 -6 -3 -9 -8 -9h-14c-5 0 -8 3 -8 9v370c0 5 -3 8 -9 8z" />
    <glyph glyph-name="uni0921093C" unicode="&#x95c;" horiz-adv-x="480" 
d="M268 -86v-25c0 -6 -3 -9 -8 -9h-20c-5 0 -8 3 -8 9v25c0 6 3 9 8 9h20c5 0 8 -3 8 -9zM-1 623h482c6 0 9 -3 9 -8v-9c0 -5 -3 -8 -9 -8h-90c-6 0 -9 -3 -9 -8v-137c0 -12 -5 -18 -16 -18h-159c-68 0 -94 -21 -94 -78v-20c0 -57 26 -78 94 -78h78c85 0 127 -35 127 -104
v-49c0 -71 -49 -106 -126 -106h-92c-77 0 -116 39 -116 116v10c0 6 3 9 8 9h14c5 0 8 -3 8 -9v-9c0 -65 27 -89 86 -89h92c64 0 96 23 96 79v47c0 57 -29 77 -97 77h-78c-83 0 -124 35 -124 105v22c0 70 41 105 124 105h137c6 0 9 3 9 8v119c0 5 -3 8 -9 8h-345
c-6 0 -9 3 -9 8v9c0 5 3 8 9 8z" />
    <glyph glyph-name="uni0922093C" unicode="&#x95d;" horiz-adv-x="485" 
d="M268 -56v-25c0 -6 -3 -9 -8 -9h-20c-5 0 -8 3 -8 9v25c0 6 3 9 8 9h20c5 0 8 -3 8 -9zM309 41h-100c-81 0 -134 53 -134 136v127c0 83 53 136 134 136h127c6 0 9 3 9 8v142c0 5 -3 8 -9 8h-337c-6 0 -9 3 -9 8v9c0 5 3 8 9 8h487c6 0 9 -3 9 -8v-9c0 -5 -3 -8 -9 -8h-102
c-6 0 -9 -3 -9 -8v-160c0 -12 -5 -18 -16 -18h-150c-67 0 -104 -41 -104 -109v-125c0 -68 37 -109 104 -109h100c67 0 94 31 94 99v14c0 63 -13 85 -64 85s-64 -21 -64 -84v-14c0 -6 -3 -9 -8 -9h-14c-5 0 -8 3 -8 9v14c0 77 26 112 93 112c68 0 95 -34 95 -113v-15
c0 -84 -41 -126 -124 -126z" />
    <glyph glyph-name="uni092B093C" unicode="&#x95e;" horiz-adv-x="737" 
d="M178 4v-25c0 -6 -3 -9 -8 -9h-20c-5 0 -8 3 -8 9v25c0 6 3 9 8 9h20c5 0 8 -3 8 -9zM390 357v-348c0 -6 -3 -9 -8 -9h-13c-5 0 -8 3 -8 9v231h-4c-17 -32 -50 -48 -100 -48h-33c-81 0 -134 50 -134 133v265c0 5 -2 7 -7 8h-84c-6 0 -9 3 -9 8v9c0 5 3 8 9 8h739
c6 0 9 -3 9 -8v-9c0 -5 -3 -8 -9 -8h-339c-6 0 -9 -3 -9 -8v-153h4c14 33 47 49 100 49h39c81 0 134 -50 134 -133v-123c0 -83 -53 -133 -134 -133h-53c-6 0 -9 3 -9 8v12c0 5 3 8 9 8h53c67 0 104 38 104 106v121c0 68 -37 106 -104 106h-39c-67 0 -104 -36 -104 -101z
M224 220h33c65 0 104 37 104 101v269c0 5 -3 8 -9 8h-223c-6 0 -9 -3 -9 -8v-264c0 -68 37 -106 104 -106z" />
    <glyph glyph-name="uni092F093C" unicode="&#x95f;" horiz-adv-x="559" 
d="M148 0v-25c0 -6 -3 -9 -8 -9h-20c-5 0 -8 3 -8 9v25c0 6 3 9 8 9h20c5 0 8 -3 8 -9zM420 598h-202v-4c24 -15 36 -45 36 -90v-12c0 -84 -42 -126 -125 -126h-24v-110c0 -73 42 -116 114 -116h96c71 0 114 42 114 111v339c0 5 -3 8 -9 8zM224 492v11c0 67 -26 95 -94 95
h-131c-6 0 -9 3 -9 8v9c0 5 3 8 9 8h561c6 0 9 -3 9 -8v-9c0 -5 -3 -8 -9 -8h-92c-6 0 -9 -3 -9 -8v-581c0 -6 -3 -9 -8 -9h-14c-5 0 -8 3 -8 9v157h-4c-17 -36 -54 -54 -110 -54h-96c-87 0 -144 55 -144 143v131c0 5 3 8 9 8h46c67 0 94 25 94 98z" />
    <glyph glyph-name="uni0960" unicode="&#x960;" horiz-adv-x="743" 
d="M-1 623h745c6 0 9 -3 9 -8v-9c0 -5 -3 -8 -9 -8h-347c-6 0 -9 -3 -9 -8v-337l210 163c13 9 25 14 35 14h22c5 0 8 -3 8 -9v-154c0 -9 -5 -13 -15 -13h-31c-69 0 -94 -17 -94 -73v-5c0 -56 25 -73 94 -73h50c6 0 9 -3 9 -8v-12c0 -5 -3 -8 -9 -8h-49
c-69 0 -94 -17 -94 -73v-10c0 -56 25 -73 94 -73h60c6 0 9 -3 9 -8v-12c0 -5 -3 -8 -9 -8h-60c-84 0 -124 29 -124 100v12c0 43 16 71 47 85c-32 15 -48 44 -48 87v7c0 72 39 100 131 100c6 0 9 3 9 8v117l-245 -189v-209c0 -6 -3 -9 -8 -9h-14c-5 0 -8 3 -8 9v182
l-235 -181c-8 -7 -15 -10 -21 -10h-13c-11 0 -14 7 9 26l260 200v83c0 67 -35 93 -104 93h-50c-69 0 -104 -26 -104 -93v-68c0 -6 -3 -9 -8 -9h-14c-5 0 -8 3 -8 9v69c0 80 50 120 134 120h50c48 0 81 -13 100 -40h4v200c0 5 -3 8 -9 8h-350c-6 0 -9 3 -9 8v9c0 5 3 8 9 8z
" />
    <glyph glyph-name="uni0961" unicode="&#x961;" horiz-adv-x="686" 
d="M-1 623h688c6 0 9 -3 9 -8v-9c0 -5 -3 -8 -9 -8h-92c-6 0 -9 -3 -9 -8v-438c0 -9 -5 -13 -15 -13h-31c-69 0 -94 -17 -94 -73v-5c0 -56 25 -73 94 -73h50c6 0 9 -3 9 -8v-12c0 -5 -3 -8 -9 -8h-49c-69 0 -94 -17 -94 -73v-10c0 -56 25 -73 94 -73h60c6 0 9 -3 9 -8v-12
c0 -5 -3 -8 -9 -8h-60c-84 0 -124 29 -124 100v12c0 43 16 71 47 85c-32 15 -48 44 -48 87v7c0 72 39 100 131 100c6 0 9 3 9 8v134c0 76 -35 106 -104 106s-104 -28 -104 -105v-96c0 -6 -3 -9 -8 -9h-14c-5 0 -8 3 -8 9v96c0 75 -35 105 -104 105s-104 -30 -104 -106v-134
c0 -76 35 -106 104 -106h59c6 0 9 -3 9 -8v-12c0 -5 -3 -8 -9 -8h-59c-84 0 -134 44 -134 133v136c0 89 50 133 134 133c63 0 102 -23 117 -70h4c15 47 54 70 117 70c50 0 83 -15 100 -46h4v193c0 5 -3 8 -9 8h-548c-6 0 -9 3 -9 8v9c0 5 3 8 9 8z" />
    <glyph glyph-name="uni0964" unicode="&#x964;" horiz-adv-x="280" 
d="M150 9v605c0 6 3 9 8 9h14c5 0 8 -3 8 -9v-605c0 -6 -3 -9 -8 -9h-14c-5 0 -8 3 -8 9z" />
    <glyph glyph-name="uni0965" unicode="&#x965;" horiz-adv-x="510" 
d="M380 9v605c0 6 3 9 8 9h14c5 0 8 -3 8 -9v-605c0 -6 -3 -9 -8 -9h-14c-5 0 -8 3 -8 9zM150 9v605c0 6 3 9 8 9h14c5 0 8 -3 8 -9v-605c0 -6 -3 -9 -8 -9h-14c-5 0 -8 3 -8 9z" />
    <glyph glyph-name="uni0966" unicode="&#x966;" horiz-adv-x="518" 
d="M105 506v-369c0 -68 37 -109 104 -109h100c67 0 104 41 104 109v369c0 68 -37 109 -104 109h-100c-67 0 -104 -41 -104 -109zM443 507v-371c0 -83 -53 -136 -134 -136h-100c-81 0 -134 53 -134 136v371c0 83 53 136 134 136h100c81 0 134 -53 134 -136z" />
    <glyph glyph-name="uni0967" unicode="&#x967;" horiz-adv-x="280" 
d="M13 538v6c0 9 4 15 11 19l135 75c7 3 12 5 16 5h12c5 0 8 -3 8 -9v-625c0 -6 -3 -9 -8 -9h-14c-5 0 -8 3 -8 9v601l-136 -77c-11 -7 -16 -6 -16 5z" />
    <glyph glyph-name="uni0968" unicode="&#x968;" horiz-adv-x="450" 
d="M59 8v86c0 50 21 90 63 120l200 149c35 26 53 61 53 105v41c0 68 -37 106 -104 106h-82c-67 0 -104 -38 -104 -106v-48c0 -6 -3 -9 -8 -9h-14c-5 0 -8 3 -8 9v49c0 83 53 133 134 133h82c81 0 134 -50 134 -133v-43c0 -52 -21 -94 -64 -125l-202 -151
c-33 -25 -50 -56 -50 -93v-70h311c6 0 9 -3 9 -8v-12c0 -5 -3 -8 -9 -8h-332c-6 0 -9 3 -9 8z" />
    <glyph glyph-name="uni0969" unicode="&#x969;" horiz-adv-x="487" 
d="M216 338h62c67 0 104 38 104 106v65c0 68 -37 106 -104 106h-85c-67 0 -104 -38 -104 -106v-38c0 -6 -3 -9 -8 -9h-14c-5 0 -8 3 -8 9v39c0 83 53 133 134 133h85c81 0 134 -50 134 -133v-67c0 -63 -28 -102 -84 -119c56 -15 84 -54 84 -119v-72
c0 -83 -53 -133 -134 -133h-85c-81 0 -134 50 -134 133v50c0 6 3 9 8 9h14c5 0 8 -3 8 -9v-49c0 -68 37 -106 104 -106h85c67 0 104 38 104 106v70c0 68 -37 106 -104 106h-62c-6 0 -9 3 -9 8v12c0 5 3 8 9 8z" />
    <glyph glyph-name="uni096A" unicode="&#x96a;" horiz-adv-x="438" 
d="M50 163h276v458zM348 0h-14c-5 0 -8 3 -8 9v126h-301c-6 0 -9 3 -9 8v12c0 5 2 10 6 16l278 461c4 7 10 11 19 11h29c5 0 8 -3 8 -9v-471h76c6 0 9 -3 9 -8v-12c0 -5 -3 -8 -9 -8h-76v-126c0 -6 -3 -9 -8 -9z" />
    <glyph glyph-name="uni096B" unicode="&#x96b;" horiz-adv-x="476" 
d="M391 137v128c0 68 -37 106 -104 106h-96c-78 0 -70 -53 -90 -53h-18c-5 0 -8 3 -8 9v307c0 6 3 9 8 9h319c6 0 9 -3 9 -8v-12c0 -5 -3 -8 -9 -8h-297v-265c13 33 41 49 86 49h96c81 0 134 -50 134 -133v-130c0 -83 -53 -136 -134 -136h-78c-81 0 -134 53 -134 136v40
c0 6 3 9 8 9h14c5 0 8 -3 8 -9v-39c0 -68 37 -109 104 -109h78c67 0 104 41 104 109z" />
    <glyph glyph-name="uni096C" unicode="&#x96c;" horiz-adv-x="490" 
d="M105 251v-114c0 -68 37 -109 104 -109h92c67 0 104 41 104 109v109c0 68 -37 109 -104 109h-92c-65 0 -104 -39 -104 -104zM435 247v-111c0 -83 -53 -136 -134 -136h-92c-81 0 -134 53 -134 136v371c0 83 53 136 134 136h186c6 0 9 -3 9 -8v-12c0 -5 -3 -8 -9 -8h-186
c-67 0 -104 -41 -104 -109v-187c15 43 49 64 104 64h92c81 0 134 -53 134 -136z" />
    <glyph glyph-name="uni096D" unicode="&#x96d;" horiz-adv-x="367" 
d="M109 0h-10c-8 0 -10 5 -6 14l221 601h-290c-6 0 -9 3 -9 8v12c0 5 3 8 9 8h314c6 0 9 -3 9 -8v-10c0 -5 -1 -9 -3 -14l-221 -602c-2 -6 -7 -9 -14 -9z" />
    <glyph glyph-name="uni096E" unicode="&#x96e;" horiz-adv-x="523" 
d="M448 510v-67c0 -60 -25 -100 -74 -119c49 -19 74 -59 74 -119v-72c0 -83 -53 -133 -134 -133h-105c-81 0 -134 50 -134 133v72c0 60 25 100 74 119c-49 19 -74 59 -74 119v67c0 83 53 133 134 133h105c81 0 134 -50 134 -133zM418 134v70c0 68 -37 106 -104 106h-105
c-67 0 -104 -38 -104 -106v-70c0 -68 37 -106 104 -106h105c67 0 104 38 104 106zM209 338h105c67 0 104 38 104 106v65c0 68 -37 106 -104 106h-105c-67 0 -104 -38 -104 -106v-65c0 -68 37 -106 104 -106z" />
    <glyph glyph-name="uni096F" unicode="&#x96f;" horiz-adv-x="490" 
d="M189 643h92c81 0 134 -53 134 -136v-371c0 -83 -53 -136 -134 -136h-186c-6 0 -9 3 -9 8v12c0 5 3 8 9 8h186c67 0 104 41 104 109v129h-196c-81 0 -134 53 -134 136v105c0 83 53 136 134 136zM189 294h196v212c0 68 -37 109 -104 109h-92c-67 0 -104 -41 -104 -109v-103
c0 -68 37 -109 104 -109z" />
    <glyph glyph-name="uni0970" unicode="&#x970;" horiz-adv-x="377" 
d="M68 329v-49c0 -68 37 -109 104 -109h30c67 0 104 41 104 109v49c0 68 -37 109 -104 109h-30c-67 0 -104 -41 -104 -109zM336 330v-51c0 -83 -53 -136 -134 -136h-30c-81 0 -134 53 -134 136v51c0 83 53 136 134 136h30c81 0 134 -53 134 -136z" />
    <glyph glyph-name="uni0972" unicode="&#x972;" horiz-adv-x="595" 
d="M608 820h14c5 0 8 -3 8 -9v-6c0 -81 -40 -121 -120 -121h-61c-80 0 -120 40 -120 121v6c0 6 3 9 8 9h14c5 0 8 -3 8 -9v-6c0 -68 23 -93 90 -93h61c67 0 90 25 90 93v6c0 6 3 9 8 9zM481 623h115c6 0 9 -3 9 -8v-9c0 -5 -3 -8 -9 -8h-92c-6 0 -9 -3 -9 -8v-581
c0 -6 -3 -9 -8 -9h-14c-5 0 -8 3 -8 9v244c0 5 -3 8 -9 8h-152c3 -15 5 -28 5 -41v-44c0 -83 -53 -136 -134 -136h-130c-6 0 -9 3 -9 8v12c0 5 3 8 9 8h130c67 0 104 41 104 109v42c0 68 -37 106 -104 106h-67c-6 0 -9 3 -9 8v12c0 5 3 8 9 8h67c67 0 104 38 104 106v30
c0 68 -37 109 -104 109h-94c-6 0 -9 3 -9 8v9c0 5 3 8 9 8h94c81 0 134 -50 134 -133v-32c0 -61 -23 -99 -70 -116v-4c24 -9 42 -26 55 -49h162c6 0 9 3 9 8v308c0 12 5 18 16 18z" />
    <glyph glyph-name="Wgrave" unicode="&#x1e80;" horiz-adv-x="791" 
d="M397 707h-8c-5 0 -10 3 -14 8l-92 112c-4 5 -1 9 4 9h30c7 0 12 -3 15 -9l68 -111c3 -6 2 -9 -3 -9zM219 0h-27c-5 0 -9 3 -11 9l-145 625c-1 6 1 9 8 9h14c5 0 8 -3 10 -9l135 -596h4l167 596c2 6 6 9 11 9h19c5 0 9 -3 11 -9l168 -596h4l135 596c1 6 5 9 11 9h15
c6 0 8 -3 6 -9l-145 -625c-1 -6 -5 -9 -10 -9h-27c-5 0 -9 3 -11 9l-164 590h-4l-164 -590c-2 -6 -5 -9 -10 -9z" />
    <glyph glyph-name="wgrave" unicode="&#x1e81;" horiz-adv-x="679" 
d="M343 574h-8c-5 0 -10 3 -14 8l-92 112c-4 5 -1 9 4 9h30c7 0 12 -3 15 -9l68 -111c3 -6 2 -9 -3 -9zM202 0h-20c-5 0 -9 3 -11 9l-150 492c-2 6 0 9 6 9h15c5 0 8 -3 10 -9l138 -460h4l128 460c1 6 5 9 11 9h14c6 0 10 -3 11 -9l126 -460h4l138 460c2 6 5 9 10 9h16
c6 0 8 -3 6 -9l-150 -492c-2 -6 -6 -9 -11 -9h-21c-5 0 -9 3 -11 9l-124 445h-4l-124 -445c-2 -6 -6 -9 -11 -9z" />
    <glyph glyph-name="Wacute" unicode="&#x1e82;" horiz-adv-x="791" 
d="M473 836h30c5 0 8 -4 4 -9l-92 -112c-4 -5 -9 -8 -14 -8h-8c-5 0 -6 3 -3 9l68 111c3 6 8 9 15 9zM219 0h-27c-5 0 -9 3 -11 9l-145 625c-1 6 1 9 8 9h14c5 0 8 -3 10 -9l135 -596h4l167 596c2 6 6 9 11 9h19c5 0 9 -3 11 -9l168 -596h4l135 596c1 6 5 9 11 9h15
c6 0 8 -3 6 -9l-145 -625c-1 -6 -5 -9 -10 -9h-27c-5 0 -9 3 -11 9l-164 590h-4l-164 -590c-2 -6 -5 -9 -10 -9z" />
    <glyph glyph-name="wacute" unicode="&#x1e83;" horiz-adv-x="679" 
d="M417 703h30c5 0 8 -4 4 -9l-92 -112c-4 -5 -9 -8 -14 -8h-8c-5 0 -6 3 -3 9l68 111c3 6 8 9 15 9zM202 0h-20c-5 0 -9 3 -11 9l-150 492c-2 6 0 9 6 9h15c5 0 8 -3 10 -9l138 -460h4l128 460c1 6 5 9 11 9h14c6 0 10 -3 11 -9l126 -460h4l138 460c2 6 5 9 10 9h16
c6 0 8 -3 6 -9l-150 -492c-2 -6 -6 -9 -11 -9h-21c-5 0 -9 3 -11 9l-124 445h-4l-124 -445c-2 -6 -6 -9 -11 -9z" />
    <glyph glyph-name="Wdieresis" unicode="&#x1e84;" horiz-adv-x="791" 
d="M302 716v111c0 6 3 9 8 9h14c5 0 8 -3 8 -9v-111c0 -6 -3 -9 -8 -9h-14c-5 0 -8 3 -8 9zM458 716v111c0 6 3 9 8 9h14c5 0 8 -3 8 -9v-111c0 -6 -3 -9 -8 -9h-14c-5 0 -8 3 -8 9zM219 0h-27c-5 0 -9 3 -11 9l-145 625c-1 6 1 9 8 9h14c5 0 8 -3 10 -9l135 -596h4l167 596
c2 6 6 9 11 9h19c5 0 9 -3 11 -9l168 -596h4l135 596c1 6 5 9 11 9h15c6 0 8 -3 6 -9l-145 -625c-1 -6 -5 -9 -10 -9h-27c-5 0 -9 3 -11 9l-164 590h-4l-164 -590c-2 -6 -5 -9 -10 -9z" />
    <glyph glyph-name="wdieresis" unicode="&#x1e85;" horiz-adv-x="679" 
d="M246 583v111c0 6 3 9 8 9h14c5 0 8 -3 8 -9v-111c0 -6 -3 -9 -8 -9h-14c-5 0 -8 3 -8 9zM402 583v111c0 6 3 9 8 9h14c5 0 8 -3 8 -9v-111c0 -6 -3 -9 -8 -9h-14c-5 0 -8 3 -8 9zM202 0h-20c-5 0 -9 3 -11 9l-150 492c-2 6 0 9 6 9h15c5 0 8 -3 10 -9l138 -460h4l128 460
c1 6 5 9 11 9h14c6 0 10 -3 11 -9l126 -460h4l138 460c2 6 5 9 10 9h16c6 0 8 -3 6 -9l-150 -492c-2 -6 -6 -9 -11 -9h-21c-5 0 -9 3 -11 9l-124 445h-4l-124 -445c-2 -6 -6 -9 -11 -9z" />
    <glyph glyph-name="uni1E9E" unicode="&#x1e9e;" horiz-adv-x="534" 
d="M107 0h-14c-5 0 -8 3 -8 9v498c0 83 53 136 134 136h230c6 0 9 -3 9 -8v-13c0 -4 -1 -7 -2 -10l-125 -248v-4h19c80 0 124 -52 124 -136v-88c0 -83 -53 -136 -134 -136h-92c-6 0 -9 3 -9 8v12c0 5 3 8 9 8h92c67 0 104 41 104 109v86c0 73 -31 109 -94 109h-42
c-6 0 -9 3 -9 8v14c0 6 1 11 4 16l122 245h-206c-67 0 -104 -41 -104 -109v-497c0 -6 -3 -9 -8 -9z" />
    <glyph glyph-name="Ygrave" unicode="&#x1ef2;" horiz-adv-x="486" 
d="M250 0h-14c-5 0 -8 3 -8 9v236l-197 389c-3 6 -2 9 5 9h18c5 0 8 -3 11 -9l176 -350h4l176 350c3 6 6 9 11 9h18c7 0 8 -3 5 -9l-197 -389v-236c0 -6 -3 -9 -8 -9zM277 692h-10c-5 0 -10 3 -14 8l-84 106c-4 5 -1 9 3 9h20c7 0 11 -3 14 -9l74 -105c3 -6 2 -9 -3 -9z" />
    <glyph glyph-name="ygrave" unicode="&#x1ef3;" horiz-adv-x="456" 
d="M88 -147h-29c-6 0 -9 3 -9 8v12c0 5 3 8 9 8h29c27 0 45 5 56 15c11 9 20 16 25 21c5 4 11 13 17 26c7 13 11 21 13 25c12 27 20 46 23 59h-10c-5 0 -9 3 -11 9l-170 465c-2 6 0 9 6 9h16c5 0 8 -3 10 -9l163 -445h4l163 445c2 6 5 9 10 9h16c6 0 8 -3 6 -9l-170 -465
c-21 -59 -36 -98 -47 -115c-29 -45 -69 -67 -120 -68zM267 574h-10c-5 0 -10 3 -14 8l-84 106c-4 5 -1 9 3 9h20c7 0 11 -3 14 -9l74 -105c3 -6 2 -9 -3 -9z" />
    <glyph glyph-name="uni200B" unicode="&#x200b;" horiz-adv-x="0" 
 />
    <glyph glyph-name="uni200C" unicode="&#x200c;" horiz-adv-x="0" 
d="M24 811v-1041h-47v1041h47z" />
    <glyph glyph-name="uni200D" unicode="&#x200d;" horiz-adv-x="0" 
d="M24 635v-865h-47v865l-69 -73l-33 33l93 93l-95 95l33 33l95 -95l96 95l32 -32l-96 -96l96 -95l-33 -33z" />
    <glyph glyph-name="endash" unicode="&#x2013;" horiz-adv-x="412" 
d="M363 306h-314c-6 0 -9 3 -9 8v12c0 5 3 8 9 8h314c6 0 9 -3 9 -8v-12c0 -5 -3 -8 -9 -8z" />
    <glyph glyph-name="emdash" unicode="&#x2014;" horiz-adv-x="512" 
d="M40 314v12c0 5 3 8 9 8h414c6 0 9 -3 9 -8v-12c0 -5 -3 -8 -9 -8h-414c-6 0 -9 3 -9 8z" />
    <glyph glyph-name="quoteleft" unicode="&#x2018;" horiz-adv-x="177" 
d="M70 414v79c0 10 9 58 26 144c3 8 11 8 11 0v-223c0 -6 -3 -9 -8 -9h-21c-5 0 -8 3 -8 9z" />
    <glyph glyph-name="quoteright" unicode="&#x2019;" horiz-adv-x="177" 
d="M107 634v-79c0 -10 -9 -58 -26 -144c-1 -8 -11 -8 -11 0v223c0 6 3 9 8 9h21c5 0 8 -3 8 -9z" />
    <glyph glyph-name="quotesinglbase" unicode="&#x201a;" horiz-adv-x="187" 
d="M112 126v-79c0 -10 -9 -58 -26 -144c-3 -8 -11 -8 -11 0v223c0 6 3 9 8 9h21c5 0 8 -3 8 -9z" />
    <glyph glyph-name="quotedblleft" unicode="&#x201c;" horiz-adv-x="324" 
d="M217 414v79c0 10 9 58 26 144c1 8 11 8 11 0v-223c0 -6 -3 -9 -8 -9h-21c-5 0 -8 3 -8 9zM70 414v79c0 10 9 58 26 144c3 8 11 8 11 0v-223c0 -6 -3 -9 -8 -9h-21c-5 0 -8 3 -8 9z" />
    <glyph glyph-name="quotedblright" unicode="&#x201d;" horiz-adv-x="324" 
d="M107 634v-79c0 -10 -9 -58 -26 -144c-1 -8 -11 -8 -11 0v223c0 6 3 9 8 9h21c5 0 8 -3 8 -9zM254 634v-79c0 -10 -9 -58 -26 -144c-3 -8 -11 -8 -11 0v223c0 6 3 9 8 9h21c5 0 8 -3 8 -9z" />
    <glyph glyph-name="quotedblbase" unicode="&#x201e;" horiz-adv-x="334" 
d="M112 126v-79c0 -10 -9 -58 -26 -144c-3 -8 -11 -8 -11 0v223c0 6 3 9 8 9h21c5 0 8 -3 8 -9zM259 126v-79c0 -10 -9 -58 -26 -144c-1 -8 -11 -8 -11 0v223c0 6 3 9 8 9h21c5 0 8 -3 8 -9z" />
    <glyph glyph-name="dagger" unicode="&#x2020;" horiz-adv-x="432" 
d="M217 0h-2c-5 0 -8 3 -8 9c-4 183 -6 289 -6 317c0 29 1 66 3 112l-145 -3c-6 0 -9 3 -9 8v14c0 5 3 8 9 8l146 -5l-4 174c0 6 3 9 8 9h14c5 0 8 -3 8 -9l-4 -174l146 5c6 0 9 -3 9 -8v-14c0 -5 -3 -8 -9 -8l-146 3c3 -53 4 -90 4 -111l-6 -318c0 -6 -3 -9 -8 -9z" />
    <glyph glyph-name="daggerdbl" unicode="&#x2021;" horiz-adv-x="432" 
d="M50 443v14c0 5 3 8 9 8l146 -5l-4 174c0 6 3 9 8 9h14c5 0 8 -3 8 -9l-4 -174l146 5c6 0 9 -3 9 -8v-14c0 -5 -3 -8 -9 -8l-146 3c3 -56 4 -94 4 -115s-1 -60 -4 -119l146 4c6 0 9 -3 9 -8v-14c0 -5 -3 -8 -9 -8l-146 4l4 -173c0 -6 -3 -9 -8 -9h-14c-5 0 -8 3 -8 9
l4 173l-146 -4c-6 0 -9 3 -9 8v14c0 5 3 8 9 8l145 -4c-2 46 -3 84 -3 115s1 71 3 119l-145 -3c-6 0 -9 3 -9 8z" />
    <glyph glyph-name="bullet" unicode="&#x2022;" horiz-adv-x="267" 
d="M167 388v-139c0 -6 -3 -9 -8 -9h-51c-5 0 -8 3 -8 9v139c0 6 3 9 8 9h51c5 0 8 -3 8 -9z" />
    <glyph glyph-name="ellipsis" unicode="&#x2026;" horiz-adv-x="587" 
d="M112 128v-119c0 -6 -3 -9 -8 -9h-21c-5 0 -8 3 -8 9v119c0 6 3 9 8 9h21c5 0 8 -3 8 -9zM312 128v-119c0 -6 -3 -9 -8 -9h-21c-5 0 -8 3 -8 9v119c0 6 3 9 8 9h21c5 0 8 -3 8 -9zM512 128v-119c0 -6 -3 -9 -8 -9h-21c-5 0 -8 3 -8 9v119c0 6 3 9 8 9h21c5 0 8 -3 8 -9z
" />
    <glyph glyph-name="perthousand" unicode="&#x2030;" horiz-adv-x="1019" 
d="M167 648h16c80 0 116 -37 116 -121v-50c0 -84 -36 -122 -116 -122h-16c-80 0 -117 38 -117 122v50c0 83 36 121 117 121zM219 0h-10c-7 0 -8 4 -5 12l275 620c3 7 8 11 14 11h9c7 0 9 -5 5 -14l-275 -618c-3 -7 -8 -11 -13 -11zM183 620h-16c-65 0 -87 -25 -87 -94v-48
c0 -69 22 -95 87 -95h16c65 0 86 26 86 95v48c0 69 -21 94 -86 94zM529 293h16c80 0 116 -37 116 -121v-50c0 -84 -36 -122 -116 -122h-16c-80 0 -117 38 -117 122v50c0 83 36 121 117 121zM545 265h-16c-65 0 -87 -25 -87 -94v-48c0 -69 22 -95 87 -95h16c65 0 86 26 86 95
v48c0 69 -21 94 -86 94zM873 265h-16c-65 0 -87 -25 -87 -94v-48c0 -69 22 -95 87 -95h16c65 0 86 26 86 95v48c0 69 -21 94 -86 94zM857 293h16c80 0 116 -37 116 -121v-50c0 -84 -36 -122 -116 -122h-16c-80 0 -117 38 -117 122v50c0 83 36 121 117 121z" />
    <glyph glyph-name="guilsinglleft" unicode="&#x2039;" horiz-adv-x="293" 
d="M223 112v-16c0 -8 -6 -12 -11 -5l-133 138c-6 7 -9 14 -9 19v14c0 5 3 12 9 19l133 138c5 7 11 3 11 -5v-16c0 -5 -2 -9 -5 -13l-125 -130l125 -130c3 -4 5 -8 5 -13z" />
    <glyph glyph-name="guilsinglright" unicode="&#x203a;" horiz-adv-x="293" 
d="M70 398v16c0 8 4 12 11 5l133 -138c6 -7 9 -14 9 -19v-14c0 -5 -3 -12 -9 -19l-133 -138c-7 -7 -11 -3 -11 5v16c0 5 2 9 5 13l125 130l-125 130c-3 4 -5 8 -5 13z" />
    <glyph glyph-name="fraction" unicode="&#x2044;" horiz-adv-x="120" 
d="M-168 0h-16c-8 0 -9 4 -3 12l457 620c5 7 11 11 17 11h17c7 0 7 -7 2 -14l-456 -618c-5 -7 -11 -11 -18 -11z" />
    <glyph glyph-name="Euro" unicode="&#x20ac;" horiz-adv-x="517" 
d="M313 0h-65c-81 0 -134 50 -134 133v114h-65c-6 0 -9 3 -9 8v12c0 5 3 8 9 8h65v92h-65c-6 0 -9 3 -9 8v12c0 5 3 8 9 8h65v115c0 83 53 133 134 133h65c81 0 134 -50 134 -133v-29c0 -6 -3 -9 -8 -9h-14c-5 0 -8 3 -8 9v28c0 68 -37 106 -104 106h-65
c-67 0 -104 -38 -104 -106v-114h176c6 0 9 -3 9 -8v-12c0 -5 -3 -8 -9 -8h-176v-92h176c6 0 9 -3 9 -8v-12c0 -5 -3 -8 -9 -8h-176v-113c0 -68 37 -106 104 -106h65c67 0 104 38 104 106v28c0 6 3 9 8 9h14c5 0 8 -3 8 -9v-29c0 -83 -53 -133 -134 -133z" />
    <glyph glyph-name="uni20B9" unicode="&#x20b9;" horiz-adv-x="385" 
d="M348 598h-140v-4c27 -15 40 -43 40 -84v-30h100c6 0 9 -3 9 -8v-9c0 -5 -3 -8 -9 -8h-100v-27c0 -89 -48 -131 -124 -131h-51l201 -284c1 -3 2 -5 2 -6c0 -5 -3 -7 -8 -7h-12c-5 0 -10 3 -14 9l-190 266l-17 21v21c0 5 3 8 9 8h81c62 0 93 34 93 103v27h-174
c-6 0 -9 3 -9 8v9c0 5 3 8 9 8h174v30c0 52 -26 88 -79 88h-95c-6 0 -9 3 -9 8v9c0 5 3 8 9 8h304c6 0 9 -3 9 -8v-9c0 -5 -3 -8 -9 -8z" />
    <glyph glyph-name="trademark" unicode="&#x2122;" horiz-adv-x="592" 
d="M502 643h11c6 0 9 -3 9 -8v-228c0 -6 -3 -9 -8 -9h-9c-5 0 -8 3 -8 9v186h-4l-67 -128c-2 -5 -5 -8 -9 -8h-9c-5 0 -8 3 -11 8l-67 128h-4v-186c0 -6 -3 -9 -8 -9h-9c-5 0 -8 3 -8 9v228c0 5 3 8 9 8h10c4 0 7 -2 10 -6l80 -148h4l79 148c2 4 5 6 9 6zM149 407v212h-70
c-6 0 -9 3 -9 8v8c0 5 3 8 9 8h164c6 0 9 -3 9 -8v-8c0 -5 -3 -8 -9 -8h-69v-212c0 -6 -3 -9 -8 -9h-9c-5 0 -8 3 -8 9z" />
    <glyph glyph-name="uni2126" unicode="&#x2126;" horiz-adv-x="620" 
d="M271 22v-14c0 -5 -3 -8 -9 -8h-213c-6 0 -9 3 -9 8v14c0 5 3 8 9 8h103v4c-35 19 -52 54 -52 106v369c0 81 53 134 136 134h148c83 0 136 -53 136 -134v-369c0 -52 -17 -87 -52 -106v-4h103c6 0 9 -3 9 -8v-14c0 -5 -3 -8 -9 -8h-213c-6 0 -9 3 -9 8v14c0 5 3 8 9 8h30
c67 0 104 45 104 112v367c0 67 -41 104 -109 104h-146c-68 0 -109 -37 -109 -104v-367c0 -67 37 -112 104 -112h30c6 0 9 -3 9 -8z" />
    <glyph glyph-name="partialdiff" unicode="&#x2202;" horiz-adv-x="468" 
d="M266 382h-72c-67 0 -104 -41 -104 -109v-136c0 -68 37 -109 104 -109h80c67 0 104 41 104 109v141c0 67 -45 104 -112 104zM133 618c-6 0 -9 3 -9 8v14c0 5 3 8 9 8c183 0 275 -97 275 -291v-221c0 -83 -53 -136 -134 -136h-80c-81 0 -134 53 -134 136v138
c0 83 53 136 134 136h74c52 0 87 -17 106 -52h4c0 188 -92 260 -245 260z" />
    <glyph glyph-name="uni2206" unicode="&#x2206;" horiz-adv-x="574" 
d="M276 643h22c5 0 9 -3 11 -9l234 -625c3 -6 1 -9 -5 -9h-502c-6 0 -8 3 -5 9l234 625c2 6 6 9 11 9zM289 604h-4l-212 -574h428z" />
    <glyph glyph-name="minus" unicode="&#x2212;" horiz-adv-x="512" 
d="M79 335h354c6 0 9 -3 9 -8v-12c0 -5 -3 -8 -9 -8h-354c-6 0 -9 3 -9 8v12c0 5 3 8 9 8z" />
    <glyph glyph-name="approxequal" unicode="&#x2248;" horiz-adv-x="512" 
d="M78 220c-5 0 -8 3 -8 10v9c0 9 39 29 88 29c25 0 58 -5 101 -15c43 -9 72 -14 89 -14s45 7 86 20c5 0 8 -3 8 -10v-9c0 -9 -38 -29 -86 -29c-24 0 -58 5 -102 14c-43 10 -73 15 -90 15s-45 -7 -86 -20zM78 383c-5 0 -8 3 -8 10v9c0 9 38 29 87 29c25 0 59 -5 102 -15
c43 -9 72 -14 89 -14s45 7 86 20c5 0 8 -3 8 -10v-9c0 -9 -38 -29 -86 -29c-24 0 -58 5 -102 14c-43 10 -73 15 -90 15s-45 -7 -86 -20z" />
    <glyph glyph-name="notequal" unicode="&#x2260;" horiz-adv-x="512" 
d="M187 110h-9c-7 0 -9 4 -6 11l34 99h-127c-6 0 -9 3 -9 8v12c0 5 3 8 9 8h137l51 146h-188c-6 0 -9 3 -9 8v12c0 5 3 8 9 8h198l35 99c2 7 7 11 15 11h7c8 0 11 -4 8 -11l-34 -99h125c6 0 9 -3 9 -8v-12c0 -5 -3 -8 -9 -8h-135l-51 -146h186c6 0 9 -3 9 -8v-12
c0 -5 -3 -8 -9 -8h-196l-35 -99c-2 -7 -7 -11 -15 -11z" />
    <glyph glyph-name="lessequal" unicode="&#x2264;" horiz-adv-x="512" 
d="M442 246v-14c0 -7 -4 -9 -11 -6l-352 117c-6 3 -9 6 -9 11v20c0 5 3 8 9 11l352 118c7 3 11 1 11 -6v-14c0 -5 -2 -9 -7 -10l-332 -109l332 -108c5 -1 7 -5 7 -10zM79 163h354c6 0 9 -3 9 -8v-12c0 -5 -3 -8 -9 -8h-354c-6 0 -9 3 -9 8v12c0 5 3 8 9 8z" />
    <glyph glyph-name="greaterequal" unicode="&#x2265;" horiz-adv-x="512" 
d="M79 163h354c6 0 9 -3 9 -8v-12c0 -5 -3 -8 -9 -8h-354c-6 0 -9 3 -9 8v12c0 5 3 8 9 8zM70 232v14c0 5 2 9 7 10l332 108l-332 109c-5 1 -7 5 -7 10v14c0 7 4 9 11 6l352 -118c6 -3 9 -6 9 -11v-20c0 -5 -3 -8 -9 -11l-352 -117c-7 -3 -11 -1 -11 6z" />
    <glyph glyph-name="uni25CC" unicode="&#x25cc;" horiz-adv-x="701" 
d="M297 539c-16 17 -16 47 0 63c17 17 47 17 63 0c17 -16 17 -46 0 -63c-16 -16 -46 -16 -63 0zM455 512c-24 0 -44 20 -44 45s19 44 44 44c58 5 57 -93 0 -89zM518 456c-16 17 -16 47 0 64c17 17 47 17 63 0c17 -16 17 -47 0 -64c-16 -16 -46 -16 -63 0zM568 338
c-16 16 -16 48 0 64s47 16 63 -1c17 -16 17 -46 0 -63c-16 -16 -47 -16 -63 0zM590 192c-24 0 -44 19 -44 44c0 27 20 45 44 45c57 4 57 -94 0 -89zM485 106c-16 17 -16 47 0 63c17 17 47 17 64 0c17 -16 17 -46 0 -63c-17 -16 -47 -16 -64 0zM364 53c-16 17 -16 47 0 63
c16 17 48 17 64 0c17 -16 17 -46 0 -63c-16 -16 -48 -16 -64 0zM270 55c-58 -4 -58 94 0 90c57 4 57 -94 0 -90zM167 132c-56 -6 -56 93 1 88c57 4 58 -92 -1 -88zM84 261c-16 16 -16 46 0 63c17 17 47 17 63 0c17 -16 17 -47 0 -63c-16 -16 -46 -16 -63 0zM98 386
c-17 17 -17 47 0 63c17 17 47 17 64 0c17 -16 17 -46 0 -63c-17 -16 -47 -16 -64 0zM211 483c-57 -5 -57 94 0 89c57 5 57 -94 0 -89z" />
    <glyph glyph-name="commaaccent" unicode="&#xf6c3;" horiz-adv-x="0" 
d="M237 -41v-47c0 -10 -9 -58 -26 -144c-1 -8 -11 -8 -11 0v191c0 6 3 9 8 9h21c5 0 8 -3 8 -9z" />
    <glyph glyph-name="itfLogo" horiz-adv-x="1734" 
d="M1603 237h-207v196h207v-196zM1603 475h-207v196h207v-196zM1354 0h-208v671h208v-671zM1104 475h-208v196h208v-196zM854 0h-207v671h207v-671zM604 475h-207v196h207v-196zM354 0h-207v671h207v-671z" />
    <glyph glyph-name="uni0915094D" horiz-adv-x="518" 
d="M520 458h-39c-67 0 -104 -36 -104 -101v-348c0 -6 -3 -9 -8 -9h-14c-5 0 -8 3 -8 9v136h-4c-17 -32 -50 -48 -100 -48h-39c-81 0 -134 50 -134 133v123c0 83 53 133 134 133h53c6 0 9 -3 9 -8v-12c0 -5 -3 -8 -9 -8h-53c-67 0 -104 -38 -104 -106v-121
c0 -68 37 -106 104 -106h39c65 0 104 37 104 101v364c0 5 -3 8 -9 8h-339c-6 0 -9 3 -9 8v9c0 5 3 8 9 8h636c6 0 9 -3 9 -8v-9c0 -5 -3 -8 -9 -8h-249c-6 0 -9 -3 -9 -8v-153h4c14 33 47 49 100 49h39c58 0 97 -20 117 -61c7 -13 7 -18 0 -21c-15 -9 -17 -11 -25 5
c-16 33 -47 49 -92 49z" />
    <glyph glyph-name="uni0916094D" horiz-adv-x="459" 
d="M454 149h-4c-81 0 -128 50 -128 133v42c0 83 47 133 128 133h18c6 0 9 -3 9 -8v-12c0 -5 -3 -8 -9 -8h-18c-65 0 -98 -35 -98 -106v-40c0 -71 33 -106 98 -106h4c21 0 38 3 51 10c27 13 50 41 55 41c11 0 19 -14 6 -27c-33 -35 -71 -52 -112 -52zM-1 623h560
c6 0 9 -3 9 -8v-9c0 -5 -3 -8 -9 -8h-302c-6 0 -9 -3 -9 -8v-162c0 -89 -48 -131 -124 -131h-50l192 -281c3 -4 4 -7 4 -9c0 -5 -3 -7 -8 -7h-13c-5 0 -10 3 -15 10l-182 265l-17 21v21c0 5 3 8 9 8h81c62 0 93 34 93 103v162c0 5 -3 8 -9 8h-210c-6 0 -9 3 -9 8v9
c0 5 3 8 9 8z" />
    <glyph glyph-name="uni0917094D" horiz-adv-x="258" 
d="M259 598h-84c-6 0 -9 -3 -9 -8v-232c0 -89 -48 -130 -125 -130h-15c-6 0 -9 3 -9 8v12c0 5 3 8 9 8h16c63 0 94 34 94 102v232c0 5 -3 8 -9 8h-128c-6 0 -9 3 -9 8v9c0 5 3 8 9 8h260c6 0 9 -3 9 -8v-9c0 -5 -3 -8 -9 -8z" />
    <glyph glyph-name="uni0918094D" horiz-adv-x="327" 
d="M213 111h117c21 0 38 3 51 10c27 13 50 41 55 41c11 0 19 -14 6 -27c-33 -35 -71 -52 -112 -52h-117c-83 0 -132 45 -132 126v44c0 57 22 93 65 108v4c-43 16 -65 51 -65 106v29c0 48 13 79 39 94v4h-121c-6 0 -9 3 -9 8v9c0 5 3 8 9 8h440c6 0 9 -3 9 -8v-9
c0 -5 -3 -8 -9 -8h-239c-63 0 -89 -31 -89 -99v-27c0 -64 31 -96 94 -96h62c6 0 9 -3 9 -8v-12c0 -5 -3 -8 -9 -8h-62c-63 0 -94 -32 -94 -96v-42c0 -66 34 -99 102 -99z" />
    <glyph glyph-name="uni0919094D" horiz-adv-x="495" 
d="M-1 623h497c6 0 9 -3 9 -8v-9c0 -5 -3 -8 -9 -8h-105c-6 0 -9 -3 -9 -8v-137c0 -12 -5 -18 -16 -18h-159c-68 0 -94 -21 -94 -78v-15c0 -57 26 -78 94 -78h81c83 0 124 -35 124 -104v-54c0 -71 -41 -106 -124 -106h-96c-77 0 -114 35 -114 116v10c0 6 3 9 8 9h14
c5 0 8 -3 8 -9v-9c0 -68 21 -89 84 -89h96c68 0 94 22 94 79v52c0 57 -26 77 -94 77h-81c-83 0 -124 35 -124 105v17c0 70 41 105 124 105h137c6 0 9 3 9 8v119c0 5 -3 8 -9 8h-345c-6 0 -9 3 -9 8v9c0 5 3 8 9 8zM457 353v-25c0 -6 -3 -9 -8 -9h-20c-5 0 -8 3 -8 9v25
c0 6 3 9 8 9h20c5 0 8 -3 8 -9zM238 -52h10c5 0 10 -3 14 -9l89 -128c1 -3 2 -5 2 -6c0 -5 -3 -7 -8 -7h-13c-5 0 -10 3 -14 9l-86 128c-1 3 -2 5 -2 6c0 5 3 7 8 7z" />
    <glyph glyph-name="uni091A094D" horiz-adv-x="324" 
d="M322 112h-79c-81 0 -134 50 -134 133v51c0 48 16 82 47 101v4h-125c-6 0 -9 3 -9 8v12c0 5 3 8 9 8h275c6 0 9 -3 9 -8v-12c0 -5 -3 -8 -9 -8h-68c-64 0 -99 -39 -99 -106v-49c0 -68 37 -106 104 -106h79c21 0 38 3 51 10c27 13 50 41 55 41c11 0 19 -14 6 -27
c-33 -35 -71 -52 -112 -52zM429 598h-430c-6 0 -9 3 -9 8v9c0 5 3 8 9 8h430c6 0 9 -3 9 -8v-9c0 -5 -3 -8 -9 -8z" />
    <glyph glyph-name="uni091B094D" horiz-adv-x="588" 
d="M-1 623h590c6 0 9 -3 9 -8v-9c0 -5 -3 -8 -9 -8h-387c-63 0 -89 -31 -89 -99v-59c0 -64 31 -96 94 -96h44c6 0 9 -3 9 -8v-12c0 -5 -3 -8 -9 -8h-44c-63 0 -94 -32 -94 -96v-49c0 -68 27 -99 94 -99h167c67 0 104 41 104 109v183c0 68 -27 99 -94 99h-39c-6 0 -9 3 -9 8
v9c0 5 3 8 9 8h39c83 0 124 -41 124 -123v-185c0 -83 -53 -136 -134 -136h-167c-83 0 -124 42 -124 126v51c0 57 22 93 65 108v4c-43 16 -65 51 -65 106v61c0 48 13 79 39 94v4h-123c-6 0 -9 3 -9 8v9c0 5 3 8 9 8z" />
    <glyph glyph-name="uni091C094D" horiz-adv-x="306" 
d="M411 387h-181v-4c29 -16 43 -49 43 -98v-79c0 -89 -48 -130 -125 -130h-108c-6 0 -9 3 -9 8v12c0 5 3 8 9 8h109c63 0 94 34 94 102v79c0 68 -31 102 -94 102h-67c-6 0 -9 3 -9 8v12c0 5 3 8 9 8h329c6 0 9 -3 9 -8v-12c0 -5 -3 -8 -9 -8zM411 598h-412c-6 0 -9 3 -9 8v9
c0 5 3 8 9 8h412c6 0 9 -3 9 -8v-9c0 -5 -3 -8 -9 -8z" />
    <glyph glyph-name="uni091D094D" horiz-adv-x="440" 
d="M541 278h-192c20 -13 30 -39 30 -76v-37c0 -71 -41 -106 -124 -106h-58c-45 0 -75 12 -90 36h-4v-120c0 -6 -3 -9 -8 -9h-12c-5 0 -8 3 -8 9v231c0 6 3 9 8 9h12c5 0 8 -3 8 -9v-30c0 -59 31 -89 94 -89h58c68 0 94 22 94 79v35c0 55 -24 77 -84 77h-61
c-83 0 -124 35 -124 105v5c0 70 41 105 124 105h106c6 0 9 3 9 8v89c0 5 -3 8 -9 8h-311c-6 0 -9 3 -9 8v9c0 5 3 8 9 8h542c6 0 9 -3 9 -8v-9c0 -5 -3 -8 -9 -8h-183c-6 0 -9 -3 -9 -8v-107c0 -12 -5 -18 -16 -18h-129c-68 0 -94 -20 -94 -77v-5c0 -57 26 -77 94 -77h337
c6 0 9 -3 9 -8v-12c0 -5 -3 -8 -9 -8z" />
    <glyph glyph-name="uni091E094D" horiz-adv-x="370" 
d="M290 343v-30c0 -5 3 -8 9 -8h171c6 0 9 -3 9 -8v-12c0 -5 -3 -8 -9 -8h-171c-6 0 -9 -3 -9 -8v-40c0 -89 -48 -130 -125 -130h-108c-6 0 -9 3 -9 8v12c0 5 3 8 9 8h109c63 0 94 34 94 102v114c0 68 -31 102 -94 102h-94c-6 0 -9 3 -9 8v12c0 5 3 8 9 8h93
c77 0 125 -41 125 -130zM470 598h-471c-6 0 -9 3 -9 8v9c0 5 3 8 9 8h471c6 0 9 -3 9 -8v-9c0 -5 -3 -8 -9 -8z" />
    <glyph glyph-name="uni091F094D" horiz-adv-x="490" 
d="M209 440h127c6 0 9 3 9 8v142c0 5 -3 8 -9 8h-337c-6 0 -9 3 -9 8v9c0 5 3 8 9 8h492c6 0 9 -3 9 -8v-9c0 -5 -3 -8 -9 -8h-107c-6 0 -9 -3 -9 -8v-160c0 -12 -5 -18 -16 -18h-150c-67 0 -104 -41 -104 -109v-125c0 -68 37 -109 104 -109h90c67 0 104 41 104 109v49
c0 6 3 9 8 9h14c5 0 8 -3 8 -9v-50c0 -83 -53 -136 -134 -136h-90c-81 0 -134 53 -134 136v127c0 83 53 136 134 136zM248 -32h10c5 0 10 -3 14 -9l89 -128c1 -3 2 -5 2 -6c0 -5 -3 -7 -8 -7h-13c-5 0 -10 3 -14 9l-86 128c-1 3 -2 5 -2 6c0 5 3 7 8 7z" />
    <glyph glyph-name="uni0920094D" horiz-adv-x="516" 
d="M298 412h-90c-67 0 -104 -41 -104 -109v-125c0 -68 37 -109 104 -109h90c67 0 104 41 104 109v125c0 68 -37 109 -104 109zM517 598h-119c-6 0 -9 -3 -9 -8v-68c0 -51 -12 -74 -41 -91v-4c51 -13 84 -62 84 -123v-127c0 -83 -53 -136 -134 -136h-90
c-81 0 -134 53 -134 136v127c0 83 53 136 134 136h74c52 0 77 18 77 82v68c0 5 -3 8 -9 8h-351c-6 0 -9 3 -9 8v9c0 5 3 8 9 8h518c6 0 9 -3 9 -8v-9c0 -5 -3 -8 -9 -8zM238 -32h10c5 0 10 -3 14 -9l89 -128c1 -3 2 -5 2 -6c0 -5 -3 -7 -8 -7h-13c-5 0 -10 3 -14 9l-86 128
c-1 3 -2 5 -2 6c0 5 3 7 8 7z" />
    <glyph glyph-name="uni0921094D" horiz-adv-x="480" 
d="M-1 623h482c6 0 9 -3 9 -8v-9c0 -5 -3 -8 -9 -8h-90c-6 0 -9 -3 -9 -8v-137c0 -12 -5 -18 -16 -18h-159c-68 0 -94 -21 -94 -78v-20c0 -57 26 -78 94 -78h78c85 0 127 -35 127 -104v-49c0 -71 -49 -106 -126 -106h-92c-77 0 -116 39 -116 116v10c0 6 3 9 8 9h14
c5 0 8 -3 8 -9v-9c0 -65 27 -89 86 -89h92c64 0 96 23 96 79v47c0 57 -29 77 -97 77h-78c-83 0 -124 35 -124 105v22c0 70 41 105 124 105h137c6 0 9 3 9 8v119c0 5 -3 8 -9 8h-345c-6 0 -9 3 -9 8v9c0 5 3 8 9 8zM247 -52h10c5 0 10 -3 14 -9l89 -128c1 -3 2 -5 2 -6
c0 -5 -3 -7 -8 -7h-13c-5 0 -10 3 -14 9l-86 128c-1 3 -2 5 -2 6c0 5 3 7 8 7z" />
    <glyph glyph-name="uni0922094D" horiz-adv-x="485" 
d="M309 41h-100c-81 0 -134 53 -134 136v127c0 83 53 136 134 136h127c6 0 9 3 9 8v142c0 5 -3 8 -9 8h-337c-6 0 -9 3 -9 8v9c0 5 3 8 9 8h487c6 0 9 -3 9 -8v-9c0 -5 -3 -8 -9 -8h-102c-6 0 -9 -3 -9 -8v-160c0 -12 -5 -18 -16 -18h-150c-67 0 -104 -41 -104 -109v-125
c0 -68 37 -109 104 -109h100c67 0 94 31 94 99v14c0 63 -13 85 -64 85s-64 -21 -64 -84v-14c0 -6 -3 -9 -8 -9h-14c-5 0 -8 3 -8 9v14c0 77 26 112 93 112c68 0 95 -34 95 -113v-15c0 -84 -41 -126 -124 -126zM241 -32h10c5 0 10 -3 14 -9l89 -128c1 -3 2 -5 2 -6
c0 -5 -3 -7 -8 -7h-13c-5 0 -10 3 -14 9l-86 128c-1 3 -2 5 -2 6c0 5 3 7 8 7z" />
    <glyph glyph-name="uni0923094D" horiz-adv-x="460" 
d="M326 598h-197c-6 0 -9 -3 -9 -8v-272c0 -68 31 -102 94 -102h27c63 0 94 34 94 102v272c0 5 -3 8 -9 8zM461 598h-90c-4 -1 -6 -3 -6 -8v-272c0 -89 -48 -130 -125 -130h-25c-77 0 -125 41 -125 130v272c0 5 -3 8 -9 8h-82c-6 0 -9 3 -9 8v9c0 5 3 8 9 8h462
c6 0 9 -3 9 -8v-9c0 -5 -3 -8 -9 -8z" />
    <glyph glyph-name="uni0924094D" horiz-adv-x="261" 
d="M362 391h-166c-63 0 -94 -34 -94 -102v-159c0 -73 44 -102 104 -102h15c6 0 9 -3 9 -8v-12c0 -5 -3 -8 -9 -8h-14c-79 0 -135 42 -135 130v159c0 89 48 130 125 130h165c6 0 9 -3 9 -8v-12c0 -5 -3 -8 -9 -8zM362 598h-363c-6 0 -9 3 -9 8v9c0 5 3 8 9 8h363
c6 0 9 -3 9 -8v-9c0 -5 -3 -8 -9 -8z" />
    <glyph glyph-name="uni0925094D" horiz-adv-x="355" 
d="M209 140h138c35 0 68 16 100 48c14 20 38 -4 18 -19c-37 -38 -76 -57 -118 -57h-138c-87 0 -144 55 -144 143v95c0 5 3 8 9 8h121c63 0 94 34 94 102v50c0 57 -28 85 -84 85s-84 -28 -84 -84v-44c0 -6 -3 -9 -8 -9h-14c-5 0 -8 3 -8 9v44c0 75 42 112 113 112
c72 0 115 -38 115 -113v-50c0 -89 -48 -130 -125 -130h-99v-74c0 -73 42 -116 114 -116z" />
    <glyph glyph-name="uni0926094D" horiz-adv-x="490" 
d="M209 463h144c6 0 9 3 9 8v119c0 5 -3 8 -9 8h-354c-6 0 -9 3 -9 8v9c0 5 3 8 9 8h492c6 0 9 -3 9 -8v-9c0 -5 -3 -8 -9 -8h-91c-6 0 -9 -3 -9 -8v-137c0 -12 -5 -18 -16 -18h-166c-67 0 -104 -41 -104 -109v-96c0 -68 37 -109 104 -109h78c63 0 94 30 94 89v30
c0 6 3 9 8 9h12c5 0 8 -3 8 -9v-231c0 -6 -3 -9 -8 -9h-12c-5 0 -8 3 -8 9v120h-4c-15 -24 -45 -36 -90 -36h-78c-81 0 -134 53 -134 136v98c0 83 53 136 134 136zM238 8h10c5 0 10 -3 14 -9l89 -128c1 -3 2 -5 2 -6c0 -5 -3 -7 -8 -7h-13c-5 0 -10 3 -14 9l-86 128
c-1 3 -2 5 -2 6c0 5 3 7 8 7z" />
    <glyph glyph-name="uni0927094D" horiz-adv-x="327" 
d="M329 623h110c6 0 9 -3 9 -8v-9c0 -5 -3 -8 -9 -8h-110c-6 0 -9 3 -9 8v9c0 5 3 8 9 8zM213 111h117c21 0 38 3 51 10c27 13 50 41 55 41c11 0 19 -14 6 -27c-33 -35 -71 -52 -112 -52h-117c-83 0 -132 45 -132 126v44c0 57 22 93 65 108v4c-43 16 -65 51 -65 106v29
c0 48 13 79 39 94v4h-121c-6 0 -9 3 -9 8v9c0 5 3 8 9 8h240c6 0 9 -3 9 -8v-9c0 -5 -3 -8 -9 -8h-39c-63 0 -89 -31 -89 -99v-27c0 -64 31 -96 94 -96h62c6 0 9 -3 9 -8v-12c0 -5 -3 -8 -9 -8h-62c-63 0 -94 -32 -94 -96v-42c0 -66 34 -99 102 -99z" />
    <glyph glyph-name="uni0928094D" horiz-adv-x="227" 
d="M-1 623h326c6 0 9 -3 9 -8v-9c0 -5 -3 -8 -9 -8h-326c-6 0 -9 3 -9 8v9c0 5 3 8 9 8zM325 341h-194c-41 0 -61 -27 -61 -60c0 -17 2 -33 7 -49c11 -31 10 -33 1 -33h-13c-5 0 -9 3 -11 9c-30 80 -15 158 76 160h195c6 0 9 -3 9 -8v-11c0 -5 -3 -8 -9 -8z" />
    <glyph glyph-name="uni092A094D" horiz-adv-x="270" 
d="M270 184h-46c-81 0 -134 50 -134 133v273c0 5 -2 7 -7 8h-84c-6 0 -9 3 -9 8v9c0 5 3 8 9 8h392c6 0 9 -3 9 -8v-9c0 -5 -3 -8 -9 -8h-262c-6 0 -9 -3 -9 -8v-272c0 -68 37 -106 104 -106h46c61 -6 97 52 108 53c11 0 19 -14 6 -27c-35 -36 -73 -54 -114 -54z" />
    <glyph glyph-name="uni092B094D" horiz-adv-x="528" 
d="M224 220h33c65 0 104 37 104 101v269c0 5 -3 8 -9 8h-223c-6 0 -9 -3 -9 -8v-264c0 -68 37 -106 104 -106zM533 458h-39c-67 0 -104 -36 -104 -101v-348c0 -6 -3 -9 -8 -9h-13c-5 0 -8 3 -8 9v231h-4c-17 -32 -50 -48 -100 -48h-33c-81 0 -134 50 -134 133v265
c0 5 -2 7 -7 8h-84c-6 0 -9 3 -9 8v9c0 5 3 8 9 8h649c6 0 9 -3 9 -8v-9c0 -5 -3 -8 -9 -8h-249c-6 0 -9 -3 -9 -8v-153h4c14 33 47 49 100 49h39c58 0 97 -20 117 -61c7 -13 7 -18 0 -21c-15 -9 -17 -11 -25 5c-16 33 -47 49 -92 49z" />
    <glyph glyph-name="uni092C094D" horiz-adv-x="260" 
d="M368 262h14c5 0 8 -3 8 -9v-28c0 -83 -53 -133 -134 -133h-52c-81 0 -134 50 -134 133v134c0 83 53 133 134 133h58c6 0 9 -3 9 -8v-12c0 -5 -3 -8 -9 -8h-58c-33 0 -59 -9 -77 -27l230 -243c2 10 3 21 3 32v27c0 6 3 9 8 9zM204 120h52c43 0 73 15 90 45l-235 248
c-7 -16 -11 -34 -11 -55v-132c0 -68 37 -106 104 -106zM379 615v-9c0 -5 -3 -8 -9 -8h-371c-6 0 -9 3 -9 8v9c0 5 3 8 9 8h371c6 0 9 -3 9 -8z" />
    <glyph glyph-name="uni092D094D" horiz-adv-x="257" 
d="M352 598h-94c-6 0 -9 3 -9 8v9c0 5 3 8 9 8h94c6 0 9 -3 9 -8v-9c0 -5 -3 -8 -9 -8zM352 312h-228c-6 0 -9 -3 -9 -8v-111c0 -6 -3 -9 -8 -9h-14c-5 0 -8 3 -8 9v326c0 53 -26 79 -79 79h-7c-6 0 -9 3 -9 8v9c0 5 3 8 9 8h7c69 0 109 -37 109 -104v-171c0 -6 3 -9 8 -9
h229c6 0 9 -3 9 -8v-11c0 -5 -3 -8 -9 -8z" />
    <glyph glyph-name="uni092E094D" horiz-adv-x="257" 
d="M352 312h-228c-6 0 -9 -3 -9 -8v-111c0 -6 -3 -9 -8 -9h-14c-5 0 -8 3 -8 9v397c0 5 -3 8 -9 8h-77c-6 0 -9 3 -9 8v9c0 5 3 8 9 8h353c6 0 9 -3 9 -8v-9c0 -5 -3 -8 -9 -8h-228c-6 0 -9 -3 -9 -8v-242c0 -6 3 -9 8 -9h229c6 0 9 -3 9 -8v-11c0 -5 -3 -8 -9 -8z" />
    <glyph glyph-name="uni092F094D" horiz-adv-x="322" 
d="M219 140h96c35 0 68 16 100 48c14 20 38 -4 18 -19c-37 -38 -76 -57 -118 -57h-96c-87 0 -144 55 -144 143v131c0 5 3 8 9 8h46c67 0 94 25 94 98v11c0 67 -26 95 -94 95h-131c-6 0 -9 3 -9 8v9c0 5 3 8 9 8h408c6 0 9 -3 9 -8v-9c0 -5 -3 -8 -9 -8h-189v-4
c24 -15 36 -45 36 -90v-12c0 -84 -42 -126 -125 -126h-24v-110c0 -73 42 -116 114 -116z" />
    <glyph glyph-name="uni0930094D" horiz-adv-x="337" 
d="M218 428v162c0 5 -3 8 -9 8h-210c-6 0 -9 3 -9 8v9c0 5 3 8 9 8h339c6 0 9 -3 9 -8v-9c0 -5 -3 -8 -9 -8h-81c-6 0 -9 -3 -9 -8v-162c0 -89 -48 -131 -124 -131h-51l191 -284c1 -3 2 -5 2 -6c0 -5 -3 -7 -8 -7h-12c-5 0 -10 3 -14 9l-180 266l-17 21v21c0 5 3 8 9 8h81
c62 0 93 34 93 103zM148 -42h10c5 0 10 -3 14 -9l89 -128c1 -3 2 -5 2 -6c0 -5 -3 -7 -8 -7h-13c-5 0 -10 3 -14 9l-86 128c-1 3 -2 5 -2 6c0 5 3 7 8 7z" />
    <glyph glyph-name="uni0932094D" horiz-adv-x="435" 
d="M452 443c74 3 108 -46 112 -56c-5 -6 -8 -28 -32 0c-19 19 -45 28 -80 28c-69 0 -104 -28 -104 -105v-96c0 -6 -3 -9 -8 -9h-14c-5 0 -8 3 -8 9v96c0 75 -35 105 -104 105s-104 -30 -104 -106v-134c0 -76 35 -106 104 -106h59c6 0 9 -3 9 -8v-12c0 -5 -3 -8 -9 -8h-59
c-84 0 -134 44 -134 133v136c0 89 50 133 134 133c63 0 102 -23 117 -70h4c15 47 54 70 117 70zM560 598h-561c-6 0 -9 3 -9 8v9c0 5 3 8 9 8h561c6 0 9 -3 9 -8v-9c0 -5 -3 -8 -9 -8z" />
    <glyph glyph-name="uni0933094D" horiz-adv-x="680" 
d="M-1 623h682c6 0 9 -3 9 -8v-9c0 -5 -3 -8 -9 -8h-682c-6 0 -9 3 -9 8v9c0 5 3 8 9 8zM454 443h7c83 0 134 -48 134 -129v-145c0 -81 -51 -128 -134 -128h-7c-61 0 -101 23 -119 70c-18 -47 -58 -70 -119 -70h-7c-83 0 -134 47 -134 128v145c0 81 51 129 134 129h7
c61 0 100 -24 119 -71c19 47 58 71 119 71zM320 170v144c0 67 -35 101 -104 101h-7c-69 0 -104 -34 -104 -101v-144c0 -67 35 -101 104 -101h7c69 0 104 34 104 101zM565 170v144c0 67 -35 101 -104 101h-7c-69 0 -104 -34 -104 -101v-144c0 -67 35 -101 104 -101h7
c69 0 104 34 104 101z" />
    <glyph glyph-name="uni0935094D" horiz-adv-x="248" 
d="M360 226v27c0 6 3 9 8 9h14c5 0 8 -3 8 -9v-28c0 -83 -53 -133 -134 -133h-52c-81 0 -134 50 -134 133v134c0 83 53 133 134 133h58c6 0 9 -3 9 -8v-12c0 -5 -3 -8 -9 -8h-58c-67 0 -104 -38 -104 -106v-132c0 -68 37 -106 104 -106h52c67 0 104 38 104 106zM370 598
h-371c-6 0 -9 3 -9 8v9c0 5 3 8 9 8h371c6 0 9 -3 9 -8v-9c0 -5 -3 -8 -9 -8z" />
    <glyph glyph-name="uni0936094D" horiz-adv-x="370" 
d="M262 6c0 -4 -3 -6 -8 -6h-13c-5 0 -10 3 -14 9l-170 251l-17 21v21c0 5 3 8 9 8h150c62 0 93 34 93 103v89c0 68 -26 93 -94 93s-94 -25 -94 -93v-51c0 -6 -3 -9 -8 -9h-14c-5 0 -8 3 -8 9v52c0 80 41 120 124 120s124 -40 124 -120v-90c0 -89 -48 -131 -124 -131h-121
l182 -269c2 -3 3 -5 3 -7z" />
    <glyph glyph-name="uni0937094D" horiz-adv-x="279" 
d="M402 263c-43 -53 -87 -79 -132 -79h-46c-81 0 -134 50 -134 133v273c0 5 -2 7 -7 8h-84c-6 0 -9 3 -9 8v9c0 5 3 8 9 8h396c6 0 9 -3 9 -8v-9c0 -5 -3 -8 -9 -8h-277l269 -311c8 9 34 -6 15 -24zM224 212h46c35 0 67 18 98 53l-248 287v-234c0 -68 37 -106 104 -106z" />
    <glyph glyph-name="uni0938094D" horiz-adv-x="332" 
d="M179 325v-4h266c6 0 9 -3 9 -8v-12c0 -5 -3 -8 -9 -8h-373l162 -275c3 -7 5 -11 5 -12c0 -4 -3 -6 -8 -6h-14c-5 0 -10 3 -14 9l-139 240l-29 44v20c0 5 3 8 9 8h56c53 0 91 32 91 103v166c0 5 -3 8 -9 8h-183c-6 0 -9 3 -9 8v9c0 5 3 8 9 8h446c6 0 9 -3 9 -8v-9
c0 -5 -3 -8 -9 -8h-215c-6 0 -9 -3 -9 -8v-166c0 -51 -14 -84 -42 -99z" />
    <glyph glyph-name="uni0939094D" horiz-adv-x="458" 
d="M87 357c0 77 41 116 124 116h138c6 0 9 3 9 8v109c0 5 -3 8 -9 8h-350c-6 0 -9 3 -9 8v9c0 5 3 8 9 8h488c6 0 9 -3 9 -8v-9c0 -5 -3 -8 -9 -8h-90c-6 0 -9 -3 -9 -8v-127c0 -12 -5 -18 -16 -18h-161c-65 0 -94 -25 -94 -88s27 -88 94 -88h347c6 0 9 -3 9 -8v-12
c0 -5 -3 -8 -9 -8h-347c-63 0 -99 -41 -99 -109v-35c0 -68 37 -109 104 -109h169c6 0 9 -3 9 -8v-12c0 -5 -3 -8 -9 -8h-169c-81 0 -134 53 -134 136v37c0 59 23 98 68 117v4c-42 15 -63 49 -63 103z" />
    <glyph glyph-name="uni0915093C094D" horiz-adv-x="518" 
d="M155 -1v-25c0 -6 -3 -9 -8 -9h-20c-5 0 -8 3 -8 9v25c0 6 3 9 8 9h20c5 0 8 -3 8 -9zM520 458h-39c-67 0 -104 -36 -104 -101v-348c0 -6 -3 -9 -8 -9h-14c-5 0 -8 3 -8 9v136h-4c-17 -32 -50 -48 -100 -48h-39c-81 0 -134 50 -134 133v123c0 83 53 133 134 133h53
c6 0 9 -3 9 -8v-12c0 -5 -3 -8 -9 -8h-53c-67 0 -104 -38 -104 -106v-121c0 -68 37 -106 104 -106h39c65 0 104 37 104 101v364c0 5 -3 8 -9 8h-339c-6 0 -9 3 -9 8v9c0 5 3 8 9 8h636c6 0 9 -3 9 -8v-9c0 -5 -3 -8 -9 -8h-249c-6 0 -9 -3 -9 -8v-153h4c14 33 47 49 100 49
h39c58 0 97 -20 117 -61c7 -13 7 -18 0 -21c-15 -9 -17 -11 -25 5c-16 33 -47 49 -92 49z" />
    <glyph glyph-name="uni0916093C094D" horiz-adv-x="453" 
d="M121 -4v-25c0 -6 -3 -9 -8 -9h-20c-5 0 -8 3 -8 9v25c0 6 3 9 8 9h20c5 0 8 -3 8 -9zM454 149h-4c-81 0 -128 50 -128 133v42c0 83 47 133 128 133h18c6 0 9 -3 9 -8v-12c0 -5 -3 -8 -9 -8h-18c-65 0 -98 -35 -98 -106v-40c0 -71 33 -106 98 -106h4c21 0 38 3 51 10
c27 13 50 41 55 41c11 0 19 -14 6 -27c-33 -35 -71 -52 -112 -52zM-1 623h560c6 0 9 -3 9 -8v-9c0 -5 -3 -8 -9 -8h-302c-6 0 -9 -3 -9 -8v-162c0 -89 -48 -131 -124 -131h-50l192 -281c3 -4 4 -7 4 -9c0 -5 -3 -7 -8 -7h-13c-5 0 -10 3 -15 10l-182 265l-17 21v21
c0 5 3 8 9 8h81c62 0 93 34 93 103v162c0 5 -3 8 -9 8h-210c-6 0 -9 3 -9 8v9c0 5 3 8 9 8z" />
    </font>
</defs>
</svg>
