<?xml version="1.0" standalone="no"?>
<!DOCTYPE svg PUBLIC "-//W3C//DTD SVG 1.1//EN" "http://www.w3.org/Graphics/SVG/1.1/DTD/svg11.dtd" >
<svg xmlns="http://www.w3.org/2000/svg" xmlns:xlink="http://www.w3.org/1999/xlink" version="1.1">
<metadata>
Created by FontForge 20201107 at Fri May 12 16:46:37 2017
 By Jimmy Wärting
Copyright (c) 2014 Indian Type Foundry (info@indiantypefoundry.com)
</metadata>
<defs>
<font id="SVN-RajdhaniMedium" horiz-adv-x="233" >
  <font-face 
    font-family="SVN-Rajdhani Medium"
    font-weight="500"
    font-stretch="normal"
    units-per-em="1000"
    panose-1="2 0 0 0 0 0 0 0 0 0"
    ascent="800"
    descent="-200"
    x-height="510"
    cap-height="643"
    bbox="-429 -323 2022 972"
    underline-thickness="50"
    underline-position="-100"
    unicode-range="U+000D-F6C3"
  />
<missing-glyph horiz-adv-x="600" 
d="M430 536h-260v-490h260v490zM480 0h-360v582h360v-582z" />
    <glyph glyph-name=".notdef" horiz-adv-x="600" 
d="M430 536h-260v-490h260v490zM480 0h-360v582h360v-582z" />
    <glyph glyph-name="_1" horiz-adv-x="0" 
 />
    <glyph glyph-name="CR.001" horiz-adv-x="333" 
 />
    <glyph glyph-name="NULL" horiz-adv-x="0" 
 />
    <glyph glyph-name="NULL" horiz-adv-x="0" 
 />
    <glyph glyph-name="CR" unicode="&#xd;" horiz-adv-x="0" 
 />
    <glyph glyph-name="space" unicode=" " horiz-adv-x="254" 
 />
    <glyph glyph-name="exclam" unicode="!" horiz-adv-x="237" 
d="M78 513v116c0 9 5 14 14 14h53c9 0 14 -5 14 -14v-116c0 -63 -2 -125 -6 -185s-7 -94 -8 -102s-6 -12 -13 -12h-27c-9 0 -13 5 -14 15c-3 26 -6 72 -9 137s-4 114 -4 147zM157 135v-121c0 -9 -5 -14 -14 -14h-48c-9 0 -13 5 -13 15v120c0 9 4 13 13 13h48
c9 0 14 -4 14 -13z" />
    <glyph glyph-name="quotedbl" unicode="&#x22;" horiz-adv-x="337" 
d="M94 429h-8c-9 0 -14 5 -15 16l-16 184c0 9 4 14 13 14h44c9 0 13 -5 12 -14l-15 -185c-1 -10 -6 -15 -15 -15zM251 429h-9c-8 0 -13 5 -14 16l-16 184c0 9 4 14 13 14h44c9 0 13 -5 12 -14l-15 -185c-1 -10 -6 -15 -15 -15z" />
    <glyph glyph-name="numbersign" unicode="#" horiz-adv-x="675" 
d="M528 485h84c9 0 14 -5 14 -14v-33c0 -9 -5 -14 -14 -14h-100l-55 -205h93c9 0 14 -5 14 -14v-33c0 -9 -5 -14 -14 -14h-110l-38 -143c-3 -10 -8 -15 -17 -15h-34c-9 0 -13 6 -10 18l38 140h-168l-38 -143c-3 -10 -9 -15 -18 -15h-32c-11 0 -14 6 -10 18l38 140h-88
c-9 0 -14 5 -14 14v33c0 9 5 14 14 14h104l55 205h-97c-10 0 -15 5 -15 14v33c0 9 5 14 15 14h114l38 143c2 10 7 15 16 15h32c12 0 16 -6 12 -18l-38 -140h168l38 143c3 10 10 15 19 15h30c11 0 15 -6 12 -18zM228 219h167l55 205h-167z" />
    <glyph glyph-name="dollar" unicode="$" horiz-adv-x="511" 
d="M281 -98h-34c-9 0 -14 5 -14 14v84h-24c-89 0 -146 57 -146 148v28c0 9 4 14 13 14h46c9 0 13 -5 13 -14v-22c0 -60 30 -90 89 -90h63c59 0 89 31 89 92v47c0 63 -34 84 -105 87l-55 1c-96 4 -154 39 -154 150v55c0 92 56 148 147 148h24v85c0 9 5 14 14 14h34
c9 0 14 -5 14 -14v-85h7c87 0 143 -57 143 -148v-25c0 -10 -5 -15 -14 -15h-45c-9 0 -14 5 -14 15v19c0 60 -30 90 -89 90h-59c-59 0 -89 -31 -89 -94v-47c0 -60 33 -79 104 -82l62 -2c91 -4 148 -42 148 -149v-58c0 -92 -56 -148 -147 -148h-7v-84c0 -9 -5 -14 -14 -14z
" />
    <glyph glyph-name="percent" unicode="%" horiz-adv-x="724" 
d="M555 252h-19c-51 0 -66 -18 -66 -70v-65c0 -51 15 -70 66 -70h19c49 0 65 19 65 70v65c0 52 -16 70 -65 70zM527 299h35c75 0 112 -38 112 -114v-70c0 -77 -37 -115 -112 -115h-35c-75 0 -112 38 -112 115v70c0 76 37 114 112 114zM189 599h-19c-49 0 -65 -18 -65 -69
v-66c0 -52 16 -70 65 -70h19c49 0 65 19 65 70v66c0 51 -16 69 -65 69zM162 646h35c75 0 112 -38 112 -114v-70c0 -76 -37 -114 -112 -114h-35c-75 0 -112 38 -112 114v70c0 76 37 114 112 114zM242 0h-29c-11 0 -14 5 -9 16c9 25 52 127 129 306c77 180 121 282 130 306
c5 10 11 15 18 15h29c11 0 14 -6 9 -17l-258 -611c-4 -10 -10 -15 -19 -15z" />
    <glyph glyph-name="ampersand" unicode="&#x26;" horiz-adv-x="603" 
d="M218 65h66c45 0 70 20 77 60l-157 183c-48 -3 -72 -32 -72 -89v-70c0 -56 29 -84 86 -84zM284 0h-75c-92 0 -147 54 -147 146v77c0 67 35 124 104 128c-29 35 -44 74 -44 117v29c0 92 59 146 151 146h27c92 0 147 -54 147 -146v-42c0 -10 -4 -15 -13 -15h-45
c-9 0 -14 5 -14 15v41c0 57 -27 85 -80 85h-16c-55 0 -83 -28 -83 -85v-29c0 -33 15 -65 44 -98l58 -67h234c10 0 15 -5 15 -14v-37c0 -9 -5 -13 -15 -13h-180l194 -227c4 -4 3 -11 -4 -11h-58c-9 0 -17 3 -23 10l-54 63c-17 -49 -58 -73 -123 -73z" />
    <glyph glyph-name="quotesingle" unicode="'" horiz-adv-x="186" 
d="M98 445h-10c-9 0 -13 4 -14 13l-15 157c-1 9 4 13 13 13h42c9 0 14 -4 13 -13l-14 -157c-3 -9 -8 -13 -15 -13z" />
    <glyph glyph-name="parenleft" unicode="(" horiz-adv-x="290" 
d="M213 588h-3c-61 0 -96 -40 -96 -112v-411c0 -72 34 -112 97 -112h2c9 0 14 -4 14 -13v-31c0 -7 -5 -11 -14 -11h-3c-97 0 -157 60 -157 173v399c0 113 60 173 157 173h4c9 0 13 -4 13 -11v-31c0 -9 -5 -13 -14 -13z" />
    <glyph glyph-name="parenright" unicode=")" horiz-adv-x="290" 
d="M53 -91v31c0 9 4 13 13 13h3c60 0 96 40 96 112v411c0 72 -36 112 -96 112h-3c-9 0 -13 4 -13 13v31c0 7 4 11 13 11h3c97 0 158 -60 158 -173v-399c0 -113 -61 -173 -158 -173h-3c-9 0 -13 4 -13 11z" />
    <glyph glyph-name="asterisk" unicode="*" horiz-adv-x="404" 
d="M173 616v14c0 9 4 13 13 13h30c9 0 14 -4 14 -13v-14c0 -45 -9 -84 -28 -117c38 33 72 55 102 64l14 4c9 3 14 0 17 -8l9 -29c3 -9 0 -14 -9 -17l-13 -4c-43 -14 -83 -17 -120 -10c1 -1 21 -12 37 -23c26 -19 47 -41 64 -66c5 -7 4 -13 -3 -18l-25 -18
c-7 -4 -14 -3 -19 3l-7 11c-27 36 -43 73 -47 111c0 -3 -3 -14 -8 -31c-10 -34 -22 -61 -37 -81l-8 -12c-5 -7 -11 -7 -19 -2l-24 18c-7 4 -8 10 -3 19l8 10c23 32 53 58 91 79c-52 -3 -92 -1 -120 8l-14 4c-9 3 -11 9 -8 17l10 29c2 8 8 11 17 8c49 -17 87 -39 115 -66
c0 1 -11 30 -20 53c-6 19 -9 41 -9 64z" />
    <glyph glyph-name="plus" unicode="+" horiz-adv-x="535" 
d="M300 503v-151h150c10 0 15 -5 15 -15v-32c0 -9 -5 -14 -15 -14h-150v-152c0 -11 -5 -16 -15 -16h-34c-10 0 -15 5 -15 16v152h-151c-10 0 -15 5 -15 14v32c0 10 5 15 15 15h151v151c0 11 5 16 15 16h34c10 0 15 -5 15 -16z" />
    <glyph glyph-name="comma" unicode="," horiz-adv-x="194" 
d="M136 135v-79c0 -15 -5 -34 -15 -58l-40 -94c-3 -5 -7 -8 -12 -8c-7 0 -10 4 -10 13v226c0 9 4 13 13 13h51c9 0 13 -4 13 -13z" />
    <glyph glyph-name="hyphen" unicode="-" horiz-adv-x="312" 
d="M258 289h-204c-9 0 -14 5 -14 14v33c0 9 5 14 14 14h204c9 0 14 -5 14 -14v-33c0 -9 -5 -14 -14 -14z" />
    <glyph glyph-name="period" unicode="." horiz-adv-x="194" 
d="M136 135v-121c0 -9 -4 -14 -13 -14h-51c-9 0 -13 5 -13 14v121c0 9 4 13 13 13h51c9 0 13 -4 13 -13z" />
    <glyph glyph-name="slash" unicode="/" horiz-adv-x="400" 
d="M106 0h-41c-12 0 -16 5 -12 16c11 27 48 130 113 310c65 181 102 281 110 302c4 10 10 15 19 15h42c11 0 15 -6 10 -17l-222 -611c-3 -10 -10 -15 -19 -15z" />
    <glyph glyph-name="zero" unicode="0" horiz-adv-x="520" 
d="M219 64h82c56 0 84 29 84 87v341c0 58 -28 87 -84 87h-82c-55 0 -83 -29 -83 -87v-341c0 -58 28 -87 83 -87zM310 0h-100c-91 0 -147 55 -147 148v347c0 92 56 148 147 148h100c91 0 147 -56 147 -148v-347c0 -93 -56 -148 -147 -148z" />
    <glyph glyph-name="one" unicode="1" horiz-adv-x="322" 
d="M33 505v40c0 10 4 17 12 22l116 67c11 6 19 9 26 9h42c9 0 14 -5 14 -14v-615c0 -9 -5 -14 -14 -14h-45c-9 0 -14 5 -14 14v551l-119 -68c-12 -7 -18 -4 -18 8z" />
    <glyph glyph-name="two" unicode="2" horiz-adv-x="482" 
d="M57 14v90c0 45 19 81 56 110l193 152c33 25 50 57 50 94v36c0 57 -29 85 -86 85h-61c-56 0 -84 -28 -84 -85v-41c0 -10 -5 -15 -14 -15h-45c-9 0 -13 5 -13 15v42c0 92 55 146 147 146h80c92 0 147 -54 147 -146v-41c0 -52 -21 -94 -62 -127l-196 -155
c-22 -17 -33 -38 -33 -63v-46h279c9 0 14 -5 14 -14v-37c0 -9 -5 -14 -14 -14h-344c-9 0 -14 5 -14 14z" />
    <glyph glyph-name="three" unicode="3" horiz-adv-x="500" 
d="M223 354h58c57 0 85 28 85 85v57c0 57 -28 85 -85 85h-69c-56 0 -84 -28 -84 -85v-32c0 -10 -5 -15 -14 -15h-45c-9 0 -14 5 -14 15v33c0 92 56 146 148 146h87c92 0 148 -54 148 -146v-59c0 -59 -27 -98 -82 -115c55 -14 82 -52 82 -114v-63c0 -92 -56 -146 -148 -146
h-87c-92 0 -148 54 -148 146v40c0 10 5 15 14 15h45c9 0 14 -5 14 -15v-39c0 -57 28 -85 84 -85h69c57 0 85 28 85 85v61c0 57 -28 85 -85 85h-58c-9 0 -14 5 -14 14v33c0 9 5 14 14 14z" />
    <glyph glyph-name="four" unicode="4" horiz-adv-x="526" 
d="M116 191h226v393zM397 0h-42c-9 0 -13 5 -13 14v113h-278c-14 0 -21 7 -21 21v24c0 11 2 21 7 30l244 421c6 13 16 20 30 20h65c15 0 22 -7 22 -21v-431h74c9 0 14 -4 14 -13v-36c0 -10 -5 -15 -14 -15h-74v-113c0 -9 -5 -14 -14 -14z" />
    <glyph glyph-name="five" unicode="5" horiz-adv-x="489" 
d="M278 352h-74c-28 0 -46 -8 -55 -25c-9 -16 -17 -24 -26 -24h-46c-9 0 -14 5 -14 14v312c0 9 5 14 14 14h331c10 0 15 -5 15 -14v-40c0 -9 -5 -14 -15 -14h-272v-213c13 33 41 50 85 50h72c91 0 143 -51 143 -143v-121c0 -93 -55 -148 -147 -148h-82
c-92 0 -148 55 -148 148v31c0 10 5 15 14 15h45c9 0 14 -5 14 -15v-30c0 -58 28 -87 83 -87h65c57 0 85 29 85 87v111c0 63 -27 92 -87 92z" />
    <glyph glyph-name="six" unicode="6" horiz-adv-x="505" 
d="M213 64h77c56 0 84 29 84 87v88c0 58 -28 87 -84 87h-161v-175c0 -58 28 -87 84 -87zM299 0h-95c-92 0 -148 56 -148 148v347c0 92 56 148 148 148h194c9 0 14 -5 14 -14v-37c0 -9 -5 -13 -14 -13h-185c-56 0 -84 -29 -84 -87v-102h170c92 0 147 -55 147 -148v-94
c0 -93 -55 -148 -147 -148z" />
    <glyph glyph-name="seven" unicode="7" horiz-adv-x="395" 
d="M135 0h-47c-11 0 -13 6 -8 17l217 559h-266c-9 0 -14 5 -14 14v39c0 9 5 14 14 14h330c9 0 14 -5 14 -14v-42c0 -11 -3 -21 -8 -32l-209 -542c-3 -9 -11 -13 -23 -13z" />
    <glyph glyph-name="eight" unicode="8" horiz-adv-x="526" 
d="M219 64h88c56 0 84 28 84 84v60c0 57 -28 86 -84 86h-88c-56 0 -84 -29 -84 -86v-60c0 -56 28 -84 84 -84zM219 353h88c56 0 84 29 84 87v55c0 56 -28 84 -84 84h-88c-56 0 -84 -28 -84 -84v-55c0 -58 28 -87 84 -87zM316 0h-106c-92 0 -147 52 -147 143v61
c0 60 23 100 70 120c-47 18 -70 58 -70 120v56c0 92 55 143 147 143h106c92 0 147 -51 147 -143v-56c0 -61 -27 -105 -70 -120c47 -19 70 -60 70 -121v-60c0 -91 -55 -143 -147 -143z" />
    <glyph glyph-name="nine" unicode="9" horiz-adv-x="505" 
d="M209 314h161v178c0 58 -28 87 -84 87h-77c-55 0 -83 -29 -83 -87v-92c0 -57 28 -86 83 -86zM295 0h-197c-10 0 -15 5 -15 14v37c0 9 5 13 15 13h188c56 0 84 29 84 87v99h-170c-91 0 -147 55 -147 147v98c0 92 56 148 147 148h95c92 0 147 -56 147 -148v-347
c0 -93 -55 -148 -147 -148z" />
    <glyph glyph-name="colon" unicode=":" horiz-adv-x="194" 
d="M136 497v-121c0 -9 -4 -14 -13 -14h-51c-9 0 -13 5 -13 15v119c0 9 4 14 13 14h51c9 0 13 -4 13 -13zM136 135v-121c0 -9 -4 -14 -13 -14h-51c-9 0 -13 5 -13 15v120c0 9 4 13 13 13h51c9 0 13 -4 13 -13z" />
    <glyph glyph-name="semicolon" unicode=";" horiz-adv-x="194" 
d="M136 135v-79c0 -15 -5 -34 -15 -58l-40 -94c-3 -5 -7 -8 -12 -8c-7 0 -10 4 -10 13v226c0 9 4 13 13 13h51c9 0 13 -4 13 -13zM136 497v-121c0 -9 -4 -14 -13 -14h-51c-9 0 -13 5 -13 15v119c0 9 4 14 13 14h51c9 0 13 -4 13 -13z" />
    <glyph glyph-name="less" unicode="&#x3c;" horiz-adv-x="528" 
d="M462 486v-36c0 -10 -4 -16 -13 -19l-321 -107l321 -108c9 -1 13 -7 13 -18v-37c0 -11 -6 -14 -17 -10l-362 131c-11 5 -17 13 -17 24v35c0 12 6 20 17 24l362 131c11 4 17 1 17 -10z" />
    <glyph glyph-name="equal" unicode="=" horiz-adv-x="542" 
d="M88 444h365c11 0 16 -5 16 -15v-31c0 -10 -5 -15 -16 -15h-365c-10 0 -15 5 -15 15v31c0 10 5 15 15 15zM88 259h365c11 0 16 -5 16 -15v-30c0 -10 -5 -15 -16 -15h-365c-10 0 -15 5 -15 15v30c0 10 5 15 15 15z" />
    <glyph glyph-name="greater" unicode="&#x3e;" horiz-adv-x="542" 
d="M73 450v36c0 11 6 14 17 10l362 -131c11 -4 17 -12 17 -24v-35c0 -11 -6 -19 -17 -24l-362 -131c-11 -4 -17 -1 -17 10v37c0 11 4 17 13 18l321 108l-321 107c-9 3 -13 9 -13 19z" />
    <glyph glyph-name="question" unicode="?" horiz-adv-x="471" 
d="M276 135v-121c0 -9 -4 -14 -13 -14h-51c-9 0 -13 5 -13 15v120c0 9 4 13 13 13h51c9 0 13 -4 13 -13zM274 262v-34c0 -9 -5 -14 -14 -14h-42c-9 0 -14 5 -14 14v32c0 52 12 73 55 109l42 36c25 21 37 44 37 69v21c0 57 -29 85 -86 85h-34c-56 0 -84 -28 -84 -85v-36
c0 -9 -5 -14 -14 -14h-45c-9 0 -13 5 -13 14v37c0 92 55 146 147 146h52c92 0 148 -54 148 -146v-26c0 -35 -16 -65 -47 -91l-52 -44c-31 -27 -36 -40 -36 -73z" />
    <glyph glyph-name="at" unicode="@" horiz-adv-x="751" 
d="M508 -58h-181c-69 0 -129 22 -178 67s-74 105 -74 180v165c0 74 24 134 72 180s105 69 172 69h198c97 0 163 -64 163 -156v-230c0 -80 -54 -134 -134 -134h-39c-25 0 -45 15 -45 39v15h-4c-17 -35 -51 -53 -104 -53c-81 0 -135 53 -135 144v84c0 92 55 148 140 148h151
c9 0 14 -5 14 -14v-305c0 -7 5 -10 14 -10h5c59 0 88 30 88 91v221c0 72 -46 113 -118 113h-191c-57 0 -104 -19 -142 -56c-37 -37 -56 -87 -56 -149v-157c0 -62 19 -112 58 -149s87 -56 144 -56h182c9 0 14 -4 14 -13v-20c0 -9 -5 -14 -14 -14zM462 233v160
c0 7 -3 10 -10 10h-84c-56 0 -84 -29 -84 -87v-88c0 -58 28 -87 84 -87h2c60 0 92 33 92 92z" />
    <glyph glyph-name="A" unicode="A" horiz-adv-x="540" 
d="M87 0h-50c-9 0 -12 5 -9 14l187 615c3 9 9 14 19 14h72c10 0 16 -5 19 -14l187 -615c3 -9 0 -14 -9 -14h-51c-7 0 -12 5 -14 14l-47 146h-242l-47 -146c-3 -9 -8 -14 -15 -14zM272 568h-4l-103 -346h210z" />
    <glyph glyph-name="B" unicode="B" horiz-adv-x="549" 
d="M162 62h164c57 0 86 28 86 85v65c0 57 -31 85 -92 85h-158c-7 0 -10 -3 -10 -9v-216c0 -7 3 -10 10 -10zM162 358h154c59 0 88 28 88 85v53c0 57 -28 85 -85 85h-157c-7 0 -10 -3 -10 -10v-204c0 -6 3 -9 10 -9zM79 14v615c0 9 5 14 14 14h235c92 0 147 -54 147 -146v-55
c0 -59 -28 -98 -84 -115c51 -4 92 -47 92 -114v-67c0 -92 -56 -146 -148 -146h-242c-9 0 -14 5 -14 14z" />
    <glyph glyph-name="C" unicode="C" horiz-adv-x="541" 
d="M337 0h-120c-92 0 -148 55 -148 148v347c0 93 56 148 148 148h120c92 0 148 -55 148 -148v-49c0 -9 -5 -14 -14 -14h-45c-9 0 -14 5 -14 14v46c0 58 -28 87 -84 87h-103c-55 0 -83 -29 -83 -87v-341c0 -58 28 -87 83 -87h103c56 0 84 29 84 87v46c0 9 5 14 14 14h45
c9 0 14 -5 14 -14v-49c0 -93 -56 -148 -148 -148z" />
    <glyph glyph-name="D" unicode="D" horiz-adv-x="556" 
d="M162 64h168c56 0 84 29 84 87v341c0 58 -28 87 -84 87h-168c-7 0 -10 -3 -10 -9v-497c0 -6 3 -9 10 -9zM79 14v615c0 9 5 14 14 14h246c92 0 148 -56 148 -148v-347c0 -92 -56 -148 -148 -148h-246c-9 0 -14 5 -14 14z" />
    <glyph glyph-name="E" unicode="E" horiz-adv-x="480" 
d="M407 0h-314c-9 0 -14 5 -14 14v615c0 9 5 14 14 14h314c9 0 14 -5 14 -14v-36c0 -9 -5 -14 -14 -14h-245c-7 0 -10 -3 -10 -9v-202c0 -6 3 -9 10 -9h214c9 0 14 -5 14 -14v-36c0 -9 -5 -14 -14 -14h-214c-7 0 -10 -3 -10 -9v-213c0 -6 3 -9 10 -9h245c9 0 14 -5 14 -14
v-36c0 -9 -5 -14 -14 -14z" />
    <glyph glyph-name="F" unicode="F" horiz-adv-x="457" 
d="M138 0h-45c-9 0 -14 5 -14 14v615c0 9 5 14 14 14h311c9 0 14 -5 14 -14v-36c0 -9 -5 -14 -14 -14h-242c-7 0 -10 -3 -10 -9v-218c0 -6 3 -9 10 -9h214c9 0 14 -5 14 -14v-36c0 -9 -5 -14 -14 -14h-214c-7 0 -10 -3 -10 -10v-255c0 -9 -5 -14 -14 -14z" />
    <glyph glyph-name="G" unicode="G" horiz-adv-x="541" 
d="M325 0h-108c-92 0 -148 55 -148 148v347c0 93 56 148 148 148h108c92 0 147 -56 147 -148v-41c0 -10 -5 -15 -14 -15h-45c-9 0 -14 5 -14 15v38c0 58 -28 87 -83 87h-91c-55 0 -83 -29 -83 -87v-341c0 -58 28 -87 83 -87h91c55 0 83 29 83 87v112c0 7 -3 10 -9 10h-99
c-9 0 -14 4 -14 13v37c0 9 5 14 14 14h161c13 0 20 -7 20 -21v-168c0 -93 -55 -148 -147 -148z" />
    <glyph glyph-name="H" unicode="H" horiz-adv-x="572" 
d="M138 0h-45c-9 0 -14 5 -14 14v615c0 9 5 14 14 14h45c9 0 14 -5 14 -14v-263c0 -6 3 -9 10 -9h248c7 0 10 3 10 9v263c0 9 5 14 14 14h45c9 0 14 -5 14 -14v-615c0 -9 -5 -14 -14 -14h-45c-9 0 -14 5 -14 14v270c0 6 -3 9 -10 9h-248c-7 0 -10 -3 -10 -9v-270
c0 -9 -5 -14 -14 -14z" />
    <glyph glyph-name="I" unicode="I" horiz-adv-x="241" 
d="M157 629v-615c0 -9 -5 -14 -14 -14h-45c-9 0 -14 5 -14 14v615c0 9 5 14 14 14h45c9 0 14 -5 14 -14z" />
    <glyph glyph-name="J" unicode="J" horiz-adv-x="505" 
d="M373 643h45c9 0 13 -4 13 -13v-482c0 -93 -56 -148 -147 -148h-100c-92 0 -148 56 -148 148v86c0 9 5 14 14 14h45c9 0 14 -5 14 -14v-83c0 -58 28 -87 84 -87h82c56 0 84 29 84 87v478c0 9 5 14 14 14z" />
    <glyph glyph-name="K" unicode="K" horiz-adv-x="538" 
d="M138 0h-45c-9 0 -14 5 -14 14v615c0 9 5 14 14 14h45c9 0 14 -5 14 -14v-345h3c5 14 12 28 22 41l224 304c6 9 15 14 26 14h54c11 0 13 -5 5 -15l-198 -268l226 -344c7 -11 4 -16 -9 -16h-41c-14 0 -24 5 -29 14l-192 293l-91 -109v-184c0 -9 -5 -14 -14 -14z" />
    <glyph glyph-name="L" unicode="L" horiz-adv-x="451" 
d="M414 0h-321c-9 0 -14 5 -14 14v615c0 9 5 14 14 14h45c9 0 14 -5 14 -14v-554c0 -6 3 -9 10 -9h252c9 0 14 -5 14 -15v-37c0 -9 -5 -14 -14 -14z" />
    <glyph glyph-name="M" unicode="M" horiz-adv-x="705" 
d="M531 643h81c9 0 14 -5 14 -14v-615c0 -9 -5 -14 -14 -14h-44c-9 0 -14 5 -14 14v531h-4l-155 -392c-4 -9 -10 -13 -18 -13h-48c-9 0 -14 4 -17 13l-158 393h-4v-532c0 -9 -4 -14 -13 -14h-44c-9 0 -14 5 -14 14v615c0 9 5 14 14 14h81c6 0 10 -3 12 -8l164 -414h5
l164 414c1 5 5 8 12 8z" />
    <glyph glyph-name="N" unicode="N" horiz-adv-x="581" 
d="M137 0h-44c-9 0 -14 5 -14 14v615c0 9 5 14 14 14h41c8 0 13 -3 16 -8l276 -485h4v479c0 9 5 14 14 14h44c9 0 14 -5 14 -14v-615c0 -9 -5 -14 -14 -14h-37c-7 0 -14 4 -21 13l-275 480h-4v-479c0 -9 -5 -14 -14 -14z" />
    <glyph glyph-name="O" unicode="O" horiz-adv-x="553" 
d="M225 64h102c56 0 84 29 84 87v341c0 58 -28 87 -84 87h-102c-55 0 -83 -29 -83 -87v-341c0 -58 28 -87 83 -87zM336 0h-119c-92 0 -148 55 -148 148v347c0 93 56 148 148 148h119c92 0 148 -56 148 -148v-347c0 -92 -56 -148 -148 -148z" />
    <glyph glyph-name="P" unicode="P" horiz-adv-x="526" 
d="M138 0h-45c-9 0 -14 5 -14 14v615c0 9 5 14 14 14h234c92 0 147 -56 147 -148v-111c0 -93 -55 -148 -147 -148h-165c-7 0 -10 -3 -10 -9v-213c0 -9 -5 -14 -14 -14zM162 301h155c56 0 84 29 84 86v105c0 58 -28 87 -84 87h-155c-7 0 -10 -3 -10 -9v-260c0 -6 3 -9 10 -9z
" />
    <glyph glyph-name="Q" unicode="Q" horiz-adv-x="560" 
d="M229 64h102c56 0 84 29 84 87v341c0 58 -28 87 -84 87h-102c-55 0 -83 -29 -83 -87v-341c0 -58 28 -87 83 -87zM421 -133h-41c-12 0 -21 5 -26 14l-72 119h-62c-91 0 -147 55 -147 148v347c0 92 56 148 147 148h119c92 0 148 -55 148 -148v-347c0 -85 -48 -139 -128 -146
l71 -119c5 -9 0 -16 -9 -16z" />
    <glyph glyph-name="R" unicode="R" horiz-adv-x="537" 
d="M138 0h-45c-9 0 -14 5 -14 14v615c0 9 5 14 14 14h230c92 0 149 -56 149 -148v-91c0 -75 -38 -125 -102 -141v-4l116 -243c6 -11 3 -16 -10 -16h-45c-11 0 -20 5 -25 14l-112 242h-132c-7 0 -10 -3 -10 -9v-233c0 -9 -5 -14 -14 -14zM162 317h151c57 0 86 29 86 86v89
c0 58 -29 87 -86 87h-151c-7 0 -10 -3 -10 -9v-244c0 -6 3 -9 10 -9z" />
    <glyph glyph-name="S" unicode="S" horiz-adv-x="555" 
d="M72 148v32c0 9 5 14 14 14h45c9 0 14 -5 14 -14v-26c0 -60 30 -90 89 -90h88c59 0 89 31 89 92v34c0 48 -40 79 -119 94c-96 16 -222 36 -220 162v49c0 92 56 148 148 148h111c91 0 148 -56 148 -148v-25c0 -10 -4 -15 -13 -15h-46c-9 0 -13 5 -13 15v18
c0 61 -30 91 -89 91h-85c-59 0 -89 -32 -89 -95v-40c0 -34 22 -57 67 -70c99 -26 272 -26 272 -181v-45c0 -92 -57 -148 -148 -148h-115c-91 0 -148 56 -148 148z" />
    <glyph glyph-name="T" unicode="T" horiz-adv-x="427" 
d="M236 0h-45c-9 0 -14 5 -14 14v556c0 6 -3 9 -10 9h-136c-10 0 -15 5 -15 14v36c0 9 5 14 15 14h365c10 0 15 -5 15 -14v-36c0 -9 -5 -14 -15 -14h-136c-7 0 -10 -3 -10 -9v-556c0 -9 -5 -14 -14 -14z" />
    <glyph glyph-name="U" unicode="U" horiz-adv-x="554" 
d="M421 643h45c9 0 14 -4 14 -13v-482c0 -93 -55 -148 -147 -148h-111c-92 0 -148 55 -148 148v481c0 9 5 14 14 14h45c9 0 14 -5 14 -14v-478c0 -58 28 -87 83 -87h94c56 0 84 29 84 87v478c0 9 4 14 13 14z" />
    <glyph glyph-name="V" unicode="V" horiz-adv-x="506" 
d="M289 0h-71c-9 0 -14 5 -17 14l-177 614c-2 10 2 15 13 15h49c9 0 14 -5 16 -14l149 -547h4l149 547c2 9 7 14 16 14h50c10 0 14 -5 12 -15l-177 -614c-3 -9 -8 -14 -16 -14z" />
    <glyph glyph-name="W" unicode="W" horiz-adv-x="797" 
d="M249 0h-77c-9 0 -15 5 -17 14l-128 615c-2 9 2 14 13 14h54c10 0 15 -5 16 -14l101 -551h6l135 552c2 9 7 13 16 13h60c9 0 14 -4 16 -13l137 -552h6l100 550c2 10 8 15 17 15h54c11 0 15 -5 13 -15l-129 -614c-2 -9 -7 -14 -16 -14h-77c-9 0 -15 5 -17 14l-131 537h-4
l-132 -537c-2 -9 -7 -14 -16 -14z" />
    <glyph glyph-name="X" unicode="X" horiz-adv-x="514" 
d="M93 0h-52c-9 0 -13 7 -9 15l175 321l-166 292c-5 8 0 15 9 15h50c11 0 18 -5 22 -14l134 -246h4l132 246c5 9 13 14 22 14h52c9 0 13 -7 9 -15l-167 -291l174 -322c5 -8 1 -15 -8 -15h-53c-9 0 -16 4 -19 13l-143 268h-4l-142 -268c-5 -9 -11 -13 -20 -13z" />
    <glyph glyph-name="Y" unicode="Y" horiz-adv-x="500" 
d="M272 0h-45c-9 0 -14 5 -14 14v227l-190 387c-4 9 1 15 9 15h56c7 0 13 -5 17 -14l143 -303h5l142 303c3 9 8 14 16 14h57c11 0 14 -5 9 -15l-191 -387v-227c0 -9 -5 -14 -14 -14z" />
    <glyph glyph-name="Z" unicode="Z" horiz-adv-x="493" 
d="M44 14v36c0 12 2 21 6 26l310 495v4h-289c-9 0 -14 5 -14 14v40c0 9 5 14 14 14h354c9 0 14 -5 14 -14v-48c0 -11 -3 -20 -8 -28l-302 -481v-4h306c9 0 14 -4 14 -13v-40c0 -10 -5 -15 -14 -15h-377c-9 0 -14 5 -14 14z" />
    <glyph glyph-name="bracketleft" unicode="[" horiz-adv-x="297" 
d="M217 -100h-136c-9 0 -14 5 -14 14v715c0 9 5 14 14 14h136c9 0 14 -5 14 -14v-25c0 -9 -5 -14 -14 -14h-78c-7 0 -10 -3 -10 -10v-617c0 -7 3 -10 10 -10h78c9 0 14 -5 14 -14v-26c0 -9 -5 -13 -14 -13z" />
    <glyph glyph-name="backslash" unicode="\" horiz-adv-x="400" 
d="M63 643h43c8 0 14 -5 19 -15c9 -25 46 -127 111 -307c65 -179 102 -281 111 -305c4 -11 0 -16 -11 -16h-42c-8 0 -14 5 -19 15l-222 611c-4 11 -1 17 10 17z" />
    <glyph glyph-name="bracketright" unicode="]" horiz-adv-x="297" 
d="M60 -87v26c0 9 5 14 14 14h78c7 0 10 3 10 10v617c0 7 -3 10 -10 10h-78c-9 0 -14 5 -14 14v25c0 9 5 14 14 14h136c9 0 13 -5 13 -14v-715c0 -9 -4 -14 -13 -14h-136c-9 0 -14 4 -14 13z" />
    <glyph glyph-name="asciicircum" unicode="^" horiz-adv-x="479" 
d="M105 364h-40c-13 0 -16 5 -10 16l128 243c6 13 16 20 30 20h52c14 0 24 -7 30 -20l128 -243c6 -11 3 -16 -10 -16h-40c-8 0 -15 5 -20 14l-114 219l-114 -219c-5 -9 -12 -14 -20 -14z" />
    <glyph glyph-name="underscore" unicode="_" horiz-adv-x="372" 
d="M358 -103h-344c-9 0 -14 5 -14 14v18c0 9 5 14 14 14h344c9 0 14 -5 14 -14v-18c0 -9 -5 -14 -14 -14z" />
    <glyph glyph-name="grave" unicode="`" horiz-adv-x="277" 
d="M206 574h-33c-8 0 -15 3 -20 10l-87 105c-5 8 -2 14 6 14h61c9 0 16 -4 21 -13l58 -102c5 -9 3 -14 -6 -14z" />
    <glyph glyph-name="a" unicode="a" horiz-adv-x="507" 
d="M259 0h-52c-92 0 -148 55 -148 148v214c0 93 56 148 148 148h217c9 0 14 -5 14 -14v-482c0 -9 -5 -14 -14 -14h-45c-9 0 -14 5 -14 14v39h-4c-17 -35 -51 -53 -102 -53zM365 156v281c0 6 -3 9 -10 9h-140c-55 0 -83 -29 -83 -87v-208c0 -58 28 -87 83 -87h57
c60 0 93 33 93 92z" />
    <glyph glyph-name="b" unicode="b" horiz-adv-x="510" 
d="M152 64h142c57 0 85 29 85 87v214c0 58 -28 87 -85 87h-59c-60 0 -93 -34 -93 -91v-288c0 -6 3 -9 10 -9zM69 14v675c0 9 5 14 14 14h45c9 0 14 -5 14 -14v-226h4c17 35 51 53 102 53h56c91 0 147 -55 147 -147v-221c0 -93 -56 -148 -147 -148h-221c-9 0 -14 5 -14 14z
" />
    <glyph glyph-name="c" unicode="c" horiz-adv-x="399" 
d="M366 50v-37c0 -9 -5 -13 -14 -13h-145c-92 0 -148 55 -148 148v214c0 93 56 148 148 148h145c9 0 14 -5 14 -14v-37c0 -9 -5 -13 -14 -13h-137c-55 0 -83 -29 -83 -87v-208c0 -58 28 -87 83 -87h137c9 0 14 -5 14 -14z" />
    <glyph glyph-name="d" unicode="d" horiz-adv-x="510" 
d="M262 0h-59c-91 0 -144 55 -144 148v214c0 93 53 148 144 148h59c52 0 86 -18 103 -53h4v232c0 9 4 14 13 14h46c9 0 13 -5 13 -14v-675c0 -9 -4 -14 -13 -14h-46c-9 0 -13 5 -13 14v39h-4c-17 -35 -51 -53 -103 -53zM369 156v198c0 59 -33 92 -93 92h-61
c-55 0 -83 -29 -83 -87v-208c0 -58 28 -87 83 -87h61c60 0 93 33 93 92z" />
    <glyph glyph-name="e" unicode="e" horiz-adv-x="492" 
d="M419 0h-212c-92 0 -148 55 -148 148v214c0 93 56 148 148 148h84c92 0 147 -55 147 -148v-127c0 -10 -5 -15 -14 -15h-283c-7 0 -10 -3 -10 -9v-61c0 -58 28 -87 84 -87h204c9 0 14 -5 14 -14v-36c0 -9 -5 -13 -14 -13zM141 273h216c7 0 10 3 10 10v77
c0 57 -28 86 -84 86h-68c-56 0 -84 -29 -84 -86v-77c0 -7 3 -10 10 -10z" />
    <glyph glyph-name="f" unicode="f" horiz-adv-x="318" 
d="M197 510h88c10 0 15 -4 15 -13v-37c0 -9 -5 -14 -15 -14h-88c-6 0 -9 -3 -9 -9v-423c0 -9 -5 -14 -15 -14h-44c-9 0 -14 5 -14 14v423c0 6 -3 9 -10 9h-59c-9 0 -14 5 -14 14v37c0 9 5 13 14 13h59c7 0 10 3 10 9v37c0 95 48 147 137 147h34c9 0 14 -4 14 -13v-37
c0 -9 -5 -14 -14 -14h-25c-55 0 -73 -26 -73 -86v-34c0 -6 3 -9 9 -9z" />
    <glyph glyph-name="g" unicode="g" horiz-adv-x="510" 
d="M262 27h-56c-91 0 -144 55 -144 148v187c0 93 56 148 148 148h217c9 0 14 -5 14 -14v-496c0 -92 -56 -148 -148 -148h-184c-10 0 -15 5 -15 14v37c0 9 5 14 15 14h175c56 0 84 29 84 86v77h-4c-17 -35 -51 -53 -102 -53zM368 183v254c0 6 -3 9 -10 9h-139
c-56 0 -84 -29 -84 -87v-181c0 -58 28 -87 84 -87h56c60 0 93 33 93 92z" />
    <glyph glyph-name="h" unicode="h" horiz-adv-x="512" 
d="M128 0h-45c-9 0 -14 5 -14 14v675c0 9 5 14 14 14h45c9 0 14 -5 14 -14v-232h4c17 35 51 53 102 53h56c91 0 144 -55 144 -148v-348c0 -9 -5 -14 -14 -14h-45c-9 0 -14 5 -14 14v345c0 58 -28 87 -84 87h-56c-60 0 -93 -33 -93 -92v-340c0 -9 -5 -14 -14 -14z" />
    <glyph glyph-name="i" unicode="i" horiz-adv-x="221" 
d="M74 14v482c0 9 4 14 13 14h46c9 0 14 -5 14 -14v-482c0 -9 -5 -14 -14 -14h-45c-9 0 -14 5 -14 14zM74 594v54c0 7 3 11 10 11h53c7 0 10 -4 10 -11v-54c0 -8 -3 -12 -10 -12h-53c-7 0 -10 4 -10 12z" />
    <glyph glyph-name="j" unicode="j" horiz-adv-x="221" 
d="M-1 -148h-41c-9 0 -14 5 -14 14v37c0 9 5 14 14 14h23c62 0 93 31 93 94v485c0 9 5 14 14 14h45c9 0 14 -5 14 -14v-495c0 -92 -56 -149 -148 -149zM74 594v54c0 7 3 11 10 11h53c7 0 10 -4 10 -11v-54c0 -8 -3 -12 -10 -12h-53c-7 0 -10 4 -10 12z" />
    <glyph glyph-name="k" unicode="k" horiz-adv-x="443" 
d="M358 510h50c11 0 15 -7 8 -16l-147 -228v-4l162 -246c5 -9 1 -16 -10 -16h-47c-13 0 -22 5 -28 14l-154 238c-4 7 -4 14 0 21l142 224c4 9 12 13 24 13zM128 0h-45c-9 0 -14 5 -14 14v675c0 9 5 14 14 14h45c9 0 14 -5 14 -14v-675c0 -9 -5 -14 -14 -14z" />
    <glyph glyph-name="l" unicode="l" horiz-adv-x="221" 
d="M133 0h-45c-9 0 -14 5 -14 14v675c0 9 5 14 14 14h45c9 0 14 -5 14 -14v-675c0 -9 -5 -14 -14 -14z" />
    <glyph glyph-name="m" unicode="m" horiz-adv-x="777" 
d="M128 0h-45c-9 0 -14 5 -14 14v482c0 9 5 14 14 14h45c9 0 14 -5 14 -14v-39h4c19 35 54 53 106 53h37c59 0 99 -23 122 -68c21 44 72 68 123 68h35c91 0 144 -55 144 -148v-348c0 -9 -5 -14 -14 -14h-45c-9 0 -14 5 -14 14v345c0 58 -28 87 -84 87h-33
c-60 0 -94 -36 -94 -95v-337c0 -9 -5 -14 -14 -14h-45c-9 0 -14 5 -14 14v345c0 58 -28 87 -84 87h-37c-60 0 -93 -33 -93 -92v-340c0 -9 -5 -14 -14 -14z" />
    <glyph glyph-name="n" unicode="n" horiz-adv-x="512" 
d="M128 0h-45c-9 0 -14 5 -14 14v482c0 9 5 14 14 14h45c9 0 14 -5 14 -14v-39h4c17 35 51 53 102 53h56c91 0 144 -55 144 -148v-348c0 -9 -5 -14 -14 -14h-45c-9 0 -14 5 -14 14v345c0 58 -28 87 -84 87h-56c-60 0 -93 -33 -93 -92v-340c0 -9 -5 -14 -14 -14z" />
    <glyph glyph-name="o" unicode="o" horiz-adv-x="500" 
d="M293 0h-86c-92 0 -148 55 -148 148v214c0 93 56 148 148 148h86c92 0 148 -55 148 -148v-214c0 -93 -56 -148 -148 -148zM215 64h70c56 0 84 29 84 86v210c0 57 -28 86 -84 86h-70c-56 0 -84 -29 -84 -86v-210c0 -57 28 -86 84 -86z" />
    <glyph glyph-name="p" unicode="p" horiz-adv-x="510" 
d="M128 -146h-45c-9 0 -14 5 -14 14v628c0 9 5 14 14 14h45c9 0 14 -5 14 -14v-39h4c17 35 51 53 102 53h60c91 0 143 -55 143 -148v-214c0 -93 -52 -148 -143 -148h-60c-51 0 -85 18 -102 53h-4v-185c0 -9 -5 -14 -14 -14zM235 64h59c57 0 85 29 85 87v208
c0 58 -28 87 -85 87h-59c-60 0 -93 -33 -93 -92v-198c0 -59 33 -92 93 -92z" />
    <glyph glyph-name="q" unicode="q" horiz-adv-x="507" 
d="M365 159v278c0 6 -3 9 -10 9h-140c-55 0 -83 -29 -83 -87v-208c0 -58 28 -87 83 -87h55c61 0 95 36 95 95zM256 0h-49c-92 0 -148 55 -148 148v214c0 93 56 148 148 148h217c9 0 14 -5 14 -14v-628c0 -9 -5 -14 -14 -14h-45c-9 0 -14 5 -14 14v186h-4
c-19 -36 -54 -54 -105 -54z" />
    <glyph glyph-name="r" unicode="r" horiz-adv-x="323" 
d="M128 0h-45c-9 0 -14 5 -14 14v482c0 9 5 14 14 14h45c9 0 14 -5 14 -14v-40h4c13 29 53 54 104 54h39c9 0 13 -5 13 -14v-37c0 -9 -4 -14 -13 -13h-54c-60 0 -93 -38 -93 -101v-331c0 -9 -5 -14 -14 -14z" />
    <glyph glyph-name="s" unicode="s" horiz-adv-x="433" 
d="M242 0h-178c-9 0 -14 5 -14 14v35c0 9 5 13 14 13h168c52 0 78 19 78 58v19c0 35 -17 60 -51 73l-118 50c-68 28 -95 62 -95 125c0 82 45 123 135 123h164c9 0 14 -5 14 -14v-35c0 -9 -5 -13 -14 -13h-151c-48 0 -73 -23 -73 -50v-17c0 -28 19 -49 57 -64l118 -53
c69 -27 89 -67 89 -144c0 -80 -48 -120 -143 -120z" />
    <glyph glyph-name="t" unicode="t" horiz-adv-x="349" 
d="M88 446h-55c-9 0 -14 4 -14 13v37c0 9 5 14 14 14h55c7 0 10 3 10 9v86c0 9 5 14 14 14h45c9 0 13 -5 13 -14v-86c0 -6 4 -9 11 -9h106c10 0 15 -5 15 -14v-37c0 -9 -5 -13 -15 -13h-106c-7 0 -11 -3 -11 -9v-288c0 -57 29 -85 88 -85h39c10 0 15 -5 15 -14v-37
c0 -9 -5 -13 -15 -13h-48c-92 0 -151 54 -151 146v291c0 6 -3 9 -10 9z" />
    <glyph glyph-name="u" unicode="u" horiz-adv-x="512" 
d="M264 0h-56c-91 0 -144 55 -144 148v348c0 9 5 14 14 14h45c9 0 14 -5 14 -14v-345c0 -58 28 -87 83 -87h57c60 0 93 33 93 92v340c0 9 5 14 14 14h45c9 0 14 -5 14 -14v-482c0 -9 -5 -14 -14 -14h-45c-9 0 -14 5 -14 14v39h-4c-17 -35 -51 -53 -102 -53z" />
    <glyph glyph-name="v" unicode="v" horiz-adv-x="431" 
d="M30 510h47c9 0 14 -5 16 -14l120 -423h5l119 423c3 9 8 14 17 14h47c9 0 13 -5 10 -14l-144 -481c-2 -10 -8 -15 -18 -15h-68c-9 0 -15 5 -18 15l-143 481c-3 9 1 14 10 14z" />
    <glyph glyph-name="w" unicode="w" horiz-adv-x="686" 
d="M227 0h-61c-9 0 -15 5 -17 14l-128 482c-2 9 1 14 10 14h51c9 0 14 -5 16 -14l97 -408h6l103 408c2 9 7 14 16 14h46c9 0 15 -5 18 -14l100 -408h6l98 408c2 9 7 14 16 14h51c9 0 12 -5 10 -14l-128 -482c-2 -9 -8 -14 -17 -14h-62c-9 0 -14 5 -16 14l-97 398h-5
l-96 -398c-2 -9 -8 -14 -17 -14z" />
    <glyph glyph-name="x" unicode="x" horiz-adv-x="427" 
d="M89 0h-56c-11 0 -13 5 -8 14l140 246l-135 236c-5 9 -3 14 7 14h56c9 0 16 -5 21 -14l98 -189h4l93 189c5 9 12 14 21 14h55c11 0 14 -5 7 -14l-131 -235l142 -247c6 -9 4 -14 -7 -14h-58c-7 0 -14 5 -19 14l-103 197h-4l-103 -197c-4 -9 -11 -14 -20 -14z" />
    <glyph glyph-name="y" unicode="y" horiz-adv-x="463" 
d="M110 -157h-44c-9 0 -14 5 -14 14v37c0 9 5 14 14 14h25c43 0 73 12 90 36c14 19 27 47 38 83h-29c-8 0 -14 5 -17 14l-147 455c-3 9 1 14 10 14h48c9 0 14 -5 17 -14l129 -412h4l129 412c2 9 7 14 16 14h46c11 0 15 -5 12 -15l-149 -475c-33 -113 -77 -177 -178 -177z
" />
    <glyph glyph-name="z" unicode="z" horiz-adv-x="418" 
d="M33 14v19c0 12 3 22 10 31l247 378v4h-235c-9 0 -14 5 -14 15v35c0 9 5 14 14 14h307c10 0 15 -5 15 -14v-33c0 -12 -3 -21 -9 -27l-239 -368v-4h242c9 0 14 -5 14 -15v-35c0 -9 -5 -14 -14 -14h-323c-10 0 -15 5 -15 14z" />
    <glyph glyph-name="braceleft" unicode="{" horiz-adv-x="303" 
d="M227 643h5c9 0 14 -5 14 -14v-27c0 -9 -5 -14 -14 -14h-3c-49 0 -65 -27 -65 -87v-134c0 -52 -19 -84 -57 -97c38 -11 57 -43 57 -96v-134c0 -60 16 -87 65 -87h3c9 0 14 -5 14 -14v-27c0 -9 -5 -14 -14 -14h-5c-83 0 -124 49 -124 148v123c0 46 -19 69 -56 69
c-9 0 -14 5 -14 14v36c0 9 5 14 14 14c37 0 56 23 56 70v123c0 99 41 148 124 148z" />
    <glyph glyph-name="bar" unicode="|" horiz-adv-x="214" 
d="M134 629v-615c0 -9 -5 -14 -14 -14h-27c-9 0 -13 5 -13 14v615c0 9 4 14 13 14h27c9 0 14 -5 14 -14z" />
    <glyph glyph-name="braceright" unicode="}" horiz-adv-x="303" 
d="M176 495v-123c0 -47 19 -70 56 -70c9 0 14 -5 14 -14v-36c0 -9 -5 -14 -14 -14c-37 0 -56 -23 -56 -69v-123c0 -99 -41 -148 -124 -148h-5c-9 0 -14 5 -14 14v27c0 9 5 14 14 14h3c48 0 65 27 65 87v134c0 53 19 85 57 96c-38 13 -57 45 -57 97v134c0 60 -17 87 -65 87
h-3c-9 0 -14 5 -14 14v27c0 9 5 14 14 14h5c83 0 124 -49 124 -148z" />
    <glyph glyph-name="asciitilde" unicode="~" horiz-adv-x="535" 
d="M81 285c-7 0 -11 4 -11 12v30c0 10 7 18 21 25c25 10 49 15 74 15s60 -5 103 -16c43 -10 75 -15 94 -15c20 0 40 4 60 12c20 9 31 13 33 13c7 0 10 -4 10 -12v-31c0 -10 -7 -18 -21 -24c-25 -10 -50 -15 -75 -15s-60 5 -105 15c-44 10 -75 15 -93 15s-37 -4 -57 -12
s-31 -12 -33 -12z" />
    <glyph glyph-name="uni00A0" unicode="&#xa0;" horiz-adv-x="254" 
 />
    <glyph glyph-name="exclamdown" unicode="&#xa1;" horiz-adv-x="237" 
d="M143 495h-48c-9 0 -13 4 -13 13v120c0 10 4 15 13 15h48c9 0 14 -5 14 -14v-121c0 -9 -5 -13 -14 -13zM105 429h27c15 0 14 -9 18 -69c6 -90 9 -167 9 -230v-116c0 -9 -5 -14 -14 -14h-53c-9 0 -14 5 -14 14v116c0 63 2 125 6 185s6 93 7 99c1 10 5 15 14 15z" />
    <glyph glyph-name="cent" unicode="&#xa2;" horiz-adv-x="419" 
d="M276 -91h-36c-9 0 -13 5 -13 14v77h-26c-88 0 -142 57 -142 148v214c0 91 54 148 142 148h26v87c0 9 4 14 13 14h36c9 0 13 -4 13 -13v-88h71c15 0 22 -5 22 -14v-37c0 -9 -5 -13 -15 -13h-152c-55 0 -83 -29 -83 -87v-208c0 -58 28 -87 83 -87h152c10 0 15 -4 15 -13
v-37c0 -9 -5 -14 -15 -14h-78v-78c0 -9 -4 -13 -13 -13z" />
    <glyph glyph-name="sterling" unicode="&#xa3;" horiz-adv-x="536" 
d="M140 65v-4h316c9 0 13 -5 13 -14v-33c0 -9 -4 -14 -13 -14h-409c-9 0 -14 5 -14 14v33c0 9 5 14 14 14h10c25 0 47 29 47 68v137h-57c-9 0 -14 5 -14 15v33c0 9 5 13 14 13h57v170c0 92 56 146 148 146h65c92 0 147 -54 147 -146v-27c0 -9 -5 -14 -14 -14h-45
c-9 0 -14 5 -14 14v26c0 57 -28 85 -84 85h-46c-57 0 -86 -28 -86 -85v-169h147c9 0 14 -4 14 -13v-33c0 -10 -5 -15 -14 -15h-147v-128c0 -47 -18 -73 -35 -73z" />
    <glyph glyph-name="yen" unicode="&#xa5;" horiz-adv-x="512" 
d="M278 0h-45c-9 0 -14 5 -14 14v151h-165c-10 0 -15 5 -15 15v23c0 10 5 15 15 15h163v27l-31 65h-132c-10 0 -15 5 -15 14v24c0 10 5 15 15 15h106l-132 266c-4 9 -1 14 8 14h59c6 0 11 -5 15 -14l143 -309h4l144 309c4 9 9 14 16 14h58c10 0 13 -5 8 -14l-131 -266h105
c10 0 15 -5 15 -15v-24c0 -9 -5 -14 -15 -14h-131l-32 -65v-27h163c10 0 15 -5 15 -15v-23c0 -10 -5 -15 -15 -15h-165v-151c0 -9 -5 -14 -14 -14z" />
    <glyph glyph-name="brokenbar" unicode="&#xa6;" horiz-adv-x="209" 
d="M133 629v-241c0 -9 -5 -14 -14 -14h-29c-9 0 -14 5 -14 14v241c0 9 5 14 14 14h29c9 0 14 -5 14 -14zM133 255v-241c0 -9 -5 -14 -14 -14h-29c-9 0 -14 5 -14 14v241c0 9 5 14 14 14h29c9 0 14 -5 14 -14z" />
    <glyph glyph-name="section" unicode="&#xa7;" horiz-adv-x="464" 
d="M336 235v67c0 40 -21 59 -65 68l-80 15c-27 7 -48 16 -63 27v-66c0 -39 21 -63 64 -72l80 -15c28 -5 49 -13 64 -24zM258 0h-174c-9 0 -14 5 -14 14v37c0 9 5 13 14 13h170c60 0 77 28 77 69c0 43 -21 57 -72 68l-100 19c-66 13 -99 54 -99 122v173c0 77 43 128 139 128
h163c9 0 14 -5 14 -14v-37c0 -9 -5 -13 -14 -13h-161c-45 0 -68 -22 -68 -67c0 -39 16 -57 71 -68l100 -19c67 -13 100 -53 100 -119v-171c0 -90 -49 -135 -146 -135z" />
    <glyph glyph-name="dieresis" unicode="&#xa8;" horiz-adv-x="366" 
d="M63 588v101c0 9 4 14 13 14h42c9 0 14 -4 14 -13v-102c0 -9 -5 -14 -14 -14h-42c-9 0 -13 5 -13 14zM233 588v101c0 9 5 14 14 14h42c9 0 14 -4 14 -13v-102c0 -9 -5 -14 -14 -14h-42c-9 0 -14 5 -14 14z" />
    <glyph glyph-name="copyright" unicode="&#xa9;" horiz-adv-x="717" 
d="M493 402v-22c0 -7 -3 -11 -10 -11h-32c-7 0 -10 4 -10 11v16c0 57 -17 72 -76 72h-14c-59 0 -76 -15 -76 -72v-152c0 -57 17 -72 76 -72h14c59 0 76 15 76 72v19c0 7 3 11 10 11h32c7 0 10 -4 10 -11v-26c0 -75 -39 -112 -118 -112h-34c-79 0 -118 37 -118 112v165
c0 75 39 112 118 112h34c79 0 118 -37 118 -112zM211 48h295c59 0 89 30 89 90v367c0 60 -30 90 -89 90h-295c-59 0 -89 -30 -89 -90v-367c0 -60 30 -90 89 -90zM200 643h317c80 0 131 -50 131 -131v-381c0 -81 -51 -131 -131 -131h-317c-80 0 -130 50 -130 131v381
c0 80 50 131 130 131z" />
    <glyph glyph-name="guillemotleft" unicode="&#xab;" horiz-adv-x="438" 
d="M379 129v-33c0 -12 -7 -16 -16 -8l-140 128c-9 8 -14 17 -14 27v26c0 9 5 18 14 26l140 128c9 8 16 4 16 -7v-33c0 -8 -4 -15 -12 -20l-115 -107l115 -107c8 -5 12 -12 12 -20zM228 129v-33c0 -12 -6 -16 -15 -8l-140 128c-9 7 -14 16 -14 27v26c0 9 5 18 14 26l140 128
c9 8 15 4 15 -7v-33c0 -7 -4 -14 -11 -20l-115 -107l115 -107c7 -6 11 -13 11 -20z" />
    <glyph glyph-name="registered" unicode="&#xae;" horiz-adv-x="450" 
d="M240 615h-39v-60h39c11 0 16 6 16 17v28c0 10 -5 15 -16 15zM168 473v159c0 9 4 13 13 13h61c31 0 47 -15 47 -45v-29c0 -21 -8 -35 -24 -41l26 -54c5 -11 2 -16 -8 -16h-10c-6 0 -10 3 -13 9l-27 59h-32v-55c0 -9 -4 -13 -13 -13h-7c-9 0 -13 4 -13 13zM174 424h102
c47 0 71 25 71 74v108c0 49 -24 73 -71 73h-102c-48 0 -72 -24 -72 -73v-108c0 -49 24 -74 72 -74zM281 391h-113c-63 0 -102 40 -102 101v119c0 63 41 102 102 102h113c63 0 102 -39 102 -102v-119c0 -63 -39 -101 -102 -101z" />
    <glyph glyph-name="overscore" unicode="&#xaf;" horiz-adv-x="355" 
d="M278 613h-201c-9 0 -14 5 -14 14v24c0 9 5 14 14 14h201c9 0 14 -5 14 -14v-24c0 -9 -5 -14 -14 -14z" />
    <glyph glyph-name="degree" unicode="&#xb0;" horiz-adv-x="321" 
d="M184 511h-48c-33 0 -49 16 -49 49v97c0 31 16 47 49 47h48c31 0 50 -18 50 -47v-97c0 -31 -19 -49 -50 -49zM154 545h13c23 0 29 6 29 29v65c0 24 -6 29 -29 29h-13c-24 0 -29 -5 -29 -29v-65c0 -23 5 -29 29 -29z" />
    <glyph glyph-name="plusminus" unicode="&#xb1;" horiz-adv-x="535" 
d="M300 503v-97h150c10 0 15 -5 15 -15v-30c0 -10 -5 -15 -15 -15h-150v-98c0 -10 -5 -15 -15 -15h-34c-10 0 -15 5 -15 15v98h-151c-10 0 -15 5 -15 15v30c0 10 5 15 15 15h151v97c0 11 5 16 15 16h34c10 0 15 -5 15 -16zM85 183h365c10 0 15 -5 15 -14v-31
c0 -10 -5 -15 -15 -15h-365c-10 0 -15 5 -15 15v31c0 9 5 14 15 14z" />
    <glyph glyph-name="acute" unicode="&#xb4;" horiz-adv-x="277" 
d="M145 703h60c9 0 12 -6 7 -14l-88 -105c-5 -7 -12 -10 -20 -10h-32c-9 0 -11 5 -7 14l58 102c5 9 12 13 22 13z" />
    <glyph glyph-name="paragraph" unicode="&#xb6;" horiz-adv-x="522" 
d="M221 0h-35c-9 0 -13 5 -13 14v307c-76 0 -123 39 -123 120v82c0 80 45 120 134 120h241c10 0 15 -4 15 -13v-616c0 -9 -5 -14 -14 -14h-34c-9 0 -14 5 -14 14v562c0 6 -3 9 -10 9h-123c-7 0 -11 -3 -11 -9v-562c0 -9 -4 -14 -13 -14z" />
    <glyph glyph-name="middot" unicode="&#xb7;" horiz-adv-x="207" 
d="M142 379v-121c0 -9 -4 -14 -13 -14h-51c-9 0 -13 5 -13 14v120c0 9 4 14 13 14h51c9 0 13 -4 13 -13z" />
    <glyph glyph-name="cedilla" unicode="&#xb8;" horiz-adv-x="259" 
d="M120 -43v-4c51 0 76 -21 76 -64v-14c0 -42 -28 -63 -85 -63h-31c-9 0 -13 4 -13 13v14c0 9 4 13 13 13h24c37 0 50 8 50 29v2c0 24 -11 31 -50 31h-16c-24 0 -34 25 -18 44l55 62h54z" />
    <glyph glyph-name="guillemotright" unicode="&#xbb;" horiz-adv-x="438" 
d="M209 383v33c0 11 7 15 15 7l141 -128c9 -8 14 -17 14 -26v-26c0 -10 -5 -19 -14 -27l-141 -128c-8 -8 -15 -3 -15 8v33c0 8 4 15 12 20l115 107l-115 107c-8 5 -12 12 -12 20zM59 383v33c0 11 6 15 15 7l140 -128c9 -8 14 -17 14 -26v-26c0 -11 -5 -20 -14 -27l-140 -128
c-9 -8 -15 -4 -15 8v33c0 7 4 14 11 20l115 107l-115 107c-7 6 -11 13 -11 20z" />
    <glyph glyph-name="questiondown" unicode="&#xbf;" horiz-adv-x="471" 
d="M195 507v121c0 9 4 14 13 14h51c9 0 13 -5 13 -15v-120c0 -9 -4 -13 -13 -13h-51c-9 0 -13 4 -13 13zM197 380v34c0 9 4 14 13 14h43c9 0 14 -5 14 -14v-32c0 -51 -12 -73 -55 -109l-42 -36c-25 -20 -37 -43 -37 -69v-21c0 -57 28 -85 85 -85h34c56 0 84 28 84 85v36
c0 9 5 14 14 14h45c9 0 14 -5 14 -14v-37c0 -92 -56 -146 -148 -146h-52c-92 0 -147 54 -147 146v26c0 34 15 64 46 91l53 44c31 27 36 41 36 73z" />
    <glyph glyph-name="Agrave" unicode="&#xc0;" horiz-adv-x="539" 
d="M87 0h-50c-9 0 -12 5 -9 14l187 615c3 9 9 14 19 14h72c10 0 16 -5 19 -14l187 -615c3 -9 0 -14 -9 -14h-51c-7 0 -12 5 -14 14l-47 146h-242l-47 -146c-3 -9 -8 -14 -15 -14zM272 568h-4l-103 -346h210zM294 692h-32c-7 0 -13 3 -18 10l-80 100c-7 7 -2 13 5 13h53
c9 0 15 -4 20 -12l58 -98c5 -9 3 -13 -6 -13z" />
    <glyph glyph-name="Aacute" unicode="&#xc1;" horiz-adv-x="539" 
d="M87 0h-50c-9 0 -12 5 -9 14l187 615c3 9 9 14 19 14h72c10 0 16 -5 19 -14l187 -615c3 -9 0 -14 -9 -14h-51c-7 0 -12 5 -14 14l-47 146h-242l-47 -146c-3 -9 -8 -14 -15 -14zM272 568h-4l-103 -346h210zM277 692h-32c-9 0 -11 4 -6 13l58 98c5 8 11 12 20 12h53
c7 0 12 -6 5 -13l-80 -100c-5 -7 -11 -10 -18 -10z" />
    <glyph glyph-name="Acircumflex" unicode="&#xc2;" horiz-adv-x="539" 
d="M87 0h-50c-9 0 -12 5 -9 14l187 615c3 9 9 14 19 14h72c10 0 16 -5 19 -14l187 -615c3 -9 0 -14 -9 -14h-51c-7 0 -12 5 -14 14l-47 146h-242l-47 -146c-3 -9 -8 -14 -15 -14zM272 568h-4l-103 -346h210zM376 692h-46c-7 0 -12 2 -13 6l-47 72l-48 -72
c-1 -4 -6 -6 -13 -6h-46c-8 0 -9 3 -4 10l73 104c4 6 11 9 21 9h34c9 0 16 -3 20 -9l74 -104c5 -7 4 -10 -5 -10z" />
    <glyph glyph-name="Atilde" unicode="&#xc3;" horiz-adv-x="539" 
d="M87 0c7 0 12 5 15 14l47 146h242l47 -146c2 -9 7 -14 14 -14h51c9 0 12 5 9 14l-187 615c-3 9 -9 14 -19 14h-72c-10 0 -16 -5 -19 -14l-187 -615c-3 -9 0 -14 9 -14h50zM268 568h4l103 -346h-210zM387 750c0 -41 -18 -58 -59 -58c-53 0 -58 5 -73 27
c-21 34 -42 52 -39 9v-26c0 -9 -2 -9 -11 -9h-30c-8 0 -12 0 -12 9v29c0 42 17 59 59 59c39 0 56 -11 71 -38c18 -32 39 -42 39 2v24c0 7 3 9 12 9h31c9 0 12 -2 12 -9v-28z" />
    <glyph glyph-name="Adieresis" unicode="&#xc4;" horiz-adv-x="539" 
d="M150 721v101c0 9 4 14 13 14h43c8 0 12 -4 12 -13v-102c0 -9 -4 -14 -12 -14h-43c-9 0 -13 5 -13 14zM321 721v101c0 9 4 14 13 14h43c8 0 12 -4 12 -13v-102c0 -9 -4 -14 -12 -14h-43c-9 0 -13 5 -13 14zM87 0h-50c-9 0 -12 5 -9 14l187 615c3 9 9 14 19 14h72
c10 0 16 -5 19 -14l187 -615c3 -9 0 -14 -9 -14h-51c-7 0 -12 5 -14 14l-47 146h-242l-47 -146c-3 -9 -8 -14 -15 -14zM272 568h-4l-103 -346h210z" />
    <glyph glyph-name="Aring" unicode="&#xc5;" horiz-adv-x="539" 
d="M284 697h-31c-44 0 -66 23 -66 68v41c0 44 22 66 66 66h31c43 0 67 -25 67 -66v-41c0 -43 -24 -68 -67 -68zM262 730h12c27 0 40 14 40 43v23c0 29 -13 43 -39 43h-13c-27 0 -40 -14 -40 -43v-23c0 -29 13 -43 40 -43zM87 0h-50c-9 0 -12 5 -9 14l187 615c3 9 9 14 19 14
h72c10 0 16 -5 19 -14l187 -615c3 -9 0 -14 -9 -14h-51c-7 0 -12 5 -14 14l-47 146h-242l-47 -146c-3 -9 -8 -14 -15 -14zM272 568h-4l-103 -346h210z" />
    <glyph glyph-name="AE" unicode="&#xc6;" horiz-adv-x="775" 
d="M63 0h-51c-11 0 -13 5 -8 15l320 614c5 9 13 14 23 14h356c9 0 13 -5 13 -14v-36c0 -9 -4 -14 -13 -14h-245c-7 0 -11 -3 -11 -9v-202c0 -6 4 -9 11 -9h213c10 0 15 -5 15 -14v-36c0 -9 -5 -14 -15 -14h-213c-7 0 -11 -3 -11 -9v-213c0 -6 4 -9 11 -9h245
c9 0 13 -5 13 -14v-36c0 -9 -4 -14 -13 -14h-315c-9 0 -13 5 -13 14v147h-216l-78 -147c-4 -9 -10 -14 -18 -14zM189 226h186v344h-4z" />
    <glyph glyph-name="Ccedilla" unicode="&#xc7;" horiz-adv-x="541" 
d="M471 432h-45c-9 0 -14 5 -14 14v46c0 58 -28 87 -84 87h-103c-55 0 -83 -29 -83 -87v-341c0 -58 28 -87 83 -87h103c56 0 84 29 84 87v46c0 9 5 14 14 14h45c9 0 14 -5 14 -14v-49c0 -93 -56 -148 -148 -148h-14l-44 -46v-4c51 0 77 -22 77 -65v-13
c0 -43 -29 -64 -86 -64h-31c-9 0 -13 4 -13 13v14c0 9 4 13 13 13h24c39 0 51 8 51 29v3c0 24 -11 30 -51 30h-16c-24 0 -33 25 -17 44l40 46h-53c-92 0 -148 55 -148 148v347c0 93 56 148 148 148h120c92 0 148 -55 148 -148v-49c0 -9 -5 -14 -14 -14z" />
    <glyph glyph-name="Egrave" unicode="&#xc8;" horiz-adv-x="480" 
d="M407 0h-314c-9 0 -14 5 -14 14v615c0 9 5 14 14 14h314c9 0 14 -5 14 -14v-36c0 -9 -5 -14 -14 -14h-245c-7 0 -10 -3 -10 -9v-202c0 -6 3 -9 10 -9h214c9 0 14 -5 14 -14v-36c0 -9 -5 -14 -14 -14h-214c-7 0 -10 -3 -10 -9v-213c0 -6 3 -9 10 -9h245c9 0 14 -5 14 -14
v-36c0 -9 -5 -14 -14 -14zM294 692h-32c-7 0 -13 3 -18 10l-80 100c-7 7 -2 13 5 13h53c9 0 15 -4 20 -12l58 -98c5 -9 3 -13 -6 -13z" />
    <glyph glyph-name="Eacute" unicode="&#xc9;" horiz-adv-x="480" 
d="M407 0h-314c-9 0 -14 5 -14 14v615c0 9 5 14 14 14h314c9 0 14 -5 14 -14v-36c0 -9 -5 -14 -14 -14h-245c-7 0 -10 -3 -10 -9v-202c0 -6 3 -9 10 -9h214c9 0 14 -5 14 -14v-36c0 -9 -5 -14 -14 -14h-214c-7 0 -10 -3 -10 -9v-213c0 -6 3 -9 10 -9h245c9 0 14 -5 14 -14
v-36c0 -9 -5 -14 -14 -14zM258 692h-32c-9 0 -11 4 -6 13l58 98c5 8 11 12 20 12h53c7 0 12 -6 5 -13l-80 -100c-5 -7 -11 -10 -18 -10z" />
    <glyph glyph-name="Ecircumflex" unicode="&#xca;" horiz-adv-x="480" 
d="M407 0h-314c-9 0 -14 5 -14 14v615c0 9 5 14 14 14h314c9 0 14 -5 14 -14v-36c0 -9 -5 -14 -14 -14h-245c-7 0 -10 -3 -10 -9v-202c0 -6 3 -9 10 -9h214c9 0 14 -5 14 -14v-36c0 -9 -5 -14 -14 -14h-214c-7 0 -10 -3 -10 -9v-213c0 -6 3 -9 10 -9h245c9 0 14 -5 14 -14
v-36c0 -9 -5 -14 -14 -14zM356 692h-46c-7 0 -12 2 -13 6l-47 72l-48 -72c-1 -4 -6 -6 -13 -6h-46c-8 0 -9 3 -4 10l73 104c4 6 11 9 21 9h34c9 0 16 -3 20 -9l74 -104c5 -7 4 -10 -5 -10z" />
    <glyph glyph-name="Edieresis" unicode="&#xcb;" horiz-adv-x="480" 
d="M130 721v101c0 9 4 14 13 14h43c9 0 13 -4 13 -13v-102c0 -9 -4 -14 -13 -14h-43c-9 0 -13 5 -13 14zM301 721v101c0 9 4 14 13 14h43c9 0 13 -4 13 -13v-102c0 -9 -4 -14 -13 -14h-43c-9 0 -13 5 -13 14zM407 0h-314c-9 0 -14 5 -14 14v615c0 9 5 14 14 14h314
c9 0 14 -5 14 -14v-36c0 -9 -5 -14 -14 -14h-245c-7 0 -10 -3 -10 -9v-202c0 -6 3 -9 10 -9h214c9 0 14 -5 14 -14v-36c0 -9 -5 -14 -14 -14h-214c-7 0 -10 -3 -10 -9v-213c0 -6 3 -9 10 -9h245c9 0 14 -5 14 -14v-36c0 -9 -5 -14 -14 -14z" />
    <glyph glyph-name="Igrave" unicode="&#xcc;" horiz-adv-x="241" 
d="M157 629v-615c0 -9 -5 -14 -14 -14h-45c-9 0 -14 5 -14 14v615c0 9 5 14 14 14h45c9 0 14 -5 14 -14zM156 692h-32c-7 0 -13 3 -18 10l-80 100c-7 7 -2 13 5 13h53c9 0 15 -4 20 -12l58 -98c5 -9 3 -13 -6 -13z" />
    <glyph glyph-name="Iacute" unicode="&#xcd;" horiz-adv-x="241" 
d="M157 629v-615c0 -9 -5 -14 -14 -14h-45c-9 0 -14 5 -14 14v615c0 9 5 14 14 14h45c9 0 14 -5 14 -14zM117 692h-32c-9 0 -11 4 -6 13l58 98c5 8 11 12 20 12h53c7 0 12 -6 5 -13l-80 -100c-5 -7 -11 -10 -18 -10z" />
    <glyph glyph-name="Icircumflex" unicode="&#xce;" horiz-adv-x="240" 
d="M215 707h-34c-7 0 -11 3 -14 8l-47 88l-47 -88c-3 -5 -8 -8 -15 -8h-33c-9 0 -11 4 -6 12l63 107c5 7 12 10 21 10h34c9 0 15 -3 20 -10l63 -107c5 -8 3 -12 -5 -12zM157 629v-615c0 -9 -5 -14 -14 -14h-45c-9 0 -14 5 -14 14v615c0 9 5 14 14 14h45c9 0 14 -5 14 -14z
" />
    <glyph glyph-name="Idieresis" unicode="&#xcf;" horiz-adv-x="240" 
d="M0 721v101c0 9 4 14 13 14h43c9 0 13 -4 13 -13v-102c0 -9 -4 -14 -13 -14h-43c-9 0 -13 5 -13 14zM171 721v101c0 9 4 14 13 14h43c9 0 13 -4 13 -13v-102c0 -9 -4 -14 -13 -14h-43c-9 0 -13 5 -13 14zM157 629v-615c0 -9 -5 -14 -14 -14h-45c-9 0 -14 5 -14 14v615
c0 9 5 14 14 14h45c9 0 14 -5 14 -14z" />
    <glyph glyph-name="Eth" unicode="&#xd0;" horiz-adv-x="529" 
d="M168 64h168c56 0 84 29 84 87v341c0 58 -28 87 -84 87h-168c-7 0 -10 -3 -10 -9v-208c0 -6 3 -9 10 -9h126c9 0 14 -5 14 -14v-30c0 -9 -5 -13 -14 -13h-126c-7 0 -10 -3 -10 -10v-213c0 -6 3 -9 10 -9zM345 0h-246c-9 0 -14 5 -14 14v272c0 7 -3 10 -10 10h-37
c-9 0 -14 4 -14 13v30c0 9 5 14 14 14h37c7 0 10 3 10 9v267c0 9 5 14 14 14h246c92 0 148 -55 148 -148v-347c0 -93 -56 -148 -148 -148z" />
    <glyph glyph-name="Ntilde" unicode="&#xd1;" horiz-adv-x="581" 
d="M236 702c-37 0 -55 26 -55 77v39c0 7 3 10 9 10h21c6 0 9 -3 9 -10v-26c-5 -57 26 -54 41 -41c5 5 11 17 19 35c17 37 29 46 66 46s56 -26 56 -78v-39c0 -7 -3 -11 -10 -11h-21c-6 0 -9 4 -9 11v27c0 39 -6 48 -23 48s-21 -8 -29 -24c-13 -30 -24 -48 -33 -55
c-9 -6 -22 -9 -41 -9zM137 0h-44c-9 0 -14 5 -14 14v615c0 9 5 14 14 14h41c8 0 13 -3 16 -8l276 -485h4v479c0 9 5 14 14 14h44c9 0 14 -5 14 -14v-615c0 -9 -5 -14 -14 -14h-37c-7 0 -14 4 -21 13l-275 480h-4v-479c0 -9 -5 -14 -14 -14z" />
    <glyph glyph-name="Ograve" unicode="&#xd2;" horiz-adv-x="553" 
d="M225 64h102c56 0 84 29 84 87v341c0 58 -28 87 -84 87h-102c-55 0 -83 -29 -83 -87v-341c0 -58 28 -87 83 -87zM336 0h-119c-92 0 -148 55 -148 148v347c0 93 56 148 148 148h119c92 0 148 -56 148 -148v-347c0 -92 -56 -148 -148 -148zM319 692h-32c-7 0 -13 3 -18 10
l-80 100c-7 7 -2 13 5 13h53c9 0 15 -4 20 -12l58 -98c5 -9 3 -13 -6 -13z" />
    <glyph glyph-name="Oacute" unicode="&#xd3;" horiz-adv-x="553" 
d="M225 64h102c56 0 84 29 84 87v341c0 58 -28 87 -84 87h-102c-55 0 -83 -29 -83 -87v-341c0 -58 28 -87 83 -87zM336 0h-119c-92 0 -148 55 -148 148v347c0 93 56 148 148 148h119c92 0 148 -56 148 -148v-347c0 -92 -56 -148 -148 -148zM294 692h-32c-9 0 -11 4 -6 13
l58 98c5 8 11 12 20 12h53c7 0 12 -6 5 -13l-80 -100c-5 -7 -11 -10 -18 -10z" />
    <glyph glyph-name="Ocircumflex" unicode="&#xd4;" horiz-adv-x="553" 
d="M225 64h102c56 0 84 29 84 87v341c0 58 -28 87 -84 87h-102c-55 0 -83 -29 -83 -87v-341c0 -58 28 -87 83 -87zM336 0h-119c-92 0 -148 55 -148 148v347c0 93 56 148 148 148h119c92 0 148 -56 148 -148v-347c0 -92 -56 -148 -148 -148zM384 692h-46c-7 0 -12 2 -13 6
l-47 72l-48 -72c-1 -4 -6 -6 -13 -6h-46c-8 0 -9 3 -4 10l73 104c4 6 11 9 21 9h34c9 0 16 -3 20 -9l74 -104c5 -7 4 -10 -5 -10z" />
    <glyph glyph-name="Otilde" unicode="&#xd5;" horiz-adv-x="553" 
d="M225 64c-55 0 -83 29 -83 87v341c0 58 28 87 83 87h102c56 0 84 -29 84 -87v-341c0 -58 -28 -87 -84 -87h-102zM336 0c92 0 148 56 148 148v347c0 92 -56 148 -148 148h-119c-92 0 -148 -55 -148 -148v-347c0 -93 56 -148 148 -148h119zM393 750c0 -41 -18 -58 -59 -58
c-53 0 -58 5 -73 27c-21 34 -42 52 -39 9v-26c0 -9 -2 -9 -11 -9h-30c-8 0 -12 0 -12 9v29c0 42 17 59 59 59c39 0 56 -11 71 -38c18 -32 39 -42 39 2v24c0 7 3 9 12 9h31c9 0 12 -2 12 -9v-28z" />
    <glyph glyph-name="Odieresis" unicode="&#xd6;" horiz-adv-x="553" 
d="M156 721v101c0 9 4 14 13 14h43c9 0 13 -4 13 -13v-102c0 -9 -4 -14 -13 -14h-43c-9 0 -13 5 -13 14zM327 721v101c0 9 4 14 13 14h43c9 0 13 -4 13 -13v-102c0 -9 -4 -14 -13 -14h-43c-9 0 -13 5 -13 14zM225 64h102c56 0 84 29 84 87v341c0 58 -28 87 -84 87h-102
c-55 0 -83 -29 -83 -87v-341c0 -58 28 -87 83 -87zM336 0h-119c-92 0 -148 55 -148 148v347c0 93 56 148 148 148h119c92 0 148 -56 148 -148v-347c0 -92 -56 -148 -148 -148z" />
    <glyph glyph-name="multiply" unicode="&#xd7;" horiz-adv-x="501" 
d="M405 431l-110 -110l110 -110c8 -7 8 -14 0 -21l-24 -24c-7 -7 -14 -7 -22 0l-109 110l-110 -110c-7 -7 -14 -7 -21 0l-24 24c-8 7 -8 14 -1 21l110 110l-109 110c-7 7 -7 14 0 21l24 24c7 8 14 8 21 0l110 -109l109 109c8 8 15 8 22 0l24 -24c7 -7 7 -14 0 -21z" />
    <glyph glyph-name="Oslash" unicode="&#xd8;" horiz-adv-x="565" 
d="M491 495v-347c0 -93 -56 -148 -147 -148h-123c-47 0 -84 14 -111 41l-23 -32c-6 -8 -13 -9 -21 -4l-14 11c-7 5 -8 12 -2 21l34 47c-7 20 -11 41 -11 64v347c0 93 56 148 148 148h123c47 0 84 -14 110 -42l23 32c7 8 14 9 21 4l15 -10c7 -5 8 -12 2 -21l-34 -48
c7 -20 10 -41 10 -63zM146 492v-321l264 368c-13 27 -38 40 -75 40h-105c-56 0 -84 -29 -84 -87zM419 151v321l-264 -368c12 -27 37 -40 75 -40h105c56 0 84 29 84 87z" />
    <glyph glyph-name="Ugrave" unicode="&#xd9;" horiz-adv-x="554" 
d="M421 643h45c9 0 14 -4 14 -13v-482c0 -93 -55 -148 -147 -148h-111c-92 0 -148 55 -148 148v481c0 9 5 14 14 14h45c9 0 14 -5 14 -14v-478c0 -58 28 -87 83 -87h94c56 0 84 29 84 87v478c0 9 4 14 13 14zM321 692h-32c-7 0 -13 3 -18 10l-80 100c-7 7 -2 13 5 13h53
c9 0 15 -4 20 -12l58 -98c5 -9 3 -13 -6 -13z" />
    <glyph glyph-name="Uacute" unicode="&#xda;" horiz-adv-x="554" 
d="M421 643h45c9 0 14 -4 14 -13v-482c0 -93 -55 -148 -147 -148h-111c-92 0 -148 55 -148 148v481c0 9 5 14 14 14h45c9 0 14 -5 14 -14v-478c0 -58 28 -87 83 -87h94c56 0 84 29 84 87v478c0 9 4 14 13 14zM295 692h-32c-9 0 -11 4 -6 13l58 98c5 8 11 12 20 12h53
c7 0 12 -6 5 -13l-80 -100c-5 -7 -11 -10 -18 -10z" />
    <glyph glyph-name="Ucircumflex" unicode="&#xdb;" horiz-adv-x="554" 
d="M374 707h-34c-7 0 -11 3 -14 8l-48 88l-47 -88c-3 -5 -7 -8 -14 -8h-33c-9 0 -12 4 -7 12l64 107c5 7 11 10 20 10h34c9 0 16 -3 21 -10l63 -107c5 -8 3 -12 -5 -12zM421 643h45c9 0 14 -4 14 -13v-482c0 -93 -55 -148 -147 -148h-111c-92 0 -148 55 -148 148v481
c0 9 5 14 14 14h45c9 0 14 -5 14 -14v-478c0 -58 28 -87 83 -87h94c56 0 84 29 84 87v478c0 9 4 14 13 14z" />
    <glyph glyph-name="Udieresis" unicode="&#xdc;" horiz-adv-x="554" 
d="M157 721v101c0 9 4 14 13 14h43c9 0 13 -4 13 -13v-102c0 -9 -4 -14 -13 -14h-43c-9 0 -13 5 -13 14zM328 721v101c0 9 4 14 13 14h43c9 0 13 -4 13 -13v-102c0 -9 -4 -14 -13 -14h-43c-9 0 -13 5 -13 14zM421 643h45c9 0 14 -4 14 -13v-482c0 -93 -55 -148 -147 -148
h-111c-92 0 -148 55 -148 148v481c0 9 5 14 14 14h45c9 0 14 -5 14 -14v-478c0 -58 28 -87 83 -87h94c56 0 84 29 84 87v478c0 9 4 14 13 14z" />
    <glyph glyph-name="Yacute" unicode="&#xdd;" horiz-adv-x="500" 
d="M272 0h-45c-9 0 -14 5 -14 14v227l-190 387c-4 9 1 15 9 15h56c7 0 13 -5 17 -14l143 -303h5l142 303c3 9 8 14 16 14h57c11 0 14 -5 9 -15l-191 -387v-227c0 -9 -5 -14 -14 -14zM261 692h-32c-9 0 -11 4 -6 13l58 98c5 8 11 12 20 12h53c7 0 12 -6 5 -13l-80 -100
c-5 -7 -11 -10 -18 -10z" />
    <glyph glyph-name="Thorn" unicode="&#xde;" horiz-adv-x="502" 
d="M187 197h97c56 0 84 29 84 86v76c0 58 -28 87 -84 87h-97c-7 0 -10 -3 -10 -9v-231c0 -6 3 -9 10 -9zM164 0h-46c-9 0 -13 5 -13 14v615c0 9 4 14 13 14h46c9 0 13 -5 13 -14v-110c0 -6 4 -9 11 -9h106c91 0 147 -55 147 -148v-82c0 -93 -56 -148 -147 -148h-106
c-7 0 -11 -3 -11 -9v-109c0 -9 -4 -14 -13 -14z" />
    <glyph glyph-name="germandbls" unicode="&#xdf;" horiz-adv-x="541" 
d="M263 354h42c56 0 90 31 90 87v53c0 57 -28 86 -85 86h-81c-56 0 -84 -29 -84 -86v-480c0 -9 -5 -14 -14 -14h-45c-9 0 -14 5 -14 14v481c0 93 56 148 148 148h99c92 0 148 -56 148 -149v-56c0 -55 -25 -94 -75 -115c52 -12 85 -60 85 -119v-60c0 -92 -56 -144 -148 -144
h-84c-9 0 -14 4 -14 13v36c0 9 5 13 14 13h75c57 0 85 29 85 87v55c0 56 -39 87 -96 87h-46c-9 0 -14 4 -14 13v36c0 9 5 14 14 14z" />
    <glyph glyph-name="agrave" unicode="&#xe0;" horiz-adv-x="507" 
d="M259 0h-52c-92 0 -148 55 -148 148v214c0 93 56 148 148 148h217c9 0 14 -5 14 -14v-482c0 -9 -5 -14 -14 -14h-45c-9 0 -14 5 -14 14v39h-4c-17 -35 -51 -53 -102 -53zM365 156v281c0 6 -3 9 -10 9h-140c-55 0 -83 -29 -83 -87v-208c0 -58 28 -87 83 -87h57
c60 0 93 33 93 92zM320 574h-32c-7 0 -13 3 -18 10l-80 100c-7 7 -2 13 5 13h53c9 0 15 -4 20 -12l58 -98c5 -9 3 -13 -6 -13z" />
    <glyph glyph-name="aacute" unicode="&#xe1;" horiz-adv-x="507" 
d="M259 0h-52c-92 0 -148 55 -148 148v214c0 93 56 148 148 148h217c9 0 14 -5 14 -14v-482c0 -9 -5 -14 -14 -14h-45c-9 0 -14 5 -14 14v39h-4c-17 -35 -51 -53 -102 -53zM365 156v281c0 6 -3 9 -10 9h-140c-55 0 -83 -29 -83 -87v-208c0 -58 28 -87 83 -87h57
c60 0 93 33 93 92zM284 574h-32c-9 0 -11 4 -6 13l58 98c5 8 11 12 20 12h53c7 0 12 -6 5 -13l-80 -100c-5 -7 -11 -10 -18 -10z" />
    <glyph glyph-name="acircumflex" unicode="&#xe2;" horiz-adv-x="507" 
d="M259 0h-52c-92 0 -148 55 -148 148v214c0 93 56 148 148 148h217c9 0 14 -5 14 -14v-482c0 -9 -5 -14 -14 -14h-45c-9 0 -14 5 -14 14v39h-4c-17 -35 -51 -53 -102 -53zM365 156v281c0 6 -3 9 -10 9h-140c-55 0 -83 -29 -83 -87v-208c0 -58 28 -87 83 -87h57
c60 0 93 33 93 92zM374 574h-46c-7 0 -12 2 -13 6l-47 72l-48 -72c-1 -4 -6 -6 -13 -6h-46c-8 0 -9 3 -4 10l73 104c4 6 11 9 21 9h34c9 0 16 -3 20 -9l74 -104c5 -7 4 -10 -5 -10z" />
    <glyph glyph-name="atilde" unicode="&#xe3;" horiz-adv-x="508" 
d="M259 0c51 0 85 18 102 53h4v-39c0 -9 5 -14 14 -14h45c9 0 14 5 14 14v482c0 9 -5 14 -14 14h-217c-92 0 -148 -55 -148 -148v-214c0 -93 56 -148 148 -148h52zM365 156c0 -59 -33 -92 -93 -92h-57c-55 0 -83 29 -83 87v208c0 58 28 87 83 87h140c7 0 10 -3 10 -9v-281z
M378 632c0 -41 -18 -58 -59 -58c-53 0 -58 5 -73 27c-21 34 -42 52 -39 9v-26c0 -9 -2 -9 -11 -9h-30c-8 0 -12 0 -12 9v29c0 42 17 59 59 59c39 0 56 -11 71 -38c18 -32 39 -42 39 2v24c0 7 3 9 12 9h31c9 0 12 -2 12 -9v-28z" />
    <glyph glyph-name="adieresis" unicode="&#xe4;" horiz-adv-x="507" 
d="M150 588v101c0 9 4 14 12 14h43c9 0 13 -4 13 -13v-102c0 -9 -4 -14 -13 -14h-43c-8 0 -12 5 -12 14zM321 588v101c0 9 4 14 12 14h43c9 0 13 -4 13 -13v-102c0 -9 -4 -14 -13 -14h-43c-8 0 -12 5 -12 14zM259 0h-52c-92 0 -148 55 -148 148v214c0 93 56 148 148 148h217
c9 0 14 -5 14 -14v-482c0 -9 -5 -14 -14 -14h-45c-9 0 -14 5 -14 14v39h-4c-17 -35 -51 -53 -102 -53zM365 156v281c0 6 -3 9 -10 9h-140c-55 0 -83 -29 -83 -87v-208c0 -58 28 -87 83 -87h57c60 0 93 33 93 92z" />
    <glyph glyph-name="aring" unicode="&#xe5;" horiz-adv-x="507" 
d="M365 156v281c0 6 -3 9 -10 9h-140c-55 0 -83 -29 -83 -87v-208c0 -58 28 -87 83 -87h57c60 0 93 33 93 92zM259 0h-52c-92 0 -148 55 -148 148v214c0 93 56 148 148 148h217c9 0 14 -5 14 -14v-482c0 -9 -5 -14 -14 -14h-45c-9 0 -14 5 -14 14v39h-4
c-17 -35 -51 -53 -102 -53zM211 659v-36c0 -29 11 -38 40 -38h15c29 0 40 9 40 38v36c0 29 -11 38 -40 38h-15c-29 0 -40 -9 -40 -38zM179 615v54c0 39 21 58 63 58h33c43 0 65 -19 65 -58v-54c0 -39 -22 -59 -65 -59h-33c-42 0 -63 20 -63 59z" />
    <glyph glyph-name="ae" unicode="&#xe6;" horiz-adv-x="784" 
d="M432 194v-43c0 -58 28 -87 84 -87h196c9 0 14 -5 14 -14v-37c0 -9 -5 -13 -14 -13h-205c-59 0 -99 21 -122 64c-21 -43 -65 -64 -132 -64h-48c-91 0 -148 54 -148 145v20c0 92 55 145 148 145h146c5 0 8 3 8 8v42c0 57 -28 86 -83 86h-157c-9 0 -14 5 -14 14v36
c0 9 5 14 14 14h155c61 0 102 -21 123 -63c21 42 61 63 121 63h61c92 0 147 -55 147 -148v-144c0 -10 -5 -15 -14 -15h-270c-7 0 -10 -3 -10 -9zM661 266v93c0 58 -28 87 -84 87h-56c-59 0 -89 -28 -89 -84v-96c0 -7 3 -10 10 -10h209c7 0 10 3 10 10zM360 152v93
c0 6 -3 9 -10 9h-136c-59 0 -88 -29 -88 -87v-18c0 -59 29 -88 88 -88h53c62 0 93 30 93 91z" />
    <glyph glyph-name="ccedilla" unicode="&#xe7;" horiz-adv-x="399" 
d="M352 446h-137c-55 0 -83 -29 -83 -87v-208c0 -58 28 -87 83 -87h137c9 0 14 -5 14 -14v-37c0 -9 -5 -13 -14 -13h-66l-41 -43v-4c51 0 77 -21 77 -64v-14c0 -42 -29 -63 -86 -63h-30c-9 0 -13 4 -13 13v14c0 11 2 13 13 13h23c39 0 51 8 51 29v2c0 24 -12 31 -51 31h-16
c-24 0 -33 25 -17 44l37 42h-26c-92 0 -148 55 -148 148v214c0 93 56 148 148 148h145c9 0 14 -5 14 -14v-37c0 -9 -5 -13 -14 -13z" />
    <glyph glyph-name="egrave" unicode="&#xe8;" horiz-adv-x="492" 
d="M419 0h-212c-92 0 -148 55 -148 148v214c0 93 56 148 148 148h84c92 0 147 -55 147 -148v-127c0 -10 -5 -15 -14 -15h-283c-7 0 -10 -3 -10 -9v-61c0 -58 28 -87 84 -87h204c9 0 14 -5 14 -14v-36c0 -9 -5 -13 -14 -13zM141 273h216c7 0 10 3 10 10v77
c0 57 -28 86 -84 86h-68c-56 0 -84 -29 -84 -86v-77c0 -7 3 -10 10 -10zM305 574h-32c-7 0 -13 3 -18 10l-80 100c-7 7 -2 13 5 13h53c9 0 15 -4 20 -12l58 -98c5 -9 3 -13 -6 -13z" />
    <glyph glyph-name="eacute" unicode="&#xe9;" horiz-adv-x="492" 
d="M419 0h-212c-92 0 -148 55 -148 148v214c0 93 56 148 148 148h84c92 0 147 -55 147 -148v-127c0 -10 -5 -15 -14 -15h-283c-7 0 -10 -3 -10 -9v-61c0 -58 28 -87 84 -87h204c9 0 14 -5 14 -14v-36c0 -9 -5 -13 -14 -13zM141 273h216c7 0 10 3 10 10v77
c0 57 -28 86 -84 86h-68c-56 0 -84 -29 -84 -86v-77c0 -7 3 -10 10 -10zM271 574h-32c-9 0 -11 4 -6 13l58 98c5 8 11 12 20 12h53c7 0 12 -6 5 -13l-80 -100c-5 -7 -11 -10 -18 -10z" />
    <glyph glyph-name="ecircumflex" unicode="&#xea;" horiz-adv-x="492" 
d="M419 0h-212c-92 0 -148 55 -148 148v214c0 93 56 148 148 148h84c92 0 147 -55 147 -148v-127c0 -10 -5 -15 -14 -15h-283c-7 0 -10 -3 -10 -9v-61c0 -58 28 -87 84 -87h204c9 0 14 -5 14 -14v-36c0 -9 -5 -13 -14 -13zM141 273h216c7 0 10 3 10 10v77
c0 57 -28 86 -84 86h-68c-56 0 -84 -29 -84 -86v-77c0 -7 3 -10 10 -10zM361 574h-46c-7 0 -12 2 -13 6l-47 72l-48 -72c-1 -4 -6 -6 -13 -6h-46c-8 0 -9 3 -4 10l73 104c4 6 11 9 21 9h34c9 0 16 -3 20 -9l74 -104c5 -7 4 -10 -5 -10z" />
    <glyph glyph-name="edieresis" unicode="&#xeb;" horiz-adv-x="492" 
d="M131 588v101c0 9 4 14 13 14h43c9 0 13 -4 13 -13v-102c0 -9 -4 -14 -13 -14h-43c-9 0 -13 5 -13 14zM302 588v101c0 9 4 14 13 14h43c9 0 13 -4 13 -13v-102c0 -9 -4 -14 -13 -14h-43c-9 0 -13 5 -13 14zM419 0h-212c-92 0 -148 55 -148 148v214c0 93 56 148 148 148h84
c92 0 147 -55 147 -148v-127c0 -10 -5 -15 -14 -15h-283c-7 0 -10 -3 -10 -9v-61c0 -58 28 -87 84 -87h204c9 0 14 -5 14 -14v-36c0 -9 -5 -13 -14 -13zM141 273h216c7 0 10 3 10 10v77c0 57 -28 86 -84 86h-68c-56 0 -84 -29 -84 -86v-77c0 -7 3 -10 10 -10z" />
    <glyph glyph-name="igrave" unicode="&#xec;" horiz-adv-x="221" 
d="M74 14v482c0 9 4 14 13 14h46c9 0 14 -5 14 -14v-482c0 -9 -5 -14 -14 -14h-45c-9 0 -14 5 -14 14zM155 574h-32c-7 0 -13 3 -18 10l-80 100c-7 7 -2 13 5 13h53c9 0 15 -4 20 -12l58 -98c5 -9 3 -13 -6 -13z" />
    <glyph glyph-name="iacute" unicode="&#xed;" horiz-adv-x="220" 
d="M74 14v482c0 9 4 14 13 14h46c9 0 14 -5 14 -14v-482c0 -9 -5 -14 -14 -14h-45c-9 0 -14 5 -14 14zM105 574h-32c-9 0 -11 4 -6 13l58 98c5 8 11 12 20 12h53c7 0 12 -6 5 -13l-80 -100c-5 -7 -11 -10 -18 -10z" />
    <glyph glyph-name="icircumflex" unicode="&#xee;" horiz-adv-x="220" 
d="M206 574h-35c-7 0 -11 3 -13 8l-48 88l-47 -88c-3 -5 -7 -8 -14 -8h-34c-9 0 -11 4 -6 12l64 107c5 7 11 10 20 10h34c9 0 16 -3 21 -10l63 -107c5 -8 3 -12 -5 -12zM74 14v482c0 9 4 14 13 14h46c9 0 14 -5 14 -14v-482c0 -9 -5 -14 -14 -14h-45c-9 0 -14 5 -14 14z" />
    <glyph glyph-name="idieresis" unicode="&#xef;" horiz-adv-x="220" 
d="M-10 588v101c0 9 4 14 13 14h43c9 0 13 -4 13 -13v-102c0 -9 -4 -14 -13 -14h-43c-9 0 -13 5 -13 14zM161 588v101c0 9 4 14 13 14h43c9 0 13 -4 13 -13v-102c0 -9 -4 -14 -13 -14h-43c-9 0 -13 5 -13 14zM74 14v482c0 9 4 14 13 14h46c9 0 14 -5 14 -14v-482
c0 -9 -5 -14 -14 -14h-45c-9 0 -14 5 -14 14z" />
    <glyph glyph-name="eth" unicode="&#xf0;" horiz-adv-x="494" 
d="M434 336v-188c0 -93 -55 -148 -147 -148h-80c-92 0 -148 55 -148 148v114c0 93 56 148 148 148h52c51 0 91 -21 106 -53h4c-2 25 -12 49 -29 70l-99 111l-94 -78c-7 -5 -13 -4 -19 2l-16 20c-5 6 -5 12 2 19l91 77l-73 82c-8 9 -7 18 2 25l22 16c8 7 16 6 23 -3l73 -80
l96 81c9 5 15 5 20 -1l16 -20c5 -8 5 -15 -1 -21l-95 -79l105 -117c27 -30 41 -72 41 -125zM361 151v103c0 61 -30 92 -89 92h-53c-56 0 -87 -31 -87 -87v-108c0 -58 28 -87 83 -87h62c56 0 84 29 84 87z" />
    <glyph glyph-name="ntilde" unicode="&#xf1;" horiz-adv-x="512" 
d="M144 653v38c0 7 3 11 9 11h21c6 0 9 -4 9 -11v-26c-5 -55 26 -54 41 -40c5 5 11 17 19 35c17 36 28 45 65 45s56 -26 56 -77v-40c0 -7 -3 -11 -8 -11h-21c-7 0 -10 4 -10 11v27c0 39 -6 49 -21 49c-13 0 -15 0 -22 -8c-5 -8 -5 -7 -18 -38c-12 -31 -27 -42 -64 -42
s-56 26 -56 77zM128 0h-45c-9 0 -14 5 -14 14v482c0 9 5 14 14 14h45c9 0 14 -5 14 -14v-39h4c17 35 51 53 102 53h56c91 0 144 -55 144 -148v-348c0 -9 -5 -14 -14 -14h-45c-9 0 -14 5 -14 14v345c0 58 -28 87 -84 87h-56c-60 0 -93 -33 -93 -92v-340c0 -9 -5 -14 -14 -14z
" />
    <glyph glyph-name="ograve" unicode="&#xf2;" horiz-adv-x="500" 
d="M293 0h-86c-92 0 -148 55 -148 148v214c0 93 56 148 148 148h86c92 0 148 -55 148 -148v-214c0 -93 -56 -148 -148 -148zM215 64h70c56 0 84 29 84 86v210c0 57 -28 86 -84 86h-70c-56 0 -84 -29 -84 -86v-210c0 -57 28 -86 84 -86zM292 574h-32c-7 0 -13 3 -18 10
l-80 100c-7 7 -2 13 5 13h53c9 0 15 -4 20 -12l58 -98c5 -9 3 -13 -6 -13z" />
    <glyph glyph-name="oacute" unicode="&#xf3;" horiz-adv-x="500" 
d="M293 0h-86c-92 0 -148 55 -148 148v214c0 93 56 148 148 148h86c92 0 148 -55 148 -148v-214c0 -93 -56 -148 -148 -148zM215 64h70c56 0 84 29 84 86v210c0 57 -28 86 -84 86h-70c-56 0 -84 -29 -84 -86v-210c0 -57 28 -86 84 -86zM270 574h-32c-9 0 -11 4 -6 13l58 98
c5 8 11 12 20 12h53c7 0 12 -6 5 -13l-80 -100c-5 -7 -11 -10 -18 -10z" />
    <glyph glyph-name="ocircumflex" unicode="&#xf4;" horiz-adv-x="500" 
d="M293 0h-86c-92 0 -148 55 -148 148v214c0 93 56 148 148 148h86c92 0 148 -55 148 -148v-214c0 -93 -56 -148 -148 -148zM215 64h70c56 0 84 29 84 86v210c0 57 -28 86 -84 86h-70c-56 0 -84 -29 -84 -86v-210c0 -57 28 -86 84 -86zM357 574h-46c-7 0 -12 2 -13 6l-47 72
l-48 -72c-1 -4 -6 -6 -13 -6h-46c-8 0 -9 3 -4 10l73 104c4 6 11 9 21 9h34c9 0 16 -3 20 -9l74 -104c5 -7 4 -10 -5 -10z" />
    <glyph glyph-name="otilde" unicode="&#xf5;" horiz-adv-x="500" 
d="M293 0c92 0 148 55 148 148v214c0 93 -56 148 -148 148h-86c-92 0 -148 -55 -148 -148v-214c0 -93 56 -148 148 -148h86zM215 64c-56 0 -84 29 -84 86v210c0 57 28 86 84 86h70c56 0 84 -29 84 -86v-210c0 -57 -28 -86 -84 -86h-70zM366 632c0 -41 -18 -58 -59 -58
c-53 0 -58 5 -73 27c-21 34 -42 52 -39 9v-26c0 -9 -2 -9 -11 -9h-30c-8 0 -12 0 -12 9v29c0 42 17 59 59 59c39 0 56 -11 71 -38c18 -32 39 -42 39 2v24c0 7 3 9 12 9h31c9 0 12 -2 12 -9v-28z" />
    <glyph glyph-name="odieresis" unicode="&#xf6;" horiz-adv-x="500" 
d="M130 588v101c0 9 4 14 13 14h43c9 0 13 -4 13 -13v-102c0 -9 -4 -14 -13 -14h-43c-9 0 -13 5 -13 14zM301 588v101c0 9 4 14 13 14h43c9 0 13 -4 13 -13v-102c0 -9 -4 -14 -13 -14h-43c-9 0 -13 5 -13 14zM293 0h-86c-92 0 -148 55 -148 148v214c0 93 56 148 148 148h86
c92 0 148 -55 148 -148v-214c0 -93 -56 -148 -148 -148zM215 64h70c56 0 84 29 84 86v210c0 57 -28 86 -84 86h-70c-56 0 -84 -29 -84 -86v-210c0 -57 28 -86 84 -86z" />
    <glyph glyph-name="divide" unicode="&#xf7;" horiz-adv-x="496" 
d="M221 151v57c0 9 5 14 14 14h27c9 0 14 -5 14 -14v-57c0 -9 -5 -14 -14 -14h-27c-9 0 -14 5 -14 14zM409 294h-321c-10 0 -15 5 -15 14v26c0 9 5 13 15 13h321c9 0 14 -4 14 -13v-26c0 -9 -5 -14 -14 -14zM221 433v58c0 9 5 14 14 14h27c9 0 14 -5 14 -14v-58
c0 -9 -5 -14 -14 -14h-27c-9 0 -14 5 -14 14z" />
    <glyph glyph-name="oslash" unicode="&#xf8;" horiz-adv-x="521" 
d="M452 362v-214c0 -92 -56 -148 -148 -148h-87c-56 0 -97 19 -123 56l-34 -34c-7 -7 -14 -7 -20 0l-12 12c-7 7 -7 13 0 20l47 47c-4 14 -6 30 -6 47v214c0 92 56 148 148 148h87c56 0 97 -19 123 -57l34 34c7 7 13 8 20 1l12 -12c7 -7 7 -13 0 -20l-47 -47
c4 -14 6 -30 6 -47zM142 359v-191l230 230c-10 32 -36 48 -77 48h-69c-56 0 -84 -29 -84 -87zM378 151v190l-230 -231c11 -31 37 -46 78 -46h69c55 0 83 29 83 87z" />
    <glyph glyph-name="ugrave" unicode="&#xf9;" horiz-adv-x="512" 
d="M264 0h-56c-91 0 -144 55 -144 148v348c0 9 5 14 14 14h45c9 0 14 -5 14 -14v-345c0 -58 28 -87 83 -87h57c60 0 93 33 93 92v340c0 9 5 14 14 14h45c9 0 14 -5 14 -14v-482c0 -9 -5 -14 -14 -14h-45c-9 0 -14 5 -14 14v39h-4c-17 -35 -51 -53 -102 -53zM294 574h-32
c-7 0 -13 3 -18 10l-80 100c-7 7 -2 13 5 13h53c9 0 15 -4 20 -12l58 -98c5 -9 3 -13 -6 -13z" />
    <glyph glyph-name="uacute" unicode="&#xfa;" horiz-adv-x="512" 
d="M264 0h-56c-91 0 -144 55 -144 148v348c0 9 5 14 14 14h45c9 0 14 -5 14 -14v-345c0 -58 28 -87 83 -87h57c60 0 93 33 93 92v340c0 9 5 14 14 14h45c9 0 14 -5 14 -14v-482c0 -9 -5 -14 -14 -14h-45c-9 0 -14 5 -14 14v39h-4c-17 -35 -51 -53 -102 -53zM271 574h-32
c-9 0 -11 4 -6 13l58 98c5 8 11 12 20 12h53c7 0 12 -6 5 -13l-80 -100c-5 -7 -11 -10 -18 -10z" />
    <glyph glyph-name="ucircumflex" unicode="&#xfb;" horiz-adv-x="512" 
d="M349 574h-34c-7 0 -12 3 -14 8l-48 88l-47 -88c-3 -5 -7 -8 -14 -8h-34c-8 0 -10 4 -5 12l63 107c5 7 12 10 21 10h33c9 0 16 -3 21 -10l63 -107c5 -8 3 -12 -5 -12zM264 0h-56c-91 0 -144 55 -144 148v348c0 9 5 14 14 14h45c9 0 14 -5 14 -14v-345c0 -58 28 -87 83 -87
h57c60 0 93 33 93 92v340c0 9 5 14 14 14h45c9 0 14 -5 14 -14v-482c0 -9 -5 -14 -14 -14h-45c-9 0 -14 5 -14 14v39h-4c-17 -35 -51 -53 -102 -53z" />
    <glyph glyph-name="udieresis" unicode="&#xfc;" horiz-adv-x="512" 
d="M134 588v101c0 9 4 14 12 14h43c9 0 13 -4 13 -13v-102c0 -9 -4 -14 -13 -14h-43c-8 0 -12 5 -12 14zM305 588v101c0 9 4 14 12 14h43c9 0 13 -4 13 -13v-102c0 -9 -4 -14 -13 -14h-43c-8 0 -12 5 -12 14zM264 0h-56c-91 0 -144 55 -144 148v348c0 9 5 14 14 14h45
c9 0 14 -5 14 -14v-345c0 -58 28 -87 83 -87h57c60 0 93 33 93 92v340c0 9 5 14 14 14h45c9 0 14 -5 14 -14v-482c0 -9 -5 -14 -14 -14h-45c-9 0 -14 5 -14 14v39h-4c-17 -35 -51 -53 -102 -53z" />
    <glyph glyph-name="yacute" unicode="&#xfd;" horiz-adv-x="463" 
d="M110 -157h-44c-9 0 -14 5 -14 14v37c0 9 5 14 14 14h25c43 0 73 12 90 36c14 19 27 47 38 83h-29c-8 0 -14 5 -17 14l-147 455c-3 9 1 14 10 14h48c9 0 14 -5 17 -14l129 -412h4l129 412c2 9 7 14 16 14h46c11 0 15 -5 12 -15l-149 -475c-33 -113 -77 -177 -178 -177z
M247 574h-32c-9 0 -11 4 -6 13l58 98c5 8 11 12 20 12h53c7 0 12 -6 5 -13l-80 -100c-5 -7 -11 -10 -18 -10z" />
    <glyph glyph-name="thorn" unicode="&#xfe;" horiz-adv-x="514" 
d="M238 64h60c56 0 84 29 84 87v208c0 58 -28 87 -84 87h-60c-60 0 -93 -33 -93 -92v-198c0 -59 33 -92 93 -92zM149 53h-4v-172c0 -9 -5 -14 -14 -14h-45c-9 0 -14 5 -14 14v808c0 9 5 14 14 14h45c9 0 14 -5 14 -14v-232h4c17 35 51 53 102 53h56c92 0 148 -56 148 -148
v-214c0 -92 -56 -148 -148 -148h-56c-51 0 -85 18 -102 53z" />
    <glyph glyph-name="ydieresis" unicode="&#xff;" horiz-adv-x="463" 
d="M112 588v101c0 9 4 14 13 14h43c9 0 13 -4 13 -13v-102c0 -9 -4 -14 -13 -14h-43c-9 0 -13 5 -13 14zM283 588v101c0 9 4 14 13 14h43c9 0 13 -4 13 -13v-102c0 -9 -4 -14 -13 -14h-43c-9 0 -13 5 -13 14zM110 -157h-44c-9 0 -14 5 -14 14v37c0 9 5 14 14 14h25
c43 0 73 12 90 36c14 19 27 47 38 83h-29c-8 0 -14 5 -17 14l-147 455c-3 9 1 14 10 14h48c9 0 14 -5 17 -14l129 -412h4l129 412c2 9 7 14 16 14h46c11 0 15 -5 12 -15l-149 -475c-33 -113 -77 -177 -178 -177z" />
    <glyph glyph-name="Amacron" unicode="&#x100;" horiz-adv-x="539" 
d="M370 746h-201c-9 0 -14 5 -14 14v26c0 9 5 14 14 14h201c9 0 14 -5 14 -14v-26c0 -9 -5 -14 -14 -14zM87 0h-50c-9 0 -12 5 -9 14l187 615c3 9 9 14 19 14h72c10 0 16 -5 19 -14l187 -615c3 -9 0 -14 -9 -14h-51c-7 0 -12 5 -14 14l-47 146h-242l-47 -146
c-3 -9 -8 -14 -15 -14zM272 568h-4l-103 -346h210z" />
    <glyph glyph-name="amacron" unicode="&#x101;" horiz-adv-x="507" 
d="M378 613h-201c-9 0 -14 5 -14 14v24c0 9 5 14 14 14h201c9 0 14 -5 14 -14v-24c0 -9 -5 -14 -14 -14zM259 0h-52c-92 0 -148 55 -148 148v214c0 93 56 148 148 148h217c9 0 14 -5 14 -14v-482c0 -9 -5 -14 -14 -14h-45c-9 0 -14 5 -14 14v39h-4c-17 -35 -51 -53 -102 -53
zM365 156v281c0 6 -3 9 -10 9h-140c-55 0 -83 -29 -83 -87v-208c0 -58 28 -87 83 -87h57c60 0 93 33 93 92z" />
    <glyph glyph-name="Abreve" unicode="&#x102;" horiz-adv-x="539" 
d="M87 0h-50c-9 0 -12 5 -9 14l187 615c3 9 9 14 19 14h72c10 0 16 -5 19 -14l187 -615c3 -9 0 -14 -9 -14h-51c-7 0 -12 5 -14 14l-47 146h-242l-47 -146c-3 -9 -8 -14 -15 -14zM272 568h-4l-103 -346h210zM161 783v12c0 7 3 10 9 10h38c7 0 10 -3 10 -10v-11
c0 -45 24 -51 48 -51h9c25 0 50 7 50 51v10c0 7 3 10 9 10h37c6 0 9 -3 9 -10v-11c0 -61 -34 -91 -103 -91h-14c-68 0 -102 30 -102 91z" />
    <glyph glyph-name="abreve" unicode="&#x103;" horiz-adv-x="507" 
d="M365 156v281c0 6 -3 9 -10 9h-140c-55 0 -83 -29 -83 -87v-208c0 -58 28 -87 83 -87h57c60 0 93 33 93 92zM259 0h-52c-92 0 -148 55 -148 148v214c0 93 56 148 148 148h217c9 0 14 -5 14 -14v-482c0 -9 -5 -14 -14 -14h-45c-9 0 -14 5 -14 14v39h-4
c-17 -35 -51 -53 -102 -53zM168 665v12c0 7 3 10 9 10h38c7 0 10 -3 10 -10v-11c0 -45 24 -51 48 -51h9c25 0 50 7 50 51v10c0 7 3 10 9 10h37c6 0 9 -3 9 -10v-11c0 -61 -34 -91 -103 -91h-14c-68 0 -102 30 -102 91z" />
    <glyph glyph-name="Aogonek" unicode="&#x104;" horiz-adv-x="539" 
d="M503 0h-38l-48 -67h39c21 0 26 -3 26 -14c0 -17 -41 -30 -77 -30s-46 23 -30 44l61 86l-45 141h-242l-47 -146c-3 -9 -8 -14 -15 -14h-50c-9 0 -12 5 -9 14l187 615c3 9 9 14 19 14h72c10 0 16 -5 19 -14l187 -615c3 -9 0 -14 -9 -14zM268 568l-103 -346h210l-103 346h-4
z" />
    <glyph glyph-name="aogonek" unicode="&#x105;" horiz-adv-x="507" 
d="M207 510h217c9 0 14 -5 14 -14v-482c0 -9 -5 -14 -14 -14h-31c-33 -46 -49 -69 -46 -69c17 0 31 1 40 2c19 0 24 -4 23 -13c-1 -19 -41 -34 -76 -34c-33 0 -39 34 -22 54l53 77v36h-4c-17 -35 -51 -53 -102 -53h-52c-92 0 -148 55 -148 148v214c0 93 56 148 148 148z
M215 64h57c60 0 93 33 93 92v281c0 6 -3 9 -10 9h-140c-55 0 -83 -29 -83 -87v-208c0 -58 28 -87 83 -87z" />
    <glyph glyph-name="Cacute" unicode="&#x106;" horiz-adv-x="541" 
d="M337 0h-120c-92 0 -148 55 -148 148v347c0 93 56 148 148 148h120c92 0 148 -55 148 -148v-49c0 -9 -5 -14 -14 -14h-45c-9 0 -14 5 -14 14v46c0 58 -28 87 -84 87h-103c-55 0 -83 -29 -83 -87v-341c0 -58 28 -87 83 -87h103c56 0 84 29 84 87v46c0 9 5 14 14 14h45
c9 0 14 -5 14 -14v-49c0 -93 -56 -148 -148 -148zM323 836h60c9 0 12 -6 7 -14l-87 -105c-5 -7 -12 -10 -20 -10h-33c-9 0 -11 5 -6 14l57 102c5 9 12 13 22 13z" />
    <glyph glyph-name="cacute" unicode="&#x107;" horiz-adv-x="399" 
d="M278 703h60c9 0 12 -6 7 -14l-87 -105c-7 -7 -13 -10 -20 -10h-33c-9 0 -11 5 -6 14l57 102c6 9 13 13 22 13zM366 50v-37c0 -9 -5 -13 -14 -13h-145c-92 0 -148 55 -148 148v214c0 93 56 148 148 148h145c9 0 14 -5 14 -14v-37c0 -9 -5 -13 -14 -13h-137
c-55 0 -83 -29 -83 -87v-208c0 -58 28 -87 83 -87h137c9 0 14 -5 14 -14z" />
    <glyph glyph-name="Cdotaccent" unicode="&#x10a;" horiz-adv-x="541" 
d="M337 0h-120c-92 0 -148 55 -148 148v347c0 93 56 148 148 148h120c92 0 148 -55 148 -148v-49c0 -9 -5 -14 -14 -14h-45c-9 0 -14 5 -14 14v46c0 58 -28 87 -84 87h-103c-55 0 -83 -29 -83 -87v-341c0 -58 28 -87 83 -87h103c56 0 84 29 84 87v46c0 9 5 14 14 14h45
c9 0 14 -5 14 -14v-49c0 -93 -56 -148 -148 -148zM241 725v97c0 9 4 14 13 14h46c9 0 13 -5 13 -14v-97c0 -9 -4 -14 -13 -14h-46c-9 0 -13 5 -13 14z" />
    <glyph glyph-name="cdotaccent" unicode="&#x10b;" horiz-adv-x="399" 
d="M197 590v97c0 9 4 14 13 14h46c9 0 13 -4 13 -13v-98c0 -9 -4 -14 -13 -14h-46c-9 0 -13 5 -13 14zM366 50v-37c0 -9 -5 -13 -14 -13h-145c-92 0 -148 55 -148 148v214c0 93 56 148 148 148h145c9 0 14 -5 14 -14v-37c0 -9 -5 -13 -14 -13h-137c-55 0 -83 -29 -83 -87
v-208c0 -58 28 -87 83 -87h137c9 0 14 -5 14 -14z" />
    <glyph glyph-name="Ccaron" unicode="&#x10c;" horiz-adv-x="541" 
d="M337 0h-120c-92 0 -148 55 -148 148v347c0 93 56 148 148 148h120c92 0 148 -55 148 -148v-49c0 -9 -5 -14 -14 -14h-45c-9 0 -14 5 -14 14v46c0 58 -28 87 -84 87h-103c-55 0 -83 -29 -83 -87v-341c0 -58 28 -87 83 -87h103c56 0 84 29 84 87v46c0 9 5 14 14 14h45
c9 0 14 -5 14 -14v-49c0 -93 -56 -148 -148 -148zM295 707h-33c-9 0 -16 3 -21 10l-63 107c-5 8 -3 12 6 12h33c7 0 12 -3 14 -8l48 -88l47 88c3 5 7 8 14 8h34c8 0 10 -4 5 -12l-63 -107c-5 -7 -12 -10 -21 -10z" />
    <glyph glyph-name="ccaron" unicode="&#x10d;" horiz-adv-x="399" 
d="M254 574h-34c-9 0 -16 3 -21 10l-63 107c-5 8 -3 12 6 12h34c7 0 11 -3 14 -8l47 -88l47 88c3 5 7 8 14 8h34c9 0 11 -4 6 -12l-64 -107c-5 -7 -11 -10 -20 -10zM366 50v-37c0 -9 -5 -13 -14 -13h-145c-92 0 -148 55 -148 148v214c0 93 56 148 148 148h145
c9 0 14 -5 14 -14v-37c0 -9 -5 -13 -14 -13h-137c-55 0 -83 -29 -83 -87v-208c0 -58 28 -87 83 -87h137c9 0 14 -5 14 -14z" />
    <glyph glyph-name="Dcaron" unicode="&#x10e;" horiz-adv-x="556" 
d="M292 707h-34c-9 0 -16 3 -21 10l-63 107c-5 8 -3 12 6 12h33c7 0 11 -3 14 -8l47 -88l48 88c3 5 7 8 14 8h34c8 0 10 -4 5 -12l-63 -107c-5 -7 -11 -10 -20 -10zM162 64h168c56 0 84 29 84 87v341c0 58 -28 87 -84 87h-168c-7 0 -10 -3 -10 -9v-497c0 -6 3 -9 10 -9z
M79 14v615c0 9 5 14 14 14h246c92 0 148 -56 148 -148v-347c0 -92 -56 -148 -148 -148h-246c-9 0 -14 5 -14 14z" />
    <glyph glyph-name="dcaron" unicode="&#x10f;" horiz-adv-x="563" 
d="M568 690v-58c0 -17 -5 -38 -15 -65l-33 -95c-3 -5 -6 -7 -11 -7c-7 0 -11 4 -11 12v212c0 9 4 14 13 14h44c9 0 13 -4 13 -13zM262 0h-59c-91 0 -144 55 -144 148v214c0 93 53 148 144 148h59c52 0 86 -18 103 -53h4v232c0 9 4 14 13 14h46c9 0 13 -5 13 -14v-675
c0 -9 -4 -14 -13 -14h-46c-9 0 -13 5 -13 14v39h-4c-17 -35 -51 -53 -103 -53zM369 156v198c0 59 -33 92 -93 92h-61c-55 0 -83 -29 -83 -87v-208c0 -58 28 -87 83 -87h61c60 0 93 33 93 92z" />
    <glyph glyph-name="Dcroat" unicode="&#x110;" horiz-adv-x="556" 
d="M162 64h168c56 0 84 29 84 87v341c0 58 -28 87 -84 87h-168c-7 0 -10 -3 -10 -9v-165c0 -7 3 -10 10 -10h126c9 0 14 -4 14 -13v-30c0 -9 -5 -13 -14 -13h-126c-7 0 -10 -3 -10 -10v-256c0 -6 3 -9 10 -9zM339 0h-246c-9 0 -14 5 -14 14v315c0 7 -3 10 -10 10h-37
c-9 0 -14 4 -14 13v30c0 9 5 13 14 13h37c7 0 10 3 10 10v224c0 9 5 14 14 14h246c92 0 148 -55 148 -148v-347c0 -93 -56 -148 -148 -148z" />
    <glyph glyph-name="dslash" unicode="&#x111;" horiz-adv-x="510" 
d="M262 0h-55c-92 0 -148 55 -148 148v152c0 92 56 147 148 147h55c52 0 86 -18 103 -53h4v146c0 7 -4 10 -11 10h-115c-9 0 -13 4 -13 13v30c0 9 4 13 13 13h115c7 0 11 3 11 10v73c0 9 4 14 13 14h46c9 0 13 -5 13 -14v-73c0 -7 4 -10 11 -10h41c10 0 15 -4 15 -13v-30
c0 -9 -5 -13 -15 -13h-41c-7 0 -11 -3 -11 -10v-526c0 -9 -4 -14 -13 -14h-46c-9 0 -13 5 -13 14v39h-4c-17 -35 -51 -53 -103 -53zM369 156v136c0 57 -33 91 -93 91h-61c-55 0 -83 -29 -83 -87v-145c0 -58 28 -87 83 -87h61c60 0 93 33 93 92z" />
    <glyph glyph-name="Emacron" unicode="&#x112;" horiz-adv-x="480" 
d="M350 746h-201c-9 0 -14 5 -14 14v26c0 9 5 14 14 14h201c9 0 14 -5 14 -14v-26c0 -9 -5 -14 -14 -14zM407 0h-314c-9 0 -14 5 -14 14v615c0 9 5 14 14 14h314c9 0 14 -5 14 -14v-36c0 -9 -5 -14 -14 -14h-245c-7 0 -10 -3 -10 -9v-202c0 -6 3 -9 10 -9h214
c9 0 14 -5 14 -14v-36c0 -9 -5 -14 -14 -14h-214c-7 0 -10 -3 -10 -9v-213c0 -6 3 -9 10 -9h245c9 0 14 -5 14 -14v-36c0 -9 -5 -14 -14 -14z" />
    <glyph glyph-name="emacron" unicode="&#x113;" horiz-adv-x="492" 
d="M351 613h-201c-9 0 -14 5 -14 14v24c0 9 5 14 14 14h201c10 0 15 -5 15 -14v-24c0 -9 -5 -14 -15 -14zM419 0h-212c-92 0 -148 55 -148 148v214c0 93 56 148 148 148h84c92 0 147 -55 147 -148v-127c0 -10 -5 -15 -14 -15h-283c-7 0 -10 -3 -10 -9v-61
c0 -58 28 -87 84 -87h204c9 0 14 -5 14 -14v-36c0 -9 -5 -13 -14 -13zM141 273h216c7 0 10 3 10 10v77c0 57 -28 86 -84 86h-68c-56 0 -84 -29 -84 -86v-77c0 -7 3 -10 10 -10z" />
    <glyph glyph-name="Ebreve" unicode="&#x114;" horiz-adv-x="480" 
d="M141 813v12c0 7 4 11 11 11h28c7 0 10 -4 10 -11v-10c0 -49 14 -68 53 -68h5c40 0 55 19 55 68v10c0 7 3 10 10 10h26c7 0 11 -3 11 -10v-12c0 -71 -32 -106 -96 -106h-17c-64 0 -96 35 -96 106zM407 0h-314c-9 0 -14 5 -14 14v615c0 9 5 14 14 14h314c9 0 14 -5 14 -14
v-36c0 -9 -5 -14 -14 -14h-245c-7 0 -10 -3 -10 -9v-202c0 -6 3 -9 10 -9h214c9 0 14 -5 14 -14v-36c0 -9 -5 -14 -14 -14h-214c-7 0 -10 -3 -10 -9v-213c0 -6 3 -9 10 -9h245c9 0 14 -5 14 -14v-36c0 -9 -5 -14 -14 -14z" />
    <glyph glyph-name="ebreve" unicode="&#x115;" horiz-adv-x="492" 
d="M141 273h216c7 0 10 3 10 10v77c0 57 -28 86 -84 86h-68c-56 0 -84 -29 -84 -86v-77c0 -7 3 -10 10 -10zM419 0h-212c-92 0 -148 55 -148 148v214c0 93 56 148 148 148h84c92 0 147 -55 147 -148v-127c0 -10 -5 -15 -14 -15h-283c-7 0 -10 -3 -10 -9v-61
c0 -58 28 -87 84 -87h204c9 0 14 -5 14 -14v-36c0 -9 -5 -13 -14 -13zM144 680v12c0 7 4 11 11 11h27c7 0 10 -4 10 -11v-10c0 -49 14 -68 53 -68h6c39 0 54 19 54 68v10c0 7 4 10 11 10h26c7 0 11 -3 11 -10v-12c0 -71 -32 -106 -96 -106h-18c-63 0 -95 35 -95 106z" />
    <glyph glyph-name="Edotaccent" unicode="&#x116;" horiz-adv-x="492" 
d="M213 725v97c0 9 5 14 14 14h46c9 0 13 -5 13 -14v-97c0 -9 -4 -14 -13 -14h-46c-9 0 -14 5 -14 14zM407 0h-314c-9 0 -14 5 -14 14v615c0 9 5 14 14 14h314c9 0 14 -5 14 -14v-36c0 -9 -5 -14 -14 -14h-245c-7 0 -10 -3 -10 -9v-202c0 -6 3 -9 10 -9h214
c9 0 14 -5 14 -14v-36c0 -9 -5 -14 -14 -14h-214c-7 0 -10 -3 -10 -9v-213c0 -6 3 -9 10 -9h245c9 0 14 -5 14 -14v-36c0 -9 -5 -14 -14 -14z" />
    <glyph glyph-name="edotaccent" unicode="&#x117;" horiz-adv-x="492" 
d="M215 590v97c0 9 4 14 13 14h46c9 0 14 -4 14 -13v-98c0 -9 -5 -14 -14 -14h-46c-9 0 -13 5 -13 14zM419 0h-212c-92 0 -148 55 -148 148v214c0 93 56 148 148 148h84c92 0 147 -55 147 -148v-127c0 -10 -5 -15 -14 -15h-283c-7 0 -10 -3 -10 -9v-61c0 -58 28 -87 84 -87
h204c9 0 14 -5 14 -14v-36c0 -9 -5 -13 -14 -13zM141 273h216c7 0 10 3 10 10v77c0 57 -28 86 -84 86h-68c-56 0 -84 -29 -84 -86v-77c0 -7 3 -10 10 -10z" />
    <glyph glyph-name="Eogonek" unicode="&#x118;" horiz-adv-x="480" 
d="M407 579h-245c-7 0 -10 -3 -10 -9v-202c0 -6 3 -9 10 -9h214c9 0 14 -5 14 -14v-36c0 -9 -5 -14 -14 -14h-214c-7 0 -10 -3 -10 -9v-213c0 -6 3 -9 10 -9h245c9 0 14 -5 14 -14v-36c0 -9 -5 -14 -14 -14h-48l-49 -67h40c21 0 26 -3 26 -14c0 -17 -42 -30 -79 -30
c-36 0 -45 23 -28 44l48 67h-224c-9 0 -14 5 -14 14v615c0 9 5 14 14 14h314c9 0 14 -5 14 -14v-36c0 -9 -5 -14 -14 -14z" />
    <glyph glyph-name="eogonek" unicode="&#x119;" horiz-adv-x="492" 
d="M207 510h84c92 0 147 -55 147 -148v-127c0 -10 -5 -15 -14 -15h-283c-7 0 -10 -3 -10 -9v-61c0 -58 28 -87 84 -87h204c9 0 14 -5 14 -14v-36c0 -9 -5 -13 -14 -13h-56c-33 -46 -49 -69 -46 -69c17 0 31 1 40 2c19 0 24 -2 23 -13c-1 -19 -43 -34 -76 -34
c-32 0 -38 34 -22 54l41 60h-116c-92 0 -148 55 -148 148v214c0 93 56 148 148 148zM367 283v77c0 57 -28 86 -84 86h-68c-56 0 -84 -29 -84 -86v-77c0 -7 3 -10 10 -10h216c7 0 10 3 10 10z" />
    <glyph glyph-name="Ecaron" unicode="&#x11a;" horiz-adv-x="480" 
d="M270 707h-35c-9 0 -15 3 -20 10l-63 107c-5 8 -3 12 6 12h33c7 0 11 -3 14 -8l48 -88l47 88c3 5 7 8 14 8h34c8 0 10 -4 5 -12l-63 -107c-5 -7 -11 -10 -20 -10zM407 0h-314c-9 0 -14 5 -14 14v615c0 9 5 14 14 14h314c9 0 14 -5 14 -14v-36c0 -9 -5 -14 -14 -14h-245
c-7 0 -10 -3 -10 -9v-202c0 -6 3 -9 10 -9h214c9 0 14 -5 14 -14v-36c0 -9 -5 -14 -14 -14h-214c-7 0 -10 -3 -10 -9v-213c0 -6 3 -9 10 -9h245c9 0 14 -5 14 -14v-36c0 -9 -5 -14 -14 -14z" />
    <glyph glyph-name="ecaron" unicode="&#x11b;" horiz-adv-x="492" 
d="M268 574h-34c-9 0 -16 3 -21 10l-63 107c-5 8 -3 12 6 12h34c7 0 11 -3 14 -8l47 -88l47 88c3 5 7 8 14 8h34c9 0 11 -4 6 -12l-64 -107c-5 -7 -11 -10 -20 -10zM419 0h-212c-92 0 -148 55 -148 148v214c0 93 56 148 148 148h84c92 0 147 -55 147 -148v-127
c0 -10 -5 -15 -14 -15h-283c-7 0 -10 -3 -10 -9v-61c0 -58 28 -87 84 -87h204c9 0 14 -5 14 -14v-36c0 -9 -5 -13 -14 -13zM141 273h216c7 0 10 3 10 10v77c0 57 -28 86 -84 86h-68c-56 0 -84 -29 -84 -86v-77c0 -7 3 -10 10 -10z" />
    <glyph glyph-name="Gcircumflex" unicode="&#x11c;" horiz-adv-x="541" 
d="M367 707h-34c-7 0 -11 3 -14 8l-47 88l-48 -88c-2 -5 -7 -8 -14 -8h-33c-9 0 -11 4 -6 12l63 107c5 7 11 10 20 10h35c9 0 15 -3 20 -10l63 -107c5 -8 3 -12 -5 -12zM325 0h-108c-92 0 -148 55 -148 148v347c0 93 56 148 148 148h108c92 0 147 -56 147 -148v-41
c0 -10 -5 -15 -14 -15h-45c-9 0 -14 5 -14 15v38c0 58 -28 87 -83 87h-91c-55 0 -83 -29 -83 -87v-341c0 -58 28 -87 83 -87h91c55 0 83 29 83 87v112c0 7 -3 10 -9 10h-99c-9 0 -14 4 -14 13v37c0 9 5 14 14 14h161c13 0 20 -7 20 -21v-168c0 -93 -55 -148 -147 -148z" />
    <glyph glyph-name="gcircumflex" unicode="&#x11d;" horiz-adv-x="510" 
d="M365 574h-34c-7 0 -11 3 -14 8l-47 88l-47 -88c-3 -5 -7 -8 -14 -8h-34c-9 0 -11 4 -6 12l63 107c5 7 12 10 21 10h34c9 0 15 -3 20 -10l64 -107c5 -8 3 -12 -6 -12zM262 27h-56c-91 0 -144 55 -144 148v187c0 93 56 148 148 148h217c9 0 14 -5 14 -14v-496
c0 -92 -56 -148 -148 -148h-184c-10 0 -15 5 -15 14v37c0 9 5 14 15 14h175c56 0 84 29 84 86v77h-4c-17 -35 -51 -53 -102 -53zM368 183v254c0 6 -3 9 -10 9h-139c-56 0 -84 -29 -84 -87v-181c0 -58 28 -87 84 -87h56c60 0 93 33 93 92z" />
    <glyph glyph-name="Gbreve" unicode="&#x11e;" horiz-adv-x="541" 
d="M167 813v12c0 7 3 11 10 11h28c7 0 10 -4 10 -11v-10c0 -49 14 -68 53 -68h6c39 0 54 19 54 68v10c0 7 3 10 10 10h26c7 0 11 -3 11 -10v-12c0 -71 -32 -106 -96 -106h-17c-63 0 -95 35 -95 106zM325 0h-108c-92 0 -148 55 -148 148v347c0 93 56 148 148 148h108
c92 0 147 -56 147 -148v-41c0 -10 -5 -15 -14 -15h-45c-9 0 -14 5 -14 15v38c0 58 -28 87 -83 87h-91c-55 0 -83 -29 -83 -87v-341c0 -58 28 -87 83 -87h91c55 0 83 29 83 87v112c0 7 -3 10 -9 10h-99c-9 0 -14 4 -14 13v37c0 9 5 14 14 14h161c13 0 20 -7 20 -21v-168
c0 -93 -55 -148 -147 -148z" />
    <glyph glyph-name="gbreve" unicode="&#x11f;" horiz-adv-x="510" 
d="M368 183v254c0 6 -3 9 -10 9h-139c-56 0 -84 -29 -84 -87v-181c0 -58 28 -87 84 -87h56c60 0 93 33 93 92zM262 27h-56c-91 0 -144 55 -144 148v187c0 93 56 148 148 148h217c9 0 14 -5 14 -14v-496c0 -92 -56 -148 -148 -148h-184c-10 0 -15 5 -15 14v37c0 9 5 14 15 14
h175c56 0 84 29 84 86v77h-4c-17 -35 -51 -53 -102 -53zM174 680v12c0 7 4 11 11 11h27c7 0 11 -4 11 -11v-10c0 -49 13 -68 52 -68h6c39 0 54 19 54 68v10c0 7 4 10 11 10h26c7 0 11 -3 11 -10v-12c0 -71 -32 -106 -97 -106h-17c-63 0 -95 35 -95 106z" />
    <glyph glyph-name="Gdotaccent" unicode="&#x120;" horiz-adv-x="541" 
d="M234 725v97c0 9 4 14 13 14h46c9 0 13 -5 13 -14v-97c0 -9 -4 -14 -13 -14h-46c-9 0 -13 5 -13 14zM325 0h-108c-92 0 -148 55 -148 148v347c0 93 56 148 148 148h108c92 0 147 -56 147 -148v-41c0 -10 -5 -15 -14 -15h-45c-9 0 -14 5 -14 15v38c0 58 -28 87 -83 87h-91
c-55 0 -83 -29 -83 -87v-341c0 -58 28 -87 83 -87h91c55 0 83 29 83 87v112c0 7 -3 10 -9 10h-99c-9 0 -14 4 -14 13v37c0 9 5 14 14 14h161c13 0 20 -7 20 -21v-168c0 -93 -55 -148 -147 -148z" />
    <glyph glyph-name="gdotaccent" unicode="&#x121;" horiz-adv-x="510" 
d="M238 590v97c0 9 4 14 13 14h47c9 0 13 -4 13 -13v-98c0 -9 -4 -14 -13 -14h-47c-9 0 -13 5 -13 14zM262 27h-56c-91 0 -144 55 -144 148v187c0 93 56 148 148 148h217c9 0 14 -5 14 -14v-496c0 -92 -56 -148 -148 -148h-184c-10 0 -15 5 -15 14v37c0 9 5 14 15 14h175
c56 0 84 29 84 86v77h-4c-17 -35 -51 -53 -102 -53zM368 183v254c0 6 -3 9 -10 9h-139c-56 0 -84 -29 -84 -87v-181c0 -58 28 -87 84 -87h56c60 0 93 33 93 92z" />
    <glyph glyph-name="uni0122" unicode="&#x122;" horiz-adv-x="541" 
d="M321 -45v-47c0 -19 -5 -38 -15 -58l-33 -80c-3 -5 -7 -8 -11 -8c-7 0 -11 4 -11 12v180c0 9 4 14 13 14h44c9 0 13 -4 13 -13zM325 0h-108c-92 0 -148 55 -148 148v347c0 93 56 148 148 148h108c92 0 147 -56 147 -148v-41c0 -10 -5 -15 -14 -15h-45c-9 0 -14 5 -14 15
v38c0 58 -28 87 -83 87h-91c-55 0 -83 -29 -83 -87v-341c0 -58 28 -87 83 -87h91c55 0 83 29 83 87v112c0 7 -3 10 -9 10h-99c-9 0 -14 4 -14 13v37c0 9 5 14 14 14h161c13 0 20 -7 20 -21v-168c0 -93 -55 -148 -147 -148z" />
    <glyph glyph-name="uni0123" unicode="&#x123;" horiz-adv-x="510" 
d="M262 27h-56c-91 0 -144 55 -144 148v187c0 93 56 148 148 148h217c9 0 14 -5 14 -14v-496c0 -92 -56 -148 -148 -148h-184c-10 0 -15 5 -15 14v37c0 9 5 14 15 14h175c56 0 84 29 84 86v77h-4c-17 -35 -51 -53 -102 -53zM368 183v254c0 6 -3 9 -10 9h-139
c-56 0 -84 -29 -84 -87v-181c0 -58 28 -87 84 -87h56c60 0 93 33 93 92zM238 587v47c0 19 5 38 15 58l33 80c3 5 7 8 11 8c7 0 11 -4 11 -13v-180c0 -9 -4 -13 -13 -13h-44c-9 0 -13 4 -13 13z" />
    <glyph glyph-name="hcircumflex" unicode="&#x125;" horiz-adv-x="512" 
d="M383 641h-34c-7 0 -11 3 -14 8l-47 87l-48 -87c-3 -5 -7 -8 -13 -8h-34c-9 0 -11 4 -6 11l63 108c5 7 12 10 21 10h34c9 0 15 -3 20 -10l64 -108c5 -7 3 -11 -6 -11zM128 0h-45c-9 0 -14 5 -14 14v675c0 9 5 14 14 14h45c9 0 14 -5 14 -14v-232h4c17 35 51 53 102 53h56
c91 0 144 -55 144 -148v-348c0 -9 -5 -14 -14 -14h-45c-9 0 -14 5 -14 14v345c0 58 -28 87 -84 87h-56c-60 0 -93 -33 -93 -92v-340c0 -9 -5 -14 -14 -14z" />
    <glyph glyph-name="Hbar" unicode="&#x126;" horiz-adv-x="548" 
d="M148 0h-45c-9 0 -14 5 -14 14v434c0 6 -3 9 -10 9h-41c-9 0 -14 5 -14 14v29c0 9 5 14 14 14h41c7 0 10 3 10 10v105c0 9 5 14 14 14h45c9 0 14 -5 14 -14v-105c0 -7 3 -10 10 -10h248c7 0 10 3 10 9v106c0 9 5 14 14 14h44c10 0 15 -5 15 -14v-105c0 -7 3 -10 10 -10h41
c9 0 14 -5 14 -14v-29c0 -9 -5 -14 -14 -14h-41c-7 0 -10 -3 -10 -9v-434c0 -9 -5 -14 -15 -14h-44c-9 0 -14 5 -14 14v262c0 6 -3 9 -10 9h-248c-7 0 -10 -3 -10 -9v-262c0 -9 -5 -14 -14 -14zM172 349h248c7 0 10 3 10 10v89c0 6 -3 9 -10 9h-248c-7 0 -10 -3 -10 -9v-89
c0 -7 3 -10 10 -10z" />
    <glyph glyph-name="hbar" unicode="&#x127;" horiz-adv-x="552" 
d="M163 0h-45c-9 0 -14 5 -14 14v526c0 7 -3 10 -10 10h-61c-9 0 -14 4 -14 13v30c0 9 5 13 14 13h61c7 0 10 3 10 10v73c0 9 5 14 14 14h45c9 0 14 -5 14 -14v-73c0 -7 3 -10 10 -10h152c9 0 14 -4 14 -13v-30c0 -9 -5 -13 -14 -13h-152c-7 0 -10 -3 -10 -10v-142h4
c15 35 49 53 102 53h56c92 0 148 -56 148 -148v-289c0 -9 -5 -14 -15 -14h-44c-9 0 -14 5 -14 14v286c0 58 -28 87 -84 87h-60c-60 0 -93 -33 -93 -92v-281c0 -9 -5 -14 -14 -14z" />
    <glyph glyph-name="Itilde" unicode="&#x128;" horiz-adv-x="240" 
d="M157 629c0 9 -5 14 -14 14h-45c-9 0 -14 -5 -14 -14v-615c0 -9 5 -14 14 -14h45c9 0 14 5 14 14v615zM235 750c0 -41 -18 -58 -59 -58c-53 0 -58 5 -73 27c-21 34 -42 52 -39 9v-26c0 -9 -2 -9 -11 -9h-30c-8 0 -12 0 -12 9v29c0 42 17 59 59 59c39 0 56 -11 71 -38
c18 -32 39 -42 39 2v24c0 7 3 9 12 9h31c9 0 12 -2 12 -9v-28z" />
    <glyph glyph-name="itilde" unicode="&#x129;" horiz-adv-x="221" 
d="M74 14c0 -9 5 -14 14 -14h45c9 0 14 5 14 14v482c0 9 -5 14 -14 14h-46c-9 0 -13 -5 -13 -14v-482zM225 632c0 -41 -18 -58 -59 -58c-53 0 -58 5 -73 27c-21 34 -42 52 -39 9v-26c0 -9 -2 -9 -11 -9h-30c-8 0 -12 0 -12 9v29c0 42 17 59 59 59c39 0 56 -11 71 -38
c18 -32 39 -42 39 2v24c0 7 3 9 12 9h31c9 0 12 -2 12 -9v-28z" />
    <glyph glyph-name="Imacron" unicode="&#x12a;" horiz-adv-x="240" 
d="M221 746h-201c-9 0 -14 5 -14 14v26c0 9 5 14 14 14h201c9 0 14 -5 14 -14v-26c0 -9 -5 -14 -14 -14zM157 629v-615c0 -9 -5 -14 -14 -14h-45c-9 0 -14 5 -14 14v615c0 9 5 14 14 14h45c9 0 14 -5 14 -14z" />
    <glyph glyph-name="imacron" unicode="&#x12b;" horiz-adv-x="219" 
d="M210 613h-201c-9 0 -14 5 -14 14v24c0 9 5 14 14 14h201c9 0 14 -5 14 -14v-24c0 -9 -5 -14 -14 -14zM74 14v482c0 9 4 14 13 14h46c9 0 14 -5 14 -14v-482c0 -9 -5 -14 -14 -14h-45c-9 0 -14 5 -14 14z" />
    <glyph glyph-name="Ibreve" unicode="&#x12c;" horiz-adv-x="241" 
d="M16 813v12c0 7 4 11 11 11h28c7 0 10 -4 10 -11v-10c0 -49 14 -68 53 -68h5c40 0 55 19 55 68v10c0 7 3 10 10 10h26c7 0 11 -3 11 -10v-12c0 -71 -32 -106 -96 -106h-17c-64 0 -96 35 -96 106zM157 629v-615c0 -9 -5 -14 -14 -14h-45c-9 0 -14 5 -14 14v615
c0 9 5 14 14 14h45c9 0 14 -5 14 -14z" />
    <glyph glyph-name="ibreve" unicode="&#x12d;" horiz-adv-x="221" 
d="M74 14v482c0 9 4 14 13 14h46c9 0 14 -5 14 -14v-482c0 -9 -5 -14 -14 -14h-45c-9 0 -14 5 -14 14zM6 680v12c0 7 4 11 11 11h28c7 0 10 -4 10 -11v-10c0 -49 14 -68 53 -68h5c40 0 55 19 55 68v10c0 7 3 10 10 10h26c7 0 11 -3 11 -10v-12c0 -71 -32 -106 -96 -106h-17
c-64 0 -96 35 -96 106z" />
    <glyph glyph-name="Iogonek" unicode="&#x12e;" horiz-adv-x="241" 
d="M98 643h45c9 0 14 -5 14 -14v-615c0 -9 -5 -14 -14 -14h-6l-49 -67h40c20 0 25 -3 25 -14c0 -17 -41 -30 -78 -30c-36 0 -46 23 -29 44l48 67c-7 1 -10 6 -10 14v615c0 9 5 14 14 14z" />
    <glyph glyph-name="iogonek" unicode="&#x12f;" horiz-adv-x="221" 
d="M87 702h46c9 0 14 -5 14 -14v-94c0 -9 -5 -14 -14 -14h-46c-9 0 -13 5 -13 14v94c0 9 4 14 13 14zM87 510h46c9 0 14 -5 14 -14v-482c0 -9 -5 -14 -14 -14h-9c-34 -46 -50 -69 -47 -69c18 0 32 1 41 2c19 0 25 -2 22 -13c-1 -19 -42 -34 -75 -34s-39 34 -22 54l41 60
c-7 1 -10 5 -10 14v482c0 9 4 14 13 14z" />
    <glyph glyph-name="Idot" unicode="&#x130;" horiz-adv-x="241" 
d="M157 629v-615c0 -9 -5 -14 -14 -14h-45c-9 0 -14 5 -14 14v615c0 9 5 14 14 14h45c9 0 14 -5 14 -14zM84 706v93c0 9 4 14 13 14h46c9 0 14 -4 14 -13v-94c0 -9 -5 -14 -14 -14h-46c-9 0 -13 5 -13 14z" />
    <glyph glyph-name="dotlessi" unicode="&#x131;" horiz-adv-x="225" 
d="M76 14v482c0 9 4 14 13 14h46c9 0 13 -5 13 -14v-482c0 -9 -4 -14 -13 -14h-46c-9 0 -13 5 -13 14z" />
    <glyph glyph-name="IJ" unicode="&#x132;" horiz-adv-x="730" 
d="M599 643h45c9 0 14 -4 14 -13v-482c0 -92 -56 -148 -148 -148h-100c-91 0 -147 55 -147 148v86c0 9 4 14 13 14h46c9 0 13 -5 13 -14v-83c0 -58 28 -87 84 -87h82c56 0 84 29 84 87v478c0 9 5 14 14 14zM158 629v-615c0 -9 -4 -14 -13 -14h-46c-9 0 -13 5 -13 14v615
c0 9 4 14 13 14h46c9 0 13 -5 13 -14z" />
    <glyph glyph-name="ij" unicode="&#x133;" horiz-adv-x="440" 
d="M74 14v482c0 9 4 14 13 14h46c9 0 14 -5 14 -14v-482c0 -9 -5 -14 -14 -14h-45c-9 0 -14 5 -14 14zM74 594v94c0 9 4 14 13 14h46c9 0 14 -5 14 -14v-94c0 -9 -5 -14 -14 -14h-46c-9 0 -13 5 -13 14zM292 594v94c0 9 5 14 14 14h46c9 0 13 -5 13 -14v-94
c0 -9 -4 -14 -13 -14h-46c-9 0 -14 5 -14 14zM217 -148h-40c-9 0 -14 5 -14 14v37c0 9 5 14 14 14h23c64 0 92 30 92 94v485c0 9 5 14 15 14h44c9 0 14 -5 14 -14v-495c0 -92 -56 -149 -148 -149z" />
    <glyph glyph-name="Jcircumflex" unicode="&#x134;" horiz-adv-x="496" 
d="M373 643h45c9 0 13 -4 13 -13v-482c0 -93 -56 -148 -147 -148h-100c-92 0 -148 56 -148 148v86c0 9 5 14 14 14h45c9 0 14 -5 14 -14v-83c0 -58 28 -87 84 -87h82c56 0 84 29 84 87v478c0 9 5 14 14 14zM488 707h-34c-7 0 -11 3 -14 8l-47 88l-48 -88c-2 -5 -7 -8 -14 -8
h-33c-9 0 -11 4 -6 12l63 107c5 7 12 10 21 10h34c9 0 15 -3 20 -10l63 -107c5 -8 3 -12 -5 -12z" />
    <glyph glyph-name="jcircumflex" unicode="&#x135;" horiz-adv-x="219" 
d="M204 574h-34c-7 0 -11 3 -14 8l-47 88l-48 -88c-2 -5 -6 -8 -13 -8h-34c-9 0 -11 4 -6 12l63 107c5 7 12 10 21 10h34c9 0 15 -3 20 -10l64 -107c5 -8 3 -12 -6 -12zM-1 -148h-41c-9 0 -14 5 -14 14v37c0 9 5 14 14 14h23c62 0 93 31 93 94v485c0 9 5 14 14 14h45
c9 0 14 -5 14 -14v-495c0 -92 -56 -149 -148 -149z" />
    <glyph glyph-name="uni0136" unicode="&#x136;" horiz-adv-x="538" 
d="M330 -45v-47c0 -18 -5 -37 -14 -58l-33 -80c-3 -5 -7 -8 -12 -8c-7 0 -10 4 -10 12v180c0 9 4 14 13 14h43c9 0 13 -4 13 -13zM138 0h-45c-9 0 -14 5 -14 14v615c0 9 5 14 14 14h45c9 0 14 -5 14 -14v-345h3c5 14 12 28 22 41l224 304c6 9 15 14 26 14h54
c11 0 13 -5 5 -15l-198 -268l226 -344c7 -11 4 -16 -9 -16h-41c-14 0 -24 5 -29 14l-192 293l-91 -109v-184c0 -9 -5 -14 -14 -14z" />
    <glyph glyph-name="uni0137" unicode="&#x137;" horiz-adv-x="443" 
d="M358 510h50c11 0 15 -7 8 -16l-147 -228v-4l162 -246c5 -9 1 -16 -10 -16h-47c-13 0 -22 5 -28 14l-154 238c-4 7 -4 14 0 21l142 224c4 9 12 13 24 13zM128 0h-45c-9 0 -14 5 -14 14v675c0 9 5 14 14 14h45c9 0 14 -5 14 -14v-675c0 -9 -5 -14 -14 -14zM278 -45v-47
c0 -17 -5 -36 -15 -58l-33 -80c-3 -5 -7 -8 -12 -8c-7 0 -10 4 -10 12v180c0 9 4 14 13 14h44c9 0 13 -4 13 -13z" />
    <glyph glyph-name="Lacute" unicode="&#x139;" horiz-adv-x="451" 
d="M172 836h60c9 0 12 -6 7 -14l-88 -105c-5 -7 -12 -10 -19 -10h-33c-10 0 -12 5 -7 14l58 102c5 9 12 13 22 13zM414 0h-321c-9 0 -14 5 -14 14v615c0 9 5 14 14 14h45c9 0 14 -5 14 -14v-554c0 -6 3 -9 10 -9h252c9 0 14 -5 14 -15v-37c0 -9 -5 -14 -14 -14z" />
    <glyph glyph-name="lacute" unicode="&#x13a;" horiz-adv-x="217" 
d="M164 879h61c8 0 11 -6 6 -14l-87 -105c-7 -7 -14 -10 -21 -10h-32c-9 0 -11 5 -6 14l58 102c4 9 11 13 21 13zM133 0h-45c-9 0 -14 5 -14 14v675c0 9 5 14 14 14h45c9 0 14 -5 14 -14v-675c0 -9 -5 -14 -14 -14z" />
    <glyph glyph-name="uni013B" unicode="&#x13b;" horiz-adv-x="451" 
d="M287 -45v-47c0 -17 -5 -36 -15 -58l-33 -80c-3 -5 -7 -8 -12 -8c-7 0 -10 4 -10 12v180c0 9 4 14 13 14h44c9 0 13 -4 13 -13zM414 0h-321c-9 0 -14 5 -14 14v615c0 9 5 14 14 14h45c9 0 14 -5 14 -14v-554c0 -6 3 -9 10 -9h252c9 0 14 -5 14 -15v-37
c0 -9 -5 -14 -14 -14z" />
    <glyph glyph-name="uni013C" unicode="&#x13c;" horiz-adv-x="221" 
d="M146 -45v-47c0 -19 -5 -38 -15 -58l-33 -80c-3 -5 -7 -8 -11 -8c-7 0 -11 4 -11 12v180c0 9 4 14 13 14h44c9 0 13 -4 13 -13zM133 0h-45c-9 0 -14 5 -14 14v675c0 9 5 14 14 14h45c9 0 14 -5 14 -14v-675c0 -9 -5 -14 -14 -14z" />
    <glyph glyph-name="Lcaron" unicode="&#x13d;" horiz-adv-x="451" 
d="M371 630v-58c0 -15 -5 -37 -14 -65l-34 -95c-2 -5 -6 -7 -11 -7c-7 0 -11 4 -11 12v212c0 9 4 14 13 14h44c9 0 13 -4 13 -13zM414 0h-321c-9 0 -14 5 -14 14v615c0 9 5 14 14 14h45c9 0 14 -5 14 -14v-554c0 -6 3 -9 10 -9h252c9 0 14 -5 14 -15v-37
c0 -9 -5 -14 -14 -14z" />
    <glyph glyph-name="lcaron" unicode="&#x13e;" horiz-adv-x="298" 
d="M286 690v-58c0 -17 -5 -38 -15 -65l-33 -95c-5 -9 -22 -11 -22 5v212c0 9 4 14 13 14h43c9 0 14 -4 14 -13zM133 0h-45c-9 0 -14 5 -14 14v675c0 9 5 14 14 14h45c9 0 14 -5 14 -14v-675c0 -9 -5 -14 -14 -14z" />
    <glyph glyph-name="Ldot" unicode="&#x13f;" horiz-adv-x="499" 
d="M417 0h-321c-9 0 -13 5 -13 14v615c0 9 4 14 13 14h45c9 0 14 -5 14 -14v-554c0 -6 4 -9 11 -9h251c9 0 14 -5 14 -15v-37c0 -9 -5 -14 -14 -14zM357 374v-110c0 -9 -4 -14 -13 -14h-51c-9 0 -13 5 -13 15v108c0 9 4 14 13 14h51c9 0 13 -4 13 -13z" />
    <glyph glyph-name="ldot" unicode="&#x140;" horiz-adv-x="339" 
d="M136 0h-45c-9 0 -13 5 -13 14v675c0 9 4 14 13 14h45c9 0 14 -5 14 -14v-675c0 -9 -5 -14 -14 -14zM303 374v-110c0 -9 -4 -14 -12 -14h-51c-9 0 -14 5 -14 15v108c0 9 5 14 14 14h51c8 0 12 -4 12 -13z" />
    <glyph glyph-name="Lslash" unicode="&#x141;" horiz-adv-x="507" 
d="M430 0h-321c-9 0 -14 5 -14 14v336l-70 -40c-9 -5 -14 -3 -14 8v37c0 9 5 15 14 20l70 40v214c0 9 5 14 14 14h45c9 0 14 -5 14 -14v-172l95 53c9 5 14 3 14 -8v-38c0 -9 -5 -15 -14 -20l-95 -54v-315c0 -6 3 -9 10 -9h252c9 0 14 -5 14 -15v-37c0 -9 -5 -14 -14 -14z
" />
    <glyph glyph-name="lslash" unicode="&#x142;" horiz-adv-x="304" 
d="M174 0h-45c-9 0 -14 5 -14 14v343l-79 -45c-9 -4 -13 -1 -13 8v40c0 8 4 14 13 19l79 44v266c0 9 5 14 14 14h45c9 0 14 -5 14 -14v-224l79 45c9 5 14 3 14 -8v-38c0 -9 -5 -16 -14 -21l-79 -45v-384c0 -9 -5 -14 -14 -14z" />
    <glyph glyph-name="Nacute" unicode="&#x143;" horiz-adv-x="581" 
d="M350 836h60c9 0 12 -6 7 -14l-87 -105c-5 -7 -12 -10 -20 -10h-33c-9 0 -11 5 -6 14l58 102c5 9 12 13 21 13zM137 0h-44c-9 0 -14 5 -14 14v615c0 9 5 14 14 14h41c8 0 13 -3 16 -8l276 -485h4v479c0 9 5 14 14 14h44c9 0 14 -5 14 -14v-615c0 -9 -5 -14 -14 -14h-37
c-7 0 -14 4 -21 13l-275 480h-4v-479c0 -9 -5 -14 -14 -14z" />
    <glyph glyph-name="nacute" unicode="&#x144;" horiz-adv-x="512" 
d="M315 703h61c8 0 13 -6 6 -14l-87 -105c-5 -7 -12 -10 -20 -10h-33c-9 0 -11 5 -6 14l58 102c5 9 12 13 21 13zM128 0h-45c-9 0 -14 5 -14 14v482c0 9 5 14 14 14h45c9 0 14 -5 14 -14v-39h4c17 35 51 53 102 53h56c91 0 144 -55 144 -148v-348c0 -9 -5 -14 -14 -14h-45
c-9 0 -14 5 -14 14v345c0 58 -28 87 -84 87h-56c-60 0 -93 -33 -93 -92v-340c0 -9 -5 -14 -14 -14z" />
    <glyph glyph-name="uni0145" unicode="&#x145;" horiz-adv-x="581" 
d="M330 -45v-47c0 -17 -5 -36 -15 -58l-33 -80c-3 -5 -7 -8 -12 -8c-7 0 -10 4 -10 12v180c0 9 4 14 13 14h43c9 0 14 -4 14 -13zM137 0h-44c-9 0 -14 5 -14 14v615c0 9 5 14 14 14h41c8 0 13 -3 16 -8l276 -485h4v479c0 9 5 14 14 14h44c9 0 14 -5 14 -14v-615
c0 -9 -5 -14 -14 -14h-37c-7 0 -14 4 -21 13l-275 480h-4v-479c0 -9 -5 -14 -14 -14z" />
    <glyph glyph-name="uni0146" unicode="&#x146;" horiz-adv-x="510" 
d="M294 -45v-47c0 -17 -5 -36 -15 -58l-33 -80c-3 -5 -7 -8 -12 -8c-7 0 -10 4 -10 12v180c0 9 4 14 13 14h44c9 0 13 -4 13 -13zM128 0h-45c-9 0 -14 5 -14 14v482c0 9 5 14 14 14h45c9 0 14 -5 14 -14v-39h4c17 35 51 53 102 53h56c91 0 144 -55 144 -148v-348
c0 -9 -5 -14 -14 -14h-45c-9 0 -14 5 -14 14v345c0 58 -28 87 -84 87h-56c-60 0 -93 -33 -93 -92v-340c0 -9 -5 -14 -14 -14z" />
    <glyph glyph-name="Ncaron" unicode="&#x147;" horiz-adv-x="581" 
d="M137 0h-44c-9 0 -14 5 -14 14v615c0 9 5 14 14 14h41c8 0 13 -3 16 -8l276 -485h4v479c0 9 5 14 14 14h44c9 0 14 -5 14 -14v-615c0 -9 -5 -14 -14 -14h-37c-7 0 -14 4 -21 13l-275 480h-4v-479c0 -9 -5 -14 -14 -14zM312 707h-35c-9 0 -15 3 -20 10l-63 107
c-5 8 -3 12 5 12h34c7 0 11 -3 14 -8l47 -88l48 88c2 5 6 8 13 8h35c8 0 10 -4 5 -12l-63 -107c-5 -7 -11 -10 -20 -10z" />
    <glyph glyph-name="ncaron" unicode="&#x148;" horiz-adv-x="512" 
d="M275 574h-33c-9 0 -16 3 -21 10l-63 107c-5 8 -3 12 5 12h34c7 0 11 -3 14 -8l47 -88l48 88c2 5 7 8 14 8h34c8 0 10 -4 5 -12l-63 -107c-5 -7 -12 -10 -21 -10zM128 0h-45c-9 0 -14 5 -14 14v482c0 9 5 14 14 14h45c9 0 14 -5 14 -14v-39h4c17 35 51 53 102 53h56
c91 0 144 -55 144 -148v-348c0 -9 -5 -14 -14 -14h-45c-9 0 -14 5 -14 14v345c0 58 -28 87 -84 87h-56c-60 0 -93 -33 -93 -92v-340c0 -9 -5 -14 -14 -14z" />
    <glyph glyph-name="Eng" unicode="&#x14a;" horiz-adv-x="539" 
d="M358 -150h-41c-9 0 -14 5 -14 14v36c0 9 5 14 14 14h23c64 0 92 30 92 95v4c-20 34 -64 112 -132 233s-115 204 -141 247h-4v-479c0 -9 -5 -14 -14 -14h-45c-9 0 -13 5 -13 14v615c0 9 4 14 13 14h42c8 0 13 -3 16 -8l275 -485h4v479c0 9 5 14 14 14h45c9 0 14 -5 14 -14
v-631c0 -92 -57 -148 -148 -148z" />
    <glyph glyph-name="eng" unicode="&#x14b;" horiz-adv-x="512" 
d="M300 -150h-41c-9 0 -14 5 -14 14v36c0 9 5 14 14 14h24c64 0 92 30 92 95v350c0 58 -28 87 -84 87h-56c-60 0 -93 -33 -93 -92v-340c0 -9 -5 -14 -14 -14h-45c-9 0 -14 5 -14 14v482c0 9 5 14 14 14h45c9 0 14 -5 14 -14v-39h4c17 35 51 53 102 53h52
c92 0 148 -56 148 -148v-364c0 -92 -57 -148 -148 -148z" />
    <glyph glyph-name="Omacron" unicode="&#x14c;" horiz-adv-x="553" 
d="M377 746h-202c-9 0 -14 5 -14 14v26c0 9 5 14 14 14h202c9 0 14 -5 14 -14v-26c0 -9 -5 -14 -14 -14zM225 64h102c56 0 84 29 84 87v341c0 58 -28 87 -84 87h-102c-55 0 -83 -29 -83 -87v-341c0 -58 28 -87 83 -87zM336 0h-119c-92 0 -148 55 -148 148v347
c0 93 56 148 148 148h119c92 0 148 -56 148 -148v-347c0 -92 -56 -148 -148 -148z" />
    <glyph glyph-name="omacron" unicode="&#x14d;" horiz-adv-x="500" 
d="M350 613h-201c-9 0 -14 5 -14 14v24c0 9 5 14 14 14h201c9 0 14 -5 14 -14v-24c0 -9 -5 -14 -14 -14zM293 0h-86c-92 0 -148 55 -148 148v214c0 93 56 148 148 148h86c92 0 148 -55 148 -148v-214c0 -93 -56 -148 -148 -148zM215 64h70c56 0 84 29 84 86v210
c0 57 -28 86 -84 86h-70c-56 0 -84 -29 -84 -86v-210c0 -57 28 -86 84 -86z" />
    <glyph glyph-name="Obreve" unicode="&#x14e;" horiz-adv-x="553" 
d="M172 813v12c0 7 4 11 11 11h27c7 0 11 -4 11 -11v-10c0 -49 14 -68 53 -68h5c40 0 54 19 54 68v10c0 7 4 10 11 10h26c7 0 11 -3 11 -10v-12c0 -71 -32 -106 -96 -106h-18c-63 0 -95 35 -95 106zM225 64h102c56 0 84 29 84 87v341c0 58 -28 87 -84 87h-102
c-55 0 -83 -29 -83 -87v-341c0 -58 28 -87 83 -87zM336 0h-119c-92 0 -148 55 -148 148v347c0 93 56 148 148 148h119c92 0 148 -56 148 -148v-347c0 -92 -56 -148 -148 -148z" />
    <glyph glyph-name="obreve" unicode="&#x14f;" horiz-adv-x="500" 
d="M215 64h70c56 0 84 29 84 86v210c0 57 -28 86 -84 86h-70c-56 0 -84 -29 -84 -86v-210c0 -57 28 -86 84 -86zM293 0h-86c-92 0 -148 55 -148 148v214c0 93 56 148 148 148h86c92 0 148 -55 148 -148v-214c0 -93 -56 -148 -148 -148zM146 680v12c0 7 3 11 10 11h28
c7 0 11 -4 11 -11v-10c0 -49 13 -68 52 -68h6c40 0 54 19 54 68v10c0 7 4 10 11 10h26c7 0 10 -3 10 -10v-12c0 -71 -32 -106 -95 -106h-18c-63 0 -95 35 -95 106z" />
    <glyph glyph-name="Ohungarumlaut" unicode="&#x150;" horiz-adv-x="553" 
d="M265 836h40c11 0 13 -5 7 -14l-77 -105c-5 -7 -12 -10 -19 -10h-23c-9 0 -11 5 -6 14l56 102c5 9 13 13 22 13zM397 836h40c11 0 14 -5 7 -14l-77 -105c-7 -7 -13 -10 -19 -10h-23c-9 0 -11 5 -6 14l56 102c5 9 13 13 22 13zM225 64h102c56 0 84 29 84 87v341
c0 58 -28 87 -84 87h-102c-55 0 -83 -29 -83 -87v-341c0 -58 28 -87 83 -87zM336 0h-119c-92 0 -148 55 -148 148v347c0 93 56 148 148 148h119c92 0 148 -56 148 -148v-347c0 -92 -56 -148 -148 -148z" />
    <glyph glyph-name="ohungarumlaut" unicode="&#x151;" horiz-adv-x="500" 
d="M242 703h41c11 0 13 -5 6 -14l-77 -105c-5 -7 -11 -10 -18 -10h-24c-8 0 -10 5 -6 14l57 102c5 9 12 13 21 13zM375 703h40c11 0 13 -5 7 -14l-77 -105c-7 -7 -13 -10 -19 -10h-23c-10 0 -12 5 -6 14l56 102c5 9 12 13 22 13zM293 0h-86c-92 0 -148 55 -148 148v214
c0 93 56 148 148 148h86c92 0 148 -55 148 -148v-214c0 -93 -56 -148 -148 -148zM215 64h70c56 0 84 29 84 86v210c0 57 -28 86 -84 86h-70c-56 0 -84 -29 -84 -86v-210c0 -57 28 -86 84 -86z" />
    <glyph glyph-name="OE" unicode="&#x152;" horiz-adv-x="777" 
d="M73 148v347c0 92 56 148 147 148h473c10 0 15 -5 15 -14v-36c0 -9 -5 -14 -15 -14h-241c-7 0 -10 -3 -10 -9v-202c0 -6 3 -9 10 -9h210c9 0 14 -5 14 -14v-36c0 -9 -5 -14 -14 -14h-210c-7 0 -10 -3 -10 -9v-213c0 -6 3 -9 10 -9h241c10 0 15 -5 15 -14v-36
c0 -9 -5 -14 -15 -14h-473c-91 0 -147 55 -147 148zM229 64h130c7 0 11 3 11 9v497c0 6 -4 9 -11 9h-130c-55 0 -83 -29 -83 -87v-341c0 -58 28 -87 83 -87z" />
    <glyph glyph-name="oe" unicode="&#x153;" horiz-adv-x="805" 
d="M286 0h-79c-92 0 -148 55 -148 148v214c0 93 56 148 148 148h75c59 0 101 -21 126 -64c23 43 63 64 122 64h70c92 0 148 -56 148 -148v-127c0 -10 -5 -15 -15 -15h-282c-7 0 -10 -3 -10 -9v-60c0 -58 28 -87 84 -87h203c9 0 14 -5 14 -14v-37c0 -9 -5 -13 -14 -13h-201
c-59 0 -101 22 -126 66c-19 -44 -57 -66 -115 -66zM451 273h214c7 0 10 3 10 10v76c0 58 -28 87 -84 87h-66c-56 0 -84 -29 -84 -87v-76c0 -7 3 -10 10 -10zM215 64h69c56 0 84 29 84 87v208c0 58 -28 87 -84 87h-69c-55 0 -83 -29 -83 -87v-208c0 -58 28 -87 83 -87z" />
    <glyph glyph-name="Racute" unicode="&#x154;" horiz-adv-x="537" 
d="M302 836h61c8 0 11 -6 6 -14l-87 -105c-5 -7 -12 -10 -20 -10h-33c-9 0 -11 5 -6 14l58 102c4 9 11 13 21 13zM138 0h-45c-9 0 -14 5 -14 14v615c0 9 5 14 14 14h230c92 0 149 -56 149 -148v-91c0 -75 -38 -125 -102 -141v-4l116 -243c6 -11 3 -16 -10 -16h-45
c-11 0 -20 5 -25 14l-112 242h-132c-7 0 -10 -3 -10 -9v-233c0 -9 -5 -14 -14 -14zM162 317h151c57 0 86 29 86 86v89c0 58 -29 87 -86 87h-151c-7 0 -10 -3 -10 -9v-244c0 -6 3 -9 10 -9z" />
    <glyph glyph-name="racute" unicode="&#x155;" horiz-adv-x="323" 
d="M212 703h60c9 0 12 -6 7 -14l-87 -105c-7 -7 -13 -10 -20 -10h-33c-9 0 -11 5 -6 14l57 102c6 9 13 13 22 13zM128 0h-45c-9 0 -14 5 -14 14v482c0 9 5 14 14 14h45c9 0 14 -5 14 -14v-40h4c13 29 53 54 104 54h39c9 0 13 -5 13 -14v-37c0 -9 -4 -14 -13 -13h-54
c-60 0 -93 -38 -93 -101v-331c0 -9 -5 -14 -14 -14z" />
    <glyph glyph-name="uni0156" unicode="&#x156;" horiz-adv-x="537" 
d="M308 -45v-47c0 -18 -5 -37 -14 -58l-34 -80c-3 -5 -7 -8 -11 -8c-7 0 -11 4 -11 12v180c0 9 4 14 13 14h44c9 0 13 -4 13 -13zM138 0h-45c-9 0 -14 5 -14 14v615c0 9 5 14 14 14h230c92 0 149 -56 149 -148v-91c0 -75 -38 -125 -102 -141v-4l116 -243
c6 -11 3 -16 -10 -16h-45c-11 0 -20 5 -25 14l-112 242h-132c-7 0 -10 -3 -10 -9v-233c0 -9 -5 -14 -14 -14zM162 317h151c57 0 86 29 86 86v89c0 58 -29 87 -86 87h-151c-7 0 -10 -3 -10 -9v-244c0 -6 3 -9 10 -9z" />
    <glyph glyph-name="uni0157" unicode="&#x157;" horiz-adv-x="323" 
d="M141 -45v-47c0 -19 -5 -38 -15 -58l-33 -80c-3 -5 -7 -8 -11 -8c-7 0 -11 4 -11 12v180c0 9 4 14 13 14h44c9 0 13 -4 13 -13zM128 0h-45c-9 0 -14 5 -14 14v482c0 9 5 14 14 14h45c9 0 14 -5 14 -14v-40h4c13 29 53 54 104 54h39c9 0 13 -5 13 -14v-37
c0 -9 -4 -14 -13 -13h-54c-60 0 -93 -38 -93 -101v-331c0 -9 -5 -14 -14 -14z" />
    <glyph glyph-name="Rcaron" unicode="&#x158;" horiz-adv-x="537" 
d="M273 707h-34c-9 0 -15 3 -20 10l-64 107c-5 8 -3 12 6 12h34c7 0 11 -3 14 -8l47 -88l47 88c3 5 7 8 14 8h35c8 0 10 -4 5 -12l-63 -107c-5 -7 -12 -10 -21 -10zM138 0h-45c-9 0 -14 5 -14 14v615c0 9 5 14 14 14h230c92 0 149 -56 149 -148v-91
c0 -75 -38 -125 -102 -141v-4l116 -243c6 -11 3 -16 -10 -16h-45c-11 0 -20 5 -25 14l-112 242h-132c-7 0 -10 -3 -10 -9v-233c0 -9 -5 -14 -14 -14zM162 317h151c57 0 86 29 86 86v89c0 58 -29 87 -86 87h-151c-7 0 -10 -3 -10 -9v-244c0 -6 3 -9 10 -9z" />
    <glyph glyph-name="rcaron" unicode="&#x159;" horiz-adv-x="323" 
d="M196 574h-34c-9 0 -15 3 -20 10l-64 107c-5 8 -3 12 6 12h34c7 0 11 -3 14 -8l47 -88l47 88c3 5 7 8 14 8h34c9 0 11 -4 6 -12l-64 -107c-5 -7 -11 -10 -20 -10zM128 0h-45c-9 0 -14 5 -14 14v482c0 9 5 14 14 14h45c9 0 14 -5 14 -14v-40h4c13 29 53 54 104 54h39
c9 0 13 -5 13 -14v-37c0 -9 -4 -14 -13 -13h-54c-60 0 -93 -38 -93 -101v-331c0 -9 -5 -14 -14 -14z" />
    <glyph glyph-name="Sacute" unicode="&#x15a;" horiz-adv-x="555" 
d="M72 148v32c0 9 5 14 14 14h45c9 0 14 -5 14 -14v-26c0 -60 30 -90 89 -90h88c59 0 89 31 89 92v34c0 48 -40 79 -119 94c-96 16 -222 36 -220 162v49c0 92 56 148 148 148h111c91 0 148 -56 148 -148v-25c0 -10 -4 -15 -13 -15h-46c-9 0 -13 5 -13 15v18
c0 61 -30 91 -89 91h-85c-59 0 -89 -32 -89 -95v-40c0 -34 22 -57 67 -70c99 -26 272 -26 272 -181v-45c0 -92 -57 -148 -148 -148h-115c-91 0 -148 56 -148 148zM321 836h60c9 0 12 -6 7 -14l-88 -105c-5 -7 -12 -10 -19 -10h-33c-10 0 -12 5 -7 14l58 102c5 9 12 13 22 13
z" />
    <glyph glyph-name="sacute" unicode="&#x15b;" horiz-adv-x="430" 
d="M249 703h60c10 0 12 -5 6 -14l-87 -105c-5 -7 -12 -10 -20 -10h-33c-9 0 -11 5 -6 14l58 102c5 9 12 13 22 13zM242 0h-178c-9 0 -14 5 -14 14v35c0 9 5 13 14 13h168c52 0 78 19 78 58v19c0 35 -17 60 -51 73l-118 50c-68 28 -95 62 -95 125c0 82 45 123 135 123h164
c9 0 14 -5 14 -14v-35c0 -9 -5 -13 -14 -13h-151c-48 0 -73 -23 -73 -50v-17c0 -28 19 -49 57 -64l118 -53c69 -27 89 -67 89 -144c0 -80 -48 -120 -143 -120z" />
    <glyph glyph-name="Scircumflex" unicode="&#x15c;" horiz-adv-x="555" 
d="M72 148v32c0 9 5 14 14 14h45c9 0 14 -5 14 -14v-26c0 -60 30 -90 89 -90h88c59 0 89 31 89 92v34c0 48 -40 79 -119 94c-96 16 -222 36 -220 162v49c0 92 56 148 148 148h111c91 0 148 -56 148 -148v-25c0 -10 -4 -15 -13 -15h-46c-9 0 -13 5 -13 15v18
c0 61 -30 91 -89 91h-85c-59 0 -89 -32 -89 -95v-40c0 -34 22 -57 67 -70c99 -26 272 -26 272 -181v-45c0 -92 -57 -148 -148 -148h-115c-91 0 -148 56 -148 148zM373 707h-34c-7 0 -11 3 -14 8l-47 88l-48 -88c-2 -5 -6 -8 -13 -8h-34c-9 0 -11 4 -6 12l63 107
c5 7 12 10 21 10h34c9 0 15 -3 20 -10l64 -107c5 -8 3 -12 -6 -12z" />
    <glyph glyph-name="scircumflex" unicode="&#x15d;" horiz-adv-x="430" 
d="M307 574h-34c-7 0 -11 3 -14 8l-47 88l-47 -88c-3 -5 -7 -8 -14 -8h-34c-9 0 -11 4 -6 12l63 107c5 7 12 10 21 10h34c9 0 15 -3 20 -10l64 -107c5 -8 3 -12 -6 -12zM242 0h-178c-9 0 -14 5 -14 14v35c0 9 5 13 14 13h168c52 0 78 19 78 58v19c0 35 -17 60 -51 73
l-118 50c-68 28 -95 62 -95 125c0 82 45 123 135 123h164c9 0 14 -5 14 -14v-35c0 -9 -5 -13 -14 -13h-151c-48 0 -73 -23 -73 -50v-17c0 -28 19 -49 57 -64l118 -53c69 -27 89 -67 89 -144c0 -80 -48 -120 -143 -120z" />
    <glyph glyph-name="uni015E" unicode="&#x15e;" horiz-adv-x="555" 
d="M144 484v-40c0 -34 22 -57 67 -70c99 -26 272 -26 272 -181v-45c0 -92 -57 -148 -148 -148h-8l-40 -43v-4c51 0 76 -21 76 -64v-14c0 -42 -28 -63 -85 -63h-31c-9 0 -13 4 -13 13v14c0 9 4 13 13 13h24c39 0 51 6 51 29v2c0 24 -12 31 -51 31h-16c-24 0 -33 25 -17 44
l37 42h-55c-91 0 -148 56 -148 148v32c0 9 5 14 14 14h45c9 0 14 -5 14 -14v-26c0 -60 30 -90 89 -90h88c59 0 89 31 89 92v34c0 48 -40 79 -119 94c-96 16 -222 36 -220 162v49c0 92 56 148 148 148h111c91 0 148 -56 148 -148v-25c0 -10 -4 -15 -13 -15h-46
c-9 0 -13 5 -13 15v18c0 61 -30 91 -89 91h-85c-59 0 -89 -32 -89 -95z" />
    <glyph glyph-name="uni015F" unicode="&#x15f;" horiz-adv-x="430" 
d="M217 -43v-4c51 0 77 -21 77 -64v-14c0 -42 -28 -63 -85 -63h-31c-9 0 -13 4 -13 13v14c0 9 4 13 13 13h24c37 0 50 8 50 29v2c0 24 -11 31 -50 31h-16c-24 0 -34 25 -18 44l37 42h-141c-9 0 -14 5 -14 14v35c0 9 5 13 14 13h168c52 0 78 19 78 58v19c0 35 -17 60 -51 73
l-118 50c-68 28 -95 62 -95 125c0 82 45 123 135 123h164c9 0 14 -5 14 -14v-35c0 -9 -5 -13 -14 -13h-151c-48 0 -73 -23 -73 -50v-17c0 -28 19 -49 57 -64l118 -53c69 -27 89 -67 89 -142c0 -76 -42 -117 -127 -122z" />
    <glyph glyph-name="Scaron" unicode="&#x160;" horiz-adv-x="555" 
d="M72 148v32c0 9 5 14 14 14h45c9 0 14 -5 14 -14v-26c0 -60 30 -90 89 -90h88c59 0 89 31 89 92v34c0 48 -40 79 -119 94c-96 16 -222 36 -220 162v49c0 92 56 148 148 148h111c91 0 148 -56 148 -148v-25c0 -10 -4 -15 -13 -15h-46c-9 0 -13 5 -13 15v18
c0 61 -30 91 -89 91h-85c-59 0 -89 -32 -89 -95v-40c0 -34 22 -57 67 -70c99 -26 272 -26 272 -181v-45c0 -92 -57 -148 -148 -148h-115c-91 0 -148 56 -148 148zM292 707h-35c-9 0 -15 3 -20 10l-63 107c-5 8 -3 12 5 12h34c7 0 11 -3 14 -8l47 -88l48 88c2 5 7 8 14 8h34
c8 0 10 -4 5 -12l-63 -107c-5 -7 -11 -10 -20 -10z" />
    <glyph glyph-name="scaron" unicode="&#x161;" horiz-adv-x="430" 
d="M229 574h-34c-9 0 -16 3 -21 10l-63 107c-5 8 -3 12 6 12h34c7 0 11 -3 14 -8l47 -88l47 88c3 5 7 8 14 8h34c9 0 11 -4 6 -12l-64 -107c-5 -7 -11 -10 -20 -10zM242 0h-178c-9 0 -14 5 -14 14v35c0 9 5 13 14 13h168c52 0 78 19 78 58v19c0 35 -17 60 -51 73l-118 50
c-68 28 -95 62 -95 125c0 82 45 123 135 123h164c9 0 14 -5 14 -14v-35c0 -9 -5 -13 -14 -13h-151c-48 0 -73 -23 -73 -50v-17c0 -28 19 -49 57 -64l118 -53c69 -27 89 -67 89 -144c0 -80 -48 -120 -143 -120z" />
    <glyph glyph-name="uni0162" unicode="&#x162;" horiz-adv-x="427" 
d="M248 -45v-47c0 -18 -5 -37 -14 -58l-33 -80c-3 -5 -7 -8 -12 -8c-7 0 -10 4 -10 12v180c0 9 4 14 13 14h44c8 0 12 -4 12 -13zM236 0h-45c-9 0 -14 5 -14 14v556c0 6 -3 9 -10 9h-136c-10 0 -15 5 -15 14v36c0 9 5 14 15 14h365c10 0 15 -5 15 -14v-36
c0 -9 -5 -14 -15 -14h-136c-7 0 -10 -3 -10 -9v-556c0 -9 -5 -14 -14 -14z" />
    <glyph glyph-name="uni0163" unicode="&#x163;" horiz-adv-x="349" 
d="M242 -45v-47c0 -17 -5 -36 -15 -58l-33 -80c-3 -5 -7 -8 -12 -8c-7 0 -10 4 -10 12v180c0 9 4 14 13 14h44c9 0 13 -4 13 -13zM88 446h-55c-9 0 -14 4 -14 13v37c0 9 5 14 14 14h55c7 0 10 3 10 9v86c0 9 5 14 14 14h45c9 0 13 -5 13 -14v-86c0 -6 4 -9 11 -9h106
c10 0 15 -5 15 -14v-37c0 -9 -5 -13 -15 -13h-106c-7 0 -11 -3 -11 -9v-288c0 -57 29 -85 88 -85h39c10 0 15 -5 15 -14v-37c0 -9 -5 -13 -15 -13h-48c-92 0 -151 54 -151 146v291c0 6 -3 9 -10 9z" />
    <glyph glyph-name="Tcaron" unicode="&#x164;" horiz-adv-x="427" 
d="M232 707h-34c-9 0 -16 3 -21 10l-63 107c-5 8 -3 12 6 12h33c7 0 12 -3 14 -8l48 -88l47 88c3 5 7 8 14 8h34c9 0 11 -4 6 -12l-64 -107c-5 -7 -11 -10 -20 -10zM236 0h-45c-9 0 -14 5 -14 14v556c0 6 -3 9 -10 9h-136c-10 0 -15 5 -15 14v36c0 9 5 14 15 14h365
c10 0 15 -5 15 -14v-36c0 -9 -5 -14 -15 -14h-136c-7 0 -10 -3 -10 -9v-556c0 -9 -5 -14 -14 -14z" />
    <glyph glyph-name="tcaron" unicode="&#x165;" horiz-adv-x="417" 
d="M411 630v-58c0 -13 -5 -35 -15 -65l-33 -95c-5 -9 -22 -11 -22 5v212c0 9 4 14 13 14h44c9 0 13 -4 13 -13zM88 446h-55c-9 0 -14 4 -14 13v37c0 9 5 14 14 14h55c7 0 10 3 10 9v86c0 9 5 14 14 14h45c9 0 13 -5 13 -14v-86c0 -6 4 -9 11 -9h106c10 0 15 -5 15 -14v-37
c0 -9 -5 -13 -15 -13h-106c-7 0 -11 -3 -11 -9v-288c0 -57 29 -85 88 -85h39c10 0 15 -5 15 -14v-37c0 -9 -5 -13 -15 -13h-48c-92 0 -151 54 -151 146v291c0 6 -3 9 -10 9z" />
    <glyph glyph-name="Tbar" unicode="&#x166;" horiz-adv-x="503" 
d="M247 0h-45c-9 0 -14 5 -14 14v289c0 6 -3 9 -10 9h-85c-9 0 -14 5 -14 14v29c0 9 5 14 14 14h85c7 0 10 3 10 10v191c0 6 -3 9 -10 9h-140c-9 0 -14 5 -14 14v36c0 9 5 14 14 14h373c9 0 14 -5 14 -14v-36c0 -9 -5 -14 -14 -14h-140c-7 0 -10 -3 -10 -9v-191
c0 -7 3 -10 10 -10h91c9 0 14 -5 14 -14v-29c0 -9 -5 -14 -14 -14h-91c-7 0 -10 -3 -10 -9v-289c0 -9 -5 -14 -14 -14z" />
    <glyph glyph-name="tbar" unicode="&#x167;" horiz-adv-x="355" 
d="M303 0h-51c-92 0 -152 54 -152 146v101c0 7 -3 10 -10 10h-57c-9 0 -14 4 -14 13v30c0 9 5 14 14 14h57c7 0 10 3 10 9v114c0 6 -3 9 -10 9h-57c-9 0 -14 4 -14 13v37c0 9 5 14 14 14h57c7 0 10 3 10 9v86c0 9 5 14 14 14h45c9 0 14 -5 14 -14v-86c0 -6 3 -9 10 -9h110
c9 0 14 -5 14 -14v-37c0 -9 -5 -13 -14 -13h-110c-7 0 -10 -3 -10 -9v-114c0 -6 3 -9 10 -9h110c9 0 14 -5 14 -14v-30c0 -9 -5 -13 -14 -13h-110c-7 0 -10 -3 -10 -10v-98c0 -57 29 -85 88 -85h42c9 0 14 -5 14 -14v-37c0 -9 -5 -13 -14 -13z" />
    <glyph glyph-name="Utilde" unicode="&#x168;" horiz-adv-x="554" 
d="M421 643c-9 0 -13 -5 -13 -14v-478c0 -58 -28 -87 -84 -87h-94c-55 0 -83 29 -83 87v478c0 9 -5 14 -14 14h-45c-9 0 -14 -5 -14 -14v-481c0 -93 56 -148 148 -148h111c92 0 147 55 147 148v482c0 9 -5 13 -14 13h-45zM392 750c0 -41 -18 -58 -59 -58c-53 0 -58 5 -73 27
c-21 34 -42 52 -39 9v-26c0 -9 -2 -9 -11 -9h-30c-8 0 -12 0 -12 9v29c0 42 17 59 59 59c39 0 56 -11 71 -38c18 -32 39 -42 39 2v24c0 7 3 9 12 9h31c9 0 12 -2 12 -9v-28z" />
    <glyph glyph-name="utilde" unicode="&#x169;" horiz-adv-x="512" 
d="M264 0c51 0 85 18 102 53h4v-39c0 -9 5 -14 14 -14h45c9 0 14 5 14 14v482c0 9 -5 14 -14 14h-45c-9 0 -14 -5 -14 -14v-340c0 -59 -33 -92 -93 -92h-57c-55 0 -83 29 -83 87v345c0 9 -5 14 -14 14h-45c-9 0 -14 -5 -14 -14v-348c0 -93 53 -148 144 -148h56zM364 632
c0 -41 -18 -58 -59 -58c-53 0 -58 5 -73 27c-21 34 -42 52 -39 9v-26c0 -9 -2 -9 -11 -9h-30c-8 0 -12 0 -12 9v29c0 42 17 59 59 59c39 0 56 -11 71 -38c18 -32 39 -42 39 2v24c0 7 3 9 12 9h31c9 0 12 -2 12 -9v-28z" />
    <glyph glyph-name="Umacron" unicode="&#x16a;" horiz-adv-x="554" 
d="M378 746h-201c-9 0 -14 5 -14 14v26c0 9 5 14 14 14h201c9 0 14 -5 14 -14v-26c0 -9 -5 -14 -14 -14zM421 643h45c9 0 14 -4 14 -13v-482c0 -93 -55 -148 -147 -148h-111c-92 0 -148 55 -148 148v481c0 9 5 14 14 14h45c9 0 14 -5 14 -14v-478c0 -58 28 -87 83 -87h94
c56 0 84 29 84 87v478c0 9 4 14 13 14z" />
    <glyph glyph-name="umacron" unicode="&#x16b;" horiz-adv-x="512" 
d="M354 613h-201c-9 0 -14 5 -14 14v24c0 9 5 14 14 14h201c9 0 14 -5 14 -14v-24c0 -9 -5 -14 -14 -14zM264 0h-56c-91 0 -144 55 -144 148v348c0 9 5 14 14 14h45c9 0 14 -5 14 -14v-345c0 -58 28 -87 83 -87h57c60 0 93 33 93 92v340c0 9 5 14 14 14h45c9 0 14 -5 14 -14
v-482c0 -9 -5 -14 -14 -14h-45c-9 0 -14 5 -14 14v39h-4c-17 -35 -51 -53 -102 -53z" />
    <glyph glyph-name="Ubreve" unicode="&#x16c;" horiz-adv-x="554" 
d="M173 813v12c0 7 4 11 11 11h28c7 0 10 -4 10 -11v-10c0 -49 14 -68 53 -68h5c40 0 55 19 55 68v10c0 7 3 10 10 10h26c7 0 11 -3 11 -10v-12c0 -71 -32 -106 -96 -106h-17c-64 0 -96 35 -96 106zM421 643h45c9 0 14 -4 14 -13v-482c0 -93 -55 -148 -147 -148h-111
c-92 0 -148 55 -148 148v481c0 9 5 14 14 14h45c9 0 14 -5 14 -14v-478c0 -58 28 -87 83 -87h94c56 0 84 29 84 87v478c0 9 4 14 13 14z" />
    <glyph glyph-name="ubreve" unicode="&#x16d;" horiz-adv-x="512" 
d="M264 0h-56c-91 0 -144 55 -144 148v348c0 9 5 14 14 14h45c9 0 14 -5 14 -14v-345c0 -58 28 -87 83 -87h57c60 0 93 33 93 92v340c0 9 5 14 14 14h45c9 0 14 -5 14 -14v-482c0 -9 -5 -14 -14 -14h-45c-9 0 -14 5 -14 14v39h-4c-17 -35 -51 -53 -102 -53zM150 674v12
c0 7 3 11 10 11h28c7 0 10 -4 10 -11v-11c0 -49 14 -67 53 -67h5c40 0 55 18 55 67v10c0 7 4 11 11 11h26c7 0 10 -4 10 -11v-11c0 -71 -32 -106 -96 -106h-17c-63 0 -95 35 -95 106z" />
    <glyph glyph-name="Uring" unicode="&#x16e;" horiz-adv-x="554" 
d="M292 697h-31c-41 0 -66 25 -66 68v41c0 43 25 66 66 66h31c43 0 68 -25 68 -66v-41c0 -43 -25 -68 -68 -68zM270 730h13c26 0 39 14 39 43v23c0 29 -13 43 -39 43h-13c-26 0 -39 -14 -39 -43v-23c0 -29 13 -43 39 -43zM421 643h45c9 0 14 -4 14 -13v-482
c0 -93 -55 -148 -147 -148h-111c-92 0 -148 55 -148 148v481c0 9 5 14 14 14h45c9 0 14 -5 14 -14v-478c0 -58 28 -87 83 -87h94c56 0 84 29 84 87v478c0 9 4 14 13 14z" />
    <glyph glyph-name="uring" unicode="&#x16f;" horiz-adv-x="512" 
d="M264 0h-56c-91 0 -144 55 -144 148v348c0 9 5 14 14 14h45c9 0 14 -5 14 -14v-345c0 -58 28 -87 83 -87h57c60 0 93 33 93 92v340c0 9 5 14 14 14h45c9 0 14 -5 14 -14v-482c0 -9 -5 -14 -14 -14h-45c-9 0 -14 5 -14 14v39h-4c-17 -35 -51 -53 -102 -53zM192 659v-36
c0 -29 11 -38 40 -38h15c29 0 40 9 40 38v36c0 29 -11 38 -40 38h-15c-29 0 -40 -9 -40 -38zM159 615v54c0 39 21 58 64 58h33c43 0 65 -19 65 -58v-54c0 -39 -22 -59 -65 -59h-33c-43 0 -64 20 -64 59z" />
    <glyph glyph-name="Uhungarumlaut" unicode="&#x170;" horiz-adv-x="554" 
d="M262 836h41c11 0 13 -5 6 -14l-77 -105c-5 -7 -11 -10 -18 -10h-24c-8 0 -10 5 -6 14l57 102c5 9 12 13 21 13zM394 836h41c11 0 13 -5 7 -14l-78 -105c-5 -7 -11 -10 -18 -10h-23c-10 0 -12 5 -7 14l57 102c5 9 12 13 21 13zM421 643h45c9 0 14 -4 14 -13v-482
c0 -93 -55 -148 -147 -148h-111c-92 0 -148 55 -148 148v481c0 9 5 14 14 14h45c9 0 14 -5 14 -14v-478c0 -58 28 -87 83 -87h94c56 0 84 29 84 87v478c0 9 4 14 13 14z" />
    <glyph glyph-name="uhungarumlaut" unicode="&#x171;" horiz-adv-x="512" 
d="M248 703h41c11 0 13 -5 6 -14l-77 -105c-5 -7 -11 -10 -18 -10h-24c-8 0 -10 5 -6 14l57 102c5 9 12 13 21 13zM381 703h40c11 0 13 -5 7 -14l-77 -105c-7 -7 -13 -10 -19 -10h-23c-10 0 -12 5 -7 14l57 102c5 9 12 13 22 13zM264 0h-56c-91 0 -144 55 -144 148v348
c0 9 5 14 14 14h45c9 0 14 -5 14 -14v-345c0 -58 28 -87 83 -87h57c60 0 93 33 93 92v340c0 9 5 14 14 14h45c9 0 14 -5 14 -14v-482c0 -9 -5 -14 -14 -14h-45c-9 0 -14 5 -14 14v39h-4c-17 -35 -51 -53 -102 -53z" />
    <glyph glyph-name="Uogonek" unicode="&#x172;" horiz-adv-x="554" 
d="M421 643h45c9 0 14 -4 14 -13v-482c0 -93 -55 -148 -147 -148h-16l-49 -67h40c21 0 26 -3 26 -14c0 -17 -42 -30 -79 -30c-36 0 -45 23 -28 44l47 67h-52c-92 0 -148 55 -148 148v481c0 9 5 14 14 14h45c9 0 14 -5 14 -14v-478c0 -58 28 -87 83 -87h94c56 0 84 29 84 87
v478c0 9 4 14 13 14z" />
    <glyph glyph-name="uogonek" unicode="&#x173;" horiz-adv-x="502" 
d="M384 510h45c9 0 14 -5 14 -14v-482c0 -9 -5 -14 -14 -14h-30c-34 -46 -50 -69 -47 -69c18 0 32 1 41 2c19 0 25 -2 22 -13c-1 -19 -42 -34 -75 -34s-39 34 -22 54l52 76v37h-4c-17 -35 -51 -53 -102 -53h-56c-91 0 -144 55 -144 148v348c0 9 5 14 14 14h45
c9 0 14 -5 14 -14v-345c0 -58 28 -87 83 -87h57c60 0 93 33 93 92v340c0 9 5 14 14 14z" />
    <glyph glyph-name="Wcircumflex" unicode="&#x174;" horiz-adv-x="798" 
d="M496 707h-34c-7 0 -11 3 -14 8l-47 88l-47 -88c-3 -5 -7 -8 -14 -8h-34c-9 0 -11 4 -6 12l64 107c5 7 11 10 20 10h34c9 0 15 -3 20 -10l63 -107c5 -8 3 -12 -5 -12zM249 0h-77c-9 0 -15 5 -17 14l-128 615c-2 9 2 14 13 14h54c10 0 15 -5 16 -14l101 -551h6l135 552
c2 9 7 13 16 13h60c9 0 14 -4 16 -13l137 -552h6l100 550c2 10 8 15 17 15h54c11 0 15 -5 13 -15l-129 -614c-2 -9 -7 -14 -16 -14h-77c-9 0 -15 5 -17 14l-131 537h-4l-132 -537c-2 -9 -7 -14 -16 -14z" />
    <glyph glyph-name="wcircumflex" unicode="&#x175;" horiz-adv-x="686" 
d="M438 574h-34c-7 0 -11 3 -14 8l-47 88l-48 -88c-2 -5 -7 -8 -14 -8h-33c-9 0 -11 4 -6 12l63 107c5 7 12 10 21 10h34c9 0 15 -3 20 -10l63 -107c5 -8 3 -12 -5 -12zM227 0h-61c-9 0 -15 5 -17 14l-128 482c-2 9 1 14 10 14h51c9 0 14 -5 16 -14l97 -408h6l103 408
c2 9 7 14 16 14h46c9 0 15 -5 18 -14l100 -408h6l98 408c2 9 7 14 16 14h51c9 0 12 -5 10 -14l-128 -482c-2 -9 -8 -14 -17 -14h-62c-9 0 -14 5 -16 14l-97 398h-5l-96 -398c-2 -9 -8 -14 -17 -14z" />
    <glyph glyph-name="Ycircumflex" unicode="&#x176;" horiz-adv-x="500" 
d="M343 707h-34c-7 0 -11 3 -14 8l-47 88l-47 -88c-3 -5 -7 -8 -14 -8h-34c-8 0 -10 4 -5 12l63 107c5 7 11 10 20 10h34c9 0 15 -3 20 -10l64 -107c5 -8 3 -12 -6 -12zM272 0h-45c-9 0 -14 5 -14 14v227l-190 387c-4 9 1 15 9 15h56c7 0 13 -5 17 -14l143 -303h5l142 303
c3 9 8 14 16 14h57c11 0 14 -5 9 -15l-191 -387v-227c0 -9 -5 -14 -14 -14z" />
    <glyph glyph-name="ycircumflex" unicode="&#x177;" horiz-adv-x="463" 
d="M334 574h-34c-7 0 -11 3 -14 8l-47 88l-48 -88c-2 -5 -7 -8 -14 -8h-33c-9 0 -11 4 -6 12l63 107c5 7 11 10 20 10h35c9 0 15 -3 20 -10l63 -107c5 -8 3 -12 -5 -12zM110 -157h-44c-9 0 -14 5 -14 14v37c0 9 5 14 14 14h25c43 0 73 12 90 36c14 19 27 47 38 83h-29
c-8 0 -14 5 -17 14l-147 455c-3 9 1 14 10 14h48c9 0 14 -5 17 -14l129 -412h4l129 412c2 9 7 14 16 14h46c11 0 15 -5 12 -15l-149 -475c-33 -113 -77 -177 -178 -177z" />
    <glyph glyph-name="Ydieresis" unicode="&#x178;" horiz-adv-x="500" 
d="M130 721v101c0 9 4 14 13 14h43c8 0 12 -4 12 -13v-102c0 -9 -4 -14 -12 -14h-43c-9 0 -13 5 -13 14zM301 721v101c0 9 4 14 13 14h43c8 0 12 -4 12 -13v-102c0 -9 -4 -14 -12 -14h-43c-9 0 -13 5 -13 14zM272 0h-45c-9 0 -14 5 -14 14v227l-190 387c-4 9 1 15 9 15h56
c7 0 13 -5 17 -14l143 -303h5l142 303c3 9 8 14 16 14h57c11 0 14 -5 9 -15l-191 -387v-227c0 -9 -5 -14 -14 -14z" />
    <glyph glyph-name="Zacute" unicode="&#x179;" horiz-adv-x="493" 
d="M315 836h60c9 0 12 -6 7 -14l-88 -105c-5 -7 -12 -10 -19 -10h-33c-9 0 -11 5 -7 14l58 102c5 9 12 13 22 13zM44 14v36c0 12 2 21 6 26l310 495v4h-289c-9 0 -14 5 -14 14v40c0 9 5 14 14 14h354c9 0 14 -5 14 -14v-48c0 -11 -3 -20 -8 -28l-302 -481v-4h306
c9 0 14 -4 14 -13v-40c0 -10 -5 -15 -14 -15h-377c-9 0 -14 5 -14 14z" />
    <glyph glyph-name="zacute" unicode="&#x17a;" horiz-adv-x="418" 
d="M280 703h61c8 0 11 -6 6 -14l-87 -105c-7 -7 -14 -10 -21 -10h-32c-9 0 -11 5 -6 14l58 102c4 9 11 13 21 13zM33 14v19c0 12 3 22 10 31l247 378v4h-235c-9 0 -14 5 -14 15v35c0 9 5 14 14 14h307c10 0 15 -5 15 -14v-33c0 -12 -3 -21 -9 -27l-239 -368v-4h242
c9 0 14 -5 14 -15v-35c0 -9 -5 -14 -14 -14h-323c-10 0 -15 5 -15 14z" />
    <glyph glyph-name="Zdotaccent" unicode="&#x17b;" horiz-adv-x="493" 
d="M232 725v97c0 9 4 14 13 14h46c9 0 13 -5 13 -14v-97c0 -9 -4 -14 -13 -14h-46c-9 0 -13 5 -13 14zM44 14v36c0 12 2 21 6 26l310 495v4h-289c-9 0 -14 5 -14 14v40c0 9 5 14 14 14h354c9 0 14 -5 14 -14v-48c0 -11 -3 -20 -8 -28l-302 -481v-4h306c9 0 14 -4 14 -13v-40
c0 -10 -5 -15 -14 -15h-377c-9 0 -14 5 -14 14z" />
    <glyph glyph-name="zdotaccent" unicode="&#x17c;" horiz-adv-x="418" 
d="M193 590v97c0 9 4 14 13 14h46c9 0 14 -4 14 -13v-98c0 -9 -5 -14 -14 -14h-46c-9 0 -13 5 -13 14zM33 14v19c0 12 3 22 10 31l247 378v4h-235c-9 0 -14 5 -14 15v35c0 9 5 14 14 14h307c10 0 15 -5 15 -14v-33c0 -12 -3 -21 -9 -27l-239 -368v-4h242c9 0 14 -5 14 -15
v-35c0 -9 -5 -14 -14 -14h-323c-10 0 -15 5 -15 14z" />
    <glyph glyph-name="Zcaron" unicode="&#x17d;" horiz-adv-x="493" 
d="M281 707h-34c-9 0 -15 3 -20 10l-64 107c-5 8 -3 12 6 12h34c7 0 11 -3 14 -8l47 -88l47 88c3 5 7 8 14 8h34c9 0 11 -4 6 -12l-64 -107c-5 -7 -11 -10 -20 -10zM44 14v36c0 12 2 21 6 26l310 495v4h-289c-9 0 -14 5 -14 14v40c0 9 5 14 14 14h354c9 0 14 -5 14 -14v-48
c0 -11 -3 -20 -8 -28l-302 -481v-4h306c9 0 14 -4 14 -13v-40c0 -10 -5 -15 -14 -15h-377c-9 0 -14 5 -14 14z" />
    <glyph glyph-name="zcaron" unicode="&#x17e;" horiz-adv-x="418" 
d="M246 574h-34c-9 0 -15 3 -20 10l-63 107c-5 8 -3 12 5 12h34c7 0 11 -3 14 -8l47 -88l48 88c2 5 7 8 14 8h33c9 0 11 -4 6 -12l-63 -107c-5 -7 -12 -10 -21 -10zM33 14v19c0 12 3 22 10 31l247 378v4h-235c-9 0 -14 5 -14 15v35c0 9 5 14 14 14h307c10 0 15 -5 15 -14
v-33c0 -12 -3 -21 -9 -27l-239 -368v-4h242c9 0 14 -5 14 -15v-35c0 -9 -5 -14 -14 -14h-323c-10 0 -15 5 -15 14z" />
    <glyph glyph-name="florin" unicode="&#x192;" horiz-adv-x="504" 
d="M71 -133h-38c-11 0 -17 4 -17 13v37c0 9 5 14 16 14h36c49 0 79 29 91 86l67 310c1 7 -2 11 -9 11h-71c-11 0 -16 5 -16 14v36c0 9 5 13 15 13h86c7 0 11 3 13 10l31 145c21 100 73 147 164 147h32c11 0 16 -4 16 -13v-37c0 -9 -5 -14 -15 -14h-34c-52 0 -79 -29 -91 -86
l-31 -142c-1 -7 2 -10 8 -10h89c11 0 17 -4 17 -13v-36c0 -9 -4 -14 -13 -14h-106c-7 0 -11 -3 -12 -9l-69 -323c-20 -93 -73 -139 -159 -139z" />
    <glyph glyph-name="AEacute" unicode="&#x1fc;" horiz-adv-x="775" 
d="M486 836h60c9 0 12 -6 7 -14l-87 -105c-7 -7 -13 -10 -20 -10h-33c-9 0 -11 5 -6 14l58 102c4 9 11 13 21 13zM63 0h-51c-11 0 -13 5 -8 15l320 614c5 9 13 14 23 14h356c9 0 13 -5 13 -14v-36c0 -9 -4 -14 -13 -14h-245c-7 0 -11 -3 -11 -9v-202c0 -6 4 -9 11 -9h213
c10 0 15 -5 15 -14v-36c0 -9 -5 -14 -15 -14h-213c-7 0 -11 -3 -11 -9v-213c0 -6 4 -9 11 -9h245c9 0 13 -5 13 -14v-36c0 -9 -4 -14 -13 -14h-315c-9 0 -13 5 -13 14v147h-216l-78 -147c-4 -9 -10 -14 -18 -14zM189 226h186v344h-4z" />
    <glyph glyph-name="aeacute" unicode="&#x1fd;" horiz-adv-x="784" 
d="M454 703h60c9 0 12 -6 7 -14l-87 -105c-7 -7 -14 -10 -21 -10h-32c-9 0 -11 5 -6 14l58 102c4 9 11 13 21 13zM432 194v-43c0 -58 28 -87 84 -87h196c9 0 14 -5 14 -14v-37c0 -9 -5 -13 -14 -13h-205c-59 0 -99 21 -122 64c-21 -43 -65 -64 -132 -64h-48
c-91 0 -148 54 -148 145v20c0 92 55 145 148 145h146c5 0 8 3 8 8v42c0 57 -28 86 -83 86h-157c-9 0 -14 5 -14 14v36c0 9 5 14 14 14h155c61 0 102 -21 123 -63c21 42 61 63 121 63h61c92 0 147 -55 147 -148v-144c0 -10 -5 -15 -14 -15h-270c-7 0 -10 -3 -10 -9zM661 266
v93c0 58 -28 87 -84 87h-56c-59 0 -89 -28 -89 -84v-96c0 -7 3 -10 10 -10h209c7 0 10 3 10 10zM360 152v93c0 6 -3 9 -10 9h-136c-59 0 -88 -29 -88 -87v-18c0 -59 29 -88 88 -88h53c62 0 93 30 93 91z" />
    <glyph glyph-name="Oslashacute" unicode="&#x1fe;" horiz-adv-x="564" 
d="M491 495v-347c0 -93 -56 -148 -147 -148h-123c-47 0 -84 14 -111 41l-23 -32c-6 -8 -13 -9 -21 -4l-14 11c-7 5 -8 12 -2 21l34 47c-7 20 -11 41 -11 64v347c0 93 56 148 148 148h123c47 0 84 -14 110 -42l23 32c7 8 14 9 21 4l15 -10c7 -5 8 -12 2 -21l-34 -48
c7 -20 10 -41 10 -63zM146 492v-321l264 368c-13 27 -38 40 -75 40h-105c-56 0 -84 -29 -84 -87zM419 151v321l-264 -368c12 -27 37 -40 75 -40h105c56 0 84 29 84 87zM289 707h-33c-9 0 -11 5 -6 14l58 102c5 9 12 13 21 13h61c8 0 13 -6 6 -14l-87 -105
c-5 -7 -12 -10 -20 -10z" />
    <glyph glyph-name="oslashacute" unicode="&#x1ff;" horiz-adv-x="521" 
d="M452 362v-214c0 -92 -56 -148 -148 -148h-87c-56 0 -97 19 -123 56l-34 -34c-7 -7 -14 -7 -20 0l-12 12c-7 7 -7 13 0 20l47 47c-4 14 -6 30 -6 47v214c0 92 56 148 148 148h87c56 0 97 -19 123 -57l34 34c7 7 13 8 20 1l12 -12c7 -7 7 -13 0 -20l-47 -47
c4 -14 6 -30 6 -47zM142 359v-191l230 230c-10 32 -36 48 -77 48h-69c-56 0 -84 -29 -84 -87zM378 151v190l-230 -231c11 -31 37 -46 78 -46h69c55 0 83 29 83 87zM278 574h-33c-9 0 -11 5 -6 14l58 102c5 9 12 13 22 13h59c9 0 12 -6 7 -14l-87 -105c-5 -7 -12 -10 -20 -10
z" />
    <glyph glyph-name="uni0218" unicode="&#x218;" horiz-adv-x="555" 
d="M72 148v32c0 9 5 14 14 14h45c9 0 14 -5 14 -14v-26c0 -60 30 -90 89 -90h88c59 0 89 31 89 92v34c0 48 -40 79 -119 94c-96 16 -222 36 -220 162v49c0 92 56 148 148 148h111c91 0 148 -56 148 -148v-25c0 -10 -4 -15 -13 -15h-46c-9 0 -13 5 -13 15v18
c0 61 -30 91 -89 91h-85c-59 0 -89 -32 -89 -95v-40c0 -34 22 -57 67 -70c99 -26 272 -26 272 -181v-45c0 -92 -57 -148 -148 -148h-115c-91 0 -148 56 -148 148zM320 -45v-47c0 -18 -5 -37 -14 -58l-33 -80c-3 -5 -7 -8 -12 -8c-7 0 -10 4 -10 12v180c0 9 4 14 13 14h43
c9 0 13 -4 13 -13z" />
    <glyph glyph-name="uni0219" unicode="&#x219;" horiz-adv-x="430" 
d="M260 -45v-47c0 -17 -5 -36 -15 -58l-33 -80c-3 -5 -7 -8 -12 -8c-7 0 -10 4 -10 12v180c0 9 4 14 13 14h44c9 0 13 -4 13 -13zM242 0h-178c-9 0 -14 5 -14 14v35c0 9 5 13 14 13h168c52 0 78 19 78 58v19c0 35 -17 60 -51 73l-118 50c-68 28 -95 62 -95 125
c0 82 45 123 135 123h164c9 0 14 -5 14 -14v-35c0 -9 -5 -13 -14 -13h-151c-48 0 -73 -23 -73 -50v-17c0 -28 19 -49 57 -64l118 -53c69 -27 89 -67 89 -144c0 -80 -48 -120 -143 -120z" />
    <glyph glyph-name="circumflex" unicode="&#x2c6;" horiz-adv-x="332" 
d="M261 574h-35c-7 0 -11 3 -14 8l-47 88l-47 -88c-3 -5 -7 -8 -14 -8h-34c-8 0 -10 4 -5 12l63 107c5 7 11 10 20 10h34c9 0 16 -3 21 -10l63 -107c5 -8 3 -12 -5 -12z" />
    <glyph glyph-name="caron" unicode="&#x2c7;" horiz-adv-x="332" 
d="M182 574h-34c-9 0 -15 3 -20 10l-63 107c-5 8 -3 12 5 12h34c7 0 11 -3 14 -8l47 -88l47 88c3 5 7 8 14 8h35c8 0 10 -4 5 -12l-63 -107c-5 -7 -12 -10 -21 -10z" />
    <glyph glyph-name="uni02C9" unicode="&#x2c9;" horiz-adv-x="355" 
d="M278 613h-201c-9 0 -14 5 -14 14v24c0 9 5 14 14 14h201c9 0 14 -5 14 -14v-24c0 -9 -5 -14 -14 -14z" />
    <glyph glyph-name="breve" unicode="&#x2d8;" horiz-adv-x="334" 
d="M63 680v12c0 7 3 11 10 11h28c7 0 10 -4 10 -11v-10c0 -49 14 -68 53 -68h5c40 0 55 19 55 68v10c0 7 3 10 10 10h26c7 0 11 -3 11 -10v-12c0 -71 -32 -106 -96 -106h-17c-63 0 -95 35 -95 106z" />
    <glyph glyph-name="dotaccent" unicode="&#x2d9;" horiz-adv-x="198" 
d="M63 590v97c0 9 4 14 13 14h46c9 0 13 -4 13 -13v-98c0 -9 -4 -14 -13 -14h-46c-9 0 -13 5 -13 14z" />
    <glyph glyph-name="ring" unicode="&#x2da;" horiz-adv-x="290" 
d="M85 659v-36c0 -29 11 -38 40 -38h14c29 0 41 9 41 38v36c0 29 -11 38 -40 38h-15c-29 0 -40 -9 -40 -38zM52 615v54c0 39 21 58 63 58h34c43 0 64 -19 64 -58v-54c0 -39 -21 -59 -64 -59h-34c-42 0 -63 20 -63 59z" />
    <glyph glyph-name="ogonek" unicode="&#x2db;" horiz-adv-x="243" 
d="M112 -69c17 0 31 1 40 2c19 0 24 -2 23 -13c-1 -19 -43 -34 -76 -34c-32 0 -38 34 -22 54l55 80l35 -7c-1 -1 -11 -15 -30 -42c-18 -27 -26 -40 -25 -40z" />
    <glyph glyph-name="tilde" unicode="&#x2dc;" horiz-adv-x="364" 
d="M63 653v38c0 7 3 11 8 11h22c6 0 9 -4 9 -11v-26c-5 -55 26 -54 41 -40c5 5 11 17 19 35c17 36 27 45 66 45c37 0 55 -26 55 -77v-40c0 -7 -3 -11 -8 -11h-22c-6 0 -9 4 -9 11v27c0 39 -6 49 -21 49c-13 0 -15 0 -22 -8c-5 -8 -5 -7 -18 -38s-26 -42 -65 -42
c-37 0 -55 26 -55 77z" />
    <glyph glyph-name="hungarumlaut" unicode="&#x2dd;" horiz-adv-x="389" 
d="M144 703h40c11 0 13 -5 7 -14l-78 -105c-5 -7 -11 -10 -18 -10h-23c-9 0 -11 5 -7 14l57 102c4 9 11 13 22 13zM276 703h40c11 0 13 -5 7 -14l-78 -105c-5 -7 -11 -10 -18 -10h-23c-10 0 -12 5 -7 14l57 102c4 9 11 13 22 13z" />
    <glyph glyph-name="Mu" unicode="&#x39c;" horiz-adv-x="538" 
d="M152 28v-147c0 -9 -4 -14 -13 -14h-46c-9 0 -13 5 -13 14v615c0 9 4 14 13 14h46c9 0 13 -5 13 -14v-345c0 -58 28 -87 84 -87h57c60 0 93 33 93 92v340c0 9 5 14 14 14h44c10 0 15 -5 15 -14v-482c0 -9 -5 -14 -15 -14h-44c-9 0 -14 5 -14 14v39h-4
c-17 -35 -51 -53 -103 -53c-5 0 -38 -1 -47 0c-9 0 -33 2 -44 6c-15 4 -27 11 -36 22z" />
    <glyph glyph-name="Pi" unicode="&#x3a0;" horiz-adv-x="622" 
d="M202 0h-45c-9 0 -14 5 -14 14v555c0 5 -3 8 -10 8h-82c-10 0 -15 5 -15 15v37c0 9 5 14 15 14h521c9 0 14 -5 14 -14v-37c0 -10 -5 -15 -14 -15h-83c-7 0 -10 -3 -10 -9v-554c0 -9 -5 -14 -14 -14h-45c-9 0 -14 5 -14 14v554c0 6 -3 9 -9 9h-171c-7 0 -10 -3 -10 -9v-554
c0 -9 -5 -14 -14 -14z" />
    <glyph glyph-name="Sigma" unicode="&#x3a3;" horiz-adv-x="485" 
d="M62 594v35c0 9 5 14 14 14h338c9 0 14 -5 14 -14v-40c0 -10 -5 -15 -14 -15h-267v-4l153 -233c7 -13 7 -25 0 -37l-153 -228v-4h267c10 0 15 -5 15 -15v-40c0 -9 -5 -13 -15 -13h-338c-9 0 -14 5 -14 14v34c0 11 3 21 8 30l157 239v4l-158 244c-5 7 -7 17 -7 29z" />
    <glyph glyph-name="uni0901" unicode="&#x901;" horiz-adv-x="0" 
d="M-64 690h-95c-79 0 -119 41 -119 124v7c0 13 6 20 17 20h30c11 0 16 -6 16 -19v-7c0 -49 17 -67 66 -67h75c49 0 66 18 66 67v7c0 13 6 19 17 19h28c11 0 17 -7 17 -20v-6c0 -83 -39 -125 -118 -125zM-80 886v-38c0 -10 -5 -15 -14 -15h-34c-9 0 -14 5 -14 15v38
c0 9 5 14 14 14h34c9 0 14 -5 14 -14z" />
    <glyph glyph-name="uni0902" unicode="&#x902;" horiz-adv-x="0" 
d="M-82 790v-48c0 -10 -5 -15 -15 -15h-46c-10 0 -15 5 -15 15v48c0 9 5 14 15 14h46c10 0 15 -5 15 -14z" />
    <glyph glyph-name="uni0903" unicode="&#x903;" horiz-adv-x="249" 
d="M163 425v-47c0 -12 -6 -18 -17 -18h-41c-11 0 -17 6 -17 18v47c0 11 6 17 17 17h41c11 0 17 -6 17 -17zM163 132v-46c0 -12 -6 -18 -17 -18h-41c-11 0 -17 6 -17 18v46c0 12 6 18 17 18h41c11 0 17 -6 17 -18z" />
    <glyph glyph-name="uni0905" unicode="&#x905;" horiz-adv-x="601" 
d="M479 623h125c11 0 16 -5 16 -15v-30c0 -10 -5 -15 -16 -15h-75c-7 0 -10 -3 -10 -10v-538c0 -10 -5 -15 -15 -15h-38c-11 0 -16 5 -16 15v208c0 7 -3 10 -10 10h-116v-45c0 -95 -57 -150 -152 -150h-120c-11 0 -16 5 -16 15v32c0 9 5 14 16 14h116c59 0 89 30 89 89v33
c0 57 -30 86 -89 86h-57c-11 0 -16 5 -16 15v31c0 10 5 15 15 15h58c59 0 89 29 89 87v20c0 59 -30 88 -89 88h-83c-11 0 -16 5 -16 15v30c0 10 5 15 16 15h90c96 0 149 -53 149 -149v-22c0 -57 -21 -94 -64 -112v-4c23 -8 39 -22 50 -43h130c7 0 10 4 10 11v289
c0 17 12 30 29 30z" />
    <glyph glyph-name="uni0906" unicode="&#x906;" horiz-adv-x="833" 
d="M478 623h358c11 0 16 -5 16 -15v-30c0 -10 -5 -15 -16 -15h-75c-7 0 -10 -3 -10 -10v-538c0 -10 -5 -15 -15 -15h-39c-10 0 -15 5 -15 15v538c0 7 -3 10 -10 10h-144c-7 0 -10 -3 -10 -10v-538c0 -10 -5 -15 -15 -15h-38c-11 0 -16 5 -16 15v208c0 7 -3 10 -10 10h-116
v-45c0 -95 -57 -150 -152 -150h-120c-11 0 -16 5 -16 15v32c0 9 5 14 16 14h116c59 0 89 30 89 89v33c0 57 -30 86 -89 86h-57c-11 0 -16 5 -16 15v31c0 10 5 15 15 15h58c59 0 89 29 89 87v20c0 59 -30 88 -89 88h-83c-11 0 -16 5 -16 15v30c0 10 5 15 16 15h90
c96 0 149 -53 149 -149v-22c0 -57 -21 -94 -64 -112v-4c23 -8 39 -22 50 -43h130c7 0 10 4 10 11v289c0 17 12 30 29 30z" />
    <glyph glyph-name="uni0907" unicode="&#x907;" horiz-adv-x="475" 
d="M284 225h-90c-86 0 -129 38 -129 115v16c0 75 48 113 129 113h117c7 0 10 3 10 10v74c0 7 -3 10 -10 10h-314c-11 0 -16 5 -16 15v30c0 10 5 15 16 15h481c11 0 16 -5 16 -15v-30c0 -10 -5 -15 -16 -15h-79c-7 0 -10 -3 -10 -10v-111c0 -23 -12 -34 -35 -34h-156
c-48 0 -66 -15 -66 -58v-10c0 -41 19 -56 66 -56h93c85 0 127 -37 127 -110v-47c0 -76 -46 -117 -127 -117h-81c-39 0 -65 11 -78 33h-4v-77c0 -10 -5 -15 -15 -15h-36c-10 0 -15 5 -15 15v189c0 10 5 15 15 15h36c10 0 15 -5 15 -15v-16c0 -46 24 -69 73 -69h83
c48 0 66 16 66 59v41c0 40 -19 55 -66 55z" />
    <glyph glyph-name="uni0908" unicode="&#x908;" horiz-adv-x="475" 
d="M305 722v-53c0 -36 10 -46 54 -46h119c11 0 16 -5 16 -15v-30c0 -10 -5 -15 -16 -15h-79c-7 0 -10 -3 -10 -10v-111c0 -23 -12 -34 -35 -34h-156c-48 0 -66 -15 -66 -58v-10c0 -41 19 -56 66 -56h93c85 0 127 -37 127 -110v-47c0 -76 -46 -117 -127 -117h-81
c-39 0 -65 11 -78 33h-4v-77c0 -10 -5 -15 -15 -15h-36c-10 0 -15 5 -15 15v189c0 10 5 15 15 15h36c10 0 15 -5 15 -15v-16c0 -46 24 -69 73 -69h83c48 0 66 16 66 59v41c0 40 -19 55 -66 55h-90c-86 0 -129 38 -129 115v16c0 75 48 113 129 113h117c7 0 10 3 10 10v74
c0 7 -3 10 -10 10h-314c-11 0 -16 5 -16 15v30c0 10 5 15 16 15h260v4c-13 7 -20 24 -20 49v48c0 93 57 145 144 145h59c10 0 15 -5 15 -15v-31c0 -10 -5 -15 -15 -15h-56c-53 0 -79 -29 -79 -86z" />
    <glyph glyph-name="uni0909" unicode="&#x909;" horiz-adv-x="468" 
d="M406 211v-57c0 -96 -55 -154 -151 -154h-61c-95 0 -152 58 -152 154v50c0 12 5 18 15 18h38c9 0 14 -6 14 -18v-50c0 -62 31 -93 92 -93h49c59 0 89 32 89 96v41c0 61 -30 92 -89 92h-52c-10 0 -15 5 -15 15v31c0 10 5 15 15 15h50c58 0 87 28 87 85v40
c0 58 -28 87 -85 87h-253c-11 0 -16 5 -16 15v30c0 10 5 15 16 15h474c11 0 16 -5 16 -15v-30c0 -10 -5 -15 -16 -15h-110v-4c28 -14 42 -42 42 -85v-43c0 -55 -20 -91 -61 -108v-4c43 -18 64 -54 64 -108z" />
    <glyph glyph-name="uni090A" unicode="&#x90a;" horiz-adv-x="659" 
d="M-3 623h665c11 0 16 -5 16 -15v-30c0 -10 -5 -15 -16 -15h-301v-4c28 -14 42 -42 42 -85v-43c0 -55 -20 -91 -61 -108v-4h156c81 0 133 -47 133 -132v-51c0 -84 -52 -129 -133 -129h-26c-11 0 -16 5 -16 15v32c0 9 5 14 16 14h12c53 0 80 27 80 82v26c0 54 -27 81 -80 81
h-85c5 -13 7 -29 7 -46v-55c0 -96 -55 -156 -151 -156h-61c-95 0 -152 58 -152 154v50c0 12 5 18 15 18h38c9 0 14 -6 14 -18v-50c0 -62 31 -93 92 -93h49c59 0 89 32 89 96v41c0 61 -30 92 -89 92h-52c-10 0 -15 5 -15 15v31c0 10 5 15 15 15h50c58 0 87 28 87 85v40
c0 58 -28 87 -85 87h-253c-11 0 -16 5 -16 15v30c0 10 5 15 16 15z" />
    <glyph glyph-name="uni090B" unicode="&#x90b;" horiz-adv-x="764" 
d="M-4 623h771c10 0 15 -5 15 -15v-30c0 -10 -5 -15 -15 -15h-341c-7 0 -11 -3 -11 -10v-255l152 118c13 9 24 14 35 14h75c10 0 15 -5 15 -15v-191c0 -13 -8 -19 -23 -19h-28c-45 0 -68 -20 -68 -59v-29c0 -43 21 -58 70 -58h45c13 0 19 -6 19 -17v-26
c0 -11 -7 -16 -20 -16h-51c-87 0 -130 37 -130 111v38c0 69 37 105 112 109c7 0 11 3 11 10v115l-214 -166v-202c0 -10 -5 -15 -15 -15h-38c-10 0 -15 5 -15 15v148l-194 -152c-9 -7 -18 -11 -27 -11h-50c-8 0 -12 4 -12 12c0 6 5 13 15 21l183 143l83 61v50
c0 55 -30 83 -91 83h-39c-60 0 -90 -28 -90 -83v-45c0 -10 -5 -15 -15 -15h-37c-10 0 -15 5 -15 15v48c0 93 55 143 150 143h35c48 0 81 -14 100 -43h4v163c0 7 -3 10 -10 10h-341c-10 0 -15 5 -15 15v30c0 10 5 15 15 15z" />
    <glyph glyph-name="uni090C" unicode="&#x90c;" horiz-adv-x="666" 
d="M672 -112l15 -21c7 -7 9 -17 -8 -30c-34 -31 -79 -46 -136 -46c-99 0 -148 46 -148 139c0 85 40 130 120 134v229c0 63 -25 86 -80 86s-80 -23 -80 -87v-77c0 -11 -5 -16 -15 -16h-36c-10 0 -15 5 -15 16v80c0 61 -25 85 -80 85c-53 0 -80 -27 -80 -91v-103
c0 -61 30 -91 91 -91h35c11 0 16 -5 16 -14v-32c0 -10 -5 -15 -16 -15h-43c-96 0 -150 50 -150 149v110c0 99 55 150 144 150c60 0 98 -21 114 -64h4c13 42 48 63 105 63c41 0 68 -12 82 -36h4v147c0 7 -3 10 -9 10h-509c-11 0 -16 5 -16 15v30c0 10 5 15 16 15h672
c11 0 16 -5 16 -15v-30c0 -10 -5 -15 -16 -15h-75c-7 0 -11 -3 -11 -10v-532c0 -10 -5 -15 -16 -15h-38c-52 0 -69 -22 -69 -78c0 -28 7 -48 20 -59c14 -12 38 -18 72 -18s66 13 96 40c9 7 19 8 24 -3z" />
    <glyph glyph-name="uni090D" unicode="&#x90d;" horiz-adv-x="520" 
d="M-3 623h530c11 0 16 -5 16 -15v-30c0 -10 -5 -15 -16 -15h-55c-7 0 -11 -3 -11 -10v-131c0 -97 -54 -145 -145 -145h-40c-11 0 -16 5 -16 15v31c0 10 5 15 16 15h33c53 0 84 23 84 84v131c0 7 -3 10 -10 10h-222c-7 0 -11 -3 -11 -10v-358c0 -65 38 -102 106 -102h160
c10 0 15 -5 15 -15v-32c0 -10 -5 -15 -15 -16h-171c-100 0 -163 66 -163 162v361c0 7 -3 10 -10 10h-75c-11 0 -16 5 -16 15v30c0 10 5 15 16 15zM311 717h-82c-79 0 -119 41 -119 124v7c0 13 6 20 18 20h29c11 0 16 -6 16 -19v-7c0 -49 17 -67 66 -67h62c49 0 66 18 66 67
v7c0 13 5 19 16 19h30c11 0 17 -7 17 -20v-7c0 -83 -40 -124 -119 -124z" />
    <glyph glyph-name="uni090E" unicode="&#x90e;" horiz-adv-x="521" 
d="M476 623h51c11 0 16 -5 16 -15v-30c0 -10 -5 -15 -16 -15h-55c-7 0 -11 -3 -11 -10v-131c0 -97 -54 -145 -145 -145h-40c-11 0 -16 5 -16 15v31c0 10 5 15 16 15h33c53 0 84 23 84 84v131c0 7 -3 10 -10 10h-222c-7 0 -11 -3 -11 -10v-358c0 -65 38 -102 106 -102h160
c10 0 15 -5 15 -15v-32c0 -10 -5 -15 -15 -16h-171c-100 0 -163 66 -163 162v361c0 7 -3 10 -10 10h-75c-11 0 -16 5 -16 15v30c0 10 5 15 16 15h390c13 0 14 22 -2 35c-8 7 -47 29 -116 64c-59 31 -83 64 -83 121v20c0 10 5 15 15 15h37c10 0 15 -5 15 -15v-16
c0 -41 17 -57 58 -77l63 -32c64 -31 92 -53 92 -104c0 -7 3 -11 10 -11z" />
    <glyph glyph-name="uni090F" unicode="&#x90f;" horiz-adv-x="524" 
d="M-3 623h530c11 0 16 -5 16 -15v-30c0 -10 -5 -15 -16 -15h-55c-7 0 -11 -3 -11 -10v-131c0 -97 -54 -145 -145 -145h-40c-11 0 -16 5 -16 15v31c0 10 5 15 16 15h33c53 0 84 23 84 84v131c0 7 -3 10 -10 10h-222c-7 0 -11 -3 -11 -10v-358c0 -65 38 -102 106 -102h160
c10 0 15 -5 15 -15v-32c0 -10 -5 -15 -15 -16h-171c-100 0 -163 66 -163 162v361c0 7 -3 10 -10 10h-75c-11 0 -16 5 -16 15v30c0 10 5 15 16 15z" />
    <glyph glyph-name="uni0910" unicode="&#x910;" horiz-adv-x="524" 
d="M469 623h58c11 0 16 -5 16 -15v-30c0 -10 -5 -15 -16 -15h-55c-7 0 -11 -3 -11 -10v-131c0 -97 -54 -145 -145 -145h-40c-11 0 -16 5 -16 15v31c0 10 5 15 16 15h33c53 0 84 23 84 84v131c0 7 -3 10 -10 10h-222c-7 0 -11 -3 -11 -10v-358c0 -65 38 -102 106 -102h160
c10 0 15 -5 15 -15v-32c0 -10 -5 -15 -15 -16h-171c-100 0 -163 66 -163 162v361c0 7 -3 10 -10 10h-75c-11 0 -16 5 -16 15v30c0 10 5 15 16 15h399c-37 40 -74 88 -112 145l-59 87c-3 5 -4 9 -4 11c0 8 4 12 13 12h43c9 0 17 -4 22 -13l146 -226c6 -11 14 -16 24 -16z" />
    <glyph glyph-name="uni0911" unicode="&#x911;" horiz-adv-x="834" 
d="M479 623h358c11 0 16 -5 16 -15v-30c0 -10 -5 -15 -16 -15h-75c-7 0 -10 -3 -10 -10v-538c0 -10 -5 -15 -15 -15h-38c-10 0 -15 5 -15 15v538c0 7 -4 10 -11 10h-144c-7 0 -10 -3 -10 -10v-538c0 -10 -5 -15 -15 -15h-38c-11 0 -16 5 -16 15v208c0 7 -3 10 -10 10h-116
v-45c0 -95 -57 -150 -152 -150h-120c-11 0 -16 5 -16 15v32c0 9 5 14 16 14h116c59 0 89 30 89 89v33c0 57 -30 86 -89 86h-57c-11 0 -16 5 -16 15v31c0 10 5 15 15 15h58c59 0 89 29 89 87v20c0 59 -30 88 -89 88h-83c-11 0 -16 5 -16 15v30c0 10 5 15 16 15h90
c96 0 149 -53 149 -149v-22c0 -57 -21 -94 -64 -112v-4c23 -8 39 -22 50 -43h130c7 0 10 4 10 11v289c0 17 12 30 29 30zM649 690h-81c-80 0 -120 41 -120 124v7c0 13 6 20 18 20h29c11 0 16 -6 16 -19v-7c0 -49 17 -67 66 -67h62c49 0 66 18 66 67v7c0 13 6 19 17 19h28
c11 0 17 -7 17 -20v-5c0 -84 -39 -126 -118 -126z" />
    <glyph glyph-name="uni0912" unicode="&#x912;" horiz-adv-x="831" 
d="M764 623h70c11 0 16 -5 16 -15v-30c0 -10 -5 -15 -16 -15h-75c-7 0 -11 -3 -11 -10v-538c0 -10 -5 -15 -15 -15h-38c-10 0 -15 5 -15 15v538c0 7 -3 10 -10 10h-141c-7 0 -10 -3 -10 -10v-538c0 -10 -5 -15 -15 -15h-38c-11 0 -16 5 -16 15v208c0 7 -3 10 -10 10h-116
v-45c0 -95 -57 -150 -152 -150h-120c-11 0 -16 5 -16 15v32c0 9 5 14 16 14h116c59 0 89 30 89 89v33c0 57 -30 86 -89 86h-57c-11 0 -16 5 -16 15v31c0 10 5 15 15 15h58c59 0 89 29 89 87v20c0 59 -30 88 -89 88h-83c-11 0 -16 5 -16 15v30c0 10 5 15 16 15h90
c96 0 149 -53 149 -149v-22c0 -57 -21 -94 -64 -112v-4c23 -8 39 -22 50 -43h130c7 0 10 4 10 11v289c0 17 12 30 29 30h196c13 0 14 22 -2 35c-8 7 -47 29 -116 64c-59 31 -83 64 -83 121v20c0 10 5 15 15 15h37c10 0 15 -5 15 -15v-16c0 -41 17 -57 58 -77l63 -32
c64 -31 92 -53 92 -104c0 -7 3 -11 10 -11z" />
    <glyph glyph-name="uni0913" unicode="&#x913;" horiz-adv-x="834" 
d="M761 623h76c11 0 16 -5 16 -15v-30c0 -10 -5 -15 -16 -15h-75c-7 0 -10 -3 -10 -10v-538c0 -10 -5 -15 -15 -15h-38c-10 0 -15 5 -15 15v538c0 7 -4 10 -11 10h-144c-7 0 -10 -3 -10 -10v-538c0 -10 -5 -15 -15 -15h-38c-11 0 -16 5 -16 15v208c0 7 -3 10 -10 10h-116
v-45c0 -95 -57 -150 -152 -150h-120c-11 0 -16 5 -16 15v32c0 9 5 14 16 14h116c59 0 89 30 89 89v33c0 57 -30 86 -89 86h-57c-11 0 -16 5 -16 15v31c0 10 5 15 15 15h58c59 0 89 29 89 87v20c0 59 -30 88 -89 88h-83c-11 0 -16 5 -16 15v30c0 10 5 15 16 15h90
c96 0 149 -53 149 -149v-22c0 -57 -21 -94 -64 -112v-4c23 -8 39 -22 50 -43h130c7 0 10 4 10 11v289c0 17 12 30 29 30h205v4c-37 41 -73 88 -110 141l-59 87c-2 4 -3 8 -3 11c0 8 4 12 12 12h45c9 0 17 -4 22 -13c101 -157 153 -237 155 -239c3 -2 8 -3 15 -3z" />
    <glyph glyph-name="uni0914" unicode="&#x914;" horiz-adv-x="834" 
d="M760 623h77c11 0 16 -5 16 -15v-30c0 -10 -5 -15 -16 -15h-75c-7 0 -10 -3 -10 -10v-538c0 -10 -5 -15 -15 -15h-38c-10 0 -15 5 -15 15v538c0 7 -4 10 -11 10h-144c-7 0 -10 -3 -10 -10v-538c0 -10 -5 -15 -15 -15h-38c-11 0 -16 5 -16 15v208c0 7 -3 10 -10 10h-116
v-45c0 -95 -57 -150 -152 -150h-120c-11 0 -16 5 -16 15v32c0 9 5 14 16 14h116c59 0 89 30 89 89v33c0 57 -30 86 -89 86h-57c-11 0 -16 5 -16 15v31c0 10 5 15 15 15h58c59 0 89 29 89 87v20c0 59 -30 88 -89 88h-83c-11 0 -16 5 -16 15v30c0 10 5 15 16 15h90
c96 0 149 -53 149 -149v-22c0 -57 -21 -94 -64 -112v-4c23 -8 39 -22 50 -43h130c7 0 10 4 10 11v289c0 17 12 30 29 30h201v4c-28 21 -68 68 -119 141l-59 87c-3 3 -4 7 -4 11c0 8 4 12 13 12h37c13 0 21 -4 26 -13l137 -222l3 2c-19 42 -28 101 -28 177v41
c0 10 5 15 15 15h36c10 0 15 -5 15 -15v-229c0 -7 3 -11 8 -11z" />
    <glyph glyph-name="uni0915" unicode="&#x915;" horiz-adv-x="727" 
d="M397 553v-122h4c14 29 45 44 94 44h30c93 0 150 -56 150 -149v-87c-1 -93 -57 -149 -150 -149h-46c-11 0 -16 5 -16 15v31c0 10 5 15 16 15h38c60 0 90 30 90 91v81c0 59 -33 91 -92 91h-32c-57 0 -86 -28 -86 -84v-314c0 -11 -5 -16 -15 -16h-38c-9 0 -14 5 -14 16v118
h-4c-16 -29 -47 -44 -94 -44h-30c-93 0 -150 56 -150 149v87c0 93 57 149 150 149h46c10 0 15 -5 15 -15v-31c0 -10 -5 -15 -15 -15h-38c-61 0 -91 -30 -91 -91v-81c0 -59 33 -91 92 -91h32c56 0 87 29 87 84v318c0 7 -3 10 -10 10h-323c-11 0 -16 5 -16 15v30
c0 10 5 15 16 15h733c11 0 16 -5 16 -15v-30c0 -10 -5 -15 -16 -15h-323c-7 0 -10 -3 -10 -10z" />
    <glyph glyph-name="uni0916" unicode="&#x916;" horiz-adv-x="705" 
d="M555 15v157h-4c-17 -27 -46 -42 -89 -43h-11c-88 0 -135 54 -135 143v44c0 87 50 140 142 140h18c11 0 16 -5 16 -15v-31c0 -9 -5 -14 -16 -14h-13c-57 0 -80 -28 -80 -88v-32c0 -60 25 -88 82 -88h5c57 0 85 30 85 90v275c0 7 -3 10 -10 10h-271c-7 0 -10 -3 -10 -10
v-152c0 -85 -47 -131 -122 -131h-29l162 -244c3 -5 5 -9 5 -12c0 -9 -5 -14 -14 -14h-41c-6 0 -12 4 -18 11l-152 230l-22 29v43c0 11 6 17 18 17h78c45 0 67 25 67 74v149c0 7 -3 10 -9 10h-190c-11 0 -16 5 -16 15v30c0 10 5 15 16 15h711c11 0 16 -5 16 -15v-30
c0 -10 -5 -15 -16 -15h-75c-7 0 -11 -3 -11 -10v-538c0 -10 -5 -15 -15 -15h-37c-10 0 -15 5 -15 15z" />
    <glyph glyph-name="uni0917" unicode="&#x917;" horiz-adv-x="502" 
d="M-3 623h508c11 0 16 -5 16 -15v-30c0 -10 -5 -15 -16 -15h-75c-7 0 -10 -3 -10 -10v-538c0 -10 -5 -15 -15 -15h-38c-10 0 -15 5 -15 15v538c0 7 -3 10 -10 10h-133c-7 0 -10 -3 -10 -10v-196c0 -99 -52 -148 -143 -148h-20c-10 0 -15 5 -15 15v33c0 10 5 15 15 15h11
c56 0 84 29 84 87v194c0 7 -3 10 -10 10h-124c-11 0 -16 5 -16 15v30c0 10 5 15 16 15z" />
    <glyph glyph-name="uni0918" unicode="&#x918;" horiz-adv-x="554" 
d="M63 451v37c0 35 11 59 32 71v4h-98c-11 0 -16 5 -16 16v29c0 10 5 15 16 15h560c11 0 16 -5 16 -15v-30c0 -10 -5 -15 -16 -15h-75c-7 0 -11 -3 -11 -10v-538c0 -10 -5 -15 -15 -15h-38c-10 0 -15 5 -15 15v111h-4c-15 -32 -46 -48 -94 -48h-102c-89 0 -140 49 -140 138
v37c0 53 20 86 60 99v4c-40 14 -60 46 -60 95zM393 563h-199c-43 0 -64 -24 -64 -71v-37c0 -46 23 -69 69 -69h62c10 0 15 -5 15 -15v-32c0 -10 -5 -15 -15 -15h-62c-46 0 -69 -23 -69 -70v-33c0 -56 26 -81 82 -81h89c68 1 102 34 102 101v312c0 7 -3 10 -10 10z" />
    <glyph glyph-name="uni0919" unicode="&#x919;" horiz-adv-x="517" 
d="M489 356v-43c0 -10 -5 -15 -14 -15h-42c-10 0 -15 5 -15 15v43c0 9 5 14 15 14h42c9 0 14 -5 14 -14zM-3 623h523c10 0 15 -5 15 -15v-30c0 -10 -5 -15 -15 -15h-125c-7 0 -10 -3 -10 -10v-117c0 -21 -15 -34 -35 -34h-150c-48 0 -67 -14 -67 -58v-10
c0 -44 18 -58 67 -58h87c84 0 126 -37 126 -110v-50c0 -76 -46 -116 -126 -116h-91c-89 0 -135 36 -135 128v7c0 12 5 18 16 18h35c9 0 14 -6 14 -18v-7c0 -53 19 -68 75 -68h77c48 0 67 17 67 61v38c0 45 -19 60 -67 60h-83c-88 0 -129 34 -129 111v21c0 75 48 112 129 112
h112c7 0 10 4 10 11v79c0 7 -3 10 -10 10h-310c-11 0 -16 5 -16 15v30c0 10 5 15 16 15z" />
    <glyph glyph-name="uni091A" unicode="&#x91a;" horiz-adv-x="571" 
d="M146 374v4h-108c-11 0 -16 5 -16 15v32c0 10 5 15 16 15h277c11 0 16 -5 16 -15v-32c0 -10 -5 -15 -16 -15h-60c-56 0 -84 -30 -84 -90v-39c0 -60 30 -90 90 -90h66c60 0 93 34 93 94v300c0 7 -3 10 -10 10h-413c-11 0 -16 5 -16 15v30c0 10 5 15 16 15h578
c10 0 15 -5 15 -15v-30c0 -10 -5 -15 -15 -15h-76c-7 0 -10 -3 -10 -10v-537c0 -11 -5 -16 -15 -16h-39c-10 0 -15 5 -15 16v129h-4c-17 -32 -49 -48 -98 -48h-66c-93 0 -149 55 -149 148v38c0 45 14 76 43 91z" />
    <glyph glyph-name="uni091B" unicode="&#x91b;" horiz-adv-x="573" 
d="M-3 623h579c10 0 15 -5 15 -15v-29c0 -10 -5 -15 -15 -16h-77c-8 0 -12 -3 -12 -10v-98c0 -23 -7 -41 -21 -52c28 -21 42 -56 42 -104v-114c0 -84 -52 -144 -143 -144h-152c-91 0 -144 47 -144 136v41c0 54 20 88 61 101v4c-41 11 -61 41 -61 90v72c0 38 12 63 35 74v4
h-107c-11 1 -16 6 -16 16v29c0 10 5 15 16 15zM342 426h40c8 0 19 -1 32 -2c3 5 4 13 4 23v106c0 7 -4 10 -11 10h-199c-47 0 -71 -26 -71 -77v-64c0 -47 23 -70 69 -70h39c10 0 15 -5 15 -15v-31c0 -9 -5 -14 -15 -14h-34c-49 0 -74 -25 -74 -75v-34c0 -57 23 -80 82 -80
h135c59 0 88 30 88 90v107c0 44 -21 66 -64 66h-36c-11 0 -16 5 -16 15v31c0 9 5 14 16 14z" />
    <glyph glyph-name="uni091C" unicode="&#x91c;" horiz-adv-x="551" 
d="M390 362h-145v-4c26 -13 39 -39 39 -78v-74c0 -93 -50 -143 -134 -143h-106c-11 0 -16 5 -16 14v32c0 10 5 15 16 15h90c57 0 83 27 83 87v65c0 57 -28 86 -84 86h-49c-10 0 -15 5 -15 15v35c0 9 5 14 15 14h306c7 0 10 3 10 10v117c0 7 -3 10 -9 10h-394
c-11 0 -16 5 -16 15v30c0 10 5 15 16 15h557c11 0 16 -5 16 -15v-30c0 -10 -5 -15 -16 -15h-75c-7 0 -10 -3 -10 -10v-538c0 -10 -5 -15 -16 -15h-38c-10 0 -15 5 -15 15v337c0 7 -3 10 -10 10z" />
    <glyph glyph-name="uni091D" unicode="&#x91d;" horiz-adv-x="658" 
d="M498 563h-134c-7 0 -10 -3 -10 -10v-100c0 -21 -15 -34 -35 -34h-120c-48 0 -66 -16 -66 -57v-12c0 -41 19 -55 66 -55h298c7 0 11 3 11 10v248c0 7 -3 10 -10 10zM276 563h-279c-11 0 -16 5 -16 15v30c0 10 5 15 16 15h665c10 0 15 -5 15 -15v-30c0 -10 -5 -15 -15 -15
h-76c-7 0 -10 -3 -10 -10v-538c0 -10 -5 -15 -15 -15h-38c-10 0 -15 5 -15 15v209c0 7 -4 11 -11 11h-132c12 -11 18 -28 18 -50v-41c0 -76 -47 -117 -127 -117h-47c-39 0 -64 11 -77 33h-4v-81c0 -10 -5 -15 -15 -15h-37c-10 0 -15 5 -15 15v195c0 11 5 16 15 16h37
c10 0 15 -5 15 -16v-18c0 -45 24 -68 72 -68h48c48 0 68 17 68 61v27c0 43 -17 59 -62 59h-59c-86 0 -129 39 -129 116v16c0 75 48 113 129 113h81c7 0 10 3 10 10v63c0 7 -3 10 -10 10z" />
    <glyph glyph-name="uni091E" unicode="&#x91e;" horiz-adv-x="581" 
d="M71 465h77c95 0 143 -49 143 -148c1 -6 5 -9 12 -9h117c7 0 11 3 11 10v235c0 7 -3 10 -10 10h-424c-11 0 -16 5 -16 15v30c0 10 5 15 16 15h588c10 0 15 -5 15 -15v-30c0 -10 -5 -15 -15 -15h-76c-7 0 -10 -3 -10 -10v-538c0 -10 -5 -15 -15 -15h-38c-10 0 -15 5 -15 15
v220c0 7 -4 11 -11 11h-117c-7 0 -11 -3 -11 -10c0 -115 -60 -154 -144 -154h-93c-10 0 -15 5 -15 15v33c0 9 5 14 15 14h90c57 0 86 29 86 88v83c0 59 -28 88 -85 88h-75c-10 0 -15 5 -15 14v33c0 10 5 15 15 15z" />
    <glyph glyph-name="uni091F" unicode="&#x91f;" horiz-adv-x="479" 
d="M209 439h97c7 0 10 4 10 11v103c0 7 -3 10 -10 10h-309c-11 0 -16 5 -16 15v30c0 10 5 15 16 15h485c11 0 16 -5 16 -15v-30c0 -10 -5 -15 -16 -15h-88c-7 0 -10 -3 -10 -10v-141c0 -21 -15 -34 -35 -34h-134c-60 0 -90 -30 -90 -90v-100c0 -60 30 -90 90 -90h67
c60 0 90 29 90 88v30c0 11 5 17 14 17h35c11 0 16 -6 16 -17v-30c0 -96 -55 -149 -150 -149h-78c-95 0 -150 59 -150 151v101c0 93 55 150 150 150z" />
    <glyph glyph-name="uni0920" unicode="&#x920;" horiz-adv-x="509" 
d="M287 378h-73c-59 0 -88 -30 -88 -91v-97c0 -61 30 -92 90 -92h68c60 0 90 31 90 92v97c0 57 -30 91 -87 91zM512 563h-106c-7 0 -10 -3 -10 -10v-59c0 -37 -13 -62 -39 -74v-4c51 -11 85 -55 85 -116v-116c0 -92 -58 -148 -151 -148h-83c-93 0 -150 57 -150 152v101
c0 93 57 151 150 151h55c43 0 64 16 64 65v48c0 7 -3 10 -9 10h-321c-11 0 -16 5 -16 15v30c0 10 5 15 16 15h515c10 0 15 -5 15 -15v-30c0 -10 -5 -15 -15 -15z" />
    <glyph glyph-name="uni0921" unicode="&#x921;" horiz-adv-x="470" 
d="M-3 623h477c10 0 15 -5 15 -15v-30c0 -10 -5 -15 -15 -15h-79c-7 0 -10 -3 -10 -10v-117c0 -21 -15 -34 -35 -34h-150c-48 0 -67 -14 -67 -58v-13c0 -44 19 -58 67 -58h85c85 0 128 -37 128 -110v-47c0 -75 -48 -116 -127 -116h-89c-91 0 -136 43 -136 128v7
c0 12 5 18 16 18h35c9 0 14 -6 14 -18v-7c0 -53 23 -68 76 -68h75c45 0 68 20 68 61v35c0 44 -20 60 -68 60h-82c-88 0 -129 34 -129 111v24c0 75 48 112 129 112h112c7 0 10 4 10 11v79c0 7 -3 10 -10 10h-310c-11 0 -16 5 -16 15v30c0 10 5 15 16 15z" />
    <glyph glyph-name="uni0922" unicode="&#x922;" horiz-adv-x="486" 
d="M305 37h-95c-95 0 -148 57 -148 150v113c0 95 54 150 147 150h110c7 0 10 3 10 10v93c0 7 -3 10 -10 10h-322c-11 0 -16 5 -16 15v30c0 10 5 15 16 15h492c11 0 16 -5 16 -15v-30c0 -10 -5 -15 -16 -15h-82c-7 0 -10 -3 -10 -10v-131c0 -20 -14 -32 -31 -32h-152
c-57 0 -86 -30 -86 -91v-114c0 -59 29 -89 88 -89h88c55 0 77 23 77 78v16c0 40 -10 57 -46 57s-45 -16 -45 -57v-14c0 -11 -5 -16 -15 -16h-24c-13 0 -20 6 -20 17v16c0 71 28 108 103 108s108 -37 108 -112v-18c0 -89 -46 -134 -137 -134z" />
    <glyph glyph-name="uni0923" unicode="&#x923;" horiz-adv-x="678" 
d="M299 563h-149c-7 0 -10 -3 -10 -10v-242c0 -54 25 -81 76 -81h17c51 0 76 27 76 81v242c0 7 -3 10 -10 10zM517 563h-132c-6 0 -9 -3 -9 -10v-240c0 -96 -52 -144 -141 -144h-22c-88 0 -141 49 -141 144v240c0 7 -3 10 -10 10h-65c-11 0 -16 5 -16 15v30c0 10 5 15 16 15
h684c10 0 15 -5 15 -15v-30c0 -10 -5 -15 -15 -15h-76c-7 0 -10 -3 -10 -10v-538c0 -10 -5 -15 -15 -15h-38c-10 0 -15 5 -15 15v538c0 7 -3 10 -10 10z" />
    <glyph glyph-name="uni0924" unicode="&#x924;" horiz-adv-x="500" 
d="M128 271v-124c0 -64 31 -87 88 -87h12c11 0 16 -5 16 -15v-30c0 -10 -5 -15 -16 -15h-25c-91 0 -144 49 -144 149v125c0 97 55 147 146 147h134c7 0 11 4 11 11v121c0 7 -3 10 -10 10h-343c-11 0 -16 5 -16 15v30c0 10 5 15 16 15h507c10 0 15 -5 15 -15v-30
c0 -10 -5 -15 -15 -15h-76c-7 0 -10 -3 -10 -10v-538c0 -10 -5 -15 -15 -15h-38c-10 0 -15 5 -15 15v333c0 7 -4 11 -11 11h-127c-56 0 -84 -29 -84 -88z" />
    <glyph glyph-name="uni0925" unicode="&#x925;" horiz-adv-x="598" 
d="M447 15v136h-4c-19 -35 -56 -53 -112 -53h-107c-108 0 -168 71 -168 166v94c0 10 5 15 16 15h119c55 0 83 26 83 79v53c0 41 -21 61 -63 61s-63 -20 -63 -60v-43c0 -11 -5 -16 -14 -16h-36c-9 0 -14 5 -14 16v49c0 71 50 114 126 114c77 0 130 -40 130 -120v-57
c0 -91 -48 -137 -145 -137h-70v-48c0 -71 35 -106 106 -106h101c73 0 115 49 115 114v321c0 17 12 30 29 30h125c10 0 15 -5 15 -15v-30c0 -10 -5 -15 -15 -15h-75c-7 0 -11 -3 -11 -10v-538c0 -10 -5 -15 -15 -15h-38c-10 0 -15 5 -15 15z" />
    <glyph glyph-name="uni0926" unicode="&#x926;" horiz-adv-x="487" 
d="M206 463h124c7 0 10 3 10 10v80c0 7 -3 10 -10 10h-333c-11 0 -16 5 -16 15v30c0 10 5 15 16 15h493c11 0 16 -5 16 -15v-30c0 -10 -5 -15 -16 -15h-73c-7 0 -10 -3 -10 -10v-120c0 -20 -12 -32 -31 -32h-162c-57 0 -86 -30 -86 -91v-81c0 -59 29 -89 88 -89h64
c49 0 73 24 73 71v38c0 10 5 15 15 15h36c10 0 15 -5 15 -15v-234c0 -10 -5 -15 -15 -15h-36c-10 0 -15 5 -15 15v98h-4c-13 -23 -39 -34 -78 -34h-63c-95 0 -148 58 -148 150v84c0 95 53 150 146 150z" />
    <glyph glyph-name="uni0927" unicode="&#x927;" horiz-adv-x="555" 
d="M216 563h-21c-42 0 -63 -24 -63 -71v-37c0 -46 23 -69 68 -69h63c11 0 16 -5 16 -15v-32c0 -9 -5 -14 -16 -14h-63c-45 0 -68 -24 -68 -71v-37c0 -57 25 -81 81 -81h90c68 1 102 34 102 100v317c0 7 -4 10 -11 10h-67c-10 0 -15 5 -15 15v30c0 10 5 15 15 15h231
c11 0 16 -5 16 -15v-30c0 -10 -5 -15 -16 -15h-75c-7 0 -10 -3 -10 -10v-538c0 -10 -5 -15 -15 -15h-38c-10 0 -15 5 -15 15v107h-4c-16 -32 -47 -48 -94 -48h-102c-89 0 -141 49 -141 138v41c0 53 20 86 60 99v4c-40 14 -60 46 -60 95v37c0 35 11 59 33 71v4h-100
c-11 0 -16 5 -16 16v29c0 10 5 15 16 15h219c10 0 15 -5 15 -15v-30c0 -10 -5 -15 -15 -15z" />
    <glyph glyph-name="uni0928" unicode="&#x928;" horiz-adv-x="478" 
d="M318 563h-321c-11 0 -16 5 -16 15v30c0 10 5 15 16 15h484c11 0 16 -5 16 -15v-30c0 -10 -5 -15 -16 -15h-75c-7 0 -10 -3 -10 -10v-538c0 -10 -5 -15 -15 -15h-39c-10 0 -15 5 -15 15v296c0 7 -3 10 -10 10h-153c-39 0 -58 -17 -58 -51c0 -8 2 -21 6 -38
c5 -17 7 -26 7 -27c0 -9 -5 -13 -14 -13h-29c-9 0 -16 4 -21 11c-11 19 -16 45 -16 76c0 64 40 104 105 104h173c7 0 10 3 10 10v160c0 7 -3 10 -9 10z" />
    <glyph glyph-name="uni0928093C" unicode="&#x929;" horiz-adv-x="478" 
d="M204 24v-42c0 -11 -5 -16 -15 -16h-42c-9 0 -14 5 -14 16v42c0 10 5 15 14 15h42c10 0 15 -5 15 -15zM318 563h-321c-11 0 -16 5 -16 15v30c0 10 5 15 16 15h484c11 0 16 -5 16 -15v-30c0 -10 -5 -15 -16 -15h-75c-7 0 -10 -3 -10 -10v-538c0 -10 -5 -15 -15 -15h-39
c-10 0 -15 5 -15 15v296c0 7 -3 10 -10 10h-153c-39 0 -58 -17 -58 -51c0 -8 2 -21 6 -38c5 -17 7 -26 7 -27c0 -9 -5 -13 -14 -13h-29c-9 0 -16 4 -21 11c-11 19 -16 45 -16 76c0 64 40 104 105 104h173c7 0 10 3 10 10v160c0 7 -3 10 -9 10z" />
    <glyph glyph-name="uni092A" unicode="&#x92a;" horiz-adv-x="503" 
d="M227 232h34c60 0 91 34 91 90v231c0 7 -3 10 -10 10h-191c-7 0 -10 -3 -10 -10v-232c0 -59 29 -89 86 -89zM-3 623h509c11 0 16 -5 16 -15v-30c0 -10 -5 -15 -16 -15h-75c-7 0 -11 -3 -11 -10v-538c0 -10 -5 -15 -15 -15h-38c-10 0 -15 5 -15 15v200h-4
c-17 -30 -48 -45 -95 -45h-35c-88 0 -146 56 -146 144v239c0 6 -3 9 -8 10h-67c-11 0 -16 5 -16 16v29c0 10 5 15 16 15z" />
    <glyph glyph-name="uni092B" unicode="&#x92b;" horiz-adv-x="741" 
d="M410 330v-314c0 -11 -5 -16 -15 -16h-37c-10 0 -15 5 -15 15v204h-4c-17 -30 -49 -45 -96 -45h-25c-88 0 -146 56 -146 145v234c0 6 -3 9 -8 10h-67c-11 0 -16 5 -16 16v29c0 10 5 15 16 15h747c10 0 15 -5 15 -15v-30c0 -10 -5 -15 -15 -15h-323c-7 0 -11 -3 -11 -10
v-122h4c15 29 47 44 94 44h30c93 0 150 -56 150 -149v-87c0 -93 -57 -149 -150 -149h-46c-10 0 -15 5 -15 15v31c0 10 5 15 15 15h38c61 0 91 30 91 91v81c0 59 -33 91 -92 91h-32c-56 0 -87 -29 -87 -84zM227 237h25c59 0 91 32 91 87v229c0 7 -4 10 -11 10h-181
c-7 0 -10 -3 -10 -10v-228c0 -59 29 -88 86 -88z" />
    <glyph glyph-name="uni092C" unicode="&#x92c;" horiz-adv-x="500" 
d="M-3 623h506c11 0 16 -5 16 -15v-30c0 -10 -5 -15 -16 -15h-75c-7 0 -10 -3 -10 -10v-537c0 -11 -5 -16 -15 -16h-39c-10 0 -15 5 -15 16v111h-4c-15 -29 -47 -44 -96 -44h-42c-93 0 -151 56 -151 149v98c1 93 57 149 150 149h61c10 0 15 -5 15 -15v-30
c0 -10 -5 -15 -15 -15h-55c-23 0 -42 -5 -57 -15l193 -190c1 4 1 10 1 19v320c0 7 -3 10 -10 10h-342c-11 0 -16 5 -16 15v30c0 10 5 15 16 15zM211 142h46c32 0 56 10 72 29l-201 197c-4 -12 -6 -25 -6 -40v-95c0 -61 30 -91 89 -91z" />
    <glyph glyph-name="uni092D" unicode="&#x92d;" horiz-adv-x="497" 
d="M336 275h-183c-7 0 -11 -4 -11 -11v-86c0 -11 -5 -16 -15 -16h-38c-10 0 -15 5 -15 16v310c0 50 -23 75 -68 75h-9c-11 0 -16 5 -16 15v30c0 10 5 15 16 15h9c87 0 136 -48 136 -133v-144c0 -7 3 -11 10 -11h184c7 0 10 4 10 11v207c0 7 -3 10 -10 10h-67
c-13 0 -19 5 -19 15v30c0 10 6 15 19 15h231c10 0 15 -5 15 -15v-30c0 -10 -5 -15 -15 -15h-76c-7 0 -10 -3 -10 -10v-538c0 -10 -5 -15 -15 -15h-38c-10 0 -15 5 -15 15v249c0 7 -3 11 -10 11z" />
    <glyph glyph-name="uni092E" unicode="&#x92e;" horiz-adv-x="494" 
d="M344 346v207c0 7 -3 10 -10 10h-184c-7 0 -10 -3 -10 -10v-207c0 -7 3 -11 10 -11h183c7 0 11 4 11 11zM333 275h-183c-7 0 -10 -4 -10 -11v-86c0 -11 -5 -16 -15 -16h-38c-10 0 -15 5 -15 16v375c0 7 -3 10 -10 10h-65c-11 0 -16 5 -16 15v31c0 9 5 14 16 14h501
c10 0 15 -5 15 -15v-30c0 -10 -5 -15 -15 -15h-76c-7 0 -10 -3 -10 -10v-538c0 -10 -5 -15 -15 -15h-38c-10 0 -15 5 -15 15v249c0 7 -4 11 -11 11z" />
    <glyph glyph-name="uni092F" unicode="&#x92f;" horiz-adv-x="569" 
d="M408 563h-168v-4c24 -14 36 -41 36 -80v-18c0 -85 -44 -127 -133 -127h-16v-69c0 -71 38 -110 113 -110h63c76 0 115 42 115 113v285c0 7 -3 10 -10 10zM210 473v12c0 55 -22 78 -78 78h-135c-11 0 -16 5 -16 15v31c0 9 5 14 16 14h575c11 0 16 -5 16 -15v-30
c0 -10 -5 -15 -16 -15h-75c-7 0 -10 -3 -10 -10v-538c0 -10 -5 -15 -15 -15h-39c-10 0 -15 5 -15 15v133h-4c-18 -36 -55 -54 -112 -54h-68c-55 0 -97 16 -128 48c-31 33 -46 74 -46 123v114c0 10 5 15 15 15h57c56 0 78 20 78 79z" />
    <glyph glyph-name="uni0930" unicode="&#x930;" horiz-adv-x="338" 
d="M196 404v149c0 7 -3 10 -9 10h-190c-11 0 -16 5 -16 15v30c0 10 5 15 16 15h344c11 0 16 -5 16 -15v-30c0 -10 -5 -15 -16 -15h-66c-7 0 -10 -3 -10 -10v-152c0 -85 -46 -131 -121 -131h-31l162 -246c2 -3 3 -6 3 -10c0 -9 -4 -14 -13 -14h-42c-7 0 -12 4 -17 11
l-151 230l-22 29v43c0 11 6 17 18 17h78c45 0 67 25 67 74z" />
    <glyph glyph-name="uni0930093C" unicode="&#x931;" horiz-adv-x="358" 
d="M85 22v-43c0 -10 -5 -15 -14 -15h-42c-9 0 -14 5 -14 15v43c0 10 5 15 14 15h42c9 0 14 -5 14 -15zM216 404v149c0 7 -3 10 -9 10h-210c-11 0 -16 5 -16 15v30c0 10 5 15 16 15h364c10 0 15 -5 15 -15v-30c0 -10 -5 -15 -15 -15h-66c-7 0 -10 -3 -10 -10v-152
c0 -85 -46 -131 -121 -131h-31l161 -246c3 -3 4 -6 4 -10c0 -9 -5 -14 -14 -14h-41c-7 0 -13 4 -17 11l-151 230l-22 29v43c0 11 6 17 18 17h78c45 0 67 25 67 74z" />
    <glyph glyph-name="uni0932" unicode="&#x932;" horiz-adv-x="665" 
d="M428 442c41 0 69 -12 83 -36h4v147c0 7 -3 10 -10 10h-508c-11 0 -16 5 -16 15v30c0 10 5 15 16 15h672c10 0 15 -5 15 -15v-30c0 -10 -5 -15 -15 -15h-76c-7 0 -10 -3 -10 -10v-538c0 -10 -5 -15 -15 -15h-38c-10 0 -15 5 -15 15v278c0 63 -25 86 -80 86
s-80 -23 -80 -87v-77c0 -11 -5 -16 -15 -16h-36c-10 0 -15 5 -15 16v80c0 61 -25 85 -80 85c-53 0 -80 -27 -80 -91v-103c0 -64 30 -91 90 -91h36c11 0 16 -5 16 -14v-32c0 -10 -5 -15 -16 -15h-44c-95 0 -149 50 -149 149v110c0 99 53 150 144 150c60 0 98 -21 113 -64h4
c15 42 50 63 105 63z" />
    <glyph glyph-name="uni0933" unicode="&#x933;" horiz-adv-x="670" 
d="M-3 623h677c10 0 15 -5 15 -15v-30c0 -10 -5 -15 -15 -15h-175c-7 0 -10 -3 -10 -10v-104c0 -6 3 -10 10 -11c72 -15 108 -64 108 -145v-104c0 -96 -53 -149 -149 -149h-9c-55 0 -93 17 -116 52c-23 -35 -62 -52 -117 -52h-8c-96 0 -149 53 -149 149v104
c0 97 53 150 149 150h8c55 0 94 -18 117 -54c18 27 46 44 84 51c6 2 9 6 9 11v102c0 7 -3 10 -10 10h-419c-11 0 -16 5 -16 15v30c0 10 5 15 16 15zM300 189v104c0 59 -28 89 -84 89h-7c-56 0 -84 -30 -84 -89v-104c0 -59 28 -89 84 -89h7c56 0 84 30 84 89zM541 189v104
c0 59 -28 89 -84 89h-7c-56 0 -84 -30 -84 -89v-104c0 -59 28 -89 84 -89h7c56 0 84 30 84 89z" />
    <glyph glyph-name="uni0933093C" unicode="&#x934;" horiz-adv-x="670" 
d="M-3 623h677c10 0 15 -5 15 -15v-30c0 -10 -5 -15 -15 -15h-175c-7 0 -10 -3 -10 -10v-104c0 -6 3 -10 10 -11c72 -15 108 -64 108 -145v-104c0 -96 -53 -149 -149 -149h-9c-55 0 -93 17 -116 52c-23 -35 -62 -52 -117 -52h-8c-96 0 -149 53 -149 149v104
c0 97 53 150 149 150h8c55 0 94 -18 117 -54c18 27 46 44 84 51c6 2 9 6 9 11v102c0 7 -3 10 -10 10h-419c-11 0 -16 5 -16 15v30c0 10 5 15 16 15zM300 189v104c0 59 -28 89 -84 89h-7c-56 0 -84 -30 -84 -89v-104c0 -59 28 -89 84 -89h7c56 0 84 30 84 89zM541 189v104
c0 59 -28 89 -84 89h-7c-56 0 -84 -30 -84 -89v-104c0 -59 28 -89 84 -89h7c56 0 84 30 84 89zM185 0h42c9 0 14 -5 14 -15v-43c0 -10 -5 -15 -14 -15h-42c-9 0 -14 5 -14 15v43c0 10 5 15 14 15z" />
    <glyph glyph-name="uni0935" unicode="&#x935;" horiz-adv-x="492" 
d="M410 553v-537c0 -11 -5 -16 -15 -16h-38c-10 0 -15 5 -15 16v114h-4c-16 -29 -48 -44 -96 -44h-35c-93 0 -151 56 -151 149v89c1 95 57 150 150 150h54c11 0 16 -5 16 -15v-32c0 -10 -5 -15 -16 -15h-45c-60 0 -90 -30 -90 -91v-83c0 -61 30 -91 90 -91h35
c60 0 92 35 92 91v315c0 7 -3 10 -10 10h-335c-11 0 -16 5 -16 15v30c0 10 5 15 16 15h498c11 0 16 -5 16 -15v-30c0 -10 -5 -15 -16 -15h-75c-7 0 -10 -3 -10 -10z" />
    <glyph glyph-name="uni0936" unicode="&#x936;" horiz-adv-x="623" 
d="M473 15v578c0 17 12 30 29 30h125c10 0 15 -5 15 -15v-30c0 -10 -5 -15 -15 -15h-76c-7 0 -10 -3 -10 -10v-538c0 -10 -5 -15 -15 -15h-38c-10 0 -15 5 -15 15zM299 13c0 -9 -5 -13 -14 -13h-43c-8 0 -14 4 -17 11l-153 219l-23 29v43c0 11 6 17 18 17h129
c57 0 86 28 86 85v89c0 52 -19 72 -71 72c-51 0 -70 -20 -70 -71v-52c0 -10 -5 -15 -14 -15h-38c-10 0 -15 5 -15 15v50c0 88 46 132 137 132c92 0 138 -44 138 -132v-87c0 -97 -50 -146 -150 -146h-71l167 -235c3 -3 4 -6 4 -11z" />
    <glyph glyph-name="uni0937" unicode="&#x937;" horiz-adv-x="507" 
d="M356 320v233c0 7 -3 10 -10 10h-207zM227 224h39c38 0 64 14 79 42l-204 231v-185c0 -59 29 -88 86 -88zM-3 623h514c10 0 15 -5 15 -15v-30c0 -10 -5 -15 -15 -15h-76c-7 0 -10 -3 -10 -10v-538c0 -10 -5 -15 -15 -15h-39c-10 0 -15 5 -15 15v192h-4
c-15 -29 -47 -44 -95 -44h-39c-88 0 -146 56 -146 144v246c0 6 -3 9 -8 10h-67c-11 0 -16 5 -16 16v29c0 10 5 15 16 15z" />
    <glyph glyph-name="uni0938" unicode="&#x938;" horiz-adv-x="583" 
d="M219 332v-4h203c7 0 11 4 11 11v214c0 7 -4 10 -11 10h-162c-7 0 -10 -3 -10 -10v-137c0 -41 -10 -69 -31 -84zM263 13c0 -9 -5 -13 -14 -13h-42c-7 0 -13 4 -17 11l-128 216l-29 41v43c0 11 6 17 18 17h64c40 0 66 23 66 74v151c0 7 -3 10 -10 10h-174
c-11 0 -16 5 -16 16v29c0 10 5 15 16 15h590c10 0 15 -5 15 -15v-30c0 -10 -5 -15 -15 -15h-76c-7 0 -10 -3 -10 -10v-538c0 -10 -5 -15 -15 -15h-38c-10 0 -15 5 -15 15v241c0 7 -4 11 -11 11h-309l145 -240c3 -5 5 -9 5 -14z" />
    <glyph glyph-name="uni0939" unicode="&#x939;" horiz-adv-x="476" 
d="M320 563h-323c-11 0 -16 5 -16 15v30c0 10 5 15 16 15h482c11 0 16 -5 16 -15v-30c0 -10 -5 -15 -16 -15h-72c-7 0 -10 -3 -10 -10v-109c0 -23 -15 -35 -35 -35h-151c-51 0 -72 -19 -72 -68c0 -48 20 -67 71 -67h81c79 0 122 -41 122 -116v-30c0 -10 -5 -15 -15 -15h-36
c-10 0 -15 5 -15 15v21c0 48 -19 69 -67 69h-67c-53 0 -80 -30 -80 -91v-23c0 -60 30 -89 101 -89h151c11 0 16 -5 16 -14v-29c0 -10 -5 -15 -16 -15h-157c-108 0 -164 51 -164 146v26c0 58 21 96 64 115v4c-39 15 -58 48 -58 101c0 80 44 120 131 120h117c7 0 11 3 11 10
v74c0 7 -3 10 -9 10z" />
    <glyph glyph-name="uni093C" unicode="&#x93c;" horiz-adv-x="0" 
d="M-146 -41v-43c0 -10 -5 -15 -14 -15h-42c-9 0 -14 5 -14 15v43c0 10 5 15 14 15h42c9 0 14 -5 14 -15z" />
    <glyph glyph-name="uni093D" unicode="&#x93d;" horiz-adv-x="534" 
d="M453 202v-59c0 -91 -46 -143 -141 -143h-62c-61 0 -116 34 -165 101c-8 8 -9 17 3 28l15 12c15 13 22 6 43 -19c16 -17 17 -17 30 -30c13 -12 20 -14 33 -22c10 -5 24 -8 43 -8h51c63 0 82 29 82 86v50c0 33 -18 46 -27 54c-8 8 -33 20 -46 27c-18 9 -40 20 -65 32
c-50 25 -84 51 -103 77s-28 61 -28 106c0 91 32 129 137 129h145c11 0 16 -5 16 -15v-30c0 -10 -5 -15 -16 -15h-134c-31 0 -52 -6 -63 -17s-16 -29 -16 -56c0 -26 9 -48 28 -67c19 -18 54 -40 106 -67c53 -26 88 -49 106 -69c19 -19 28 -48 28 -85z" />
    <glyph glyph-name="uni093E" unicode="&#x93e;" 
d="M136 0h-39c-10 0 -15 5 -15 15v538c0 7 -3 10 -10 10h-75c-10 0 -15 5 -15 15v30c0 10 5 15 15 15h239c11 0 16 -5 16 -15v-30c0 -10 -5 -15 -16 -15h-75c-7 0 -10 -3 -10 -10v-538c0 -10 -5 -15 -15 -15z" />
    <glyph glyph-name="uni093F" unicode="&#x93f;" 
d="M236 881h254c102 0 153 -49 153 -146v-31c0 -11 -5 -16 -16 -16h-38c-10 0 -15 5 -15 16v30c0 63 -24 85 -84 85h-255c-60 0 -84 -22 -84 -85v-100c0 -7 3 -11 10 -11h75c11 0 16 -5 16 -15v-30c0 -10 -5 -15 -16 -15h-75c-7 0 -10 -3 -10 -10v-538c0 -10 -5 -15 -15 -15
h-39c-10 0 -15 5 -15 15v538c0 7 -3 10 -10 10h-75c-10 0 -15 5 -15 15v30c0 10 5 15 15 15h75c7 0 10 4 10 11v111c0 92 57 136 154 136z" />
    <glyph glyph-name="uni0940" unicode="&#x940;" 
d="M161 623h75c11 0 16 -5 16 -15v-30c0 -10 -5 -15 -16 -15h-75c-7 0 -10 -3 -10 -10v-538c0 -10 -5 -15 -15 -15h-39c-10 0 -15 5 -15 15v538c0 7 -3 10 -10 10h-75c-10 0 -15 5 -15 15v30c0 10 5 15 15 15h75c7 0 10 4 10 11v100c0 63 -24 85 -84 85s-85 -24 -85 -85v-30
c0 -11 -5 -16 -14 -16h-39c-10 0 -15 5 -15 16v31c0 97 51 146 153 146s153 -45 153 -136v-111c0 -7 3 -11 10 -11z" />
    <glyph glyph-name="uni0941" unicode="&#x941;" horiz-adv-x="0" 
d="M-151 -27v28c0 10 5 15 16 15h44c91 0 125 -39 125 -127c0 -89 -38 -137 -130 -137h-52c-37 0 -70 9 -100 27c-11 7 -23 18 -36 35c-13 19 -34 51 -61 98c-9 17 -10 24 1 32c22 11 35 17 39 17c3 0 8 -4 13 -12c5 -9 12 -23 23 -43c11 -21 18 -34 23 -40
c5 -7 12 -15 22 -26c17 -19 43 -28 78 -28h50c61 5 66 30 65 77c0 46 -2 65 -62 69h-42c-11 0 -16 5 -16 15z" />
    <glyph glyph-name="uni0942" unicode="&#x942;" horiz-adv-x="0" 
d="M-266 -113c0 89 43 134 128 134h37c64 0 86 -21 102 -30c8 -5 16 -12 24 -23c16 -21 23 -27 36 -55c7 -15 12 -25 15 -32s8 -18 15 -35c19 -49 26 -45 8 -59c-55 -24 -38 -14 -70 49c-9 21 -15 36 -20 45c-8 19 -26 50 -41 61c-21 14 -44 21 -71 21h-35
c-49 0 -64 -24 -64 -75c0 -52 10 -73 58 -73h38c11 0 16 -5 16 -15v-26c0 -11 -5 -16 -16 -16h-38c-85 0 -122 41 -122 129z" />
    <glyph glyph-name="uni0943" unicode="&#x943;" horiz-adv-x="0" 
d="M-82 1v-28c0 -10 -5 -15 -16 -15h-45c-51 0 -65 -22 -65 -77c0 -56 21 -78 70 -78h31c22 0 43 7 64 21c4 3 11 8 22 16c37 29 41 25 46 14l15 -21c7 -7 9 -15 -8 -28c-47 -41 -92 -62 -137 -62h-36c-88 0 -132 46 -132 139c0 95 41 134 128 134h47c11 0 16 -5 16 -15z
" />
    <glyph glyph-name="uni0945" unicode="&#x945;" horiz-adv-x="0" 
d="M-71 690h-81c-79 0 -119 41 -119 124v7c0 13 6 20 17 20h29c11 0 16 -6 16 -19v-7c0 -49 18 -67 67 -67h62c48 0 65 18 65 67v7c0 13 6 19 18 19h28c11 0 17 -7 17 -20v-5c0 -84 -40 -126 -119 -126z" />
    <glyph glyph-name="uni0946" unicode="&#x946;" horiz-adv-x="0" 
d="M-169 623h8c13 0 14 22 -2 35c-8 7 -47 29 -116 64c-59 31 -83 64 -83 121v20c0 10 5 15 15 15h37c10 0 15 -5 15 -15v-16c0 -41 17 -57 58 -77l63 -32c64 -31 92 -53 92 -104c0 -7 3 -11 10 -11h7v-34h-104v34z" />
    <glyph glyph-name="uni0947" unicode="&#x947;" horiz-adv-x="0" 
d="M-76 623h5v-30h-48c-46 43 -93 102 -142 175l-59 87c-3 5 -4 9 -4 11c0 8 4 12 13 12h43c9 0 17 -4 22 -13l146 -226c6 -11 14 -16 24 -16z" />
    <glyph glyph-name="uni0948" unicode="&#x948;" horiz-adv-x="0" 
d="M-66 623v-21h-66c-46 43 -92 98 -139 166l-60 87c-3 3 -4 7 -4 11c0 8 4 12 13 12h36c12 0 21 -4 27 -13l136 -222l3 2c-19 41 -28 104 -28 189v29c0 10 5 15 15 15h36c10 0 15 -5 15 -15v-229c0 -7 3 -11 8 -11h8z" />
    <glyph glyph-name="uni0949" unicode="&#x949;" 
d="M136 0h-39c-10 0 -15 5 -15 15v538c0 7 -3 10 -10 10h-75c-10 0 -15 5 -15 15v30c0 10 5 15 15 15h239c11 0 16 -5 16 -15v-30c0 -10 -5 -15 -16 -15h-75c-7 0 -10 -3 -10 -10v-538c0 -10 -5 -15 -15 -15zM157 690h-81c-79 0 -119 41 -119 124v7c0 13 6 20 17 20h30
c11 0 16 -6 16 -19v-7c0 -49 17 -67 66 -67h62c48 0 65 18 65 67v7c0 13 6 19 18 19h28c11 0 17 -7 17 -20v-6c0 -83 -40 -125 -119 -125z" />
    <glyph glyph-name="uni094A" unicode="&#x94a;" 
d="M161 623h75c11 0 16 -5 16 -15v-30c0 -10 -5 -15 -16 -15h-75c-7 0 -10 -3 -10 -10v-538c0 -10 -5 -15 -15 -15h-39c-10 0 -15 5 -15 15v538c0 7 -3 10 -10 10h-75c-10 0 -15 5 -15 15v30c0 10 5 15 15 15h75c13 0 14 22 -2 35c-8 7 -47 29 -116 64
c-59 31 -83 64 -83 121v20c0 10 5 15 15 15h37c10 0 15 -5 15 -15v-16c0 -41 17 -57 58 -77l63 -32c64 -31 92 -53 92 -104c0 -7 3 -11 10 -11z" />
    <glyph glyph-name="uni094B" unicode="&#x94b;" 
d="M158 623h78c11 0 16 -5 16 -15v-30c0 -10 -5 -15 -16 -15h-75c-7 0 -10 -3 -10 -10v-538c0 -10 -5 -15 -15 -15h-39c-10 0 -15 5 -15 15v538c0 7 -3 10 -10 10h-75c-10 0 -15 5 -15 15v30c0 10 5 15 15 15h86v4c-45 51 -81 98 -110 141l-59 87c-3 5 -4 9 -4 11
c0 8 4 12 13 12h43c9 0 17 -4 22 -13l146 -226c6 -11 14 -16 24 -16z" />
    <glyph glyph-name="uni094C" unicode="&#x94c;" 
d="M159 623h77c11 0 16 -5 16 -15v-30c0 -10 -5 -15 -16 -15h-75c-7 0 -10 -3 -10 -10v-538c0 -10 -5 -15 -15 -15h-39c-10 0 -15 5 -15 15v538c0 7 -3 10 -10 10h-75c-10 0 -15 5 -15 15v30c0 10 5 15 15 15h81v4c-38 37 -77 84 -116 141l-60 87c-3 3 -4 7 -4 11
c0 8 4 12 13 12h36c13 0 22 -4 27 -13l136 -222l3 2c-19 41 -28 104 -28 189v29c0 10 5 15 15 15h36c10 0 15 -5 15 -15v-229c0 -7 3 -11 8 -11z" />
    <glyph glyph-name="uni094D" unicode="&#x94d;" horiz-adv-x="0" 
d="M-136 -52h35c9 0 16 -5 22 -14l91 -131c2 -3 3 -6 3 -11c0 -9 -4 -13 -13 -13h-41c-8 0 -14 4 -19 12l-88 137c-1 4 -2 7 -2 8c0 8 4 12 12 12z" />
    <glyph glyph-name="uni0950" unicode="&#x950;" horiz-adv-x="853" 
d="M532 456h106c88 0 143 -55 143 -152v-157c0 -80 -46 -125 -126 -125h-25c-80 0 -126 45 -126 125v76c0 7 -3 10 -10 10h-95v-57c0 -95 -55 -154 -151 -154h-38c-95 0 -152 58 -152 154v33c0 12 5 18 15 18h38c9 0 14 -6 14 -18v-33c0 -60 33 -92 92 -92h26
c59 0 89 32 89 96v30c0 63 -30 95 -89 95h-52c-10 0 -15 5 -15 15v31c0 10 5 15 15 15h54c58 0 87 28 87 85v24c0 58 -29 87 -88 87h-86c-11 0 -16 5 -16 15v31c0 10 5 15 16 15h94c96 0 147 -52 147 -147v-29c0 -57 -21 -93 -63 -109v-4c20 -8 36 -21 47 -40h130
c37 0 56 -18 56 -54v-87c0 -48 21 -68 69 -69h10c48 1 69 21 69 69v147c0 63 -31 95 -92 95h-93c-11 0 -16 5 -16 15v31c0 10 5 15 16 15zM639 562h-106c-11 0 -17 5 -17 15v31c0 10 6 15 17 15h99c38 0 69 13 93 39c16 20 25 7 47 -11c9 -9 9 -16 1 -27
c-32 -41 -77 -62 -134 -62zM574 725h-43c-9 0 -14 5 -14 14v44c0 10 5 15 14 15h43c9 0 14 -5 14 -15v-44c0 -9 -5 -14 -14 -14z" />
    <glyph glyph-name="uni0951" unicode="&#x951;" horiz-adv-x="0" 
d="M-151 689v160c0 10 5 15 15 15h39c10 0 15 -5 15 -15v-160c0 -10 -5 -15 -15 -15h-39c-10 0 -15 5 -15 15z" />
    <glyph glyph-name="uni0952" unicode="&#x952;" horiz-adv-x="0" 
d="M-80 -71v-22c0 -9 -5 -14 -14 -14h-321c-9 0 -14 5 -14 14v22c0 9 5 13 14 13h321c9 0 14 -4 14 -13z" />
    <glyph glyph-name="uni0953" unicode="&#x953;" horiz-adv-x="0" 
d="M-251 864h39c9 0 16 -4 22 -13l99 -153c3 -3 4 -7 4 -12c0 -8 -4 -12 -13 -12h-38c-9 0 -16 4 -22 13l-100 154c-3 5 -4 9 -4 11c0 8 4 12 13 12z" />
    <glyph glyph-name="uni0954" unicode="&#x954;" horiz-adv-x="0" 
d="M-25 864h39c9 0 13 -4 13 -12c0 -2 -1 -6 -4 -11l-101 -154c-5 -9 -12 -13 -21 -13h-38c-9 0 -13 4 -13 12c0 5 1 9 4 12l99 153c5 9 12 13 22 13z" />
    <glyph glyph-name="uni0915093C" unicode="&#x958;" horiz-adv-x="727" 
d="M397 553v-122h4c14 29 45 44 94 44h30c93 0 150 -56 150 -149v-87c-1 -93 -57 -149 -150 -149h-46c-11 0 -16 5 -16 15v31c0 10 5 15 16 15h38c60 0 90 30 90 91v81c0 59 -33 91 -92 91h-32c-57 0 -86 -28 -86 -84v-314c0 -11 -5 -16 -15 -16h-38c-9 0 -14 5 -14 16v118
h-4c-16 -29 -47 -44 -94 -44h-30c-93 0 -150 56 -150 149v87c0 93 57 149 150 149h46c10 0 15 -5 15 -15v-31c0 -10 -5 -15 -15 -15h-38c-61 0 -91 -30 -91 -91v-81c0 -59 33 -91 92 -91h32c56 0 87 29 87 84v318c0 7 -3 10 -10 10h-323c-11 0 -16 5 -16 15v30
c0 10 5 15 16 15h733c11 0 16 -5 16 -15v-30c0 -10 -5 -15 -16 -15h-323c-7 0 -10 -3 -10 -10zM207 0v-43c0 -10 -5 -15 -14 -15h-42c-9 0 -14 5 -14 15v43c0 10 5 15 14 15h42c9 0 14 -5 14 -15z" />
    <glyph glyph-name="uni0916093C" unicode="&#x959;" horiz-adv-x="705" 
d="M555 15v157h-4c-17 -27 -46 -42 -89 -43h-11c-88 0 -135 54 -135 143v44c0 87 50 140 142 140h18c11 0 16 -5 16 -15v-31c0 -9 -5 -14 -16 -14h-13c-57 0 -80 -28 -80 -88v-32c0 -60 25 -88 82 -88h5c57 0 85 30 85 90v275c0 7 -3 10 -10 10h-271c-7 0 -10 -3 -10 -10
v-152c0 -85 -47 -131 -122 -131h-29l162 -244c3 -5 5 -9 5 -12c0 -9 -5 -14 -14 -14h-41c-6 0 -12 4 -18 11l-152 230l-22 29v43c0 11 6 17 18 17h78c45 0 67 25 67 74v149c0 7 -3 10 -9 10h-190c-11 0 -16 5 -16 15v30c0 10 5 15 16 15h711c11 0 16 -5 16 -15v-30
c0 -10 -5 -15 -16 -15h-75c-7 0 -11 -3 -11 -10v-538c0 -10 -5 -15 -15 -15h-37c-10 0 -15 5 -15 15zM111 -3v-43c0 -10 -5 -15 -14 -15h-42c-9 0 -14 5 -14 15v43c0 10 5 15 14 15h42c9 0 14 -5 14 -15z" />
    <glyph glyph-name="uni0917093C" unicode="&#x95a;" horiz-adv-x="502" 
d="M-3 623h508c11 0 16 -5 16 -15v-30c0 -10 -5 -15 -16 -15h-75c-7 0 -10 -3 -10 -10v-538c0 -10 -5 -15 -15 -15h-38c-10 0 -15 5 -15 15v538c0 7 -3 10 -10 10h-133c-7 0 -10 -3 -10 -10v-196c0 -99 -52 -148 -143 -148h-20c-10 0 -15 5 -15 15v33c0 10 5 15 15 15h11
c56 0 84 29 84 87v194c0 7 -3 10 -10 10h-124c-11 0 -16 5 -16 15v30c0 10 5 15 16 15zM165 11v-43c0 -10 -5 -15 -14 -15h-42c-9 0 -14 5 -14 15v43c0 10 5 15 14 15h42c9 0 14 -5 14 -15z" />
    <glyph glyph-name="uni091C093C" unicode="&#x95b;" horiz-adv-x="551" 
d="M390 362h-145v-4c26 -13 39 -39 39 -78v-74c0 -93 -50 -143 -134 -143h-106c-11 0 -16 5 -16 14v32c0 10 5 15 16 15h90c57 0 83 27 83 87v65c0 57 -28 86 -84 86h-49c-10 0 -15 5 -15 15v35c0 9 5 14 15 14h306c7 0 10 3 10 10v117c0 7 -3 10 -9 10h-394
c-11 0 -16 5 -16 15v30c0 10 5 15 16 15h557c11 0 16 -5 16 -15v-30c0 -10 -5 -15 -16 -15h-75c-7 0 -10 -3 -10 -10v-538c0 -10 -5 -15 -16 -15h-38c-10 0 -15 5 -15 15v337c0 7 -3 10 -10 10zM138 -13v-43c0 -10 -5 -15 -14 -15h-42c-9 0 -14 5 -14 15v43c0 10 5 15 14 15
h42c9 0 14 -5 14 -15z" />
    <glyph glyph-name="uni0921093C" unicode="&#x95c;" horiz-adv-x="470" 
d="M-3 623h477c10 0 15 -5 15 -15v-30c0 -10 -5 -15 -15 -15h-79c-7 0 -10 -3 -10 -10v-117c0 -21 -15 -34 -35 -34h-150c-48 0 -67 -14 -67 -58v-13c0 -44 19 -58 67 -58h85c85 0 128 -37 128 -110v-47c0 -75 -48 -116 -127 -116h-89c-91 0 -136 43 -136 128v7
c0 12 5 18 16 18h35c9 0 14 -6 14 -18v-7c0 -53 23 -68 76 -68h75c45 0 68 20 68 61v35c0 44 -20 60 -68 60h-82c-88 0 -129 34 -129 111v24c0 75 48 112 129 112h112c7 0 10 4 10 11v79c0 7 -3 10 -10 10h-310c-11 0 -16 5 -16 15v30c0 10 5 15 16 15zM270 -80v-43
c0 -10 -5 -15 -14 -15h-42c-9 0 -14 5 -14 15v43c0 10 5 15 14 15h42c9 0 14 -5 14 -15z" />
    <glyph glyph-name="uni0922093C" unicode="&#x95d;" horiz-adv-x="486" 
d="M305 37h-95c-95 0 -148 57 -148 150v113c0 95 54 150 147 150h110c7 0 10 3 10 10v93c0 7 -3 10 -10 10h-322c-11 0 -16 5 -16 15v30c0 10 5 15 16 15h492c11 0 16 -5 16 -15v-30c0 -10 -5 -15 -16 -15h-82c-7 0 -10 -3 -10 -10v-131c0 -20 -14 -32 -31 -32h-152
c-57 0 -86 -30 -86 -91v-114c0 -59 29 -89 88 -89h88c55 0 77 23 77 78v16c0 40 -10 57 -46 57s-45 -16 -45 -57v-14c0 -11 -5 -16 -15 -16h-24c-13 0 -20 6 -20 17v16c0 71 28 108 103 108s108 -37 108 -112v-18c0 -89 -46 -134 -137 -134zM286 -50v-43
c0 -10 -5 -15 -14 -15h-42c-9 0 -14 5 -14 15v43c0 10 5 15 14 15h42c9 0 14 -5 14 -15z" />
    <glyph glyph-name="uni092B093C" unicode="&#x95e;" horiz-adv-x="741" 
d="M227 237h25c59 0 91 32 91 87v229c0 7 -4 10 -11 10h-181c-7 0 -10 -3 -10 -10v-228c0 -59 29 -88 86 -88zM410 330v-314c0 -11 -5 -16 -15 -16h-37c-10 0 -15 5 -15 15v204h-4c-17 -30 -49 -45 -96 -45h-25c-88 0 -146 56 -146 145v234c0 6 -3 9 -8 10h-67
c-11 0 -16 5 -16 16v29c0 10 5 15 16 15h747c10 0 15 -5 15 -15v-30c0 -10 -5 -15 -15 -15h-323c-7 0 -11 -3 -11 -10v-122h4c15 29 47 44 94 44h30c93 0 150 -56 150 -149v-87c0 -93 -57 -149 -150 -149h-46c-10 0 -15 5 -15 15v31c0 10 5 15 15 15h38c61 0 91 30 91 91v81
c0 59 -33 91 -92 91h-32c-56 0 -87 -29 -87 -84zM201 9v-43c0 -10 -5 -15 -14 -15h-42c-9 0 -14 5 -14 15v43c0 10 5 15 14 15h42c9 0 14 -5 14 -15z" />
    <glyph glyph-name="uni092F093C" unicode="&#x95f;" horiz-adv-x="569" 
d="M210 473v12c0 55 -22 78 -78 78h-135c-11 0 -16 5 -16 15v31c0 9 5 14 16 14h575c11 0 16 -5 16 -15v-30c0 -10 -5 -15 -16 -15h-75c-7 0 -10 -3 -10 -10v-538c0 -10 -5 -15 -15 -15h-39c-10 0 -15 5 -15 15v133h-4c-18 -36 -55 -54 -112 -54h-68c-55 0 -97 16 -128 48
c-31 33 -46 74 -46 123v114c0 10 5 15 15 15h57c56 0 78 20 78 79zM408 563h-168v-4c24 -14 36 -41 36 -80v-18c0 -85 -44 -127 -133 -127h-16v-69c0 -71 38 -110 113 -110h63c76 0 115 42 115 113v285c0 7 -3 10 -10 10zM166 -2v-43c0 -10 -5 -15 -14 -15h-42
c-9 0 -14 5 -14 15v43c0 10 5 15 14 15h42c9 0 14 -5 14 -15z" />
    <glyph glyph-name="uni0960" unicode="&#x960;" horiz-adv-x="764" 
d="M-4 623h771c10 0 15 -5 15 -15v-30c0 -10 -5 -15 -15 -15h-341c-7 0 -11 -3 -11 -10v-255l152 118c13 9 24 14 35 14h75c10 0 15 -5 15 -15v-168c0 -13 -8 -19 -23 -19h-28c-48 0 -68 -16 -68 -57v-6c0 -41 19 -55 70 -55h45c13 0 19 -6 19 -17v-26c0 -11 -7 -16 -20 -16
h-47c-48 0 -68 -16 -68 -56v-10c0 -41 20 -55 69 -55h60c13 0 19 -6 19 -17v-25c0 -11 -7 -17 -20 -17h-65c-87 0 -130 36 -130 108v19c0 36 15 62 45 78c-29 15 -44 42 -44 83v16c0 67 37 102 112 105c7 1 11 4 11 11v92l-214 -166v-202c0 -10 -5 -15 -15 -15h-38
c-10 0 -15 5 -15 15v148l-194 -152c-9 -7 -18 -11 -27 -11h-50c-8 0 -12 4 -12 12c0 6 5 13 15 21l183 143l83 61v50c0 55 -30 83 -91 83h-39c-60 0 -90 -28 -90 -83v-45c0 -10 -5 -15 -15 -15h-37c-10 0 -15 5 -15 15v48c0 93 55 143 150 143h35c48 0 81 -14 100 -43h4v163
c0 7 -3 10 -10 10h-341c-10 0 -15 5 -15 15v30c0 10 5 15 15 15z" />
    <glyph glyph-name="uni0961" unicode="&#x961;" horiz-adv-x="665" 
d="M-3 623h672c10 0 15 -5 15 -15v-30c0 -10 -5 -15 -15 -15h-76c-7 0 -10 -3 -10 -10v-401c0 -13 -8 -20 -23 -20h-29c-48 0 -68 -16 -68 -56v-7c0 -41 21 -55 70 -55h46c12 0 18 -5 18 -16v-26c0 -11 -7 -16 -20 -16h-47c-48 0 -68 -16 -68 -57v-9c0 -41 21 -55 70 -55h60
c12 0 18 -6 18 -17v-26c0 -11 -7 -16 -20 -16h-64c-87 0 -131 36 -131 108v19c0 36 15 62 46 78c-30 15 -45 42 -45 83v15c0 68 33 102 108 106c7 1 11 4 11 11v97c0 63 -25 86 -80 86s-80 -23 -80 -87v-77c0 -11 -5 -16 -15 -16h-36c-10 0 -15 5 -15 16v80
c0 61 -25 85 -80 85c-53 0 -80 -27 -80 -91v-103c0 -64 30 -91 90 -91h36c11 0 16 -5 16 -14v-32c0 -10 -5 -15 -16 -15h-44c-95 0 -149 50 -149 149v110c0 99 53 150 144 150c60 0 98 -21 113 -64h4c15 42 50 63 105 63c41 0 69 -12 83 -36h4v147c0 7 -3 10 -10 10h-508
c-11 0 -16 5 -16 15v30c0 10 5 15 16 15z" />
    <glyph glyph-name="uni0964" unicode="&#x964;" horiz-adv-x="293" 
d="M135 15v593c0 10 5 15 15 15h38c10 0 15 -5 15 -15v-593c0 -10 -5 -15 -15 -15h-38c-10 0 -15 5 -15 15z" />
    <glyph glyph-name="uni0965" unicode="&#x965;" horiz-adv-x="526" 
d="M368 15v593c0 10 5 15 15 15h38c10 0 15 -5 15 -15v-593c0 -10 -5 -15 -15 -15h-38c-10 0 -15 5 -15 15zM135 15v593c0 10 5 15 15 15h38c10 0 15 -5 15 -15v-593c0 -10 -5 -15 -15 -15h-38c-10 0 -15 5 -15 15z" />
    <glyph glyph-name="uni0966" unicode="&#x966;" horiz-adv-x="519" 
d="M133 493v-343c0 -59 28 -89 85 -89h83c57 0 86 30 86 89v343c0 59 -29 89 -86 89h-83c-57 0 -85 -30 -85 -89zM456 496v-349c0 -92 -55 -147 -146 -147h-100c-91 0 -147 55 -147 147v349c0 92 56 147 147 147h100c91 0 146 -55 146 -147z" />
    <glyph glyph-name="uni0967" unicode="&#x967;" horiz-adv-x="297" 
d="M15 508v37c0 9 4 17 13 22l117 67c9 6 18 9 25 9h40c9 0 14 -5 14 -14v-615c0 -9 -4 -14 -13 -14h-44c-9 0 -13 5 -13 14v554l-121 -68c-12 -7 -18 -4 -18 8z" />
    <glyph glyph-name="uni0968" unicode="&#x968;" horiz-adv-x="457" 
d="M49 13v90c0 45 19 82 58 111l193 151c33 27 50 58 50 95v37c0 57 -29 86 -87 86h-63c-57 0 -85 -29 -85 -86v-42c0 -9 -4 -14 -13 -14h-43c-9 0 -14 5 -14 14v43c0 92 55 145 147 145h80c91 0 146 -53 146 -145v-42c0 -53 -21 -95 -62 -126l-196 -155
c-23 -17 -35 -39 -35 -65v-48h282c9 0 14 -4 14 -13v-36c0 -9 -5 -13 -14 -13h-343c-10 0 -15 4 -15 13z" />
    <glyph glyph-name="uni0969" unicode="&#x969;" horiz-adv-x="491" 
d="M215 353h57c58 0 87 29 87 86v58c0 57 -29 86 -87 86h-69c-57 0 -86 -29 -86 -86v-33c0 -9 -4 -14 -13 -14h-43c-9 0 -13 5 -13 14v34c0 92 55 145 146 145h87c91 0 146 -53 146 -145v-60c0 -59 -27 -98 -81 -115c54 -14 81 -52 81 -114v-64c0 -92 -55 -145 -146 -145
h-87c-91 0 -146 53 -146 145v41c0 9 4 14 13 14h43c9 0 13 -5 13 -14v-40c0 -57 29 -86 86 -86h69c58 0 87 29 87 86v62c0 57 -29 86 -87 86h-57c-9 0 -14 4 -14 13v32c0 9 5 14 14 14z" />
    <glyph glyph-name="uni096A" unicode="&#x96a;" horiz-adv-x="470" 
d="M87 189h230v397zM371 0h-41c-9 0 -13 5 -13 14v114h-279c-14 0 -21 6 -21 19v23c0 11 3 21 8 30l246 424c6 13 16 19 29 19h63c13 0 20 -7 20 -20v-434h75c9 0 13 -4 13 -12v-35c0 -9 -4 -14 -13 -14h-75v-114c0 -9 -4 -14 -12 -14z" />
    <glyph glyph-name="uni096B" unicode="&#x96b;" horiz-adv-x="484" 
d="M366 148v113c0 61 -29 92 -88 92h-76c-29 0 -49 -12 -56 -25c-7 -16 -16 -24 -25 -24h-45c-9 0 -13 5 -13 14v311c0 9 4 14 13 14h331c9 0 14 -4 14 -13v-39c0 -9 -5 -13 -14 -13h-274v-217c13 33 41 50 85 50h74c91 0 143 -51 143 -142v-122c0 -92 -56 -147 -147 -147
h-82c-91 0 -146 55 -146 147v32c0 9 4 14 13 14h42c9 0 14 -5 14 -14v-31c0 -59 28 -88 85 -88h66c57 0 86 29 86 88z" />
    <glyph glyph-name="uni096C" unicode="&#x96c;" horiz-adv-x="501" 
d="M133 245v-95c0 -59 28 -89 85 -89h78c57 0 85 30 85 89v93c0 59 -28 88 -85 88h-75c-59 0 -88 -29 -88 -86zM451 246v-99c0 -92 -55 -147 -146 -147h-95c-91 0 -147 55 -147 147v349c0 92 56 147 147 147h196c10 0 15 -4 15 -13v-36c0 -8 -5 -12 -15 -12h-188
c-57 0 -85 -30 -85 -89v-160c13 40 46 60 98 60h74c91 0 146 -55 146 -147z" />
    <glyph glyph-name="uni096D" unicode="&#x96d;" horiz-adv-x="395" 
d="M136 0h-47c-11 0 -14 6 -8 17l219 561h-267c-9 0 -14 4 -14 13v39c0 9 5 13 14 13h329c9 0 14 -4 14 -13v-41c0 -7 -3 -17 -8 -30l-210 -546c-3 -9 -11 -13 -22 -13z" />
    <glyph glyph-name="uni096E" unicode="&#x96e;" horiz-adv-x="523" 
d="M459 498v-54c0 -61 -24 -101 -71 -120c47 -21 71 -61 71 -122v-57c0 -92 -55 -145 -146 -145h-103c-92 0 -147 53 -147 145v58c0 61 24 102 71 121c-47 19 -71 59 -71 120v54c0 92 55 145 147 145h103c91 0 146 -53 146 -145zM390 148v59c0 59 -29 88 -86 88h-86
c-57 0 -85 -29 -85 -88v-59c0 -58 28 -87 85 -87h86c57 0 86 29 86 87zM390 441v54c0 58 -29 87 -86 87h-86c-57 0 -85 -29 -85 -87v-54c0 -59 28 -88 85 -88h86c57 0 86 29 86 88z" />
    <glyph glyph-name="uni096F" unicode="&#x96f;" horiz-adv-x="496" 
d="M191 643h95c91 0 147 -55 147 -147v-349c0 -92 -56 -147 -147 -147h-197c-9 0 -14 4 -14 13v36c0 8 5 12 14 12h188c57 0 86 30 86 89v99h-172c-91 0 -146 55 -146 147v100c0 92 55 147 146 147zM200 311h163v182c0 59 -29 89 -86 89h-77c-57 0 -86 -30 -86 -89v-94
c0 -59 29 -88 86 -88z" />
    <glyph glyph-name="uni0970" unicode="&#x970;" horiz-adv-x="406" 
d="M109 329v-35c0 -59 28 -88 85 -88h19c57 0 85 29 85 88v35c0 59 -28 88 -85 88h-19c-57 0 -85 -29 -85 -88zM365 332v-41c0 -89 -54 -142 -143 -142h-37c-89 0 -143 53 -143 142v41c0 89 54 142 143 142h37c89 0 143 -53 143 -142z" />
    <glyph glyph-name="uni0972" unicode="&#x972;" horiz-adv-x="601" 
d="M599 841h28c11 0 17 -7 17 -20v-5c0 -84 -40 -126 -119 -126h-81c-79 0 -119 41 -119 124v7c0 13 6 20 17 20h29c11 0 16 -6 16 -19v-7c0 -49 18 -67 67 -67h62c48 0 65 18 65 67v7c0 13 6 19 18 19zM479 623h125c11 0 16 -5 16 -15v-30c0 -10 -5 -15 -16 -15h-75
c-7 0 -10 -3 -10 -10v-538c0 -10 -5 -15 -15 -15h-38c-11 0 -16 5 -16 15v208c0 7 -3 10 -10 10h-116v-45c0 -95 -57 -150 -152 -150h-120c-11 0 -16 5 -16 15v32c0 9 5 14 16 14h116c59 0 89 30 89 89v33c0 57 -30 86 -89 86h-57c-11 0 -16 5 -16 15v31c0 10 5 15 15 15h58
c59 0 89 29 89 87v20c0 59 -30 88 -89 88h-83c-11 0 -16 5 -16 15v30c0 10 5 15 16 15h90c96 0 149 -53 149 -149v-22c0 -57 -21 -94 -64 -112v-4c23 -8 39 -22 50 -43h130c7 0 10 4 10 11v289c0 17 12 30 29 30z" />
    <glyph glyph-name="Wgrave" unicode="&#x1e80;" horiz-adv-x="798" 
d="M414 707h-33c-8 0 -15 3 -20 10l-87 105c-5 8 -2 14 6 14h61c10 0 17 -4 21 -13l58 -102c5 -9 3 -14 -6 -14zM249 0h-77c-9 0 -15 5 -17 14l-128 615c-2 9 2 14 13 14h54c10 0 15 -5 16 -14l101 -551h6l135 552c2 9 7 13 16 13h60c9 0 14 -4 16 -13l137 -552h6l100 550
c2 10 8 15 17 15h54c11 0 15 -5 13 -15l-129 -614c-2 -9 -7 -14 -16 -14h-77c-9 0 -15 5 -17 14l-131 537h-4l-132 -537c-2 -9 -7 -14 -16 -14z" />
    <glyph glyph-name="wgrave" unicode="&#x1e81;" horiz-adv-x="686" 
d="M358 574h-33c-8 0 -15 3 -20 10l-87 105c-5 8 -2 14 7 14h60c10 0 17 -4 22 -13l57 -102c5 -9 3 -14 -6 -14zM227 0h-61c-9 0 -15 5 -17 14l-128 482c-2 9 1 14 10 14h51c9 0 14 -5 16 -14l97 -408h6l103 408c2 9 7 14 16 14h46c9 0 15 -5 18 -14l100 -408h6l98 408
c2 9 7 14 16 14h51c9 0 12 -5 10 -14l-128 -482c-2 -9 -8 -14 -17 -14h-62c-9 0 -14 5 -16 14l-97 398h-5l-96 -398c-2 -9 -8 -14 -17 -14z" />
    <glyph glyph-name="Wacute" unicode="&#x1e82;" horiz-adv-x="798" 
d="M459 836h60c9 0 13 -6 6 -14l-87 -105c-5 -7 -12 -10 -19 -10h-33c-9 0 -11 5 -7 14l58 102c5 9 12 13 22 13zM249 0h-77c-9 0 -15 5 -17 14l-128 615c-2 9 2 14 13 14h54c10 0 15 -5 16 -14l101 -551h6l135 552c2 9 7 13 16 13h60c9 0 14 -4 16 -13l137 -552h6l100 550
c2 10 8 15 17 15h54c11 0 15 -5 13 -15l-129 -614c-2 -9 -7 -14 -16 -14h-77c-9 0 -15 5 -17 14l-131 537h-4l-132 -537c-2 -9 -7 -14 -16 -14z" />
    <glyph glyph-name="wacute" unicode="&#x1e83;" horiz-adv-x="686" 
d="M401 703h60c10 0 12 -5 6 -14l-87 -105c-5 -7 -12 -10 -20 -10h-33c-9 0 -11 5 -6 14l58 102c5 9 12 13 22 13zM227 0h-61c-9 0 -15 5 -17 14l-128 482c-2 9 1 14 10 14h51c9 0 14 -5 16 -14l97 -408h6l103 408c2 9 7 14 16 14h46c9 0 15 -5 18 -14l100 -408h6l98 408
c2 9 7 14 16 14h51c9 0 12 -5 10 -14l-128 -482c-2 -9 -8 -14 -17 -14h-62c-9 0 -14 5 -16 14l-97 398h-5l-96 -398c-2 -9 -8 -14 -17 -14z" />
    <glyph glyph-name="Wdieresis" unicode="&#x1e84;" horiz-adv-x="798" 
d="M279 721v101c0 9 4 14 13 14h43c9 0 13 -4 13 -13v-102c0 -9 -4 -14 -13 -14h-43c-9 0 -13 5 -13 14zM450 721v101c0 9 4 14 13 14h43c9 0 13 -4 13 -13v-102c0 -9 -4 -14 -13 -14h-43c-9 0 -13 5 -13 14zM249 0h-77c-9 0 -15 5 -17 14l-128 615c-2 9 2 14 13 14h54
c10 0 15 -5 16 -14l101 -551h6l135 552c2 9 7 13 16 13h60c9 0 14 -4 16 -13l137 -552h6l100 550c2 10 8 15 17 15h54c11 0 15 -5 13 -15l-129 -614c-2 -9 -7 -14 -16 -14h-77c-9 0 -15 5 -17 14l-131 537h-4l-132 -537c-2 -9 -7 -14 -16 -14z" />
    <glyph glyph-name="wdieresis" unicode="&#x1e85;" horiz-adv-x="686" 
d="M223 588v101c0 9 4 14 13 14h43c9 0 13 -4 13 -13v-102c0 -9 -4 -14 -13 -14h-43c-9 0 -13 5 -13 14zM394 588v101c0 9 4 14 13 14h43c9 0 13 -4 13 -13v-102c0 -9 -4 -14 -13 -14h-43c-9 0 -13 5 -13 14zM227 0h-61c-9 0 -15 5 -17 14l-128 482c-2 9 1 14 10 14h51
c9 0 14 -5 16 -14l97 -408h6l103 408c2 9 7 14 16 14h46c9 0 15 -5 18 -14l100 -408h6l98 408c2 9 7 14 16 14h51c9 0 12 -5 10 -14l-128 -482c-2 -9 -8 -14 -17 -14h-62c-9 0 -14 5 -16 14l-97 398h-5l-96 -398c-2 -9 -8 -14 -17 -14z" />
    <glyph glyph-name="uni1E9E" unicode="&#x1e9e;" horiz-adv-x="550" 
d="M135 0h-46c-9 0 -13 5 -13 14v481c0 92 55 148 147 148h237c11 0 16 -5 16 -14v-42c0 -6 -2 -12 -5 -19l-103 -197v-4h15c75 -3 115 -48 115 -128v-92c0 -92 -56 -147 -148 -147h-87c-9 0 -14 4 -14 13v36c0 9 5 13 14 13h80c55 0 83 29 83 87v72c0 59 -26 89 -77 89h-41
c-10 0 -15 4 -15 13v32c0 9 2 17 6 25l101 198h-168c-56 0 -84 -29 -84 -86v-478c0 -9 -4 -14 -13 -14z" />
    <glyph glyph-name="Ygrave" unicode="&#x1ef2;" horiz-adv-x="500" 
d="M290 692h-32c-7 0 -13 3 -18 10l-80 100c-7 7 -2 13 5 13h53c9 0 15 -4 20 -12l58 -98c5 -9 3 -13 -6 -13zM272 0h-45c-9 0 -14 5 -14 14v227l-190 387c-4 9 1 15 9 15h56c7 0 13 -5 17 -14l143 -303h5l142 303c3 9 8 14 16 14h57c11 0 14 -5 9 -15l-191 -387v-227
c0 -9 -5 -14 -14 -14z" />
    <glyph glyph-name="ygrave" unicode="&#x1ef3;" horiz-adv-x="463" 
d="M266 574h-32c-7 0 -13 3 -18 10l-80 100c-7 7 -2 13 5 13h53c9 0 15 -4 20 -12l58 -98c5 -9 3 -13 -6 -13zM110 -157h-44c-9 0 -14 5 -14 14v37c0 9 5 14 14 14h25c43 0 73 12 90 36c14 19 27 47 38 83h-29c-8 0 -14 5 -17 14l-147 455c-3 9 1 14 10 14h48
c9 0 14 -5 17 -14l129 -412h4l129 412c2 9 7 14 16 14h46c11 0 15 -5 12 -15l-149 -475c-33 -113 -77 -177 -178 -177z" />
    <glyph glyph-name="uni200B" unicode="&#x200b;" horiz-adv-x="0" 
 />
    <glyph glyph-name="uni200C" unicode="&#x200c;" horiz-adv-x="0" 
d="M24 811v-1041h-47v1041h47z" />
    <glyph glyph-name="uni200D" unicode="&#x200d;" horiz-adv-x="0" 
d="M24 635v-865h-47v865l-69 -73l-33 33l93 93l-95 95l33 33l95 -95l96 95l32 -32l-96 -96l96 -95l-33 -33z" />
    <glyph glyph-name="endash" unicode="&#x2013;" horiz-adv-x="405" 
d="M351 296h-297c-9 0 -14 5 -14 14v26c0 9 5 14 14 14h297c9 0 14 -5 14 -14v-26c0 -9 -5 -14 -14 -14z" />
    <glyph glyph-name="emdash" unicode="&#x2014;" horiz-adv-x="565" 
d="M40 310v26c0 9 5 14 14 14h457c9 0 14 -5 14 -14v-26c0 -9 -5 -14 -14 -14h-457c-9 0 -14 5 -14 14z" />
    <glyph glyph-name="quoteleft" unicode="&#x2018;" horiz-adv-x="181" 
d="M55 418v57c0 14 5 36 15 66l33 94c3 5 7 8 12 8c7 0 10 -4 10 -12v-213c0 -9 -4 -13 -13 -13h-43c-9 0 -14 4 -14 13z" />
    <glyph glyph-name="quoteright" unicode="&#x2019;" horiz-adv-x="181" 
d="M125 630v-58c0 -15 -5 -37 -14 -65l-34 -95c-2 -5 -6 -7 -11 -7c-7 0 -11 4 -11 12v212c0 9 5 14 14 14h43c9 0 13 -4 13 -13z" />
    <glyph glyph-name="quotesinglbase" unicode="&#x201a;" horiz-adv-x="187" 
d="M129 118v-57c0 -14 -5 -36 -15 -66l-33 -94c-3 -5 -7 -8 -12 -8c-7 0 -10 4 -10 12v213c0 9 4 13 13 13h43c9 0 14 -4 14 -13z" />
    <glyph glyph-name="quotedblleft" unicode="&#x201c;" horiz-adv-x="334" 
d="M209 418v57c0 17 5 39 15 66l33 94c2 5 6 8 11 8c7 0 11 -4 11 -12v-213c0 -9 -4 -13 -13 -13h-44c-9 0 -13 4 -13 13zM55 418v57c0 14 5 36 15 66l33 94c3 5 7 8 12 8c7 0 10 -4 10 -12v-213c0 -9 -4 -13 -13 -13h-43c-9 0 -14 4 -14 13z" />
    <glyph glyph-name="quotedblright" unicode="&#x201d;" horiz-adv-x="334" 
d="M125 630v-58c0 -15 -5 -37 -14 -65l-34 -95c-2 -5 -6 -7 -11 -7c-7 0 -11 4 -11 12v212c0 9 5 14 14 14h43c9 0 13 -4 13 -13zM279 630v-58c0 -17 -5 -38 -15 -65l-33 -95c-4 -9 -22 -11 -22 5v212c0 9 4 14 13 14h44c9 0 13 -4 13 -13z" />
    <glyph glyph-name="quotedblbase" unicode="&#x201e;" horiz-adv-x="341" 
d="M129 118v-58c0 -13 -5 -35 -15 -65l-33 -95c-5 -9 -22 -11 -22 5v212c0 9 4 14 13 14h43c9 0 14 -4 14 -13zM282 118v-58c0 -15 -5 -37 -14 -65l-34 -95c-2 -5 -6 -7 -11 -7c-7 0 -11 4 -11 12v212c0 9 5 14 14 14h43c9 0 13 -4 13 -13z" />
    <glyph glyph-name="dagger" unicode="&#x2020;" horiz-adv-x="421" 
d="M216 0h-13c-9 0 -15 6 -16 17c-1 12 -4 59 -8 140c-4 82 -6 140 -6 173c0 34 3 65 9 94l-129 -9c-11 -1 -14 5 -14 14v39c0 9 5 13 14 12l131 -10l-11 159c-1 9 4 14 14 14h45c9 0 14 -5 14 -14l-11 -159l133 10c9 1 14 -3 14 -12v-39c0 -9 -3 -15 -14 -14l-132 9
c7 -25 10 -55 10 -91c0 -35 -2 -94 -6 -176c-4 -81 -7 -128 -8 -140c-1 -11 -7 -17 -16 -17z" />
    <glyph glyph-name="daggerdbl" unicode="&#x2021;" horiz-adv-x="421" 
d="M39 429v39c0 9 5 13 14 12l131 -10l-11 159c-1 9 4 14 14 14h45c9 0 14 -5 14 -14l-11 -159l133 10c9 1 14 -3 14 -12v-39c0 -9 -3 -15 -14 -14l-132 9c7 -25 10 -60 10 -103s-3 -77 -10 -104l132 10c11 1 14 -5 14 -14v-39c0 -10 -5 -14 -14 -12l-133 10l11 -158
c0 -9 -5 -14 -14 -14h-45c-10 0 -15 5 -14 14l11 157l-131 -9c-9 -2 -14 2 -14 12v39c0 9 3 15 14 14l129 -9c-5 25 -8 59 -8 102s3 77 8 104l-129 -9c-11 -1 -14 5 -14 14z" />
    <glyph glyph-name="bullet" unicode="&#x2022;" horiz-adv-x="279" 
d="M197 372v-105c0 -24 -12 -36 -36 -36h-43c-24 0 -36 12 -36 36v105c0 24 12 36 36 36h43c24 0 36 -12 36 -36z" />
    <glyph glyph-name="ellipsis" unicode="&#x2026;" horiz-adv-x="596" 
d="M136 135v-121c0 -9 -4 -14 -13 -14h-51c-9 0 -13 5 -13 15v120c0 9 4 13 13 13h51c9 0 13 -4 13 -13zM338 135v-121c0 -9 -4 -14 -13 -14h-51c-9 0 -13 5 -13 15v120c0 9 4 13 13 13h51c9 0 13 -4 13 -13zM537 135v-121c0 -9 -4 -14 -13 -14h-51c-9 0 -13 5 -13 15v120
c0 9 4 13 13 13h51c9 0 13 -4 13 -13z" />
    <glyph glyph-name="perthousand" unicode="&#x2030;" horiz-adv-x="1036" 
d="M162 646h35c75 0 112 -38 112 -114v-70c0 -76 -37 -114 -112 -114h-35c-75 0 -112 38 -112 114v70c0 76 37 114 112 114zM242 0h-29c-11 0 -14 5 -9 16c9 25 52 127 129 306c77 180 121 282 130 306c4 10 10 15 19 15h28c11 0 15 -6 10 -17l-259 -611
c-4 -10 -10 -15 -19 -15zM189 599h-19c-49 0 -65 -18 -65 -69v-66c0 -52 16 -70 65 -70h19c49 0 65 19 65 70v66c0 51 -16 69 -65 69zM527 299h35c75 0 112 -38 112 -114v-70c0 -77 -37 -115 -112 -115h-35c-75 0 -112 38 -112 115v70c0 76 37 114 112 114zM555 252h-19
c-51 0 -66 -18 -66 -70v-65c0 -51 15 -70 66 -70h19c49 0 65 19 65 70v65c0 52 -16 70 -65 70zM879 252h-19c-51 0 -65 -18 -65 -70v-65c0 -52 16 -70 65 -70h19c49 0 65 19 65 70v65c0 52 -16 70 -65 70zM852 299h35c74 0 111 -38 111 -114v-70c0 -77 -37 -115 -111 -115
h-35c-75 0 -112 38 -112 115v70c0 76 37 114 112 114z" />
    <glyph glyph-name="guilsinglleft" unicode="&#x2039;" horiz-adv-x="287" 
d="M228 132v-36c0 -12 -6 -16 -15 -8l-140 128c-9 7 -14 16 -14 27v26c0 9 5 18 14 26l140 128c9 8 15 4 15 -7v-37c0 -7 -4 -14 -11 -20l-110 -103l110 -103c7 -7 11 -14 11 -21z" />
    <glyph glyph-name="guilsinglright" unicode="&#x203a;" horiz-adv-x="287" 
d="M59 379v37c0 11 6 15 15 7l140 -128c9 -8 14 -17 14 -26v-26c0 -11 -5 -20 -14 -27l-140 -128c-9 -8 -15 -4 -15 8v36c0 7 4 14 11 21l111 103l-111 103c-7 6 -11 13 -11 20z" />
    <glyph glyph-name="fraction" unicode="&#x2044;" horiz-adv-x="113" 
d="M-164 0h-26c-11 0 -19 1 4 30c11 15 82 112 214 292c133 180 208 282 225 306c8 10 16 15 25 15h28c11 0 13 -8 6 -17l-450 -611c-7 -10 -16 -15 -26 -15z" />
    <glyph glyph-name="Euro" unicode="&#x20ac;" horiz-adv-x="530" 
d="M316 0h-65c-92 0 -148 54 -148 146v85h-55c-10 0 -15 5 -15 15v23c0 10 5 15 15 15h55v71h-55c-10 0 -15 5 -15 15v23c0 10 5 15 15 15h55v89c0 92 56 146 148 146h65c92 0 148 -54 148 -146v-25c0 -9 -5 -14 -14 -14h-45c-9 0 -14 5 -14 14v24c0 57 -28 85 -84 85h-47
c-57 0 -85 -28 -85 -85v-88h139c10 0 15 -5 15 -15v-23c0 -10 -5 -15 -15 -15h-139v-71h139c10 0 15 -5 15 -15v-23c0 -10 -5 -15 -15 -15h-139v-84c0 -57 28 -85 85 -85h47c56 0 84 28 84 85v24c0 9 5 14 14 14h45c9 0 14 -5 14 -14v-25c0 -92 -56 -146 -148 -146z" />
    <glyph glyph-name="uni20B9" unicode="&#x20b9;" horiz-adv-x="445" 
d="M393 563h-127v-4c21 -11 32 -32 32 -64v-20h95c11 0 16 -5 16 -14v-31c0 -10 -5 -15 -16 -15h-95v-16c0 -95 -57 -145 -146 -145h-31l175 -228c3 -5 5 -9 5 -12c0 -9 -5 -14 -14 -14h-42c-6 0 -12 4 -18 11l-162 216l-25 27v43c0 11 6 17 19 17h85c57 0 85 28 85 84v17
h-173c-11 0 -16 5 -16 15v31c0 9 5 14 16 14h173v22c0 44 -22 66 -66 66h-107c-11 0 -16 5 -16 15v31c0 9 5 14 16 14h337c11 0 16 -5 16 -15v-30c0 -10 -5 -15 -16 -15z" />
    <glyph glyph-name="trademark" unicode="&#x2122;" horiz-adv-x="591" 
d="M487 643h35c7 0 10 -3 10 -9v-226c0 -7 -3 -10 -9 -10h-22c-6 0 -9 3 -9 10v176h-3l-55 -117c-2 -6 -5 -9 -10 -9h-23c-5 0 -8 3 -11 9l-55 117h-3v-176c0 -7 -3 -10 -9 -10h-22c-6 0 -9 3 -9 10v226c0 6 3 9 10 9h35c4 0 7 -2 10 -6l64 -133h3l64 133c1 4 4 6 9 6z
M134 408v199h-66c-6 0 -9 3 -9 9v18c0 6 3 9 9 9h169c7 0 10 -3 10 -9v-18c0 -6 -3 -9 -10 -9h-64v-199c0 -7 -3 -10 -8 -10h-22c-6 0 -9 3 -9 10z" />
    <glyph glyph-name="uni2126" unicode="&#x2126;" horiz-adv-x="638" 
d="M283 51v-37c0 -9 -5 -14 -14 -14h-215c-9 0 -14 5 -14 14v37c0 10 5 15 14 15h88v4c-32 22 -48 59 -48 110v317c0 91 56 146 149 146h152c92 0 149 -55 149 -146v-317c0 -51 -16 -88 -48 -110v-4h88c9 0 14 -5 14 -15v-37c0 -9 -5 -14 -14 -14h-216c-9 0 -14 5 -14 14v37
c0 10 5 15 14 15h20c56 0 84 29 84 88v340c0 55 -29 83 -87 83h-133c-58 0 -87 -28 -87 -83v-340c0 -59 28 -88 84 -88h20c9 0 14 -5 14 -15z" />
    <glyph glyph-name="partialdiff" unicode="&#x2202;" horiz-adv-x="495" 
d="M273 346h-53c-56 0 -87 -31 -87 -87v-108c0 -58 28 -87 83 -87h62c56 0 84 29 84 87v103c0 61 -30 92 -89 92zM140 584c-10 0 -15 4 -15 13v32c0 13 7 19 22 19c89 0 158 -21 207 -63c54 -46 81 -129 81 -249v-188c0 -93 -56 -148 -147 -148h-80c-92 0 -148 55 -148 148
v114c0 93 56 148 148 148h52c51 0 91 -21 106 -53h4c0 168 -75 227 -230 227z" />
    <glyph glyph-name="uni2206" unicode="&#x2206;" horiz-adv-x="617" 
d="M280 643h57c9 0 15 -5 20 -14l228 -614c5 -10 2 -15 -8 -15h-537c-9 0 -12 5 -9 15l229 614c4 9 11 14 20 14zM310 568h-4l-180 -502h364z" />
    <glyph glyph-name="minus" unicode="&#x2212;" horiz-adv-x="535" 
d="M85 352h365c10 0 15 -5 15 -15v-32c0 -9 -5 -14 -15 -14h-365c-10 0 -15 5 -15 14v32c0 10 5 15 15 15z" />
    <glyph glyph-name="approxequal" unicode="&#x2248;" horiz-adv-x="535" 
d="M81 198c-7 0 -11 4 -11 11v31c0 11 7 19 21 24c25 10 49 15 74 15s60 -5 103 -15s75 -15 94 -15c20 0 40 4 60 12c21 8 32 12 33 12c7 0 10 -4 10 -11v-31c0 -11 -7 -19 -21 -24c-25 -10 -50 -15 -75 -15s-60 5 -105 15c-44 10 -75 15 -93 15s-37 -4 -57 -12
s-31 -12 -33 -12zM81 369c-7 0 -11 4 -11 11v31c0 11 7 19 21 24c25 10 49 15 74 15s60 -5 103 -15s75 -15 94 -15c20 0 40 4 60 12c21 8 32 12 33 12c7 0 10 -4 10 -11v-31c0 -11 -7 -19 -21 -24c-25 -10 -50 -15 -75 -15s-60 5 -105 15c-44 10 -75 15 -93 15
s-37 -4 -57 -12s-31 -12 -33 -12z" />
    <glyph glyph-name="notequal" unicode="&#x2260;" horiz-adv-x="535" 
d="M205 98h-25c-11 0 -15 5 -10 15l29 86h-114c-10 0 -15 5 -15 15v30c0 10 5 15 15 15h134l43 124h-177c-10 0 -15 5 -15 15v31c0 10 5 15 15 15h197l30 84c3 10 9 15 20 15h24c11 0 14 -5 11 -15l-29 -84h112c10 0 15 -5 15 -15v-31c0 -10 -5 -15 -15 -15h-132l-43 -124
h175c10 0 15 -5 15 -15v-30c0 -10 -5 -15 -15 -15h-195l-30 -86c-3 -10 -9 -15 -20 -15z" />
    <glyph glyph-name="lessequal" unicode="&#x2264;" horiz-adv-x="535" 
d="M465 276v-33c0 -9 -5 -13 -16 -10l-362 102c-11 3 -17 11 -17 22v34c0 12 6 20 17 23l362 102c11 3 16 -1 16 -10v-33c0 -11 -4 -17 -12 -18l-303 -81l303 -80c8 -3 12 -9 12 -18zM85 182h365c10 0 15 -5 15 -15v-29c0 -10 -5 -15 -15 -15h-365c-10 0 -15 5 -15 15v29
c0 10 5 15 15 15z" />
    <glyph glyph-name="greaterequal" unicode="&#x2265;" horiz-adv-x="535" 
d="M85 182h365c10 0 15 -5 15 -15v-29c0 -10 -5 -15 -15 -15h-365c-10 0 -15 5 -15 15v29c0 10 5 15 15 15zM70 243v33c0 9 4 15 12 18l303 80l-303 81c-8 1 -12 7 -12 18v33c0 9 6 13 17 10l361 -102c11 -3 17 -11 17 -23v-34c0 -11 -6 -19 -17 -22l-361 -102
c-11 -3 -17 1 -17 10z" />
    <glyph glyph-name="uni25CC" unicode="&#x25cc;" horiz-adv-x="701" 
d="M297 539c-16 17 -16 47 0 63c17 17 47 17 63 0c17 -16 17 -46 0 -63c-16 -16 -46 -16 -63 0zM455 512c-24 0 -44 20 -44 45s19 44 44 44c58 5 57 -93 0 -89zM518 456c-16 17 -16 47 0 64c17 17 47 17 63 0c17 -16 17 -47 0 -64c-16 -16 -46 -16 -63 0zM568 338
c-16 16 -16 48 0 64s47 16 63 -1c17 -16 17 -46 0 -63c-16 -16 -47 -16 -63 0zM590 192c-24 0 -44 19 -44 44c0 27 20 45 44 45c57 4 57 -94 0 -89zM485 106c-16 17 -16 47 0 63c17 17 47 17 64 0c17 -16 17 -46 0 -63c-17 -16 -47 -16 -64 0zM364 53c-16 17 -16 47 0 63
c16 17 48 17 64 0c17 -16 17 -46 0 -63c-16 -16 -48 -16 -64 0zM270 55c-58 -4 -58 94 0 90c57 4 57 -94 0 -90zM167 132c-56 -6 -56 93 1 88c57 4 58 -92 -1 -88zM84 261c-16 16 -16 46 0 63c17 17 47 17 63 0c17 -16 17 -47 0 -63c-16 -16 -46 -16 -63 0zM98 386
c-17 17 -17 47 0 63c17 17 47 17 64 0c17 -16 17 -46 0 -63c-17 -16 -47 -16 -64 0zM211 483c-57 -5 -57 94 0 89c57 5 57 -94 0 -89z" />
    <glyph glyph-name="commaaccent" unicode="&#xf6c3;" horiz-adv-x="0" 
d="M270 -45v-47c0 -17 -5 -36 -15 -58l-33 -80c-3 -5 -7 -8 -12 -8c-7 0 -10 4 -10 12v180c0 9 4 14 13 14h44c9 0 13 -4 13 -13z" />
    <glyph glyph-name="itfLogo" horiz-adv-x="1734" 
d="M1603 237h-207v196h207v-196zM1603 475h-207v196h207v-196zM1354 0h-208v671h208v-671zM1104 475h-208v196h208v-196zM854 0h-207v671h207v-671zM604 475h-207v196h207v-196zM354 0h-207v671h207v-671z" />
    <glyph glyph-name="uni0915094D" horiz-adv-x="520" 
d="M515 414h-32c-57 0 -86 -28 -86 -84v-314c0 -11 -5 -16 -15 -16h-38c-9 0 -14 5 -14 16v118h-4c-16 -29 -47 -44 -94 -44h-30c-93 0 -150 56 -150 149v87c0 93 57 149 150 149h46c10 0 15 -5 15 -15v-31c0 -10 -5 -15 -15 -15h-38c-61 0 -91 -30 -91 -91v-81
c0 -59 33 -91 92 -91h32c56 0 87 29 87 84v318c0 7 -3 10 -10 10h-323c-11 0 -16 5 -16 15v30c0 10 5 15 16 15h642c10 0 15 -5 15 -15v-30c0 -10 -5 -15 -15 -15h-232c-7 0 -10 -3 -10 -10v-122h4c14 29 45 44 94 44h30c61 0 102 -22 123 -66c5 -8 7 -19 -6 -28
c-36 -27 -37 -24 -46 -7c-15 27 -42 40 -81 40z" />
    <glyph glyph-name="uni0916094D" horiz-adv-x="478" 
d="M474 129h-23c-88 0 -135 54 -135 143v44c0 87 50 140 142 140h18c11 0 16 -5 16 -15v-31c0 -9 -5 -14 -16 -14h-13c-57 0 -80 -28 -80 -88v-32c0 -60 25 -88 82 -88h5c27 0 48 6 62 18c5 4 11 10 18 17c16 16 17 17 42 -4c11 -7 10 -16 3 -27c-29 -42 -70 -63 -121 -63z
M-3 623h575c11 0 16 -5 16 -15v-30c0 -10 -5 -15 -16 -15h-298c-7 0 -10 -3 -10 -10v-152c0 -84 -47 -130 -120 -131h-31l162 -244c3 -5 5 -9 5 -12c0 -9 -5 -14 -14 -14h-41c-6 0 -12 4 -18 11l-152 230l-22 29v43c0 11 6 17 18 17h78c45 0 67 25 67 74v149
c0 7 -3 10 -9 10h-190c-11 0 -16 5 -16 15v30c0 10 5 15 16 15z" />
    <glyph glyph-name="uni0917094D" horiz-adv-x="270" 
d="M273 563h-64c-7 0 -10 -3 -10 -10v-196c0 -99 -52 -148 -143 -148h-20c-10 0 -15 5 -15 15v33c0 10 5 15 15 15h11c56 0 84 29 84 87v194c0 7 -3 10 -10 10h-124c-11 0 -16 5 -16 15v30c0 10 5 15 16 15h276c11 0 16 -5 16 -15v-30c0 -10 -5 -15 -16 -15z" />
    <glyph glyph-name="uni0918094D" horiz-adv-x="315" 
d="M212 140h89c40 2 38 7 52 13c13 9 20 15 23 18s8 9 16 17c16 16 22 14 31 6l14 -12c12 -8 11 -15 3 -27c-36 -51 -81 -77 -135 -77h-102c-89 0 -140 49 -140 138v37c0 53 20 86 60 99v4c-40 14 -60 46 -60 95v37c0 35 11 59 32 71v4h-98c-11 0 -16 5 -16 16v29
c0 10 5 15 16 15h429c10 0 15 -5 15 -15v-30c0 -10 -5 -15 -15 -15h-232c-43 0 -64 -24 -64 -71v-37c0 -46 23 -69 69 -69h62c10 0 15 -5 15 -15v-32c0 -10 -5 -15 -15 -15h-62c-46 0 -69 -23 -69 -70v-33c0 -56 26 -81 82 -81z" />
    <glyph glyph-name="uni0919094D" horiz-adv-x="517" 
d="M219 -52h35c9 0 16 -5 22 -14l91 -131c2 -3 3 -6 3 -11c0 -9 -4 -13 -13 -13h-41c-8 0 -14 4 -19 12l-88 137c-1 4 -2 7 -2 8c0 8 4 12 12 12zM489 356v-43c0 -10 -5 -15 -14 -15h-42c-10 0 -15 5 -15 15v43c0 9 5 14 15 14h42c9 0 14 -5 14 -14zM-3 623h523
c10 0 15 -5 15 -15v-30c0 -10 -5 -15 -15 -15h-125c-7 0 -10 -3 -10 -10v-117c0 -21 -15 -34 -35 -34h-150c-48 0 -67 -14 -67 -58v-10c0 -44 18 -58 67 -58h87c84 0 126 -37 126 -110v-50c0 -76 -46 -116 -126 -116h-91c-89 0 -135 36 -135 128v7c0 12 5 18 16 18h35
c9 0 14 -6 14 -18v-7c0 -53 19 -68 75 -68h77c48 0 67 17 67 61v38c0 45 -19 60 -67 60h-83c-88 0 -129 34 -129 111v21c0 75 48 112 129 112h112c7 0 10 4 10 11v79c0 7 -3 10 -10 10h-310c-11 0 -16 5 -16 15v30c0 10 5 15 16 15z" />
    <glyph glyph-name="uni091A094D" horiz-adv-x="336" 
d="M320 97h-68c-93 0 -149 55 -149 148v38c0 45 14 76 43 91v4h-108c-11 0 -16 5 -16 15v32c0 10 5 15 16 15h277c11 0 16 -5 16 -15v-32c0 -10 -5 -15 -16 -15h-60c-56 0 -84 -30 -84 -90v-39c0 -60 30 -90 90 -90h58c27 0 50 8 69 23c6 5 13 13 22 22c17 19 24 16 33 8
l14 -11c11 -9 10 -19 3 -28c-37 -51 -83 -76 -140 -76zM448 563h-451c-11 0 -16 5 -16 15v30c0 10 5 15 16 15h451c11 0 16 -5 16 -15v-30c0 -10 -5 -15 -16 -15z" />
    <glyph glyph-name="uni091B094D" horiz-adv-x="573" 
d="M-3 623h579c10 0 15 -5 15 -15v-29c0 -10 -5 -15 -15 -16h-368c-47 0 -71 -26 -71 -77v-64c0 -47 23 -70 69 -70h39c10 0 15 -5 15 -15v-31c0 -9 -5 -14 -15 -14h-34c-49 0 -74 -25 -74 -75v-34c0 -57 23 -80 82 -80h135c59 0 88 30 88 90v151c0 45 -21 67 -64 67h-36
c-11 0 -16 5 -16 15v30c0 9 5 14 16 14h40c84 0 126 -42 126 -126v-159c0 -84 -52 -144 -143 -144h-152c-91 0 -144 47 -144 136v41c0 54 20 88 61 101v4c-41 11 -61 41 -61 90v72c0 38 12 63 35 74v4h-107c-11 1 -16 6 -16 16v29c0 10 5 15 16 15z" />
    <glyph glyph-name="uni091C094D" horiz-adv-x="313" 
d="M393 362h-148v-4c26 -13 39 -39 39 -78v-74c0 -93 -50 -143 -134 -143h-106c-11 0 -16 5 -16 14v32c0 10 5 15 16 15h90c57 0 83 27 83 87v65c0 57 -28 86 -84 86h-49c-10 0 -15 5 -15 15v35c0 9 5 14 15 14h309c11 0 16 -5 16 -15v-33c0 -10 -5 -15 -16 -16zM393 563
h-396c-11 0 -16 5 -16 15v30c0 10 5 15 16 15h396c11 0 16 -5 16 -15v-29c0 -10 -5 -15 -16 -16z" />
    <glyph glyph-name="uni091D094D" horiz-adv-x="424" 
d="M504 240h-139c12 -9 18 -26 18 -50v-40c0 -76 -47 -117 -127 -117h-47c-39 0 -64 11 -77 33h-4v-98c0 -10 -5 -15 -15 -15h-37c-10 0 -15 5 -15 15v212c0 10 5 15 15 15h37c10 0 15 -5 15 -15v-19c0 -45 24 -68 72 -68h48c48 0 68 17 68 61v28c0 41 -18 59 -62 59h-59
c-86 0 -129 38 -129 115v11c0 75 48 113 129 113h81c7 0 10 3 10 10v63c0 7 -3 10 -10 10h-279c-11 0 -16 5 -16 15v30c0 10 5 15 16 15h507c11 0 16 -5 16 -15v-30c0 -10 -5 -15 -16 -15h-140c-7 0 -10 -3 -10 -10v-100c0 -21 -15 -34 -35 -34h-120c-48 0 -66 -16 -66 -57
v-7c0 -40 19 -55 66 -55h305c11 0 16 -5 16 -14v-31c0 -10 -5 -15 -16 -15z" />
    <glyph glyph-name="uni091E094D" horiz-adv-x="346" 
d="M71 465h77c95 0 143 -49 143 -148c1 -6 5 -9 12 -9h125c11 0 16 -5 16 -15v-32c0 -10 -5 -15 -16 -15h-125c-7 0 -11 -3 -11 -10c0 -115 -60 -154 -144 -154h-93c-10 0 -15 5 -15 15v33c0 9 5 14 15 14h90c57 0 86 29 86 88v83c0 59 -28 88 -85 88h-75
c-10 0 -15 5 -15 14v33c0 10 5 15 15 15zM428 563h-431c-11 0 -16 5 -16 15v30c0 10 5 15 16 15h431c11 0 16 -5 16 -15v-30c0 -10 -5 -15 -16 -15z" />
    <glyph glyph-name="uni091F094D" horiz-adv-x="479" 
d="M209 439h97c7 0 10 4 10 11v103c0 7 -3 10 -10 10h-309c-11 0 -16 5 -16 15v30c0 10 5 15 16 15h485c11 0 16 -5 16 -15v-30c0 -10 -5 -15 -16 -15h-88c-7 0 -10 -3 -10 -10v-141c0 -21 -15 -34 -35 -34h-134c-60 0 -90 -30 -90 -90v-100c0 -60 30 -90 90 -90h67
c60 0 90 29 90 88v30c0 11 5 17 14 17h35c11 0 16 -6 16 -17v-30c0 -96 -55 -149 -150 -149h-78c-95 0 -150 59 -150 151v101c0 93 55 150 150 150zM227 -32h35c9 0 16 -5 22 -14l91 -131c2 -3 3 -7 3 -11c0 -9 -4 -13 -13 -13h-41c-8 0 -14 4 -19 12l-88 137
c-1 4 -2 7 -2 8c0 8 4 12 12 12z" />
    <glyph glyph-name="uni0920094D" horiz-adv-x="509" 
d="M287 378h-73c-59 0 -88 -30 -88 -91v-97c0 -61 30 -92 90 -92h68c60 0 90 31 90 92v97c0 57 -30 91 -87 91zM512 563h-106c-7 0 -10 -3 -10 -10v-59c0 -37 -13 -62 -39 -74v-4c51 -11 85 -55 85 -116v-116c0 -92 -58 -148 -151 -148h-83c-93 0 -150 57 -150 152v101
c0 93 57 151 150 151h55c43 0 64 16 64 65v48c0 7 -3 10 -9 10h-321c-11 0 -16 5 -16 15v30c0 10 5 15 16 15h515c10 0 15 -5 15 -15v-30c0 -10 -5 -15 -15 -15zM225 -32h35c9 0 16 -5 22 -14l91 -131c2 -3 3 -7 3 -11c0 -9 -4 -13 -13 -13h-41c-8 0 -14 4 -19 12l-88 137
c-1 4 -2 7 -2 8c0 8 4 12 12 12z" />
    </font>
</defs>
</svg>
